999
DXF created by Inkscape
  0
SECTION
  2
HEADER
  9
$ACADVER
  1
AC1014
  9
$HANDSEED
  5
FFFF
  9
$MEASUREMENT
 70
     1
  0
ENDSEC
  0
SECTION
  2
TABLES
  0
TABLE
  2
VPORT
  5
8
330
0
100
AcDbSymbolTable
 70
     4
  0
VPORT
  5
2E
330
8
100
AcDbSymbolTableRecord
100
AcDbViewportTableRecord
  2
*ACTIVE
 70
     0
 10
0.0
 20
0.0
 11
1.0
 21
1.0
 12
210.0
 22
148.5
 13
0.0
 23
0.0
 14
10.0
 24
10.0
 15
10.0
 25
10.0
 16
0.0
 26
0.0
 36
1.0
 17
0.0
 27
0.0
 37
0.0
 40
341.0
 41
1.24
 42
50.0
 43
0.0
 44
0.0
 50
0.0
 51
0.0
 71
     0
 72
   100
 73
     1
 74
     3
 75
     0
 76
     0
 77
     0
 78
     0
  0
ENDTAB
  0
TABLE
  2
LTYPE
  5
5
330
0
100
AcDbSymbolTable
 70
     1
  0
LTYPE
  5
14
330
5
100
AcDbSymbolTableRecord
100
AcDbLinetypeTableRecord
  2
BYBLOCK
 70
     0
  3

 72
    65
 73
     0
 40
0.0
  0
LTYPE
  5
15
330
5
100
AcDbSymbolTableRecord
100
AcDbLinetypeTableRecord
  2
BYLAYER
 70
     0
  3

 72
    65
 73
     0
 40
0.0
  0
LTYPE
  5
16
330
5
100
AcDbSymbolTableRecord
100
AcDbLinetypeTableRecord
  2
CONTINUOUS
 70
     0
  3
Solid line
 72
    65
 73
     0
 40
0.0
  0
ENDTAB
  0
TABLE
  2
LAYER
  5
2
100
AcDbSymbolTable
 70
3
  0
LAYER
  5
50
100
AcDbSymbolTableRecord
100
AcDbLayerTableRecord
  2
0
 70
0
  6
CONTINUOUS
  0
LAYER
  5
51
100
AcDbSymbolTableRecord
100
AcDbLayerTableRecord
  2
A
 70
0
  6
CONTINUOUS
  0
LAYER
  5
52
100
AcDbSymbolTableRecord
100
AcDbLayerTableRecord
  2
K
 70
0
  6
CONTINUOUS
  0
ENDTAB
  0
TABLE
  2
STYLE
  5
3
330
0
100
AcDbSymbolTable
 70
     1
  0
STYLE
  5
11
330
3
100
AcDbSymbolTableRecord
100
AcDbTextStyleTableRecord
  2
STANDARD
 70
     0
 40
0.0
 41
1.0
 50
0.0
 71
     0
 42
2.5
  3
txt
  4

  0
ENDTAB
  0
TABLE
  2
VIEW
  5
6
330
0
100
AcDbSymbolTable
 70
     0
  0
ENDTAB
  0
TABLE
  2
UCS
  5
7
330
0
100
AcDbSymbolTable
 70
     0
  0
ENDTAB
  0
TABLE
  2
APPID
  5
9
330
0
100
AcDbSymbolTable
 70
     2
  0
APPID
  5
12
330
9
100
AcDbSymbolTableRecord
100
AcDbRegAppTableRecord
  2
ACAD
 70
     0
  0
ENDTAB
  0
TABLE
  2
DIMSTYLE
  5
A
330
0
100
AcDbSymbolTable
 70
     1
  0
DIMSTYLE
105
27
330
A
100
AcDbSymbolTableRecord
100
AcDbDimStyleTableRecord
  2
ISO-25
 70
     0
  3

  4

  5

  6

  7

 40
1.0
 41
2.5
 42
0.625
 43
3.75
 44
1.25
 45
0.0
 46
0.0
 47
0.0
 48
0.0
140
2.5
141
2.5
142
0.0
143
0.03937007874016
144
1.0
145
0.0
146
1.0
147
0.625
 71
     0
 72
     0
 73
     0
 74
     0
 75
     0
 76
     0
 77
     1
 78
     8
170
     0
171
     3
172
     1
173
     0
174
     0
175
     0
176
     0
177
     0
178
     0
270
     2
271
     2
272
     2
273
     2
274
     3
340
11
275
     0
280
     0
281
     0
282
     0
283
     0
284
     8
285
     0
286
     0
287
     3
288
     0
  0
ENDTAB
  0
TABLE
  2
BLOCK_RECORD
  5
1
330
0
100
AcDbSymbolTable
 70
     1
  0
BLOCK_RECORD
  5
1F
330
1
100
AcDbSymbolTableRecord
100
AcDbBlockTableRecord
  2
*MODEL_SPACE
  0
BLOCK_RECORD
  5
1B
330
1
100
AcDbSymbolTableRecord
100
AcDbBlockTableRecord
  2
*PAPER_SPACE
  0
ENDTAB
  0
ENDSEC
  0
SECTION
  2
BLOCKS
  0
BLOCK
  5
20
330
1F
100
AcDbEntity
  8
0
100
AcDbBlockBegin
  2
*MODEL_SPACE
 70
     0
 10
0.0
 20
0.0
 30
0.0
  3
*MODEL_SPACE
  1

  0
ENDBLK
  5
21
330
1F
100
AcDbEntity
  8
0
100
AcDbBlockEnd
  0
BLOCK
  5
1C
330
1B
100
AcDbEntity
 67
     1
  8
0
100
AcDbBlockBegin
  2
*PAPER_SPACE
  1

  0
ENDBLK
  5
1D
330
1B
100
AcDbEntity
 67
     1
  8
0
100
AcDbBlockEnd
  0
ENDSEC
  0
SECTION
  2
ENTITIES
  0
SPLINE
  5
100
100
AcDbEntity
  8
A
 62
7
100
AcDbSpline
 70
8
 71
3
 72
8
 73
4
 74
0
 40
0
 40
0
 40
0
 40
0
 40
1
 40
1
 40
1
 40
1
 10
60.404372
 20
168.808856
 30
0.0
 10
60.386556
 20
168.807104
 30
0.0
 10
60.368877
 20
168.804157
 30
0.0
 10
60.351456
 20
168.800037
 30
0.0
  0
LWPOLYLINE
  5
101
100
AcDbEntity
  8
A
 62
7
100
AcDbPolyline
 90
2
 70
0
 10
62.503400
 20
168.976426
 30
0.0
 10
60.404372
 20
168.808856
 30
0.0
  0
SPLINE
  5
102
100
AcDbEntity
  8
A
 62
7
100
AcDbSpline
 70
8
 71
3
 72
8
 73
4
 74
0
 40
0
 40
0
 40
0
 40
0
 40
1
 40
1
 40
1
 40
1
 10
57.996664
 20
168.306148
 30
0.0
 10
57.978636
 20
168.301507
 30
0.0
 10
57.960954
 20
168.295613
 30
0.0
 10
57.943747
 20
168.288509
 30
0.0
  0
SPLINE
  5
103
100
AcDbEntity
  8
A
 62
7
100
AcDbSpline
 70
8
 71
3
 72
8
 73
4
 74
0
 40
0
 40
0
 40
0
 40
0
 40
1
 40
1
 40
1
 40
1
 10
57.943747
 20
168.288509
 30
0.0
 10
57.943747
 20
168.288509
 30
0.0
 10
55.738886
 20
167.477120
 30
0.0
 10
55.738886
 20
167.477120
 30
0.0
  0
SPLINE
  5
104
100
AcDbEntity
  8
A
 62
7
100
AcDbSpline
 70
8
 71
3
 72
8
 73
4
 74
0
 40
0
 40
0
 40
0
 40
0
 40
1
 40
1
 40
1
 40
1
 10
55.738886
 20
167.477120
 30
0.0
 10
55.720618
 20
167.469619
 30
0.0
 10
55.702931
 20
167.460775
 30
0.0
 10
55.685969
 20
167.450662
 30
0.0
  0
SPLINE
  5
105
100
AcDbEntity
  8
A
 62
7
100
AcDbSpline
 70
8
 71
3
 72
8
 73
4
 74
0
 40
0
 40
0
 40
0
 40
0
 40
1
 40
1
 40
1
 40
1
 10
55.685969
 20
167.450662
 30
0.0
 10
55.685969
 20
167.450662
 30
0.0
 10
53.622219
 20
166.357051
 30
0.0
 10
53.622219
 20
166.357051
 30
0.0
  0
SPLINE
  5
106
100
AcDbEntity
  8
A
 62
7
100
AcDbSpline
 70
8
 71
3
 72
8
 73
4
 74
0
 40
0
 40
0
 40
0
 40
0
 40
1
 40
1
 40
1
 40
1
 10
53.622219
 20
166.357051
 30
0.0
 10
53.606968
 20
166.349186
 30
0.0
 10
53.592239
 20
166.340348
 30
0.0
 10
53.578122
 20
166.330592
 30
0.0
  0
LWPOLYLINE
  5
107
100
AcDbEntity
  8
A
 62
7
100
AcDbPolyline
 90
2
 70
0
 10
60.351456
 20
168.800037
 30
0.0
 10
57.996664
 20
168.306148
 30
0.0
  0
SPLINE
  5
108
100
AcDbEntity
  8
A
 62
7
100
AcDbSpline
 70
8
 71
3
 72
8
 73
4
 74
0
 40
0
 40
0
 40
0
 40
0
 40
1
 40
1
 40
1
 40
1
 10
51.646664
 20
164.981217
 30
0.0
 10
51.637207
 20
164.969953
 30
0.0
 10
51.628379
 20
164.958176
 30
0.0
 10
51.620220
 20
164.945940
 30
0.0
  0
LWPOLYLINE
  5
109
100
AcDbEntity
  8
A
 62
7
100
AcDbPolyline
 90
2
 70
0
 10
53.578122
 20
166.330592
 30
0.0
 10
51.646664
 20
164.981217
 30
0.0
  0
SPLINE
  5
10a
100
AcDbEntity
  8
A
 62
7
100
AcDbSpline
 70
8
 71
3
 72
8
 73
4
 74
0
 40
0
 40
0
 40
0
 40
0
 40
1
 40
1
 40
1
 40
1
 10
49.821053
 20
163.367259
 30
0.0
 10
49.811830
 20
163.358857
 30
0.0
 10
49.803006
 20
163.350028
 30
0.0
 10
49.794609
 20
163.340801
 30
0.0
  0
LWPOLYLINE
  5
10b
100
AcDbEntity
  8
A
 62
7
100
AcDbPolyline
 90
2
 70
0
 10
51.620220
 20
164.945940
 30
0.0
 10
49.821053
 20
163.367259
 30
0.0
  0
SPLINE
  5
10c
100
AcDbEntity
  8
A
 62
7
100
AcDbSpline
 70
8
 71
3
 72
8
 73
4
 74
0
 40
0
 40
0
 40
0
 40
0
 40
1
 40
1
 40
1
 40
1
 10
48.118914
 20
161.568092
 30
0.0
 10
48.109458
 20
161.556828
 30
0.0
 10
48.100630
 20
161.545051
 30
0.0
 10
48.092470
 20
161.532815
 30
0.0
  0
LWPOLYLINE
  5
10d
100
AcDbEntity
  8
A
 62
7
100
AcDbPolyline
 90
2
 70
0
 10
49.794609
 20
163.340801
 30
0.0
 10
48.118914
 20
161.568092
 30
0.0
  0
SPLINE
  5
10e
100
AcDbEntity
  8
A
 62
7
100
AcDbSpline
 70
8
 71
3
 72
8
 73
4
 74
0
 40
0
 40
0
 40
0
 40
0
 40
1
 40
1
 40
1
 40
1
 10
45.120317
 20
157.502328
 30
0.0
 10
45.110566
 20
157.488212
 30
0.0
 10
45.101733
 20
157.473482
 30
0.0
 10
45.093873
 20
157.458231
 30
0.0
  0
SPLINE
  5
10f
100
AcDbEntity
  8
A
 62
7
100
AcDbSpline
 70
8
 71
3
 72
8
 73
4
 74
0
 40
0
 40
0
 40
0
 40
0
 40
1
 40
1
 40
1
 40
1
 10
45.093873
 20
157.458231
 30
0.0
 10
45.093873
 20
157.458231
 30
0.0
 10
42.571456
 20
153.004412
 30
0.0
 10
42.571456
 20
153.004412
 30
0.0
  0
SPLINE
  5
110
100
AcDbEntity
  8
A
 62
7
100
AcDbSpline
 70
8
 71
3
 72
8
 73
4
 74
0
 40
0
 40
0
 40
0
 40
0
 40
1
 40
1
 40
1
 40
1
 10
42.571456
 20
153.004412
 30
0.0
 10
42.564999
 20
152.992950
 30
0.0
 10
42.559113
 20
152.981176
 30
0.0
 10
42.553817
 20
152.969134
 30
0.0
  0
LWPOLYLINE
  5
111
100
AcDbEntity
  8
A
 62
7
100
AcDbPolyline
 90
2
 70
0
 10
48.092470
 20
161.532815
 30
0.0
 10
45.120317
 20
157.502328
 30
0.0
  0
SPLINE
  5
112
100
AcDbEntity
  8
A
 62
7
100
AcDbSpline
 70
8
 71
3
 72
8
 73
4
 74
0
 40
0
 40
0
 40
0
 40
0
 40
1
 40
1
 40
1
 40
1
 10
40.454789
 20
148.312467
 30
0.0
 10
40.451547
 20
148.303753
 30
0.0
 10
40.448610
 20
148.294928
 30
0.0
 10
40.445984
 20
148.286009
 30
0.0
  0
SPLINE
  5
113
100
AcDbEntity
  8
A
 62
7
100
AcDbSpline
 70
8
 71
3
 72
8
 73
4
 74
0
 40
0
 40
0
 40
0
 40
0
 40
1
 40
1
 40
1
 40
1
 10
40.445984
 20
148.286009
 30
0.0
 10
40.445984
 20
148.286009
 30
0.0
 10
38.726192
 20
143.664620
 30
0.0
 10
38.726192
 20
143.664620
 30
0.0
  0
SPLINE
  5
114
100
AcDbEntity
  8
A
 62
7
100
AcDbSpline
 70
8
 71
3
 72
8
 73
4
 74
0
 40
0
 40
0
 40
0
 40
0
 40
1
 40
1
 40
1
 40
1
 10
38.726192
 20
143.664620
 30
0.0
 10
38.723112
 20
143.658814
 30
0.0
 10
38.720176
 20
143.652932
 30
0.0
 10
38.717387
 20
143.646981
 30
0.0
  0
SPLINE
  5
115
100
AcDbEntity
  8
A
 62
7
100
AcDbSpline
 70
8
 71
3
 72
8
 73
4
 74
0
 40
0
 40
0
 40
0
 40
0
 40
1
 40
1
 40
1
 40
1
 10
38.717387
 20
143.646981
 30
0.0
 10
38.717387
 20
143.646981
 30
0.0
 10
37.350344
 20
139.298995
 30
0.0
 10
37.350344
 20
139.298995
 30
0.0
  0
SPLINE
  5
116
100
AcDbEntity
  8
A
 62
7
100
AcDbSpline
 70
8
 71
3
 72
8
 73
4
 74
0
 40
0
 40
0
 40
0
 40
0
 40
1
 40
1
 40
1
 40
1
 10
37.350344
 20
139.298995
 30
0.0
 10
37.347364
 20
139.296106
 30
0.0
 10
37.344428
 20
139.293170
 30
0.0
 10
37.341539
 20
139.290190
 30
0.0
  0
LWPOLYLINE
  5
117
100
AcDbEntity
  8
A
 62
7
100
AcDbPolyline
 90
2
 70
0
 10
42.553817
 20
152.969134
 30
0.0
 10
40.454789
 20
148.312467
 30
0.0
  0
SPLINE
  5
118
100
AcDbEntity
  8
A
 62
7
100
AcDbSpline
 70
8
 71
3
 72
8
 73
4
 74
0
 40
0
 40
0
 40
0
 40
0
 40
1
 40
1
 40
1
 40
1
 10
35.392442
 20
132.128801
 30
0.0
 10
35.392410
 20
132.125866
 30
0.0
 10
35.392410
 20
132.122931
 30
0.0
 10
35.392442
 20
132.119996
 30
0.0
  0
LWPOLYLINE
  5
119
100
AcDbEntity
  8
A
 62
7
100
AcDbPolyline
 90
2
 70
0
 10
37.341539
 20
139.290190
 30
0.0
 10
35.392442
 20
132.128801
 30
0.0
  0
SPLINE
  5
11a
100
AcDbEntity
  8
A
 62
7
100
AcDbSpline
 70
8
 71
3
 72
8
 73
4
 74
0
 40
0
 40
0
 40
0
 40
0
 40
1
 40
1
 40
1
 40
1
 10
33.672650
 20
124.905690
 30
0.0
 10
33.672618
 20
124.902755
 30
0.0
 10
33.672618
 20
124.899820
 30
0.0
 10
33.672650
 20
124.896885
 30
0.0
  0
LWPOLYLINE
  5
11b
100
AcDbEntity
  8
A
 62
7
100
AcDbPolyline
 90
2
 70
0
 10
35.392442
 20
132.119996
 30
0.0
 10
33.672650
 20
124.905690
 30
0.0
  0
SPLINE
  5
11c
100
AcDbEntity
  8
A
 62
7
100
AcDbSpline
 70
8
 71
3
 72
8
 73
4
 74
0
 40
0
 40
0
 40
0
 40
0
 40
1
 40
1
 40
1
 40
1
 10
30.762234
 20
110.362440
 30
0.0
 10
30.762104
 20
110.356561
 30
0.0
 10
30.762104
 20
110.350680
 30
0.0
 10
30.762234
 20
110.344801
 30
0.0
  0
LWPOLYLINE
  5
11d
100
AcDbEntity
  8
A
 62
7
100
AcDbPolyline
 90
2
 70
0
 10
33.672650
 20
124.896885
 30
0.0
 10
30.762234
 20
110.362440
 30
0.0
  0
SPLINE
  5
11e
100
AcDbEntity
  8
A
 62
7
100
AcDbSpline
 70
8
 71
3
 72
8
 73
4
 74
0
 40
0
 40
0
 40
0
 40
0
 40
1
 40
1
 40
1
 40
1
 10
7.840526
 20
33.324635
 30
0.0
 10
7.840526
 20
33.324635
 30
0.0
 10
3.721845
 20
28.526858
 30
0.0
 10
3.721845
 20
28.526858
 30
0.0
  0
SPLINE
  5
11f
100
AcDbEntity
  8
A
 62
7
100
AcDbSpline
 70
8
 71
3
 72
8
 73
4
 74
0
 40
0
 40
0
 40
0
 40
0
 40
1
 40
1
 40
1
 40
1
 10
3.721845
 20
28.526858
 30
0.0
 10
3.712601
 20
28.518429
 30
0.0
 10
3.703758
 20
28.509572
 30
0.0
 10
3.695344
 20
28.500315
 30
0.0
  0
LWPOLYLINE
  5
120
100
AcDbEntity
  8
A
 62
7
100
AcDbPolyline
 90
17
 70
0
 10
30.762234
 20
110.344801
 30
0.0
 10
25.726331
 20
81.117162
 30
0.0
 10
25.735136
 20
81.117162
 30
0.0
 10
22.824719
 20
64.827649
 30
0.0
 10
20.937358
 20
56.801954
 30
0.0
 10
20.928553
 20
56.775510
 30
0.0
 10
19.746747
 20
52.877315
 30
0.0
 10
19.737942
 20
52.850871
 30
0.0
 10
18.362109
 20
49.049691
 30
0.0
 10
18.353303
 20
49.049691
 30
0.0
 10
16.271915
 20
44.736982
 30
0.0
 10
13.758373
 20
40.794691
 30
0.0
 10
13.740734
 20
40.768246
 30
0.0
 10
10.892053
 20
37.011163
 30
0.0
 10
10.883248
 20
36.993524
 30
0.0
 10
7.831720
 20
33.324635
 30
0.0
 10
7.840526
 20
33.324635
 30
0.0
  0
SPLINE
  5
121
100
AcDbEntity
  8
A
 62
7
100
AcDbSpline
 70
8
 71
3
 72
8
 73
4
 74
0
 40
0
 40
0
 40
0
 40
0
 40
1
 40
1
 40
1
 40
1
 10
1.834442
 20
25.907398
 30
0.0
 10
1.824328
 20
25.890436
 30
0.0
 10
1.815485
 20
25.872749
 30
0.0
 10
1.807983
 20
25.854481
 30
0.0
  0
SPLINE
  5
122
100
AcDbEntity
  8
A
 62
7
100
AcDbSpline
 70
8
 71
3
 72
8
 73
4
 74
0
 40
0
 40
0
 40
0
 40
0
 40
1
 40
1
 40
1
 40
1
 10
1.807983
 20
25.854481
 30
0.0
 10
1.807983
 20
25.854481
 30
0.0
 10
0.405692
 20
23.085176
 30
0.0
 10
0.405692
 20
23.085176
 30
0.0
  0
SPLINE
  5
123
100
AcDbEntity
  8
A
 62
7
100
AcDbSpline
 70
8
 71
3
 72
8
 73
4
 74
0
 40
0
 40
0
 40
0
 40
0
 40
1
 40
1
 40
1
 40
1
 10
0.405692
 20
23.085176
 30
0.0
 10
0.391637
 20
23.062877
 30
0.0
 10
0.379820
 20
23.039243
 30
0.0
 10
0.370414
 20
23.014620
 30
0.0
  0
SPLINE
  5
124
100
AcDbEntity
  8
A
 62
7
100
AcDbSpline
 70
8
 71
3
 72
8
 73
4
 74
0
 40
0
 40
0
 40
0
 40
0
 40
1
 40
1
 40
1
 40
1
 10
0.370414
 20
23.014620
 30
0.0
 10
0.370414
 20
23.014620
 30
0.0
 10
-0.185211
 20
21.012606
 30
0.0
 10
-0.185211
 20
21.012606
 30
0.0
  0
SPLINE
  5
125
100
AcDbEntity
  8
A
 62
7
100
AcDbSpline
 70
8
 71
3
 72
8
 73
4
 74
0
 40
0
 40
0
 40
0
 40
0
 40
1
 40
1
 40
1
 40
1
 10
-0.185211
 20
21.012606
 30
0.0
 10
-0.193221
 20
20.989672
 30
0.0
 10
-0.199125
 20
20.966056
 30
0.0
 10
-0.202850
 20
20.942051
 30
0.0
  0
SPLINE
  5
126
100
AcDbEntity
  8
A
 62
7
100
AcDbSpline
 70
8
 71
3
 72
8
 73
4
 74
0
 40
0
 40
0
 40
0
 40
0
 40
1
 40
1
 40
1
 40
1
 10
-0.202850
 20
20.942051
 30
0.0
 10
-0.202850
 20
20.942051
 30
0.0
 10
-0.396878
 20
18.931217
 30
0.0
 10
-0.396878
 20
18.931217
 30
0.0
  0
SPLINE
  5
127
100
AcDbEntity
  8
A
 62
7
100
AcDbSpline
 70
8
 71
3
 72
8
 73
4
 74
0
 40
0
 40
0
 40
0
 40
0
 40
1
 40
1
 40
1
 40
1
 10
-0.396878
 20
18.931217
 30
0.0
 10
-0.398468
 20
18.910669
 30
0.0
 10
-0.398468
 20
18.890029
 30
0.0
 10
-0.396878
 20
18.869481
 30
0.0
  0
LWPOLYLINE
  5
128
100
AcDbEntity
  8
A
 62
7
100
AcDbPolyline
 90
2
 70
0
 10
3.695344
 20
28.500315
 30
0.0
 10
1.834442
 20
25.907398
 30
0.0
  0
SPLINE
  5
129
100
AcDbEntity
  8
A
 62
7
100
AcDbSpline
 70
8
 71
3
 72
8
 73
4
 74
0
 40
0
 40
0
 40
0
 40
0
 40
1
 40
1
 40
1
 40
1
 10
-0.264586
 20
16.876287
 30
0.0
 10
-0.263262
 20
16.855510
 30
0.0
 10
-0.260318
 20
16.834869
 30
0.0
 10
-0.255781
 20
16.814551
 30
0.0
  0
SPLINE
  5
12a
100
AcDbEntity
  8
A
 62
7
100
AcDbSpline
 70
8
 71
3
 72
8
 73
4
 74
0
 40
0
 40
0
 40
0
 40
0
 40
1
 40
1
 40
1
 40
1
 10
-0.255781
 20
16.814551
 30
0.0
 10
-0.255781
 20
16.814551
 30
0.0
 10
0.185191
 20
14.865453
 30
0.0
 10
0.185191
 20
14.865453
 30
0.0
  0
SPLINE
  5
12b
100
AcDbEntity
  8
A
 62
7
100
AcDbSpline
 70
8
 71
3
 72
8
 73
4
 74
0
 40
0
 40
0
 40
0
 40
0
 40
1
 40
1
 40
1
 40
1
 10
0.185191
 20
14.865453
 30
0.0
 10
0.186939
 20
14.847637
 30
0.0
 10
0.189881
 20
14.829959
 30
0.0
 10
0.193997
 20
14.812537
 30
0.0
  0
LWPOLYLINE
  5
12c
100
AcDbEntity
  8
A
 62
7
100
AcDbPolyline
 90
2
 70
0
 10
-0.396878
 20
18.869481
 30
0.0
 10
-0.264586
 20
16.876287
 30
0.0
  0
SPLINE
  5
12d
100
AcDbEntity
  8
A
 62
7
100
AcDbSpline
 70
8
 71
3
 72
8
 73
4
 74
0
 40
0
 40
0
 40
0
 40
0
 40
1
 40
1
 40
1
 40
1
 10
0.899552
 20
12.916356
 30
0.0
 10
0.904563
 20
12.901320
 30
0.0
 10
0.910462
 20
12.886595
 30
0.0
 10
0.917219
 20
12.872259
 30
0.0
  0
SPLINE
  5
12e
100
AcDbEntity
  8
A
 62
7
100
AcDbSpline
 70
8
 71
3
 72
8
 73
4
 74
0
 40
0
 40
0
 40
0
 40
0
 40
1
 40
1
 40
1
 40
1
 10
0.917219
 20
12.872259
 30
0.0
 10
0.917219
 20
12.872259
 30
0.0
 10
1.843261
 20
11.064273
 30
0.0
 10
1.843261
 20
11.064273
 30
0.0
  0
SPLINE
  5
12f
100
AcDbEntity
  8
A
 62
7
100
AcDbSpline
 70
8
 71
3
 72
8
 73
4
 74
0
 40
0
 40
0
 40
0
 40
0
 40
1
 40
1
 40
1
 40
1
 10
1.843261
 20
11.064273
 30
0.0
 10
1.853165
 20
11.042688
 30
0.0
 10
1.864970
 20
11.022028
 30
0.0
 10
1.878539
 20
11.002537
 30
0.0
  0
LWPOLYLINE
  5
130
100
AcDbEntity
  8
A
 62
7
100
AcDbPolyline
 90
2
 70
0
 10
0.193997
 20
14.812537
 30
0.0
 10
0.899552
 20
12.916356
 30
0.0
  0
SPLINE
  5
131
100
AcDbEntity
  8
A
 62
7
100
AcDbSpline
 70
8
 71
3
 72
8
 73
4
 74
0
 40
0
 40
0
 40
0
 40
0
 40
1
 40
1
 40
1
 40
1
 10
4.286247
 20
7.712884
 30
0.0
 10
4.301743
 20
7.690561
 30
0.0
 10
4.319474
 20
7.669876
 30
0.0
 10
4.339164
 20
7.651148
 30
0.0
  0
SPLINE
  5
132
100
AcDbEntity
  8
A
 62
7
100
AcDbSpline
 70
8
 71
3
 72
8
 73
4
 74
0
 40
0
 40
0
 40
0
 40
0
 40
1
 40
1
 40
1
 40
1
 10
4.339164
 20
7.651148
 30
0.0
 10
4.339164
 20
7.651148
 30
0.0
 10
6.773331
 20
5.446287
 30
0.0
 10
6.773331
 20
5.446287
 30
0.0
  0
SPLINE
  5
133
100
AcDbEntity
  8
A
 62
7
100
AcDbSpline
 70
8
 71
3
 72
8
 73
4
 74
0
 40
0
 40
0
 40
0
 40
0
 40
1
 40
1
 40
1
 40
1
 10
6.773331
 20
5.446287
 30
0.0
 10
6.792466
 20
5.429665
 30
0.0
 10
6.813137
 20
5.414900
 30
0.0
 10
6.835067
 20
5.402190
 30
0.0
  0
SPLINE
  5
134
100
AcDbEntity
  8
A
 62
7
100
AcDbSpline
 70
8
 71
3
 72
8
 73
4
 74
0
 40
0
 40
0
 40
0
 40
0
 40
1
 40
1
 40
1
 40
1
 10
6.835067
 20
5.402190
 30
0.0
 10
6.835067
 20
5.402190
 30
0.0
 10
9.595553
 20
3.770592
 30
0.0
 10
9.595553
 20
3.770592
 30
0.0
  0
SPLINE
  5
135
100
AcDbEntity
  8
A
 62
7
100
AcDbSpline
 70
8
 71
3
 72
8
 73
4
 74
0
 40
0
 40
0
 40
0
 40
0
 40
1
 40
1
 40
1
 40
1
 10
9.595553
 20
3.770592
 30
0.0
 10
9.615354
 20
3.760063
 30
0.0
 10
9.636005
 20
3.751217
 30
0.0
 10
9.657289
 20
3.744148
 30
0.0
  0
SPLINE
  5
136
100
AcDbEntity
  8
A
 62
7
100
AcDbSpline
 70
8
 71
3
 72
8
 73
4
 74
0
 40
0
 40
0
 40
0
 40
0
 40
1
 40
1
 40
1
 40
1
 10
9.657289
 20
3.744148
 30
0.0
 10
9.657289
 20
3.744148
 30
0.0
 10
12.673539
 20
2.624079
 30
0.0
 10
12.673539
 20
2.624079
 30
0.0
  0
SPLINE
  5
137
100
AcDbEntity
  8
A
 62
7
100
AcDbSpline
 70
8
 71
3
 72
8
 73
4
 74
0
 40
0
 40
0
 40
0
 40
0
 40
1
 40
1
 40
1
 40
1
 10
12.673539
 20
2.624079
 30
0.0
 10
12.690746
 20
2.616975
 30
0.0
 10
12.708428
 20
2.611081
 30
0.0
 10
12.726456
 20
2.606440
 30
0.0
  0
SPLINE
  5
138
100
AcDbEntity
  8
A
 62
7
100
AcDbSpline
 70
8
 71
3
 72
8
 73
4
 74
0
 40
0
 40
0
 40
0
 40
0
 40
1
 40
1
 40
1
 40
1
 10
12.726456
 20
2.606440
 30
0.0
 10
12.726456
 20
2.606440
 30
0.0
 10
15.919094
 20
1.918523
 30
0.0
 10
15.919094
 20
1.918523
 30
0.0
  0
SPLINE
  5
139
100
AcDbEntity
  8
A
 62
7
100
AcDbSpline
 70
8
 71
3
 72
8
 73
4
 74
0
 40
0
 40
0
 40
0
 40
0
 40
1
 40
1
 40
1
 40
1
 10
15.919094
 20
1.918523
 30
0.0
 10
15.933617
 20
1.914764
 30
0.0
 10
15.948339
 20
1.911824
 30
0.0
 10
15.963192
 20
1.909718
 30
0.0
  0
LWPOLYLINE
  5
13a
100
AcDbEntity
  8
A
 62
7
100
AcDbPolyline
 90
2
 70
0
 10
1.878539
 20
11.002537
 30
0.0
 10
4.286247
 20
7.712884
 30
0.0
  0
SPLINE
  5
13b
100
AcDbEntity
  8
A
 62
7
100
AcDbSpline
 70
8
 71
3
 72
8
 73
4
 74
0
 40
0
 40
0
 40
0
 40
0
 40
1
 40
1
 40
1
 40
1
 10
19.261664
 20
1.592218
 30
0.0
 10
19.273417
 20
1.591699
 30
0.0
 10
19.285188
 20
1.591699
 30
0.0
 10
19.296942
 20
1.592218
 30
0.0
  0
SPLINE
  5
13c
100
AcDbEntity
  8
A
 62
7
100
AcDbSpline
 70
8
 71
3
 72
8
 73
4
 74
0
 40
0
 40
0
 40
0
 40
0
 40
1
 40
1
 40
1
 40
1
 10
19.296942
 20
1.592218
 30
0.0
 10
19.296942
 20
1.592218
 30
0.0
 10
22.630692
 20
1.565774
 30
0.0
 10
22.630692
 20
1.565774
 30
0.0
  0
SPLINE
  5
13d
100
AcDbEntity
  8
A
 62
7
100
AcDbSpline
 70
8
 71
3
 72
8
 73
4
 74
0
 40
0
 40
0
 40
0
 40
0
 40
1
 40
1
 40
1
 40
1
 10
22.630692
 20
1.565774
 30
0.0
 10
22.642445
 20
1.565255
 30
0.0
 10
22.654216
 20
1.565255
 30
0.0
 10
22.665969
 20
1.565774
 30
0.0
  0
LWPOLYLINE
  5
13e
100
AcDbEntity
  8
A
 62
7
100
AcDbPolyline
 90
2
 70
0
 10
15.963192
 20
1.909718
 30
0.0
 10
19.261664
 20
1.592218
 30
0.0
  0
SPLINE
  5
13f
100
AcDbEntity
  8
A
 62
7
100
AcDbSpline
 70
8
 71
3
 72
8
 73
4
 74
0
 40
0
 40
0
 40
0
 40
0
 40
1
 40
1
 40
1
 40
1
 10
29.139442
 20
2.112579
 30
0.0
 10
29.148254
 20
2.112288
 30
0.0
 10
29.157074
 20
2.112288
 30
0.0
 10
29.165886
 20
2.112579
 30
0.0
  0
LWPOLYLINE
  5
140
100
AcDbEntity
  8
A
 62
7
100
AcDbPolyline
 90
2
 70
0
 10
22.665969
 20
1.565774
 30
0.0
 10
29.139442
 20
2.112579
 30
0.0
  0
SPLINE
  5
141
100
AcDbEntity
  8
A
 62
7
100
AcDbSpline
 70
8
 71
3
 72
8
 73
4
 74
0
 40
0
 40
0
 40
0
 40
0
 40
1
 40
1
 40
1
 40
1
 10
31.855816
 20
2.518274
 30
0.0
 10
31.867703
 20
2.520672
 30
0.0
 10
31.879474
 20
2.523611
 30
0.0
 10
31.891094
 20
2.527079
 30
0.0
  0
LWPOLYLINE
  5
142
100
AcDbEntity
  8
A
 62
7
100
AcDbPolyline
 90
2
 70
0
 10
29.165886
 20
2.112579
 30
0.0
 10
31.855816
 20
2.518274
 30
0.0
  0
SPLINE
  5
143
100
AcDbEntity
  8
A
 62
7
100
AcDbSpline
 70
8
 71
3
 72
8
 73
4
 74
0
 40
0
 40
0
 40
0
 40
0
 40
1
 40
1
 40
1
 40
1
 10
34.616303
 20
3.170898
 30
0.0
 10
34.637321
 20
3.175114
 30
0.0
 10
34.657966
 20
3.181013
 30
0.0
 10
34.678039
 20
3.188537
 30
0.0
  0
SPLINE
  5
144
100
AcDbEntity
  8
A
 62
7
100
AcDbSpline
 70
8
 71
3
 72
8
 73
4
 74
0
 40
0
 40
0
 40
0
 40
0
 40
1
 40
1
 40
1
 40
1
 10
34.678039
 20
3.188537
 30
0.0
 10
34.678039
 20
3.188537
 30
0.0
 10
37.226858
 20
4.255690
 30
0.0
 10
37.226858
 20
4.255690
 30
0.0
  0
SPLINE
  5
145
100
AcDbEntity
  8
A
 62
7
100
AcDbSpline
 70
8
 71
3
 72
8
 73
4
 74
0
 40
0
 40
0
 40
0
 40
0
 40
1
 40
1
 40
1
 40
1
 10
37.226858
 20
4.255690
 30
0.0
 10
37.248443
 20
4.265593
 30
0.0
 10
37.269103
 20
4.277399
 30
0.0
 10
37.288594
 20
4.290968
 30
0.0
  0
LWPOLYLINE
  5
146
100
AcDbEntity
  8
A
 62
7
100
AcDbPolyline
 90
2
 70
0
 10
31.891094
 20
2.527079
 30
0.0
 10
34.616303
 20
3.170898
 30
0.0
  0
SPLINE
  5
147
100
AcDbEntity
  8
A
 62
7
100
AcDbSpline
 70
8
 71
3
 72
8
 73
4
 74
0
 40
0
 40
0
 40
0
 40
0
 40
1
 40
1
 40
1
 40
1
 10
38.435122
 20
5.022982
 30
0.0
 10
38.450634
 20
5.033687
 30
0.0
 10
38.465369
 20
5.045476
 30
0.0
 10
38.479219
 20
5.058259
 30
0.0
  0
LWPOLYLINE
  5
148
100
AcDbEntity
  8
A
 62
7
100
AcDbPolyline
 90
2
 70
0
 10
37.288594
 20
4.290968
 30
0.0
 10
38.435122
 20
5.022982
 30
0.0
  0
SPLINE
  5
149
100
AcDbEntity
  8
A
 62
7
100
AcDbSpline
 70
8
 71
3
 72
8
 73
4
 74
0
 40
0
 40
0
 40
0
 40
0
 40
1
 40
1
 40
1
 40
1
 10
39.502275
 20
5.966662
 30
0.0
 10
39.518099
 20
5.980191
 30
0.0
 10
39.532843
 20
5.994935
 30
0.0
 10
39.546372
 20
6.010759
 30
0.0
  0
LWPOLYLINE
  5
14a
100
AcDbEntity
  8
A
 62
7
100
AcDbPolyline
 90
2
 70
0
 10
38.479219
 20
5.058259
 30
0.0
 10
39.502275
 20
5.966662
 30
0.0
  0
SPLINE
  5
14b
100
AcDbEntity
  8
A
 62
7
100
AcDbSpline
 70
8
 71
3
 72
8
 73
4
 74
0
 40
0
 40
0
 40
0
 40
0
 40
1
 40
1
 40
1
 40
1
 10
40.525344
 20
7.192537
 30
0.0
 10
40.538128
 20
7.206386
 30
0.0
 10
40.549916
 20
7.221122
 30
0.0
 10
40.560622
 20
7.236634
 30
0.0
  0
LWPOLYLINE
  5
14c
100
AcDbEntity
  8
A
 62
7
100
AcDbPolyline
 90
2
 70
0
 10
39.546372
 20
6.010759
 30
0.0
 10
40.525344
 20
7.192537
 30
0.0
  0
SPLINE
  5
14d
100
AcDbEntity
  8
A
 62
7
100
AcDbSpline
 70
8
 71
3
 72
8
 73
4
 74
0
 40
0
 40
0
 40
0
 40
0
 40
1
 40
1
 40
1
 40
1
 10
41.336733
 20
8.515453
 30
0.0
 10
41.350788
 20
8.537752
 30
0.0
 10
41.362605
 20
8.561386
 30
0.0
 10
41.372011
 20
8.586009
 30
0.0
  0
SPLINE
  5
14e
100
AcDbEntity
  8
A
 62
7
100
AcDbSpline
 70
8
 71
3
 72
8
 73
4
 74
0
 40
0
 40
0
 40
0
 40
0
 40
1
 40
1
 40
1
 40
1
 10
41.372011
 20
8.586009
 30
0.0
 10
41.372011
 20
8.586009
 30
0.0
 10
42.359789
 20
11.372953
 30
0.0
 10
42.359789
 20
11.372953
 30
0.0
  0
SPLINE
  5
14f
100
AcDbEntity
  8
A
 62
7
100
AcDbSpline
 70
8
 71
3
 72
8
 73
4
 74
0
 40
0
 40
0
 40
0
 40
0
 40
1
 40
1
 40
1
 40
1
 10
42.359789
 20
11.372953
 30
0.0
 10
42.371973
 20
11.401235
 30
0.0
 10
42.380852
 20
11.430829
 30
0.0
 10
42.386247
 20
11.461148
 30
0.0
  0
LWPOLYLINE
  5
150
100
AcDbEntity
  8
A
 62
7
100
AcDbPolyline
 90
2
 70
0
 10
40.560622
 20
7.236634
 30
0.0
 10
41.336733
 20
8.515453
 30
0.0
  0
SPLINE
  5
151
100
AcDbEntity
  8
A
 62
7
100
AcDbSpline
 70
8
 71
3
 72
8
 73
4
 74
0
 40
0
 40
0
 40
0
 40
0
 40
1
 40
1
 40
1
 40
1
 10
42.739025
 20
14.468578
 30
0.0
 10
42.741103
 20
14.492051
 30
0.0
 10
42.741103
 20
14.515661
 30
0.0
 10
42.739025
 20
14.539134
 30
0.0
  0
LWPOLYLINE
  5
152
100
AcDbEntity
  8
A
 62
7
100
AcDbPolyline
 90
2
 70
0
 10
42.386247
 20
11.461148
 30
0.0
 10
42.739025
 20
14.468578
 30
0.0
  0
SPLINE
  5
153
100
AcDbEntity
  8
A
 62
7
100
AcDbSpline
 70
8
 71
3
 72
8
 73
4
 74
0
 40
0
 40
0
 40
0
 40
0
 40
1
 40
1
 40
1
 40
1
 10
42.571456
 20
17.670037
 30
0.0
 10
42.569708
 20
17.687853
 30
0.0
 10
42.566766
 20
17.705531
 30
0.0
 10
42.562650
 20
17.722953
 30
0.0
  0
SPLINE
  5
154
100
AcDbEntity
  8
A
 62
7
100
AcDbSpline
 70
8
 71
3
 72
8
 73
4
 74
0
 40
0
 40
0
 40
0
 40
0
 40
1
 40
1
 40
1
 40
1
 10
42.562650
 20
17.722953
 30
0.0
 10
42.562650
 20
17.722953
 30
0.0
 10
41.989372
 20
20.880315
 30
0.0
 10
41.989372
 20
20.880315
 30
0.0
  0
SPLINE
  5
155
100
AcDbEntity
  8
A
 62
7
100
AcDbSpline
 70
8
 71
3
 72
8
 73
4
 74
0
 40
0
 40
0
 40
0
 40
0
 40
1
 40
1
 40
1
 40
1
 10
41.989372
 20
20.880315
 30
0.0
 10
41.986973
 20
20.892201
 30
0.0
 10
41.984035
 20
20.903973
 30
0.0
 10
41.980567
 20
20.915592
 30
0.0
  0
LWPOLYLINE
  5
156
100
AcDbEntity
  8
A
 62
7
100
AcDbPolyline
 90
2
 70
0
 10
42.739025
 20
14.539134
 30
0.0
 10
42.571456
 20
17.670037
 30
0.0
  0
SPLINE
  5
157
100
AcDbEntity
  8
A
 62
7
100
AcDbSpline
 70
8
 71
3
 72
8
 73
4
 74
0
 40
0
 40
0
 40
0
 40
0
 40
1
 40
1
 40
1
 40
1
 10
41.125067
 20
23.993578
 30
0.0
 10
41.122668
 20
24.005465
 30
0.0
 10
41.119730
 20
24.017236
 30
0.0
 10
41.116261
 20
24.028856
 30
0.0
  0
LWPOLYLINE
  5
158
100
AcDbEntity
  8
A
 62
7
100
AcDbPolyline
 90
2
 70
0
 10
41.980567
 20
20.915592
 30
0.0
 10
41.125067
 20
23.993578
 30
0.0
  0
SPLINE
  5
159
100
AcDbEntity
  8
A
 62
7
100
AcDbSpline
 70
8
 71
3
 72
8
 73
4
 74
0
 40
0
 40
0
 40
0
 40
0
 40
1
 40
1
 40
1
 40
1
 10
39.034872
 20
29.541009
 30
0.0
 10
39.029345
 20
29.550054
 30
0.0
 10
39.023461
 20
29.558876
 30
0.0
 10
39.017234
 20
29.567453
 30
0.0
  0
LWPOLYLINE
  5
15a
100
AcDbEntity
  8
A
 62
7
100
AcDbPolyline
 90
2
 70
0
 10
41.116261
 20
24.028856
 30
0.0
 10
39.034872
 20
29.541009
 30
0.0
  0
SPLINE
  5
15b
100
AcDbEntity
  8
A
 62
7
100
AcDbSpline
 70
8
 71
3
 72
8
 73
4
 74
0
 40
0
 40
0
 40
0
 40
0
 40
1
 40
1
 40
1
 40
1
 10
73.950968
 20
25.254717
 30
0.0
 10
73.947727
 20
25.246007
 30
0.0
 10
73.944790
 20
25.237187
 30
0.0
 10
73.942163
 20
25.228272
 30
0.0
  0
SPLINE
  5
15c
100
AcDbEntity
  8
A
 62
7
100
AcDbSpline
 70
8
 71
3
 72
8
 73
4
 74
0
 40
0
 40
0
 40
0
 40
0
 40
1
 40
1
 40
1
 40
1
 10
73.942163
 20
25.228272
 30
0.0
 10
73.942163
 20
25.228272
 30
0.0
 10
72.839789
 20
22.556009
 30
0.0
 10
72.839789
 20
22.556009
 30
0.0
  0
SPLINE
  5
15d
100
AcDbEntity
  8
A
 62
7
100
AcDbSpline
 70
8
 71
3
 72
8
 73
4
 74
0
 40
0
 40
0
 40
0
 40
0
 40
1
 40
1
 40
1
 40
1
 10
72.839789
 20
22.556009
 30
0.0
 10
72.831779
 20
22.533075
 30
0.0
 10
72.825875
 20
22.509459
 30
0.0
 10
72.822150
 20
22.485453
 30
0.0
  0
LWPOLYLINE
  5
15e
100
AcDbEntity
  8
A
 62
7
100
AcDbPolyline
 90
45
 70
0
 10
39.017234
 20
29.567453
 30
0.0
 10
37.756053
 20
32.310300
 30
0.0
 10
37.747248
 20
32.336745
 30
0.0
 10
36.671275
 20
35.044314
 30
0.0
 10
36.662470
 20
35.070758
 30
0.0
 10
36.380248
 20
36.376036
 30
0.0
 10
36.309692
 20
37.743050
 30
0.0
 10
36.309692
 20
37.760689
 30
0.0
 10
36.530178
 20
39.110064
 30
0.0
 10
36.530178
 20
39.127703
 30
0.0
 10
37.076984
 20
40.494717
 30
0.0
 10
37.817817
 20
41.650064
 30
0.0
 10
37.826623
 20
41.667703
 30
0.0
 10
38.611553
 20
42.514369
 30
0.0
 10
38.620359
 20
42.523175
 30
0.0
 10
39.546400
 20
43.228730
 30
0.0
 10
39.564039
 20
43.237536
 30
0.0
 10
40.604734
 20
43.784341
 30
0.0
 10
40.631178
 20
43.793147
 30
0.0
 10
42.968331
 20
44.489883
 30
0.0
 10
45.508331
 20
44.886758
 30
0.0
 10
45.534775
 20
44.886758
 30
0.0
 10
51.143941
 20
45.380647
 30
0.0
 10
51.170386
 20
45.380647
 30
0.0
 10
57.035316
 20
45.512938
 30
0.0
 10
57.061760
 20
45.512938
 30
0.0
 10
62.926691
 20
45.274813
 30
0.0
 10
62.953135
 20
45.274813
 30
0.0
 10
68.544663
 20
44.639813
 30
0.0
 10
68.571107
 20
44.639813
 30
0.0
 10
70.855343
 20
44.225299
 30
0.0
 10
70.899441
 20
44.216494
 30
0.0
 10
73.042566
 20
43.590313
 30
0.0
 10
74.991663
 20
42.576077
 30
0.0
 10
76.649718
 20
40.997397
 30
0.0
 10
77.434649
 20
39.789133
 30
0.0
 10
77.910899
 20
38.607327
 30
0.0
 10
77.910899
 20
38.598522
 30
0.0
 10
78.157843
 20
37.363800
 30
0.0
 10
78.157843
 20
37.337356
 30
0.0
 10
78.184288
 20
36.049717
 30
0.0
 10
77.690399
 20
33.456800
 30
0.0
 10
77.681593
 20
33.439161
 30
0.0
 10
76.640899
 20
30.740411
 30
0.0
 10
73.950968
 20
25.254717
 30
0.0
  0
SPLINE
  5
15f
100
AcDbEntity
  8
A
 62
7
100
AcDbSpline
 70
8
 71
3
 72
8
 73
4
 74
0
 40
0
 40
0
 40
0
 40
0
 40
1
 40
1
 40
1
 40
1
 10
72.222428
 20
19.892537
 30
0.0
 10
72.217404
 20
19.869326
 30
0.0
 10
72.214457
 20
19.845714
 30
0.0
 10
72.213622
 20
19.821981
 30
0.0
  0
SPLINE
  5
160
100
AcDbEntity
  8
A
 62
7
100
AcDbSpline
 70
8
 71
3
 72
8
 73
4
 74
0
 40
0
 40
0
 40
0
 40
0
 40
1
 40
1
 40
1
 40
1
 10
72.213622
 20
19.821981
 30
0.0
 10
72.213622
 20
19.821981
 30
0.0
 10
72.054872
 20
16.629342
 30
0.0
 10
72.054872
 20
16.629342
 30
0.0
  0
SPLINE
  5
161
100
AcDbEntity
  8
A
 62
7
100
AcDbSpline
 70
8
 71
3
 72
8
 73
4
 74
0
 40
0
 40
0
 40
0
 40
0
 40
1
 40
1
 40
1
 40
1
 10
72.054872
 20
16.629342
 30
0.0
 10
72.053282
 20
16.608794
 30
0.0
 10
72.053282
 20
16.588154
 30
0.0
 10
72.054872
 20
16.567606
 30
0.0
  0
SPLINE
  5
162
100
AcDbEntity
  8
A
 62
7
100
AcDbSpline
 70
8
 71
3
 72
8
 73
4
 74
0
 40
0
 40
0
 40
0
 40
0
 40
1
 40
1
 40
1
 40
1
 10
72.054872
 20
16.567606
 30
0.0
 10
72.054872
 20
16.567606
 30
0.0
 10
72.354734
 20
13.322051
 30
0.0
 10
72.354734
 20
13.322051
 30
0.0
  0
SPLINE
  5
163
100
AcDbEntity
  8
A
 62
7
100
AcDbSpline
 70
8
 71
3
 72
8
 73
4
 74
0
 40
0
 40
0
 40
0
 40
0
 40
1
 40
1
 40
1
 40
1
 10
72.354734
 20
13.322051
 30
0.0
 10
72.356058
 20
13.301274
 30
0.0
 10
72.359002
 20
13.280633
 30
0.0
 10
72.363539
 20
13.260315
 30
0.0
  0
LWPOLYLINE
  5
164
100
AcDbEntity
  8
A
 62
7
100
AcDbPolyline
 90
2
 70
0
 10
72.822150
 20
22.485453
 30
0.0
 10
72.222428
 20
19.892537
 30
0.0
  0
SPLINE
  5
165
100
AcDbEntity
  8
A
 62
7
100
AcDbSpline
 70
8
 71
3
 72
8
 73
4
 74
0
 40
0
 40
0
 40
0
 40
0
 40
1
 40
1
 40
1
 40
1
 10
72.769233
 20
11.699273
 30
0.0
 10
72.773875
 20
11.681245
 30
0.0
 10
72.779768
 20
11.663563
 30
0.0
 10
72.786872
 20
11.646356
 30
0.0
  0
LWPOLYLINE
  5
166
100
AcDbEntity
  8
A
 62
7
100
AcDbPolyline
 90
2
 70
0
 10
72.363539
 20
13.260315
 30
0.0
 10
72.769233
 20
11.699273
 30
0.0
  0
SPLINE
  5
167
100
AcDbEntity
  8
A
 62
7
100
AcDbSpline
 70
8
 71
3
 72
8
 73
4
 74
0
 40
0
 40
0
 40
0
 40
0
 40
1
 40
1
 40
1
 40
1
 10
73.386594
 20
10.173509
 30
0.0
 10
73.393663
 20
10.152225
 30
0.0
 10
73.402509
 20
10.131574
 30
0.0
 10
73.413039
 20
10.111773
 30
0.0
  0
SPLINE
  5
168
100
AcDbEntity
  8
A
 62
7
100
AcDbSpline
 70
8
 71
3
 72
8
 73
4
 74
0
 40
0
 40
0
 40
0
 40
0
 40
1
 40
1
 40
1
 40
1
 10
73.413039
 20
10.111773
 30
0.0
 10
73.413039
 20
10.111773
 30
0.0
 10
74.259705
 20
8.753578
 30
0.0
 10
74.259705
 20
8.753578
 30
0.0
  0
SPLINE
  5
169
100
AcDbEntity
  8
A
 62
7
100
AcDbSpline
 70
8
 71
3
 72
8
 73
4
 74
0
 40
0
 40
0
 40
0
 40
0
 40
1
 40
1
 40
1
 40
1
 10
74.259705
 20
8.753578
 30
0.0
 10
74.272856
 20
8.734704
 30
0.0
 10
74.287609
 20
8.717000
 30
0.0
 10
74.303803
 20
8.700662
 30
0.0
  0
LWPOLYLINE
  5
16a
100
AcDbEntity
  8
A
 62
7
100
AcDbPolyline
 90
2
 70
0
 10
72.786872
 20
11.646356
 30
0.0
 10
73.386594
 20
10.173509
 30
0.0
  0
SPLINE
  5
16b
100
AcDbEntity
  8
A
 62
7
100
AcDbSpline
 70
8
 71
3
 72
8
 73
4
 74
0
 40
0
 40
0
 40
0
 40
0
 40
1
 40
1
 40
1
 40
1
 10
75.406233
 20
7.492398
 30
0.0
 10
75.427251
 20
7.469125
 30
0.0
 10
75.450932
 20
7.448404
 30
0.0
 10
75.476789
 20
7.430662
 30
0.0
  0
SPLINE
  5
16c
100
AcDbEntity
  8
A
 62
7
100
AcDbSpline
 70
8
 71
3
 72
8
 73
4
 74
0
 40
0
 40
0
 40
0
 40
0
 40
1
 40
1
 40
1
 40
1
 10
75.476789
 20
7.430662
 30
0.0
 10
75.476789
 20
7.430662
 30
0.0
 10
77.240678
 20
6.266495
 30
0.0
 10
77.240678
 20
6.266495
 30
0.0
  0
SPLINE
  5
16d
100
AcDbEntity
  8
A
 62
7
100
AcDbSpline
 70
8
 71
3
 72
8
 73
4
 74
0
 40
0
 40
0
 40
0
 40
0
 40
1
 40
1
 40
1
 40
1
 10
77.240678
 20
6.266495
 30
0.0
 10
77.268145
 20
6.248215
 30
0.0
 10
77.297768
 20
6.233404
 30
0.0
 10
77.328872
 20
6.222398
 30
0.0
  0
SPLINE
  5
16e
100
AcDbEntity
  8
A
 62
7
100
AcDbSpline
 70
8
 71
3
 72
8
 73
4
 74
0
 40
0
 40
0
 40
0
 40
0
 40
1
 40
1
 40
1
 40
1
 10
77.328872
 20
6.222398
 30
0.0
 10
77.328872
 20
6.222398
 30
0.0
 10
79.286789
 20
5.552120
 30
0.0
 10
79.286789
 20
5.552120
 30
0.0
  0
SPLINE
  5
16f
100
AcDbEntity
  8
A
 62
7
100
AcDbSpline
 70
8
 71
3
 72
8
 73
4
 74
0
 40
0
 40
0
 40
0
 40
0
 40
1
 40
1
 40
1
 40
1
 10
79.286789
 20
5.552120
 30
0.0
 10
79.312584
 20
5.543559
 30
0.0
 10
79.339184
 20
5.537649
 30
0.0
 10
79.366178
 20
5.534481
 30
0.0
  0
SPLINE
  5
170
100
AcDbEntity
  8
A
 62
7
100
AcDbSpline
 70
8
 71
3
 72
8
 73
4
 74
0
 40
0
 40
0
 40
0
 40
0
 40
1
 40
1
 40
1
 40
1
 10
79.366178
 20
5.534481
 30
0.0
 10
79.366178
 20
5.534481
 30
0.0
 10
83.520136
 20
4.970037
 30
0.0
 10
83.520136
 20
4.970037
 30
0.0
  0
SPLINE
  5
171
100
AcDbEntity
  8
A
 62
7
100
AcDbSpline
 70
8
 71
3
 72
8
 73
4
 74
0
 40
0
 40
0
 40
0
 40
0
 40
1
 40
1
 40
1
 40
1
 10
83.520136
 20
4.970037
 30
0.0
 10
83.528948
 20
4.969745
 30
0.0
 10
83.537768
 20
4.969745
 30
0.0
 10
83.546580
 20
4.970037
 30
0.0
  0
SPLINE
  5
172
100
AcDbEntity
  8
A
 62
7
100
AcDbSpline
 70
8
 71
3
 72
8
 73
4
 74
0
 40
0
 40
0
 40
0
 40
0
 40
1
 40
1
 40
1
 40
1
 10
83.546580
 20
4.970037
 30
0.0
 10
83.546580
 20
4.970037
 30
0.0
 10
88.573664
 20
4.617259
 30
0.0
 10
88.573664
 20
4.617259
 30
0.0
  0
SPLINE
  5
173
100
AcDbEntity
  8
A
 62
7
100
AcDbSpline
 70
8
 71
3
 72
8
 73
4
 74
0
 40
0
 40
0
 40
0
 40
0
 40
1
 40
1
 40
1
 40
1
 10
88.573664
 20
4.617259
 30
0.0
 10
88.582476
 20
4.616968
 30
0.0
 10
88.591296
 20
4.616968
 30
0.0
 10
88.600108
 20
4.617259
 30
0.0
  0
LWPOLYLINE
  5
174
100
AcDbEntity
  8
A
 62
7
100
AcDbPolyline
 90
2
 70
0
 10
74.303803
 20
8.700662
 30
0.0
 10
75.406233
 20
7.492398
 30
0.0
  0
SPLINE
  5
175
100
AcDbEntity
  8
A
 62
7
100
AcDbSpline
 70
8
 71
3
 72
8
 73
4
 74
0
 40
0
 40
0
 40
0
 40
0
 40
1
 40
1
 40
1
 40
1
 10
93.750663
 20
4.546703
 30
0.0
 10
93.759476
 20
4.546412
 30
0.0
 10
93.768295
 20
4.546412
 30
0.0
 10
93.777108
 20
4.546703
 30
0.0
  0
SPLINE
  5
176
100
AcDbEntity
  8
A
 62
7
100
AcDbSpline
 70
8
 71
3
 72
8
 73
4
 74
0
 40
0
 40
0
 40
0
 40
0
 40
1
 40
1
 40
1
 40
1
 10
93.777108
 20
4.546703
 30
0.0
 10
93.777108
 20
4.546703
 30
0.0
 10
98.918844
 20
4.811287
 30
0.0
 10
98.918844
 20
4.811287
 30
0.0
  0
SPLINE
  5
177
100
AcDbEntity
  8
A
 62
7
100
AcDbSpline
 70
8
 71
3
 72
8
 73
4
 74
0
 40
0
 40
0
 40
0
 40
0
 40
1
 40
1
 40
1
 40
1
 10
98.918844
 20
4.811287
 30
0.0
 10
98.930597
 20
4.810768
 30
0.0
 10
98.942368
 20
4.810768
 30
0.0
 10
98.954122
 20
4.811287
 30
0.0
  0
SPLINE
  5
178
100
AcDbEntity
  8
A
 62
7
100
AcDbSpline
 70
8
 71
3
 72
8
 73
4
 74
0
 40
0
 40
0
 40
0
 40
0
 40
1
 40
1
 40
1
 40
1
 10
98.954122
 20
4.811287
 30
0.0
 10
98.954122
 20
4.811287
 30
0.0
 10
103.945927
 20
5.472745
 30
0.0
 10
103.945927
 20
5.472745
 30
0.0
  0
SPLINE
  5
179
100
AcDbEntity
  8
A
 62
7
100
AcDbSpline
 70
8
 71
3
 72
8
 73
4
 74
0
 40
0
 40
0
 40
0
 40
0
 40
1
 40
1
 40
1
 40
1
 10
103.945927
 20
5.472745
 30
0.0
 10
103.960780
 20
5.474851
 30
0.0
 10
103.975502
 20
5.477791
 30
0.0
 10
103.990024
 20
5.481550
 30
0.0
  0
SPLINE
  5
17a
100
AcDbEntity
  8
A
 62
7
100
AcDbSpline
 70
8
 71
3
 72
8
 73
4
 74
0
 40
0
 40
0
 40
0
 40
0
 40
1
 40
1
 40
1
 40
1
 10
103.990024
 20
5.481550
 30
0.0
 10
103.990024
 20
5.481550
 30
0.0
 10
105.418774
 20
5.851967
 30
0.0
 10
105.418774
 20
5.851967
 30
0.0
  0
SPLINE
  5
17b
100
AcDbEntity
  8
A
 62
7
100
AcDbSpline
 70
8
 71
3
 72
8
 73
4
 74
0
 40
0
 40
0
 40
0
 40
0
 40
1
 40
1
 40
1
 40
1
 10
105.418774
 20
5.851967
 30
0.0
 10
105.436802
 20
5.856608
 30
0.0
 10
105.454484
 20
5.862502
 30
0.0
 10
105.471691
 20
5.869606
 30
0.0
  0
SPLINE
  5
17c
100
AcDbEntity
  8
A
 62
7
100
AcDbSpline
 70
8
 71
3
 72
8
 73
4
 74
0
 40
0
 40
0
 40
0
 40
0
 40
1
 40
1
 40
1
 40
1
 10
105.471691
 20
5.869606
 30
0.0
 10
105.471691
 20
5.869606
 30
0.0
 10
106.821066
 20
6.434050
 30
0.0
 10
106.821066
 20
6.434050
 30
0.0
  0
SPLINE
  5
17d
100
AcDbEntity
  8
A
 62
7
100
AcDbSpline
 70
8
 71
3
 72
8
 73
4
 74
0
 40
0
 40
0
 40
0
 40
0
 40
1
 40
1
 40
1
 40
1
 10
106.821066
 20
6.434050
 30
0.0
 10
106.845689
 20
6.443457
 30
0.0
 10
106.869323
 20
6.455273
 30
0.0
 10
106.891622
 20
6.469328
 30
0.0
  0
LWPOLYLINE
  5
17e
100
AcDbEntity
  8
A
 62
7
100
AcDbPolyline
 90
2
 70
0
 10
88.600108
 20
4.617259
 30
0.0
 10
93.750663
 20
4.546703
 30
0.0
  0
SPLINE
  5
17f
100
AcDbEntity
  8
A
 62
7
100
AcDbSpline
 70
8
 71
3
 72
8
 73
4
 74
0
 40
0
 40
0
 40
0
 40
0
 40
1
 40
1
 40
1
 40
1
 10
109.290510
 20
8.118564
 30
0.0
 10
109.319460
 20
8.135722
 30
0.0
 10
109.346129
 20
8.156465
 30
0.0
 10
109.369885
 20
8.180300
 30
0.0
  0
SPLINE
  5
180
100
AcDbEntity
  8
A
 62
7
100
AcDbSpline
 70
8
 71
3
 72
8
 73
4
 74
0
 40
0
 40
0
 40
0
 40
0
 40
1
 40
1
 40
1
 40
1
 10
109.369885
 20
8.180300
 30
0.0
 10
109.369885
 20
8.180300
 30
0.0
 10
111.354260
 20
10.402800
 30
0.0
 10
111.354260
 20
10.402800
 30
0.0
  0
SPLINE
  5
181
100
AcDbEntity
  8
A
 62
7
100
AcDbSpline
 70
8
 71
3
 72
8
 73
4
 74
0
 40
0
 40
0
 40
0
 40
0
 40
1
 40
1
 40
1
 40
1
 10
111.354260
 20
10.402800
 30
0.0
 10
111.374446
 20
10.424297
 30
0.0
 10
111.392193
 20
10.447959
 30
0.0
 10
111.407177
 20
10.473356
 30
0.0
  0
LWPOLYLINE
  5
182
100
AcDbEntity
  8
A
 62
7
100
AcDbPolyline
 90
2
 70
0
 10
106.891622
 20
6.469328
 30
0.0
 10
109.290510
 20
8.118564
 30
0.0
  0
SPLINE
  5
183
100
AcDbEntity
  8
A
 62
7
100
AcDbSpline
 70
8
 71
3
 72
8
 73
4
 74
0
 40
0
 40
0
 40
0
 40
0
 40
1
 40
1
 40
1
 40
1
 10
112.932941
 20
13.119189
 30
0.0
 10
112.946996
 20
13.141488
 30
0.0
 10
112.958813
 20
13.165122
 30
0.0
 10
112.968219
 20
13.189745
 30
0.0
  0
SPLINE
  5
184
100
AcDbEntity
  8
A
 62
7
100
AcDbSpline
 70
8
 71
3
 72
8
 73
4
 74
0
 40
0
 40
0
 40
0
 40
0
 40
1
 40
1
 40
1
 40
1
 10
112.968219
 20
13.189745
 30
0.0
 10
112.968219
 20
13.189745
 30
0.0
 10
113.982455
 20
16.108981
 30
0.0
 10
113.982455
 20
16.108981
 30
0.0
  0
SPLINE
  5
185
100
AcDbEntity
  8
A
 62
7
100
AcDbSpline
 70
8
 71
3
 72
8
 73
4
 74
0
 40
0
 40
0
 40
0
 40
0
 40
1
 40
1
 40
1
 40
1
 10
113.982455
 20
16.108981
 30
0.0
 10
113.990465
 20
16.131915
 30
0.0
 10
113.996369
 20
16.155531
 30
0.0
 10
114.000094
 20
16.179537
 30
0.0
  0
SPLINE
  5
186
100
AcDbEntity
  8
A
 62
7
100
AcDbSpline
 70
8
 71
3
 72
8
 73
4
 74
0
 40
0
 40
0
 40
0
 40
0
 40
1
 40
1
 40
1
 40
1
 10
114.000094
 20
16.179537
 30
0.0
 10
114.000094
 20
16.179537
 30
0.0
 10
114.449885
 20
19.231064
 30
0.0
 10
114.449885
 20
19.231064
 30
0.0
  0
SPLINE
  5
187
100
AcDbEntity
  8
A
 62
7
100
AcDbSpline
 70
8
 71
3
 72
8
 73
4
 74
0
 40
0
 40
0
 40
0
 40
0
 40
1
 40
1
 40
1
 40
1
 10
114.449885
 20
19.231064
 30
0.0
 10
114.452517
 20
19.257457
 30
0.0
 10
114.452517
 20
19.284046
 30
0.0
 10
114.449885
 20
19.310439
 30
0.0
  0
SPLINE
  5
188
100
AcDbEntity
  8
A
 62
7
100
AcDbSpline
 70
8
 71
3
 72
8
 73
4
 74
0
 40
0
 40
0
 40
0
 40
0
 40
1
 40
1
 40
1
 40
1
 10
114.449885
 20
19.310439
 30
0.0
 10
114.449885
 20
19.310439
 30
0.0
 10
114.291135
 20
22.335509
 30
0.0
 10
114.291135
 20
22.335509
 30
0.0
  0
SPLINE
  5
189
100
AcDbEntity
  8
A
 62
7
100
AcDbSpline
 70
8
 71
3
 72
8
 73
4
 74
0
 40
0
 40
0
 40
0
 40
0
 40
1
 40
1
 40
1
 40
1
 10
114.291135
 20
22.335509
 30
0.0
 10
114.288590
 20
22.365477
 30
0.0
 10
114.282673
 20
22.395062
 30
0.0
 10
114.273497
 20
22.423703
 30
0.0
  0
LWPOLYLINE
  5
18a
100
AcDbEntity
  8
A
 62
7
100
AcDbPolyline
 90
2
 70
0
 10
111.407177
 20
10.473356
 30
0.0
 10
112.932941
 20
13.119189
 30
0.0
  0
SPLINE
  5
18b
100
AcDbEntity
  8
A
 62
7
100
AcDbSpline
 70
8
 71
3
 72
8
 73
4
 74
0
 40
0
 40
0
 40
0
 40
0
 40
1
 40
1
 40
1
 40
1
 10
113.444469
 20
25.281203
 30
0.0
 10
113.435640
 20
25.308867
 30
0.0
 10
113.423825
 20
25.335487
 30
0.0
 10
113.409233
 20
25.360592
 30
0.0
  0
SPLINE
  5
18c
100
AcDbEntity
  8
A
 62
7
100
AcDbSpline
 70
8
 71
3
 72
8
 73
4
 74
0
 40
0
 40
0
 40
0
 40
0
 40
1
 40
1
 40
1
 40
1
 10
113.409233
 20
25.360592
 30
0.0
 10
113.409233
 20
25.360592
 30
0.0
 10
111.892289
 20
28.006426
 30
0.0
 10
111.892289
 20
28.006426
 30
0.0
  0
SPLINE
  5
18d
100
AcDbEntity
  8
A
 62
7
100
AcDbSpline
 70
8
 71
3
 72
8
 73
4
 74
0
 40
0
 40
0
 40
0
 40
0
 40
1
 40
1
 40
1
 40
1
 10
111.892289
 20
28.006426
 30
0.0
 10
111.881953
 20
28.024973
 30
0.0
 10
111.870156
 20
28.042668
 30
0.0
 10
111.857011
 20
28.059342
 30
0.0
  0
LWPOLYLINE
  5
18e
100
AcDbEntity
  8
A
 62
7
100
AcDbPolyline
 90
2
 70
0
 10
114.273497
 20
22.423703
 30
0.0
 10
113.444469
 20
25.281203
 30
0.0
  0
SPLINE
  5
18f
100
AcDbEntity
  8
A
 62
7
100
AcDbSpline
 70
8
 71
3
 72
8
 73
4
 74
0
 40
0
 40
0
 40
0
 40
0
 40
1
 40
1
 40
1
 40
1
 10
109.907914
 20
30.484690
 30
0.0
 10
109.902219
 20
30.490751
 30
0.0
 10
109.896337
 20
30.496634
 30
0.0
 10
109.890275
 20
30.502328
 30
0.0
  0
LWPOLYLINE
  5
190
100
AcDbEntity
  8
A
 62
7
100
AcDbPolyline
 90
2
 70
0
 10
111.857011
 20
28.059342
 30
0.0
 10
109.907914
 20
30.484690
 30
0.0
  0
SPLINE
  5
191
100
AcDbEntity
  8
A
 62
7
100
AcDbSpline
 70
8
 71
3
 72
8
 73
4
 74
0
 40
0
 40
0
 40
0
 40
0
 40
1
 40
1
 40
1
 40
1
 10
85.231137
 20
125.143688
 30
0.0
 10
85.231266
 20
125.149567
 30
0.0
 10
85.231266
 20
125.155448
 30
0.0
 10
85.231137
 20
125.161327
 30
0.0
  0
LWPOLYLINE
  5
192
100
AcDbEntity
  8
A
 62
7
100
AcDbPolyline
 90
21
 70
0
 10
109.890275
 20
30.502328
 30
0.0
 10
105.701039
 20
35.009065
 30
0.0
 10
105.674595
 20
35.035509
 30
0.0
 10
103.540289
 20
37.690162
 30
0.0
 10
103.522650
 20
37.716606
 30
0.0
 10
101.644109
 20
40.538828
 30
0.0
 10
101.626470
 20
40.574106
 30
0.0
 10
100.030150
 20
43.555078
 30
0.0
 10
100.030150
 20
43.563883
 30
0.0
 10
100.012511
 20
43.590328
 30
0.0
 10
98.733692
 20
46.730050
 30
0.0
 10
96.564109
 20
54.023730
 30
0.0
 10
96.555303
 20
54.050175
 30
0.0
 10
94.906067
 20
61.493786
 30
0.0
 10
94.906067
 20
61.511425
 30
0.0
 10
92.321970
 20
76.592675
 30
0.0
 10
92.321970
 20
76.601480
 30
0.0
 10
89.852525
 20
92.732244
 30
0.0
 10
89.852525
 20
92.741049
 30
0.0
 10
87.603567
 20
108.951188
 30
0.0
 10
85.231137
 20
125.143688
 30
0.0
  0
SPLINE
  5
193
100
AcDbEntity
  8
A
 62
7
100
AcDbSpline
 70
8
 71
3
 72
8
 73
4
 74
0
 40
0
 40
0
 40
0
 40
0
 40
1
 40
1
 40
1
 40
1
 10
82.391275
 20
141.230355
 30
0.0
 10
82.391308
 20
141.233290
 30
0.0
 10
82.391308
 20
141.236225
 30
0.0
 10
82.391275
 20
141.239160
 30
0.0
  0
LWPOLYLINE
  5
194
100
AcDbEntity
  8
A
 62
7
100
AcDbPolyline
 90
2
 70
0
 10
85.231137
 20
125.161327
 30
0.0
 10
82.391275
 20
141.230355
 30
0.0
  0
SPLINE
  5
195
100
AcDbEntity
  8
A
 62
7
100
AcDbSpline
 70
8
 71
3
 72
8
 73
4
 74
0
 40
0
 40
0
 40
0
 40
0
 40
1
 40
1
 40
1
 40
1
 10
81.491692
 20
145.543049
 30
0.0
 10
81.488902
 20
145.549000
 30
0.0
 10
81.485966
 20
145.554881
 30
0.0
 10
81.482887
 20
145.560688
 30
0.0
  0
LWPOLYLINE
  5
196
100
AcDbEntity
  8
A
 62
7
100
AcDbPolyline
 90
2
 70
0
 10
82.391275
 20
141.239160
 30
0.0
 10
81.491692
 20
145.543049
 30
0.0
  0
SPLINE
  5
197
100
AcDbEntity
  8
A
 62
7
100
AcDbSpline
 70
8
 71
3
 72
8
 73
4
 74
0
 40
0
 40
0
 40
0
 40
0
 40
1
 40
1
 40
1
 40
1
 10
80.353998
 20
150.155618
 30
0.0
 10
80.351371
 20
150.164537
 30
0.0
 10
80.348434
 20
150.173362
 30
0.0
 10
80.345193
 20
150.182077
 30
0.0
  0
LWPOLYLINE
  5
198
100
AcDbEntity
  8
A
 62
7
100
AcDbPolyline
 90
2
 70
0
 10
81.482887
 20
145.560688
 30
0.0
 10
80.353998
 20
150.155618
 30
0.0
  0
SPLINE
  5
199
100
AcDbEntity
  8
A
 62
7
100
AcDbSpline
 70
8
 71
3
 72
8
 73
4
 74
0
 40
0
 40
0
 40
0
 40
0
 40
1
 40
1
 40
1
 40
1
 10
78.881108
 20
154.794759
 30
0.0
 10
78.876107
 20
154.809794
 30
0.0
 10
78.870217
 20
154.824519
 30
0.0
 10
78.863469
 20
154.838856
 30
0.0
  0
SPLINE
  5
19a
100
AcDbEntity
  8
A
 62
7
100
AcDbSpline
 70
8
 71
3
 72
8
 73
4
 74
0
 40
0
 40
0
 40
0
 40
0
 40
1
 40
1
 40
1
 40
1
 10
78.863469
 20
154.838856
 30
0.0
 10
78.863469
 20
154.838856
 30
0.0
 10
76.958469
 20
159.204481
 30
0.0
 10
76.958469
 20
159.204481
 30
0.0
  0
SPLINE
  5
19b
100
AcDbEntity
  8
A
 62
7
100
AcDbSpline
 70
8
 71
3
 72
8
 73
4
 74
0
 40
0
 40
0
 40
0
 40
0
 40
1
 40
1
 40
1
 40
1
 10
76.958469
 20
159.204481
 30
0.0
 10
76.953173
 20
159.216523
 30
0.0
 10
76.947287
 20
159.228297
 30
0.0
 10
76.940831
 20
159.239759
 30
0.0
  0
LWPOLYLINE
  5
19c
100
AcDbEntity
  8
A
 62
7
100
AcDbPolyline
 90
2
 70
0
 10
80.345193
 20
150.182077
 30
0.0
 10
78.881108
 20
154.794759
 30
0.0
  0
SPLINE
  5
19d
100
AcDbEntity
  8
A
 62
7
100
AcDbSpline
 70
8
 71
3
 72
8
 73
4
 74
0
 40
0
 40
0
 40
0
 40
0
 40
1
 40
1
 40
1
 40
1
 10
75.794303
 20
161.241773
 30
0.0
 10
75.786143
 20
161.254009
 30
0.0
 10
75.777315
 20
161.265786
 30
0.0
 10
75.767859
 20
161.277051
 30
0.0
  0
SPLINE
  5
19e
100
AcDbEntity
  8
A
 62
7
100
AcDbSpline
 70
8
 71
3
 72
8
 73
4
 74
0
 40
0
 40
0
 40
0
 40
0
 40
1
 40
1
 40
1
 40
1
 10
75.767859
 20
161.277051
 30
0.0
 10
75.767859
 20
161.277051
 30
0.0
 10
74.471400
 20
163.111495
 30
0.0
 10
74.471400
 20
163.111495
 30
0.0
  0
SPLINE
  5
19f
100
AcDbEntity
  8
A
 62
7
100
AcDbSpline
 70
8
 71
3
 72
8
 73
4
 74
0
 40
0
 40
0
 40
0
 40
0
 40
1
 40
1
 40
1
 40
1
 10
74.471400
 20
163.111495
 30
0.0
 10
74.463241
 20
163.123732
 30
0.0
 10
74.454412
 20
163.135509
 30
0.0
 10
74.444956
 20
163.146773
 30
0.0
  0
LWPOLYLINE
  5
1a0
100
AcDbEntity
  8
A
 62
7
100
AcDbPolyline
 90
2
 70
0
 10
76.940831
 20
159.239759
 30
0.0
 10
75.794303
 20
161.241773
 30
0.0
  0
SPLINE
  5
1a1
100
AcDbEntity
  8
A
 62
7
100
AcDbSpline
 70
8
 71
3
 72
8
 73
4
 74
0
 40
0
 40
0
 40
0
 40
0
 40
1
 40
1
 40
1
 40
1
 10
72.989748
 20
164.787190
 30
0.0
 10
72.976209
 20
164.803015
 30
0.0
 10
72.961456
 20
164.817759
 30
0.0
 10
72.945622
 20
164.831287
 30
0.0
  0
LWPOLYLINE
  5
1a2
100
AcDbEntity
  8
A
 62
7
100
AcDbPolyline
 90
2
 70
0
 10
74.444956
 20
163.146773
 30
0.0
 10
72.989748
 20
164.787190
 30
0.0
  0
SPLINE
  5
1a3
100
AcDbEntity
  8
A
 62
7
100
AcDbSpline
 70
8
 71
3
 72
8
 73
4
 74
0
 40
0
 40
0
 40
0
 40
0
 40
1
 40
1
 40
1
 40
1
 10
71.314025
 20
166.233578
 30
0.0
 10
71.300175
 20
166.246362
 30
0.0
 10
71.285439
 20
166.258150
 30
0.0
 10
71.269928
 20
166.268856
 30
0.0
  0
LWPOLYLINE
  5
1a4
100
AcDbEntity
  8
A
 62
7
100
AcDbPolyline
 90
2
 70
0
 10
72.945622
 20
164.831287
 30
0.0
 10
71.314025
 20
166.233578
 30
0.0
  0
SPLINE
  5
1a5
100
AcDbEntity
  8
A
 62
7
100
AcDbSpline
 70
8
 71
3
 72
8
 73
4
 74
0
 40
0
 40
0
 40
0
 40
0
 40
1
 40
1
 40
1
 40
1
 10
69.453122
 20
167.415384
 30
0.0
 10
69.433631
 20
167.428952
 30
0.0
 10
69.412971
 20
167.440758
 30
0.0
 10
69.391386
 20
167.450662
 30
0.0
  0
LWPOLYLINE
  5
1a6
100
AcDbEntity
  8
A
 62
7
100
AcDbPolyline
 90
2
 70
0
 10
71.269928
 20
166.268856
 30
0.0
 10
69.453122
 20
167.415384
 30
0.0
  0
SPLINE
  5
1a7
100
AcDbEntity
  8
A
 62
7
100
AcDbSpline
 70
8
 71
3
 72
8
 73
4
 74
0
 40
0
 40
0
 40
0
 40
0
 40
1
 40
1
 40
1
 40
1
 10
67.371733
 20
168.288509
 30
0.0
 10
67.351933
 20
168.299043
 30
0.0
 10
67.331281
 20
168.307894
 30
0.0
 10
67.309997
 20
168.314967
 30
0.0
  0
LWPOLYLINE
  5
1a8
100
AcDbEntity
  8
A
 62
7
100
AcDbPolyline
 90
2
 70
0
 10
69.391386
 20
167.450662
 30
0.0
 10
67.371733
 20
168.288509
 30
0.0
  0
SPLINE
  5
1a9
100
AcDbEntity
  8
A
 62
7
100
AcDbSpline
 70
8
 71
3
 72
8
 73
4
 74
0
 40
0
 40
0
 40
0
 40
0
 40
1
 40
1
 40
1
 40
1
 10
65.078678
 20
168.826495
 30
0.0
 10
65.055468
 20
168.831523
 30
0.0
 10
65.031856
 20
168.834475
 30
0.0
 10
65.008122
 20
168.835315
 30
0.0
  0
LWPOLYLINE
  5
1aa
100
AcDbEntity
  8
A
 62
7
100
AcDbPolyline
 90
2
 70
0
 10
67.309997
 20
168.314967
 30
0.0
 10
65.078678
 20
168.826495
 30
0.0
  0
LWPOLYLINE
  5
1ab
100
AcDbEntity
  8
A
 62
7
100
AcDbPolyline
 90
5
 70
0
 10
65.008122
 20
168.835315
 30
0.0
 10
62.556317
 20
168.976426
 30
0.0
 10
62.529872
 20
168.606009
 30
0.0
 10
62.503428
 20
168.976426
 30
0.0
 10
62.503400
 20
168.976426
 30
0.0
  0
SPLINE
  5
1ac
100
AcDbEntity
  8
A
 62
7
100
AcDbSpline
 70
8
 71
3
 72
8
 73
4
 74
0
 40
0
 40
0
 40
0
 40
0
 40
1
 40
1
 40
1
 40
1
 10
89.058719
 20
92.626509
 30
0.0
 10
89.058687
 20
92.623574
 30
0.0
 10
89.058687
 20
92.620639
 30
0.0
 10
89.058719
 20
92.617704
 30
0.0
  0
SPLINE
  5
1ad
100
AcDbEntity
  8
A
 62
7
100
AcDbSpline
 70
8
 71
3
 72
8
 73
4
 74
0
 40
0
 40
0
 40
0
 40
0
 40
1
 40
1
 40
1
 40
1
 10
89.058719
 20
92.617704
 30
0.0
 10
89.058719
 20
92.617704
 30
0.0
 10
91.528163
 20
76.469301
 30
0.0
 10
91.528163
 20
76.469301
 30
0.0
  0
SPLINE
  5
1ae
100
AcDbEntity
  8
A
 62
7
100
AcDbSpline
 70
8
 71
3
 72
8
 73
4
 74
0
 40
0
 40
0
 40
0
 40
0
 40
1
 40
1
 40
1
 40
1
 10
91.528163
 20
76.469301
 30
0.0
 10
91.528131
 20
76.466366
 30
0.0
 10
91.528131
 20
76.463431
 30
0.0
 10
91.528163
 20
76.460496
 30
0.0
  0
SPLINE
  5
1af
100
AcDbEntity
  8
A
 62
7
100
AcDbSpline
 70
8
 71
3
 72
8
 73
4
 74
0
 40
0
 40
0
 40
0
 40
0
 40
1
 40
1
 40
1
 40
1
 10
91.528163
 20
76.460496
 30
0.0
 10
91.528163
 20
76.460496
 30
0.0
 10
94.121080
 20
61.361607
 30
0.0
 10
94.121080
 20
61.361607
 30
0.0
  0
SPLINE
  5
1b0
100
AcDbEntity
  8
A
 62
7
100
AcDbSpline
 70
8
 71
3
 72
8
 73
4
 74
0
 40
0
 40
0
 40
0
 40
0
 40
1
 40
1
 40
1
 40
1
 10
94.121080
 20
61.361607
 30
0.0
 10
94.120789
 20
61.352795
 30
0.0
 10
94.120789
 20
61.343975
 30
0.0
 10
94.121080
 20
61.335163
 30
0.0
  0
SPLINE
  5
1b1
100
AcDbEntity
  8
A
 62
7
100
AcDbSpline
 70
8
 71
3
 72
8
 73
4
 74
0
 40
0
 40
0
 40
0
 40
0
 40
1
 40
1
 40
1
 40
1
 10
94.121080
 20
61.335163
 30
0.0
 10
94.121080
 20
61.335163
 30
0.0
 10
95.779136
 20
53.847454
 30
0.0
 10
95.779136
 20
53.847454
 30
0.0
  0
SPLINE
  5
1b2
100
AcDbEntity
  8
A
 62
7
100
AcDbSpline
 70
8
 71
3
 72
8
 73
4
 74
0
 40
0
 40
0
 40
0
 40
0
 40
1
 40
1
 40
1
 40
1
 10
95.779136
 20
53.847454
 30
0.0
 10
95.781763
 20
53.838540
 30
0.0
 10
95.784700
 20
53.829720
 30
0.0
 10
95.787941
 20
53.821010
 30
0.0
  0
SPLINE
  5
1b3
100
AcDbEntity
  8
A
 62
7
100
AcDbSpline
 70
8
 71
3
 72
8
 73
4
 74
0
 40
0
 40
0
 40
0
 40
0
 40
1
 40
1
 40
1
 40
1
 10
95.787941
 20
53.821010
 30
0.0
 10
95.787941
 20
53.821010
 30
0.0
 10
97.966344
 20
46.500871
 30
0.0
 10
97.966344
 20
46.500871
 30
0.0
  0
SPLINE
  5
1b4
100
AcDbEntity
  8
A
 62
7
100
AcDbSpline
 70
8
 71
3
 72
8
 73
4
 74
0
 40
0
 40
0
 40
0
 40
0
 40
1
 40
1
 40
1
 40
1
 10
97.966344
 20
46.500871
 30
0.0
 10
97.968743
 20
46.488985
 30
0.0
 10
97.971681
 20
46.477213
 30
0.0
 10
97.975149
 20
46.465593
 30
0.0
  0
SPLINE
  5
1b5
100
AcDbEntity
  8
A
 62
7
100
AcDbSpline
 70
8
 71
3
 72
8
 73
4
 74
0
 40
0
 40
0
 40
0
 40
0
 40
1
 40
1
 40
1
 40
1
 10
97.975149
 20
46.465593
 30
0.0
 10
97.975149
 20
46.465593
 30
0.0
 10
99.289246
 20
43.246496
 30
0.0
 10
99.289246
 20
43.246496
 30
0.0
  0
SPLINE
  5
1b6
100
AcDbEntity
  8
A
 62
7
100
AcDbSpline
 70
8
 71
3
 72
8
 73
4
 74
0
 40
0
 40
0
 40
0
 40
0
 40
1
 40
1
 40
1
 40
1
 10
99.289246
 20
43.246496
 30
0.0
 10
99.294542
 20
43.234454
 30
0.0
 10
99.300429
 20
43.222681
 30
0.0
 10
99.306885
 20
43.211218
 30
0.0
  0
SPLINE
  5
1b7
100
AcDbEntity
  8
A
 62
7
100
AcDbSpline
 70
8
 71
3
 72
8
 73
4
 74
0
 40
0
 40
0
 40
0
 40
0
 40
1
 40
1
 40
1
 40
1
 10
99.306885
 20
43.211218
 30
0.0
 10
99.306885
 20
43.211218
 30
0.0
 10
100.938482
 20
40.159691
 30
0.0
 10
100.938482
 20
40.159691
 30
0.0
  0
SPLINE
  5
1b8
100
AcDbEntity
  8
A
 62
7
100
AcDbSpline
 70
8
 71
3
 72
8
 73
4
 74
0
 40
0
 40
0
 40
0
 40
0
 40
1
 40
1
 40
1
 40
1
 10
100.938482
 20
40.159691
 30
0.0
 10
100.943778
 20
40.147649
 30
0.0
 10
100.949665
 20
40.135875
 30
0.0
 10
100.956121
 20
40.124413
 30
0.0
  0
SPLINE
  5
1b9
100
AcDbEntity
  8
A
 62
7
100
AcDbSpline
 70
8
 71
3
 72
8
 73
4
 74
0
 40
0
 40
0
 40
0
 40
0
 40
1
 40
1
 40
1
 40
1
 10
100.956121
 20
40.124413
 30
0.0
 10
100.956121
 20
40.124413
 30
0.0
 10
102.878760
 20
37.249274
 30
0.0
 10
102.878760
 20
37.249274
 30
0.0
  0
SPLINE
  5
1ba
100
AcDbEntity
  8
A
 62
7
100
AcDbSpline
 70
8
 71
3
 72
8
 73
4
 74
0
 40
0
 40
0
 40
0
 40
0
 40
1
 40
1
 40
1
 40
1
 10
102.878760
 20
37.249274
 30
0.0
 10
102.884073
 20
37.237207
 30
0.0
 10
102.889978
 20
37.225410
 30
0.0
 10
102.896456
 20
37.213926
 30
0.0
  0
SPLINE
  5
1bb
100
AcDbEntity
  8
A
 62
7
100
AcDbSpline
 70
8
 71
3
 72
8
 73
4
 74
0
 40
0
 40
0
 40
0
 40
0
 40
1
 40
1
 40
1
 40
1
 10
102.896456
 20
37.213926
 30
0.0
 10
102.896456
 20
37.213926
 30
0.0
 10
105.074858
 20
34.506356
 30
0.0
 10
105.074858
 20
34.506356
 30
0.0
  0
SPLINE
  5
1bc
100
AcDbEntity
  8
A
 62
7
100
AcDbSpline
 70
8
 71
3
 72
8
 73
4
 74
0
 40
0
 40
0
 40
0
 40
0
 40
1
 40
1
 40
1
 40
1
 10
105.074858
 20
34.506356
 30
0.0
 10
105.080553
 20
34.500295
 30
0.0
 10
105.086436
 20
34.494412
 30
0.0
 10
105.092497
 20
34.488717
 30
0.0
  0
LWPOLYLINE
  5
1bd
100
AcDbEntity
  8
A
 62
7
100
AcDbPolyline
 90
29
 70
0
 10
62.538678
 20
168.182676
 30
0.0
 10
62.565122
 20
168.182676
 30
0.0
 10
64.893455
 20
168.041565
 30
0.0
 10
64.919900
 20
168.032745
 30
0.0
 10
67.124789
 20
167.530037
 30
0.0
 10
69.020969
 20
166.736287
 30
0.0
 10
70.793678
 20
165.633856
 30
0.0
 10
70.802483
 20
165.625037
 30
0.0
 10
72.389983
 20
164.258023
 30
0.0
 10
72.425261
 20
164.222745
 30
0.0
 10
73.818733
 20
162.652884
 30
0.0
 10
73.845177
 20
162.617606
 30
0.0
 10
75.097538
 20
160.844898
 30
0.0
 10
75.115177
 20
160.809620
 30
0.0
 10
76.226427
 20
158.878162
 30
0.0
 10
76.244066
 20
158.842884
 30
0.0
 10
78.131427
 20
154.512537
 30
0.0
 10
78.140233
 20
154.512537
 30
0.0
 10
79.577802
 20
149.961703
 30
0.0
 10
79.586607
 20
149.935245
 30
0.0
 10
80.706677
 20
145.384412
 30
0.0
 10
80.706677
 20
145.366773
 30
0.0
 10
81.606260
 20
141.089342
 30
0.0
 10
81.597455
 20
141.089342
 30
0.0
 10
84.446135
 20
125.029134
 30
0.0
 10
84.446135
 20
125.020329
 30
0.0
 10
86.818566
 20
108.845468
 30
0.0
 10
86.809761
 20
108.845468
 30
0.0
 10
89.058719
 20
92.626509
 30
0.0
  0
SPLINE
  5
1be
100
AcDbEntity
  8
A
 62
7
100
AcDbSpline
 70
8
 71
3
 72
8
 73
4
 74
0
 40
0
 40
0
 40
0
 40
0
 40
1
 40
1
 40
1
 40
1
 10
74.683039
 20
24.928425
 30
0.0
 10
74.683039
 20
24.928425
 30
0.0
 10
77.364150
 20
30.387662
 30
0.0
 10
77.364150
 20
30.387662
 30
0.0
  0
SPLINE
  5
1bf
100
AcDbEntity
  8
A
 62
7
100
AcDbSpline
 70
8
 71
3
 72
8
 73
4
 74
0
 40
0
 40
0
 40
0
 40
0
 40
1
 40
1
 40
1
 40
1
 10
77.364150
 20
30.387662
 30
0.0
 10
77.367618
 20
30.399281
 30
0.0
 10
77.370556
 20
30.411053
 30
0.0
 10
77.372955
 20
30.422939
 30
0.0
  0
SPLINE
  5
1c0
100
AcDbEntity
  8
A
 62
7
100
AcDbSpline
 70
8
 71
3
 72
8
 73
4
 74
0
 40
0
 40
0
 40
0
 40
0
 40
1
 40
1
 40
1
 40
1
 10
77.372955
 20
30.422939
 30
0.0
 10
77.372955
 20
30.422939
 30
0.0
 10
78.431288
 20
33.174606
 30
0.0
 10
78.431288
 20
33.174606
 30
0.0
  0
SPLINE
  5
1c1
100
AcDbEntity
  8
A
 62
7
100
AcDbSpline
 70
8
 71
3
 72
8
 73
4
 74
0
 40
0
 40
0
 40
0
 40
0
 40
1
 40
1
 40
1
 40
1
 10
78.431288
 20
33.174606
 30
0.0
 10
78.441818
 20
33.194407
 30
0.0
 10
78.450664
 20
33.215059
 30
0.0
 10
78.457733
 20
33.236342
 30
0.0
  0
SPLINE
  5
1c2
100
AcDbEntity
  8
A
 62
7
100
AcDbSpline
 70
8
 71
3
 72
8
 73
4
 74
0
 40
0
 40
0
 40
0
 40
0
 40
1
 40
1
 40
1
 40
1
 10
78.457733
 20
33.236342
 30
0.0
 10
78.457733
 20
33.236342
 30
0.0
 10
78.978080
 20
35.952731
 30
0.0
 10
78.978080
 20
35.952731
 30
0.0
  0
SPLINE
  5
1c3
100
AcDbEntity
  8
A
 62
7
100
AcDbSpline
 70
8
 71
3
 72
8
 73
4
 74
0
 40
0
 40
0
 40
0
 40
0
 40
1
 40
1
 40
1
 40
1
 10
78.978080
 20
35.952731
 30
0.0
 10
78.984273
 20
35.981712
 30
0.0
 10
78.987226
 20
36.011292
 30
0.0
 10
78.986885
 20
36.040925
 30
0.0
  0
SPLINE
  5
1c4
100
AcDbEntity
  8
A
 62
7
100
AcDbSpline
 70
8
 71
3
 72
8
 73
4
 74
0
 40
0
 40
0
 40
0
 40
0
 40
1
 40
1
 40
1
 40
1
 10
78.986885
 20
36.040925
 30
0.0
 10
78.986885
 20
36.040925
 30
0.0
 10
78.960441
 20
37.372662
 30
0.0
 10
78.960441
 20
37.372662
 30
0.0
  0
SPLINE
  5
1c5
100
AcDbEntity
  8
A
 62
7
100
AcDbSpline
 70
8
 71
3
 72
8
 73
4
 74
0
 40
0
 40
0
 40
0
 40
0
 40
1
 40
1
 40
1
 40
1
 10
78.960441
 20
37.372662
 30
0.0
 10
78.959606
 20
37.396395
 30
0.0
 10
78.956659
 20
37.420007
 30
0.0
 10
78.951636
 20
37.443217
 30
0.0
  0
SPLINE
  5
1c6
100
AcDbEntity
  8
A
 62
7
100
AcDbSpline
 70
8
 71
3
 72
8
 73
4
 74
0
 40
0
 40
0
 40
0
 40
0
 40
1
 40
1
 40
1
 40
1
 10
78.951636
 20
37.443217
 30
0.0
 10
78.951636
 20
37.443217
 30
0.0
 10
78.695900
 20
38.766148
 30
0.0
 10
78.695900
 20
38.766148
 30
0.0
  0
SPLINE
  5
1c7
100
AcDbEntity
  8
A
 62
7
100
AcDbSpline
 70
8
 71
3
 72
8
 73
4
 74
0
 40
0
 40
0
 40
0
 40
0
 40
1
 40
1
 40
1
 40
1
 10
78.695900
 20
38.766148
 30
0.0
 10
78.692175
 20
38.790153
 30
0.0
 10
78.686271
 20
38.813769
 30
0.0
 10
78.678261
 20
38.836703
 30
0.0
  0
SPLINE
  5
1c8
100
AcDbEntity
  8
A
 62
7
100
AcDbSpline
 70
8
 71
3
 72
8
 73
4
 74
0
 40
0
 40
0
 40
0
 40
0
 40
1
 40
1
 40
1
 40
1
 10
78.678261
 20
38.836703
 30
0.0
 10
78.678261
 20
38.836703
 30
0.0
 10
78.157914
 20
40.133162
 30
0.0
 10
78.157914
 20
40.133162
 30
0.0
  0
SPLINE
  5
1c9
100
AcDbEntity
  8
A
 62
7
100
AcDbSpline
 70
8
 71
3
 72
8
 73
4
 74
0
 40
0
 40
0
 40
0
 40
0
 40
1
 40
1
 40
1
 40
1
 10
78.157914
 20
40.133162
 30
0.0
 10
78.148010
 20
40.154747
 30
0.0
 10
78.136205
 20
40.175407
 30
0.0
 10
78.122636
 20
40.194898
 30
0.0
  0
SPLINE
  5
1ca
100
AcDbEntity
  8
A
 62
7
100
AcDbSpline
 70
8
 71
3
 72
8
 73
4
 74
0
 40
0
 40
0
 40
0
 40
0
 40
1
 40
1
 40
1
 40
1
 10
78.122636
 20
40.194898
 30
0.0
 10
78.122636
 20
40.194898
 30
0.0
 10
77.302428
 20
41.464898
 30
0.0
 10
77.302428
 20
41.464898
 30
0.0
  0
SPLINE
  5
1cb
100
AcDbEntity
  8
A
 62
7
100
AcDbSpline
 70
8
 71
3
 72
8
 73
4
 74
0
 40
0
 40
0
 40
0
 40
0
 40
1
 40
1
 40
1
 40
1
 10
77.302428
 20
41.464898
 30
0.0
 10
77.285270
 20
41.493848
 30
0.0
 10
77.264527
 20
41.520517
 30
0.0
 10
77.240692
 20
41.544273
 30
0.0
  0
LWPOLYLINE
  5
1cc
100
AcDbEntity
  8
A
 62
7
100
AcDbPolyline
 90
46
 70
0
 10
105.092497
 20
34.488717
 30
0.0
 10
109.290553
 20
29.981981
 30
0.0
 10
109.308192
 20
29.964342
 30
0.0
 10
111.204372
 20
27.609551
 30
0.0
 10
111.239650
 20
27.556634
 30
0.0
 10
112.694858
 20
24.998995
 30
0.0
 10
113.488608
 20
22.247328
 30
0.0
 10
113.656178
 20
19.345731
 30
0.0
 10
113.656178
 20
19.328092
 30
0.0
 10
113.215206
 20
16.347120
 30
0.0
 10
112.209789
 20
13.454342
 30
0.0
 10
110.728122
 20
10.905523
 30
0.0
 10
108.805483
 20
8.753578
 30
0.0
 10
106.450692
 20
7.148440
 30
0.0
 10
106.433053
 20
7.130801
 30
0.0
 10
105.171872
 20
6.610453
 30
0.0
 10
105.163067
 20
6.601648
 30
0.0
 10
103.840150
 20
6.266509
 30
0.0
 10
103.822511
 20
6.266509
 30
0.0
 10
103.796067
 20
6.257704
 30
0.0
 10
98.874817
 20
5.605065
 30
0.0
 10
98.874817
 20
5.613870
 30
0.0
 10
93.759539
 20
5.340468
 30
0.0
 10
93.733095
 20
5.340468
 30
0.0
 10
88.626637
 20
5.411023
 30
0.0
 10
88.608998
 20
5.411023
 30
0.0
 10
83.626012
 20
5.763801
 30
0.0
 10
83.599568
 20
5.763801
 30
0.0
 10
79.516165
 20
6.319426
 30
0.0
 10
77.637567
 20
6.963231
 30
0.0
 10
75.953053
 20
8.074481
 30
0.0
 10
74.912358
 20
9.221009
 30
0.0
 10
74.894719
 20
9.238648
 30
0.0
 10
74.100969
 20
10.526287
 30
0.0
 10
74.100969
 20
10.535092
 30
0.0
 10
73.545344
 20
11.893287
 30
0.0
 10
73.536539
 20
11.919731
 30
0.0
 10
73.527734
 20
11.946175
 30
0.0
 10
73.157317
 20
13.392564
 30
0.0
 10
72.848637
 20
16.629300
 30
0.0
 10
72.848637
 20
16.646939
 30
0.0
 10
73.007387
 20
19.742564
 30
0.0
 10
73.580650
 20
22.247286
 30
0.0
 10
73.589456
 20
22.264925
 30
0.0
 10
74.674233
 20
24.901981
 30
0.0
 10
74.683039
 20
24.928425
 30
0.0
  0
SPLINE
  5
1cd
100
AcDbEntity
  8
A
 62
7
100
AcDbSpline
 70
8
 71
3
 72
8
 73
4
 74
0
 40
0
 40
0
 40
0
 40
0
 40
1
 40
1
 40
1
 40
1
 10
75.503261
 20
43.193509
 30
0.0
 10
75.476779
 20
43.217967
 30
0.0
 10
75.447112
 20
43.238734
 30
0.0
 10
75.415067
 20
43.255245
 30
0.0
  0
LWPOLYLINE
  5
1ce
100
AcDbEntity
  8
A
 62
7
100
AcDbPolyline
 90
2
 70
0
 10
77.240692
 20
41.544273
 30
0.0
 10
75.503261
 20
43.193509
 30
0.0
  0
SPLINE
  5
1cf
100
AcDbEntity
  8
A
 62
7
100
AcDbSpline
 70
8
 71
3
 72
8
 73
4
 74
0
 40
0
 40
0
 40
0
 40
0
 40
1
 40
1
 40
1
 40
1
 10
73.386594
 20
44.313578
 30
0.0
 10
73.361495
 20
44.328184
 30
0.0
 10
73.334880
 20
44.340013
 30
0.0
 10
73.307219
 20
44.348856
 30
0.0
  0
SPLINE
  5
1d0
100
AcDbEntity
  8
A
 62
7
100
AcDbSpline
 70
8
 71
3
 72
8
 73
4
 74
0
 40
0
 40
0
 40
0
 40
0
 40
1
 40
1
 40
1
 40
1
 10
73.307219
 20
44.348856
 30
0.0
 10
73.307219
 20
44.348856
 30
0.0
 10
71.075900
 20
44.992676
 30
0.0
 10
71.075900
 20
44.992676
 30
0.0
  0
SPLINE
  5
1d1
100
AcDbEntity
  8
A
 62
7
100
AcDbSpline
 70
8
 71
3
 72
8
 73
4
 74
0
 40
0
 40
0
 40
0
 40
0
 40
1
 40
1
 40
1
 40
1
 10
71.075900
 20
44.992676
 30
0.0
 10
71.064438
 20
44.999132
 30
0.0
 10
71.052664
 20
45.005019
 30
0.0
 10
71.040622
 20
45.010315
 30
0.0
  0
SPLINE
  5
1d2
100
AcDbEntity
  8
A
 62
7
100
AcDbSpline
 70
8
 71
3
 72
8
 73
4
 74
0
 40
0
 40
0
 40
0
 40
0
 40
1
 40
1
 40
1
 40
1
 10
71.040622
 20
45.010315
 30
0.0
 10
71.040622
 20
45.010315
 30
0.0
 10
68.685831
 20
45.424828
 30
0.0
 10
68.685831
 20
45.424828
 30
0.0
  0
SPLINE
  5
1d3
100
AcDbEntity
  8
A
 62
7
100
AcDbSpline
 70
8
 71
3
 72
8
 73
4
 74
0
 40
0
 40
0
 40
0
 40
0
 40
1
 40
1
 40
1
 40
1
 10
68.685831
 20
45.424828
 30
0.0
 10
68.677121
 20
45.428070
 30
0.0
 10
68.668301
 20
45.431007
 30
0.0
 10
68.659386
 20
45.433634
 30
0.0
  0
SPLINE
  5
1d4
100
AcDbEntity
  8
A
 62
7
100
AcDbSpline
 70
8
 71
3
 72
8
 73
4
 74
0
 40
0
 40
0
 40
0
 40
0
 40
1
 40
1
 40
1
 40
1
 10
68.659386
 20
45.433634
 30
0.0
 10
68.659386
 20
45.433634
 30
0.0
 10
63.014942
 20
46.077453
 30
0.0
 10
63.014942
 20
46.077453
 30
0.0
  0
SPLINE
  5
1d5
100
AcDbEntity
  8
A
 62
7
100
AcDbSpline
 70
8
 71
3
 72
8
 73
4
 74
0
 40
0
 40
0
 40
0
 40
0
 40
1
 40
1
 40
1
 40
1
 10
63.014942
 20
46.077453
 30
0.0
 10
63.006130
 20
46.077745
 30
0.0
 10
62.997310
 20
46.077745
 30
0.0
 10
62.988498
 20
46.077453
 30
0.0
  0
SPLINE
  5
1d6
100
AcDbEntity
  8
A
 62
7
100
AcDbSpline
 70
8
 71
3
 72
8
 73
4
 74
0
 40
0
 40
0
 40
0
 40
0
 40
1
 40
1
 40
1
 40
1
 10
62.988498
 20
46.077453
 30
0.0
 10
62.988498
 20
46.077453
 30
0.0
 10
57.070622
 20
46.315592
 30
0.0
 10
57.070622
 20
46.315592
 30
0.0
  0
SPLINE
  5
1d7
100
AcDbEntity
  8
A
 62
7
100
AcDbSpline
 70
8
 71
3
 72
8
 73
4
 74
0
 40
0
 40
0
 40
0
 40
0
 40
1
 40
1
 40
1
 40
1
 10
57.070622
 20
46.315592
 30
0.0
 10
57.061810
 20
46.315884
 30
0.0
 10
57.052990
 20
46.315884
 30
0.0
 10
57.044178
 20
46.315592
 30
0.0
  0
SPLINE
  5
1d8
100
AcDbEntity
  8
A
 62
7
100
AcDbSpline
 70
8
 71
3
 72
8
 73
4
 74
0
 40
0
 40
0
 40
0
 40
0
 40
1
 40
1
 40
1
 40
1
 10
57.044178
 20
46.315592
 30
0.0
 10
57.044178
 20
46.315592
 30
0.0
 10
51.126331
 20
46.183301
 30
0.0
 10
51.126331
 20
46.183301
 30
0.0
  0
SPLINE
  5
1d9
100
AcDbEntity
  8
A
 62
7
100
AcDbSpline
 70
8
 71
3
 72
8
 73
4
 74
0
 40
0
 40
0
 40
0
 40
0
 40
1
 40
1
 40
1
 40
1
 10
51.126331
 20
46.183301
 30
0.0
 10
51.117407
 20
46.180670
 30
0.0
 10
51.108577
 20
46.177728
 30
0.0
 10
51.099858
 20
46.174481
 30
0.0
  0
SPLINE
  5
1da
100
AcDbEntity
  8
A
 62
7
100
AcDbSpline
 70
8
 71
3
 72
8
 73
4
 74
0
 40
0
 40
0
 40
0
 40
0
 40
1
 40
1
 40
1
 40
1
 10
51.099858
 20
46.174481
 30
0.0
 10
51.099858
 20
46.174481
 30
0.0
 10
45.437775
 20
45.680592
 30
0.0
 10
45.437775
 20
45.680592
 30
0.0
  0
SPLINE
  5
1db
100
AcDbEntity
  8
A
 62
7
100
AcDbSpline
 70
8
 71
3
 72
8
 73
4
 74
0
 40
0
 40
0
 40
0
 40
0
 40
1
 40
1
 40
1
 40
1
 10
45.437775
 20
45.680592
 30
0.0
 10
45.428963
 20
45.680884
 30
0.0
 10
45.420143
 20
45.680884
 30
0.0
 10
45.411331
 20
45.680592
 30
0.0
  0
SPLINE
  5
1dc
100
AcDbEntity
  8
A
 62
7
100
AcDbSpline
 70
8
 71
3
 72
8
 73
4
 74
0
 40
0
 40
0
 40
0
 40
0
 40
1
 40
1
 40
1
 40
1
 10
45.411331
 20
45.680592
 30
0.0
 10
45.411331
 20
45.680592
 30
0.0
 10
42.783122
 20
45.274898
 30
0.0
 10
42.783122
 20
45.274898
 30
0.0
  0
SPLINE
  5
1dd
100
AcDbEntity
  8
A
 62
7
100
AcDbSpline
 70
8
 71
3
 72
8
 73
4
 74
0
 40
0
 40
0
 40
0
 40
0
 40
1
 40
1
 40
1
 40
1
 10
42.783122
 20
45.274898
 30
0.0
 10
42.765094
 20
45.270257
 30
0.0
 10
42.747413
 20
45.264363
 30
0.0
 10
42.730206
 20
45.257259
 30
0.0
  0
SPLINE
  5
1de
100
AcDbEntity
  8
A
 62
7
100
AcDbSpline
 70
8
 71
3
 72
8
 73
4
 74
0
 40
0
 40
0
 40
0
 40
0
 40
1
 40
1
 40
1
 40
1
 10
42.730206
 20
45.257259
 30
0.0
 10
42.730206
 20
45.257259
 30
0.0
 10
40.331317
 20
44.534065
 30
0.0
 10
40.331317
 20
44.534065
 30
0.0
  0
SPLINE
  5
1df
100
AcDbEntity
  8
A
 62
7
100
AcDbSpline
 70
8
 71
3
 72
8
 73
4
 74
0
 40
0
 40
0
 40
0
 40
0
 40
1
 40
1
 40
1
 40
1
 10
40.331317
 20
44.534065
 30
0.0
 10
40.306693
 20
44.524658
 30
0.0
 10
40.283060
 20
44.512842
 30
0.0
 10
40.260761
 20
44.498787
 30
0.0
  0
LWPOLYLINE
  5
1e0
100
AcDbEntity
  8
A
 62
7
100
AcDbPolyline
 90
2
 70
0
 10
75.415067
 20
43.255245
 30
0.0
 10
73.386594
 20
44.313578
 30
0.0
  0
SPLINE
  5
1e1
100
AcDbEntity
  8
A
 62
7
100
AcDbSpline
 70
8
 71
3
 72
8
 73
4
 74
0
 40
0
 40
0
 40
0
 40
0
 40
1
 40
1
 40
1
 40
1
 10
39.175969
 20
43.934342
 30
0.0
 10
39.157422
 20
43.924006
 30
0.0
 10
39.139727
 20
43.912209
 30
0.0
 10
39.123053
 20
43.899065
 30
0.0
  0
LWPOLYLINE
  5
1e2
100
AcDbEntity
  8
A
 62
7
100
AcDbPolyline
 90
2
 70
0
 10
40.260761
 20
44.498787
 30
0.0
 10
39.175969
 20
43.934342
 30
0.0
  0
SPLINE
  5
1e3
100
AcDbEntity
  8
A
 62
7
100
AcDbSpline
 70
8
 71
3
 72
8
 73
4
 74
0
 40
0
 40
0
 40
0
 40
0
 40
1
 40
1
 40
1
 40
1
 10
38.126456
 20
43.158231
 30
0.0
 10
38.107582
 20
43.145081
 30
0.0
 10
38.089877
 20
43.130327
 30
0.0
 10
38.073539
 20
43.114134
 30
0.0
  0
LWPOLYLINE
  5
1e4
100
AcDbEntity
  8
A
 62
7
100
AcDbPolyline
 90
2
 70
0
 10
39.123053
 20
43.899065
 30
0.0
 10
38.126456
 20
43.158231
 30
0.0
  0
SPLINE
  5
1e5
100
AcDbEntity
  8
A
 62
7
100
AcDbSpline
 70
8
 71
3
 72
8
 73
4
 74
0
 40
0
 40
0
 40
0
 40
0
 40
1
 40
1
 40
1
 40
1
 10
37.191594
 20
42.152815
 30
0.0
 10
37.175401
 20
42.136476
 30
0.0
 10
37.160647
 20
42.118772
 30
0.0
 10
37.147497
 20
42.099898
 30
0.0
  0
SPLINE
  5
1e6
100
AcDbEntity
  8
A
 62
7
100
AcDbSpline
 70
8
 71
3
 72
8
 73
4
 74
0
 40
0
 40
0
 40
0
 40
0
 40
1
 40
1
 40
1
 40
1
 10
37.147497
 20
42.099898
 30
0.0
 10
37.147497
 20
42.099898
 30
0.0
 10
36.389025
 20
40.900453
 30
0.0
 10
36.389025
 20
40.900453
 30
0.0
  0
SPLINE
  5
1e7
100
AcDbEntity
  8
A
 62
7
100
AcDbSpline
 70
8
 71
3
 72
8
 73
4
 74
0
 40
0
 40
0
 40
0
 40
0
 40
1
 40
1
 40
1
 40
1
 10
36.389025
 20
40.900453
 30
0.0
 10
36.375457
 20
40.880963
 30
0.0
 10
36.363651
 20
40.860302
 30
0.0
 10
36.353747
 20
40.838717
 30
0.0
  0
SPLINE
  5
1e8
100
AcDbEntity
  8
A
 62
7
100
AcDbSpline
 70
8
 71
3
 72
8
 73
4
 74
0
 40
0
 40
0
 40
0
 40
0
 40
1
 40
1
 40
1
 40
1
 10
36.353747
 20
40.838717
 30
0.0
 10
36.353747
 20
40.838717
 30
0.0
 10
35.762844
 20
39.339412
 30
0.0
 10
35.762844
 20
39.339412
 30
0.0
  0
SPLINE
  5
1e9
100
AcDbEntity
  8
A
 62
7
100
AcDbSpline
 70
8
 71
3
 72
8
 73
4
 74
0
 40
0
 40
0
 40
0
 40
0
 40
1
 40
1
 40
1
 40
1
 10
35.762844
 20
39.339412
 30
0.0
 10
35.750665
 20
39.311129
 30
0.0
 10
35.741791
 20
39.281535
 30
0.0
 10
35.736400
 20
39.251217
 30
0.0
  0
SPLINE
  5
1ea
100
AcDbEntity
  8
A
 62
7
100
AcDbSpline
 70
8
 71
3
 72
8
 73
4
 74
0
 40
0
 40
0
 40
0
 40
0
 40
1
 40
1
 40
1
 40
1
 10
35.736400
 20
39.251217
 30
0.0
 10
35.736400
 20
39.251217
 30
0.0
 10
35.507095
 20
37.804828
 30
0.0
 10
35.507095
 20
37.804828
 30
0.0
  0
SPLINE
  5
1eb
100
AcDbEntity
  8
A
 62
7
100
AcDbSpline
 70
8
 71
3
 72
8
 73
4
 74
0
 40
0
 40
0
 40
0
 40
0
 40
1
 40
1
 40
1
 40
1
 10
35.507095
 20
37.804828
 30
0.0
 10
35.503844
 20
37.775520
 30
0.0
 10
35.503844
 20
37.745942
 30
0.0
 10
35.507095
 20
37.716634
 30
0.0
  0
SPLINE
  5
1ec
100
AcDbEntity
  8
A
 62
7
100
AcDbSpline
 70
8
 71
3
 72
8
 73
4
 74
0
 40
0
 40
0
 40
0
 40
0
 40
1
 40
1
 40
1
 40
1
 10
35.507095
 20
37.716634
 30
0.0
 10
35.507095
 20
37.716634
 30
0.0
 10
35.577650
 20
36.296703
 30
0.0
 10
35.577650
 20
36.296703
 30
0.0
  0
SPLINE
  5
1ed
100
AcDbEntity
  8
A
 62
7
100
AcDbSpline
 70
8
 71
3
 72
8
 73
4
 74
0
 40
0
 40
0
 40
0
 40
0
 40
1
 40
1
 40
1
 40
1
 10
35.577650
 20
36.296703
 30
0.0
 10
35.578974
 20
36.275927
 30
0.0
 10
35.581918
 20
36.255286
 30
0.0
 10
35.586456
 20
36.234967
 30
0.0
  0
LWPOLYLINE
  5
1ee
100
AcDbEntity
  8
A
 62
7
100
AcDbPolyline
 90
2
 70
0
 10
38.073539
 20
43.114134
 30
0.0
 10
37.191594
 20
42.152815
 30
0.0
  0
SPLINE
  5
1ef
100
AcDbEntity
  8
A
 62
7
100
AcDbSpline
 70
8
 71
3
 72
8
 73
4
 74
0
 40
0
 40
0
 40
0
 40
0
 40
1
 40
1
 40
1
 40
1
 10
35.903956
 20
34.841495
 30
0.0
 10
35.908172
 20
34.820477
 30
0.0
 10
35.914070
 20
34.799832
 30
0.0
 10
35.921594
 20
34.779759
 30
0.0
  0
SPLINE
  5
1f0
100
AcDbEntity
  8
A
 62
7
100
AcDbSpline
 70
8
 71
3
 72
8
 73
4
 74
0
 40
0
 40
0
 40
0
 40
0
 40
1
 40
1
 40
1
 40
1
 10
35.921594
 20
34.779759
 30
0.0
 10
35.921594
 20
34.779759
 30
0.0
 10
37.006386
 20
32.019273
 30
0.0
 10
37.006386
 20
32.019273
 30
0.0
  0
SPLINE
  5
1f1
100
AcDbEntity
  8
A
 62
7
100
AcDbSpline
 70
8
 71
3
 72
8
 73
4
 74
0
 40
0
 40
0
 40
0
 40
0
 40
1
 40
1
 40
1
 40
1
 10
37.006386
 20
32.019273
 30
0.0
 10
37.009176
 20
32.013322
 30
0.0
 10
37.012112
 20
32.007440
 30
0.0
 10
37.015191
 20
32.001634
 30
0.0
  0
LWPOLYLINE
  5
1f2
100
AcDbEntity
  8
A
 62
7
100
AcDbPolyline
 90
2
 70
0
 10
35.586456
 20
36.234967
 30
0.0
 10
35.903956
 20
34.841495
 30
0.0
  0
SPLINE
  5
1f3
100
AcDbEntity
  8
A
 62
7
100
AcDbSpline
 70
8
 71
3
 72
8
 73
4
 74
0
 40
0
 40
0
 40
0
 40
0
 40
1
 40
1
 40
1
 40
1
 10
4.348068
 20
28.032757
 30
0.0
 10
4.348068
 20
28.032757
 30
0.0
 10
8.449110
 20
32.804076
 30
0.0
 10
8.449110
 20
32.804076
 30
0.0
  0
SPLINE
  5
1f4
100
AcDbEntity
  8
A
 62
7
100
AcDbSpline
 70
8
 71
3
 72
8
 73
4
 74
0
 40
0
 40
0
 40
0
 40
0
 40
1
 40
1
 40
1
 40
1
 10
8.449110
 20
32.804076
 30
0.0
 10
8.449142
 20
32.807011
 30
0.0
 10
8.449142
 20
32.809947
 30
0.0
 10
8.449110
 20
32.812882
 30
0.0
  0
SPLINE
  5
1f5
100
AcDbEntity
  8
A
 62
7
100
AcDbSpline
 70
8
 71
3
 72
8
 73
4
 74
0
 40
0
 40
0
 40
0
 40
0
 40
1
 40
1
 40
1
 40
1
 10
8.449110
 20
32.812882
 30
0.0
 10
8.449110
 20
32.812882
 30
0.0
 10
11.509457
 20
36.499410
 30
0.0
 10
11.509457
 20
36.499410
 30
0.0
  0
SPLINE
  5
1f6
100
AcDbEntity
  8
A
 62
7
100
AcDbSpline
 70
8
 71
3
 72
8
 73
4
 74
0
 40
0
 40
0
 40
0
 40
0
 40
1
 40
1
 40
1
 40
1
 10
11.509457
 20
36.499410
 30
0.0
 10
11.512536
 20
36.505216
 30
0.0
 10
11.515472
 20
36.511097
 30
0.0
 10
11.518262
 20
36.517048
 30
0.0
  0
SPLINE
  5
1f7
100
AcDbEntity
  8
A
 62
7
100
AcDbSpline
 70
8
 71
3
 72
8
 73
4
 74
0
 40
0
 40
0
 40
0
 40
0
 40
1
 40
1
 40
1
 40
1
 10
11.518262
 20
36.517048
 30
0.0
 10
11.518262
 20
36.517048
 30
0.0
 10
14.402221
 20
40.309410
 30
0.0
 10
14.402221
 20
40.309410
 30
0.0
  0
SPLINE
  5
1f8
100
AcDbEntity
  8
A
 62
7
100
AcDbSpline
 70
8
 71
3
 72
8
 73
4
 74
0
 40
0
 40
0
 40
0
 40
0
 40
1
 40
1
 40
1
 40
1
 10
14.402221
 20
40.309410
 30
0.0
 10
14.408448
 20
40.317987
 30
0.0
 10
14.414332
 20
40.326809
 30
0.0
 10
14.419859
 20
40.335854
 30
0.0
  0
SPLINE
  5
1f9
100
AcDbEntity
  8
A
 62
7
100
AcDbSpline
 70
8
 71
3
 72
8
 73
4
 74
0
 40
0
 40
0
 40
0
 40
0
 40
1
 40
1
 40
1
 40
1
 10
14.419859
 20
40.335854
 30
0.0
 10
14.419859
 20
40.335854
 30
0.0
 10
16.968679
 20
44.348701
 30
0.0
 10
16.968679
 20
44.348701
 30
0.0
  0
SPLINE
  5
1fa
100
AcDbEntity
  8
A
 62
7
100
AcDbSpline
 70
8
 71
3
 72
8
 73
4
 74
0
 40
0
 40
0
 40
0
 40
0
 40
1
 40
1
 40
1
 40
1
 10
16.968679
 20
44.348701
 30
0.0
 10
16.978135
 20
44.359965
 30
0.0
 10
16.986964
 20
44.371742
 30
0.0
 10
16.995123
 20
44.383979
 30
0.0
  0
SPLINE
  5
1fb
100
AcDbEntity
  8
A
 62
7
100
AcDbSpline
 70
8
 71
3
 72
8
 73
4
 74
0
 40
0
 40
0
 40
0
 40
0
 40
1
 40
1
 40
1
 40
1
 10
16.995123
 20
44.383979
 30
0.0
 10
16.995123
 20
44.383979
 30
0.0
 10
19.076456
 20
48.696842
 30
0.0
 10
19.076456
 20
48.696842
 30
0.0
  0
SPLINE
  5
1fc
100
AcDbEntity
  8
A
 62
7
100
AcDbSpline
 70
8
 71
3
 72
8
 73
4
 74
0
 40
0
 40
0
 40
0
 40
0
 40
1
 40
1
 40
1
 40
1
 10
19.076456
 20
48.696842
 30
0.0
 10
19.082912
 20
48.708304
 30
0.0
 10
19.088798
 20
48.720078
 30
0.0
 10
19.094094
 20
48.732120
 30
0.0
  0
LWPOLYLINE
  5
1fd
100
AcDbEntity
  8
A
 62
7
100
AcDbPolyline
 90
61
 70
0
 10
37.015191
 20
32.001634
 30
0.0
 10
38.285191
 20
29.258787
 30
0.0
 10
38.293997
 20
29.232343
 30
0.0
 10
40.357747
 20
23.781926
 30
0.0
 10
40.366552
 20
23.746648
 30
0.0
 10
41.204399
 20
20.739218
 30
0.0
 10
41.213205
 20
20.703940
 30
0.0
 10
41.768830
 20
17.634773
 30
0.0
 10
41.768830
 20
17.625968
 30
0.0
 10
41.936456
 20
14.565592
 30
0.0
 10
41.936456
 20
14.539148
 30
0.0
 10
41.583678
 20
11.575815
 30
0.0
 10
41.583678
 20
11.558176
 30
0.0
 10
40.622358
 20
8.885884
 30
0.0
 10
39.907983
 20
7.704079
 30
0.0
 10
39.899178
 20
7.686440
 30
0.0
 10
38.973136
 20
6.566370
 30
0.0
 10
38.929039
 20
6.522273
 30
0.0
 10
37.994178
 20
5.693245
 30
0.0
 10
37.950081
 20
5.657968
 30
0.0
 10
36.856470
 20
4.961231
 30
0.0
 10
34.387025
 20
3.938176
 30
0.0
 10
34.369386
 20
3.929371
 30
0.0
 10
31.741192
 20
3.312009
 30
0.0
 10
31.705914
 20
3.303204
 30
0.0
 10
29.068900
 20
2.906329
 30
0.0
 10
29.042456
 20
2.906329
 30
0.0
 10
22.639539
 20
2.359524
 30
0.0
 10
22.604262
 20
2.359524
 30
0.0
 10
19.341067
 20
2.385968
 30
0.0
 10
19.305789
 20
2.385968
 30
0.0
 10
16.086692
 20
2.703468
 30
0.0
 10
16.042567
 20
2.712259
 30
0.0
 10
12.955761
 20
3.373717
 30
0.0
 10
12.929317
 20
3.382523
 30
0.0
 10
12.894039
 20
3.391328
 30
0.0
 10
10.001261
 20
4.467300
 30
0.0
 10
9.983622
 20
4.476106
 30
0.0
 10
7.311331
 20
6.045967
 30
0.0
 10
7.302525
 20
6.054772
 30
0.0
 10
4.930095
 20
8.189078
 30
0.0
 10
4.921290
 20
8.206716
 30
0.0
 10
2.557678
 20
11.425814
 30
0.0
 10
2.548873
 20
11.443453
 30
0.0
 10
1.649290
 20
13.189703
 30
0.0
 10
1.640484
 20
13.224980
 30
0.0
 10
1.631679
 20
13.233786
 30
0.0
 10
0.961401
 20
15.032952
 30
0.0
 10
0.961401
 20
15.050591
 30
0.0
 10
0.538068
 20
16.929133
 30
0.0
 10
0.538068
 20
16.964411
 30
0.0
 10
0.529263
 20
16.990855
 30
0.0
 10
0.396971
 20
18.860577
 30
0.0
 10
0.396971
 20
18.887021
 30
0.0
 10
0.582179
 20
20.792021
 30
0.0
 10
0.582179
 20
20.800827
 30
0.0
 10
1.120165
 20
22.723466
 30
0.0
 10
1.128971
 20
22.741104
 30
0.0
 10
2.487165
 20
25.439854
 30
0.0
 10
4.330429
 20
28.006313
 30
0.0
 10
4.348068
 20
28.032757
 30
0.0
  0
SPLINE
  5
1fe
100
AcDbEntity
  8
A
 62
7
100
AcDbSpline
 70
8
 71
3
 72
8
 73
4
 74
0
 40
0
 40
0
 40
0
 40
0
 40
1
 40
1
 40
1
 40
1
 10
20.496386
 20
52.603856
 30
0.0
 10
20.499466
 20
52.609663
 30
0.0
 10
20.502402
 20
52.615544
 30
0.0
 10
20.505191
 20
52.621495
 30
0.0
  0
SPLINE
  5
1ff
100
AcDbEntity
  8
A
 62
7
100
AcDbSpline
 70
8
 71
3
 72
8
 73
4
 74
0
 40
0
 40
0
 40
0
 40
0
 40
1
 40
1
 40
1
 40
1
 10
20.505191
 20
52.621495
 30
0.0
 10
20.505191
 20
52.621495
 30
0.0
 10
21.704636
 20
56.572606
 30
0.0
 10
21.704636
 20
56.572606
 30
0.0
  0
SPLINE
  5
200
100
AcDbEntity
  8
A
 62
7
100
AcDbSpline
 70
8
 71
3
 72
8
 73
4
 74
0
 40
0
 40
0
 40
0
 40
0
 40
1
 40
1
 40
1
 40
1
 10
21.704636
 20
56.572606
 30
0.0
 10
21.704765
 20
56.578485
 30
0.0
 10
21.704765
 20
56.584366
 30
0.0
 10
21.704636
 20
56.590245
 30
0.0
  0
SPLINE
  5
201
100
AcDbEntity
  8
A
 62
7
100
AcDbSpline
 70
8
 71
3
 72
8
 73
4
 74
0
 40
0
 40
0
 40
0
 40
0
 40
1
 40
1
 40
1
 40
1
 10
21.704636
 20
56.590245
 30
0.0
 10
21.704636
 20
56.590245
 30
0.0
 10
23.609636
 20
64.660037
 30
0.0
 10
23.609636
 20
64.660037
 30
0.0
  0
SPLINE
  5
202
100
AcDbEntity
  8
A
 62
7
100
AcDbSpline
 70
8
 71
3
 72
8
 73
4
 74
0
 40
0
 40
0
 40
0
 40
0
 40
1
 40
1
 40
1
 40
1
 10
23.609636
 20
64.660037
 30
0.0
 10
23.612877
 20
64.668747
 30
0.0
 10
23.615814
 20
64.677567
 30
0.0
 10
23.618441
 20
64.686481
 30
0.0
  0
LWPOLYLINE
  5
203
100
AcDbEntity
  8
A
 62
7
100
AcDbPolyline
 90
2
 70
0
 10
19.094094
 20
48.732120
 30
0.0
 10
20.496386
 20
52.603856
 30
0.0
  0
LWPOLYLINE
  5
204
100
AcDbEntity
  8
A
 62
7
100
AcDbPolyline
 90
35
 70
0
 10
23.618441
 20
64.686481
 30
0.0
 10
26.520067
 20
80.976009
 30
0.0
 10
31.547150
 20
110.203648
 30
0.0
 10
31.547150
 20
110.212453
 30
0.0
 10
34.448747
 20
124.720439
 30
0.0
 10
34.457553
 20
124.738078
 30
0.0
 10
36.159705
 20
131.917106
 30
0.0
 10
36.168511
 20
131.934745
 30
0.0
 10
38.108788
 20
139.060856
 30
0.0
 10
38.117594
 20
139.078495
 30
0.0
 10
39.475788
 20
143.391203
 30
0.0
 10
39.484594
 20
143.408842
 30
0.0
 10
41.186746
 20
147.986134
 30
0.0
 10
41.195552
 20
148.012592
 30
0.0
 10
43.268121
 20
152.607523
 30
0.0
 10
43.276926
 20
152.625162
 30
0.0
 10
43.285732
 20
152.642800
 30
0.0
 10
45.763996
 20
157.026064
 30
0.0
 10
45.772801
 20
157.034884
 30
0.0
 10
45.790440
 20
157.070162
 30
0.0
 10
48.709676
 20
161.021273
 30
0.0
 10
48.736120
 20
161.056550
 30
0.0
 10
50.350079
 20
162.767523
 30
0.0
 10
50.358884
 20
162.776342
 30
0.0
 10
50.376523
 20
162.793981
 30
0.0
 10
52.113953
 20
164.319745
 30
0.0
 10
52.140398
 20
164.337384
 30
0.0
 10
52.149203
 20
164.346203
 30
0.0
 10
54.001286
 20
165.651481
 30
0.0
 10
56.065036
 20
166.745092
 30
0.0
 10
58.164064
 20
167.521203
 30
0.0
 10
58.172869
 20
167.521203
 30
0.0
 10
60.518842
 20
168.015092
 30
0.0
 10
62.538678
 20
168.182676
 30
0.0
 10
62.538678
 20
168.182676
 30
0.0
  0
SPLINE
  5
205
100
AcDbEntity
  8
A
 62
7
100
AcDbSpline
 70
8
 71
3
 72
8
 73
4
 74
0
 40
0
 40
0
 40
0
 40
0
 40
1
 40
1
 40
1
 40
1
 10
59.266664
 20
130.311981
 30
0.0
 10
59.203818
 20
130.305617
 30
0.0
 10
59.143373
 20
130.284461
 30
0.0
 10
59.090275
 20
130.250245
 30
0.0
  0
SPLINE
  5
206
100
AcDbEntity
  8
A
 62
7
100
AcDbSpline
 70
8
 71
3
 72
8
 73
4
 74
0
 40
0
 40
0
 40
0
 40
0
 40
1
 40
1
 40
1
 40
1
 10
59.090275
 20
130.250245
 30
0.0
 10
59.090275
 20
130.250245
 30
0.0
 10
58.128956
 20
129.624065
 30
0.0
 10
58.128956
 20
129.624065
 30
0.0
  0
SPLINE
  5
207
100
AcDbEntity
  8
A
 62
7
100
AcDbSpline
 70
8
 71
3
 72
8
 73
4
 74
0
 40
0
 40
0
 40
0
 40
0
 40
1
 40
1
 40
1
 40
1
 10
58.128956
 20
129.624065
 30
0.0
 10
58.083312
 20
129.594074
 30
0.0
 10
58.044293
 20
129.555055
 30
0.0
 10
58.014303
 20
129.509412
 30
0.0
  0
SPLINE
  5
208
100
AcDbEntity
  8
A
 62
7
100
AcDbSpline
 70
8
 71
3
 72
8
 73
4
 74
0
 40
0
 40
0
 40
0
 40
0
 40
1
 40
1
 40
1
 40
1
 10
58.014303
 20
129.509412
 30
0.0
 10
58.014303
 20
129.509412
 30
0.0
 10
57.308747
 20
128.459898
 30
0.0
 10
57.308747
 20
128.459898
 30
0.0
  0
SPLINE
  5
209
100
AcDbEntity
  8
A
 62
7
100
AcDbSpline
 70
8
 71
3
 72
8
 73
4
 74
0
 40
0
 40
0
 40
0
 40
0
 40
1
 40
1
 40
1
 40
1
 10
57.308747
 20
128.459898
 30
0.0
 10
57.294142
 20
128.434798
 30
0.0
 10
57.282313
 20
128.408183
 30
0.0
 10
57.273469
 20
128.380523
 30
0.0
  0
SPLINE
  5
20a
100
AcDbEntity
  8
A
 62
7
100
AcDbSpline
 70
8
 71
3
 72
8
 73
4
 74
0
 40
0
 40
0
 40
0
 40
0
 40
1
 40
1
 40
1
 40
1
 10
57.273469
 20
128.380523
 30
0.0
 10
57.273469
 20
128.380523
 30
0.0
 10
56.391525
 20
126.061009
 30
0.0
 10
56.391525
 20
126.061009
 30
0.0
  0
SPLINE
  5
20b
100
AcDbEntity
  8
A
 62
7
100
AcDbSpline
 70
8
 71
3
 72
8
 73
4
 74
0
 40
0
 40
0
 40
0
 40
0
 40
1
 40
1
 40
1
 40
1
 10
56.391525
 20
126.061009
 30
0.0
 10
56.388284
 20
126.052299
 30
0.0
 10
56.385347
 20
126.043479
 30
0.0
 10
56.382720
 20
126.034565
 30
0.0
  0
LWPOLYLINE
  5
20c
100
AcDbEntity
  8
A
 62
7
100
AcDbPolyline
 90
2
 70
0
 10
59.822289
 20
130.373717
 30
0.0
 10
59.266664
 20
130.311981
 30
0.0
  0
SPLINE
  5
20d
100
AcDbEntity
  8
A
 62
7
100
AcDbSpline
 70
8
 71
3
 72
8
 73
4
 74
0
 40
0
 40
0
 40
0
 40
0
 40
1
 40
1
 40
1
 40
1
 10
54.574734
 20
119.869773
 30
0.0
 10
54.571492
 20
119.861063
 30
0.0
 10
54.568555
 20
119.852243
 30
0.0
 10
54.565928
 20
119.843329
 30
0.0
  0
LWPOLYLINE
  5
20e
100
AcDbEntity
  8
A
 62
7
100
AcDbPolyline
 90
2
 70
0
 10
56.382720
 20
126.034565
 30
0.0
 10
54.574734
 20
119.869773
 30
0.0
  0
SPLINE
  5
20f
100
AcDbEntity
  8
A
 62
7
100
AcDbSpline
 70
8
 71
3
 72
8
 73
4
 74
0
 40
0
 40
0
 40
0
 40
0
 40
1
 40
1
 40
1
 40
1
 10
51.117525
 20
105.405912
 30
0.0
 10
51.117525
 20
105.405912
 30
0.0
 10
49.697595
 20
99.637996
 30
0.0
 10
49.697595
 20
99.637996
 30
0.0
  0
SPLINE
  5
210
100
AcDbEntity
  8
A
 62
7
100
AcDbSpline
 70
8
 71
3
 72
8
 73
4
 74
0
 40
0
 40
0
 40
0
 40
0
 40
1
 40
1
 40
1
 40
1
 10
49.697595
 20
99.637996
 30
0.0
 10
49.694515
 20
99.632189
 30
0.0
 10
49.691579
 20
99.626308
 30
0.0
 10
49.688790
 20
99.620357
 30
0.0
  0
SPLINE
  5
211
100
AcDbEntity
  8
A
 62
7
100
AcDbSpline
 70
8
 71
3
 72
8
 73
4
 74
0
 40
0
 40
0
 40
0
 40
0
 40
1
 40
1
 40
1
 40
1
 10
49.688790
 20
99.620357
 30
0.0
 10
49.688790
 20
99.620357
 30
0.0
 10
48.489345
 20
93.799524
 30
0.0
 10
48.489345
 20
93.799524
 30
0.0
  0
SPLINE
  5
212
100
AcDbEntity
  8
A
 62
7
100
AcDbSpline
 70
8
 71
3
 72
8
 73
4
 74
0
 40
0
 40
0
 40
0
 40
0
 40
1
 40
1
 40
1
 40
1
 10
48.489345
 20
93.799524
 30
0.0
 10
48.486104
 20
93.790814
 30
0.0
 10
48.483167
 20
93.781994
 30
0.0
 10
48.480540
 20
93.773079
 30
0.0
  0
SPLINE
  5
213
100
AcDbEntity
  8
A
 62
7
100
AcDbSpline
 70
8
 71
3
 72
8
 73
4
 74
0
 40
0
 40
0
 40
0
 40
0
 40
1
 40
1
 40
1
 40
1
 10
48.480540
 20
93.773079
 30
0.0
 10
48.480540
 20
93.773079
 30
0.0
 10
47.651456
 20
87.890453
 30
0.0
 10
47.651456
 20
87.890453
 30
0.0
  0
SPLINE
  5
214
100
AcDbEntity
  8
A
 62
7
100
AcDbSpline
 70
8
 71
3
 72
8
 73
4
 74
0
 40
0
 40
0
 40
0
 40
0
 40
1
 40
1
 40
1
 40
1
 10
47.651456
 20
87.890453
 30
0.0
 10
47.647987
 20
87.878834
 30
0.0
 10
47.645049
 20
87.867062
 30
0.0
 10
47.642650
 20
87.855176
 30
0.0
  0
SPLINE
  5
215
100
AcDbEntity
  8
A
 62
7
100
AcDbSpline
 70
8
 71
3
 72
8
 73
4
 74
0
 40
0
 40
0
 40
0
 40
0
 40
1
 40
1
 40
1
 40
1
 10
47.642650
 20
87.855176
 30
0.0
 10
47.642650
 20
87.855176
 30
0.0
 10
47.333956
 20
81.910870
 30
0.0
 10
47.333956
 20
81.910870
 30
0.0
  0
SPLINE
  5
216
100
AcDbEntity
  8
A
 62
7
100
AcDbSpline
 70
8
 71
3
 72
8
 73
4
 74
0
 40
0
 40
0
 40
0
 40
0
 40
1
 40
1
 40
1
 40
1
 10
47.333956
 20
81.910870
 30
0.0
 10
47.333664
 20
81.902058
 30
0.0
 10
47.333664
 20
81.893238
 30
0.0
 10
47.333956
 20
81.884426
 30
0.0
  0
SPLINE
  5
217
100
AcDbEntity
  8
A
 62
7
100
AcDbSpline
 70
8
 71
3
 72
8
 73
4
 74
0
 40
0
 40
0
 40
0
 40
0
 40
1
 40
1
 40
1
 40
1
 10
47.333956
 20
81.884426
 30
0.0
 10
47.333956
 20
81.884426
 30
0.0
 10
47.369233
 20
79.370884
 30
0.0
 10
47.369233
 20
79.370884
 30
0.0
  0
SPLINE
  5
218
100
AcDbEntity
  8
A
 62
7
100
AcDbSpline
 70
8
 71
3
 72
8
 73
4
 74
0
 40
0
 40
0
 40
0
 40
0
 40
1
 40
1
 40
1
 40
1
 10
47.369233
 20
79.370884
 30
0.0
 10
47.371632
 20
79.358998
 30
0.0
 10
47.374570
 20
79.347226
 30
0.0
 10
47.378039
 20
79.335606
 30
0.0
  0
SPLINE
  5
219
100
AcDbEntity
  8
A
 62
7
100
AcDbSpline
 70
8
 71
3
 72
8
 73
4
 74
0
 40
0
 40
0
 40
0
 40
0
 40
1
 40
1
 40
1
 40
1
 10
47.378039
 20
79.335606
 30
0.0
 10
47.378039
 20
79.335606
 30
0.0
 10
47.660261
 20
76.777968
 30
0.0
 10
47.660261
 20
76.777968
 30
0.0
  0
SPLINE
  5
21a
100
AcDbEntity
  8
A
 62
7
100
AcDbSpline
 70
8
 71
3
 72
8
 73
4
 74
0
 40
0
 40
0
 40
0
 40
0
 40
1
 40
1
 40
1
 40
1
 10
47.660261
 20
76.777968
 30
0.0
 10
47.663429
 20
76.750979
 30
0.0
 10
47.669339
 20
76.724383
 30
0.0
 10
47.677900
 20
76.698593
 30
0.0
  0
LWPOLYLINE
  5
21b
100
AcDbEntity
  8
A
 62
7
100
AcDbPolyline
 90
4
 70
0
 10
54.565928
 20
119.843329
 30
0.0
 10
53.084262
 20
113.590343
 30
0.0
 10
51.117525
 20
105.414718
 30
0.0
 10
51.117525
 20
105.405912
 30
0.0
  0
SPLINE
  5
21c
100
AcDbEntity
  8
A
 62
7
100
AcDbSpline
 70
8
 71
3
 72
8
 73
4
 74
0
 40
0
 40
0
 40
0
 40
0
 40
1
 40
1
 40
1
 40
1
 10
48.445191
 20
74.308523
 30
0.0
 10
48.454035
 20
74.280863
 30
0.0
 10
48.465864
 20
74.254248
 30
0.0
 10
48.480469
 20
74.229148
 30
0.0
  0
SPLINE
  5
21d
100
AcDbEntity
  8
A
 62
7
100
AcDbSpline
 70
8
 71
3
 72
8
 73
4
 74
0
 40
0
 40
0
 40
0
 40
0
 40
1
 40
1
 40
1
 40
1
 10
48.480469
 20
74.229148
 30
0.0
 10
48.480469
 20
74.229148
 30
0.0
 10
49.124289
 20
73.153176
 30
0.0
 10
49.124289
 20
73.153176
 30
0.0
  0
SPLINE
  5
21e
100
AcDbEntity
  8
A
 62
7
100
AcDbSpline
 70
8
 71
3
 72
8
 73
4
 74
0
 40
0
 40
0
 40
0
 40
0
 40
1
 40
1
 40
1
 40
1
 10
49.124289
 20
73.153176
 30
0.0
 10
49.136999
 20
73.131247
 30
0.0
 10
49.151764
 20
73.110575
 30
0.0
 10
49.168386
 20
73.091440
 30
0.0
  0
SPLINE
  5
21f
100
AcDbEntity
  8
A
 62
7
100
AcDbSpline
 70
8
 71
3
 72
8
 73
4
 74
0
 40
0
 40
0
 40
0
 40
0
 40
1
 40
1
 40
1
 40
1
 10
49.168386
 20
73.091440
 30
0.0
 10
49.168386
 20
73.091440
 30
0.0
 10
50.023872
 20
72.130120
 30
0.0
 10
50.023872
 20
72.130120
 30
0.0
  0
SPLINE
  5
220
100
AcDbEntity
  8
A
 62
7
100
AcDbSpline
 70
8
 71
3
 72
8
 73
4
 74
0
 40
0
 40
0
 40
0
 40
0
 40
1
 40
1
 40
1
 40
1
 10
50.023872
 20
72.130120
 30
0.0
 10
50.049785
 20
72.102549
 30
0.0
 10
50.079479
 20
72.078794
 30
0.0
 10
50.112066
 20
72.059565
 30
0.0
  0
SPLINE
  5
221
100
AcDbEntity
  8
A
 62
7
100
AcDbSpline
 70
8
 71
3
 72
8
 73
4
 74
0
 40
0
 40
0
 40
0
 40
0
 40
1
 40
1
 40
1
 40
1
 10
50.112066
 20
72.059565
 30
0.0
 10
50.112066
 20
72.059565
 30
0.0
 10
51.875955
 20
70.930676
 30
0.0
 10
51.875955
 20
70.930676
 30
0.0
  0
SPLINE
  5
222
100
AcDbEntity
  8
A
 62
7
100
AcDbSpline
 70
8
 71
3
 72
8
 73
4
 74
0
 40
0
 40
0
 40
0
 40
0
 40
1
 40
1
 40
1
 40
1
 10
51.875955
 20
70.930676
 30
0.0
 10
51.908933
 20
70.910971
 30
0.0
 10
51.944577
 20
70.896120
 30
0.0
 10
51.981789
 20
70.886579
 30
0.0
  0
SPLINE
  5
223
100
AcDbEntity
  8
A
 62
7
100
AcDbSpline
 70
8
 71
3
 72
8
 73
4
 74
0
 40
0
 40
0
 40
0
 40
0
 40
1
 40
1
 40
1
 40
1
 10
51.981789
 20
70.886579
 30
0.0
 10
51.981789
 20
70.886579
 30
0.0
 10
54.054358
 20
70.260398
 30
0.0
 10
54.054358
 20
70.260398
 30
0.0
  0
SPLINE
  5
224
100
AcDbEntity
  8
A
 62
7
100
AcDbSpline
 70
8
 71
3
 72
8
 73
4
 74
0
 40
0
 40
0
 40
0
 40
0
 40
1
 40
1
 40
1
 40
1
 10
54.054358
 20
70.260398
 30
0.0
 10
54.074431
 20
70.252874
 30
0.0
 10
54.095076
 20
70.246975
 30
0.0
 10
54.116094
 20
70.242759
 30
0.0
  0
SPLINE
  5
225
100
AcDbEntity
  8
A
 62
7
100
AcDbSpline
 70
8
 71
3
 72
8
 73
4
 74
0
 40
0
 40
0
 40
0
 40
0
 40
1
 40
1
 40
1
 40
1
 10
54.116094
 20
70.242759
 30
0.0
 10
54.116094
 20
70.242759
 30
0.0
 10
56.303316
 20
69.978176
 30
0.0
 10
56.303316
 20
69.978176
 30
0.0
  0
SPLINE
  5
226
100
AcDbEntity
  8
A
 62
7
100
AcDbSpline
 70
8
 71
3
 72
8
 73
4
 74
0
 40
0
 40
0
 40
0
 40
0
 40
1
 40
1
 40
1
 40
1
 10
56.303316
 20
69.978176
 30
0.0
 10
56.318004
 20
69.977365
 30
0.0
 10
56.332726
 20
69.977365
 30
0.0
 10
56.347414
 20
69.978176
 30
0.0
  0
SPLINE
  5
227
100
AcDbEntity
  8
A
 62
7
100
AcDbSpline
 70
8
 71
3
 72
8
 73
4
 74
0
 40
0
 40
0
 40
0
 40
0
 40
1
 40
1
 40
1
 40
1
 10
56.347414
 20
69.978176
 30
0.0
 10
56.347414
 20
69.978176
 30
0.0
 10
58.446441
 20
69.925259
 30
0.0
 10
58.446441
 20
69.925259
 30
0.0
  0
SPLINE
  5
228
100
AcDbEntity
  8
A
 62
7
100
AcDbSpline
 70
8
 71
3
 72
8
 73
4
 74
0
 40
0
 40
0
 40
0
 40
0
 40
1
 40
1
 40
1
 40
1
 10
58.446441
 20
69.925259
 30
0.0
 10
58.455254
 20
69.924968
 30
0.0
 10
58.464073
 20
69.924968
 30
0.0
 10
58.472886
 20
69.925259
 30
0.0
  0
SPLINE
  5
229
100
AcDbEntity
  8
A
 62
7
100
AcDbSpline
 70
8
 71
3
 72
8
 73
4
 74
0
 40
0
 40
0
 40
0
 40
0
 40
1
 40
1
 40
1
 40
1
 10
58.472886
 20
69.925259
 30
0.0
 10
58.472886
 20
69.925259
 30
0.0
 10
61.171636
 20
70.013454
 30
0.0
 10
61.171636
 20
70.013454
 30
0.0
  0
SPLINE
  5
22a
100
AcDbEntity
  8
A
 62
7
100
AcDbSpline
 70
8
 71
3
 72
8
 73
4
 74
0
 40
0
 40
0
 40
0
 40
0
 40
1
 40
1
 40
1
 40
1
 10
61.171636
 20
70.013454
 30
0.0
 10
61.192422
 20
70.014776
 30
0.0
 10
61.213072
 20
70.017720
 30
0.0
 10
61.233400
 20
70.022259
 30
0.0
  0
SPLINE
  5
22b
100
AcDbEntity
  8
A
 62
7
100
AcDbSpline
 70
8
 71
3
 72
8
 73
4
 74
0
 40
0
 40
0
 40
0
 40
0
 40
1
 40
1
 40
1
 40
1
 10
61.233400
 20
70.022259
 30
0.0
 10
61.233400
 20
70.022259
 30
0.0
 10
63.888053
 20
70.498509
 30
0.0
 10
63.888053
 20
70.498509
 30
0.0
  0
SPLINE
  5
22c
100
AcDbEntity
  8
A
 62
7
100
AcDbSpline
 70
8
 71
3
 72
8
 73
4
 74
0
 40
0
 40
0
 40
0
 40
0
 40
1
 40
1
 40
1
 40
1
 10
63.888053
 20
70.498509
 30
0.0
 10
63.918371
 20
70.503900
 30
0.0
 10
63.947965
 20
70.512773
 30
0.0
 10
63.976247
 20
70.524953
 30
0.0
  0
LWPOLYLINE
  5
22d
100
AcDbEntity
  8
A
 62
7
100
AcDbPolyline
 90
2
 70
0
 10
47.677900
 20
76.698593
 30
0.0
 10
48.445191
 20
74.308523
 30
0.0
  0
SPLINE
  5
22e
100
AcDbEntity
  8
A
 62
7
100
AcDbSpline
 70
8
 71
3
 72
8
 73
4
 74
0
 40
0
 40
0
 40
0
 40
0
 40
1
 40
1
 40
1
 40
1
 10
65.801872
 20
71.318703
 30
0.0
 10
65.836502
 20
71.331769
 30
0.0
 10
65.869152
 20
71.349578
 30
0.0
 10
65.898886
 20
71.371620
 30
0.0
  0
SPLINE
  5
22f
100
AcDbEntity
  8
A
 62
7
100
AcDbSpline
 70
8
 71
3
 72
8
 73
4
 74
0
 40
0
 40
0
 40
0
 40
0
 40
1
 40
1
 40
1
 40
1
 10
65.898886
 20
71.371620
 30
0.0
 10
65.898886
 20
71.371620
 30
0.0
 10
67.283539
 20
72.482870
 30
0.0
 10
67.283539
 20
72.482870
 30
0.0
  0
SPLINE
  5
230
100
AcDbEntity
  8
A
 62
7
100
AcDbSpline
 70
8
 71
3
 72
8
 73
4
 74
0
 40
0
 40
0
 40
0
 40
0
 40
1
 40
1
 40
1
 40
1
 10
67.283539
 20
72.482870
 30
0.0
 10
67.309910
 20
72.503352
 30
0.0
 10
67.333613
 20
72.527055
 30
0.0
 10
67.354094
 20
72.553425
 30
0.0
  0
SPLINE
  5
231
100
AcDbEntity
  8
A
 62
7
100
AcDbSpline
 70
8
 71
3
 72
8
 73
4
 74
0
 40
0
 40
0
 40
0
 40
0
 40
1
 40
1
 40
1
 40
1
 10
67.354094
 20
72.553425
 30
0.0
 10
67.354094
 20
72.553425
 30
0.0
 10
68.350692
 20
73.929259
 30
0.0
 10
68.350692
 20
73.929259
 30
0.0
  0
SPLINE
  5
232
100
AcDbEntity
  8
A
 62
7
100
AcDbSpline
 70
8
 71
3
 72
8
 73
4
 74
0
 40
0
 40
0
 40
0
 40
0
 40
1
 40
1
 40
1
 40
1
 10
68.350692
 20
73.929259
 30
0.0
 10
68.368357
 20
73.953962
 30
0.0
 10
68.383151
 20
73.980597
 30
0.0
 10
68.394789
 20
74.008648
 30
0.0
  0
LWPOLYLINE
  5
233
100
AcDbEntity
  8
A
 62
7
100
AcDbPolyline
 90
2
 70
0
 10
63.976247
 20
70.524953
 30
0.0
 10
65.801872
 20
71.318703
 30
0.0
  0
SPLINE
  5
234
100
AcDbEntity
  8
A
 62
7
100
AcDbSpline
 70
8
 71
3
 72
8
 73
4
 74
0
 40
0
 40
0
 40
0
 40
0
 40
1
 40
1
 40
1
 40
1
 10
69.073886
 20
75.587328
 30
0.0
 10
69.084416
 20
75.607130
 30
0.0
 10
69.093262
 20
75.627781
 30
0.0
 10
69.100330
 20
75.649065
 30
0.0
  0
SPLINE
  5
235
100
AcDbEntity
  8
A
 62
7
100
AcDbSpline
 70
8
 71
3
 72
8
 73
4
 74
0
 40
0
 40
0
 40
0
 40
0
 40
1
 40
1
 40
1
 40
1
 10
69.100330
 20
75.649065
 30
0.0
 10
69.100330
 20
75.649065
 30
0.0
 10
69.523664
 20
77.377676
 30
0.0
 10
69.523664
 20
77.377676
 30
0.0
  0
SPLINE
  5
236
100
AcDbEntity
  8
A
 62
7
100
AcDbSpline
 70
8
 71
3
 72
8
 73
4
 74
0
 40
0
 40
0
 40
0
 40
0
 40
1
 40
1
 40
1
 40
1
 10
69.523664
 20
77.377676
 30
0.0
 10
69.527779
 20
77.395098
 30
0.0
 10
69.530721
 20
77.412776
 30
0.0
 10
69.532469
 20
77.430592
 30
0.0
  0
LWPOLYLINE
  5
237
100
AcDbEntity
  8
A
 62
7
100
AcDbPolyline
 90
2
 70
0
 10
68.394789
 20
74.008648
 30
0.0
 10
69.073886
 20
75.587328
 30
0.0
  0
SPLINE
  5
238
100
AcDbEntity
  8
A
 62
7
100
AcDbSpline
 70
8
 71
3
 72
8
 73
4
 74
0
 40
0
 40
0
 40
0
 40
0
 40
1
 40
1
 40
1
 40
1
 10
69.752955
 20
79.256217
 30
0.0
 10
69.753474
 20
79.267971
 30
0.0
 10
69.753474
 20
79.279742
 30
0.0
 10
69.752955
 20
79.291495
 30
0.0
  0
LWPOLYLINE
  5
239
100
AcDbEntity
  8
A
 62
7
100
AcDbPolyline
 90
2
 70
0
 10
69.532469
 20
77.430592
 30
0.0
 10
69.752955
 20
79.256217
 30
0.0
  0
SPLINE
  5
23a
100
AcDbEntity
  8
A
 62
7
100
AcDbSpline
 70
8
 71
3
 72
8
 73
4
 74
0
 40
0
 40
0
 40
0
 40
0
 40
1
 40
1
 40
1
 40
1
 10
69.858788
 20
83.013301
 30
0.0
 10
69.858918
 20
83.019180
 30
0.0
 10
69.858918
 20
83.025061
 30
0.0
 10
69.858788
 20
83.030940
 30
0.0
  0
SPLINE
  5
23b
100
AcDbEntity
  8
A
 62
7
100
AcDbSpline
 70
8
 71
3
 72
8
 73
4
 74
0
 40
0
 40
0
 40
0
 40
0
 40
1
 40
1
 40
1
 40
1
 10
69.858788
 20
83.030940
 30
0.0
 10
69.858788
 20
83.030940
 30
0.0
 10
69.752955
 20
87.281912
 30
0.0
 10
69.752955
 20
87.281912
 30
0.0
  0
SPLINE
  5
23c
100
AcDbEntity
  8
A
 62
7
100
AcDbSpline
 70
8
 71
3
 72
8
 73
4
 74
0
 40
0
 40
0
 40
0
 40
0
 40
1
 40
1
 40
1
 40
1
 10
69.752955
 20
87.281912
 30
0.0
 10
69.753085
 20
87.287791
 30
0.0
 10
69.753085
 20
87.293672
 30
0.0
 10
69.752955
 20
87.299551
 30
0.0
  0
LWPOLYLINE
  5
23d
100
AcDbEntity
  8
A
 62
7
100
AcDbPolyline
 90
2
 70
0
 10
69.752955
 20
79.291495
 30
0.0
 10
69.858788
 20
83.013301
 30
0.0
  0
SPLINE
  5
23e
100
AcDbEntity
  8
A
 62
7
100
AcDbSpline
 70
8
 71
3
 72
8
 73
4
 74
0
 40
0
 40
0
 40
0
 40
0
 40
1
 40
1
 40
1
 40
1
 10
69.435455
 20
91.550523
 30
0.0
 10
69.435585
 20
91.556402
 30
0.0
 10
69.435585
 20
91.562283
 30
0.0
 10
69.435455
 20
91.568162
 30
0.0
  0
SPLINE
  5
23f
100
AcDbEntity
  8
A
 62
7
100
AcDbSpline
 70
8
 71
3
 72
8
 73
4
 74
0
 40
0
 40
0
 40
0
 40
0
 40
1
 40
1
 40
1
 40
1
 10
69.435455
 20
91.568162
 30
0.0
 10
69.435455
 20
91.568162
 30
0.0
 10
68.359483
 20
100.070106
 30
0.0
 10
68.359483
 20
100.070106
 30
0.0
  0
SPLINE
  5
240
100
AcDbEntity
  8
A
 62
7
100
AcDbSpline
 70
8
 71
3
 72
8
 73
4
 74
0
 40
0
 40
0
 40
0
 40
0
 40
1
 40
1
 40
1
 40
1
 10
68.359483
 20
100.070106
 30
0.0
 10
68.359612
 20
100.075985
 30
0.0
 10
68.359612
 20
100.081866
 30
0.0
 10
68.359483
 20
100.087745
 30
0.0
  0
SPLINE
  5
241
100
AcDbEntity
  8
A
 62
7
100
AcDbSpline
 70
8
 71
3
 72
8
 73
4
 74
0
 40
0
 40
0
 40
0
 40
0
 40
1
 40
1
 40
1
 40
1
 10
68.359483
 20
100.087745
 30
0.0
 10
68.359483
 20
100.087745
 30
0.0
 10
65.510802
 20
116.950523
 30
0.0
 10
65.510802
 20
116.950523
 30
0.0
  0
SPLINE
  5
242
100
AcDbEntity
  8
A
 62
7
100
AcDbSpline
 70
8
 71
3
 72
8
 73
4
 74
0
 40
0
 40
0
 40
0
 40
0
 40
1
 40
1
 40
1
 40
1
 10
65.510802
 20
116.950523
 30
0.0
 10
65.510835
 20
116.953458
 30
0.0
 10
65.510835
 20
116.956393
 30
0.0
 10
65.510802
 20
116.959328
 30
0.0
  0
LWPOLYLINE
  5
243
100
AcDbEntity
  8
A
 62
7
100
AcDbPolyline
 90
2
 70
0
 10
69.752955
 20
87.299551
 30
0.0
 10
69.435455
 20
91.550523
 30
0.0
  0
SPLINE
  5
244
100
AcDbEntity
  8
A
 62
7
100
AcDbSpline
 70
8
 71
3
 72
8
 73
4
 74
0
 40
0
 40
0
 40
0
 40
0
 40
1
 40
1
 40
1
 40
1
 10
64.549511
 20
122.277467
 30
0.0
 10
64.547112
 20
122.289354
 30
0.0
 10
64.544174
 20
122.301125
 30
0.0
 10
64.540706
 20
122.312745
 30
0.0
  0
SPLINE
  5
245
100
AcDbEntity
  8
A
 62
7
100
AcDbSpline
 70
8
 71
3
 72
8
 73
4
 74
0
 40
0
 40
0
 40
0
 40
0
 40
1
 40
1
 40
1
 40
1
 10
64.540706
 20
122.312745
 30
0.0
 10
64.540706
 20
122.312745
 30
0.0
 10
63.826317
 20
124.914481
 30
0.0
 10
63.826317
 20
124.914481
 30
0.0
  0
SPLINE
  5
246
100
AcDbEntity
  8
A
 62
7
100
AcDbSpline
 70
8
 71
3
 72
8
 73
4
 74
0
 40
0
 40
0
 40
0
 40
0
 40
1
 40
1
 40
1
 40
1
 10
63.826317
 20
124.914481
 30
0.0
 10
63.823918
 20
124.926368
 30
0.0
 10
63.820980
 20
124.938139
 30
0.0
 10
63.817511
 20
124.949759
 30
0.0
  0
SPLINE
  5
247
100
AcDbEntity
  8
A
 62
7
100
AcDbSpline
 70
8
 71
3
 72
8
 73
4
 74
0
 40
0
 40
0
 40
0
 40
0
 40
1
 40
1
 40
1
 40
1
 10
63.817511
 20
124.949759
 30
0.0
 10
63.817511
 20
124.949759
 30
0.0
 10
62.812095
 20
127.480940
 30
0.0
 10
62.812095
 20
127.480940
 30
0.0
  0
SPLINE
  5
248
100
AcDbEntity
  8
A
 62
7
100
AcDbSpline
 70
8
 71
3
 72
8
 73
4
 74
0
 40
0
 40
0
 40
0
 40
0
 40
1
 40
1
 40
1
 40
1
 10
62.812095
 20
127.480940
 30
0.0
 10
62.804598
 20
127.499207
 30
0.0
 10
62.795759
 20
127.516894
 30
0.0
 10
62.785650
 20
127.533856
 30
0.0
  0
SPLINE
  5
249
100
AcDbEntity
  8
A
 62
7
100
AcDbSpline
 70
8
 71
3
 72
8
 73
4
 74
0
 40
0
 40
0
 40
0
 40
0
 40
1
 40
1
 40
1
 40
1
 10
62.785650
 20
127.533856
 30
0.0
 10
62.785650
 20
127.533856
 30
0.0
 10
61.789053
 20
129.191912
 30
0.0
 10
61.789053
 20
129.191912
 30
0.0
  0
SPLINE
  5
24a
100
AcDbEntity
  8
A
 62
7
100
AcDbSpline
 70
8
 71
3
 72
8
 73
4
 74
0
 40
0
 40
0
 40
0
 40
0
 40
1
 40
1
 40
1
 40
1
 10
61.789053
 20
129.191912
 30
0.0
 10
61.769167
 20
129.221388
 30
0.0
 10
61.745439
 20
129.248082
 30
0.0
 10
61.718498
 20
129.271287
 30
0.0
  0
SPLINE
  5
24b
100
AcDbEntity
  8
A
 62
7
100
AcDbSpline
 70
8
 71
3
 72
8
 73
4
 74
0
 40
0
 40
0
 40
0
 40
0
 40
1
 40
1
 40
1
 40
1
 10
61.718498
 20
129.271287
 30
0.0
 10
61.718498
 20
129.271287
 30
0.0
 10
60.995303
 20
129.950384
 30
0.0
 10
60.995303
 20
129.950384
 30
0.0
  0
SPLINE
  5
24c
100
AcDbEntity
  8
A
 62
7
100
AcDbSpline
 70
8
 71
3
 72
8
 73
4
 74
0
 40
0
 40
0
 40
0
 40
0
 40
1
 40
1
 40
1
 40
1
 10
60.995303
 20
129.950384
 30
0.0
 10
60.957551
 20
129.988337
 30
0.0
 10
60.912566
 20
130.018328
 30
0.0
 10
60.863012
 20
130.038578
 30
0.0
  0
LWPOLYLINE
  5
24d
100
AcDbEntity
  8
A
 62
7
100
AcDbPolyline
 90
2
 70
0
 10
65.510802
 20
116.959328
 30
0.0
 10
64.549511
 20
122.277467
 30
0.0
  0
LWPOLYLINE
  5
24e
100
AcDbEntity
  8
A
 62
7
100
AcDbPolyline
 90
5
 70
0
 10
60.863012
 20
130.038578
 30
0.0
 10
60.007525
 20
130.347259
 30
0.0
 10
59.866414
 20
129.968023
 30
0.0
 10
59.822317
 20
130.373717
 30
0.0
 10
59.822289
 20
130.373717
 30
0.0
  0
LWPOLYLINE
  5
24f
100
AcDbEntity
  8
A
 62
7
100
AcDbPolyline
 90
61
 70
0
 10
59.813484
 20
129.571148
 30
0.0
 10
60.501400
 20
129.324203
 30
0.0
 10
61.127581
 20
128.724481
 30
0.0
 10
62.088900
 20
127.128162
 30
0.0
 10
62.097706
 20
127.119356
 30
0.0
 10
63.067844
 20
124.658731
 30
0.0
 10
63.755761
 20
122.136370
 30
0.0
 10
63.764566
 20
122.101093
 30
0.0
 10
64.725886
 20
116.818245
 30
0.0
 10
64.717081
 20
116.818245
 30
0.0
 10
67.565761
 20
99.964287
 30
0.0
 10
67.565761
 20
99.955482
 30
0.0
 10
68.641733
 20
91.488815
 30
0.0
 10
68.632928
 20
91.488815
 30
0.0
 10
68.950428
 20
87.255482
 30
0.0
 10
68.950428
 20
87.237843
 30
0.0
 10
69.065081
 20
83.030968
 30
0.0
 10
69.065081
 20
83.013329
 30
0.0
 10
68.959247
 20
79.353259
 30
0.0
 10
68.959247
 20
79.317982
 30
0.0
 10
68.747581
 20
77.571732
 30
0.0
 10
68.738775
 20
77.527634
 30
0.0
 10
68.341900
 20
75.904857
 30
0.0
 10
68.333095
 20
75.887218
 30
0.0
 10
67.671637
 20
74.352634
 30
0.0
 10
67.662831
 20
74.326190
 30
0.0
 10
66.736790
 20
73.065010
 30
0.0
 10
65.440331
 20
72.033135
 30
0.0
 10
63.702901
 20
71.274662
 30
0.0
 10
61.145262
 20
70.816051
 30
0.0
 10
61.136457
 20
70.816051
 30
0.0
 10
58.464165
 20
70.719037
 30
0.0
 10
58.446526
 20
70.719037
 30
0.0
 10
56.365137
 20
70.780774
 30
0.0
 10
54.283748
 20
71.027718
 30
0.0
 10
52.264096
 20
71.627440
 30
0.0
 10
50.579511
 20
72.703370
 30
0.0
 10
49.785761
 20
73.594134
 30
0.0
 10
49.186039
 20
74.599551
 30
0.0
 10
48.454025
 20
76.901426
 30
0.0
 10
48.171803
 20
79.379690
 30
0.0
 10
48.171803
 20
79.423787
 30
0.0
 10
48.136525
 20
81.902051
 30
0.0
 10
48.127720
 20
81.902051
 30
0.0
 10
48.445220
 20
87.819898
 30
0.0
 10
49.274247
 20
93.631912
 30
0.0
 10
50.473692
 20
99.443926
 30
0.0
 10
50.473692
 20
99.461565
 30
0.0
 10
51.893622
 20
105.220662
 30
0.0
 10
53.860359
 20
113.405106
 30
0.0
 10
55.342025
 20
119.640453
 30
0.0
 10
55.350831
 20
119.658092
 30
0.0
 10
57.141178
 20
125.778787
 30
0.0
 10
57.149983
 20
125.787592
 30
0.0
 10
57.149983
 20
125.805231
 30
0.0
 10
57.979011
 20
128.010092
 30
0.0
 10
57.987816
 20
128.018897
 30
0.0
 10
58.640455
 20
128.997856
 30
0.0
 10
59.451844
 20
129.527022
 30
0.0
 10
59.813441
 20
129.571120
 30
0.0
 10
59.813484
 20
129.571148
 30
0.0
  0
LWPOLYLINE
  5
250
100
AcDbEntity
  8
K
 62
7
100
AcDbPolyline
 90
220
 70
0
 10
26.353101
 20
170.524104
 30
0.0
 10
24.015948
 20
170.382993
 30
0.0
 10
17.683951
 20
169.577008
 30
0.0
 10
14.561902
 20
168.973379
 30
0.0
 10
11.651158
 20
168.059468
 30
0.0
 10
9.088222
 20
166.702882
 30
0.0
 10
7.979839
 20
165.817212
 30
0.0
 10
7.009596
 20
164.771226
 30
0.0
 10
6.194558
 20
163.548375
 30
0.0
 10
5.551788
 20
162.132108
 30
0.0
 10
5.098344
 20
160.505877
 30
0.0
 10
4.851296
 20
158.653133
 30
0.0
 10
4.759714
 20
153.910646
 30
0.0
 10
5.078010
 20
151.545090
 30
0.0
 10
5.812615
 20
149.339800
 30
0.0
 10
7.013482
 20
147.378099
 30
0.0
 10
8.478274
 20
145.605442
 30
0.0
 10
9.990478
 20
143.865520
 30
0.0
 10
11.333587
 20
142.002021
 30
0.0
 10
12.097653
 20
140.353092
 30
0.0
 10
12.567463
 20
138.585156
 30
0.0
 10
12.982823
 20
134.946465
 30
0.0
 10
13.508064
 20
123.684035
 30
0.0
 10
13.663083
 20
112.387314
 30
0.0
 10
13.573726
 20
89.790910
 30
0.0
 10
13.566981
 20
65.630430
 30
0.0
 10
13.236236
 20
53.550111
 30
0.0
 10
12.400732
 20
41.530910
 30
0.0
 10
11.826517
 20
37.225082
 30
0.0
 10
11.331075
 20
35.104986
 30
0.0
 10
10.619204
 20
33.064243
 30
0.0
 10
9.411863
 20
30.802991
 30
0.0
 10
7.949452
 20
28.676252
 30
0.0
 10
6.465926
 20
26.556286
 30
0.0
 10
5.195245
 20
24.315354
 30
0.0
 10
4.231482
 20
21.768953
 30
0.0
 10
3.597743
 20
19.024218
 30
0.0
 10
3.320556
 20
16.172718
 30
0.0
 10
3.426452
 20
13.306040
 30
0.0
 10
3.941964
 20
10.515763
 30
0.0
 10
4.893620
 20
7.893461
 30
0.0
 10
6.307955
 20
5.530714
 30
0.0
 10
8.211495
 20
3.519104
 30
0.0
 10
10.680940
 20
1.938112
 30
0.0
 10
13.294953
 20
1.038724
 30
0.0
 10
16.048347
 20
0.570342
 30
0.0
 10
18.935940
 20
0.282368
 30
0.0
 10
22.804374
 20
0.030267
 30
0.0
 10
26.885163
 20
0.054284
 30
0.0
 10
30.972277
 20
0.469891
 30
0.0
 10
34.859694
 20
1.392512
 30
0.0
 10
36.664132
 20
2.080028
 30
0.0
 10
38.341385
 20
2.937591
 30
0.0
 10
39.865698
 20
3.979629
 30
0.0
 10
41.211322
 20
5.220571
 30
0.0
 10
42.352502
 20
6.674851
 30
0.0
 10
43.263484
 20
8.356898
 30
0.0
 10
43.918516
 20
10.281140
 30
0.0
 10
44.291843
 20
12.462009
 30
0.0
 10
44.459505
 20
15.465545
 30
0.0
 10
44.314948
 20
18.543300
 30
0.0
 10
43.733299
 20
21.543740
 30
0.0
 10
42.589690
 20
24.315343
 30
0.0
 10
41.525246
 20
25.969642
 30
0.0
 10
40.308510
 20
27.504620
 30
0.0
 10
37.617888
 20
30.376771
 30
0.0
 10
34.917264
 20
33.252096
 30
0.0
 10
32.606079
 20
36.450898
 30
0.0
 10
31.237465
 20
39.455732
 30
0.0
 10
30.277178
 20
42.867692
 30
0.0
 10
29.713106
 20
46.552879
 30
0.0
 10
29.533136
 20
50.377399
 30
0.0
 10
29.725157
 20
54.207358
 30
0.0
 10
30.277057
 20
57.908858
 30
0.0
 10
31.176725
 20
61.348004
 30
0.0
 10
32.412051
 20
64.390898
 30
0.0
 10
35.443087
 20
69.525048
 30
0.0
 10
39.061912
 20
74.268676
 30
0.0
 10
40.739054
 20
75.982753
 30
0.0
 10
41.766535
 20
76.575769
 30
0.0
 10
42.924829
 20
76.729301
 30
0.0
 10
44.371345
 20
76.234475
 30
0.0
 10
45.667922
 20
75.250739
 30
0.0
 10
47.793162
 20
72.857565
 30
0.0
 10
52.416919
 20
66.752604
 30
0.0
 10
56.762537
 20
60.439787
 30
0.0
 10
60.779784
 20
54.909668
 30
0.0
 10
64.834409
 20
49.038503
 30
0.0
 10
66.612239
 20
45.966876
 30
0.0
 10
68.083218
 20
42.800201
 30
0.0
 10
69.141944
 20
39.535223
 30
0.0
 10
69.683023
 20
36.168676
 30
0.0
 10
69.532816
 20
33.717672
 30
0.0
 10
68.823975
 20
31.472975
 30
0.0
 10
67.727661
 20
29.369116
 30
0.0
 10
66.415034
 20
27.340624
 30
0.0
 10
63.825487
 20
23.247854
 30
0.0
 10
62.890888
 20
21.052637
 30
0.0
 10
62.424620
 20
18.670898
 30
0.0
 10
62.558247
 20
14.882782
 30
0.0
 10
63.472830
 20
10.918147
 30
0.0
 10
64.232005
 20
9.028912
 30
0.0
 10
65.197248
 20
7.286678
 30
0.0
 10
66.372173
 20
5.755154
 30
0.0
 10
67.760384
 20
4.498051
 30
0.0
 10
69.896550
 20
3.275253
 30
0.0
 10
72.216814
 20
2.484571
 30
0.0
 10
74.637194
 20
1.999484
 30
0.0
 10
77.073718
 20
1.693468
 30
0.0
 10
82.327722
 20
1.254841
 30
0.0
 10
87.685730
 20
1.124228
 30
0.0
 10
93.029402
 20
1.421550
 30
0.0
 10
98.240384
 20
2.266732
 30
0.0
 10
101.525002
 20
3.427636
 30
0.0
 10
104.497457
 20
5.283713
 30
0.0
 10
107.032487
 20
7.710220
 30
0.0
 10
109.004825
 20
10.582409
 30
0.0
 10
110.289210
 20
13.775539
 30
0.0
 10
110.634272
 20
15.453475
 30
0.0
 10
110.760369
 20
17.164865
 30
0.0
 10
110.651846
 20
18.894116
 30
0.0
 10
110.293046
 20
20.625640
 30
0.0
 10
109.668304
 20
22.343837
 30
0.0
 10
108.761967
 20
24.033121
 30
0.0
 10
107.209861
 20
26.105642
 30
0.0
 10
105.401308
 20
28.016583
 30
0.0
 10
101.627051
 20
31.653121
 30
0.0
 10
97.043268
 20
36.639987
 30
0.0
 10
92.666495
 20
41.813121
 30
0.0
 10
86.676529
 20
49.483065
 30
0.0
 10
80.974523
 20
57.414153
 30
0.0
 10
69.815315
 20
73.422009
 30
0.0
 10
65.405595
 20
79.566975
 30
0.0
 10
61.181079
 20
85.839787
 30
0.0
 10
59.031178
 20
89.582726
 30
0.0
 10
58.347012
 20
91.597609
 30
0.0
 10
58.191287
 20
93.742009
 30
0.0
 10
58.586302
 20
95.930524
 30
0.0
 10
59.369009
 20
98.152626
 30
0.0
 10
60.449615
 20
100.381256
 30
0.0
 10
61.738324
 20
102.589360
 30
0.0
 10
67.178301
 20
110.675343
 30
0.0
 10
73.629018
 20
120.386784
 30
0.0
 10
80.416287
 20
129.866454
 30
0.0
 10
85.151093
 20
136.196594
 30
0.0
 10
87.756232
 20
139.189425
 30
0.0
 10
90.620384
 20
141.869718
 30
0.0
 10
92.143388
 20
142.969716
 30
0.0
 10
93.759158
 20
143.897770
 30
0.0
 10
97.160636
 20
145.441579
 30
0.0
 10
100.608102
 20
146.908226
 30
0.0
 10
103.884829
 20
148.704788
 30
0.0
 10
105.794934
 20
150.221475
 30
0.0
 10
107.447484
 20
152.020386
 30
0.0
 10
108.766573
 20
154.036514
 30
0.0
 10
109.676303
 20
156.204851
 30
0.0
 10
110.100776
 20
158.460389
 30
0.0
 10
109.964087
 20
160.738121
 30
0.0
 10
109.190341
 20
162.973039
 30
0.0
 10
107.703634
 20
165.100134
 30
0.0
 10
105.373932
 20
167.062317
 30
0.0
 10
102.706210
 20
168.387078
 30
0.0
 10
99.818605
 20
169.219299
 30
0.0
 10
96.829282
 20
169.703896
 30
0.0
 10
93.308622
 20
170.007677
 30
0.0
 10
89.776054
 20
170.114417
 30
0.0
 10
82.718171
 20
169.950840
 30
0.0
 10
77.546626
 20
169.661335
 30
0.0
 10
74.983374
 20
169.353974
 30
0.0
 10
72.495306
 20
168.837460
 30
0.0
 10
70.127543
 20
168.036234
 30
0.0
 10
67.925211
 20
166.874737
 30
0.0
 10
65.933433
 20
165.277408
 30
0.0
 10
64.197337
 20
163.168687
 30
0.0
 10
62.993682
 20
160.740196
 30
0.0
 10
62.538892
 20
158.370857
 30
0.0
 10
62.637100
 20
156.040362
 30
0.0
 10
63.092440
 20
153.728405
 30
0.0
 10
64.291041
 20
149.078872
 30
0.0
 10
64.642565
 20
146.700682
 30
0.0
 10
64.567754
 20
144.259800
 30
0.0
 10
63.866878
 20
141.321400
 30
0.0
 10
62.678307
 20
138.431156
 30
0.0
 10
61.108517
 20
135.601749
 30
0.0
 10
59.263986
 20
132.845851
 30
0.0
 10
55.176620
 20
127.605295
 30
0.0
 10
51.268032
 20
122.810910
 30
0.0
 10
45.767097
 20
115.811164
 30
0.0
 10
40.058518
 20
108.982021
 30
0.0
 10
38.107377
 20
106.630720
 30
0.0
 10
36.869469
 20
105.585682
 30
0.0
 10
36.236396
 20
105.309141
 30
0.0
 10
35.613518
 20
105.277854
 30
0.0
 10
35.114089
 20
105.494688
 30
0.0
 10
34.746238
 20
105.903033
 30
0.0
 10
34.324821
 20
107.092227
 30
0.0
 10
34.175948
 20
109.546465
 30
0.0
 10
33.893726
 20
123.093132
 30
0.0
 10
33.985448
 20
127.811199
 30
0.0
 10
34.303369
 20
132.704210
 30
0.0
 10
35.073517
 20
137.518904
 30
0.0
 10
35.698808
 20
139.817736
 30
0.0
 10
36.521921
 20
142.002021
 30
0.0
 10
37.465770
 20
143.829037
 30
0.0
 10
38.597436
 20
145.602899
 30
0.0
 10
41.063616
 20
149.101717
 30
0.0
 10
43.199222
 20
152.719576
 30
0.0
 10
43.917678
 20
154.642240
 30
0.0
 10
44.283032
 20
156.677577
 30
0.0
 10
44.280012
 20
158.311222
 30
0.0
 10
44.030683
 20
159.846619
 30
0.0
 10
43.555895
 20
161.282873
 30
0.0
 10
42.876498
 20
162.619086
 30
0.0
 10
40.987269
 20
164.987804
 30
0.0
 10
38.529785
 20
166.945600
 30
0.0
 10
35.670837
 20
168.485301
 30
0.0
 10
32.577213
 20
169.599735
 30
0.0
 10
29.415706
 20
170.281727
 30
0.0
 10
26.353101
 20
170.524104
 30
0.0
 10
26.353101
 20
170.524104
 30
0.0
  0
ENDSEC
  0
SECTION
  2
OBJECTS
  0
DICTIONARY
  5
C
330
0
100
AcDbDictionary
  3
ACAD_GROUP
350
D
  3
ACAD_MLINESTYLE
350
17
  0
DICTIONARY
  5
D
330
C
100
AcDbDictionary
  0
DICTIONARY
  5
1A
330
C
100
AcDbDictionary
  0
DICTIONARY
  5
17
330
C
100
AcDbDictionary
  3
STANDARD
350
18
  0
DICTIONARY
  5
19
330
C
100
AcDbDictionary
  0
ENDSEC
  0
EOF
