solid OpenSCAD_Model
  facet normal 1 -0 0
    outer loop
      vertex 47 0 10.19
      vertex 47 11 1.2
      vertex 47 11 10.19
    endloop
  endfacet
  facet normal 1 0 0
    outer loop
      vertex 47 11 1.2
      vertex 47 0 10.19
      vertex 47 0 1.2
    endloop
  endfacet
  facet normal 0 0 1
    outer loop
      vertex -47 0 10.19
      vertex -42.1087 3.76944 10.19
      vertex -47 11 10.19
    endloop
  endfacet
  facet normal 0 0 1
    outer loop
      vertex -42.1087 9.27944 10.19
      vertex -47 11 10.19
      vertex -42.15 8.86 10.19
    endloop
  endfacet
  facet normal 0 0 1
    outer loop
      vertex -41.9863 9.68277 10.19
      vertex -47 11 10.19
      vertex -42.1087 9.27944 10.19
    endloop
  endfacet
  facet normal 0 0 1
    outer loop
      vertex -41.7877 10.0545 10.19
      vertex -47 11 10.19
      vertex -41.9863 9.68277 10.19
    endloop
  endfacet
  facet normal 0 0 1
    outer loop
      vertex -41.5203 10.3803 10.19
      vertex -47 11 10.19
      vertex -41.7877 10.0545 10.19
    endloop
  endfacet
  facet normal 0 0 1
    outer loop
      vertex -41.1945 10.6477 10.19
      vertex -47 11 10.19
      vertex -41.5203 10.3803 10.19
    endloop
  endfacet
  facet normal 0 0 1
    outer loop
      vertex -40.8228 10.8463 10.19
      vertex -47 11 10.19
      vertex -41.1945 10.6477 10.19
    endloop
  endfacet
  facet normal 0 0 1
    outer loop
      vertex -40.4194 10.9687 10.19
      vertex -47 11 10.19
      vertex -40.8228 10.8463 10.19
    endloop
  endfacet
  facet normal -0 0 1
    outer loop
      vertex -47 11 10.19
      vertex -40.4194 10.9687 10.19
      vertex -40.1015 11 10.19
    endloop
  endfacet
  facet normal 0 0 1
    outer loop
      vertex 41.9863 8.03723 10.19
      vertex 47 11 10.19
      vertex 42.1087 8.44056 10.19
    endloop
  endfacet
  facet normal 0 0 1
    outer loop
      vertex 47 11 10.19
      vertex 42.1087 3.76944 10.19
      vertex 42.15 3.35 10.19
    endloop
  endfacet
  facet normal 0 0 1
    outer loop
      vertex 41.9863 4.17277 10.19
      vertex 47 11 10.19
      vertex 41.9863 8.03723 10.19
    endloop
  endfacet
  facet normal 0 0 1
    outer loop
      vertex 47 11 10.19
      vertex 41.9863 4.17277 10.19
      vertex 42.1087 3.76944 10.19
    endloop
  endfacet
  facet normal -0 0 1
    outer loop
      vertex 41.7877 7.66552 10.19
      vertex 41.9863 4.17277 10.19
      vertex 41.9863 8.03723 10.19
    endloop
  endfacet
  facet normal 0 0 1
    outer loop
      vertex 41.7877 7.66552 10.19
      vertex 41.7877 4.54448 10.19
      vertex 41.9863 4.17277 10.19
    endloop
  endfacet
  facet normal -0 0 1
    outer loop
      vertex 41.5203 7.33972 10.19
      vertex 41.7877 4.54448 10.19
      vertex 41.7877 7.66552 10.19
    endloop
  endfacet
  facet normal 0 0 1
    outer loop
      vertex 41.5203 7.33972 10.19
      vertex 41.5203 4.87028 10.19
      vertex 41.7877 4.54448 10.19
    endloop
  endfacet
  facet normal -0 0 1
    outer loop
      vertex 41.1945 7.07234 10.19
      vertex 41.5203 4.87028 10.19
      vertex 41.5203 7.33972 10.19
    endloop
  endfacet
  facet normal 0 0 1
    outer loop
      vertex 41.1945 7.07234 10.19
      vertex 41.1945 5.13766 10.19
      vertex 41.5203 4.87028 10.19
    endloop
  endfacet
  facet normal -0 0 1
    outer loop
      vertex 40.8228 6.87366 10.19
      vertex 41.1945 5.13766 10.19
      vertex 41.1945 7.07234 10.19
    endloop
  endfacet
  facet normal 0 0 1
    outer loop
      vertex 40.8228 6.87366 10.19
      vertex 40.8228 5.33634 10.19
      vertex 41.1945 5.13766 10.19
    endloop
  endfacet
  facet normal -0 0 1
    outer loop
      vertex 40.4194 6.75131 10.19
      vertex 40.8228 5.33634 10.19
      vertex 40.8228 6.87366 10.19
    endloop
  endfacet
  facet normal 0 0 1
    outer loop
      vertex 40.4194 6.75131 10.19
      vertex 40.4194 5.45869 10.19
      vertex 40.8228 5.33634 10.19
    endloop
  endfacet
  facet normal -0 0 1
    outer loop
      vertex 40 6.71 10.19
      vertex 40.4194 5.45869 10.19
      vertex 40.4194 6.75131 10.19
    endloop
  endfacet
  facet normal 0 0 1
    outer loop
      vertex 40 6.71 10.19
      vertex 40 5.5 10.19
      vertex 40.4194 5.45869 10.19
    endloop
  endfacet
  facet normal -0 0 1
    outer loop
      vertex -40 6.71 10.19
      vertex 40 5.5 10.19
      vertex 40 6.71 10.19
    endloop
  endfacet
  facet normal 0 0 1
    outer loop
      vertex -40 6.71 10.19
      vertex -40 5.5 10.19
      vertex 40 5.5 10.19
    endloop
  endfacet
  facet normal 0 0 1
    outer loop
      vertex -40.4194 6.75131 10.19
      vertex -40 5.5 10.19
      vertex -40 6.71 10.19
    endloop
  endfacet
  facet normal 0 0 1
    outer loop
      vertex -40.4194 6.75131 10.19
      vertex -40.4194 5.45869 10.19
      vertex -40 5.5 10.19
    endloop
  endfacet
  facet normal 0 0 1
    outer loop
      vertex -40.8228 6.87366 10.19
      vertex -40.4194 5.45869 10.19
      vertex -40.4194 6.75131 10.19
    endloop
  endfacet
  facet normal 0 0 1
    outer loop
      vertex -40.8228 6.87366 10.19
      vertex -40.8228 5.33634 10.19
      vertex -40.4194 5.45869 10.19
    endloop
  endfacet
  facet normal 0 0 1
    outer loop
      vertex -41.1945 7.07234 10.19
      vertex -40.8228 5.33634 10.19
      vertex -40.8228 6.87366 10.19
    endloop
  endfacet
  facet normal 0 0 1
    outer loop
      vertex -41.1945 7.07234 10.19
      vertex -41.1945 5.13766 10.19
      vertex -40.8228 5.33634 10.19
    endloop
  endfacet
  facet normal 0 0 1
    outer loop
      vertex -41.5203 7.33972 10.19
      vertex -41.1945 5.13766 10.19
      vertex -41.1945 7.07234 10.19
    endloop
  endfacet
  facet normal 0 0 1
    outer loop
      vertex -41.5203 7.33972 10.19
      vertex -41.5203 4.87028 10.19
      vertex -41.1945 5.13766 10.19
    endloop
  endfacet
  facet normal 0 0 1
    outer loop
      vertex -41.7877 7.66552 10.19
      vertex -41.5203 4.87028 10.19
      vertex -41.5203 7.33972 10.19
    endloop
  endfacet
  facet normal 0 0 1
    outer loop
      vertex -41.7877 7.66552 10.19
      vertex -41.7877 4.54448 10.19
      vertex -41.5203 4.87028 10.19
    endloop
  endfacet
  facet normal 0 0 1
    outer loop
      vertex -41.9863 8.03723 10.19
      vertex -41.7877 4.54448 10.19
      vertex -41.7877 7.66552 10.19
    endloop
  endfacet
  facet normal 0 0 1
    outer loop
      vertex -41.9863 8.03723 10.19
      vertex -41.9863 4.17277 10.19
      vertex -41.7877 4.54448 10.19
    endloop
  endfacet
  facet normal 0 0 1
    outer loop
      vertex -47 11 10.19
      vertex -41.9863 8.03723 10.19
      vertex -42.1087 8.44056 10.19
    endloop
  endfacet
  facet normal 0 0 1
    outer loop
      vertex -41.9863 8.03723 10.19
      vertex -47 11 10.19
      vertex -41.9863 4.17277 10.19
    endloop
  endfacet
  facet normal 0 0 1
    outer loop
      vertex -47 11 10.19
      vertex -42.1087 8.44056 10.19
      vertex -42.15 8.86 10.19
    endloop
  endfacet
  facet normal 0 0 1
    outer loop
      vertex -41.9863 4.17277 10.19
      vertex -47 11 10.19
      vertex -42.1087 3.76944 10.19
    endloop
  endfacet
  facet normal 0 0 1
    outer loop
      vertex 42.1087 8.44056 10.19
      vertex 47 11 10.19
      vertex 42.15 8.86 10.19
    endloop
  endfacet
  facet normal 0 0 1
    outer loop
      vertex 47 11 10.19
      vertex 42.1087 9.27944 10.19
      vertex 42.15 8.86 10.19
    endloop
  endfacet
  facet normal 0 0 1
    outer loop
      vertex 47 11 10.19
      vertex 41.9863 9.68277 10.19
      vertex 42.1087 9.27944 10.19
    endloop
  endfacet
  facet normal 0 0 1
    outer loop
      vertex 47 11 10.19
      vertex 41.7877 10.0545 10.19
      vertex 41.9863 9.68277 10.19
    endloop
  endfacet
  facet normal 0 0 1
    outer loop
      vertex 47 11 10.19
      vertex 41.5203 10.3803 10.19
      vertex 41.7877 10.0545 10.19
    endloop
  endfacet
  facet normal 0 0 1
    outer loop
      vertex 47 11 10.19
      vertex 41.1945 10.6477 10.19
      vertex 41.5203 10.3803 10.19
    endloop
  endfacet
  facet normal 0 0 1
    outer loop
      vertex 47 11 10.19
      vertex 40.8228 10.8463 10.19
      vertex 41.1945 10.6477 10.19
    endloop
  endfacet
  facet normal 0 0 1
    outer loop
      vertex 47 11 10.19
      vertex 40.4194 10.9687 10.19
      vertex 40.8228 10.8463 10.19
    endloop
  endfacet
  facet normal 0 -0 1
    outer loop
      vertex 40.4194 10.9687 10.19
      vertex 47 11 10.19
      vertex 40.1015 11 10.19
    endloop
  endfacet
  facet normal 0 0 1
    outer loop
      vertex 47 11 10.19
      vertex 42.15 3.35 10.19
      vertex 47 0 10.19
    endloop
  endfacet
  facet normal -0 0 1
    outer loop
      vertex 42.1087 2.93056 10.19
      vertex 47 0 10.19
      vertex 42.15 3.35 10.19
    endloop
  endfacet
  facet normal -0 0 1
    outer loop
      vertex 41.9863 2.52723 10.19
      vertex 47 0 10.19
      vertex 42.1087 2.93056 10.19
    endloop
  endfacet
  facet normal -0 0 1
    outer loop
      vertex 41.7877 2.15552 10.19
      vertex 47 0 10.19
      vertex 41.9863 2.52723 10.19
    endloop
  endfacet
  facet normal -0 0 1
    outer loop
      vertex 41.5203 1.82972 10.19
      vertex 47 0 10.19
      vertex 41.7877 2.15552 10.19
    endloop
  endfacet
  facet normal -0 0 1
    outer loop
      vertex 41.1945 1.56234 10.19
      vertex 47 0 10.19
      vertex 41.5203 1.82972 10.19
    endloop
  endfacet
  facet normal -0 0 1
    outer loop
      vertex 40.8228 1.36366 10.19
      vertex 47 0 10.19
      vertex 41.1945 1.56234 10.19
    endloop
  endfacet
  facet normal -0 0 1
    outer loop
      vertex 40.4194 1.24131 10.19
      vertex 47 0 10.19
      vertex 40.8228 1.36366 10.19
    endloop
  endfacet
  facet normal -0 0 1
    outer loop
      vertex 40 1.2 10.19
      vertex 47 0 10.19
      vertex 40.4194 1.24131 10.19
    endloop
  endfacet
  facet normal -0 0 1
    outer loop
      vertex -40 1.2 10.19
      vertex 47 0 10.19
      vertex 40 1.2 10.19
    endloop
  endfacet
  facet normal 0 0 1
    outer loop
      vertex -42.1087 3.76944 10.19
      vertex -47 0 10.19
      vertex -42.15 3.35 10.19
    endloop
  endfacet
  facet normal 0 0 1
    outer loop
      vertex -42.15 3.35 10.19
      vertex -47 0 10.19
      vertex -42.1087 2.93056 10.19
    endloop
  endfacet
  facet normal 0 0 1
    outer loop
      vertex -42.1087 2.93056 10.19
      vertex -47 0 10.19
      vertex -41.9863 2.52723 10.19
    endloop
  endfacet
  facet normal 0 0 1
    outer loop
      vertex -40 1.2 10.19
      vertex -47 0 10.19
      vertex 47 0 10.19
    endloop
  endfacet
  facet normal 0 0 1
    outer loop
      vertex -40.4194 1.24131 10.19
      vertex -47 0 10.19
      vertex -40 1.2 10.19
    endloop
  endfacet
  facet normal 0 0 1
    outer loop
      vertex -40.8228 1.36366 10.19
      vertex -47 0 10.19
      vertex -40.4194 1.24131 10.19
    endloop
  endfacet
  facet normal 0 0 1
    outer loop
      vertex -41.1945 1.56234 10.19
      vertex -47 0 10.19
      vertex -40.8228 1.36366 10.19
    endloop
  endfacet
  facet normal 0 0 1
    outer loop
      vertex -41.5203 1.82972 10.19
      vertex -47 0 10.19
      vertex -41.1945 1.56234 10.19
    endloop
  endfacet
  facet normal 0 0 1
    outer loop
      vertex -41.7877 2.15552 10.19
      vertex -47 0 10.19
      vertex -41.5203 1.82972 10.19
    endloop
  endfacet
  facet normal 0 0 1
    outer loop
      vertex -41.9863 2.52723 10.19
      vertex -47 0 10.19
      vertex -41.7877 2.15552 10.19
    endloop
  endfacet
  facet normal -1 0 0
    outer loop
      vertex -47 0 1.2
      vertex -47 11 10.19
      vertex -47 11 1.2
    endloop
  endfacet
  facet normal -1 -0 0
    outer loop
      vertex -47 11 10.19
      vertex -47 0 1.2
      vertex -47 0 10.19
    endloop
  endfacet
  facet normal 0 1 -0
    outer loop
      vertex -40.1015 11 1.2
      vertex -47 11 10.19
      vertex -40.1015 11 10.19
    endloop
  endfacet
  facet normal 0 1 0
    outer loop
      vertex -47 11 10.19
      vertex -40.1015 11 1.2
      vertex -47 11 1.2
    endloop
  endfacet
  facet normal 0 1 -0
    outer loop
      vertex 47 11 1.2
      vertex 40.1015 11 10.19
      vertex 47 11 10.19
    endloop
  endfacet
  facet normal 0 1 0
    outer loop
      vertex 40.1015 11 10.19
      vertex 47 11 1.2
      vertex 40.1015 11 1.2
    endloop
  endfacet
  facet normal 0 -1 0
    outer loop
      vertex -60 0 0
      vertex -47 0 1.2
      vertex -60 0 1.2
    endloop
  endfacet
  facet normal 0 -1 -0
    outer loop
      vertex -47 0 1.2
      vertex -60 0 0
      vertex 47 0 1.2
    endloop
  endfacet
  facet normal 0 -1 0
    outer loop
      vertex 60 0 0
      vertex 47 0 1.2
      vertex -60 0 0
    endloop
  endfacet
  facet normal 0 -1 0
    outer loop
      vertex 47 0 1.2
      vertex 60 0 0
      vertex 60 0 1.2
    endloop
  endfacet
  facet normal 0 -1 0
    outer loop
      vertex -47 0 1.2
      vertex 47 0 10.19
      vertex -47 0 10.19
    endloop
  endfacet
  facet normal 0 -1 -0
    outer loop
      vertex 47 0 10.19
      vertex -47 0 1.2
      vertex 47 0 1.2
    endloop
  endfacet
  facet normal 1 -0 0
    outer loop
      vertex 60 0 1.2
      vertex 60 20 0
      vertex 60 20 1.2
    endloop
  endfacet
  facet normal 1 0 0
    outer loop
      vertex 60 20 0
      vertex 60 0 1.2
      vertex 60 0 0
    endloop
  endfacet
  facet normal -0 0 1
    outer loop
      vertex 52.4904 8.09754 1.2
      vertex 60 0 1.2
      vertex 60 20 1.2
    endloop
  endfacet
  facet normal 0 0 1
    outer loop
      vertex 60 0 1.2
      vertex 52.4904 8.09754 1.2
      vertex 52.5 8 1.2
    endloop
  endfacet
  facet normal 0 0 1
    outer loop
      vertex 60 20 1.2
      vertex 52.4619 8.19134 1.2
      vertex 52.4904 8.09754 1.2
    endloop
  endfacet
  facet normal 0 0 1
    outer loop
      vertex 60 20 1.2
      vertex 52.4157 8.27778 1.2
      vertex 52.4619 8.19134 1.2
    endloop
  endfacet
  facet normal 0 0 1
    outer loop
      vertex 60 20 1.2
      vertex 52.3536 8.35355 1.2
      vertex 52.4157 8.27778 1.2
    endloop
  endfacet
  facet normal 0 0 1
    outer loop
      vertex 60 20 1.2
      vertex 52.2778 8.41573 1.2
      vertex 52.3536 8.35355 1.2
    endloop
  endfacet
  facet normal 0 0 1
    outer loop
      vertex 60 20 1.2
      vertex 52.1913 8.46194 1.2
      vertex 52.2778 8.41573 1.2
    endloop
  endfacet
  facet normal 0 0 1
    outer loop
      vertex 60 20 1.2
      vertex 52.0975 8.49039 1.2
      vertex 52.1913 8.46194 1.2
    endloop
  endfacet
  facet normal 0 0 1
    outer loop
      vertex 60 20 1.2
      vertex 52 8.5 1.2
      vertex 52.0975 8.49039 1.2
    endloop
  endfacet
  facet normal -0 0 1
    outer loop
      vertex 47 11 1.2
      vertex 52 8.5 1.2
      vertex 60 20 1.2
    endloop
  endfacet
  facet normal 0 0 1
    outer loop
      vertex 52 8.5 1.2
      vertex 47 11 1.2
      vertex 51.9025 8.49039 1.2
    endloop
  endfacet
  facet normal 0 0 1
    outer loop
      vertex 51.9025 8.49039 1.2
      vertex 47 11 1.2
      vertex 51.8087 8.46194 1.2
    endloop
  endfacet
  facet normal 0 0 1
    outer loop
      vertex 51.8087 8.46194 1.2
      vertex 47 11 1.2
      vertex 51.7222 8.41573 1.2
    endloop
  endfacet
  facet normal 0 0 1
    outer loop
      vertex 51.7222 8.41573 1.2
      vertex 47 11 1.2
      vertex 51.6464 8.35355 1.2
    endloop
  endfacet
  facet normal 0 0 1
    outer loop
      vertex 51.5096 8.09754 1.2
      vertex 47 11 1.2
      vertex 51.5 8 1.2
    endloop
  endfacet
  facet normal 0 0 1
    outer loop
      vertex 51.5381 8.19134 1.2
      vertex 47 11 1.2
      vertex 51.5096 8.09754 1.2
    endloop
  endfacet
  facet normal 0 0 1
    outer loop
      vertex 51.5843 8.27778 1.2
      vertex 47 11 1.2
      vertex 51.5381 8.19134 1.2
    endloop
  endfacet
  facet normal 0 0 1
    outer loop
      vertex 51.6464 8.35355 1.2
      vertex 47 11 1.2
      vertex 51.5843 8.27778 1.2
    endloop
  endfacet
  facet normal 0 0 1
    outer loop
      vertex 60 20 1.2
      vertex 40.1015 11 1.2
      vertex 47 11 1.2
    endloop
  endfacet
  facet normal 0 0 1
    outer loop
      vertex 60 20 1.2
      vertex 40 11.01 1.2
      vertex 40.1015 11 1.2
    endloop
  endfacet
  facet normal 0 0 1
    outer loop
      vertex 60 20 1.2
      vertex -40 11.01 1.2
      vertex 40 11.01 1.2
    endloop
  endfacet
  facet normal 0 0 1
    outer loop
      vertex -60 20 1.2
      vertex -40.1015 11 1.2
      vertex -40 11.01 1.2
    endloop
  endfacet
  facet normal -0 0 1
    outer loop
      vertex -60 20 1.2
      vertex -40 11.01 1.2
      vertex 60 20 1.2
    endloop
  endfacet
  facet normal 0 0 1
    outer loop
      vertex -51.5096 7.90245 1.2
      vertex -47 11 1.2
      vertex -51.5 8 1.2
    endloop
  endfacet
  facet normal 0 0 1
    outer loop
      vertex -47 11 1.2
      vertex -51.5096 8.09754 1.2
      vertex -51.5 8 1.2
    endloop
  endfacet
  facet normal 0 0 1
    outer loop
      vertex -47 11 1.2
      vertex -51.5381 8.19134 1.2
      vertex -51.5096 8.09754 1.2
    endloop
  endfacet
  facet normal 0 0 1
    outer loop
      vertex -47 11 1.2
      vertex -51.5843 8.27778 1.2
      vertex -51.5381 8.19134 1.2
    endloop
  endfacet
  facet normal 0 0 1
    outer loop
      vertex -47 11 1.2
      vertex -51.6464 8.35355 1.2
      vertex -51.5843 8.27778 1.2
    endloop
  endfacet
  facet normal 0 0 1
    outer loop
      vertex -47 11 1.2
      vertex -51.7222 8.41573 1.2
      vertex -51.6464 8.35355 1.2
    endloop
  endfacet
  facet normal 0 0 1
    outer loop
      vertex -47 11 1.2
      vertex -51.8087 8.46194 1.2
      vertex -51.7222 8.41573 1.2
    endloop
  endfacet
  facet normal 0 0 1
    outer loop
      vertex -47 11 1.2
      vertex -51.9025 8.49039 1.2
      vertex -51.8087 8.46194 1.2
    endloop
  endfacet
  facet normal 0 0 1
    outer loop
      vertex -47 11 1.2
      vertex -52 8.5 1.2
      vertex -51.9025 8.49039 1.2
    endloop
  endfacet
  facet normal 0 0 1
    outer loop
      vertex -47 11 1.2
      vertex -52.0975 8.49039 1.2
      vertex -52 8.5 1.2
    endloop
  endfacet
  facet normal 0 0 1
    outer loop
      vertex -60 20 1.2
      vertex -52.0975 8.49039 1.2
      vertex -47 11 1.2
    endloop
  endfacet
  facet normal 0 0 1
    outer loop
      vertex -60 0 1.2
      vertex -52.4904 8.09754 1.2
      vertex -60 20 1.2
    endloop
  endfacet
  facet normal 0 0 1
    outer loop
      vertex -52.4619 8.19134 1.2
      vertex -60 20 1.2
      vertex -52.4904 8.09754 1.2
    endloop
  endfacet
  facet normal 0 0 1
    outer loop
      vertex -52.4157 8.27778 1.2
      vertex -60 20 1.2
      vertex -52.4619 8.19134 1.2
    endloop
  endfacet
  facet normal 0 0 1
    outer loop
      vertex -52.3536 8.35355 1.2
      vertex -60 20 1.2
      vertex -52.4157 8.27778 1.2
    endloop
  endfacet
  facet normal 0 0 1
    outer loop
      vertex -52.2778 8.41573 1.2
      vertex -60 20 1.2
      vertex -52.3536 8.35355 1.2
    endloop
  endfacet
  facet normal 0 0 1
    outer loop
      vertex -52.1913 8.46194 1.2
      vertex -60 20 1.2
      vertex -52.2778 8.41573 1.2
    endloop
  endfacet
  facet normal 0 0 1
    outer loop
      vertex -52.0975 8.49039 1.2
      vertex -60 20 1.2
      vertex -52.1913 8.46194 1.2
    endloop
  endfacet
  facet normal 0 0 1
    outer loop
      vertex -40.1015 11 1.2
      vertex -60 20 1.2
      vertex -47 11 1.2
    endloop
  endfacet
  facet normal -0 0 1
    outer loop
      vertex 52.4904 7.90245 1.2
      vertex 60 0 1.2
      vertex 52.5 8 1.2
    endloop
  endfacet
  facet normal -0 0 1
    outer loop
      vertex 52.4619 7.80866 1.2
      vertex 60 0 1.2
      vertex 52.4904 7.90245 1.2
    endloop
  endfacet
  facet normal -0 0 1
    outer loop
      vertex 52.4157 7.72221 1.2
      vertex 60 0 1.2
      vertex 52.4619 7.80866 1.2
    endloop
  endfacet
  facet normal -0 0 1
    outer loop
      vertex 52.3536 7.64645 1.2
      vertex 60 0 1.2
      vertex 52.4157 7.72221 1.2
    endloop
  endfacet
  facet normal -0 0 1
    outer loop
      vertex 52.2778 7.58426 1.2
      vertex 60 0 1.2
      vertex 52.3536 7.64645 1.2
    endloop
  endfacet
  facet normal -0 0 1
    outer loop
      vertex 52.1913 7.53806 1.2
      vertex 60 0 1.2
      vertex 52.2778 7.58426 1.2
    endloop
  endfacet
  facet normal -0 0 1
    outer loop
      vertex 52.0975 7.50961 1.2
      vertex 60 0 1.2
      vertex 52.1913 7.53806 1.2
    endloop
  endfacet
  facet normal 0 0 1
    outer loop
      vertex 47 0 1.2
      vertex 52.0975 7.50961 1.2
      vertex 52 7.5 1.2
    endloop
  endfacet
  facet normal 0 0 1
    outer loop
      vertex 47 0 1.2
      vertex 52 7.5 1.2
      vertex 51.9025 7.50961 1.2
    endloop
  endfacet
  facet normal 0 0 1
    outer loop
      vertex 47 0 1.2
      vertex 51.9025 7.50961 1.2
      vertex 51.8087 7.53806 1.2
    endloop
  endfacet
  facet normal 0 0 1
    outer loop
      vertex 47 0 1.2
      vertex 51.8087 7.53806 1.2
      vertex 51.7222 7.58426 1.2
    endloop
  endfacet
  facet normal 0 0 1
    outer loop
      vertex 47 0 1.2
      vertex 51.7222 7.58426 1.2
      vertex 51.6464 7.64645 1.2
    endloop
  endfacet
  facet normal 0 0 1
    outer loop
      vertex 47 11 1.2
      vertex 51.5096 7.90245 1.2
      vertex 51.5 8 1.2
    endloop
  endfacet
  facet normal 0 0 1
    outer loop
      vertex 47 11 1.2
      vertex 51.5381 7.80866 1.2
      vertex 51.5096 7.90245 1.2
    endloop
  endfacet
  facet normal 0 0 1
    outer loop
      vertex 47 0 1.2
      vertex 51.5381 7.80866 1.2
      vertex 47 11 1.2
    endloop
  endfacet
  facet normal 0 0 1
    outer loop
      vertex 51.5381 7.80866 1.2
      vertex 47 0 1.2
      vertex 51.5843 7.72221 1.2
    endloop
  endfacet
  facet normal 0 0 1
    outer loop
      vertex 51.5843 7.72221 1.2
      vertex 47 0 1.2
      vertex 51.6464 7.64645 1.2
    endloop
  endfacet
  facet normal 0 0 1
    outer loop
      vertex 52.0975 7.50961 1.2
      vertex 47 0 1.2
      vertex 60 0 1.2
    endloop
  endfacet
  facet normal 0 0 1
    outer loop
      vertex -51.5381 7.80866 1.2
      vertex -47 11 1.2
      vertex -51.5096 7.90245 1.2
    endloop
  endfacet
  facet normal 0 0 1
    outer loop
      vertex -47 11 1.2
      vertex -51.5381 7.80866 1.2
      vertex -47 0 1.2
    endloop
  endfacet
  facet normal -0 0 1
    outer loop
      vertex -51.5843 7.72221 1.2
      vertex -47 0 1.2
      vertex -51.5381 7.80866 1.2
    endloop
  endfacet
  facet normal -0 0 1
    outer loop
      vertex -51.6464 7.64645 1.2
      vertex -47 0 1.2
      vertex -51.5843 7.72221 1.2
    endloop
  endfacet
  facet normal -0 0 1
    outer loop
      vertex -51.7222 7.58426 1.2
      vertex -47 0 1.2
      vertex -51.6464 7.64645 1.2
    endloop
  endfacet
  facet normal -0 0 1
    outer loop
      vertex -51.8087 7.53806 1.2
      vertex -47 0 1.2
      vertex -51.7222 7.58426 1.2
    endloop
  endfacet
  facet normal -0 0 1
    outer loop
      vertex -51.9025 7.50961 1.2
      vertex -47 0 1.2
      vertex -51.8087 7.53806 1.2
    endloop
  endfacet
  facet normal -0 0 1
    outer loop
      vertex -52 7.5 1.2
      vertex -47 0 1.2
      vertex -51.9025 7.50961 1.2
    endloop
  endfacet
  facet normal 0 0 1
    outer loop
      vertex -52.0975 7.50961 1.2
      vertex -47 0 1.2
      vertex -52 7.5 1.2
    endloop
  endfacet
  facet normal 0 0 1
    outer loop
      vertex -60 0 1.2
      vertex -52.0975 7.50961 1.2
      vertex -52.1913 7.53806 1.2
    endloop
  endfacet
  facet normal 0 0 1
    outer loop
      vertex -60 0 1.2
      vertex -52.1913 7.53806 1.2
      vertex -52.2778 7.58426 1.2
    endloop
  endfacet
  facet normal 0 0 1
    outer loop
      vertex -60 0 1.2
      vertex -52.2778 7.58426 1.2
      vertex -52.3536 7.64645 1.2
    endloop
  endfacet
  facet normal 0 0 1
    outer loop
      vertex -60 0 1.2
      vertex -52.3536 7.64645 1.2
      vertex -52.4157 7.72221 1.2
    endloop
  endfacet
  facet normal 0 0 1
    outer loop
      vertex -52.4904 8.09754 1.2
      vertex -60 0 1.2
      vertex -52.5 8 1.2
    endloop
  endfacet
  facet normal 0 0 1
    outer loop
      vertex -52.5 8 1.2
      vertex -60 0 1.2
      vertex -52.4904 7.90245 1.2
    endloop
  endfacet
  facet normal 0 0 1
    outer loop
      vertex -52.4904 7.90245 1.2
      vertex -60 0 1.2
      vertex -52.4619 7.80866 1.2
    endloop
  endfacet
  facet normal 0 0 1
    outer loop
      vertex -52.0975 7.50961 1.2
      vertex -60 0 1.2
      vertex -47 0 1.2
    endloop
  endfacet
  facet normal 0 0 1
    outer loop
      vertex -52.4619 7.80866 1.2
      vertex -60 0 1.2
      vertex -52.4157 7.72221 1.2
    endloop
  endfacet
  facet normal 0 0 -1
    outer loop
      vertex 41.9863 4.17277 0
      vertex 51.5381 7.80866 0
      vertex 42.1087 3.76944 0
    endloop
  endfacet
  facet normal 0 0 -1
    outer loop
      vertex 51.5381 7.80866 0
      vertex 42.1087 8.44056 0
      vertex 42.15 8.86 0
    endloop
  endfacet
  facet normal 0 0 -1
    outer loop
      vertex 41.9863 8.03723 0
      vertex 51.5381 7.80866 0
      vertex 41.9863 4.17277 0
    endloop
  endfacet
  facet normal 0 0 -1
    outer loop
      vertex 51.5381 7.80866 0
      vertex 41.9863 8.03723 0
      vertex 42.1087 8.44056 0
    endloop
  endfacet
  facet normal 0 0 -1
    outer loop
      vertex 41.7877 4.54448 0
      vertex 41.9863 8.03723 0
      vertex 41.9863 4.17277 0
    endloop
  endfacet
  facet normal 0 0 -1
    outer loop
      vertex 41.7877 4.54448 0
      vertex 41.7877 7.66552 0
      vertex 41.9863 8.03723 0
    endloop
  endfacet
  facet normal 0 0 -1
    outer loop
      vertex 41.5203 4.87028 0
      vertex 41.7877 7.66552 0
      vertex 41.7877 4.54448 0
    endloop
  endfacet
  facet normal 0 0 -1
    outer loop
      vertex 41.5203 4.87028 0
      vertex 41.5203 7.33972 0
      vertex 41.7877 7.66552 0
    endloop
  endfacet
  facet normal 0 0 -1
    outer loop
      vertex 41.1945 5.13766 0
      vertex 41.5203 7.33972 0
      vertex 41.5203 4.87028 0
    endloop
  endfacet
  facet normal 0 0 -1
    outer loop
      vertex 41.1945 5.13766 0
      vertex 41.1945 7.07234 0
      vertex 41.5203 7.33972 0
    endloop
  endfacet
  facet normal 0 0 -1
    outer loop
      vertex 40.8228 5.33634 0
      vertex 41.1945 7.07234 0
      vertex 41.1945 5.13766 0
    endloop
  endfacet
  facet normal 0 0 -1
    outer loop
      vertex 40.8228 5.33634 0
      vertex 40.8228 6.87366 0
      vertex 41.1945 7.07234 0
    endloop
  endfacet
  facet normal 0 0 -1
    outer loop
      vertex 40.4194 5.45869 0
      vertex 40.8228 6.87366 0
      vertex 40.8228 5.33634 0
    endloop
  endfacet
  facet normal 0 0 -1
    outer loop
      vertex 40.4194 5.45869 0
      vertex 40.4194 6.75131 0
      vertex 40.8228 6.87366 0
    endloop
  endfacet
  facet normal 0 0 -1
    outer loop
      vertex 40 5.5 0
      vertex 40.4194 6.75131 0
      vertex 40.4194 5.45869 0
    endloop
  endfacet
  facet normal 0 0 -1
    outer loop
      vertex 40 5.5 0
      vertex 40 6.71 0
      vertex 40.4194 6.75131 0
    endloop
  endfacet
  facet normal 0 0 -1
    outer loop
      vertex -40 5.5 0
      vertex 40 6.71 0
      vertex 40 5.5 0
    endloop
  endfacet
  facet normal 0 0 -1
    outer loop
      vertex -40 5.5 0
      vertex -40 6.71 0
      vertex 40 6.71 0
    endloop
  endfacet
  facet normal 0 0 -1
    outer loop
      vertex -40.4194 5.45869 0
      vertex -40 6.71 0
      vertex -40 5.5 0
    endloop
  endfacet
  facet normal 0 0 -1
    outer loop
      vertex -40.4194 5.45869 0
      vertex -40.4194 6.75131 0
      vertex -40 6.71 0
    endloop
  endfacet
  facet normal 0 0 -1
    outer loop
      vertex -40.8228 5.33634 0
      vertex -40.4194 6.75131 0
      vertex -40.4194 5.45869 0
    endloop
  endfacet
  facet normal 0 0 -1
    outer loop
      vertex -40.8228 5.33634 0
      vertex -40.8228 6.87366 0
      vertex -40.4194 6.75131 0
    endloop
  endfacet
  facet normal 0 0 -1
    outer loop
      vertex -41.1945 5.13766 0
      vertex -40.8228 6.87366 0
      vertex -40.8228 5.33634 0
    endloop
  endfacet
  facet normal 0 0 -1
    outer loop
      vertex -41.1945 5.13766 0
      vertex -41.1945 7.07234 0
      vertex -40.8228 6.87366 0
    endloop
  endfacet
  facet normal 0 0 -1
    outer loop
      vertex -41.5203 4.87028 0
      vertex -41.1945 7.07234 0
      vertex -41.1945 5.13766 0
    endloop
  endfacet
  facet normal 0 0 -1
    outer loop
      vertex -41.5203 4.87028 0
      vertex -41.5203 7.33972 0
      vertex -41.1945 7.07234 0
    endloop
  endfacet
  facet normal 0 0 -1
    outer loop
      vertex -41.7877 4.54448 0
      vertex -41.5203 7.33972 0
      vertex -41.5203 4.87028 0
    endloop
  endfacet
  facet normal 0 0 -1
    outer loop
      vertex -41.7877 4.54448 0
      vertex -41.7877 7.66552 0
      vertex -41.5203 7.33972 0
    endloop
  endfacet
  facet normal 0 0 -1
    outer loop
      vertex -41.9863 4.17277 0
      vertex -41.7877 7.66552 0
      vertex -41.7877 4.54448 0
    endloop
  endfacet
  facet normal 0 0 -1
    outer loop
      vertex -41.9863 4.17277 0
      vertex -41.9863 8.03723 0
      vertex -41.7877 7.66552 0
    endloop
  endfacet
  facet normal 0 0 -1
    outer loop
      vertex -51.5381 7.80866 0
      vertex -41.9863 4.17277 0
      vertex -42.1087 3.76944 0
    endloop
  endfacet
  facet normal 0 0 -1
    outer loop
      vertex -41.9863 4.17277 0
      vertex -51.5381 7.80866 0
      vertex -41.9863 8.03723 0
    endloop
  endfacet
  facet normal 0 0 -1
    outer loop
      vertex -51.6464 7.64645 0
      vertex -42.1087 3.76944 0
      vertex -42.15 3.35 0
    endloop
  endfacet
  facet normal 0 -0 -1
    outer loop
      vertex -51.5096 7.90245 0
      vertex -41.9863 8.03723 0
      vertex -51.5381 7.80866 0
    endloop
  endfacet
  facet normal 0 0 -1
    outer loop
      vertex 52.4904 8.09754 0
      vertex 60 0 0
      vertex 52.5 8 0
    endloop
  endfacet
  facet normal 0 0 -1
    outer loop
      vertex 60 0 0
      vertex 52.4904 7.90245 0
      vertex 52.5 8 0
    endloop
  endfacet
  facet normal 0 0 -1
    outer loop
      vertex 60 0 0
      vertex 52.4619 7.80866 0
      vertex 52.4904 7.90245 0
    endloop
  endfacet
  facet normal 0 0 -1
    outer loop
      vertex 60 0 0
      vertex 52.4157 7.72221 0
      vertex 52.4619 7.80866 0
    endloop
  endfacet
  facet normal 0 0 -1
    outer loop
      vertex 60 0 0
      vertex 52.3536 7.64645 0
      vertex 52.4157 7.72221 0
    endloop
  endfacet
  facet normal 0 0 -1
    outer loop
      vertex 60 0 0
      vertex 52.2778 7.58426 0
      vertex 52.3536 7.64645 0
    endloop
  endfacet
  facet normal 0 0 -1
    outer loop
      vertex 60 0 0
      vertex 52.1913 7.53806 0
      vertex 52.2778 7.58426 0
    endloop
  endfacet
  facet normal 0 0 -1
    outer loop
      vertex 60 0 0
      vertex 52.0975 7.50961 0
      vertex 52.1913 7.53806 0
    endloop
  endfacet
  facet normal 0 0 -1
    outer loop
      vertex 60 0 0
      vertex 52 7.5 0
      vertex 52.0975 7.50961 0
    endloop
  endfacet
  facet normal 0 0 -1
    outer loop
      vertex 60 0 0
      vertex 51.9025 7.50961 0
      vertex 52 7.5 0
    endloop
  endfacet
  facet normal 0 0 -1
    outer loop
      vertex 41.9863 2.52723 0
      vertex 51.9025 7.50961 0
      vertex 60 0 0
    endloop
  endfacet
  facet normal -0 0 -1
    outer loop
      vertex 51.9025 7.50961 0
      vertex 41.9863 2.52723 0
      vertex 51.8087 7.53806 0
    endloop
  endfacet
  facet normal 0 -0 -1
    outer loop
      vertex 42.1087 2.93056 0
      vertex 51.8087 7.53806 0
      vertex 41.9863 2.52723 0
    endloop
  endfacet
  facet normal 0 0 -1
    outer loop
      vertex 51.5381 7.80866 0
      vertex 42.15 8.86 0
      vertex 51.5096 7.90245 0
    endloop
  endfacet
  facet normal -0 0 -1
    outer loop
      vertex 51.5843 7.72221 0
      vertex 42.1087 3.76944 0
      vertex 51.5381 7.80866 0
    endloop
  endfacet
  facet normal -0 0 -1
    outer loop
      vertex 51.6464 7.64645 0
      vertex 42.1087 3.76944 0
      vertex 51.5843 7.72221 0
    endloop
  endfacet
  facet normal 0 0 -1
    outer loop
      vertex 42.1087 3.76944 0
      vertex 51.6464 7.64645 0
      vertex 42.15 3.35 0
    endloop
  endfacet
  facet normal -0 0 -1
    outer loop
      vertex 51.8087 7.53806 0
      vertex 42.1087 2.93056 0
      vertex 51.7222 7.58426 0
    endloop
  endfacet
  facet normal -0 0 -1
    outer loop
      vertex 51.7222 7.58426 0
      vertex 42.15 3.35 0
      vertex 51.6464 7.64645 0
    endloop
  endfacet
  facet normal 0 -0 -1
    outer loop
      vertex 42.15 3.35 0
      vertex 51.7222 7.58426 0
      vertex 42.1087 2.93056 0
    endloop
  endfacet
  facet normal 0 0 -1
    outer loop
      vertex 60 0 0
      vertex 41.7877 2.15552 0
      vertex 41.9863 2.52723 0
    endloop
  endfacet
  facet normal 0 0 -1
    outer loop
      vertex 60 0 0
      vertex 41.5203 1.82972 0
      vertex 41.7877 2.15552 0
    endloop
  endfacet
  facet normal 0 0 -1
    outer loop
      vertex 60 0 0
      vertex 41.1945 1.56234 0
      vertex 41.5203 1.82972 0
    endloop
  endfacet
  facet normal 0 0 -1
    outer loop
      vertex 60 0 0
      vertex 40.8228 1.36366 0
      vertex 41.1945 1.56234 0
    endloop
  endfacet
  facet normal 0 0 -1
    outer loop
      vertex 60 0 0
      vertex 40.4194 1.24131 0
      vertex 40.8228 1.36366 0
    endloop
  endfacet
  facet normal 0 0 -1
    outer loop
      vertex 60 0 0
      vertex 40 1.2 0
      vertex 40.4194 1.24131 0
    endloop
  endfacet
  facet normal 0 0 -1
    outer loop
      vertex 60 0 0
      vertex -40 1.2 0
      vertex 40 1.2 0
    endloop
  endfacet
  facet normal -0 0 -1
    outer loop
      vertex -41.9863 8.03723 0
      vertex -51.5096 7.90245 0
      vertex -42.1087 8.44056 0
    endloop
  endfacet
  facet normal 0 0 -1
    outer loop
      vertex -51.7222 7.58426 0
      vertex -42.15 3.35 0
      vertex -42.1087 2.93056 0
    endloop
  endfacet
  facet normal 0 0 -1
    outer loop
      vertex -51.8087 7.53806 0
      vertex -42.1087 2.93056 0
      vertex -41.9863 2.52723 0
    endloop
  endfacet
  facet normal 0 0 -1
    outer loop
      vertex -60 0 0
      vertex -41.9863 2.52723 0
      vertex -41.7877 2.15552 0
    endloop
  endfacet
  facet normal 0 0 -1
    outer loop
      vertex -60 0 0
      vertex -41.7877 2.15552 0
      vertex -41.5203 1.82972 0
    endloop
  endfacet
  facet normal 0 0 -1
    outer loop
      vertex -60 0 0
      vertex -41.5203 1.82972 0
      vertex -41.1945 1.56234 0
    endloop
  endfacet
  facet normal -0 0 -1
    outer loop
      vertex -42.1087 8.44056 0
      vertex -51.5 8 0
      vertex -42.15 8.86 0
    endloop
  endfacet
  facet normal 0 -0 -1
    outer loop
      vertex -51.5 8 0
      vertex -42.1087 8.44056 0
      vertex -51.5096 7.90245 0
    endloop
  endfacet
  facet normal 0 0 -1
    outer loop
      vertex -42.1087 3.76944 0
      vertex -51.5843 7.72221 0
      vertex -51.5381 7.80866 0
    endloop
  endfacet
  facet normal 0 0 -1
    outer loop
      vertex -42.1087 3.76944 0
      vertex -51.6464 7.64645 0
      vertex -51.5843 7.72221 0
    endloop
  endfacet
  facet normal 0 0 -1
    outer loop
      vertex -42.15 3.35 0
      vertex -51.7222 7.58426 0
      vertex -51.6464 7.64645 0
    endloop
  endfacet
  facet normal 0 0 -1
    outer loop
      vertex -42.1087 2.93056 0
      vertex -51.8087 7.53806 0
      vertex -51.7222 7.58426 0
    endloop
  endfacet
  facet normal 0 0 -1
    outer loop
      vertex -41.9863 2.52723 0
      vertex -51.9025 7.50961 0
      vertex -51.8087 7.53806 0
    endloop
  endfacet
  facet normal -0 0 -1
    outer loop
      vertex -41.9863 2.52723 0
      vertex -60 0 0
      vertex -51.9025 7.50961 0
    endloop
  endfacet
  facet normal 0 0 -1
    outer loop
      vertex -51.9025 7.50961 0
      vertex -60 0 0
      vertex -52 7.5 0
    endloop
  endfacet
  facet normal -0 0 -1
    outer loop
      vertex -52 7.5 0
      vertex -60 0 0
      vertex -52.0975 7.50961 0
    endloop
  endfacet
  facet normal -0 0 -1
    outer loop
      vertex -52.0975 7.50961 0
      vertex -60 0 0
      vertex -52.1913 7.53806 0
    endloop
  endfacet
  facet normal -0 0 -1
    outer loop
      vertex -52.4904 7.90245 0
      vertex -60 0 0
      vertex -52.5 8 0
    endloop
  endfacet
  facet normal -0 0 -1
    outer loop
      vertex -52.4619 7.80866 0
      vertex -60 0 0
      vertex -52.4904 7.90245 0
    endloop
  endfacet
  facet normal -0 0 -1
    outer loop
      vertex -52.4157 7.72221 0
      vertex -60 0 0
      vertex -52.4619 7.80866 0
    endloop
  endfacet
  facet normal -0 0 -1
    outer loop
      vertex -52.3536 7.64645 0
      vertex -60 0 0
      vertex -52.4157 7.72221 0
    endloop
  endfacet
  facet normal -0 0 -1
    outer loop
      vertex -52.2778 7.58426 0
      vertex -60 0 0
      vertex -52.3536 7.64645 0
    endloop
  endfacet
  facet normal -0 0 -1
    outer loop
      vertex -52.1913 7.53806 0
      vertex -60 0 0
      vertex -52.2778 7.58426 0
    endloop
  endfacet
  facet normal -0 0 -1
    outer loop
      vertex -40.8228 1.36366 0
      vertex -60 0 0
      vertex -41.1945 1.56234 0
    endloop
  endfacet
  facet normal -0 0 -1
    outer loop
      vertex -40.4194 1.24131 0
      vertex -60 0 0
      vertex -40.8228 1.36366 0
    endloop
  endfacet
  facet normal -0 0 -1
    outer loop
      vertex -40 1.2 0
      vertex -60 0 0
      vertex -40.4194 1.24131 0
    endloop
  endfacet
  facet normal 0 0 -1
    outer loop
      vertex -60 0 0
      vertex -40 1.2 0
      vertex 60 0 0
    endloop
  endfacet
  facet normal 0 0 -1
    outer loop
      vertex 60 0 0
      vertex 52.4904 8.09754 0
      vertex 60 20 0
    endloop
  endfacet
  facet normal 0 0 -1
    outer loop
      vertex 52.4619 8.19134 0
      vertex 60 20 0
      vertex 52.4904 8.09754 0
    endloop
  endfacet
  facet normal 0 0 -1
    outer loop
      vertex 52.4157 8.27778 0
      vertex 60 20 0
      vertex 52.4619 8.19134 0
    endloop
  endfacet
  facet normal 0 0 -1
    outer loop
      vertex 52.3536 8.35355 0
      vertex 60 20 0
      vertex 52.4157 8.27778 0
    endloop
  endfacet
  facet normal 0 0 -1
    outer loop
      vertex 52.2778 8.41573 0
      vertex 60 20 0
      vertex 52.3536 8.35355 0
    endloop
  endfacet
  facet normal 0 0 -1
    outer loop
      vertex 52.1913 8.46194 0
      vertex 60 20 0
      vertex 52.2778 8.41573 0
    endloop
  endfacet
  facet normal 0 0 -1
    outer loop
      vertex 52.0975 8.49039 0
      vertex 60 20 0
      vertex 52.1913 8.46194 0
    endloop
  endfacet
  facet normal 0 0 -1
    outer loop
      vertex 52 8.5 0
      vertex 60 20 0
      vertex 52.0975 8.49039 0
    endloop
  endfacet
  facet normal 0 0 -1
    outer loop
      vertex 51.9025 8.49039 0
      vertex 60 20 0
      vertex 52 8.5 0
    endloop
  endfacet
  facet normal 0 0 -1
    outer loop
      vertex 51.8087 8.46194 0
      vertex 60 20 0
      vertex 51.9025 8.49039 0
    endloop
  endfacet
  facet normal 0 0 -1
    outer loop
      vertex 41.5203 10.3803 0
      vertex 51.8087 8.46194 0
      vertex 51.7222 8.41573 0
    endloop
  endfacet
  facet normal 0 0 -1
    outer loop
      vertex 41.7877 10.0545 0
      vertex 51.7222 8.41573 0
      vertex 51.6464 8.35355 0
    endloop
  endfacet
  facet normal 0 0 -1
    outer loop
      vertex 41.9863 9.68277 0
      vertex 51.6464 8.35355 0
      vertex 51.5843 8.27778 0
    endloop
  endfacet
  facet normal 0 0 -1
    outer loop
      vertex 51.5096 7.90245 0
      vertex 42.15 8.86 0
      vertex 51.5 8 0
    endloop
  endfacet
  facet normal 0 0 -1
    outer loop
      vertex 51.5 8 0
      vertex 42.15 8.86 0
      vertex 51.5096 8.09754 0
    endloop
  endfacet
  facet normal 0 0 -1
    outer loop
      vertex 51.5096 8.09754 0
      vertex 42.15 8.86 0
      vertex 51.5381 8.19134 0
    endloop
  endfacet
  facet normal 0 0 -1
    outer loop
      vertex 42.1087 9.27944 0
      vertex 51.5381 8.19134 0
      vertex 42.15 8.86 0
    endloop
  endfacet
  facet normal 0 0 -1
    outer loop
      vertex 51.5381 8.19134 0
      vertex 42.1087 9.27944 0
      vertex 51.5843 8.27778 0
    endloop
  endfacet
  facet normal 0 0 -1
    outer loop
      vertex 41.9863 9.68277 0
      vertex 51.5843 8.27778 0
      vertex 42.1087 9.27944 0
    endloop
  endfacet
  facet normal 0 0 -1
    outer loop
      vertex 51.6464 8.35355 0
      vertex 41.9863 9.68277 0
      vertex 41.7877 10.0545 0
    endloop
  endfacet
  facet normal 0 0 -1
    outer loop
      vertex 51.7222 8.41573 0
      vertex 41.7877 10.0545 0
      vertex 41.5203 10.3803 0
    endloop
  endfacet
  facet normal 0 0 -1
    outer loop
      vertex 41.1945 10.6477 0
      vertex 51.8087 8.46194 0
      vertex 41.5203 10.3803 0
    endloop
  endfacet
  facet normal 0 0 -1
    outer loop
      vertex 51.8087 8.46194 0
      vertex 41.1945 10.6477 0
      vertex 60 20 0
    endloop
  endfacet
  facet normal 0 0 -1
    outer loop
      vertex 40.8228 10.8463 0
      vertex 60 20 0
      vertex 41.1945 10.6477 0
    endloop
  endfacet
  facet normal 0 0 -1
    outer loop
      vertex 40.4194 10.9687 0
      vertex 60 20 0
      vertex 40.8228 10.8463 0
    endloop
  endfacet
  facet normal 0 0 -1
    outer loop
      vertex 40 11.01 0
      vertex 60 20 0
      vertex 40.4194 10.9687 0
    endloop
  endfacet
  facet normal 0 0 -1
    outer loop
      vertex -40 11.01 0
      vertex 60 20 0
      vertex 40 11.01 0
    endloop
  endfacet
  facet normal 0 0 -1
    outer loop
      vertex -51.5096 8.09754 0
      vertex -42.15 8.86 0
      vertex -51.5 8 0
    endloop
  endfacet
  facet normal -0 0 -1
    outer loop
      vertex -42.15 8.86 0
      vertex -51.5096 8.09754 0
      vertex -42.1087 9.27944 0
    endloop
  endfacet
  facet normal 0 0 -1
    outer loop
      vertex -51.5381 8.19134 0
      vertex -42.1087 9.27944 0
      vertex -51.5096 8.09754 0
    endloop
  endfacet
  facet normal 0 0 -1
    outer loop
      vertex -51.5843 8.27778 0
      vertex -42.1087 9.27944 0
      vertex -51.5381 8.19134 0
    endloop
  endfacet
  facet normal -0 0 -1
    outer loop
      vertex -42.1087 9.27944 0
      vertex -51.5843 8.27778 0
      vertex -41.9863 9.68277 0
    endloop
  endfacet
  facet normal 0 0 -1
    outer loop
      vertex -51.6464 8.35355 0
      vertex -41.9863 9.68277 0
      vertex -51.5843 8.27778 0
    endloop
  endfacet
  facet normal -0 0 -1
    outer loop
      vertex -41.9863 9.68277 0
      vertex -51.6464 8.35355 0
      vertex -41.7877 10.0545 0
    endloop
  endfacet
  facet normal 0 0 -1
    outer loop
      vertex -51.7222 8.41573 0
      vertex -41.7877 10.0545 0
      vertex -51.6464 8.35355 0
    endloop
  endfacet
  facet normal -0 0 -1
    outer loop
      vertex -41.7877 10.0545 0
      vertex -51.7222 8.41573 0
      vertex -41.5203 10.3803 0
    endloop
  endfacet
  facet normal 0 0 -1
    outer loop
      vertex -51.8087 8.46194 0
      vertex -41.5203 10.3803 0
      vertex -51.7222 8.41573 0
    endloop
  endfacet
  facet normal -0 0 -1
    outer loop
      vertex -41.5203 10.3803 0
      vertex -51.8087 8.46194 0
      vertex -41.1945 10.6477 0
    endloop
  endfacet
  facet normal 0 0 -1
    outer loop
      vertex -60 20 0
      vertex -41.1945 10.6477 0
      vertex -51.8087 8.46194 0
    endloop
  endfacet
  facet normal 0 0 -1
    outer loop
      vertex -41.1945 10.6477 0
      vertex -60 20 0
      vertex -40.8228 10.8463 0
    endloop
  endfacet
  facet normal 0 0 -1
    outer loop
      vertex -60 20 0
      vertex -51.8087 8.46194 0
      vertex -51.9025 8.49039 0
    endloop
  endfacet
  facet normal 0 0 -1
    outer loop
      vertex -60 20 0
      vertex -51.9025 8.49039 0
      vertex -52 8.5 0
    endloop
  endfacet
  facet normal 0 0 -1
    outer loop
      vertex -60 20 0
      vertex -52 8.5 0
      vertex -52.0975 8.49039 0
    endloop
  endfacet
  facet normal 0 0 -1
    outer loop
      vertex -60 0 0
      vertex -52.4904 8.09754 0
      vertex -52.5 8 0
    endloop
  endfacet
  facet normal 0 0 -1
    outer loop
      vertex -60 20 0
      vertex -52.4904 8.09754 0
      vertex -60 0 0
    endloop
  endfacet
  facet normal 0 0 -1
    outer loop
      vertex -52.4904 8.09754 0
      vertex -60 20 0
      vertex -52.4619 8.19134 0
    endloop
  endfacet
  facet normal 0 0 -1
    outer loop
      vertex -52.4619 8.19134 0
      vertex -60 20 0
      vertex -52.4157 8.27778 0
    endloop
  endfacet
  facet normal 0 0 -1
    outer loop
      vertex -40 11.01 0
      vertex -60 20 0
      vertex 60 20 0
    endloop
  endfacet
  facet normal 0 0 -1
    outer loop
      vertex -40.4194 10.9687 0
      vertex -60 20 0
      vertex -40 11.01 0
    endloop
  endfacet
  facet normal 0 0 -1
    outer loop
      vertex -40.8228 10.8463 0
      vertex -60 20 0
      vertex -40.4194 10.9687 0
    endloop
  endfacet
  facet normal 0 0 -1
    outer loop
      vertex -52.1913 8.46194 0
      vertex -60 20 0
      vertex -52.0975 8.49039 0
    endloop
  endfacet
  facet normal 0 0 -1
    outer loop
      vertex -52.2778 8.41573 0
      vertex -60 20 0
      vertex -52.1913 8.46194 0
    endloop
  endfacet
  facet normal 0 0 -1
    outer loop
      vertex -52.3536 8.35355 0
      vertex -60 20 0
      vertex -52.2778 8.41573 0
    endloop
  endfacet
  facet normal 0 0 -1
    outer loop
      vertex -52.4157 8.27778 0
      vertex -60 20 0
      vertex -52.3536 8.35355 0
    endloop
  endfacet
  facet normal -1 0 0
    outer loop
      vertex -60 0 0
      vertex -60 20 1.2
      vertex -60 20 0
    endloop
  endfacet
  facet normal -1 -0 0
    outer loop
      vertex -60 20 1.2
      vertex -60 0 0
      vertex -60 0 1.2
    endloop
  endfacet
  facet normal 0 1 -0
    outer loop
      vertex 60 20 0
      vertex -60 20 1.2
      vertex 60 20 1.2
    endloop
  endfacet
  facet normal 0 1 0
    outer loop
      vertex -60 20 1.2
      vertex 60 20 0
      vertex -60 20 0
    endloop
  endfacet
  facet normal -0.471197 -0.882028 0
    outer loop
      vertex -51.8087 8.46194 0
      vertex -51.7222 8.41573 1.2
      vertex -51.8087 8.46194 1.2
    endloop
  endfacet
  facet normal -0.471197 -0.882028 -0
    outer loop
      vertex -51.7222 8.41573 1.2
      vertex -51.8087 8.46194 0
      vertex -51.7222 8.41573 0
    endloop
  endfacet
  facet normal -0.634226 -0.773148 0
    outer loop
      vertex -51.7222 8.41573 0
      vertex -51.6464 8.35355 1.2
      vertex -51.7222 8.41573 1.2
    endloop
  endfacet
  facet normal -0.634226 -0.773148 -0
    outer loop
      vertex -51.6464 8.35355 1.2
      vertex -51.7222 8.41573 0
      vertex -51.6464 8.35355 0
    endloop
  endfacet
  facet normal -0.995193 0.097938 0
    outer loop
      vertex -51.5096 7.90245 0
      vertex -51.5 8 1.2
      vertex -51.5 8 0
    endloop
  endfacet
  facet normal -0.995193 0.097938 0
    outer loop
      vertex -51.5 8 1.2
      vertex -51.5096 7.90245 0
      vertex -51.5096 7.90245 1.2
    endloop
  endfacet
  facet normal -0.773384 0.633938 0
    outer loop
      vertex -51.6464 7.64645 0
      vertex -51.5843 7.72221 1.2
      vertex -51.5843 7.72221 0
    endloop
  endfacet
  facet normal -0.773384 0.633938 0
    outer loop
      vertex -51.5843 7.72221 1.2
      vertex -51.6464 7.64645 0
      vertex -51.6464 7.64645 1.2
    endloop
  endfacet
  facet normal -0.881935 -0.471372 0
    outer loop
      vertex -51.5381 8.19134 0
      vertex -51.5843 8.27778 1.2
      vertex -51.5843 8.27778 0
    endloop
  endfacet
  facet normal -0.881935 -0.471372 0
    outer loop
      vertex -51.5843 8.27778 1.2
      vertex -51.5381 8.19134 0
      vertex -51.5381 8.19134 1.2
    endloop
  endfacet
  facet normal -0.634287 0.773098 0
    outer loop
      vertex -51.6464 7.64645 0
      vertex -51.7222 7.58426 1.2
      vertex -51.6464 7.64645 1.2
    endloop
  endfacet
  facet normal -0.634287 0.773098 0
    outer loop
      vertex -51.7222 7.58426 1.2
      vertex -51.6464 7.64645 0
      vertex -51.7222 7.58426 0
    endloop
  endfacet
  facet normal -0.773425 -0.633888 0
    outer loop
      vertex -51.5843 8.27778 0
      vertex -51.6464 8.35355 1.2
      vertex -51.6464 8.35355 0
    endloop
  endfacet
  facet normal -0.773425 -0.633888 0
    outer loop
      vertex -51.6464 8.35355 1.2
      vertex -51.5843 8.27778 0
      vertex -51.5843 8.27778 1.2
    endloop
  endfacet
  facet normal -0.995192 -0.0979479 0
    outer loop
      vertex -51.5 8 0
      vertex -51.5096 8.09754 1.2
      vertex -51.5096 8.09754 0
    endloop
  endfacet
  facet normal -0.995192 -0.0979479 0
    outer loop
      vertex -51.5096 8.09754 1.2
      vertex -51.5 8 0
      vertex -51.5 8 1.2
    endloop
  endfacet
  facet normal 0.995193 0.097938 0
    outer loop
      vertex -52.4904 7.90245 1.2
      vertex -52.5 8 0
      vertex -52.5 8 1.2
    endloop
  endfacet
  facet normal 0.995193 0.097938 0
    outer loop
      vertex -52.5 8 0
      vertex -52.4904 7.90245 1.2
      vertex -52.4904 7.90245 0
    endloop
  endfacet
  facet normal 0.471197 -0.882028 0
    outer loop
      vertex -52.2778 8.41573 0
      vertex -52.1913 8.46194 1.2
      vertex -52.2778 8.41573 1.2
    endloop
  endfacet
  facet normal 0.471197 -0.882028 0
    outer loop
      vertex -52.1913 8.46194 1.2
      vertex -52.2778 8.41573 0
      vertex -52.1913 8.46194 0
    endloop
  endfacet
  facet normal 0.290248 0.956951 -0
    outer loop
      vertex -52.0975 7.50961 0
      vertex -52.1913 7.53806 1.2
      vertex -52.0975 7.50961 1.2
    endloop
  endfacet
  facet normal 0.290248 0.956951 0
    outer loop
      vertex -52.1913 7.53806 1.2
      vertex -52.0975 7.50961 0
      vertex -52.1913 7.53806 0
    endloop
  endfacet
  facet normal -0.95681 -0.290715 0
    outer loop
      vertex -51.5096 8.09754 0
      vertex -51.5381 8.19134 1.2
      vertex -51.5381 8.19134 0
    endloop
  endfacet
  facet normal -0.95681 -0.290715 0
    outer loop
      vertex -51.5381 8.19134 1.2
      vertex -51.5096 8.09754 0
      vertex -51.5096 8.09754 1.2
    endloop
  endfacet
  facet normal 0.0980888 -0.995178 0
    outer loop
      vertex -52.0975 8.49039 0
      vertex -52 8.5 1.2
      vertex -52.0975 8.49039 1.2
    endloop
  endfacet
  facet normal 0.0980888 -0.995178 0
    outer loop
      vertex -52 8.5 1.2
      vertex -52.0975 8.49039 0
      vertex -52 8.5 0
    endloop
  endfacet
  facet normal 0.290248 -0.956951 0
    outer loop
      vertex -52.1913 8.46194 0
      vertex -52.0975 8.49039 1.2
      vertex -52.1913 8.46194 1.2
    endloop
  endfacet
  facet normal 0.290248 -0.956951 0
    outer loop
      vertex -52.0975 8.49039 1.2
      vertex -52.1913 8.46194 0
      vertex -52.0975 8.49039 0
    endloop
  endfacet
  facet normal 0.995192 -0.0979479 0
    outer loop
      vertex -52.5 8 1.2
      vertex -52.4904 8.09754 0
      vertex -52.4904 8.09754 1.2
    endloop
  endfacet
  facet normal 0.995192 -0.0979479 0
    outer loop
      vertex -52.4904 8.09754 0
      vertex -52.5 8 1.2
      vertex -52.5 8 0
    endloop
  endfacet
  facet normal -0.471117 0.882071 0
    outer loop
      vertex -51.7222 7.58426 0
      vertex -51.8087 7.53806 1.2
      vertex -51.7222 7.58426 1.2
    endloop
  endfacet
  facet normal -0.471117 0.882071 0
    outer loop
      vertex -51.8087 7.53806 1.2
      vertex -51.7222 7.58426 0
      vertex -51.8087 7.53806 0
    endloop
  endfacet
  facet normal 0.634287 0.773098 -0
    outer loop
      vertex -52.2778 7.58426 0
      vertex -52.3536 7.64645 1.2
      vertex -52.2778 7.58426 1.2
    endloop
  endfacet
  facet normal 0.634287 0.773098 0
    outer loop
      vertex -52.3536 7.64645 1.2
      vertex -52.2778 7.58426 0
      vertex -52.3536 7.64645 0
    endloop
  endfacet
  facet normal -0.290248 -0.956951 0
    outer loop
      vertex -51.9025 8.49039 0
      vertex -51.8087 8.46194 1.2
      vertex -51.9025 8.49039 1.2
    endloop
  endfacet
  facet normal -0.290248 -0.956951 -0
    outer loop
      vertex -51.8087 8.46194 1.2
      vertex -51.9025 8.49039 0
      vertex -51.8087 8.46194 0
    endloop
  endfacet
  facet normal -0.290248 0.956951 0
    outer loop
      vertex -51.8087 7.53806 0
      vertex -51.9025 7.50961 1.2
      vertex -51.8087 7.53806 1.2
    endloop
  endfacet
  facet normal -0.290248 0.956951 0
    outer loop
      vertex -51.9025 7.50961 1.2
      vertex -51.8087 7.53806 0
      vertex -51.9025 7.50961 0
    endloop
  endfacet
  facet normal 0.773425 -0.633888 0
    outer loop
      vertex -52.4157 8.27778 1.2
      vertex -52.3536 8.35355 0
      vertex -52.3536 8.35355 1.2
    endloop
  endfacet
  facet normal 0.773425 -0.633888 0
    outer loop
      vertex -52.3536 8.35355 0
      vertex -52.4157 8.27778 1.2
      vertex -52.4157 8.27778 0
    endloop
  endfacet
  facet normal -0.881957 0.471329 0
    outer loop
      vertex -51.5843 7.72221 0
      vertex -51.5381 7.80866 1.2
      vertex -51.5381 7.80866 0
    endloop
  endfacet
  facet normal -0.881957 0.471329 0
    outer loop
      vertex -51.5381 7.80866 1.2
      vertex -51.5843 7.72221 0
      vertex -51.5843 7.72221 1.2
    endloop
  endfacet
  facet normal 0.634226 -0.773148 0
    outer loop
      vertex -52.3536 8.35355 0
      vertex -52.2778 8.41573 1.2
      vertex -52.3536 8.35355 1.2
    endloop
  endfacet
  facet normal 0.634226 -0.773148 0
    outer loop
      vertex -52.2778 8.41573 1.2
      vertex -52.3536 8.35355 0
      vertex -52.2778 8.41573 0
    endloop
  endfacet
  facet normal -0.956801 0.290743 0
    outer loop
      vertex -51.5381 7.80866 0
      vertex -51.5096 7.90245 1.2
      vertex -51.5096 7.90245 0
    endloop
  endfacet
  facet normal -0.956801 0.290743 0
    outer loop
      vertex -51.5096 7.90245 1.2
      vertex -51.5381 7.80866 0
      vertex -51.5381 7.80866 1.2
    endloop
  endfacet
  facet normal 0.471117 0.882071 -0
    outer loop
      vertex -52.1913 7.53806 0
      vertex -52.2778 7.58426 1.2
      vertex -52.1913 7.53806 1.2
    endloop
  endfacet
  facet normal 0.471117 0.882071 0
    outer loop
      vertex -52.2778 7.58426 1.2
      vertex -52.1913 7.53806 0
      vertex -52.2778 7.58426 0
    endloop
  endfacet
  facet normal 0.0980888 0.995178 -0
    outer loop
      vertex -52 7.5 0
      vertex -52.0975 7.50961 1.2
      vertex -52 7.5 1.2
    endloop
  endfacet
  facet normal 0.0980888 0.995178 0
    outer loop
      vertex -52.0975 7.50961 1.2
      vertex -52 7.5 0
      vertex -52.0975 7.50961 0
    endloop
  endfacet
  facet normal 0.95681 -0.290715 0
    outer loop
      vertex -52.4904 8.09754 1.2
      vertex -52.4619 8.19134 0
      vertex -52.4619 8.19134 1.2
    endloop
  endfacet
  facet normal 0.95681 -0.290715 0
    outer loop
      vertex -52.4619 8.19134 0
      vertex -52.4904 8.09754 1.2
      vertex -52.4904 8.09754 0
    endloop
  endfacet
  facet normal 0.773384 0.633938 0
    outer loop
      vertex -52.3536 7.64645 1.2
      vertex -52.4157 7.72221 0
      vertex -52.4157 7.72221 1.2
    endloop
  endfacet
  facet normal 0.773384 0.633938 0
    outer loop
      vertex -52.4157 7.72221 0
      vertex -52.3536 7.64645 1.2
      vertex -52.3536 7.64645 0
    endloop
  endfacet
  facet normal 0.881957 0.471329 0
    outer loop
      vertex -52.4157 7.72221 1.2
      vertex -52.4619 7.80866 0
      vertex -52.4619 7.80866 1.2
    endloop
  endfacet
  facet normal 0.881957 0.471329 0
    outer loop
      vertex -52.4619 7.80866 0
      vertex -52.4157 7.72221 1.2
      vertex -52.4157 7.72221 0
    endloop
  endfacet
  facet normal -0.0980888 0.995178 0
    outer loop
      vertex -51.9025 7.50961 0
      vertex -52 7.5 1.2
      vertex -51.9025 7.50961 1.2
    endloop
  endfacet
  facet normal -0.0980888 0.995178 0
    outer loop
      vertex -52 7.5 1.2
      vertex -51.9025 7.50961 0
      vertex -52 7.5 0
    endloop
  endfacet
  facet normal 0.956801 0.290743 0
    outer loop
      vertex -52.4619 7.80866 1.2
      vertex -52.4904 7.90245 0
      vertex -52.4904 7.90245 1.2
    endloop
  endfacet
  facet normal 0.956801 0.290743 0
    outer loop
      vertex -52.4904 7.90245 0
      vertex -52.4619 7.80866 1.2
      vertex -52.4619 7.80866 0
    endloop
  endfacet
  facet normal -0.0980888 -0.995178 0
    outer loop
      vertex -52 8.5 0
      vertex -51.9025 8.49039 1.2
      vertex -52 8.5 1.2
    endloop
  endfacet
  facet normal -0.0980888 -0.995178 -0
    outer loop
      vertex -51.9025 8.49039 1.2
      vertex -52 8.5 0
      vertex -51.9025 8.49039 0
    endloop
  endfacet
  facet normal 0.881935 -0.471372 0
    outer loop
      vertex -52.4619 8.19134 1.2
      vertex -52.4157 8.27778 0
      vertex -52.4157 8.27778 1.2
    endloop
  endfacet
  facet normal 0.881935 -0.471372 0
    outer loop
      vertex -52.4157 8.27778 0
      vertex -52.4619 8.19134 1.2
      vertex -52.4619 8.19134 0
    endloop
  endfacet
  facet normal -0.290248 0.956951 0
    outer loop
      vertex 52.1913 7.53806 0
      vertex 52.0975 7.50961 1.2
      vertex 52.1913 7.53806 1.2
    endloop
  endfacet
  facet normal -0.290248 0.956951 0
    outer loop
      vertex 52.0975 7.50961 1.2
      vertex 52.1913 7.53806 0
      vertex 52.0975 7.50961 0
    endloop
  endfacet
  facet normal -0.95681 -0.290715 0
    outer loop
      vertex 52.4904 8.09754 0
      vertex 52.4619 8.19134 1.2
      vertex 52.4619 8.19134 0
    endloop
  endfacet
  facet normal -0.95681 -0.290715 0
    outer loop
      vertex 52.4619 8.19134 1.2
      vertex 52.4904 8.09754 0
      vertex 52.4904 8.09754 1.2
    endloop
  endfacet
  facet normal -0.995192 -0.0979479 0
    outer loop
      vertex 52.5 8 0
      vertex 52.4904 8.09754 1.2
      vertex 52.4904 8.09754 0
    endloop
  endfacet
  facet normal -0.995192 -0.0979479 0
    outer loop
      vertex 52.4904 8.09754 1.2
      vertex 52.5 8 0
      vertex 52.5 8 1.2
    endloop
  endfacet
  facet normal -0.881935 -0.471372 0
    outer loop
      vertex 52.4619 8.19134 0
      vertex 52.4157 8.27778 1.2
      vertex 52.4157 8.27778 0
    endloop
  endfacet
  facet normal -0.881935 -0.471372 0
    outer loop
      vertex 52.4157 8.27778 1.2
      vertex 52.4619 8.19134 0
      vertex 52.4619 8.19134 1.2
    endloop
  endfacet
  facet normal 0.881957 0.471329 0
    outer loop
      vertex 51.5843 7.72221 1.2
      vertex 51.5381 7.80866 0
      vertex 51.5381 7.80866 1.2
    endloop
  endfacet
  facet normal 0.881957 0.471329 0
    outer loop
      vertex 51.5381 7.80866 0
      vertex 51.5843 7.72221 1.2
      vertex 51.5843 7.72221 0
    endloop
  endfacet
  facet normal -0.290248 -0.956951 0
    outer loop
      vertex 52.0975 8.49039 0
      vertex 52.1913 8.46194 1.2
      vertex 52.0975 8.49039 1.2
    endloop
  endfacet
  facet normal -0.290248 -0.956951 -0
    outer loop
      vertex 52.1913 8.46194 1.2
      vertex 52.0975 8.49039 0
      vertex 52.1913 8.46194 0
    endloop
  endfacet
  facet normal 0.0980888 -0.995178 0
    outer loop
      vertex 51.9025 8.49039 0
      vertex 52 8.5 1.2
      vertex 51.9025 8.49039 1.2
    endloop
  endfacet
  facet normal 0.0980888 -0.995178 0
    outer loop
      vertex 52 8.5 1.2
      vertex 51.9025 8.49039 0
      vertex 52 8.5 0
    endloop
  endfacet
  facet normal 0.471117 0.882071 -0
    outer loop
      vertex 51.8087 7.53806 0
      vertex 51.7222 7.58426 1.2
      vertex 51.8087 7.53806 1.2
    endloop
  endfacet
  facet normal 0.471117 0.882071 0
    outer loop
      vertex 51.7222 7.58426 1.2
      vertex 51.8087 7.53806 0
      vertex 51.7222 7.58426 0
    endloop
  endfacet
  facet normal 0.471197 -0.882028 0
    outer loop
      vertex 51.7222 8.41573 0
      vertex 51.8087 8.46194 1.2
      vertex 51.7222 8.41573 1.2
    endloop
  endfacet
  facet normal 0.471197 -0.882028 0
    outer loop
      vertex 51.8087 8.46194 1.2
      vertex 51.7222 8.41573 0
      vertex 51.8087 8.46194 0
    endloop
  endfacet
  facet normal -0.471117 0.882071 0
    outer loop
      vertex 52.2778 7.58426 0
      vertex 52.1913 7.53806 1.2
      vertex 52.2778 7.58426 1.2
    endloop
  endfacet
  facet normal -0.471117 0.882071 0
    outer loop
      vertex 52.1913 7.53806 1.2
      vertex 52.2778 7.58426 0
      vertex 52.1913 7.53806 0
    endloop
  endfacet
  facet normal 0.773425 -0.633888 0
    outer loop
      vertex 51.5843 8.27778 1.2
      vertex 51.6464 8.35355 0
      vertex 51.6464 8.35355 1.2
    endloop
  endfacet
  facet normal 0.773425 -0.633888 0
    outer loop
      vertex 51.6464 8.35355 0
      vertex 51.5843 8.27778 1.2
      vertex 51.5843 8.27778 0
    endloop
  endfacet
  facet normal -0.773425 -0.633888 0
    outer loop
      vertex 52.4157 8.27778 0
      vertex 52.3536 8.35355 1.2
      vertex 52.3536 8.35355 0
    endloop
  endfacet
  facet normal -0.773425 -0.633888 0
    outer loop
      vertex 52.3536 8.35355 1.2
      vertex 52.4157 8.27778 0
      vertex 52.4157 8.27778 1.2
    endloop
  endfacet
  facet normal -0.773384 0.633938 0
    outer loop
      vertex 52.3536 7.64645 0
      vertex 52.4157 7.72221 1.2
      vertex 52.4157 7.72221 0
    endloop
  endfacet
  facet normal -0.773384 0.633938 0
    outer loop
      vertex 52.4157 7.72221 1.2
      vertex 52.3536 7.64645 0
      vertex 52.3536 7.64645 1.2
    endloop
  endfacet
  facet normal 0.290248 -0.956951 0
    outer loop
      vertex 51.8087 8.46194 0
      vertex 51.9025 8.49039 1.2
      vertex 51.8087 8.46194 1.2
    endloop
  endfacet
  facet normal 0.290248 -0.956951 0
    outer loop
      vertex 51.9025 8.49039 1.2
      vertex 51.8087 8.46194 0
      vertex 51.9025 8.49039 0
    endloop
  endfacet
  facet normal -0.634287 0.773098 0
    outer loop
      vertex 52.3536 7.64645 0
      vertex 52.2778 7.58426 1.2
      vertex 52.3536 7.64645 1.2
    endloop
  endfacet
  facet normal -0.634287 0.773098 0
    outer loop
      vertex 52.2778 7.58426 1.2
      vertex 52.3536 7.64645 0
      vertex 52.2778 7.58426 0
    endloop
  endfacet
  facet normal -0.995193 0.097938 0
    outer loop
      vertex 52.4904 7.90245 0
      vertex 52.5 8 1.2
      vertex 52.5 8 0
    endloop
  endfacet
  facet normal -0.995193 0.097938 0
    outer loop
      vertex 52.5 8 1.2
      vertex 52.4904 7.90245 0
      vertex 52.4904 7.90245 1.2
    endloop
  endfacet
  facet normal 0.290248 0.956951 -0
    outer loop
      vertex 51.9025 7.50961 0
      vertex 51.8087 7.53806 1.2
      vertex 51.9025 7.50961 1.2
    endloop
  endfacet
  facet normal 0.290248 0.956951 0
    outer loop
      vertex 51.8087 7.53806 1.2
      vertex 51.9025 7.50961 0
      vertex 51.8087 7.53806 0
    endloop
  endfacet
  facet normal -0.956801 0.290743 0
    outer loop
      vertex 52.4619 7.80866 0
      vertex 52.4904 7.90245 1.2
      vertex 52.4904 7.90245 0
    endloop
  endfacet
  facet normal -0.956801 0.290743 0
    outer loop
      vertex 52.4904 7.90245 1.2
      vertex 52.4619 7.80866 0
      vertex 52.4619 7.80866 1.2
    endloop
  endfacet
  facet normal 0.956801 0.290743 0
    outer loop
      vertex 51.5381 7.80866 1.2
      vertex 51.5096 7.90245 0
      vertex 51.5096 7.90245 1.2
    endloop
  endfacet
  facet normal 0.956801 0.290743 0
    outer loop
      vertex 51.5096 7.90245 0
      vertex 51.5381 7.80866 1.2
      vertex 51.5381 7.80866 0
    endloop
  endfacet
  facet normal -0.881957 0.471329 0
    outer loop
      vertex 52.4157 7.72221 0
      vertex 52.4619 7.80866 1.2
      vertex 52.4619 7.80866 0
    endloop
  endfacet
  facet normal -0.881957 0.471329 0
    outer loop
      vertex 52.4619 7.80866 1.2
      vertex 52.4157 7.72221 0
      vertex 52.4157 7.72221 1.2
    endloop
  endfacet
  facet normal 0.995192 -0.0979479 0
    outer loop
      vertex 51.5 8 1.2
      vertex 51.5096 8.09754 0
      vertex 51.5096 8.09754 1.2
    endloop
  endfacet
  facet normal 0.995192 -0.0979479 0
    outer loop
      vertex 51.5096 8.09754 0
      vertex 51.5 8 1.2
      vertex 51.5 8 0
    endloop
  endfacet
  facet normal -0.0980888 -0.995178 0
    outer loop
      vertex 52 8.5 0
      vertex 52.0975 8.49039 1.2
      vertex 52 8.5 1.2
    endloop
  endfacet
  facet normal -0.0980888 -0.995178 -0
    outer loop
      vertex 52.0975 8.49039 1.2
      vertex 52 8.5 0
      vertex 52.0975 8.49039 0
    endloop
  endfacet
  facet normal 0.634226 -0.773148 0
    outer loop
      vertex 51.6464 8.35355 0
      vertex 51.7222 8.41573 1.2
      vertex 51.6464 8.35355 1.2
    endloop
  endfacet
  facet normal 0.634226 -0.773148 0
    outer loop
      vertex 51.7222 8.41573 1.2
      vertex 51.6464 8.35355 0
      vertex 51.7222 8.41573 0
    endloop
  endfacet
  facet normal -0.634226 -0.773148 0
    outer loop
      vertex 52.2778 8.41573 0
      vertex 52.3536 8.35355 1.2
      vertex 52.2778 8.41573 1.2
    endloop
  endfacet
  facet normal -0.634226 -0.773148 -0
    outer loop
      vertex 52.3536 8.35355 1.2
      vertex 52.2778 8.41573 0
      vertex 52.3536 8.35355 0
    endloop
  endfacet
  facet normal -0.0980888 0.995178 0
    outer loop
      vertex 52.0975 7.50961 0
      vertex 52 7.5 1.2
      vertex 52.0975 7.50961 1.2
    endloop
  endfacet
  facet normal -0.0980888 0.995178 0
    outer loop
      vertex 52 7.5 1.2
      vertex 52.0975 7.50961 0
      vertex 52 7.5 0
    endloop
  endfacet
  facet normal -0.471197 -0.882028 0
    outer loop
      vertex 52.1913 8.46194 0
      vertex 52.2778 8.41573 1.2
      vertex 52.1913 8.46194 1.2
    endloop
  endfacet
  facet normal -0.471197 -0.882028 -0
    outer loop
      vertex 52.2778 8.41573 1.2
      vertex 52.1913 8.46194 0
      vertex 52.2778 8.41573 0
    endloop
  endfacet
  facet normal 0.773384 0.633938 0
    outer loop
      vertex 51.6464 7.64645 1.2
      vertex 51.5843 7.72221 0
      vertex 51.5843 7.72221 1.2
    endloop
  endfacet
  facet normal 0.773384 0.633938 0
    outer loop
      vertex 51.5843 7.72221 0
      vertex 51.6464 7.64645 1.2
      vertex 51.6464 7.64645 0
    endloop
  endfacet
  facet normal 0.0980888 0.995178 -0
    outer loop
      vertex 52 7.5 0
      vertex 51.9025 7.50961 1.2
      vertex 52 7.5 1.2
    endloop
  endfacet
  facet normal 0.0980888 0.995178 0
    outer loop
      vertex 51.9025 7.50961 1.2
      vertex 52 7.5 0
      vertex 51.9025 7.50961 0
    endloop
  endfacet
  facet normal 0.634287 0.773098 -0
    outer loop
      vertex 51.7222 7.58426 0
      vertex 51.6464 7.64645 1.2
      vertex 51.7222 7.58426 1.2
    endloop
  endfacet
  facet normal 0.634287 0.773098 0
    outer loop
      vertex 51.6464 7.64645 1.2
      vertex 51.7222 7.58426 0
      vertex 51.6464 7.64645 0
    endloop
  endfacet
  facet normal 0.95681 -0.290715 0
    outer loop
      vertex 51.5096 8.09754 1.2
      vertex 51.5381 8.19134 0
      vertex 51.5381 8.19134 1.2
    endloop
  endfacet
  facet normal 0.95681 -0.290715 0
    outer loop
      vertex 51.5381 8.19134 0
      vertex 51.5096 8.09754 1.2
      vertex 51.5096 8.09754 0
    endloop
  endfacet
  facet normal 0.881935 -0.471372 0
    outer loop
      vertex 51.5381 8.19134 1.2
      vertex 51.5843 8.27778 0
      vertex 51.5843 8.27778 1.2
    endloop
  endfacet
  facet normal 0.881935 -0.471372 0
    outer loop
      vertex 51.5843 8.27778 0
      vertex 51.5381 8.19134 1.2
      vertex 51.5381 8.19134 0
    endloop
  endfacet
  facet normal 0.995193 0.097938 0
    outer loop
      vertex 51.5096 7.90245 1.2
      vertex 51.5 8 0
      vertex 51.5 8 1.2
    endloop
  endfacet
  facet normal 0.995193 0.097938 0
    outer loop
      vertex 51.5 8 0
      vertex 51.5096 7.90245 1.2
      vertex 51.5096 7.90245 0
    endloop
  endfacet
  facet normal 0 -1 0
    outer loop
      vertex -40 11.01 0
      vertex 40 11.01 1.2
      vertex -40 11.01 1.2
    endloop
  endfacet
  facet normal 0 -1 -0
    outer loop
      vertex 40 11.01 1.2
      vertex -40 11.01 0
      vertex 40 11.01 0
    endloop
  endfacet
  facet normal -0.995187 0.0979907 0
    outer loop
      vertex 42.1087 8.44056 0
      vertex 42.15 8.86 10.19
      vertex 42.15 8.86 0
    endloop
  endfacet
  facet normal -0.995187 0.0979907 0
    outer loop
      vertex 42.15 8.86 10.19
      vertex 42.1087 8.44056 0
      vertex 42.1087 8.44056 10.19
    endloop
  endfacet
  facet normal 0.956907 -0.290396 0
    outer loop
      vertex -42.1087 9.27944 10.19
      vertex -41.9863 9.68277 0
      vertex -41.9863 9.68277 10.19
    endloop
  endfacet
  facet normal 0.956907 -0.290396 0
    outer loop
      vertex -41.9863 9.68277 0
      vertex -42.1087 9.27944 10.19
      vertex -42.1087 9.27944 0
    endloop
  endfacet
  facet normal -0.772984 0.634426 0
    outer loop
      vertex 41.5203 7.33972 0
      vertex 41.7877 7.66552 10.19
      vertex 41.7877 7.66552 0
    endloop
  endfacet
  facet normal -0.772984 0.634426 0
    outer loop
      vertex 41.7877 7.66552 10.19
      vertex 41.5203 7.33972 0
      vertex 41.5203 7.33972 10.19
    endloop
  endfacet
  facet normal 0.290241 0.956954 -0
    outer loop
      vertex -40.4194 6.75131 0
      vertex -40.8228 6.87366 10.19
      vertex -40.4194 6.75131 10.19
    endloop
  endfacet
  facet normal 0.290241 0.956954 0
    outer loop
      vertex -40.8228 6.87366 10.19
      vertex -40.4194 6.75131 0
      vertex -40.8228 6.87366 0
    endloop
  endfacet
  facet normal 0 1 -0
    outer loop
      vertex 40 6.71 0
      vertex -40 6.71 10.19
      vertex 40 6.71 10.19
    endloop
  endfacet
  facet normal 0 1 0
    outer loop
      vertex -40 6.71 10.19
      vertex 40 6.71 0
      vertex -40 6.71 0
    endloop
  endfacet
  facet normal 0.29035 -0.956921 0
    outer loop
      vertex -40.8228 10.8463 0
      vertex -40.4194 10.9687 10.19
      vertex -40.8228 10.8463 10.19
    endloop
  endfacet
  facet normal 0.29035 -0.956921 0
    outer loop
      vertex -40.4194 10.9687 10.19
      vertex -40.8228 10.8463 0
      vertex -40.4194 10.9687 0
    endloop
  endfacet
  facet normal 0.995187 0.0979907 0
    outer loop
      vertex -42.1087 8.44056 10.19
      vertex -42.15 8.86 0
      vertex -42.15 8.86 10.19
    endloop
  endfacet
  facet normal 0.995187 0.0979907 0
    outer loop
      vertex -42.15 8.86 0
      vertex -42.1087 8.44056 10.19
      vertex -42.1087 8.44056 0
    endloop
  endfacet
  facet normal 0.995187 -0.0979907 0
    outer loop
      vertex -42.15 8.86 10.19
      vertex -42.1087 9.27944 0
      vertex -42.1087 9.27944 10.19
    endloop
  endfacet
  facet normal 0.995187 -0.0979907 0
    outer loop
      vertex -42.1087 9.27944 0
      vertex -42.15 8.86 10.19
      vertex -42.15 8.86 0
    endloop
  endfacet
  facet normal -0.471401 0.881919 0
    outer loop
      vertex 41.1945 7.07234 0
      vertex 40.8228 6.87366 10.19
      vertex 41.1945 7.07234 10.19
    endloop
  endfacet
  facet normal -0.471401 0.881919 0
    outer loop
      vertex 40.8228 6.87366 10.19
      vertex 41.1945 7.07234 0
      vertex 40.8228 6.87366 0
    endloop
  endfacet
  facet normal -0.0980235 0.995184 0
    outer loop
      vertex 40.4194 6.75131 0
      vertex 40 6.71 10.19
      vertex 40.4194 6.75131 10.19
    endloop
  endfacet
  facet normal -0.0980235 0.995184 0
    outer loop
      vertex 40 6.71 10.19
      vertex 40.4194 6.75131 0
      vertex 40 6.71 0
    endloop
  endfacet
  facet normal 0.882003 0.471243 0
    outer loop
      vertex -41.7877 7.66552 10.19
      vertex -41.9863 8.03723 0
      vertex -41.9863 8.03723 10.19
    endloop
  endfacet
  facet normal 0.882003 0.471243 0
    outer loop
      vertex -41.9863 8.03723 0
      vertex -41.7877 7.66552 10.19
      vertex -41.7877 7.66552 0
    endloop
  endfacet
  facet normal -0.290241 0.956954 0
    outer loop
      vertex 40.8228 6.87366 0
      vertex 40.4194 6.75131 10.19
      vertex 40.8228 6.87366 10.19
    endloop
  endfacet
  facet normal -0.290241 0.956954 0
    outer loop
      vertex 40.4194 6.75131 10.19
      vertex 40.8228 6.87366 0
      vertex 40.4194 6.75131 0
    endloop
  endfacet
  facet normal -0.0980475 -0.995182 -0
    outer loop
      vertex 40 11.01 1.2
      vertex 40 11.01 0
      vertex 40.1015 11 1.2
    endloop
  endfacet
  facet normal -0.0979848 -0.995188 0
    outer loop
      vertex 40.1015 11 1.2
      vertex 40.4194 10.9687 10.19
      vertex 40.1015 11 10.19
    endloop
  endfacet
  facet normal -0.0979848 -0.995188 0
    outer loop
      vertex 40.1015 11 1.2
      vertex 40.4194 10.9687 0
      vertex 40.4194 10.9687 10.19
    endloop
  endfacet
  facet normal -0.098 -0.995186 -4.05367e-06
    outer loop
      vertex 40.4194 10.9687 0
      vertex 40.1015 11 1.2
      vertex 40 11.01 0
    endloop
  endfacet
  facet normal 0.471401 0.881919 -0
    outer loop
      vertex -40.8228 6.87366 0
      vertex -41.1945 7.07234 10.19
      vertex -40.8228 6.87366 10.19
    endloop
  endfacet
  facet normal 0.471401 0.881919 0
    outer loop
      vertex -41.1945 7.07234 10.19
      vertex -40.8228 6.87366 0
      vertex -41.1945 7.07234 0
    endloop
  endfacet
  facet normal -0.29035 -0.956921 0
    outer loop
      vertex 40.4194 10.9687 0
      vertex 40.8228 10.8463 10.19
      vertex 40.4194 10.9687 10.19
    endloop
  endfacet
  facet normal -0.29035 -0.956921 -0
    outer loop
      vertex 40.8228 10.8463 10.19
      vertex 40.4194 10.9687 0
      vertex 40.8228 10.8463 0
    endloop
  endfacet
  facet normal 0.471253 -0.881998 0
    outer loop
      vertex -41.1945 10.6477 0
      vertex -40.8228 10.8463 10.19
      vertex -41.1945 10.6477 10.19
    endloop
  endfacet
  facet normal 0.471253 -0.881998 0
    outer loop
      vertex -40.8228 10.8463 10.19
      vertex -41.1945 10.6477 0
      vertex -40.8228 10.8463 0
    endloop
  endfacet
  facet normal 0.0980235 0.995184 -0
    outer loop
      vertex -40 6.71 0
      vertex -40.4194 6.75131 10.19
      vertex -40 6.71 10.19
    endloop
  endfacet
  facet normal 0.0980235 0.995184 0
    outer loop
      vertex -40.4194 6.75131 10.19
      vertex -40 6.71 0
      vertex -40.4194 6.75131 0
    endloop
  endfacet
  facet normal -0.956907 0.290396 0
    outer loop
      vertex 41.9863 8.03723 0
      vertex 42.1087 8.44056 10.19
      vertex 42.1087 8.44056 0
    endloop
  endfacet
  facet normal -0.956907 0.290396 0
    outer loop
      vertex 42.1087 8.44056 10.19
      vertex 41.9863 8.03723 0
      vertex 41.9863 8.03723 10.19
    endloop
  endfacet
  facet normal -0.634397 0.773007 0
    outer loop
      vertex 41.5203 7.33972 0
      vertex 41.1945 7.07234 10.19
      vertex 41.5203 7.33972 10.19
    endloop
  endfacet
  facet normal -0.634397 0.773007 0
    outer loop
      vertex 41.1945 7.07234 10.19
      vertex 41.5203 7.33972 0
      vertex 41.1945 7.07234 0
    endloop
  endfacet
  facet normal 0.956907 0.290396 0
    outer loop
      vertex -41.9863 8.03723 10.19
      vertex -42.1087 8.44056 0
      vertex -42.1087 8.44056 10.19
    endloop
  endfacet
  facet normal 0.956907 0.290396 0
    outer loop
      vertex -42.1087 8.44056 0
      vertex -41.9863 8.03723 10.19
      vertex -41.9863 8.03723 0
    endloop
  endfacet
  facet normal -0.882014 -0.471224 0
    outer loop
      vertex 41.9863 9.68277 0
      vertex 41.7877 10.0545 10.19
      vertex 41.7877 10.0545 0
    endloop
  endfacet
  facet normal -0.882014 -0.471224 0
    outer loop
      vertex 41.7877 10.0545 10.19
      vertex 41.9863 9.68277 0
      vertex 41.9863 9.68277 10.19
    endloop
  endfacet
  facet normal 0.634426 -0.772984 0
    outer loop
      vertex -41.5203 10.3803 0
      vertex -41.1945 10.6477 10.19
      vertex -41.5203 10.3803 10.19
    endloop
  endfacet
  facet normal 0.634426 -0.772984 0
    outer loop
      vertex -41.1945 10.6477 10.19
      vertex -41.5203 10.3803 0
      vertex -41.1945 10.6477 0
    endloop
  endfacet
  facet normal 0.772984 0.634426 0
    outer loop
      vertex -41.5203 7.33972 10.19
      vertex -41.7877 7.66552 0
      vertex -41.7877 7.66552 10.19
    endloop
  endfacet
  facet normal 0.772984 0.634426 0
    outer loop
      vertex -41.7877 7.66552 0
      vertex -41.5203 7.33972 10.19
      vertex -41.5203 7.33972 0
    endloop
  endfacet
  facet normal -0.634426 -0.772984 0
    outer loop
      vertex 41.1945 10.6477 0
      vertex 41.5203 10.3803 10.19
      vertex 41.1945 10.6477 10.19
    endloop
  endfacet
  facet normal -0.634426 -0.772984 -0
    outer loop
      vertex 41.5203 10.3803 10.19
      vertex 41.1945 10.6477 0
      vertex 41.5203 10.3803 0
    endloop
  endfacet
  facet normal -0.882003 0.471243 0
    outer loop
      vertex 41.7877 7.66552 0
      vertex 41.9863 8.03723 10.19
      vertex 41.9863 8.03723 0
    endloop
  endfacet
  facet normal -0.882003 0.471243 0
    outer loop
      vertex 41.9863 8.03723 10.19
      vertex 41.7877 7.66552 0
      vertex 41.7877 7.66552 10.19
    endloop
  endfacet
  facet normal -0.995187 -0.0979907 0
    outer loop
      vertex 42.15 8.86 0
      vertex 42.1087 9.27944 10.19
      vertex 42.1087 9.27944 0
    endloop
  endfacet
  facet normal -0.995187 -0.0979907 0
    outer loop
      vertex 42.1087 9.27944 10.19
      vertex 42.15 8.86 0
      vertex 42.15 8.86 10.19
    endloop
  endfacet
  facet normal 0.882014 -0.471224 0
    outer loop
      vertex -41.9863 9.68277 10.19
      vertex -41.7877 10.0545 0
      vertex -41.7877 10.0545 10.19
    endloop
  endfacet
  facet normal 0.882014 -0.471224 0
    outer loop
      vertex -41.7877 10.0545 0
      vertex -41.9863 9.68277 10.19
      vertex -41.9863 9.68277 0
    endloop
  endfacet
  facet normal 0.0979848 -0.995188 0
    outer loop
      vertex -40.4194 10.9687 10.19
      vertex -40.1015 11 1.2
      vertex -40.1015 11 10.19
    endloop
  endfacet
  facet normal 0.0979848 -0.995188 0
    outer loop
      vertex -40.4194 10.9687 0
      vertex -40.1015 11 1.2
      vertex -40.4194 10.9687 10.19
    endloop
  endfacet
  facet normal 0.098 -0.995186 -4.05367e-06
    outer loop
      vertex -40 11.01 0
      vertex -40.1015 11 1.2
      vertex -40.4194 10.9687 0
    endloop
  endfacet
  facet normal 0.0980475 -0.995182 0
    outer loop
      vertex -40.1015 11 1.2
      vertex -40 11.01 0
      vertex -40 11.01 1.2
    endloop
  endfacet
  facet normal -0.772984 -0.634426 0
    outer loop
      vertex 41.7877 10.0545 0
      vertex 41.5203 10.3803 10.19
      vertex 41.5203 10.3803 0
    endloop
  endfacet
  facet normal -0.772984 -0.634426 0
    outer loop
      vertex 41.5203 10.3803 10.19
      vertex 41.7877 10.0545 0
      vertex 41.7877 10.0545 10.19
    endloop
  endfacet
  facet normal 0.634397 0.773007 -0
    outer loop
      vertex -41.1945 7.07234 0
      vertex -41.5203 7.33972 10.19
      vertex -41.1945 7.07234 10.19
    endloop
  endfacet
  facet normal 0.634397 0.773007 0
    outer loop
      vertex -41.5203 7.33972 10.19
      vertex -41.1945 7.07234 0
      vertex -41.5203 7.33972 0
    endloop
  endfacet
  facet normal -0.956907 -0.290396 0
    outer loop
      vertex 42.1087 9.27944 0
      vertex 41.9863 9.68277 10.19
      vertex 41.9863 9.68277 0
    endloop
  endfacet
  facet normal -0.956907 -0.290396 0
    outer loop
      vertex 41.9863 9.68277 10.19
      vertex 42.1087 9.27944 0
      vertex 42.1087 9.27944 10.19
    endloop
  endfacet
  facet normal 0.772984 -0.634426 0
    outer loop
      vertex -41.7877 10.0545 10.19
      vertex -41.5203 10.3803 0
      vertex -41.5203 10.3803 10.19
    endloop
  endfacet
  facet normal 0.772984 -0.634426 0
    outer loop
      vertex -41.5203 10.3803 0
      vertex -41.7877 10.0545 10.19
      vertex -41.7877 10.0545 0
    endloop
  endfacet
  facet normal -0.471253 -0.881998 0
    outer loop
      vertex 40.8228 10.8463 0
      vertex 41.1945 10.6477 10.19
      vertex 40.8228 10.8463 10.19
    endloop
  endfacet
  facet normal -0.471253 -0.881998 -0
    outer loop
      vertex 41.1945 10.6477 10.19
      vertex 40.8228 10.8463 0
      vertex 41.1945 10.6477 0
    endloop
  endfacet
  facet normal 0 -1 0
    outer loop
      vertex -40 5.5 0
      vertex 40 5.5 10.19
      vertex -40 5.5 10.19
    endloop
  endfacet
  facet normal 0 -1 -0
    outer loop
      vertex 40 5.5 10.19
      vertex -40 5.5 0
      vertex 40 5.5 0
    endloop
  endfacet
  facet normal 0.772984 0.634426 0
    outer loop
      vertex -41.5203 1.82972 10.19
      vertex -41.7877 2.15552 0
      vertex -41.7877 2.15552 10.19
    endloop
  endfacet
  facet normal 0.772984 0.634426 0
    outer loop
      vertex -41.7877 2.15552 0
      vertex -41.5203 1.82972 10.19
      vertex -41.5203 1.82972 0
    endloop
  endfacet
  facet normal -0.772984 0.634426 0
    outer loop
      vertex 41.5203 1.82972 0
      vertex 41.7877 2.15552 10.19
      vertex 41.7877 2.15552 0
    endloop
  endfacet
  facet normal -0.772984 0.634426 0
    outer loop
      vertex 41.7877 2.15552 10.19
      vertex 41.5203 1.82972 0
      vertex 41.5203 1.82972 10.19
    endloop
  endfacet
  facet normal -0.634397 -0.773007 0
    outer loop
      vertex 41.1945 5.13766 0
      vertex 41.5203 4.87028 10.19
      vertex 41.1945 5.13766 10.19
    endloop
  endfacet
  facet normal -0.634397 -0.773007 -0
    outer loop
      vertex 41.5203 4.87028 10.19
      vertex 41.1945 5.13766 0
      vertex 41.5203 4.87028 0
    endloop
  endfacet
  facet normal -0.995187 0.0979907 0
    outer loop
      vertex 42.1087 2.93056 0
      vertex 42.15 3.35 10.19
      vertex 42.15 3.35 0
    endloop
  endfacet
  facet normal -0.995187 0.0979907 0
    outer loop
      vertex 42.15 3.35 10.19
      vertex 42.1087 2.93056 0
      vertex 42.1087 2.93056 10.19
    endloop
  endfacet
  facet normal 0 1 -0
    outer loop
      vertex 40 1.2 0
      vertex -40 1.2 10.19
      vertex 40 1.2 10.19
    endloop
  endfacet
  facet normal 0 1 0
    outer loop
      vertex -40 1.2 10.19
      vertex 40 1.2 0
      vertex -40 1.2 0
    endloop
  endfacet
  facet normal 0.471401 -0.881919 0
    outer loop
      vertex -41.1945 5.13766 0
      vertex -40.8228 5.33634 10.19
      vertex -41.1945 5.13766 10.19
    endloop
  endfacet
  facet normal 0.471401 -0.881919 0
    outer loop
      vertex -40.8228 5.33634 10.19
      vertex -41.1945 5.13766 0
      vertex -40.8228 5.33634 0
    endloop
  endfacet
  facet normal -0.956907 0.290396 0
    outer loop
      vertex 41.9863 2.52723 0
      vertex 42.1087 2.93056 10.19
      vertex 42.1087 2.93056 0
    endloop
  endfacet
  facet normal -0.956907 0.290396 0
    outer loop
      vertex 42.1087 2.93056 10.19
      vertex 41.9863 2.52723 0
      vertex 41.9863 2.52723 10.19
    endloop
  endfacet
  facet normal 0.956907 0.290396 0
    outer loop
      vertex -41.9863 2.52723 10.19
      vertex -42.1087 2.93056 0
      vertex -42.1087 2.93056 10.19
    endloop
  endfacet
  facet normal 0.956907 0.290396 0
    outer loop
      vertex -42.1087 2.93056 0
      vertex -41.9863 2.52723 10.19
      vertex -41.9863 2.52723 0
    endloop
  endfacet
  facet normal -0.0980235 -0.995184 0
    outer loop
      vertex 40 5.5 0
      vertex 40.4194 5.45869 10.19
      vertex 40 5.5 10.19
    endloop
  endfacet
  facet normal -0.0980235 -0.995184 -0
    outer loop
      vertex 40.4194 5.45869 10.19
      vertex 40 5.5 0
      vertex 40.4194 5.45869 0
    endloop
  endfacet
  facet normal -0.471401 0.881919 0
    outer loop
      vertex 41.1945 1.56234 0
      vertex 40.8228 1.36366 10.19
      vertex 41.1945 1.56234 10.19
    endloop
  endfacet
  facet normal -0.471401 0.881919 0
    outer loop
      vertex 40.8228 1.36366 10.19
      vertex 41.1945 1.56234 0
      vertex 40.8228 1.36366 0
    endloop
  endfacet
  facet normal 0.290241 -0.956954 0
    outer loop
      vertex -40.8228 5.33634 0
      vertex -40.4194 5.45869 10.19
      vertex -40.8228 5.33634 10.19
    endloop
  endfacet
  facet normal 0.290241 -0.956954 0
    outer loop
      vertex -40.4194 5.45869 10.19
      vertex -40.8228 5.33634 0
      vertex -40.4194 5.45869 0
    endloop
  endfacet
  facet normal -0.995187 -0.0979907 0
    outer loop
      vertex 42.15 3.35 0
      vertex 42.1087 3.76944 10.19
      vertex 42.1087 3.76944 0
    endloop
  endfacet
  facet normal -0.995187 -0.0979907 0
    outer loop
      vertex 42.1087 3.76944 10.19
      vertex 42.15 3.35 0
      vertex 42.15 3.35 10.19
    endloop
  endfacet
  facet normal -0.0980235 0.995184 0
    outer loop
      vertex 40.4194 1.24131 0
      vertex 40 1.2 10.19
      vertex 40.4194 1.24131 10.19
    endloop
  endfacet
  facet normal -0.0980235 0.995184 0
    outer loop
      vertex 40 1.2 10.19
      vertex 40.4194 1.24131 0
      vertex 40 1.2 0
    endloop
  endfacet
  facet normal -0.772984 -0.634426 0
    outer loop
      vertex 41.7877 4.54448 0
      vertex 41.5203 4.87028 10.19
      vertex 41.5203 4.87028 0
    endloop
  endfacet
  facet normal -0.772984 -0.634426 0
    outer loop
      vertex 41.5203 4.87028 10.19
      vertex 41.7877 4.54448 0
      vertex 41.7877 4.54448 10.19
    endloop
  endfacet
  facet normal -0.290241 0.956954 0
    outer loop
      vertex 40.8228 1.36366 0
      vertex 40.4194 1.24131 10.19
      vertex 40.8228 1.36366 10.19
    endloop
  endfacet
  facet normal -0.290241 0.956954 0
    outer loop
      vertex 40.4194 1.24131 10.19
      vertex 40.8228 1.36366 0
      vertex 40.4194 1.24131 0
    endloop
  endfacet
  facet normal 0.471401 0.881919 -0
    outer loop
      vertex -40.8228 1.36366 0
      vertex -41.1945 1.56234 10.19
      vertex -40.8228 1.36366 10.19
    endloop
  endfacet
  facet normal 0.471401 0.881919 0
    outer loop
      vertex -41.1945 1.56234 10.19
      vertex -40.8228 1.36366 0
      vertex -41.1945 1.56234 0
    endloop
  endfacet
  facet normal 0.0980235 0.995184 -0
    outer loop
      vertex -40 1.2 0
      vertex -40.4194 1.24131 10.19
      vertex -40 1.2 10.19
    endloop
  endfacet
  facet normal 0.0980235 0.995184 0
    outer loop
      vertex -40.4194 1.24131 10.19
      vertex -40 1.2 0
      vertex -40.4194 1.24131 0
    endloop
  endfacet
  facet normal -0.290241 -0.956954 0
    outer loop
      vertex 40.4194 5.45869 0
      vertex 40.8228 5.33634 10.19
      vertex 40.4194 5.45869 10.19
    endloop
  endfacet
  facet normal -0.290241 -0.956954 -0
    outer loop
      vertex 40.8228 5.33634 10.19
      vertex 40.4194 5.45869 0
      vertex 40.8228 5.33634 0
    endloop
  endfacet
  facet normal -0.882003 0.471243 0
    outer loop
      vertex 41.7877 2.15552 0
      vertex 41.9863 2.52723 10.19
      vertex 41.9863 2.52723 0
    endloop
  endfacet
  facet normal -0.882003 0.471243 0
    outer loop
      vertex 41.9863 2.52723 10.19
      vertex 41.7877 2.15552 0
      vertex 41.7877 2.15552 10.19
    endloop
  endfacet
  facet normal -0.634397 0.773007 0
    outer loop
      vertex 41.5203 1.82972 0
      vertex 41.1945 1.56234 10.19
      vertex 41.5203 1.82972 10.19
    endloop
  endfacet
  facet normal -0.634397 0.773007 0
    outer loop
      vertex 41.1945 1.56234 10.19
      vertex 41.5203 1.82972 0
      vertex 41.1945 1.56234 0
    endloop
  endfacet
  facet normal 0.882003 0.471243 0
    outer loop
      vertex -41.7877 2.15552 10.19
      vertex -41.9863 2.52723 0
      vertex -41.9863 2.52723 10.19
    endloop
  endfacet
  facet normal 0.882003 0.471243 0
    outer loop
      vertex -41.9863 2.52723 0
      vertex -41.7877 2.15552 10.19
      vertex -41.7877 2.15552 0
    endloop
  endfacet
  facet normal 0.995187 0.0979907 0
    outer loop
      vertex -42.1087 2.93056 10.19
      vertex -42.15 3.35 0
      vertex -42.15 3.35 10.19
    endloop
  endfacet
  facet normal 0.995187 0.0979907 0
    outer loop
      vertex -42.15 3.35 0
      vertex -42.1087 2.93056 10.19
      vertex -42.1087 2.93056 0
    endloop
  endfacet
  facet normal 0.634397 0.773007 -0
    outer loop
      vertex -41.1945 1.56234 0
      vertex -41.5203 1.82972 10.19
      vertex -41.1945 1.56234 10.19
    endloop
  endfacet
  facet normal 0.634397 0.773007 0
    outer loop
      vertex -41.5203 1.82972 10.19
      vertex -41.1945 1.56234 0
      vertex -41.5203 1.82972 0
    endloop
  endfacet
  facet normal -0.882003 -0.471243 0
    outer loop
      vertex 41.9863 4.17277 0
      vertex 41.7877 4.54448 10.19
      vertex 41.7877 4.54448 0
    endloop
  endfacet
  facet normal -0.882003 -0.471243 0
    outer loop
      vertex 41.7877 4.54448 10.19
      vertex 41.9863 4.17277 0
      vertex 41.9863 4.17277 10.19
    endloop
  endfacet
  facet normal 0.290241 0.956954 -0
    outer loop
      vertex -40.4194 1.24131 0
      vertex -40.8228 1.36366 10.19
      vertex -40.4194 1.24131 10.19
    endloop
  endfacet
  facet normal 0.290241 0.956954 0
    outer loop
      vertex -40.8228 1.36366 10.19
      vertex -40.4194 1.24131 0
      vertex -40.8228 1.36366 0
    endloop
  endfacet
  facet normal 0.956907 -0.290396 0
    outer loop
      vertex -42.1087 3.76944 10.19
      vertex -41.9863 4.17277 0
      vertex -41.9863 4.17277 10.19
    endloop
  endfacet
  facet normal 0.956907 -0.290396 0
    outer loop
      vertex -41.9863 4.17277 0
      vertex -42.1087 3.76944 10.19
      vertex -42.1087 3.76944 0
    endloop
  endfacet
  facet normal 0.0980235 -0.995184 0
    outer loop
      vertex -40.4194 5.45869 0
      vertex -40 5.5 10.19
      vertex -40.4194 5.45869 10.19
    endloop
  endfacet
  facet normal 0.0980235 -0.995184 0
    outer loop
      vertex -40 5.5 10.19
      vertex -40.4194 5.45869 0
      vertex -40 5.5 0
    endloop
  endfacet
  facet normal -0.956907 -0.290396 0
    outer loop
      vertex 42.1087 3.76944 0
      vertex 41.9863 4.17277 10.19
      vertex 41.9863 4.17277 0
    endloop
  endfacet
  facet normal -0.956907 -0.290396 0
    outer loop
      vertex 41.9863 4.17277 10.19
      vertex 42.1087 3.76944 0
      vertex 42.1087 3.76944 10.19
    endloop
  endfacet
  facet normal 0.882003 -0.471243 0
    outer loop
      vertex -41.9863 4.17277 10.19
      vertex -41.7877 4.54448 0
      vertex -41.7877 4.54448 10.19
    endloop
  endfacet
  facet normal 0.882003 -0.471243 0
    outer loop
      vertex -41.7877 4.54448 0
      vertex -41.9863 4.17277 10.19
      vertex -41.9863 4.17277 0
    endloop
  endfacet
  facet normal 0.995187 -0.0979907 0
    outer loop
      vertex -42.15 3.35 10.19
      vertex -42.1087 3.76944 0
      vertex -42.1087 3.76944 10.19
    endloop
  endfacet
  facet normal 0.995187 -0.0979907 0
    outer loop
      vertex -42.1087 3.76944 0
      vertex -42.15 3.35 10.19
      vertex -42.15 3.35 0
    endloop
  endfacet
  facet normal 0.634397 -0.773007 0
    outer loop
      vertex -41.5203 4.87028 0
      vertex -41.1945 5.13766 10.19
      vertex -41.5203 4.87028 10.19
    endloop
  endfacet
  facet normal 0.634397 -0.773007 0
    outer loop
      vertex -41.1945 5.13766 10.19
      vertex -41.5203 4.87028 0
      vertex -41.1945 5.13766 0
    endloop
  endfacet
  facet normal 0.772984 -0.634426 0
    outer loop
      vertex -41.7877 4.54448 10.19
      vertex -41.5203 4.87028 0
      vertex -41.5203 4.87028 10.19
    endloop
  endfacet
  facet normal 0.772984 -0.634426 0
    outer loop
      vertex -41.5203 4.87028 0
      vertex -41.7877 4.54448 10.19
      vertex -41.7877 4.54448 0
    endloop
  endfacet
  facet normal -0.471401 -0.881919 0
    outer loop
      vertex 40.8228 5.33634 0
      vertex 41.1945 5.13766 10.19
      vertex 40.8228 5.33634 10.19
    endloop
  endfacet
  facet normal -0.471401 -0.881919 -0
    outer loop
      vertex 41.1945 5.13766 10.19
      vertex 40.8228 5.33634 0
      vertex 41.1945 5.13766 0
    endloop
  endfacet
endsolid OpenSCAD_Model
