999
DXF created by Inkscape
  0
SECTION
  2
HEADER
  9
$ACADVER
  1
AC1014
  9
$HANDSEED
  5
FFFF
  9
$MEASUREMENT
 70
     1
  0
ENDSEC
  0
SECTION
  2
TABLES
  0
TABLE
  2
VPORT
  5
8
330
0
100
AcDbSymbolTable
 70
     4
  0
VPORT
  5
2E
330
8
100
AcDbSymbolTableRecord
100
AcDbViewportTableRecord
  2
*ACTIVE
 70
     0
 10
0.0
 20
0.0
 11
1.0
 21
1.0
 12
210.0
 22
148.5
 13
0.0
 23
0.0
 14
10.0
 24
10.0
 15
10.0
 25
10.0
 16
0.0
 26
0.0
 36
1.0
 17
0.0
 27
0.0
 37
0.0
 40
341.0
 41
1.24
 42
50.0
 43
0.0
 44
0.0
 50
0.0
 51
0.0
 71
     0
 72
   100
 73
     1
 74
     3
 75
     0
 76
     0
 77
     0
 78
     0
  0
ENDTAB
  0
TABLE
  2
LTYPE
  5
5
330
0
100
AcDbSymbolTable
 70
     1
  0
LTYPE
  5
14
330
5
100
AcDbSymbolTableRecord
100
AcDbLinetypeTableRecord
  2
BYBLOCK
 70
     0
  3

 72
    65
 73
     0
 40
0.0
  0
LTYPE
  5
15
330
5
100
AcDbSymbolTableRecord
100
AcDbLinetypeTableRecord
  2
BYLAYER
 70
     0
  3

 72
    65
 73
     0
 40
0.0
  0
LTYPE
  5
16
330
5
100
AcDbSymbolTableRecord
100
AcDbLinetypeTableRecord
  2
CONTINUOUS
 70
     0
  3
Solid line
 72
    65
 73
     0
 40
0.0
  0
ENDTAB
  0
TABLE
  2
LAYER
  5
2
100
AcDbSymbolTable
 70
2
  0
LAYER
  5
50
100
AcDbSymbolTableRecord
100
AcDbLayerTableRecord
  2
0
 70
0
  6
CONTINUOUS
  0
LAYER
  5
51
100
AcDbSymbolTableRecord
100
AcDbLayerTableRecord
  2
merged
 70
0
  6
CONTINUOUS
  0
ENDTAB
  0
TABLE
  2
STYLE
  5
3
330
0
100
AcDbSymbolTable
 70
     1
  0
STYLE
  5
11
330
3
100
AcDbSymbolTableRecord
100
AcDbTextStyleTableRecord
  2
STANDARD
 70
     0
 40
0.0
 41
1.0
 50
0.0
 71
     0
 42
2.5
  3
txt
  4

  0
ENDTAB
  0
TABLE
  2
VIEW
  5
6
330
0
100
AcDbSymbolTable
 70
     0
  0
ENDTAB
  0
TABLE
  2
UCS
  5
7
330
0
100
AcDbSymbolTable
 70
     0
  0
ENDTAB
  0
TABLE
  2
APPID
  5
9
330
0
100
AcDbSymbolTable
 70
     2
  0
APPID
  5
12
330
9
100
AcDbSymbolTableRecord
100
AcDbRegAppTableRecord
  2
ACAD
 70
     0
  0
ENDTAB
  0
TABLE
  2
DIMSTYLE
  5
A
330
0
100
AcDbSymbolTable
 70
     1
  0
DIMSTYLE
105
27
330
A
100
AcDbSymbolTableRecord
100
AcDbDimStyleTableRecord
  2
ISO-25
 70
     0
  3

  4

  5

  6

  7

 40
1.0
 41
2.5
 42
0.625
 43
3.75
 44
1.25
 45
0.0
 46
0.0
 47
0.0
 48
0.0
140
2.5
141
2.5
142
0.0
143
0.03937007874016
144
1.0
145
0.0
146
1.0
147
0.625
 71
     0
 72
     0
 73
     0
 74
     0
 75
     0
 76
     0
 77
     1
 78
     8
170
     0
171
     3
172
     1
173
     0
174
     0
175
     0
176
     0
177
     0
178
     0
270
     2
271
     2
272
     2
273
     2
274
     3
340
11
275
     0
280
     0
281
     0
282
     0
283
     0
284
     8
285
     0
286
     0
287
     3
288
     0
  0
ENDTAB
  0
TABLE
  2
BLOCK_RECORD
  5
1
330
0
100
AcDbSymbolTable
 70
     1
  0
BLOCK_RECORD
  5
1F
330
1
100
AcDbSymbolTableRecord
100
AcDbBlockTableRecord
  2
*MODEL_SPACE
  0
BLOCK_RECORD
  5
1B
330
1
100
AcDbSymbolTableRecord
100
AcDbBlockTableRecord
  2
*PAPER_SPACE
  0
ENDTAB
  0
ENDSEC
  0
SECTION
  2
BLOCKS
  0
BLOCK
  5
20
330
1F
100
AcDbEntity
  8
0
100
AcDbBlockBegin
  2
*MODEL_SPACE
 70
     0
 10
0.0
 20
0.0
 30
0.0
  3
*MODEL_SPACE
  1

  0
ENDBLK
  5
21
330
1F
100
AcDbEntity
  8
0
100
AcDbBlockEnd
  0
BLOCK
  5
1C
330
1B
100
AcDbEntity
 67
     1
  8
0
100
AcDbBlockBegin
  2
*PAPER_SPACE
  1

  0
ENDBLK
  5
1D
330
1B
100
AcDbEntity
 67
     1
  8
0
100
AcDbBlockEnd
  0
ENDSEC
  0
SECTION
  2
ENTITIES
  0
LWPOLYLINE
  5
100
100
AcDbEntity
  8
merged
 62
7
100
AcDbPolyline
 90
446
 70
0
 10
49.005657
 20
42.829999
 30
0.0
 10
48.424346
 20
42.794902
 30
0.0
 10
47.238629
 20
42.649292
 30
0.0
 10
46.057433
 20
42.439536
 30
0.0
 10
45.730583
 20
42.485601
 30
0.0
 10
44.854907
 20
42.561160
 30
0.0
 10
43.976267
 20
42.587717
 30
0.0
 10
42.220794
 20
42.547032
 30
0.0
 10
40.934502
 20
42.475023
 30
0.0
 10
40.296956
 20
42.398575
 30
0.0
 10
39.678110
 20
42.270104
 30
0.0
 10
39.089189
 20
42.070819
 30
0.0
 10
38.541412
 20
41.781928
 30
0.0
 10
38.046008
 20
41.384629
 30
0.0
 10
37.614197
 20
40.860139
 30
0.0
 10
37.314818
 20
40.256113
 30
0.0
 10
37.201701
 20
39.666796
 30
0.0
 10
37.226141
 20
39.087143
 30
0.0
 10
37.339394
 20
38.512101
 30
0.0
 10
37.637517
 20
37.355645
 30
0.0
 10
37.724949
 20
36.764129
 30
0.0
 10
37.706351
 20
36.157021
 30
0.0
 10
37.532025
 20
35.426167
 30
0.0
 10
37.236397
 20
34.707291
 30
0.0
 10
36.845951
 20
34.003547
 30
0.0
 10
36.387171
 20
33.318086
 30
0.0
 10
35.370539
 20
32.014628
 30
0.0
 10
34.398376
 20
30.822141
 30
0.0
 10
33.030154
 20
29.081129
 30
0.0
 10
31.610286
 20
27.382549
 30
0.0
 10
31.124988
 20
26.797722
 30
0.0
 10
30.817089
 20
26.537793
 30
0.0
 10
30.659629
 20
26.469013
 30
0.0
 10
30.504703
 20
26.461223
 30
0.0
 10
30.380483
 20
26.515156
 30
0.0
 10
30.288989
 20
26.616722
 30
0.0
 10
30.184172
 20
26.912502
 30
0.0
 10
30.147144
 20
27.522935
 30
0.0
 10
30.076947
 20
30.892332
 30
0.0
 10
30.099751
 20
32.065835
 30
0.0
 10
30.178824
 20
33.282850
 30
0.0
 10
30.370379
 20
34.480384
 30
0.0
 10
30.525906
 20
35.052164
 30
0.0
 10
30.730633
 20
35.595450
 30
0.0
 10
30.965394
 20
36.049873
 30
0.0
 10
31.246868
 20
36.491079
 30
0.0
 10
31.860267
 20
37.361323
 30
0.0
 10
32.391449
 20
38.261174
 30
0.0
 10
32.570146
 20
38.739389
 30
0.0
 10
32.661019
 20
39.245630
 30
0.0
 10
32.660172
 20
39.651957
 30
0.0
 10
32.598157
 20
40.033852
 30
0.0
 10
32.480064
 20
40.391083
 30
0.0
 10
32.311083
 20
40.723433
 30
0.0
 10
31.841183
 20
41.312592
 30
0.0
 10
31.229943
 20
41.799547
 30
0.0
 10
30.518854
 20
42.182508
 30
0.0
 10
29.749389
 20
42.459696
 30
0.0
 10
28.963044
 20
42.629325
 30
0.0
 10
28.201295
 20
42.689611
 30
0.0
 10
27.619988
 20
42.654514
 30
0.0
 10
26.045061
 20
42.454043
 30
0.0
 10
25.268527
 20
42.303906
 30
0.0
 10
24.544553
 20
42.076593
 30
0.0
 10
23.907087
 20
41.739177
 30
0.0
 10
23.631404
 20
41.518888
 30
0.0
 10
23.390078
 20
41.258724
 30
0.0
 10
23.187358
 20
40.954571
 30
0.0
 10
23.027485
 20
40.602309
 30
0.0
 10
22.914703
 20
40.197826
 30
0.0
 10
22.853255
 20
39.737002
 30
0.0
 10
22.830480
 20
38.557423
 30
0.0
 10
22.909649
 20
37.969052
 30
0.0
 10
23.092362
 20
37.420539
 30
0.0
 10
23.391049
 20
36.932616
 30
0.0
 10
23.755378
 20
36.491712
 30
0.0
 10
24.131501
 20
36.058949
 30
0.0
 10
24.465568
 20
35.595450
 30
0.0
 10
24.655611
 20
35.185319
 30
0.0
 10
24.772465
 20
34.745589
 30
0.0
 10
24.875775
 20
33.840555
 30
0.0
 10
25.006416
 20
31.039305
 30
0.0
 10
25.044973
 20
28.229526
 30
0.0
 10
25.022734
 20
22.609229
 30
0.0
 10
25.021040
 20
16.599910
 30
0.0
 10
24.938778
 20
13.595229
 30
0.0
 10
24.730967
 20
10.605750
 30
0.0
 10
24.717815
 20
10.460973
 30
0.0
 10
24.461162
 20
11.105896
 30
0.0
 10
23.920109
 20
12.927262
 30
0.0
 10
23.507878
 20
14.789788
 30
0.0
 10
22.864208
 20
18.546648
 30
0.0
 10
22.249965
 20
22.563198
 30
0.0
 10
21.691115
 20
26.597280
 30
0.0
 10
21.101307
 20
30.624755
 30
0.0
 10
20.394193
 20
34.621484
 30
0.0
 10
20.171094
 20
35.692503
 30
0.0
 10
19.889800
 20
36.835611
 30
0.0
 10
19.524830
 20
37.983547
 30
0.0
 10
19.050700
 20
39.069044
 30
0.0
 10
18.764735
 20
39.567361
 30
0.0
 10
18.441921
 20
40.024846
 30
0.0
 10
18.079077
 20
40.433092
 30
0.0
 10
17.673015
 20
40.783688
 30
0.0
 10
17.220551
 20
41.068227
 30
0.0
 10
16.718497
 20
41.278308
 30
0.0
 10
16.163668
 20
41.405514
 30
0.0
 10
15.552880
 20
41.441441
 30
0.0
 10
15.030797
 20
41.399762
 30
0.0
 10
14.445937
 20
41.276027
 30
0.0
 10
13.897240
 20
41.073970
 30
0.0
 10
13.383590
 20
40.800932
 30
0.0
 10
12.903863
 20
40.464243
 30
0.0
 10
12.456933
 20
40.071246
 30
0.0
 10
12.041680
 20
39.629272
 30
0.0
 10
11.301719
 20
38.627756
 30
0.0
 10
10.674991
 20
37.518385
 30
0.0
 10
10.152521
 20
36.359860
 30
0.0
 10
9.725324
 20
35.210869
 30
0.0
 10
9.384425
 20
34.130113
 30
0.0
 10
8.898667
 20
32.349762
 30
0.0
 10
8.471956
 20
30.556423
 30
0.0
 10
7.748959
 20
26.941221
 30
0.0
 10
6.497625
 20
19.669783
 30
0.0
 10
5.775731
 20
15.617763
 30
0.0
 10
5.302510
 20
13.610788
 30
0.0
 10
5.005197
 20
12.628781
 30
0.0
 10
4.654985
 20
11.667462
 30
0.0
 10
4.136858
 20
10.594876
 30
0.0
 10
3.501678
 20
9.598502
 30
0.0
 10
2.785612
 20
8.653867
 30
0.0
 10
2.024837
 20
7.736499
 30
0.0
 10
1.000492
 20
6.542916
 30
0.0
 10
0.537289
 20
5.897330
 30
0.0
 10
0.188778
 20
5.209450
 30
0.0
 10
0.048726
 20
4.711234
 30
0.0
 10
-0.000000
 20
4.211653
 30
0.0
 10
0.034019
 20
3.716122
 30
0.0
 10
0.142215
 20
3.230070
 30
0.0
 10
0.316004
 20
2.758914
 30
0.0
 10
0.546817
 20
2.308084
 30
0.0
 10
1.145196
 20
1.489075
 30
0.0
 10
1.750469
 20
0.941045
 30
0.0
 10
2.436995
 20
0.536352
 30
0.0
 10
3.186495
 20
0.257452
 30
0.0
 10
3.980699
 20
0.086792
 30
0.0
 10
4.801334
 20
0.006827
 30
0.0
 10
5.630122
 20
-0.000003
 30
0.0
 10
7.239068
 20
0.135602
 30
0.0
 10
7.908349
 20
0.236209
 30
0.0
 10
8.585827
 20
0.397575
 30
0.0
 10
9.220042
 20
0.661574
 30
0.0
 10
9.504844
 20
0.845148
 30
0.0
 10
9.759535
 20
1.070085
 30
0.0
 10
10.002957
 20
1.364183
 30
0.0
 10
10.195461
 20
1.681694
 30
0.0
 10
10.442493
 20
2.374372
 30
0.0
 10
10.530216
 20
3.122961
 30
0.0
 10
10.488219
 20
3.902295
 30
0.0
 10
10.346089
 20
4.687220
 30
0.0
 10
10.133409
 20
5.452576
 30
0.0
 10
9.614755
 20
6.823947
 30
0.0
 10
9.297224
 20
7.512761
 30
0.0
 10
9.027008
 20
8.198460
 30
0.0
 10
8.949159
 20
8.545711
 30
0.0
 10
8.930561
 20
8.898862
 30
0.0
 10
8.987022
 20
9.260143
 30
0.0
 10
9.134351
 20
9.631779
 30
0.0
 10
9.323880
 20
9.929503
 30
0.0
 10
9.543432
 20
10.166816
 30
0.0
 10
9.789772
 20
10.351801
 30
0.0
 10
10.059681
 20
10.492540
 30
0.0
 10
10.657281
 20
10.673599
 30
0.0
 10
11.310420
 20
10.774655
 30
0.0
 10
12.719132
 20
10.898172
 30
0.0
 10
14.190949
 20
10.932445
 30
0.0
 10
15.661513
 20
10.872470
 30
0.0
 10
17.066474
 20
10.713232
 30
0.0
 10
17.650844
 20
10.608028
 30
0.0
 10
18.206260
 20
10.446498
 30
0.0
 10
18.711124
 20
10.183072
 30
0.0
 10
19.143830
 20
9.772170
 30
0.0
 10
19.347344
 20
9.456414
 30
0.0
 10
19.476745
 20
9.134159
 30
0.0
 10
19.540164
 20
8.806290
 30
0.0
 10
19.545723
 20
8.473697
 30
0.0
 10
19.415839
 20
7.797890
 30
0.0
 10
19.152133
 20
7.113840
 30
0.0
 10
18.483473
 20
5.749425
 30
0.0
 10
18.208628
 20
5.083271
 30
0.0
 10
18.060176
 20
4.437293
 30
0.0
 10
18.020688
 20
3.642298
 30
0.0
 10
18.095826
 20
2.834538
 30
0.0
 10
18.194971
 20
2.446359
 30
0.0
 10
18.345079
 20
2.079580
 30
0.0
 10
18.553591
 20
1.742395
 30
0.0
 10
18.827942
 20
1.443002
 30
0.0
 10
19.266287
 20
1.153998
 30
0.0
 10
19.753560
 20
0.987230
 30
0.0
 10
20.786844
 20
0.846339
 30
0.0
 10
22.503189
 20
0.743387
 30
0.0
 10
24.254954
 20
0.780531
 30
0.0
 10
24.749811
 20
0.588072
 30
0.0
 10
25.265377
 20
0.470552
 30
0.0
 10
26.356440
 20
0.346194
 30
0.0
 10
27.318617
 20
0.283489
 30
0.0
 10
28.333613
 20
0.289473
 30
0.0
 10
29.350180
 20
0.392845
 30
0.0
 10
30.317079
 20
0.622323
 30
0.0
 10
30.765888
 20
0.793327
 30
0.0
 10
31.183064
 20
1.006622
 30
0.0
 10
31.562198
 20
1.265803
 30
0.0
 10
31.896888
 20
1.574459
 30
0.0
 10
32.180728
 20
1.936174
 30
0.0
 10
32.407312
 20
2.354540
 30
0.0
 10
32.570237
 20
2.833147
 30
0.0
 10
32.663090
 20
3.375587
 30
0.0
 10
32.704794
 20
4.122643
 30
0.0
 10
32.668839
 20
4.888157
 30
0.0
 10
32.524167
 20
5.634442
 30
0.0
 10
32.239723
 20
6.323807
 30
0.0
 10
31.974968
 20
6.735273
 30
0.0
 10
31.672335
 20
7.117063
 30
0.0
 10
31.003110
 20
7.831438
 30
0.0
 10
30.331396
 20
8.546603
 30
0.0
 10
29.756546
 20
9.342227
 30
0.0
 10
29.416138
 20
10.089605
 30
0.0
 10
29.177290
 20
10.938245
 30
0.0
 10
29.036992
 20
11.854843
 30
0.0
 10
28.992229
 20
12.806099
 30
0.0
 10
29.039989
 20
13.758706
 30
0.0
 10
29.177259
 20
14.679363
 30
0.0
 10
29.401031
 20
15.534764
 30
0.0
 10
29.708289
 20
16.291608
 30
0.0
 10
30.462183
 20
17.568601
 30
0.0
 10
31.362275
 20
18.748462
 30
0.0
 10
31.779424
 20
19.174796
 30
0.0
 10
32.034982
 20
19.322294
 30
0.0
 10
32.323080
 20
19.360481
 30
0.0
 10
32.682866
 20
19.237404
 30
0.0
 10
33.005355
 20
18.992726
 30
0.0
 10
33.533958
 20
18.397482
 30
0.0
 10
34.684002
 20
16.879025
 30
0.0
 10
35.764868
 20
15.308868
 30
0.0
 10
36.764059
 20
13.933387
 30
0.0
 10
37.772546
 20
12.473082
 30
0.0
 10
38.214737
 20
11.709090
 30
0.0
 10
38.580605
 20
10.921458
 30
0.0
 10
38.843938
 20
10.109375
 30
0.0
 10
38.978518
 20
9.272030
 30
0.0
 10
38.941158
 20
8.662405
 30
0.0
 10
38.764851
 20
8.104093
 30
0.0
 10
38.492170
 20
7.580808
 30
0.0
 10
38.165687
 20
7.076271
 30
0.0
 10
37.521600
 20
6.058298
 30
0.0
 10
37.289142
 20
5.512291
 30
0.0
 10
37.173171
 20
4.919893
 30
0.0
 10
37.206405
 20
3.977691
 30
0.0
 10
37.433885
 20
2.991587
 30
0.0
 10
37.622711
 20
2.521687
 30
0.0
 10
37.862792
 20
2.088348
 30
0.0
 10
38.155025
 20
1.707422
 30
0.0
 10
38.500310
 20
1.394748
 30
0.0
 10
39.031627
 20
1.090608
 30
0.0
 10
39.608735
 20
0.893945
 30
0.0
 10
40.210746
 20
0.773292
 30
0.0
 10
40.816770
 20
0.697176
 30
0.0
 10
41.984363
 20
0.596386
 30
0.0
 10
43.175092
 20
0.554321
 30
0.0
 10
44.367924
 20
0.592461
 30
0.0
 10
45.541825
 20
0.732276
 30
0.0
 10
46.328542
 20
0.572183
 30
0.0
 10
47.160713
 20
0.486591
 30
0.0
 10
48.122891
 20
0.423886
 30
0.0
 10
49.137886
 20
0.429870
 30
0.0
 10
50.154453
 20
0.533239
 30
0.0
 10
51.121352
 20
0.762720
 30
0.0
 10
51.570162
 20
0.933721
 30
0.0
 10
51.987337
 20
1.147019
 30
0.0
 10
52.366472
 20
1.406200
 30
0.0
 10
52.701162
 20
1.714856
 30
0.0
 10
52.985004
 20
2.076571
 30
0.0
 10
53.211586
 20
2.494938
 30
0.0
 10
53.374510
 20
2.973544
 30
0.0
 10
53.467367
 20
3.515981
 30
0.0
 10
53.509068
 20
4.263037
 30
0.0
 10
53.473113
 20
5.028554
 30
0.0
 10
53.328443
 20
5.774837
 30
0.0
 10
53.043997
 20
6.464204
 30
0.0
 10
52.779244
 20
6.875670
 30
0.0
 10
52.476612
 20
7.257457
 30
0.0
 10
51.807384
 20
7.971835
 30
0.0
 10
51.135672
 20
8.687000
 30
0.0
 10
50.560822
 20
9.482624
 30
0.0
 10
50.220412
 20
10.230002
 30
0.0
 10
49.981564
 20
11.078642
 30
0.0
 10
49.841266
 20
11.995240
 30
0.0
 10
49.796502
 20
12.946496
 30
0.0
 10
49.844263
 20
13.899103
 30
0.0
 10
49.981536
 20
14.819760
 30
0.0
 10
50.205304
 20
15.675161
 30
0.0
 10
50.512562
 20
16.432005
 30
0.0
 10
51.266457
 20
17.708999
 30
0.0
 10
52.166551
 20
18.888857
 30
0.0
 10
52.583698
 20
19.315193
 30
0.0
 10
52.839259
 20
19.462691
 30
0.0
 10
53.127354
 20
19.500878
 30
0.0
 10
53.487139
 20
19.377801
 30
0.0
 10
53.809632
 20
19.133123
 30
0.0
 10
54.338231
 20
18.537880
 30
0.0
 10
55.488276
 20
17.019422
 30
0.0
 10
56.569142
 20
15.449265
 30
0.0
 10
57.568332
 20
14.073784
 30
0.0
 10
58.576820
 20
12.613479
 30
0.0
 10
59.019011
 20
11.849487
 30
0.0
 10
59.384881
 20
11.061855
 30
0.0
 10
59.648211
 20
10.249772
 30
0.0
 10
59.782792
 20
9.412427
 30
0.0
 10
59.745431
 20
8.802802
 30
0.0
 10
59.569124
 20
8.244487
 30
0.0
 10
59.296444
 20
7.721205
 30
0.0
 10
58.969961
 20
7.216668
 30
0.0
 10
58.325876
 20
6.198692
 30
0.0
 10
58.093418
 20
5.652688
 30
0.0
 10
57.977445
 20
5.060290
 30
0.0
 10
58.010682
 20
4.118088
 30
0.0
 10
58.238161
 20
3.131984
 30
0.0
 10
58.426988
 20
2.662084
 30
0.0
 10
58.667066
 20
2.228746
 30
0.0
 10
58.959301
 20
1.847819
 30
0.0
 10
59.304583
 20
1.535145
 30
0.0
 10
59.835900
 20
1.231005
 30
0.0
 10
60.413011
 20
1.034342
 30
0.0
 10
61.015019
 20
0.913689
 30
0.0
 10
61.621043
 20
0.837573
 30
0.0
 10
62.927848
 20
0.728480
 30
0.0
 10
64.260521
 20
0.695991
 30
0.0
 10
65.589624
 20
0.769942
 30
0.0
 10
66.885727
 20
0.980161
 30
0.0
 10
67.702695
 20
1.268905
 30
0.0
 10
68.442022
 20
1.730558
 30
0.0
 10
69.072548
 20
2.334091
 30
0.0
 10
69.563118
 20
3.048477
 30
0.0
 10
69.882577
 20
3.842690
 30
0.0
 10
69.968404
 20
4.260034
 30
0.0
 10
69.999767
 20
4.685702
 30
0.0
 10
69.972786
 20
5.115808
 30
0.0
 10
69.883542
 20
5.546482
 30
0.0
 10
69.728153
 20
5.973843
 30
0.0
 10
69.502726
 20
6.394010
 30
0.0
 10
69.116677
 20
6.909497
 30
0.0
 10
68.666843
 20
7.384796
 30
0.0
 10
67.728090
 20
8.289301
 30
0.0
 10
66.587988
 20
9.529662
 30
0.0
 10
65.499375
 20
10.816350
 30
0.0
 10
64.009518
 20
12.724059
 30
0.0
 10
62.591287
 20
14.696722
 30
0.0
 10
59.815710
 20
18.678277
 30
0.0
 10
58.718902
 20
20.206685
 30
0.0
 10
57.668157
 20
21.766891
 30
0.0
 10
57.133422
 20
22.697855
 30
0.0
 10
56.963254
 20
23.199008
 30
0.0
 10
56.924521
 20
23.732374
 30
0.0
 10
57.022771
 20
24.276713
 30
0.0
 10
57.217451
 20
24.829406
 30
0.0
 10
57.486225
 20
25.383721
 30
0.0
 10
57.806759
 20
25.932932
 30
0.0
 10
59.159817
 20
27.944120
 30
0.0
 10
60.764273
 20
30.359601
 30
0.0
 10
62.452439
 20
32.717432
 30
0.0
 10
63.630104
 20
34.291899
 30
0.0
 10
64.278067
 20
35.036292
 30
0.0
 10
64.990455
 20
35.702948
 30
0.0
 10
65.369265
 20
35.976546
 30
0.0
 10
65.771147
 20
36.207375
 30
0.0
 10
66.617181
 20
36.591359
 30
0.0
 10
67.474651
 20
36.956151
 30
0.0
 10
68.289655
 20
37.403001
 30
0.0
 10
68.764748
 20
37.780239
 30
0.0
 10
69.175780
 20
38.227675
 30
0.0
 10
69.503871
 20
38.729135
 30
0.0
 10
69.730146
 20
39.268456
 30
0.0
 10
69.835722
 20
39.829466
 30
0.0
 10
69.801726
 20
40.395996
 30
0.0
 10
69.609276
 20
40.951875
 30
0.0
 10
69.239494
 20
41.480938
 30
0.0
 10
68.660035
 20
41.968982
 30
0.0
 10
67.996503
 20
42.298482
 30
0.0
 10
67.278281
 20
42.505475
 30
0.0
 10
66.534761
 20
42.626006
 30
0.0
 10
65.659085
 20
42.701566
 30
0.0
 10
64.780448
 20
42.728123
 30
0.0
 10
63.024972
 20
42.687438
 30
0.0
 10
61.738679
 20
42.615429
 30
0.0
 10
61.101134
 20
42.538980
 30
0.0
 10
60.482288
 20
42.410510
 30
0.0
 10
59.893367
 20
42.211224
 30
0.0
 10
59.345590
 20
41.922333
 30
0.0
 10
58.850186
 20
41.525035
 30
0.0
 10
58.418374
 20
41.000545
 30
0.0
 10
58.118996
 20
40.396518
 30
0.0
 10
58.005878
 20
39.807202
 30
0.0
 10
58.030291
 20
39.227548
 30
0.0
 10
58.143546
 20
38.652506
 30
0.0
 10
58.441666
 20
37.496050
 30
0.0
 10
58.529101
 20
36.904535
 30
0.0
 10
58.510503
 20
36.297427
 30
0.0
 10
58.336180
 20
35.566573
 30
0.0
 10
58.040552
 20
34.847697
 30
0.0
 10
57.650103
 20
34.143953
 30
0.0
 10
57.191323
 20
33.458491
 30
0.0
 10
56.174694
 20
32.155034
 30
0.0
 10
55.202528
 20
30.962546
 30
0.0
 10
53.834307
 20
29.221534
 30
0.0
 10
52.414438
 20
27.522955
 30
0.0
 10
51.929143
 20
26.938128
 30
0.0
 10
51.621241
 20
26.678199
 30
0.0
 10
51.463781
 20
26.609418
 30
0.0
 10
51.308855
 20
26.601629
 30
0.0
 10
51.184635
 20
26.655562
 30
0.0
 10
51.093141
 20
26.757128
 30
0.0
 10
50.988324
 20
27.052911
 30
0.0
 10
50.951297
 20
27.663340
 30
0.0
 10
50.881099
 20
31.032738
 30
0.0
 10
50.903903
 20
32.206240
 30
0.0
 10
50.982979
 20
33.423256
 30
0.0
 10
51.174531
 20
34.620790
 30
0.0
 10
51.330058
 20
35.192569
 30
0.0
 10
51.534788
 20
35.735855
 30
0.0
 10
51.769546
 20
36.190278
 30
0.0
 10
52.051021
 20
36.631485
 30
0.0
 10
52.664422
 20
37.501728
 30
0.0
 10
53.195601
 20
38.401580
 30
0.0
 10
53.374298
 20
38.879797
 30
0.0
 10
53.465171
 20
39.386036
 30
0.0
 10
53.464325
 20
39.792362
 30
0.0
 10
53.402309
 20
40.174257
 30
0.0
 10
53.284219
 20
40.531488
 30
0.0
 10
53.115235
 20
40.863839
 30
0.0
 10
52.645335
 20
41.452998
 30
0.0
 10
52.034099
 20
41.939952
 30
0.0
 10
51.323006
 20
42.322914
 30
0.0
 10
50.553544
 20
42.600101
 30
0.0
 10
49.767196
 20
42.769731
 30
0.0
 10
49.005450
 20
42.830016
 30
0.0
 10
49.005450
 20
42.830016
 30
0.0
  0
LWPOLYLINE
  5
101
100
AcDbEntity
  8
merged
 62
7
100
AcDbPolyline
 90
34
 70
0
 10
45.019646
 20
36.093414
 30
0.0
 10
45.269717
 20
35.735855
 30
0.0
 10
45.459760
 20
35.325725
 30
0.0
 10
45.576614
 20
34.885994
 30
0.0
 10
45.679924
 20
33.980961
 30
0.0
 10
45.810565
 20
31.179711
 30
0.0
 10
45.849122
 20
28.369932
 30
0.0
 10
45.826883
 20
22.749637
 30
0.0
 10
45.825190
 20
16.740316
 30
0.0
 10
45.742928
 20
13.735637
 30
0.0
 10
45.535116
 20
10.746156
 30
0.0
 10
45.416662
 20
9.813869
 30
0.0
 10
44.694960
 20
10.675961
 30
0.0
 10
43.205106
 20
12.583668
 30
0.0
 10
41.786872
 20
14.556331
 30
0.0
 10
39.011298
 20
18.537888
 30
0.0
 10
37.914490
 20
20.066296
 30
0.0
 10
36.863745
 20
21.626503
 30
0.0
 10
36.329010
 20
22.557466
 30
0.0
 10
36.158842
 20
23.058620
 30
0.0
 10
36.120110
 20
23.591986
 30
0.0
 10
36.218360
 20
24.136325
 30
0.0
 10
36.413036
 20
24.689017
 30
0.0
 10
36.681811
 20
25.243333
 30
0.0
 10
37.002345
 20
25.792543
 30
0.0
 10
38.355405
 20
27.803732
 30
0.0
 10
39.959861
 20
30.219213
 30
0.0
 10
41.648027
 20
32.577044
 30
0.0
 10
42.825693
 20
34.151511
 30
0.0
 10
43.473655
 20
34.895903
 30
0.0
 10
44.186043
 20
35.562560
 30
0.0
 10
44.590027
 20
35.851711
 30
0.0
 10
45.019618
 20
36.093414
 30
0.0
 10
45.019618
 20
36.093414
 30
0.0
  0
LWPOLYLINE
  5
102
100
AcDbEntity
  8
merged
 62
7
100
AcDbPolyline
 90
41
 70
0
 10
14.890273
 20
31.839989
 30
0.0
 10
15.103275
 20
31.761952
 30
0.0
 10
15.282167
 20
31.593482
 30
0.0
 10
15.530807
 20
31.181904
 30
0.0
 10
15.779366
 20
30.554109
 30
0.0
 10
15.956091
 20
29.908000
 30
0.0
 10
16.195475
 20
28.584660
 30
0.0
 10
16.903251
 20
24.388837
 30
0.0
 10
17.170595
 20
22.275300
 30
0.0
 10
17.248731
 20
21.217848
 30
0.0
 10
17.276925
 20
20.161165
 30
0.0
 10
17.250593
 20
19.236571
 30
0.0
 10
17.194651
 20
18.782064
 30
0.0
 10
17.089718
 20
18.351333
 30
0.0
 10
16.920444
 20
17.958319
 30
0.0
 10
16.671468
 20
17.616957
 30
0.0
 10
16.327442
 20
17.341184
 30
0.0
 10
15.873008
 20
17.144941
 30
0.0
 10
15.211727
 20
17.026057
 30
0.0
 10
14.539287
 20
17.002351
 30
0.0
 10
14.016792
 20
17.016321
 30
0.0
 10
13.472778
 20
17.082412
 30
0.0
 10
12.956388
 20
17.237346
 30
0.0
 10
12.516773
 20
17.517844
 30
0.0
 10
12.303766
 20
17.757453
 30
0.0
 10
12.143732
 20
18.025070
 30
0.0
 10
11.952292
 20
18.620139
 30
0.0
 10
11.881860
 20
19.254693
 30
0.0
 10
11.871841
 20
19.880371
 30
0.0
 10
11.949492
 20
21.359289
 30
0.0
 10
12.157146
 20
22.821451
 30
0.0
 10
12.456863
 20
24.269638
 30
0.0
 10
12.810710
 20
25.706620
 30
0.0
 10
13.299889
 20
27.742301
 30
0.0
 10
13.669013
 20
29.297452
 30
0.0
 10
14.118107
 20
30.830912
 30
0.0
 10
14.337242
 20
31.407529
 30
0.0
 10
14.512589
 20
31.669474
 30
0.0
 10
14.752063
 20
31.824622
 30
0.0
 10
14.890262
 20
31.839975
 30
0.0
 10
14.890262
 20
31.839975
 30
0.0
  0
ENDSEC
  0
SECTION
  2
OBJECTS
  0
DICTIONARY
  5
C
330
0
100
AcDbDictionary
  3
ACAD_GROUP
350
D
  3
ACAD_MLINESTYLE
350
17
  0
DICTIONARY
  5
D
330
C
100
AcDbDictionary
  0
DICTIONARY
  5
1A
330
C
100
AcDbDictionary
  0
DICTIONARY
  5
17
330
C
100
AcDbDictionary
  3
STANDARD
350
18
  0
DICTIONARY
  5
19
330
C
100
AcDbDictionary
  0
ENDSEC
  0
EOF
