<?xml version="1.0" encoding="UTF-8" standalone="no"?>
<!-- Created with Inkscape (http://www.inkscape.org/) -->

<svg
   xmlns:dc="http://purl.org/dc/elements/1.1/"
   xmlns:cc="http://creativecommons.org/ns#"
   xmlns:rdf="http://www.w3.org/1999/02/22-rdf-syntax-ns#"
   xmlns:svg="http://www.w3.org/2000/svg"
   xmlns="http://www.w3.org/2000/svg"
   xmlns:sodipodi="http://sodipodi.sourceforge.net/DTD/sodipodi-0.dtd"
   xmlns:inkscape="http://www.inkscape.org/namespaces/inkscape"
   width="248.03067"
   height="151.7599"
   id="svg3105"
   version="1.1"
   inkscape:version="0.48.1 r9760"
   sodipodi:docname="AKK.dxf">
  <sodipodi:namedview
     id="base"
     pagecolor="#ffffff"
     bordercolor="#666666"
     borderopacity="1.0"
     inkscape:pageopacity="0.0"
     inkscape:pageshadow="2"
     inkscape:zoom="2.8"
     inkscape:cx="116.16365"
     inkscape:cy="68.282378"
     inkscape:document-units="px"
     inkscape:current-layer="layer1"
     showgrid="false"
     inkscape:window-width="1366"
     inkscape:window-height="710"
     inkscape:window-x="0"
     inkscape:window-y="26"
     inkscape:window-maximized="1"
     fit-margin-top="0"
     fit-margin-left="0"
     fit-margin-right="0"
     fit-margin-bottom="0" />
  <defs
     id="defs3107" />
  <metadata
     id="metadata3110">
    <rdf:RDF>
      <cc:Work
         rdf:about="">
        <dc:format>image/svg+xml</dc:format>
        <dc:type
           rdf:resource="http://purl.org/dc/dcmitype/StillImage" />
        <dc:title></dc:title>
      </cc:Work>
    </rdf:RDF>
  </metadata>
  <g
     id="layer1"
     inkscape:groupmode="layer"
     inkscape:label="Layer 1"
     transform="translate(-258.83635,-365.00783)">
    <path
       id="path8424"
       d="m 432.47844,365.00789 -2.05976,0.12436 -4.20136,0.51594 -4.18534,0.74323 -1.15813,-0.16322 -3.10279,-0.26773 -3.11329,-0.0941 -6.22018,0.14416 -4.55773,0.25515 -2.25902,0.27088 -2.19276,0.45521 -2.08673,0.70613 -1.94094,1.02363 -1.75537,1.40775 -1.53004,1.85843 -1.06079,2.14025 -0.40081,2.08813 0.0866,2.05389 0.40129,2.03755 1.05634,4.09768 0.3098,2.09592 -0.0659,2.15117 -0.61769,2.58964 -1.0475,2.5472 -1.38347,2.49358 -1.6256,2.4288 -3.60224,4.61855 -3.44467,4.22535 -4.84803,6.16894 -5.03103,6.01859 -1.71956,2.07222 -1.09098,0.92101 -0.55793,0.24371 -0.54895,0.0276 -0.44015,-0.1911 -0.32419,-0.35988 -0.3714,-1.04804 -0.1312,-2.16295 -0.24873,-11.93881 0.0808,-4.15808 0.28018,-4.31226 0.67874,-4.24323 0.55108,-2.02599 0.72541,-1.92503 0.83183,-1.61016 0.99735,-1.56333 2.17346,-3.08354 1.88214,-3.18845 0.63318,-1.69446 0.32199,-1.79377 -0.003,-1.43974 -0.21974,-1.35317 -0.41844,-1.26578 -0.59875,-1.17762 -1.665,-2.08757 -2.16581,-1.72543 -2.51961,-1.35695 -2.72645,-0.98216 -2.78626,-0.60105 -2.69911,-0.21361 -2.05975,0.12436 -5.58045,0.71033 -2.7515,0.53198 -2.56526,0.80544 -2.25874,1.19557 -0.97683,0.78055 -0.85509,0.92184 -0.7183,1.07771 -0.56648,1.24817 -0.39962,1.43321 -0.21773,1.63284 -0.0807,4.17961 0.28052,2.08478 0.64741,1.94355 1.05834,1.72886 1.29093,1.56226 1.33272,1.53341 1.1837,1.64232 0.67338,1.45322 0.41405,1.5581 0.36606,3.20681 0.4629,9.92569 0.13662,9.95591 -0.0788,19.91444 -0.006,21.29286 -0.29148,10.64651 -0.73634,10.59264 -0.0466,0.51299 -0.9094,-2.28516 -1.91712,-6.45366 -1.46066,-6.5995 -2.28072,-13.31171 -2.17645,-14.23187 -1.98018,-14.29399 -2.08987,-14.27058 -2.50552,-14.16164 -0.79051,-3.79495 -0.99671,-4.05038 -1.2932,-4.06749 -1.67999,-3.84625 -1.01326,-1.76569 -1.14383,-1.62101 -1.28567,-1.44654 -1.4388,-1.24227 -1.60322,-1.00821 -1.77893,-0.74438 -1.96593,-0.45073 -2.16421,-0.1273 -1.8499,0.14768 -2.07234,0.43843 -1.9442,0.71595 -1.82002,0.96746 -1.69982,1.19299 -1.58361,1.39251 -1.47137,1.56605 -2.62191,3.54868 -2.22069,3.93084 -1.85127,4.10501 -1.51369,4.07123 -1.20791,3.82945 -1.72119,6.30833 -1.51197,6.35435 -2.5618,12.80977 -4.43386,25.76494 -2.55789,14.35755 -1.67677,7.11133 -1.05347,3.47955 -1.24091,3.40625 -1.83588,3.8005 -2.25064,3.53046 -2.53724,3.34713 -2.69566,3.25052 -3.62957,4.22923 -1.64127,2.28751 -1.23488,2.43737 -0.49625,1.76533 -0.17265,1.77017 0.12054,1.75582 0.38337,1.72223 0.61579,1.66945 0.81784,1.59743 2.12024,2.902 2.14467,1.94184 2.43257,1.43395 2.65571,0.98823 2.81411,0.6047 2.90776,0.28334 2.93665,0.0242 5.70099,-0.48049 2.37147,-0.35648 2.40051,-0.57177 2.24722,-0.93543 1.00914,-0.65046 0.90245,-0.79702 0.86252,-1.04208 0.6821,-1.12504 0.87531,-2.45437 0.31083,-2.65248 -0.14881,-2.76142 -0.50361,-2.78123 -0.75359,-2.71189 -1.83775,-4.85919 -1.12511,-2.44068 -0.95746,-2.42964 -0.27584,-1.23042 -0.0659,-1.25132 0.20006,-1.28013 0.52203,-1.31682 0.67156,-1.05493 0.77794,-0.84087 0.87286,-0.65546 0.95637,-0.49868 2.11748,-0.64155 2.31427,-0.35807 4.9915,-0.43766 5.2151,-0.12144 5.21066,0.21251 4.97821,0.56423 2.0706,0.37277 1.96801,0.57235 1.78889,0.9334 1.53321,1.45595 0.72111,1.11882 0.45851,1.14185 0.22471,1.16174 0.0197,1.17848 -0.46022,2.39459 -0.93439,2.4238 -2.36927,4.83454 -0.97386,2.36039 -0.52601,2.2889 -0.13992,2.81691 0.26624,2.86214 0.3513,1.37544 0.53188,1.29961 0.73882,1.19475 0.97211,1.06084 1.55319,1.02403 1.72656,0.59091 3.66124,0.49922 6.08154,0.36479 6.20704,-0.13161 1.75343,0.68194 1.82681,0.41641 3.86597,0.44064 3.40929,0.22218 3.59644,-0.0212 3.60201,-0.36628 3.42602,-0.81311 1.59027,-0.60592 1.47818,-0.75577 1.34339,-0.91836 1.18591,-1.09366 1.00573,-1.28167 0.80286,-1.4824 0.57729,-1.69585 0.32901,-1.92203 0.14777,-2.64705 -0.1274,-2.71245 -0.51262,-2.64432 -1.00787,-2.44263 -0.93811,-1.45795 -1.07232,-1.3528 -2.37127,-2.53125 -2.38009,-2.53405 -2.03687,-2.81914 -1.20617,-2.64819 -0.84631,-3.00699 -0.49712,-3.24779 -0.15861,-3.37059 0.16923,-3.37538 0.48639,-3.26217 0.79289,-3.03095 1.08871,-2.68173 2.67128,-4.52478 3.1893,-4.18061 1.47809,-1.51063 0.90552,-0.52263 1.02082,-0.13531 1.27483,0.4361 1.14268,0.86697 1.873,2.10913 4.07496,5.38036 3.82984,5.56355 3.54044,4.87375 3.57338,5.17431 1.56682,2.70706 1.29638,2.79082 0.93307,2.87746 0.47686,2.96697 -0.13238,2.16009 -0.62471,1.97827 -0.96619,1.85416 -1.15683,1.78773 -2.2822,3.60699 -0.82367,1.93467 -0.41092,2.09905 0.11776,3.33851 0.80603,3.49407 0.66907,1.665 0.85068,1.53545 1.03547,1.34974 1.22345,1.1079 1.88262,1.07766 2.04487,0.69684 2.13311,0.42751 2.14733,0.2697 4.13714,0.35713 4.21912,0.14905 4.22657,-0.13514 4.15949,-0.49541 2.78758,0.56726 2.94864,0.30328 3.40929,0.22218 3.59644,-0.0212 3.60201,-0.36627 3.42602,-0.81312 1.59027,-0.60591 1.47818,-0.75578 1.34339,-0.91836 1.18591,-1.09366 1.00574,-1.28167 0.80285,-1.4824 0.57729,-1.69585 0.32902,-1.92202 0.14776,-2.64705 -0.1274,-2.71246 -0.51261,-2.64431 -1.00788,-2.44264 -0.9381,-1.45795 -1.07232,-1.35279 -2.37128,-2.53126 -2.38008,-2.53405 -2.03687,-2.81914 -1.20618,-2.64819 -0.84631,-3.00699 -0.49712,-3.24779 -0.15861,-3.37059 0.16923,-3.37538 0.4864,-3.26217 0.79288,-3.03095 1.08871,-2.68173 2.67128,-4.52478 3.18931,-4.1806 1.47808,-1.51064 0.90553,-0.52263 1.02081,-0.13531 1.27483,0.4361 1.14269,0.86697 1.87299,2.10913 4.07496,5.38036 3.82984,5.56355 3.54044,4.87375 3.57338,5.17431 1.56682,2.70706 1.29639,2.79082 0.93306,2.87746 0.47686,2.96697 -0.13238,2.16009 -0.62471,1.97828 -0.96619,1.85415 -1.15683,1.78773 -2.28219,3.607 -0.82367,1.93466 -0.41093,2.09905 0.11777,3.33851 0.80603,3.49407 0.66907,1.665 0.85067,1.53545 1.03548,1.34974 1.22344,1.1079 1.88262,1.07766 2.04488,0.69684 2.1331,0.42751 2.14733,0.2697 4.63041,0.38655 4.72207,0.11512 4.70942,-0.26203 4.59249,-0.74487 2.89477,-1.02311 2.61966,-1.63578 2.23415,-2.1385 1.73824,-2.53129 1.13194,-2.81414 0.30411,-1.47878 0.11113,-1.50827 -0.0956,-1.524 -0.31622,-1.52601 -0.55059,-1.51427 -0.79876,-1.48878 -1.36789,-1.82653 -1.5939,-1.68413 -3.32629,-3.20494 -4.03973,-4.39498 -3.85729,-4.55913 -5.27902,-6.7596 -5.02523,-6.98975 -9.83472,-14.10787 -3.88633,-5.41562 -3.72311,-5.52829 -1.89473,-3.29869 -0.60296,-1.77574 -0.13724,-1.88988 0.34813,-1.92876 0.68981,-1.95836 0.95235,-1.96411 1.13575,-1.94602 4.7943,-7.12626 5.68508,-8.55879 5.98169,-8.35452 4.17283,-5.57882 2.29593,-2.63761 2.52421,-2.36217 1.34224,-0.96944 1.42399,-0.8179 2.99776,-1.36057 3.03828,-1.29257 2.88781,-1.58333 1.6834,-1.33667 1.45641,-1.5854 1.16253,-1.77683 0.80176,-1.91098 0.37409,-1.98783 -0.12046,-2.00739 -0.68191,-1.96965 -1.31025,-1.87463 -2.0532,-1.72929 -2.3511,-1.16752 -2.54488,-0.73344 -2.63452,-0.42708 -3.10279,-0.26773 -3.11328,-0.0941 -6.22019,0.14416 -4.55773,0.25515 -2.25902,0.27088 -2.19276,0.45521 -2.08673,0.70613 -1.94094,1.02363 -1.75537,1.40775 -1.53004,1.85843 -1.06079,2.14025 -0.40081,2.08813 0.0865,2.05389 0.4013,2.03755 1.05633,4.09768 0.30981,2.09592 -0.0659,2.15117 -0.61768,2.58964 -1.0475,2.5472 -1.38348,2.49358 -1.6256,2.4288 -3.60223,4.61855 -3.44468,4.22535 -4.84803,6.16894 -5.03103,6.01859 -1.71955,2.07222 -1.09099,0.92101 -0.55793,0.24371 -0.54895,0.0276 -0.44015,-0.1911 -0.32419,-0.35988 -0.3714,-1.04805 -0.1312,-2.16294 -0.24873,-11.93881 0.0808,-4.15808 0.28019,-4.31226 0.67873,-4.24323 0.55108,-2.02599 0.72542,-1.92503 0.83182,-1.61016 0.99735,-1.56333 2.17347,-3.08354 1.88213,-3.18845 0.63318,-1.69447 0.32199,-1.79376 -0.003,-1.43974 -0.21974,-1.35317 -0.41843,-1.26578 -0.59876,-1.17762 -1.665,-2.08757 -2.1658,-1.72543 -2.51962,-1.35695 -2.72644,-0.98216 -2.78627,-0.60105 -2.6991,-0.21361 0,0 m -14.12293,23.86985 0.88608,1.26694 0.67338,1.45322 0.41405,1.5581 0.36606,3.20681 0.4629,9.92569 0.13662,9.95591 -0.0788,19.91443 -0.006,21.29287 -0.29148,10.6465 -0.73634,10.59265 -0.41972,3.30338 -2.55721,-3.05466 -5.27901,-6.75959 -5.02524,-6.98975 -9.83471,-14.10788 -3.88633,-5.41562 -3.72311,-5.52829 -1.89473,-3.29869 -0.60296,-1.77574 -0.13724,-1.88988 0.34813,-1.92876 0.6898,-1.95836 0.95235,-1.96411 1.13575,-1.94602 4.79431,-7.12626 5.68508,-8.55879 5.98169,-8.35452 4.17283,-5.57882 2.29593,-2.63761 2.52421,-2.36217 1.43144,-1.02455 1.52217,-0.85643 0,0 m -106.75752,15.07119 0.75473,0.27651 0.63387,0.59694 0.88101,1.45835 0.88072,2.22447 0.62619,2.28936 0.84821,4.689 2.50787,14.86709 0.94728,7.48891 0.27686,3.74688 0.0999,3.74415 -0.0933,3.27612 -0.19822,1.61046 -0.37181,1.52621 -0.59979,1.39257 -0.8822,1.20955 -1.21899,0.97715 -1.6102,0.69535 -2.34312,0.42124 -2.38266,0.084 -1.85136,-0.0495 -1.92761,-0.23418 -1.82973,-0.54898 -1.55769,-0.99389 -0.75475,-0.84901 -0.56705,-0.94825 -0.67833,-2.10851 -0.24956,-2.24842 -0.0355,-2.21697 0.27514,-5.24026 0.73578,-5.18089 1.06199,-5.13137 1.25379,-5.09167 1.73331,-7.21304 1.30792,-5.51038 1.59128,-5.43352 0.77646,-2.04313 0.62131,-0.92815 0.84853,-0.54974 0.48968,-0.0544 0,0"
       style="fill:#010101;stroke:none"
       inkscape:connector-curvature="0"
       sodipodi:nodetypes="ccccccccccccccccccccccccccccccccccccccccccccccccccccccccccccccccccccccccccccccccccccccccccccccccccccccccccccccccccccccccccccccccccccccccccccccccccccccccccccccccccccccccccccccccccccccccccccccccccccccccccccccccccccccccccccccccccccccccccccccccccccccccccccccccccccccccccccccccccccccccccccccccccccccccccccccccccccccccccccccccccccccccccccccccccccccccccccccccccccccccccccccccccccccccccccccccccccccccccccccccccccccccccccccccccccccccccccccccccccccccccccccccccccccccccccccccccccccccccccccccccccccccccccccccccccccccccccccccccccccccc" />
  </g>
</svg>
