999
DXF created by Inkscape
  0
SECTION
  2
HEADER
  9
$ACADVER
  1
AC1014
  9
$HANDSEED
  5
FFFF
  9
$MEASUREMENT
 70
     1
  0
ENDSEC
  0
SECTION
  2
TABLES
  0
TABLE
  2
VPORT
  5
8
330
0
100
AcDbSymbolTable
 70
     4
  0
VPORT
  5
2E
330
8
100
AcDbSymbolTableRecord
100
AcDbViewportTableRecord
  2
*ACTIVE
 70
     0
 10
0.0
 20
0.0
 11
1.0
 21
1.0
 12
210.0
 22
148.5
 13
0.0
 23
0.0
 14
10.0
 24
10.0
 15
10.0
 25
10.0
 16
0.0
 26
0.0
 36
1.0
 17
0.0
 27
0.0
 37
0.0
 40
341.0
 41
1.24
 42
50.0
 43
0.0
 44
0.0
 50
0.0
 51
0.0
 71
     0
 72
   100
 73
     1
 74
     3
 75
     0
 76
     0
 77
     0
 78
     0
  0
ENDTAB
  0
TABLE
  2
LTYPE
  5
5
330
0
100
AcDbSymbolTable
 70
     1
  0
LTYPE
  5
14
330
5
100
AcDbSymbolTableRecord
100
AcDbLinetypeTableRecord
  2
BYBLOCK
 70
     0
  3

 72
    65
 73
     0
 40
0.0
  0
LTYPE
  5
15
330
5
100
AcDbSymbolTableRecord
100
AcDbLinetypeTableRecord
  2
BYLAYER
 70
     0
  3

 72
    65
 73
     0
 40
0.0
  0
LTYPE
  5
16
330
5
100
AcDbSymbolTableRecord
100
AcDbLinetypeTableRecord
  2
CONTINUOUS
 70
     0
  3
Solid line
 72
    65
 73
     0
 40
0.0
  0
ENDTAB
  0
TABLE
  2
LAYER
  5
2
100
AcDbSymbolTable
 70
2
  0
LAYER
  5
50
100
AcDbSymbolTableRecord
100
AcDbLayerTableRecord
  2
0
 70
0
  6
CONTINUOUS
  0
LAYER
  5
51
100
AcDbSymbolTableRecord
100
AcDbLayerTableRecord
  2
Layer_1
 70
0
  6
CONTINUOUS
  0
ENDTAB
  0
TABLE
  2
STYLE
  5
3
330
0
100
AcDbSymbolTable
 70
     1
  0
STYLE
  5
11
330
3
100
AcDbSymbolTableRecord
100
AcDbTextStyleTableRecord
  2
STANDARD
 70
     0
 40
0.0
 41
1.0
 50
0.0
 71
     0
 42
2.5
  3
txt
  4

  0
ENDTAB
  0
TABLE
  2
VIEW
  5
6
330
0
100
AcDbSymbolTable
 70
     0
  0
ENDTAB
  0
TABLE
  2
UCS
  5
7
330
0
100
AcDbSymbolTable
 70
     0
  0
ENDTAB
  0
TABLE
  2
APPID
  5
9
330
0
100
AcDbSymbolTable
 70
     2
  0
APPID
  5
12
330
9
100
AcDbSymbolTableRecord
100
AcDbRegAppTableRecord
  2
ACAD
 70
     0
  0
ENDTAB
  0
TABLE
  2
DIMSTYLE
  5
A
330
0
100
AcDbSymbolTable
 70
     1
  0
DIMSTYLE
105
27
330
A
100
AcDbSymbolTableRecord
100
AcDbDimStyleTableRecord
  2
ISO-25
 70
     0
  3

  4

  5

  6

  7

 40
1.0
 41
2.5
 42
0.625
 43
3.75
 44
1.25
 45
0.0
 46
0.0
 47
0.0
 48
0.0
140
2.5
141
2.5
142
0.0
143
0.03937007874016
144
1.0
145
0.0
146
1.0
147
0.625
 71
     0
 72
     0
 73
     0
 74
     0
 75
     0
 76
     0
 77
     1
 78
     8
170
     0
171
     3
172
     1
173
     0
174
     0
175
     0
176
     0
177
     0
178
     0
270
     2
271
     2
272
     2
273
     2
274
     3
340
11
275
     0
280
     0
281
     0
282
     0
283
     0
284
     8
285
     0
286
     0
287
     3
288
     0
  0
ENDTAB
  0
TABLE
  2
BLOCK_RECORD
  5
1
330
0
100
AcDbSymbolTable
 70
     1
  0
BLOCK_RECORD
  5
1F
330
1
100
AcDbSymbolTableRecord
100
AcDbBlockTableRecord
  2
*MODEL_SPACE
  0
BLOCK_RECORD
  5
1B
330
1
100
AcDbSymbolTableRecord
100
AcDbBlockTableRecord
  2
*PAPER_SPACE
  0
ENDTAB
  0
ENDSEC
  0
SECTION
  2
BLOCKS
  0
BLOCK
  5
20
330
1F
100
AcDbEntity
  8
0
100
AcDbBlockBegin
  2
*MODEL_SPACE
 70
     0
 10
0.0
 20
0.0
 30
0.0
  3
*MODEL_SPACE
  1

  0
ENDBLK
  5
21
330
1F
100
AcDbEntity
  8
0
100
AcDbBlockEnd
  0
BLOCK
  5
1C
330
1B
100
AcDbEntity
 67
     1
  8
0
100
AcDbBlockBegin
  2
*PAPER_SPACE
  1

  0
ENDBLK
  5
1D
330
1B
100
AcDbEntity
 67
     1
  8
0
100
AcDbBlockEnd
  0
ENDSEC
  0
SECTION
  2
ENTITIES
  0
LWPOLYLINE
  5
100
100
AcDbEntity
  8
Layer_1
 62
7
100
AcDbPolyline
 90
41
 70
0
 10
5.709579
 20
7.958353
 30
0.0
 10
5.754268
 20
8.194576
 30
0.0
 10
5.888344
 20
8.392501
 30
0.0
 10
6.086266
 20
8.526571
 30
0.0
 10
6.322495
 20
8.571270
 30
0.0
 10
9.387078
 20
8.571270
 30
0.0
 10
9.674377
 20
8.504225
 30
0.0
 10
9.897841
 20
8.303119
 30
0.0
 10
9.974453
 20
8.133921
 30
0.0
 10
9.999994
 20
7.958353
 30
0.0
 10
9.948918
 20
7.715738
 30
0.0
 10
8.799700
 20
4.983153
 30
0.0
 10
8.340011
 20
3.885009
 30
0.0
 10
7.893092
 20
2.837945
 30
0.0
 10
7.510021
 20
1.918572
 30
0.0
 10
7.241870
 20
1.267344
 30
0.0
 10
9.387078
 20
1.267344
 30
0.0
 10
9.623304
 20
1.222654
 30
0.0
 10
9.821226
 20
1.088579
 30
0.0
 10
9.955299
 20
0.890659
 30
0.0
 10
9.999994
 20
0.654428
 30
0.0
 10
9.955299
 20
0.418203
 30
0.0
 10
9.821226
 20
0.220280
 30
0.0
 10
9.623304
 20
0.086205
 30
0.0
 10
9.387078
 20
0.041512
 30
0.0
 10
6.322495
 20
0.041512
 30
0.0
 10
6.035190
 20
0.108548
 30
0.0
 10
5.811732
 20
0.309663
 30
0.0
 10
5.735114
 20
0.478855
 30
0.0
 10
5.709573
 20
0.654428
 30
0.0
 10
5.760649
 20
0.897041
 30
0.0
 10
6.897099
 20
3.616858
 30
0.0
 10
7.356785
 20
4.715002
 30
0.0
 10
7.790934
 20
5.774837
 30
0.0
 10
8.186776
 20
6.681442
 30
0.0
 10
8.467697
 20
7.345434
 30
0.0
 10
6.322489
 20
7.345434
 30
0.0
 10
6.086261
 20
7.390122
 30
0.0
 10
5.888338
 20
7.524202
 30
0.0
 10
5.754263
 20
7.722119
 30
0.0
 10
5.709573
 20
7.958353
 30
0.0
  0
LWPOLYLINE
  5
101
100
AcDbEntity
  8
Layer_1
 62
7
100
AcDbPolyline
 90
34
 70
0
 10
5.280011
 20
0.769349
 30
0.0
 10
5.295985
 20
0.523548
 30
0.0
 10
5.216175
 20
0.296895
 30
0.0
 10
5.069326
 20
0.118127
 30
0.0
 10
4.858642
 20
0.015974
 30
0.0
 10
4.612832
 20
0.000000
 30
0.0
 10
4.386185
 20
0.079810
 30
0.0
 10
4.207414
 20
0.226655
 30
0.0
 10
4.105264
 20
0.437346
 30
0.0
 10
4.003111
 20
0.807649
 30
0.0
 10
3.875422
 20
1.229030
 30
0.0
 10
3.734960
 20
1.778104
 30
0.0
 10
1.564214
 20
1.778104
 30
0.0
 10
1.410984
 20
1.229030
 30
0.0
 10
1.296063
 20
0.807649
 30
0.0
 10
1.193910
 20
0.437346
 30
0.0
 10
1.091757
 20
0.226655
 30
0.0
 10
0.912989
 20
0.079810
 30
0.0
 10
0.686339
 20
0.000006
 30
0.0
 10
0.440535
 20
0.015951
 30
0.0
 10
0.226650
 20
0.118104
 30
0.0
 10
0.070231
 20
0.296872
 30
0.0
 10
-0.000000
 20
0.523525
 30
0.0
 10
0.019163
 20
0.769326
 30
0.0
 10
2.062218
 20
8.175405
 30
0.0
 10
2.138830
 20
8.357359
 30
0.0
 10
2.266524
 20
8.494632
 30
0.0
 10
2.445289
 20
8.590396
 30
0.0
 10
2.649595
 20
8.622326
 30
0.0
 10
2.850707
 20
8.590396
 30
0.0
 10
3.019899
 20
8.494632
 30
0.0
 10
3.157166
 20
8.357359
 30
0.0
 10
3.236973
 20
8.175405
 30
0.0
 10
5.280031
 20
0.769326
 30
0.0
  0
LWPOLYLINE
  5
102
100
AcDbEntity
  8
Layer_1
 62
7
100
AcDbPolyline
 90
6
 70
0
 10
3.390203
 20
3.003920
 30
0.0
 10
3.019899
 20
4.370214
 30
0.0
 10
2.649595
 20
5.698199
 30
0.0
 10
2.279292
 20
4.370214
 30
0.0
 10
1.908988
 20
3.003920
 30
0.0
 10
3.390203
 20
3.003920
 30
0.0
  0
ENDSEC
  0
SECTION
  2
OBJECTS
  0
DICTIONARY
  5
C
330
0
100
AcDbDictionary
  3
ACAD_GROUP
350
D
  3
ACAD_MLINESTYLE
350
17
  0
DICTIONARY
  5
D
330
C
100
AcDbDictionary
  0
DICTIONARY
  5
1A
330
C
100
AcDbDictionary
  0
DICTIONARY
  5
17
330
C
100
AcDbDictionary
  3
STANDARD
350
18
  0
DICTIONARY
  5
19
330
C
100
AcDbDictionary
  0
ENDSEC
  0
EOF
