<?xml version="1.0" encoding="UTF-8" standalone="no"?>
<!-- Created with Inkscape (http://www.inkscape.org/) -->

<svg
   xmlns:dc="http://purl.org/dc/elements/1.1/"
   xmlns:cc="http://creativecommons.org/ns#"
   xmlns:rdf="http://www.w3.org/1999/02/22-rdf-syntax-ns#"
   xmlns:svg="http://www.w3.org/2000/svg"
   xmlns="http://www.w3.org/2000/svg"
   xmlns:sodipodi="http://sodipodi.sourceforge.net/DTD/sodipodi-0.dtd"
   xmlns:inkscape="http://www.inkscape.org/namespaces/inkscape"
   sodipodi:docname="AZ.svg"
   inkscape:version="0.48.2 r9819"
   version="1.1"
   id="svg2"
   height="30.55155"
   width="35.433048">
  <sodipodi:namedview
     id="base"
     pagecolor="#ffffff"
     bordercolor="#666666"
     borderopacity="1.0"
     inkscape:pageopacity="0.0"
     inkscape:pageshadow="2"
     inkscape:zoom="13.143656"
     inkscape:cx="17.856049"
     inkscape:cy="18.76403"
     inkscape:document-units="px"
     inkscape:current-layer="layer1"
     showgrid="false"
     fit-margin-top="0"
     fit-margin-left="0"
     fit-margin-right="0"
     fit-margin-bottom="0"
     inkscape:window-width="1366"
     inkscape:window-height="710"
     inkscape:window-x="0"
     inkscape:window-y="26"
     inkscape:window-maximized="1" />
  <defs
     id="defs4" />
  <metadata
     id="metadata7">
    <rdf:RDF>
      <cc:Work
         rdf:about="">
        <dc:format>image/svg+xml</dc:format>
        <dc:type
           rdf:resource="http://purl.org/dc/dcmitype/StillImage" />
        <dc:title></dc:title>
      </cc:Work>
    </rdf:RDF>
  </metadata>
  <g
     inkscape:label="Layer 1"
     inkscape:groupmode="layer"
     id="layer1"
     transform="translate(-151.14794,-429.64506)">
    <path
       d="m 171.37873,431.99772 0.15835,-0.83701 0.47507,-0.70131 0.7013,-0.47505 0.83703,-0.15838 10.85876,0 1.01799,0.23756 0.7918,0.71258 0.27146,0.59952 0.0905,0.62209 -0.18098,0.85966 -4.07203,9.68239 -1.62882,3.89106 -1.58357,3.71007 -1.35734,3.25762 -0.95014,2.3075 7.60113,0 0.83702,0.15835 0.7013,0.47507 0.47506,0.70129 0.15837,0.83704 -0.15837,0.83702 -0.47506,0.7013 -0.7013,0.47507 -0.83702,0.15836 -10.85876,0 -1.01801,-0.23753 -0.79178,-0.71261 -0.27148,-0.5995 -0.0905,-0.62211 0.18098,-0.85965 4.02679,-9.63715 1.62881,-3.89106 1.53832,-3.75532 1.40259,-3.21238 0.99539,-2.35273 -7.60113,0 -0.83703,-0.15834 -0.7013,-0.47509 -0.47507,-0.70128 -0.15835,-0.83705 m -1.52207,25.47285 0.0566,0.87095 -0.28279,0.8031 -0.52033,0.63343 -0.74652,0.36196 -0.87098,0.0566 -0.80308,-0.28279 -0.63344,-0.52032 -0.36195,-0.74654 -0.36196,-1.3121 -0.45244,-1.49308 -0.4977,-1.94554 -7.69162,0 -0.54294,1.94554 -0.4072,1.49308 -0.36196,1.3121 -0.36196,0.74654 -0.63343,0.52032 -0.80309,0.28277 -0.87096,-0.0565 -0.75786,-0.36196 -0.55424,-0.63343 -0.24885,-0.8031 0.0679,-0.87095 7.23917,-26.24201 0.27146,-0.64472 0.45246,-0.4864 0.63342,-0.33932 0.72392,-0.11314 0.7126,0.11314 0.5995,0.33932 0.48638,0.4864 0.28278,0.64472 7.23918,26.24201 m -6.69624,-7.91785 -1.3121,-4.8412 -1.3121,-4.70546 -1.3121,4.70546 -1.3121,4.8412 5.2484,0"
       style="font-size:40px;font-style:normal;font-variant:normal;font-weight:bold;font-stretch:normal;line-height:125%;letter-spacing:0px;word-spacing:0px;fill:#000000;fill-opacity:1;stroke:none;font-family:Miso;-inkscape-font-specification:Miso Bold"
       id="path2990"
       inkscape:connector-curvature="0" />
  </g>
</svg>
