  0
SECTION
  2
HEADER
  9
$ACADVER
  1
AC1014
  9
$HANDSEED
  5
FFFF
  9
$MEASUREMENT
 70
     1
  0
ENDSEC
  0
SECTION
  2
TABLES
  0
TABLE
  2
VPORT
  5
8
330
0
100
AcDbSymbolTable
 70
     4
  0
VPORT
  5
2E
330
8
100
AcDbSymbolTableRecord
100
AcDbViewportTableRecord
  2
*ACTIVE
 70
     0
 10
0.0
 20
0.0
 11
1.0
 21
1.0
 12
210.0
 22
148.5
 13
0.0
 23
0.0
 14
10.0
 24
10.0
 15
10.0
 25
10.0
 16
0.0
 26
0.0
 36
1.0
 17
0.0
 27
0.0
 37
0.0
 40
341.0
 41
1.24
 42
50.0
 43
0.0
 44
0.0
 50
0.0
 51
0.0
 71
     0
 72
   100
 73
     1
 74
     3
 75
     0
 76
     0
 77
     0
 78
     0
  0
ENDTAB
  0
TABLE
  2
LTYPE
  5
5
330
0
100
AcDbSymbolTable
 70
     1
  0
LTYPE
  5
14
330
5
100
AcDbSymbolTableRecord
100
AcDbLinetypeTableRecord
  2
BYBLOCK
 70
     0
  3

 72
    65
 73
     0
 40
0.0
  0
LTYPE
  5
15
330
5
100
AcDbSymbolTableRecord
100
AcDbLinetypeTableRecord
  2
BYLAYER
 70
     0
  3

 72
    65
 73
     0
 40
0.0
  0
LTYPE
  5
16
330
5
100
AcDbSymbolTableRecord
100
AcDbLinetypeTableRecord
  2
CONTINUOUS
 70
     0
  3
Solid line
 72
    65
 73
     0
 40
0.0
  0
ENDTAB
  0
TABLE
  2
LAYER
  5
2
100
AcDbSymbolTable
 70
2
  0
LAYER
  5
50
100
AcDbSymbolTableRecord
100
AcDbLayerTableRecord
  2
0
 70
0
  6
CONTINUOUS
  0
LAYER
  5
51
100
AcDbSymbolTableRecord
100
AcDbLayerTableRecord
  2
initials
 70
0
  6
CONTINUOUS
  0
ENDTAB
  0
TABLE
  2
STYLE
  5
3
330
0
100
AcDbSymbolTable
 70
     1
  0
STYLE
  5
11
330
3
100
AcDbSymbolTableRecord
100
AcDbTextStyleTableRecord
  2
STANDARD
 70
     0
 40
0.0
 41
1.0
 50
0.0
 71
     0
 42
2.5
  3
txt
  4

  0
ENDTAB
  0
TABLE
  2
VIEW
  5
6
330
0
100
AcDbSymbolTable
 70
     0
  0
ENDTAB
  0
TABLE
  2
UCS
  5
7
330
0
100
AcDbSymbolTable
 70
     0
  0
ENDTAB
  0
TABLE
  2
APPID
  5
9
330
0
100
AcDbSymbolTable
 70
     2
  0
APPID
  5
12
330
9
100
AcDbSymbolTableRecord
100
AcDbRegAppTableRecord
  2
ACAD
 70
     0
  0
ENDTAB
  0
TABLE
  2
DIMSTYLE
  5
A
330
0
100
AcDbSymbolTable
 70
     1
  0
DIMSTYLE
105
27
330
A
100
AcDbSymbolTableRecord
100
AcDbDimStyleTableRecord
  2
ISO-25
 70
     0
  3

  4

  5

  6

  7

 40
1.0
 41
2.5
 42
0.625
 43
3.75
 44
1.25
 45
0.0
 46
0.0
 47
0.0
 48
0.0
140
2.5
141
2.5
142
0.0
143
0.03937007874016
144
1.0
145
0.0
146
1.0
147
0.625
 71
     0
 72
     0
 73
     0
 74
     0
 75
     0
 76
     0
 77
     1
 78
     8
170
     0
171
     3
172
     1
173
     0
174
     0
175
     0
176
     0
177
     0
178
     0
270
     2
271
     2
272
     2
273
     2
274
     3
340
11
275
     0
280
     0
281
     0
282
     0
283
     0
284
     8
285
     0
286
     0
287
     3
288
     0
  0
ENDTAB
  0
TABLE
  2
BLOCK_RECORD
  5
1
330
0
100
AcDbSymbolTable
 70
     1
  0
BLOCK_RECORD
  5
1F
330
1
100
AcDbSymbolTableRecord
100
AcDbBlockTableRecord
  2
*MODEL_SPACE
  0
BLOCK_RECORD
  5
1B
330
1
100
AcDbSymbolTableRecord
100
AcDbBlockTableRecord
  2
*PAPER_SPACE
  0
ENDTAB
  0
ENDSEC
  0
SECTION
  2
BLOCKS
  0
BLOCK
  5
20
330
1F
100
AcDbEntity
  8
0
100
AcDbBlockBegin
  2
*MODEL_SPACE
 70
     0
 10
0.0
 20
0.0
 30
0.0
  3
*MODEL_SPACE
  1

  0
ENDBLK
  5
21
330
1F
100
AcDbEntity
  8
0
100
AcDbBlockEnd
  0
BLOCK
  5
1C
330
1B
100
AcDbEntity
 67
     1
  8
0
100
AcDbBlockBegin
  2
*PAPER_SPACE
  1

  0
ENDBLK
  5
1D
330
1B
100
AcDbEntity
 67
     1
  8
0
100
AcDbBlockEnd
  0
ENDSEC
  0
SECTION
  2
ENTITIES
  0
LWPOLYLINE
  5
100
100
AcDbEntity
  8
initials
 62
7
100
AcDbPolyline
 90
97
 70
0
 10
0.617361
 20
8.713172
 30
0.0
 10
0.493889
 20
8.704353
 30
0.0
 10
0.379236
 20
8.660255
 30
0.0
 10
0.273403
 20
8.607339
 30
0.0
 10
0.185208
 20
8.527964
 30
0.0
 10
0.105833
 20
8.439769
 30
0.0
 10
0.052917
 20
8.333936
 30
0.0
 10
0.008819
 20
8.219283
 30
0.0
 10
0.000000
 20
8.095811
 30
0.0
 10
0.000000
 20
6.843450
 30
0.0
 10
0.000000
 20
5.599908
 30
0.0
 10
0.000000
 20
4.356366
 30
0.0
 10
0.000000
 20
3.112825
 30
0.0
 10
0.000000
 20
1.869283
 30
0.0
 10
0.000000
 20
0.616922
 30
0.0
 10
0.008819
 20
0.493450
 30
0.0
 10
0.052917
 20
0.378797
 30
0.0
 10
0.105833
 20
0.272964
 30
0.0
 10
0.185208
 20
0.175950
 30
0.0
 10
0.273403
 20
0.105394
 30
0.0
 10
0.379236
 20
0.043658
 30
0.0
 10
0.493889
 20
0.008380
 30
0.0
 10
0.617361
 20
-0.000439
 30
0.0
 10
0.740833
 20
0.008380
 30
0.0
 10
0.864306
 20
0.043658
 30
0.0
 10
0.970139
 20
0.105394
 30
0.0
 10
1.058333
 20
0.175950
 30
0.0
 10
1.137708
 20
0.272964
 30
0.0
 10
1.190625
 20
0.378797
 30
0.0
 10
1.225903
 20
0.493450
 30
0.0
 10
1.234722
 20
0.616922
 30
0.0
 10
1.234722
 20
1.428311
 30
0.0
 10
1.234722
 20
2.239700
 30
0.0
 10
1.234722
 20
3.059908
 30
0.0
 10
1.234722
 20
3.862478
 30
0.0
 10
2.169583
 20
3.862478
 30
0.0
 10
3.095625
 20
3.862478
 30
0.0
 10
3.095625
 20
3.059908
 30
0.0
 10
3.095625
 20
2.239700
 30
0.0
 10
3.095625
 20
1.428311
 30
0.0
 10
3.095625
 20
0.616922
 30
0.0
 10
3.104444
 20
0.493450
 30
0.0
 10
3.139722
 20
0.378797
 30
0.0
 10
3.201458
 20
0.272964
 30
0.0
 10
3.280833
 20
0.175950
 30
0.0
 10
3.369028
 20
0.105394
 30
0.0
 10
3.474861
 20
0.043658
 30
0.0
 10
3.589514
 20
0.008380
 30
0.0
 10
3.712986
 20
-0.000439
 30
0.0
 10
3.836458
 20
0.008380
 30
0.0
 10
3.959931
 20
0.043658
 30
0.0
 10
4.056944
 20
0.105394
 30
0.0
 10
4.153958
 20
0.175950
 30
0.0
 10
4.224514
 20
0.272964
 30
0.0
 10
4.286250
 20
0.378797
 30
0.0
 10
4.321528
 20
0.493450
 30
0.0
 10
4.330347
 20
0.616922
 30
0.0
 10
4.330347
 20
1.869283
 30
0.0
 10
4.330347
 20
3.112825
 30
0.0
 10
4.330347
 20
4.356366
 30
0.0
 10
4.330347
 20
5.599908
 30
0.0
 10
4.330347
 20
6.843450
 30
0.0
 10
4.330347
 20
8.095811
 30
0.0
 10
4.321528
 20
8.219283
 30
0.0
 10
4.286250
 20
8.333936
 30
0.0
 10
4.224514
 20
8.439769
 30
0.0
 10
4.153958
 20
8.527964
 30
0.0
 10
4.056944
 20
8.607339
 30
0.0
 10
3.959931
 20
8.660255
 30
0.0
 10
3.836458
 20
8.704353
 30
0.0
 10
3.712986
 20
8.713172
 30
0.0
 10
3.589514
 20
8.704353
 30
0.0
 10
3.474861
 20
8.660255
 30
0.0
 10
3.369028
 20
8.607339
 30
0.0
 10
3.280833
 20
8.527964
 30
0.0
 10
3.201458
 20
8.439769
 30
0.0
 10
3.139722
 20
8.333936
 30
0.0
 10
3.104444
 20
8.219283
 30
0.0
 10
3.095625
 20
8.095811
 30
0.0
 10
3.095625
 20
7.346158
 30
0.0
 10
3.095625
 20
6.596505
 30
0.0
 10
3.095625
 20
5.846853
 30
0.0
 10
3.095625
 20
5.106019
 30
0.0
 10
2.169583
 20
5.106019
 30
0.0
 10
1.234722
 20
5.106019
 30
0.0
 10
1.234722
 20
5.846853
 30
0.0
 10
1.234722
 20
6.596505
 30
0.0
 10
1.234722
 20
7.346158
 30
0.0
 10
1.234722
 20
8.095811
 30
0.0
 10
1.225903
 20
8.219283
 30
0.0
 10
1.190625
 20
8.333936
 30
0.0
 10
1.137708
 20
8.439769
 30
0.0
 10
1.058333
 20
8.527964
 30
0.0
 10
0.970139
 20
8.607339
 30
0.0
 10
0.864306
 20
8.660255
 30
0.0
 10
0.740833
 20
8.704353
 30
0.0
 10
0.617361
 20
8.713172
 30
0.0
  0
LWPOLYLINE
  5
101
100
AcDbEntity
  8
initials
 62
7
100
AcDbPolyline
 90
51
 70
0
 10
6.279444
 20
8.660255
 30
0.0
 10
6.041319
 20
8.616158
 30
0.0
 10
5.847292
 20
8.475047
 30
0.0
 10
5.715000
 20
8.281019
 30
0.0
 10
5.662083
 20
8.042894
 30
0.0
 10
5.662083
 20
0.616922
 30
0.0
 10
5.715000
 20
0.378797
 30
0.0
 10
5.847292
 20
0.175950
 30
0.0
 10
6.041319
 20
0.043658
 30
0.0
 10
6.279444
 20
-0.000439
 30
0.0
 10
6.526389
 20
0.043658
 30
0.0
 10
6.720417
 20
0.175950
 30
0.0
 10
6.852708
 20
0.378797
 30
0.0
 10
6.905625
 20
0.616922
 30
0.0
 10
6.905625
 20
3.606714
 30
0.0
 10
7.593542
 20
3.606714
 30
0.0
 10
8.792986
 20
0.396436
 30
0.0
 10
8.934097
 20
0.193589
 30
0.0
 10
9.119306
 20
0.052478
 30
0.0
 10
9.348611
 20
-0.000439
 30
0.0
 10
9.595556
 20
0.034839
 30
0.0
 10
9.807222
 20
0.167130
 30
0.0
 10
9.948333
 20
0.361158
 30
0.0
 10
10.001250
 20
0.590464
 30
0.0
 10
9.957153
 20
0.837408
 30
0.0
 10
8.837083
 20
3.853658
 30
0.0
 10
9.084028
 20
4.003589
 30
0.0
 10
9.313333
 20
4.188797
 30
0.0
 10
9.507361
 20
4.400464
 30
0.0
 10
9.674931
 20
4.638589
 30
0.0
 10
9.807222
 20
4.894353
 30
0.0
 10
9.913056
 20
5.167755
 30
0.0
 10
9.974792
 20
5.467616
 30
0.0
 10
9.992431
 20
5.776297
 30
0.0
 10
9.992431
 20
5.864491
 30
0.0
 10
9.992431
 20
5.952686
 30
0.0
 10
9.992431
 20
6.040880
 30
0.0
 10
9.992431
 20
6.137894
 30
0.0
 10
9.992431
 20
6.226089
 30
0.0
 10
9.992431
 20
6.314283
 30
0.0
 10
9.992431
 20
6.402478
 30
0.0
 10
9.992431
 20
6.499491
 30
0.0
 10
9.948333
 20
6.931644
 30
0.0
 10
9.824861
 20
7.337339
 30
0.0
 10
9.622014
 20
7.707755
 30
0.0
 10
9.366250
 20
8.025255
 30
0.0
 10
9.039931
 20
8.289839
 30
0.0
 10
8.669514
 20
8.492686
 30
0.0
 10
8.263819
 20
8.616158
 30
0.0
 10
7.831667
 20
8.660255
 30
0.0
 10
6.279444
 20
8.660255
 30
0.0
  0
LWPOLYLINE
  5
102
100
AcDbEntity
  8
initials
 62
7
100
AcDbPolyline
 90
16
 70
0
 10
6.905625
 20
7.425533
 30
0.0
 10
7.831667
 20
7.425533
 30
0.0
 10
8.193264
 20
7.354978
 30
0.0
 10
8.484306
 20
7.152130
 30
0.0
 10
8.687153
 20
6.861089
 30
0.0
 10
8.757708
 20
6.499491
 30
0.0
 10
8.757708
 20
6.314283
 30
0.0
 10
8.757708
 20
6.137894
 30
0.0
 10
8.757708
 20
5.952686
 30
0.0
 10
8.757708
 20
5.776297
 30
0.0
 10
8.687153
 20
5.414700
 30
0.0
 10
8.484306
 20
5.114839
 30
0.0
 10
8.193264
 20
4.920811
 30
0.0
 10
7.831667
 20
4.850255
 30
0.0
 10
6.905625
 20
4.850255
 30
0.0
 10
6.905625
 20
7.425533
 30
0.0
  0
ENDSEC
  0
SECTION
  2
OBJECTS
  0
DICTIONARY
  5
C
330
0
100
AcDbDictionary
  3
ACAD_GROUP
350
D
  3
ACAD_MLINESTYLE
350
17
  0
DICTIONARY
  5
D
330
C
100
AcDbDictionary
  0
DICTIONARY
  5
1A
330
C
100
AcDbDictionary
  0
DICTIONARY
  5
17
330
C
100
AcDbDictionary
  3
STANDARD
350
18
  0
DICTIONARY
  5
19
330
C
100
AcDbDictionary
  0
ENDSEC
  0
EOF
