<?xml version="1.0" encoding="UTF-8" standalone="no"?>
<!-- Created with Inkscape (http://www.inkscape.org/) -->

<svg
   xmlns:dc="http://purl.org/dc/elements/1.1/"
   xmlns:cc="http://creativecommons.org/ns#"
   xmlns:rdf="http://www.w3.org/1999/02/22-rdf-syntax-ns#"
   xmlns:svg="http://www.w3.org/2000/svg"
   xmlns="http://www.w3.org/2000/svg"
   xmlns:sodipodi="http://sodipodi.sourceforge.net/DTD/sodipodi-0.dtd"
   xmlns:inkscape="http://www.inkscape.org/namespaces/inkscape"
   width="35.433041"
   height="25.88339"
   id="svg2"
   version="1.1"
   inkscape:version="0.48.2 r9819"
   sodipodi:docname="IKS.svg">
  <sodipodi:namedview
     id="base"
     pagecolor="#ffffff"
     bordercolor="#666666"
     borderopacity="1.0"
     inkscape:pageopacity="0.0"
     inkscape:pageshadow="2"
     inkscape:zoom="11.313708"
     inkscape:cx="12.708146"
     inkscape:cy="10.870033"
     inkscape:document-units="px"
     inkscape:current-layer="layer1"
     showgrid="false"
     fit-margin-top="0"
     fit-margin-left="0"
     fit-margin-right="0"
     fit-margin-bottom="0"
     inkscape:window-width="1366"
     inkscape:window-height="710"
     inkscape:window-x="0"
     inkscape:window-y="26"
     inkscape:window-maximized="1" />
  <defs
     id="defs4" />
  <metadata
     id="metadata7">
    <rdf:RDF>
      <cc:Work
         rdf:about="">
        <dc:format>image/svg+xml</dc:format>
        <dc:type
           rdf:resource="http://purl.org/dc/dcmitype/StillImage" />
        <dc:title />
      </cc:Work>
    </rdf:RDF>
  </metadata>
  <g
     transform="translate(-149.37822,-427.92357)"
     id="layer1"
     inkscape:groupmode="layer"
     inkscape:label="Layer 1">
    <path
       id="path3137"
       style="font-size:40px;font-style:normal;font-variant:normal;font-weight:bold;font-stretch:normal;line-height:125%;letter-spacing:0px;word-spacing:0px;fill:#000000;fill-opacity:1;stroke:none;font-family:Miso;-inkscape-font-specification:Miso Bold"
       d="m 179.99036,449.5122 0.4687,-0.42087 0.33478,-0.49739 0.34434,-1.18609 -0.14347,-1.22433 -0.66,-1.07131 -6.12173,-6.27477 -0.86086,-1.07129 -0.59305,-1.22436 -0.31565,-1.31999 -0.0287,-1.35826 0.24869,-1.32955 0.51652,-1.23392 0.76522,-1.12868 0.99478,-0.93741 1.16695,-0.7078 1.28174,-0.44002 1.36782,-0.16259 1.34869,0.12433 1.28174,0.43045 1.16695,0.67911 1.03303,0.88002 0.80349,1.10954 0.22956,0.66958 -0.0765,0.70781 -0.30609,0.65045 -0.53564,0.49737 -0.66958,0.23915 -0.70781,-0.0478 -0.64087,-0.33477 -0.46869,-0.54523 -0.78436,-0.85128 -1.05216,-0.48785 -1.16696,0.0191 -1.05217,0.5165 -0.76521,0.86089 -0.30609,1.12867 0.13391,1.13828 0.63131,0.96607 6.08346,6.27476 0.87042,1.10958 0.62175,1.26259 0.34434,1.35826 0.0383,1.39652 -0.25826,1.39652 -0.54522,1.28173 -0.79392,1.13826 -1.00433,0.96609 -1.20523,0.73652 -1.31998,0.44956 -1.38696,0.16261 -1.40608,-0.12435 -1.34869,-0.43043 -1.21478,-0.67913 -1.03305,-0.93738 -0.80347,-1.1287 -0.26783,-0.66957 0.0383,-0.70782 0.33479,-0.66956 0.54521,-0.47826 0.66957,-0.22956 0.70782,0.0765 0.65043,0.30609 0.49739,0.53565 0.81304,0.90869 1.13826,0.50696 1.2626,-0.0287 1.10957,-0.54521 m -9.52215,1.64521 0.1626,0.69826 -0.12434,0.71739 -0.34436,0.62174 -0.5739,0.4113 -0.69827,0.1913 -0.71738,-0.11478 -0.60261,-0.34435 -0.43043,-0.57391 -5.01216,-10.44519 -1.45391,1.98956 0,7.65216 -0.13391,0.70782 -0.40174,0.59304 -0.59304,0.40174 -0.70783,0.13391 -0.70782,-0.13391 -0.59304,-0.40174 -0.40174,-0.59304 -0.13392,-0.70782 0,-22.19126 0.13392,-0.7078 0.40174,-0.59306 0.59304,-0.40172 0.70782,-0.13393 0.70783,0.13393 0.59304,0.40172 0.40174,0.59306 0.13391,0.7078 0,8.22607 6.61911,-9.29737 0.52608,-0.4878 0.66001,-0.23915 0.72694,0.0191 0.65045,0.28694 0.51651,0.50698 0.2487,0.67911 -0.0287,0.70784 -0.31565,0.66955 -5.73912,8.07302 5.93042,12.24345 m -19.25354,2.63999 -0.70783,-0.13391 -0.59304,-0.40174 -0.40174,-0.59304 -0.13391,-0.70782 0,-22.19126 0.13391,-0.7078 0.40174,-0.59306 0.59304,-0.40172 0.70783,-0.13393 0.70782,0.13393 0.59304,0.40172 0.40174,0.59306 0.13391,0.7078 0,22.19126 -0.13391,0.70782 -0.40174,0.59304 -0.59304,0.40174 -0.70782,0.13391"
       inkscape:connector-curvature="0" />
  </g>
</svg>
