999
DXF created by Inkscape
  0
SECTION
  2
HEADER
  9
$ACADVER
  1
AC1014
  9
$HANDSEED
  5
FFFF
  9
$MEASUREMENT
 70
     1
  0
ENDSEC
  0
SECTION
  2
TABLES
  0
TABLE
  2
VPORT
  5
8
330
0
100
AcDbSymbolTable
 70
     4
  0
VPORT
  5
2E
330
8
100
AcDbSymbolTableRecord
100
AcDbViewportTableRecord
  2
*ACTIVE
 70
     0
 10
0.0
 20
0.0
 11
1.0
 21
1.0
 12
210.0
 22
148.5
 13
0.0
 23
0.0
 14
10.0
 24
10.0
 15
10.0
 25
10.0
 16
0.0
 26
0.0
 36
1.0
 17
0.0
 27
0.0
 37
0.0
 40
341.0
 41
1.24
 42
50.0
 43
0.0
 44
0.0
 50
0.0
 51
0.0
 71
     0
 72
   100
 73
     1
 74
     3
 75
     0
 76
     0
 77
     0
 78
     0
  0
ENDTAB
  0
TABLE
  2
LTYPE
  5
5
330
0
100
AcDbSymbolTable
 70
     1
  0
LTYPE
  5
14
330
5
100
AcDbSymbolTableRecord
100
AcDbLinetypeTableRecord
  2
BYBLOCK
 70
     0
  3

 72
    65
 73
     0
 40
0.0
  0
LTYPE
  5
15
330
5
100
AcDbSymbolTableRecord
100
AcDbLinetypeTableRecord
  2
BYLAYER
 70
     0
  3

 72
    65
 73
     0
 40
0.0
  0
LTYPE
  5
16
330
5
100
AcDbSymbolTableRecord
100
AcDbLinetypeTableRecord
  2
CONTINUOUS
 70
     0
  3
Solid line
 72
    65
 73
     0
 40
0.0
  0
ENDTAB
  0
TABLE
  2
LAYER
  5
2
100
AcDbSymbolTable
 70
2
  0
LAYER
  5
50
100
AcDbSymbolTableRecord
100
AcDbLayerTableRecord
  2
0
 70
0
  6
CONTINUOUS
  0
LAYER
  5
51
100
AcDbSymbolTableRecord
100
AcDbLayerTableRecord
  2
Layer_1
 70
0
  6
CONTINUOUS
  0
ENDTAB
  0
TABLE
  2
STYLE
  5
3
330
0
100
AcDbSymbolTable
 70
     1
  0
STYLE
  5
11
330
3
100
AcDbSymbolTableRecord
100
AcDbTextStyleTableRecord
  2
STANDARD
 70
     0
 40
0.0
 41
1.0
 50
0.0
 71
     0
 42
2.5
  3
txt
  4

  0
ENDTAB
  0
TABLE
  2
VIEW
  5
6
330
0
100
AcDbSymbolTable
 70
     0
  0
ENDTAB
  0
TABLE
  2
UCS
  5
7
330
0
100
AcDbSymbolTable
 70
     0
  0
ENDTAB
  0
TABLE
  2
APPID
  5
9
330
0
100
AcDbSymbolTable
 70
     2
  0
APPID
  5
12
330
9
100
AcDbSymbolTableRecord
100
AcDbRegAppTableRecord
  2
ACAD
 70
     0
  0
ENDTAB
  0
TABLE
  2
DIMSTYLE
  5
A
330
0
100
AcDbSymbolTable
 70
     1
  0
DIMSTYLE
105
27
330
A
100
AcDbSymbolTableRecord
100
AcDbDimStyleTableRecord
  2
ISO-25
 70
     0
  3

  4

  5

  6

  7

 40
1.0
 41
2.5
 42
0.625
 43
3.75
 44
1.25
 45
0.0
 46
0.0
 47
0.0
 48
0.0
140
2.5
141
2.5
142
0.0
143
0.03937007874016
144
1.0
145
0.0
146
1.0
147
0.625
 71
     0
 72
     0
 73
     0
 74
     0
 75
     0
 76
     0
 77
     1
 78
     8
170
     0
171
     3
172
     1
173
     0
174
     0
175
     0
176
     0
177
     0
178
     0
270
     2
271
     2
272
     2
273
     2
274
     3
340
11
275
     0
280
     0
281
     0
282
     0
283
     0
284
     8
285
     0
286
     0
287
     3
288
     0
  0
ENDTAB
  0
TABLE
  2
BLOCK_RECORD
  5
1
330
0
100
AcDbSymbolTable
 70
     1
  0
BLOCK_RECORD
  5
1F
330
1
100
AcDbSymbolTableRecord
100
AcDbBlockTableRecord
  2
*MODEL_SPACE
  0
BLOCK_RECORD
  5
1B
330
1
100
AcDbSymbolTableRecord
100
AcDbBlockTableRecord
  2
*PAPER_SPACE
  0
ENDTAB
  0
ENDSEC
  0
SECTION
  2
BLOCKS
  0
BLOCK
  5
20
330
1F
100
AcDbEntity
  8
0
100
AcDbBlockBegin
  2
*MODEL_SPACE
 70
     0
 10
0.0
 20
0.0
 30
0.0
  3
*MODEL_SPACE
  1

  0
ENDBLK
  5
21
330
1F
100
AcDbEntity
  8
0
100
AcDbBlockEnd
  0
BLOCK
  5
1C
330
1B
100
AcDbEntity
 67
     1
  8
0
100
AcDbBlockBegin
  2
*PAPER_SPACE
  1

  0
ENDBLK
  5
1D
330
1B
100
AcDbEntity
 67
     1
  8
0
100
AcDbBlockEnd
  0
ENDSEC
  0
SECTION
  2
ENTITIES
  0
LWPOLYLINE
  5
100
100
AcDbEntity
  8
Layer_1
 62
7
100
AcDbPolyline
 90
68
 70
0
 10
8.639426
 20
1.212077
 30
0.0
 10
8.771704
 20
1.330856
 30
0.0
 10
8.866186
 20
1.471230
 30
0.0
 10
8.963366
 20
1.805971
 30
0.0
 10
8.922876
 20
2.151504
 30
0.0
 10
8.736609
 20
2.453852
 30
0.0
 10
7.008921
 20
4.224731
 30
0.0
 10
6.765967
 20
4.527073
 30
0.0
 10
6.598595
 20
4.872615
 30
0.0
 10
6.509512
 20
5.245145
 30
0.0
 10
6.501412
 20
5.628476
 30
0.0
 10
6.571598
 20
6.003705
 30
0.0
 10
6.717371
 20
6.351945
 30
0.0
 10
6.933334
 20
6.670483
 30
0.0
 10
7.214083
 20
6.935041
 30
0.0
 10
7.543422
 20
7.134798
 30
0.0
 10
7.905157
 20
7.258981
 30
0.0
 10
8.291187
 20
7.304868
 30
0.0
 10
8.671817
 20
7.269779
 30
0.0
 10
9.033552
 20
7.148297
 30
0.0
 10
9.362892
 20
6.956637
 30
0.0
 10
9.654436
 20
6.708275
 30
0.0
 10
9.881198
 20
6.395139
 30
0.0
 10
9.945985
 20
6.206168
 30
0.0
 10
9.924395
 20
6.006409
 30
0.0
 10
9.838010
 20
5.822837
 30
0.0
 10
9.686840
 20
5.682468
 30
0.0
 10
9.497870
 20
5.614975
 30
0.0
 10
9.298110
 20
5.628465
 30
0.0
 10
9.117243
 20
5.722945
 30
0.0
 10
8.984968
 20
5.876821
 30
0.0
 10
8.763604
 20
6.117071
 30
0.0
 10
8.466661
 20
6.254753
 30
0.0
 10
8.137319
 20
6.249362
 30
0.0
 10
7.840373
 20
6.103595
 30
0.0
 10
7.624414
 20
5.860632
 30
0.0
 10
7.538029
 20
5.542097
 30
0.0
 10
7.575821
 20
5.220849
 30
0.0
 10
7.753991
 20
4.948202
 30
0.0
 10
9.470878
 20
3.177326
 30
0.0
 10
9.716530
 20
2.864177
 30
0.0
 10
9.892002
 20
2.507846
 30
0.0
 10
9.989182
 20
2.124515
 30
0.0
 10
9.999991
 20
1.730386
 30
0.0
 10
9.927105
 20
1.336257
 30
0.0
 10
9.773231
 20
0.974525
 30
0.0
 10
9.549170
 20
0.653282
 30
0.0
 10
9.265725
 20
0.380630
 30
0.0
 10
8.925583
 20
0.172768
 30
0.0
 10
8.553055
 20
0.045892
 30
0.0
 10
8.161624
 20
-0.000000
 30
0.0
 10
7.764797
 20
0.035094
 30
0.0
 10
7.384167
 20
0.156571
 30
0.0
 10
7.041329
 20
0.348237
 30
0.0
 10
6.749779
 20
0.612786
 30
0.0
 10
6.523022
 20
0.931331
 30
0.0
 10
6.447434
 20
1.120298
 30
0.0
 10
6.458244
 20
1.320061
 30
0.0
 10
6.552729
 20
1.509025
 30
0.0
 10
6.706599
 20
1.644001
 30
0.0
 10
6.895567
 20
1.708788
 30
0.0
 10
7.095329
 20
1.687198
 30
0.0
 10
7.278895
 20
1.600812
 30
0.0
 10
7.419269
 20
1.449640
 30
0.0
 10
7.648727
 20
1.193188
 30
0.0
 10
7.969970
 20
1.050112
 30
0.0
 10
8.326303
 20
1.058212
 30
0.0
 10
8.639449
 20
1.212082
 30
0.0
  0
LWPOLYLINE
  5
101
100
AcDbEntity
  8
Layer_1
 62
7
100
AcDbPolyline
 90
41
 70
0
 10
5.952086
 20
0.747768
 30
0.0
 10
5.997976
 20
0.550703
 30
0.0
 10
5.962884
 20
0.348240
 30
0.0
 10
5.865698
 20
0.172771
 30
0.0
 10
5.703731
 20
0.056693
 30
0.0
 10
5.506664
 20
0.002704
 30
0.0
 10
5.304203
 20
0.035097
 30
0.0
 10
5.134133
 20
0.132280
 30
0.0
 10
5.012656
 20
0.294251
 30
0.0
 10
3.598113
 20
3.242115
 30
0.0
 10
3.187787
 20
2.680617
 30
0.0
 10
3.187787
 20
0.521008
 30
0.0
 10
3.149995
 20
0.321245
 30
0.0
 10
3.036615
 20
0.153876
 30
0.0
 10
2.869246
 20
0.040496
 30
0.0
 10
2.669481
 20
0.002704
 30
0.0
 10
2.469718
 20
0.040496
 30
0.0
 10
2.302349
 20
0.153876
 30
0.0
 10
2.188969
 20
0.321245
 30
0.0
 10
2.151174
 20
0.521008
 30
0.0
 10
2.151174
 20
6.783874
 30
0.0
 10
2.188969
 20
6.983631
 30
0.0
 10
2.302349
 20
7.151006
 30
0.0
 10
2.469718
 20
7.264380
 30
0.0
 10
2.669481
 20
7.302178
 30
0.0
 10
2.869246
 20
7.264380
 30
0.0
 10
3.036615
 20
7.151006
 30
0.0
 10
3.149995
 20
6.983631
 30
0.0
 10
3.187787
 20
6.783874
 30
0.0
 10
3.187787
 20
4.462295
 30
0.0
 10
5.055847
 20
7.086219
 30
0.0
 10
5.204319
 20
7.223887
 30
0.0
 10
5.390588
 20
7.291380
 30
0.0
 10
5.595747
 20
7.285990
 30
0.0
 10
5.779318
 20
7.205009
 30
0.0
 10
5.925089
 20
7.061928
 30
0.0
 10
5.995278
 20
6.870268
 30
0.0
 10
5.987178
 20
6.670500
 30
0.0
 10
5.898094
 20
6.481538
 30
0.0
 10
4.278387
 20
4.203152
 30
0.0
 10
5.952084
 20
0.747779
 30
0.0
  0
LWPOLYLINE
  5
102
100
AcDbEntity
  8
Layer_1
 62
7
100
AcDbPolyline
 90
19
 70
0
 10
0.518307
 20
0.002715
 30
0.0
 10
0.318541
 20
0.040507
 30
0.0
 10
0.151172
 20
0.153887
 30
0.0
 10
0.037792
 20
0.321256
 30
0.0
 10
0.000000
 20
0.521019
 30
0.0
 10
0.000000
 20
6.783886
 30
0.0
 10
0.037792
 20
6.983643
 30
0.0
 10
0.151172
 20
7.151017
 30
0.0
 10
0.318541
 20
7.264392
 30
0.0
 10
0.518307
 20
7.302190
 30
0.0
 10
0.718069
 20
7.264392
 30
0.0
 10
0.885438
 20
7.151017
 30
0.0
 10
0.998818
 20
6.983643
 30
0.0
 10
1.036611
 20
6.783886
 30
0.0
 10
1.036611
 20
0.521019
 30
0.0
 10
0.998818
 20
0.321256
 30
0.0
 10
0.885438
 20
0.153887
 30
0.0
 10
0.718069
 20
0.040507
 30
0.0
 10
0.518307
 20
0.002715
 30
0.0
  0
ENDSEC
  0
SECTION
  2
OBJECTS
  0
DICTIONARY
  5
C
330
0
100
AcDbDictionary
  3
ACAD_GROUP
350
D
  3
ACAD_MLINESTYLE
350
17
  0
DICTIONARY
  5
D
330
C
100
AcDbDictionary
  0
DICTIONARY
  5
1A
330
C
100
AcDbDictionary
  0
DICTIONARY
  5
17
330
C
100
AcDbDictionary
  3
STANDARD
350
18
  0
DICTIONARY
  5
19
330
C
100
AcDbDictionary
  0
ENDSEC
  0
EOF
