  0
SECTION
  2
HEADER
  9
$ACADVER
  1
AC1014
  9
$HANDSEED
  5
FFFF
  9
$MEASUREMENT
 70
     1
  0
ENDSEC
  0
SECTION
  2
TABLES
  0
TABLE
  2
VPORT
  5
8
330
0
100
AcDbSymbolTable
 70
     4
  0
VPORT
  5
2E
330
8
100
AcDbSymbolTableRecord
100
AcDbViewportTableRecord
  2
*ACTIVE
 70
     0
 10
0.0
 20
0.0
 11
1.0
 21
1.0
 12
210.0
 22
148.5
 13
0.0
 23
0.0
 14
10.0
 24
10.0
 15
10.0
 25
10.0
 16
0.0
 26
0.0
 36
1.0
 17
0.0
 27
0.0
 37
0.0
 40
341.0
 41
1.24
 42
50.0
 43
0.0
 44
0.0
 50
0.0
 51
0.0
 71
     0
 72
   100
 73
     1
 74
     3
 75
     0
 76
     0
 77
     0
 78
     0
  0
ENDTAB
  0
TABLE
  2
LTYPE
  5
5
330
0
100
AcDbSymbolTable
 70
     1
  0
LTYPE
  5
14
330
5
100
AcDbSymbolTableRecord
100
AcDbLinetypeTableRecord
  2
BYBLOCK
 70
     0
  3

 72
    65
 73
     0
 40
0.0
  0
LTYPE
  5
15
330
5
100
AcDbSymbolTableRecord
100
AcDbLinetypeTableRecord
  2
BYLAYER
 70
     0
  3

 72
    65
 73
     0
 40
0.0
  0
LTYPE
  5
16
330
5
100
AcDbSymbolTableRecord
100
AcDbLinetypeTableRecord
  2
CONTINUOUS
 70
     0
  3
Solid line
 72
    65
 73
     0
 40
0.0
  0
ENDTAB
  0
TABLE
  2
LAYER
  5
2
100
AcDbSymbolTable
 70
2
  0
LAYER
  5
50
100
AcDbSymbolTableRecord
100
AcDbLayerTableRecord
  2
0
 70
0
  6
CONTINUOUS
  0
LAYER
  5
51
100
AcDbSymbolTableRecord
100
AcDbLayerTableRecord
  2
initials
 70
0
  6
CONTINUOUS
  0
ENDTAB
  0
TABLE
  2
STYLE
  5
3
330
0
100
AcDbSymbolTable
 70
     1
  0
STYLE
  5
11
330
3
100
AcDbSymbolTableRecord
100
AcDbTextStyleTableRecord
  2
STANDARD
 70
     0
 40
0.0
 41
1.0
 50
0.0
 71
     0
 42
2.5
  3
txt
  4

  0
ENDTAB
  0
TABLE
  2
VIEW
  5
6
330
0
100
AcDbSymbolTable
 70
     0
  0
ENDTAB
  0
TABLE
  2
UCS
  5
7
330
0
100
AcDbSymbolTable
 70
     0
  0
ENDTAB
  0
TABLE
  2
APPID
  5
9
330
0
100
AcDbSymbolTable
 70
     2
  0
APPID
  5
12
330
9
100
AcDbSymbolTableRecord
100
AcDbRegAppTableRecord
  2
ACAD
 70
     0
  0
ENDTAB
  0
TABLE
  2
DIMSTYLE
  5
A
330
0
100
AcDbSymbolTable
 70
     1
  0
DIMSTYLE
105
27
330
A
100
AcDbSymbolTableRecord
100
AcDbDimStyleTableRecord
  2
ISO-25
 70
     0
  3

  4

  5

  6

  7

 40
1.0
 41
2.5
 42
0.625
 43
3.75
 44
1.25
 45
0.0
 46
0.0
 47
0.0
 48
0.0
140
2.5
141
2.5
142
0.0
143
0.03937007874016
144
1.0
145
0.0
146
1.0
147
0.625
 71
     0
 72
     0
 73
     0
 74
     0
 75
     0
 76
     0
 77
     1
 78
     8
170
     0
171
     3
172
     1
173
     0
174
     0
175
     0
176
     0
177
     0
178
     0
270
     2
271
     2
272
     2
273
     2
274
     3
340
11
275
     0
280
     0
281
     0
282
     0
283
     0
284
     8
285
     0
286
     0
287
     3
288
     0
  0
ENDTAB
  0
TABLE
  2
BLOCK_RECORD
  5
1
330
0
100
AcDbSymbolTable
 70
     1
  0
BLOCK_RECORD
  5
1F
330
1
100
AcDbSymbolTableRecord
100
AcDbBlockTableRecord
  2
*MODEL_SPACE
  0
BLOCK_RECORD
  5
1B
330
1
100
AcDbSymbolTableRecord
100
AcDbBlockTableRecord
  2
*PAPER_SPACE
  0
ENDTAB
  0
ENDSEC
  0
SECTION
  2
BLOCKS
  0
BLOCK
  5
20
330
1F
100
AcDbEntity
  8
0
100
AcDbBlockBegin
  2
*MODEL_SPACE
 70
     0
 10
0.0
 20
0.0
 30
0.0
  3
*MODEL_SPACE
  1

  0
ENDBLK
  5
21
330
1F
100
AcDbEntity
  8
0
100
AcDbBlockEnd
  0
BLOCK
  5
1C
330
1B
100
AcDbEntity
 67
     1
  8
0
100
AcDbBlockBegin
  2
*PAPER_SPACE
  1

  0
ENDBLK
  5
1D
330
1B
100
AcDbEntity
 67
     1
  8
0
100
AcDbBlockEnd
  0
ENDSEC
  0
SECTION
  2
ENTITIES
  0
LWPOLYLINE
  5
100
100
AcDbEntity
  8
initials
 62
7
100
AcDbPolyline
 90
31
 70
0
 10
0.461539
 20
0.000001
 30
0.0
 10
0.581418
 20
0.014991
 30
0.0
 10
0.693463
 20
0.060181
 30
0.0
 10
0.789654
 20
0.133405
 30
0.0
 10
0.862862
 20
0.229552
 30
0.0
 10
0.908068
 20
0.341587
 30
0.0
 10
0.923077
 20
0.461539
 30
0.0
 10
0.923077
 20
0.594322
 30
0.0
 10
0.923077
 20
5.905640
 30
0.0
 10
0.923077
 20
6.038462
 30
0.0
 10
0.907317
 20
6.157980
 30
0.0
 10
0.861075
 20
6.269294
 30
0.0
 10
0.787757
 20
6.364904
 30
0.0
 10
0.692266
 20
6.438429
 30
0.0
 10
0.581009
 20
6.484496
 30
0.0
 10
0.461539
 20
6.500001
 30
0.0
 10
0.342533
 20
6.483731
 30
0.0
 10
0.231947
 20
6.436595
 30
0.0
 10
0.137002
 20
6.362963
 30
0.0
 10
0.063353
 20
6.267964
 30
0.0
 10
0.016278
 20
6.157496
 30
0.0
 10
0.000000
 20
6.038462
 30
0.0
 10
0.000000
 20
5.905680
 30
0.0
 10
0.000000
 20
0.594362
 30
0.0
 10
0.000000
 20
0.461539
 30
0.0
 10
0.015521
 20
0.342008
 30
0.0
 10
0.061611
 20
0.230746
 30
0.0
 10
0.135167
 20
0.135251
 30
0.0
 10
0.230824
 20
0.061936
 30
0.0
 10
0.342052
 20
0.015753
 30
0.0
 10
0.461539
 20
0.000001
 30
0.0
  0
LWPOLYLINE
  5
101
100
AcDbEntity
  8
initials
 62
7
100
AcDbPolyline
 90
127
 70
0
 10
5.146334
 20
4.307693
 30
0.0
 10
5.146334
 20
4.415365
 30
0.0
 10
5.146334
 20
4.523100
 30
0.0
 10
5.146334
 20
4.630799
 30
0.0
 10
5.146334
 20
4.738525
 30
0.0
 10
5.146334
 20
4.846155
 30
0.0
 10
5.141465
 20
4.972955
 30
0.0
 10
5.126799
 20
5.098944
 30
0.0
 10
5.102308
 20
5.223440
 30
0.0
 10
5.068081
 20
5.345630
 30
0.0
 10
5.024314
 20
5.464715
 30
0.0
 10
4.971264
 20
5.579995
 30
0.0
 10
4.909295
 20
5.690713
 30
0.0
 10
4.838802
 20
5.796217
 30
0.0
 10
4.760234
 20
5.895874
 30
0.0
 10
4.674092
 20
5.989069
 30
0.0
 10
4.580906
 20
6.075236
 30
0.0
 10
4.481206
 20
6.153866
 30
0.0
 10
4.375690
 20
6.224388
 30
0.0
 10
4.264946
 20
6.286389
 30
0.0
 10
4.149624
 20
6.339472
 30
0.0
 10
4.030495
 20
6.383263
 30
0.0
 10
3.908272
 20
6.417504
 30
0.0
 10
3.783768
 20
6.442000
 30
0.0
 10
3.657755
 20
6.456670
 30
0.0
 10
3.530950
 20
6.461539
 30
0.0
 10
3.402782
 20
6.461539
 30
0.0
 10
3.274541
 20
6.461539
 30
0.0
 10
3.146333
 20
6.461539
 30
0.0
 10
3.018086
 20
6.461539
 30
0.0
 10
2.889872
 20
6.461539
 30
0.0
 10
2.761658
 20
6.461539
 30
0.0
 10
2.633536
 20
6.461539
 30
0.0
 10
2.505336
 20
6.461539
 30
0.0
 10
2.377103
 20
6.461539
 30
0.0
 10
2.258097
 20
6.445269
 30
0.0
 10
2.147512
 20
6.398133
 30
0.0
 10
2.052566
 20
6.324501
 30
0.0
 10
1.978918
 20
6.229502
 30
0.0
 10
1.931843
 20
6.119035
 30
0.0
 10
1.915565
 20
6.000000
 30
0.0
 10
1.915565
 20
0.593445
 30
0.0
 10
1.915565
 20
0.461539
 30
0.0
 10
1.931086
 20
0.342008
 30
0.0
 10
1.977176
 20
0.230746
 30
0.0
 10
2.050732
 20
0.135251
 30
0.0
 10
2.146388
 20
0.061935
 30
0.0
 10
2.257616
 20
0.015752
 30
0.0
 10
2.377103
 20
0.000001
 30
0.0
 10
2.496982
 20
0.014991
 30
0.0
 10
2.609028
 20
0.060180
 30
0.0
 10
2.705219
 20
0.133405
 30
0.0
 10
2.778426
 20
0.229552
 30
0.0
 10
2.823633
 20
0.341587
 30
0.0
 10
2.838642
 20
0.461539
 30
0.0
 10
2.838642
 20
0.592756
 30
0.0
 10
2.838642
 20
0.723974
 30
0.0
 10
2.838642
 20
2.561083
 30
0.0
 10
2.838642
 20
2.692308
 30
0.0
 10
2.968494
 20
2.692308
 30
0.0
 10
3.098315
 20
2.692308
 30
0.0
 10
3.228054
 20
2.692308
 30
0.0
 10
3.357873
 20
2.692308
 30
0.0
 10
3.402600
 20
2.572554
 30
0.0
 10
3.447296
 20
2.452884
 30
0.0
 10
3.491999
 20
2.333196
 30
0.0
 10
3.536725
 20
2.213447
 30
0.0
 10
3.581425
 20
2.093764
 30
0.0
 10
3.626158
 20
1.973997
 30
0.0
 10
3.670886
 20
1.854241
 30
0.0
 10
3.715595
 20
1.734535
 30
0.0
 10
3.760293
 20
1.614860
 30
0.0
 10
3.804985
 20
1.495202
 30
0.0
 10
3.849701
 20
1.375478
 30
0.0
 10
3.894420
 20
1.255746
 30
0.0
 10
3.939136
 20
1.136023
 30
0.0
 10
3.983843
 20
1.016323
 30
0.0
 10
4.028539
 20
0.896654
 30
0.0
 10
4.073240
 20
0.776971
 30
0.0
 10
4.117945
 20
0.657277
 30
0.0
 10
4.162687
 20
0.537482
 30
0.0
 10
4.207378
 20
0.417825
 30
0.0
 10
4.252103
 20
0.298078
 30
0.0
 10
4.310130
 20
0.192515
 30
0.0
 10
4.392737
 20
0.104837
 30
0.0
 10
4.495063
 20
0.041331
 30
0.0
 10
4.610277
 20
0.006424
 30
0.0
 10
4.730711
 20
0.002362
 30
0.0
 10
4.848257
 20
0.028847
 30
0.0
 10
4.955982
 20
0.084692
 30
0.0
 10
5.045083
 20
0.167017
 30
0.0
 10
5.109370
 20
0.269882
 30
0.0
 10
5.144366
 20
0.386044
 30
0.0
 10
5.147190
 20
0.507394
 30
0.0
 10
5.117488
 20
0.625001
 30
0.0
 10
5.071021
 20
0.749983
 30
0.0
 10
5.024551
 20
0.874971
 30
0.0
 10
4.978053
 20
1.000032
 30
0.0
 10
4.931585
 20
1.125016
 30
0.0
 10
4.885109
 20
1.250020
 30
0.0
 10
4.838621
 20
1.375058
 30
0.0
 10
4.792170
 20
1.499993
 30
0.0
 10
4.745690
 20
1.625009
 30
0.0
 10
4.699211
 20
1.750023
 30
0.0
 10
4.652732
 20
1.875035
 30
0.0
 10
4.606263
 20
2.000021
 30
0.0
 10
4.559770
 20
2.125070
 30
0.0
 10
4.513312
 20
2.250026
 30
0.0
 10
4.466852
 20
2.374988
 30
0.0
 10
4.420362
 20
2.500031
 30
0.0
 10
4.373910
 20
2.624969
 30
0.0
 10
4.327432
 20
2.749978
 30
0.0
 10
4.280950
 20
2.875001
 30
0.0
 10
4.390198
 20
2.937181
 30
0.0
 10
4.494226
 20
3.007697
 30
0.0
 10
4.592472
 20
3.086196
 30
0.0
 10
4.684239
 20
3.172142
 30
0.0
 10
4.769020
 20
3.265082
 30
0.0
 10
4.846216
 20
3.364380
 30
0.0
 10
4.915306
 20
3.469352
 30
0.0
 10
4.975970
 20
3.579519
 30
0.0
 10
5.027785
 20
3.694133
 30
0.0
 10
5.070431
 20
3.812433
 30
0.0
 10
5.103701
 20
3.933721
 30
0.0
 10
5.127447
 20
4.057199
 30
0.0
 10
5.141631
 20
4.182043
 30
0.0
 10
5.146334
 20
4.307693
 30
0.0
  0
LWPOLYLINE
  5
102
100
AcDbEntity
  8
initials
 62
7
100
AcDbPolyline
 90
39
 70
0
 10
2.838642
 20
5.538462
 30
0.0
 10
2.954032
 20
5.538462
 30
0.0
 10
3.069478
 20
5.538462
 30
0.0
 10
3.184814
 20
5.538462
 30
0.0
 10
3.300194
 20
5.538462
 30
0.0
 10
3.415579
 20
5.538462
 30
0.0
 10
3.530950
 20
5.538462
 30
0.0
 10
3.651280
 20
5.528212
 30
0.0
 10
3.768042
 20
5.497378
 30
0.0
 10
3.877689
 20
5.446581
 30
0.0
 10
3.976734
 20
5.377387
 30
0.0
 10
4.062125
 20
5.292007
 30
0.0
 10
4.131303
 20
5.193021
 30
0.0
 10
4.182138
 20
5.083343
 30
0.0
 10
4.213006
 20
4.966492
 30
0.0
 10
4.223257
 20
4.846155
 30
0.0
 10
4.223257
 20
4.738483
 30
0.0
 10
4.223257
 20
4.630747
 30
0.0
 10
4.223257
 20
4.523048
 30
0.0
 10
4.223257
 20
4.415323
 30
0.0
 10
4.223257
 20
4.307693
 30
0.0
 10
4.213008
 20
4.187363
 30
0.0
 10
4.182173
 20
4.070601
 30
0.0
 10
4.131376
 20
3.960953
 30
0.0
 10
4.062182
 20
3.861908
 30
0.0
 10
3.976802
 20
3.776517
 30
0.0
 10
3.877816
 20
3.707340
 30
0.0
 10
3.768138
 20
3.656504
 30
0.0
 10
3.651287
 20
3.625637
 30
0.0
 10
3.530950
 20
3.615385
 30
0.0
 10
3.415560
 20
3.615385
 30
0.0
 10
3.300114
 20
3.615385
 30
0.0
 10
3.184778
 20
3.615385
 30
0.0
 10
3.069398
 20
3.615385
 30
0.0
 10
2.954013
 20
3.615385
 30
0.0
 10
2.838642
 20
3.615385
 30
0.0
 10
2.838642
 20
3.743613
 30
0.0
 10
2.838642
 20
5.410264
 30
0.0
 10
2.838642
 20
5.538462
 30
0.0
  0
ENDSEC
  0
SECTION
  2
OBJECTS
  0
DICTIONARY
  5
C
330
0
100
AcDbDictionary
  3
ACAD_GROUP
350
D
  3
ACAD_MLINESTYLE
350
17
  0
DICTIONARY
  5
D
330
C
100
AcDbDictionary
  0
DICTIONARY
  5
1A
330
C
100
AcDbDictionary
  0
DICTIONARY
  5
17
330
C
100
AcDbDictionary
  3
STANDARD
350
18
  0
DICTIONARY
  5
19
330
C
100
AcDbDictionary
  0
ENDSEC
  0
EOF
