999
DXF created by Inkscape
  0
SECTION
  2
HEADER
  9
$ACADVER
  1
AC1014
  9
$HANDSEED
  5
FFFF
  9
$MEASUREMENT
 70
     1
  0
ENDSEC
  0
SECTION
  2
TABLES
  0
TABLE
  2
VPORT
  5
8
330
0
100
AcDbSymbolTable
 70
     4
  0
VPORT
  5
2E
330
8
100
AcDbSymbolTableRecord
100
AcDbViewportTableRecord
  2
*ACTIVE
 70
     0
 10
0.0
 20
0.0
 11
1.0
 21
1.0
 12
210.0
 22
148.5
 13
0.0
 23
0.0
 14
10.0
 24
10.0
 15
10.0
 25
10.0
 16
0.0
 26
0.0
 36
1.0
 17
0.0
 27
0.0
 37
0.0
 40
341.0
 41
1.24
 42
50.0
 43
0.0
 44
0.0
 50
0.0
 51
0.0
 71
     0
 72
   100
 73
     1
 74
     3
 75
     0
 76
     0
 77
     0
 78
     0
  0
ENDTAB
  0
TABLE
  2
LTYPE
  5
5
330
0
100
AcDbSymbolTable
 70
     1
  0
LTYPE
  5
14
330
5
100
AcDbSymbolTableRecord
100
AcDbLinetypeTableRecord
  2
BYBLOCK
 70
     0
  3

 72
    65
 73
     0
 40
0.0
  0
LTYPE
  5
15
330
5
100
AcDbSymbolTableRecord
100
AcDbLinetypeTableRecord
  2
BYLAYER
 70
     0
  3

 72
    65
 73
     0
 40
0.0
  0
LTYPE
  5
16
330
5
100
AcDbSymbolTableRecord
100
AcDbLinetypeTableRecord
  2
CONTINUOUS
 70
     0
  3
Solid line
 72
    65
 73
     0
 40
0.0
  0
ENDTAB
  0
TABLE
  2
LAYER
  5
2
100
AcDbSymbolTable
 70
2
  0
LAYER
  5
50
100
AcDbSymbolTableRecord
100
AcDbLayerTableRecord
  2
0
 70
0
  6
CONTINUOUS
  0
LAYER
  5
51
100
AcDbSymbolTableRecord
100
AcDbLayerTableRecord
  2
Layer_1
 70
0
  6
CONTINUOUS
  0
ENDTAB
  0
TABLE
  2
STYLE
  5
3
330
0
100
AcDbSymbolTable
 70
     1
  0
STYLE
  5
11
330
3
100
AcDbSymbolTableRecord
100
AcDbTextStyleTableRecord
  2
STANDARD
 70
     0
 40
0.0
 41
1.0
 50
0.0
 71
     0
 42
2.5
  3
txt
  4

  0
ENDTAB
  0
TABLE
  2
VIEW
  5
6
330
0
100
AcDbSymbolTable
 70
     0
  0
ENDTAB
  0
TABLE
  2
UCS
  5
7
330
0
100
AcDbSymbolTable
 70
     0
  0
ENDTAB
  0
TABLE
  2
APPID
  5
9
330
0
100
AcDbSymbolTable
 70
     2
  0
APPID
  5
12
330
9
100
AcDbSymbolTableRecord
100
AcDbRegAppTableRecord
  2
ACAD
 70
     0
  0
ENDTAB
  0
TABLE
  2
DIMSTYLE
  5
A
330
0
100
AcDbSymbolTable
 70
     1
  0
DIMSTYLE
105
27
330
A
100
AcDbSymbolTableRecord
100
AcDbDimStyleTableRecord
  2
ISO-25
 70
     0
  3

  4

  5

  6

  7

 40
1.0
 41
2.5
 42
0.625
 43
3.75
 44
1.25
 45
0.0
 46
0.0
 47
0.0
 48
0.0
140
2.5
141
2.5
142
0.0
143
0.03937007874016
144
1.0
145
0.0
146
1.0
147
0.625
 71
     0
 72
     0
 73
     0
 74
     0
 75
     0
 76
     0
 77
     1
 78
     8
170
     0
171
     3
172
     1
173
     0
174
     0
175
     0
176
     0
177
     0
178
     0
270
     2
271
     2
272
     2
273
     2
274
     3
340
11
275
     0
280
     0
281
     0
282
     0
283
     0
284
     8
285
     0
286
     0
287
     3
288
     0
  0
ENDTAB
  0
TABLE
  2
BLOCK_RECORD
  5
1
330
0
100
AcDbSymbolTable
 70
     1
  0
BLOCK_RECORD
  5
1F
330
1
100
AcDbSymbolTableRecord
100
AcDbBlockTableRecord
  2
*MODEL_SPACE
  0
BLOCK_RECORD
  5
1B
330
1
100
AcDbSymbolTableRecord
100
AcDbBlockTableRecord
  2
*PAPER_SPACE
  0
ENDTAB
  0
ENDSEC
  0
SECTION
  2
BLOCKS
  0
BLOCK
  5
20
330
1F
100
AcDbEntity
  8
0
100
AcDbBlockBegin
  2
*MODEL_SPACE
 70
     0
 10
0.0
 20
0.0
 30
0.0
  3
*MODEL_SPACE
  1

  0
ENDBLK
  5
21
330
1F
100
AcDbEntity
  8
0
100
AcDbBlockEnd
  0
BLOCK
  5
1C
330
1B
100
AcDbEntity
 67
     1
  8
0
100
AcDbBlockBegin
  2
*PAPER_SPACE
  1

  0
ENDBLK
  5
1D
330
1B
100
AcDbEntity
 67
     1
  8
0
100
AcDbBlockEnd
  0
ENDSEC
  0
SECTION
  2
ENTITIES
  0
LWPOLYLINE
  5
100
100
AcDbEntity
  8
Layer_1
 62
7
100
AcDbPolyline
 90
80
 70
0
 10
8.260165
 20
1.543320
 30
0.0
 10
8.428561
 20
1.694532
 30
0.0
 10
8.548850
 20
1.873244
 30
0.0
 10
8.672573
 20
2.299399
 30
0.0
 10
8.670033
 20
2.526221
 30
0.0
 10
8.621059
 20
2.739296
 30
0.0
 10
8.525691
 20
2.938627
 30
0.0
 10
8.383930
 20
3.124211
 30
0.0
 10
6.184426
 20
5.378701
 30
0.0
 10
5.875119
 20
5.763609
 30
0.0
 10
5.662047
 20
6.203515
 30
0.0
 10
5.548630
 20
6.677778
 30
0.0
 10
5.538329
 20
7.165797
 30
0.0
 10
5.627680
 20
7.643494
 30
0.0
 10
5.813267
 20
8.086837
 30
0.0
 10
6.088202
 20
8.492365
 30
0.0
 10
6.445623
 20
8.829169
 30
0.0
 10
6.864900
 20
9.083483
 30
0.0
 10
7.325425
 20
9.241578
 30
0.0
 10
7.816873
 20
9.299995
 30
0.0
 10
8.301454
 20
9.255322
 30
0.0
 10
8.761970
 20
9.100661
 30
0.0
 10
9.181253
 20
8.856661
 30
0.0
 10
9.552415
 20
8.540476
 30
0.0
 10
9.841106
 20
8.141823
 30
0.0
 10
9.923582
 20
7.901245
 30
0.0
 10
9.896094
 20
7.646935
 30
0.0
 10
9.786112
 20
7.413232
 30
0.0
 10
9.593662
 20
7.234529
 30
0.0
 10
9.353087
 20
7.148606
 30
0.0
 10
9.098774
 20
7.165794
 30
0.0
 10
8.868509
 20
7.286074
 30
0.0
 10
8.700112
 20
7.481973
 30
0.0
 10
8.418297
 20
7.787834
 30
0.0
 10
8.040263
 20
7.963114
 30
0.0
 10
7.825466
 20
7.982023
 30
0.0
 10
7.620979
 20
7.956256
 30
0.0
 10
7.426805
 20
7.885808
 30
0.0
 10
7.242943
 20
7.770681
 30
0.0
 10
7.084853
 20
7.628051
 30
0.0
 10
6.968005
 20
7.461371
 30
0.0
 10
6.892397
 20
7.270634
 30
0.0
 10
6.858031
 20
7.055843
 30
0.0
 10
6.859724
 20
6.843620
 30
0.0
 10
6.906119
 20
6.646866
 30
0.0
 10
6.997189
 20
6.465581
 30
0.0
 10
7.132941
 20
6.299764
 30
0.0
 10
9.318696
 20
4.045274
 30
0.0
 10
9.631434
 20
3.646610
 30
0.0
 10
9.854825
 20
3.192966
 30
0.0
 10
9.978542
 20
2.704950
 30
0.0
 10
9.992287
 20
2.203190
 30
0.0
 10
9.899495
 20
1.701427
 30
0.0
 10
9.703602
 20
1.240908
 30
0.0
 10
9.418351
 20
0.831937
 30
0.0
 10
9.057499
 20
0.484829
 30
0.0
 10
8.624468
 20
0.220201
 30
0.0
 10
8.150205
 20
0.058676
 30
0.0
 10
7.651877
 20
0.000251
 30
0.0
 10
7.146682
 20
0.044932
 30
0.0
 10
6.662101
 20
0.199584
 30
0.0
 10
6.225639
 20
0.443591
 30
0.0
 10
5.854471
 20
0.780389
 30
0.0
 10
5.565789
 20
1.185923
 30
0.0
 10
5.469560
 20
1.426492
 30
0.0
 10
5.483304
 20
1.680811
 30
0.0
 10
5.603587
 20
1.921380
 30
0.0
 10
5.799483
 20
2.093216
 30
0.0
 10
6.040052
 20
2.175699
 30
0.0
 10
6.294371
 20
2.148210
 30
0.0
 10
6.528065
 20
2.038234
 30
0.0
 10
6.706777
 20
1.845778
 30
0.0
 10
6.838230
 20
1.664490
 30
0.0
 10
6.998897
 20
1.519289
 30
0.0
 10
7.188776
 20
1.410174
 30
0.0
 10
7.407870
 20
1.337143
 30
0.0
 10
7.641565
 20
1.319109
 30
0.0
 10
7.861514
 20
1.347461
 30
0.0
 10
8.067717
 20
1.422210
 30
0.0
 10
8.260176
 20
1.543357
 30
0.0
  0
LWPOLYLINE
  5
101
100
AcDbEntity
  8
Layer_1
 62
7
100
AcDbPolyline
 90
41
 70
0
 10
4.838920
 20
0.952240
 30
0.0
 10
4.897337
 20
0.701358
 30
0.0
 10
4.852664
 20
0.443605
 30
0.0
 10
4.728935
 20
0.220217
 30
0.0
 10
4.522738
 20
0.072440
 30
0.0
 10
4.271854
 20
0.003705
 30
0.0
 10
4.014103
 20
0.044952
 30
0.0
 10
3.797585
 20
0.168672
 30
0.0
 10
3.642936
 20
0.374875
 30
0.0
 10
1.842095
 20
4.127776
 30
0.0
 10
1.319713
 20
3.412938
 30
0.0
 10
1.319713
 20
0.663560
 30
0.0
 10
1.271597
 20
0.409241
 30
0.0
 10
1.127258
 20
0.196166
 30
0.0
 10
0.914177
 20
0.051824
 30
0.0
 10
0.659861
 20
0.003711
 30
0.0
 10
0.405542
 20
0.051824
 30
0.0
 10
0.192467
 20
0.196166
 30
0.0
 10
0.048122
 20
0.409241
 30
0.0
 10
0.000011
 20
0.663560
 30
0.0
 10
0.000011
 20
8.636756
 30
0.0
 10
0.048122
 20
8.891066
 30
0.0
 10
0.192467
 20
9.104150
 30
0.0
 10
0.405542
 20
9.248487
 30
0.0
 10
0.659861
 20
9.296608
 30
0.0
 10
0.914177
 20
9.248487
 30
0.0
 10
1.127258
 20
9.104150
 30
0.0
 10
1.271597
 20
8.891066
 30
0.0
 10
1.319713
 20
8.636756
 30
0.0
 10
1.319713
 20
5.681175
 30
0.0
 10
3.697924
 20
9.021670
 30
0.0
 10
3.886939
 20
9.196936
 30
0.0
 10
4.124079
 20
9.282861
 30
0.0
 10
4.385265
 20
9.275975
 30
0.0
 10
4.618967
 20
9.172876
 30
0.0
 10
4.804543
 20
8.990725
 30
0.0
 10
4.893903
 20
8.746724
 30
0.0
 10
4.883602
 20
8.492399
 30
0.0
 10
4.770193
 20
8.251836
 30
0.0
 10
2.708159
 20
5.351240
 30
0.0
 10
4.838929
 20
0.952237
 30
0.0
  0
ENDSEC
  0
SECTION
  2
OBJECTS
  0
DICTIONARY
  5
C
330
0
100
AcDbDictionary
  3
ACAD_GROUP
350
D
  3
ACAD_MLINESTYLE
350
17
  0
DICTIONARY
  5
D
330
C
100
AcDbDictionary
  0
DICTIONARY
  5
1A
330
C
100
AcDbDictionary
  0
DICTIONARY
  5
17
330
C
100
AcDbDictionary
  3
STANDARD
350
18
  0
DICTIONARY
  5
19
330
C
100
AcDbDictionary
  0
ENDSEC
  0
EOF
