<?xml version="1.0" encoding="UTF-8" standalone="no"?>
<!-- Created with Inkscape (http://www.inkscape.org/) -->

<svg
   xmlns:dc="http://purl.org/dc/elements/1.1/"
   xmlns:cc="http://creativecommons.org/ns#"
   xmlns:rdf="http://www.w3.org/1999/02/22-rdf-syntax-ns#"
   xmlns:svg="http://www.w3.org/2000/svg"
   xmlns="http://www.w3.org/2000/svg"
   xmlns:sodipodi="http://sodipodi.sourceforge.net/DTD/sodipodi-0.dtd"
   xmlns:inkscape="http://www.inkscape.org/namespaces/inkscape"
   width="35.433083"
   height="32.953548"
   id="svg2"
   version="1.1"
   inkscape:version="0.48.2 r9819"
   sodipodi:docname="KS.svg">
  <sodipodi:namedview
     id="base"
     pagecolor="#ffffff"
     bordercolor="#666666"
     borderopacity="1.0"
     inkscape:pageopacity="0.0"
     inkscape:pageshadow="2"
     inkscape:zoom="11.313708"
     inkscape:cx="17.007766"
     inkscape:cy="16.479479"
     inkscape:document-units="px"
     inkscape:current-layer="layer1"
     showgrid="false"
     fit-margin-top="0"
     fit-margin-left="0"
     fit-margin-right="0"
     fit-margin-bottom="0"
     inkscape:window-width="1366"
     inkscape:window-height="710"
     inkscape:window-x="0"
     inkscape:window-y="26"
     inkscape:window-maximized="1" />
  <defs
     id="defs4" />
  <metadata
     id="metadata7">
    <rdf:RDF>
      <cc:Work
         rdf:about="">
        <dc:format>image/svg+xml</dc:format>
        <dc:type
           rdf:resource="http://purl.org/dc/dcmitype/StillImage" />
        <dc:title />
      </cc:Work>
    </rdf:RDF>
  </metadata>
  <g
     inkscape:label="Layer 1"
     inkscape:groupmode="layer"
     id="layer1"
     transform="translate(-145.0786,-434.77385)">
    <path
       id="path3017"
       style="font-size:40px;font-style:normal;font-variant:normal;font-weight:bold;font-stretch:normal;text-align:start;line-height:125%;letter-spacing:0px;word-spacing:0px;writing-mode:lr-tb;text-anchor:start;fill:#000000;fill-opacity:1;stroke:none;font-family:Miso;-inkscape-font-specification:Miso Bold"
       d="m 174.3469,462.25894 0.59668,-0.53579 0.42622,-0.63323 0.43839,-1.51 -0.009,-0.8037 -0.17353,-0.75499 -0.33792,-0.70629 -0.5023,-0.65758 -7.79352,-7.98835 -1.09597,-1.36385 -0.75498,-1.55872 -0.40187,-1.68046 -0.0365,-1.7292 0.3166,-1.69263 0.65759,-1.5709 0.97418,-1.43691 1.26645,-1.1934 1.48563,-0.90111 1.63178,-0.56018 1.74135,-0.20699 1.71702,0.15829 1.63175,0.54801 1.48565,0.86457 1.31514,1.12034 1.02292,1.41255 0.29224,0.85244 -0.0974,0.9011 -0.3897,0.82808 -0.68191,0.6332 -0.85243,0.30445 -0.90111,-0.0609 -0.8159,-0.42619 -0.59668,-0.69413 -0.99856,-1.08376 -1.33949,-0.62107 -0.76109,-0.067 -0.72456,0.0913 -0.68802,0.24962 -0.65148,0.40793 -0.56016,0.50538 -0.41403,0.5906 -0.2679,0.67584 -0.12177,0.76107 0.006,0.75197 0.16439,0.69716 0.32269,0.64235 0.48101,0.58754 7.7448,7.98835 1.10813,1.41259 0.79154,1.6074 0.43837,1.72919 0.0487,1.77789 -0.32879,1.7779 -0.69411,1.63176 -1.01073,1.44911 -1.27861,1.22991 -1.53436,0.93766 -1.68046,0.57233 -1.76573,0.20702 -1.79006,-0.15832 -1.71702,-0.54798 -1.54652,-0.86459 -1.31516,-1.19338 -1.02289,-1.43693 -0.34097,-0.85241 0.0487,-0.90113 0.4262,-0.85241 0.69412,-0.60887 0.85241,-0.29226 0.90113,0.0974 0.82805,0.38968 0.63323,0.68193 0.46578,0.64236 0.56929,0.51449 0.6728,0.38663 0.77632,0.25877 0.82805,0.0639 0.77935,-0.10046 0.73064,-0.26486 0.68194,-0.42926 m -12.12256,2.09451 0.20699,0.88895 -0.15829,0.9133 -0.43841,0.79153 -0.73062,0.52362 -0.88896,0.24355 -0.91329,-0.14615 -0.76719,-0.43838 -0.54797,-0.73064 -6.38093,-13.29768 -1.85096,2.53289 0,9.74189 -0.17049,0.90113 -0.51144,0.75499 -0.75501,0.51145 -0.90112,0.17048 -0.90113,-0.17048 -0.75499,-0.51145 -0.51146,-0.75499 -0.17047,-0.90113 0,-28.25148 0.17047,-0.9011 0.51146,-0.75502 0.75499,-0.51143 0.90113,-0.17051 0.90112,0.17051 0.75501,0.51143 0.51144,0.75502 0.17049,0.9011 0,10.47253 8.42673,-11.8364 0.66974,-0.62102 0.84026,-0.30446 0.92546,0.0244 0.82808,0.36531 0.65755,0.64542 0.31663,0.86457 -0.0365,0.90115 -0.40184,0.85239 -7.30642,10.2777 7.54997,15.58702" />
  </g>
</svg>
