<?xml version="1.0" encoding="UTF-8" standalone="no"?>
<!-- Created with Inkscape (http://www.inkscape.org/) -->

<svg
   xmlns:dc="http://purl.org/dc/elements/1.1/"
   xmlns:cc="http://creativecommons.org/ns#"
   xmlns:rdf="http://www.w3.org/1999/02/22-rdf-syntax-ns#"
   xmlns:svg="http://www.w3.org/2000/svg"
   xmlns="http://www.w3.org/2000/svg"
   xmlns:sodipodi="http://sodipodi.sourceforge.net/DTD/sodipodi-0.dtd"
   xmlns:inkscape="http://www.inkscape.org/namespaces/inkscape"
   version="1.0"
   width="354.33069"
   height="425.95758"
   id="svg2"
   inkscape:version="0.48.2 r9819"
   sodipodi:docname="PLA.dxf">
  <sodipodi:namedview
     pagecolor="#ffffff"
     bordercolor="#666666"
     borderopacity="1"
     objecttolerance="10"
     gridtolerance="10"
     guidetolerance="10"
     inkscape:pageopacity="0"
     inkscape:pageshadow="2"
     inkscape:window-width="1366"
     inkscape:window-height="710"
     id="namedview3053"
     showgrid="false"
     inkscape:zoom="0.90509668"
     inkscape:cx="163.29173"
     inkscape:cy="212.94006"
     inkscape:window-x="0"
     inkscape:window-y="26"
     inkscape:window-maximized="1"
     inkscape:current-layer="svg2"
     fit-margin-top="0"
     fit-margin-left="0"
     fit-margin-right="0"
     fit-margin-bottom="0" />
  <metadata
     id="metadata3057">
    <rdf:RDF>
      <cc:Work
         rdf:about="">
        <dc:format>image/svg+xml</dc:format>
        <dc:type
           rdf:resource="http://purl.org/dc/dcmitype/StillImage" />
        <dc:title></dc:title>
      </cc:Work>
    </rdf:RDF>
  </metadata>
  <defs
     id="defs3055" />
  <g
     id="text2465"
     style="font-size:22px;font-style:normal;font-variant:normal;font-weight:bold;font-stretch:normal;text-align:start;line-height:125%;writing-mode:lr-tb;text-anchor:start;fill:#000000;fill-opacity:1;stroke:none;font-family:Nimbus Sans L"
     transform="matrix(4.6052717,0,0,4.6052717,-51.953221,-17.106409)" />
  <g
     id="text2469"
     style="font-size:22px;font-style:normal;font-variant:normal;font-weight:bold;font-stretch:normal;text-align:start;line-height:125%;writing-mode:lr-tb;text-anchor:start;fill:#000000;fill-opacity:1;stroke:none;font-family:Nimbus Sans L"
     transform="matrix(4.6052717,0,0,4.6052717,-51.953221,-17.106409)" />
  <path
     id="path3264"
     style="font-size:medium;font-style:normal;font-variant:normal;font-weight:normal;font-stretch:normal;text-indent:0;text-align:start;text-decoration:none;line-height:normal;letter-spacing:normal;word-spacing:normal;text-transform:none;direction:ltr;block-progression:tb;writing-mode:lr-tb;text-anchor:start;baseline-shift:baseline;color:#000000;fill:#000000;fill-opacity:1;stroke:none;stroke-width:7;marker:none;visibility:visible;display:inline;overflow:visible;enable-background:accumulate;font-family:Sans;-inkscape-font-specification:Sans"
     d="m 294.30564,151.70558 -28.20728,15.68671 55.83892,100.45249 0.14391,1.15132 -0.28783,8.34705 -0.86349,3.16612 -1.58306,2.73438 -2.44655,2.15873 -3.74178,1.58306 -85.48536,0.86349 0,-23.17028 -67.49601,39.72047 67.49601,38.56915 0,-22.88244 88.93931,-0.86349 a 16.120063,16.120063 0 0 0 6.33225,-1.29523 l 9.21054,-4.02962 a 16.120063,16.120063 0 0 0 4.46136,-2.73438 l 6.18833,-5.75659 a 16.120063,16.120063 0 0 0 3.16613,-3.88569 l 3.88569,-6.62008 a 16.120063,16.120063 0 0 0 1.58307,-3.74178 l 2.0148,-6.90791 a 16.120063,16.120063 0 0 0 0.57566,-3.8857 l 0.28783,-12.23275 a 16.120063,16.120063 0 0 0 -0.14391,-2.8783 l -0.86349,-5.32484 a 16.120063,16.120063 0 0 0 -1.87089,-5.32485 L 294.30564,151.70558 z M 95.127644,128.53531 27.487716,168.39969 46.916206,179.33721 3.0222099,256.90726 1.1513183,262.95168 3.6562501e-7,273.02571 0.14391511,278.20664 l 1.72697689,8.34705 1.8708916,4.60528 3.885698,6.76399 2.4465504,3.16612 5.037016,5.18093 3.02221,2.44655 10.361861,6.33225 2.73438,1.43915 4.893101,1.87089 5.46876,1.0074 117.72226,2.01481 0.57566,-32.2369 -114.987881,-2.01481 -1.295232,-0.43174 -6.763993,-4.46136 -2.446551,-2.44655 -1.439147,-2.30263 -0.719574,-3.31004 0.431744,-4.02962 42.167019,-74.83566 20.291979,11.51318 0,-78.28962 z m 84.149836,220.01687 -14.08293,2.5709 -11.04344,7.66201 -7.63669,12.75315 -2.69754,15.71664 2.69754,15.75464 7.63669,12.71515 11.05611,7.70002 14.17157,2.53289 14.17157,-2.53289 11.05611,-7.70002 7.5607,-12.61384 2.77353,-15.34937 -2.69754,-16.15989 -7.63669,-12.81648 -11.10676,-7.738 -14.22223,-2.49491 m 0.10131,12.96844 8.4393,1.83319 6.41615,5.23361 4.07955,8.23509 1.42951,10.83764 -1.47225,10.3263 -4.15079,7.99922 -6.4304,5.1687 -8.31107,1.83477 -8.35381,-1.84111 -6.42565,-5.21302 -4.12705,-8.11953 -1.458,-10.5606 1.458,-10.5606 4.12705,-8.11953 6.42565,-5.21302 8.35381,-1.84111 m 54.50799,-197.17011 -50.55667,0 0,12.66449 35.76454,0 -15.80529,24.01189 -5.851,15.75463 -3.57139,19.40201 14.28555,0 2.18305,-16.16464 4.7951,-14.97735 7.73959,-14.57843 11.01652,-14.96785 0,-11.14475 m -82.23216,-1.51974 -10.57486,2.36826 -8.06728,6.85149 -4.59721,11.22075 -1.48175,17.45167 1.27911,16.27388 3.78669,10.8788 8.26992,7.86466 11.38538,2.77352 10.57485,-2.33027 8.06729,-6.88948 4.55922,-11.11944 1.51974,-17.0464 -1.24112,-16.67914 -3.82468,-10.98013 -8.26992,-7.90264 -11.38538,-2.73553 m 0,11.4487 4.87583,1.48175 3.43208,4.29326 2.22895,20.76978 -1.82369,18.94609 -3.44474,4.88849 -5.26843,1.69704 -4.91383,-1.41842 -3.39408,-4.15395 -2.22895,-20.16188 1.82368,-19.55399 3.44475,-5.0278 5.26843,-1.76037 M 174.56858,0.01944513 a 16.120063,16.120063 0 0 0 -2.44655,0.43174423 l -7.05182,1.72697684 a 16.120063,16.120063 0 0 0 -3.59787,1.4391475 L 150.82265,9.517818 a 16.120063,16.120063 0 0 0 -2.59047,1.583062 l -4.02961,3.310039 a 16.120063,16.120063 0 0 0 -3.74178,4.317442 l -60.588109,100.884229 27.631629,16.69411 59.14896,-98.581593 0.14391,-0.287829 0.28783,-0.143915 8.20314,-4.461357 2.59047,-0.575659 3.74178,0 2.44655,0.863488 3.59787,2.590466 43.60617,73.828259 -19.42849,11.51318 67.49601,38.56915 0,-78.433531 L 259.04653,93.132282 213.8573,16.56964 a 16.120063,16.120063 0 0 0 -4.31744,-4.749186 l -8.05922,-6.0444192 a 16.120063,16.120063 0 0 0 -4.60527,-2.4465506 l -8.05923,-2.59046536 a 16.120063,16.120063 0 0 0 -5.03702,-0.71957371 l -7.62748,0 a 16.120063,16.120063 0 0 0 -1.58306,0 z" />
  <g
     inkscape:groupmode="layer"
     id="layer1"
     inkscape:label="initials"
     transform="translate(159.44882,191.68091)" />
</svg>
