999
DXF created by Inkscape
  0
SECTION
  2
HEADER
  9
$ACADVER
  1
AC1014
  9
$HANDSEED
  5
FFFF
  9
$MEASUREMENT
 70
     1
  0
ENDSEC
  0
SECTION
  2
TABLES
  0
TABLE
  2
VPORT
  5
8
330
0
100
AcDbSymbolTable
 70
     4
  0
VPORT
  5
2E
330
8
100
AcDbSymbolTableRecord
100
AcDbViewportTableRecord
  2
*ACTIVE
 70
     0
 10
0.0
 20
0.0
 11
1.0
 21
1.0
 12
210.0
 22
148.5
 13
0.0
 23
0.0
 14
10.0
 24
10.0
 15
10.0
 25
10.0
 16
0.0
 26
0.0
 36
1.0
 17
0.0
 27
0.0
 37
0.0
 40
341.0
 41
1.24
 42
50.0
 43
0.0
 44
0.0
 50
0.0
 51
0.0
 71
     0
 72
   100
 73
     1
 74
     3
 75
     0
 76
     0
 77
     0
 78
     0
  0
ENDTAB
  0
TABLE
  2
LTYPE
  5
5
330
0
100
AcDbSymbolTable
 70
     1
  0
LTYPE
  5
14
330
5
100
AcDbSymbolTableRecord
100
AcDbLinetypeTableRecord
  2
BYBLOCK
 70
     0
  3

 72
    65
 73
     0
 40
0.0
  0
LTYPE
  5
15
330
5
100
AcDbSymbolTableRecord
100
AcDbLinetypeTableRecord
  2
BYLAYER
 70
     0
  3

 72
    65
 73
     0
 40
0.0
  0
LTYPE
  5
16
330
5
100
AcDbSymbolTableRecord
100
AcDbLinetypeTableRecord
  2
CONTINUOUS
 70
     0
  3
Solid line
 72
    65
 73
     0
 40
0.0
  0
ENDTAB
  0
TABLE
  2
LAYER
  5
2
100
AcDbSymbolTable
 70
1
  0
LAYER
  5
50
100
AcDbSymbolTableRecord
100
AcDbLayerTableRecord
  2
0
 70
0
  6
CONTINUOUS
  0
ENDTAB
  0
TABLE
  2
STYLE
  5
3
330
0
100
AcDbSymbolTable
 70
     1
  0
STYLE
  5
11
330
3
100
AcDbSymbolTableRecord
100
AcDbTextStyleTableRecord
  2
STANDARD
 70
     0
 40
0.0
 41
1.0
 50
0.0
 71
     0
 42
2.5
  3
txt
  4

  0
ENDTAB
  0
TABLE
  2
VIEW
  5
6
330
0
100
AcDbSymbolTable
 70
     0
  0
ENDTAB
  0
TABLE
  2
UCS
  5
7
330
0
100
AcDbSymbolTable
 70
     0
  0
ENDTAB
  0
TABLE
  2
APPID
  5
9
330
0
100
AcDbSymbolTable
 70
     2
  0
APPID
  5
12
330
9
100
AcDbSymbolTableRecord
100
AcDbRegAppTableRecord
  2
ACAD
 70
     0
  0
ENDTAB
  0
TABLE
  2
DIMSTYLE
  5
A
330
0
100
AcDbSymbolTable
 70
     1
  0
DIMSTYLE
105
27
330
A
100
AcDbSymbolTableRecord
100
AcDbDimStyleTableRecord
  2
ISO-25
 70
     0
  3

  4

  5

  6

  7

 40
1.0
 41
2.5
 42
0.625
 43
3.75
 44
1.25
 45
0.0
 46
0.0
 47
0.0
 48
0.0
140
2.5
141
2.5
142
0.0
143
0.03937007874016
144
1.0
145
0.0
146
1.0
147
0.625
 71
     0
 72
     0
 73
     0
 74
     0
 75
     0
 76
     0
 77
     1
 78
     8
170
     0
171
     3
172
     1
173
     0
174
     0
175
     0
176
     0
177
     0
178
     0
270
     2
271
     2
272
     2
273
     2
274
     3
340
11
275
     0
280
     0
281
     0
282
     0
283
     0
284
     8
285
     0
286
     0
287
     3
288
     0
  0
ENDTAB
  0
TABLE
  2
BLOCK_RECORD
  5
1
330
0
100
AcDbSymbolTable
 70
     1
  0
BLOCK_RECORD
  5
1F
330
1
100
AcDbSymbolTableRecord
100
AcDbBlockTableRecord
  2
*MODEL_SPACE
  0
BLOCK_RECORD
  5
1B
330
1
100
AcDbSymbolTableRecord
100
AcDbBlockTableRecord
  2
*PAPER_SPACE
  0
ENDTAB
  0
ENDSEC
  0
SECTION
  2
BLOCKS
  0
BLOCK
  5
20
330
1F
100
AcDbEntity
  8
0
100
AcDbBlockBegin
  2
*MODEL_SPACE
 70
     0
 10
0.0
 20
0.0
 30
0.0
  3
*MODEL_SPACE
  1

  0
ENDBLK
  5
21
330
1F
100
AcDbEntity
  8
0
100
AcDbBlockEnd
  0
BLOCK
  5
1C
330
1B
100
AcDbEntity
 67
     1
  8
0
100
AcDbBlockBegin
  2
*PAPER_SPACE
  1

  0
ENDBLK
  5
1D
330
1B
100
AcDbEntity
 67
     1
  8
0
100
AcDbBlockEnd
  0
ENDSEC
  0
SECTION
  2
ENTITIES
  0
LWPOLYLINE
  5
100
100
AcDbEntity
  8
0
 62
7
100
AcDbPolyline
 90
29
 70
0
 10
8.272898
 20
7.722705
 30
0.0
 10
7.484786
 20
7.284419
 30
0.0
 10
9.044926
 20
4.477776
 30
0.0
 10
9.048947
 20
4.445608
 30
0.0
 10
9.040905
 20
4.212391
 30
0.0
 10
9.016779
 20
4.123930
 30
0.0
 10
8.972548
 20
4.047531
 30
0.0
 10
8.904192
 20
3.987217
 30
0.0
 10
8.799646
 20
3.942986
 30
0.0
 10
6.411185
 20
3.918860
 30
0.0
 10
6.411185
 20
4.566238
 30
0.0
 10
4.594249
 20
3.442667
 30
0.0
 10
6.411185
 20
2.378826
 30
0.0
 10
6.411185
 20
3.018161
 30
0.0
 10
8.896150
 20
3.042287
 30
0.0
 10
9.073073
 20
3.078476
 30
0.0
 10
9.330415
 20
3.191063
 30
0.0
 10
9.455065
 20
3.267462
 30
0.0
 10
9.627968
 20
3.428301
 30
0.0
 10
9.716429
 20
3.536867
 30
0.0
 10
9.824995
 20
3.721832
 30
0.0
 10
9.869226
 20
3.826378
 30
0.0
 10
9.925520
 20
4.019385
 30
0.0
 10
9.941604
 20
4.127951
 30
0.0
 10
9.949646
 20
4.469734
 30
0.0
 10
9.945625
 20
4.550154
 30
0.0
 10
9.921499
 20
4.698930
 30
0.0
 10
9.869226
 20
4.847706
 30
0.0
 10
8.272898
 20
7.722705
 30
0.0
  0
LWPOLYLINE
  5
101
100
AcDbEntity
  8
0
 62
7
100
AcDbPolyline
 90
29
 70
0
 10
2.694084
 20
8.328741
 30
0.0
 10
0.818005
 20
7.256272
 30
0.0
 10
1.360837
 20
6.950677
 30
0.0
 10
0.134439
 20
4.783370
 30
0.0
 10
0.082166
 20
4.614489
 30
0.0
 10
0.049998
 20
4.333021
 30
0.0
 10
0.054019
 20
4.188266
 30
0.0
 10
0.102271
 20
3.955049
 30
0.0
 10
0.154544
 20
3.826378
 30
0.0
 10
0.263110
 20
3.637392
 30
0.0
 10
0.331467
 20
3.548930
 30
0.0
 10
0.472201
 20
3.404175
 30
0.0
 10
0.556641
 20
3.335818
 30
0.0
 10
0.846152
 20
3.158895
 30
0.0
 10
0.922550
 20
3.118685
 30
0.0
 10
1.059264
 20
3.066413
 30
0.0
 10
1.212061
 20
3.038266
 30
0.0
 10
4.501221
 20
2.981972
 30
0.0
 10
4.517305
 20
3.882671
 30
0.0
 10
1.304543
 20
3.938965
 30
0.0
 10
1.268355
 20
3.951028
 30
0.0
 10
1.079369
 20
4.075678
 30
0.0
 10
1.011012
 20
4.144035
 30
0.0
 10
0.970802
 20
4.208370
 30
0.0
 10
0.950697
 20
4.300853
 30
0.0
 10
0.962760
 20
4.413440
 30
0.0
 10
2.140907
 20
6.504349
 30
0.0
 10
2.707865
 20
6.182671
 30
0.0
 10
2.694084
 20
8.328741
 30
0.0
  0
LWPOLYLINE
  5
102
100
AcDbEntity
  8
0
 62
7
100
AcDbPolyline
 90
17
 70
0
 10
5.059011
 20
2.222811
 30
0.0
 10
4.665534
 20
2.150980
 30
0.0
 10
4.356980
 20
1.936904
 30
0.0
 10
4.143611
 20
1.580581
 30
0.0
 10
4.068242
 20
1.141458
 30
0.0
 10
4.143611
 20
0.701273
 30
0.0
 10
4.356980
 20
0.346012
 30
0.0
 10
4.665888
 20
0.130873
 30
0.0
 10
5.061842
 20
0.060104
 30
0.0
 10
5.457795
 20
0.130873
 30
0.0
 10
5.766703
 20
0.346012
 30
0.0
 10
5.977949
 20
0.698442
 30
0.0
 10
6.055441
 20
1.127304
 30
0.0
 10
5.980072
 20
1.578811
 30
0.0
 10
5.766703
 20
1.936904
 30
0.0
 10
5.456380
 20
2.153103
 30
0.0
 10
5.059011
 20
2.222811
 30
0.0
  0
LWPOLYLINE
  5
103
100
AcDbEntity
  8
0
 62
7
100
AcDbPolyline
 90
17
 70
0
 10
5.061842
 20
1.860473
 30
0.0
 10
5.297636
 20
1.809254
 30
0.0
 10
5.476903
 20
1.663027
 30
0.0
 10
5.590886
 20
1.432938
 30
0.0
 10
5.630826
 20
1.130135
 30
0.0
 10
5.589691
 20
0.841618
 30
0.0
 10
5.473718
 20
0.618120
 30
0.0
 10
5.294053
 20
0.473706
 30
0.0
 10
5.061842
 20
0.422443
 30
0.0
 10
4.828436
 20
0.473883
 30
0.0
 10
4.648903
 20
0.619535
 30
0.0
 10
4.533594
 20
0.846394
 30
0.0
 10
4.492857
 20
1.141458
 30
0.0
 10
4.533594
 20
1.436521
 30
0.0
 10
4.648903
 20
1.663380
 30
0.0
 10
4.828436
 20
1.809032
 30
0.0
 10
5.061842
 20
1.860473
 30
0.0
  0
LWPOLYLINE
  5
104
100
AcDbEntity
  8
0
 62
7
100
AcDbPolyline
 90
13
 70
0
 10
6.584795
 20
7.369406
 30
0.0
 10
5.172242
 20
7.369406
 30
0.0
 10
5.172242
 20
7.015560
 30
0.0
 10
6.171503
 20
7.015560
 30
0.0
 10
5.729903
 20
6.344668
 30
0.0
 10
5.566426
 20
5.904483
 30
0.0
 10
5.466641
 20
5.362391
 30
0.0
 10
5.865780
 20
5.362391
 30
0.0
 10
5.926774
 20
5.814031
 30
0.0
 10
6.060749
 20
6.232499
 30
0.0
 10
6.276993
 20
6.639820
 30
0.0
 10
6.584795
 20
7.058021
 30
0.0
 10
6.584795
 20
7.369406
 30
0.0
  0
LWPOLYLINE
  5
105
100
AcDbEntity
  8
0
 62
7
100
AcDbPolyline
 90
17
 70
0
 10
4.287228
 20
7.411867
 30
0.0
 10
3.991767
 20
7.345698
 30
0.0
 10
3.766367
 20
7.154268
 30
0.0
 10
3.637921
 20
6.840760
 30
0.0
 10
3.596521
 20
6.353160
 30
0.0
 10
3.632259
 20
5.898468
 30
0.0
 10
3.738059
 20
5.594514
 30
0.0
 10
3.969121
 20
5.374776
 30
0.0
 10
4.287228
 20
5.297283
 30
0.0
 10
4.582690
 20
5.362391
 30
0.0
 10
4.808090
 20
5.554883
 30
0.0
 10
4.935474
 20
5.865560
 30
0.0
 10
4.977936
 20
6.341837
 30
0.0
 10
4.943259
 20
6.807852
 30
0.0
 10
4.836397
 20
7.114637
 30
0.0
 10
4.605336
 20
7.335437
 30
0.0
 10
4.287228
 20
7.411867
 30
0.0
  0
LWPOLYLINE
  5
106
100
AcDbEntity
  8
0
 62
7
100
AcDbPolyline
 90
13
 70
0
 10
4.287228
 20
7.091991
 30
0.0
 10
4.423459
 20
7.050591
 30
0.0
 10
4.519351
 20
6.930637
 30
0.0
 10
4.581628
 20
6.350329
 30
0.0
 10
4.530674
 20
5.820976
 30
0.0
 10
4.434428
 20
5.684391
 30
0.0
 10
4.287228
 20
5.636976
 30
0.0
 10
4.149936
 20
5.676606
 30
0.0
 10
4.055105
 20
5.792668
 30
0.0
 10
3.992828
 20
6.355991
 30
0.0
 10
4.043782
 20
6.902329
 30
0.0
 10
4.140028
 20
7.042806
 30
0.0
 10
4.287228
 20
7.091991
 30
0.0
  0
LWPOLYLINE
  5
107
100
AcDbEntity
  8
0
 62
7
100
AcDbPolyline
 90
31
 70
0
 10
4.927444
 20
11.960816
 30
0.0
 10
4.859088
 20
11.948753
 30
0.0
 10
4.662060
 20
11.900501
 30
0.0
 10
4.561535
 20
11.860291
 30
0.0
 10
4.263983
 20
11.695431
 30
0.0
 10
4.191605
 20
11.651201
 30
0.0
 10
4.079018
 20
11.558718
 30
0.0
 10
3.974473
 20
11.438089
 30
0.0
 10
2.281641
 20
8.619383
 30
0.0
 10
3.053669
 20
8.152950
 30
0.0
 10
4.706291
 20
10.907320
 30
0.0
 10
4.710312
 20
10.915362
 30
0.0
 10
4.718354
 20
10.919383
 30
0.0
 10
4.947549
 20
11.044033
 30
0.0
 10
5.019927
 20
11.060117
 30
0.0
 10
5.124472
 20
11.060117
 30
0.0
 10
5.192829
 20
11.035991
 30
0.0
 10
5.293353
 20
10.963613
 30
0.0
 10
6.511710
 20
8.900852
 30
0.0
 10
5.968878
 20
8.579173
 30
0.0
 10
7.827156
 20
7.570453
 30
0.0
 10
7.854716
 20
9.692984
 30
0.0
 10
7.287758
 20
9.359243
 30
0.0
 10
6.025171
 20
11.498403
 30
0.0
 10
5.904542
 20
11.631096
 30
0.0
 10
5.679367
 20
11.799977
 30
0.0
 10
5.550696
 20
11.868333
 30
0.0
 10
5.325521
 20
11.940711
 30
0.0
 10
5.184787
 20
11.960816
 30
0.0
 10
4.971675
 20
11.960816
 30
0.0
 10
4.927444
 20
11.960816
 30
0.0
  0
ENDSEC
  0
SECTION
  2
OBJECTS
  0
DICTIONARY
  5
C
330
0
100
AcDbDictionary
  3
ACAD_GROUP
350
D
  3
ACAD_MLINESTYLE
350
17
  0
DICTIONARY
  5
D
330
C
100
AcDbDictionary
  0
DICTIONARY
  5
1A
330
C
100
AcDbDictionary
  0
DICTIONARY
  5
17
330
C
100
AcDbDictionary
  3
STANDARD
350
18
  0
DICTIONARY
  5
19
330
C
100
AcDbDictionary
  0
ENDSEC
  0
EOF
