  0
SECTION
  2
HEADER
  9
$ACADVER
  1
AC1014
  9
$HANDSEED
  5
FFFF
  9
$MEASUREMENT
 70
     1
  0
ENDSEC
  0
SECTION
  2
TABLES
  0
TABLE
  2
VPORT
  5
8
330
0
100
AcDbSymbolTable
 70
     4
  0
VPORT
  5
2E
330
8
100
AcDbSymbolTableRecord
100
AcDbViewportTableRecord
  2
*ACTIVE
 70
     0
 10
0.0
 20
0.0
 11
1.0
 21
1.0
 12
210.0
 22
148.5
 13
0.0
 23
0.0
 14
10.0
 24
10.0
 15
10.0
 25
10.0
 16
0.0
 26
0.0
 36
1.0
 17
0.0
 27
0.0
 37
0.0
 40
341.0
 41
1.24
 42
50.0
 43
0.0
 44
0.0
 50
0.0
 51
0.0
 71
     0
 72
   100
 73
     1
 74
     3
 75
     0
 76
     0
 77
     0
 78
     0
  0
ENDTAB
  0
TABLE
  2
LTYPE
  5
5
330
0
100
AcDbSymbolTable
 70
     1
  0
LTYPE
  5
14
330
5
100
AcDbSymbolTableRecord
100
AcDbLinetypeTableRecord
  2
BYBLOCK
 70
     0
  3

 72
    65
 73
     0
 40
0.0
  0
LTYPE
  5
15
330
5
100
AcDbSymbolTableRecord
100
AcDbLinetypeTableRecord
  2
BYLAYER
 70
     0
  3

 72
    65
 73
     0
 40
0.0
  0
LTYPE
  5
16
330
5
100
AcDbSymbolTableRecord
100
AcDbLinetypeTableRecord
  2
CONTINUOUS
 70
     0
  3
Solid line
 72
    65
 73
     0
 40
0.0
  0
ENDTAB
  0
TABLE
  2
LAYER
  5
2
100
AcDbSymbolTable
 70
2
  0
LAYER
  5
50
100
AcDbSymbolTableRecord
100
AcDbLayerTableRecord
  2
0
 70
0
  6
CONTINUOUS
  0
LAYER
  5
51
100
AcDbSymbolTableRecord
100
AcDbLayerTableRecord
  2
initials
 70
0
  6
CONTINUOUS
  0
ENDTAB
  0
TABLE
  2
STYLE
  5
3
330
0
100
AcDbSymbolTable
 70
     1
  0
STYLE
  5
11
330
3
100
AcDbSymbolTableRecord
100
AcDbTextStyleTableRecord
  2
STANDARD
 70
     0
 40
0.0
 41
1.0
 50
0.0
 71
     0
 42
2.5
  3
txt
  4

  0
ENDTAB
  0
TABLE
  2
VIEW
  5
6
330
0
100
AcDbSymbolTable
 70
     0
  0
ENDTAB
  0
TABLE
  2
UCS
  5
7
330
0
100
AcDbSymbolTable
 70
     0
  0
ENDTAB
  0
TABLE
  2
APPID
  5
9
330
0
100
AcDbSymbolTable
 70
     2
  0
APPID
  5
12
330
9
100
AcDbSymbolTableRecord
100
AcDbRegAppTableRecord
  2
ACAD
 70
     0
  0
ENDTAB
  0
TABLE
  2
DIMSTYLE
  5
A
330
0
100
AcDbSymbolTable
 70
     1
  0
DIMSTYLE
105
27
330
A
100
AcDbSymbolTableRecord
100
AcDbDimStyleTableRecord
  2
ISO-25
 70
     0
  3

  4

  5

  6

  7

 40
1.0
 41
2.5
 42
0.625
 43
3.75
 44
1.25
 45
0.0
 46
0.0
 47
0.0
 48
0.0
140
2.5
141
2.5
142
0.0
143
0.03937007874016
144
1.0
145
0.0
146
1.0
147
0.625
 71
     0
 72
     0
 73
     0
 74
     0
 75
     0
 76
     0
 77
     1
 78
     8
170
     0
171
     3
172
     1
173
     0
174
     0
175
     0
176
     0
177
     0
178
     0
270
     2
271
     2
272
     2
273
     2
274
     3
340
11
275
     0
280
     0
281
     0
282
     0
283
     0
284
     8
285
     0
286
     0
287
     3
288
     0
  0
ENDTAB
  0
TABLE
  2
BLOCK_RECORD
  5
1
330
0
100
AcDbSymbolTable
 70
     1
  0
BLOCK_RECORD
  5
1F
330
1
100
AcDbSymbolTableRecord
100
AcDbBlockTableRecord
  2
*MODEL_SPACE
  0
BLOCK_RECORD
  5
1B
330
1
100
AcDbSymbolTableRecord
100
AcDbBlockTableRecord
  2
*PAPER_SPACE
  0
ENDTAB
  0
ENDSEC
  0
SECTION
  2
BLOCKS
  0
BLOCK
  5
20
330
1F
100
AcDbEntity
  8
0
100
AcDbBlockBegin
  2
*MODEL_SPACE
 70
     0
 10
0.0
 20
0.0
 30
0.0
  3
*MODEL_SPACE
  1

  0
ENDBLK
  5
21
330
1F
100
AcDbEntity
  8
0
100
AcDbBlockEnd
  0
BLOCK
  5
1C
330
1B
100
AcDbEntity
 67
     1
  8
0
100
AcDbBlockBegin
  2
*PAPER_SPACE
  1

  0
ENDBLK
  5
1D
330
1B
100
AcDbEntity
 67
     1
  8
0
100
AcDbBlockEnd
  0
ENDSEC
  0
SECTION
  2
ENTITIES
  0
LWPOLYLINE
  5
100
100
AcDbEntity
  8
initials
 62
7
100
AcDbPolyline
 90
315
 70
0
 10
0.341763
 20
6.338667
 30
0.0
 10
0.234401
 20
6.293215
 30
0.0
 10
0.141687
 20
6.222385
 30
0.0
 10
0.069115
 20
6.131122
 30
0.0
 10
0.021075
 20
6.024887
 30
0.0
 10
0.001524
 20
5.909915
 30
0.0
 10
0.013097
 20
5.794021
 30
0.0
 10
0.043659
 20
5.667408
 30
0.0
 10
0.074220
 20
5.540800
 30
0.0
 10
0.104792
 20
5.414141
 30
0.0
 10
0.135360
 20
5.287504
 30
0.0
 10
0.165939
 20
5.160819
 30
0.0
 10
0.196510
 20
5.034168
 30
0.0
 10
0.227090
 20
4.907478
 30
0.0
 10
0.257669
 20
4.780793
 30
0.0
 10
0.288231
 20
4.654179
 30
0.0
 10
0.318807
 20
4.527507
 30
0.0
 10
0.349378
 20
4.400858
 30
0.0
 10
0.379950
 20
4.274201
 30
0.0
 10
0.410514
 20
4.147581
 30
0.0
 10
0.441087
 20
4.020920
 30
0.0
 10
0.471660
 20
3.894261
 30
0.0
 10
0.502244
 20
3.767556
 30
0.0
 10
0.532833
 20
3.640829
 30
0.0
 10
0.563404
 20
3.514177
 30
0.0
 10
0.593966
 20
3.387562
 30
0.0
 10
0.624555
 20
3.260838
 30
0.0
 10
0.655133
 20
3.134160
 30
0.0
 10
0.685718
 20
3.007449
 30
0.0
 10
0.716287
 20
2.880806
 30
0.0
 10
0.746864
 20
2.754129
 30
0.0
 10
0.777427
 20
2.627512
 30
0.0
 10
0.807990
 20
2.500895
 30
0.0
 10
0.838568
 20
2.374211
 30
0.0
 10
0.869149
 20
2.247520
 30
0.0
 10
0.899709
 20
2.120913
 30
0.0
 10
0.930299
 20
1.994185
 30
0.0
 10
0.960887
 20
1.867462
 30
0.0
 10
0.991463
 20
1.740791
 30
0.0
 10
1.022043
 20
1.614101
 30
0.0
 10
1.052603
 20
1.487498
 30
0.0
 10
1.083163
 20
1.360891
 30
0.0
 10
1.113737
 20
1.234229
 30
0.0
 10
1.144324
 20
1.107508
 30
0.0
 10
1.174901
 20
0.980833
 30
0.0
 10
1.205481
 20
0.854145
 30
0.0
 10
1.236048
 20
0.727508
 30
0.0
 10
1.266624
 20
0.600837
 30
0.0
 10
1.297181
 20
0.474244
 30
0.0
 10
1.327760
 20
0.347560
 30
0.0
 10
1.370552
 20
0.234463
 30
0.0
 10
1.442586
 20
0.137351
 30
0.0
 10
1.537915
 20
0.062985
 30
0.0
 10
1.649347
 20
0.016153
 30
0.0
 10
1.769111
 20
0.000114
 30
0.0
 10
1.887569
 20
0.016058
 30
0.0
 10
1.997318
 20
0.063178
 30
0.0
 10
2.090288
 20
0.138175
 30
0.0
 10
2.159711
 20
0.235399
 30
0.0
 10
2.201072
 20
0.347560
 30
0.0
 10
2.231324
 20
0.472561
 30
0.0
 10
2.261607
 20
0.597612
 30
0.0
 10
2.291911
 20
0.722694
 30
0.0
 10
2.322200
 20
0.847660
 30
0.0
 10
2.352504
 20
0.972643
 30
0.0
 10
2.382842
 20
1.097716
 30
0.0
 10
2.413185
 20
1.222766
 30
0.0
 10
2.443530
 20
1.347779
 30
0.0
 10
2.473873
 20
1.472736
 30
0.0
 10
2.504240
 20
1.597752
 30
0.0
 10
2.534607
 20
1.722718
 30
0.0
 10
2.565011
 20
1.847786
 30
0.0
 10
2.595412
 20
1.972795
 30
0.0
 10
2.625814
 20
2.097757
 30
0.0
 10
2.656245
 20
2.222787
 30
0.0
 10
2.686689
 20
2.347815
 30
0.0
 10
2.717130
 20
2.472777
 30
0.0
 10
2.747583
 20
2.597728
 30
0.0
 10
2.778057
 20
2.722709
 30
0.0
 10
2.808531
 20
2.847623
 30
0.0
 10
2.839036
 20
2.972596
 30
0.0
 10
2.869571
 20
3.097624
 30
0.0
 10
2.900114
 20
3.222607
 30
0.0
 10
2.930669
 20
3.347557
 30
0.0
 10
2.961249
 20
3.472529
 30
0.0
 10
2.991833
 20
3.597427
 30
0.0
 10
3.022449
 20
3.722358
 30
0.0
 10
3.053087
 20
3.847275
 30
0.0
 10
3.083774
 20
3.972274
 30
0.0
 10
3.113755
 20
3.847266
 30
0.0
 10
3.143758
 20
3.722232
 30
0.0
 10
3.173767
 20
3.597231
 30
0.0
 10
3.203800
 20
3.472190
 30
0.0
 10
3.233833
 20
3.347195
 30
0.0
 10
3.263874
 20
3.222216
 30
0.0
 10
3.293922
 20
3.097254
 30
0.0
 10
3.323998
 20
2.972222
 30
0.0
 10
3.354078
 20
2.847209
 30
0.0
 10
3.384158
 20
2.722233
 30
0.0
 10
3.414247
 20
2.597260
 30
0.0
 10
3.444357
 20
2.472229
 30
0.0
 10
3.474479
 20
2.347181
 30
0.0
 10
3.504601
 20
2.222169
 30
0.0
 10
3.534725
 20
2.097177
 30
0.0
 10
3.564856
 20
1.972186
 30
0.0
 10
3.594988
 20
1.847217
 30
0.0
 10
3.625131
 20
1.722231
 30
0.0
 10
3.655265
 20
1.597312
 30
0.0
 10
3.685416
 20
1.472345
 30
0.0
 10
3.715570
 20
1.347391
 30
0.0
 10
3.745741
 20
1.222395
 30
0.0
 10
3.775907
 20
1.097442
 30
0.0
 10
3.806074
 20
0.972511
 30
0.0
 10
3.836257
 20
0.847543
 30
0.0
 10
3.866465
 20
0.722498
 30
0.0
 10
3.896661
 20
0.597525
 30
0.0
 10
3.926874
 20
0.472518
 30
0.0
 10
3.957086
 20
0.347560
 30
0.0
 10
3.999878
 20
0.234463
 30
0.0
 10
4.071911
 20
0.137351
 30
0.0
 10
4.167241
 20
0.062985
 30
0.0
 10
4.278673
 20
0.016153
 30
0.0
 10
4.398437
 20
0.000114
 30
0.0
 10
4.516895
 20
0.016058
 30
0.0
 10
4.626644
 20
0.063178
 30
0.0
 10
4.719614
 20
0.138175
 30
0.0
 10
4.789037
 20
0.235399
 30
0.0
 10
4.830398
 20
0.347560
 30
0.0
 10
4.860959
 20
0.474173
 30
0.0
 10
4.891520
 20
0.600782
 30
0.0
 10
4.922093
 20
0.727440
 30
0.0
 10
4.952661
 20
0.854077
 30
0.0
 10
4.983239
 20
0.980762
 30
0.0
 10
5.013810
 20
1.107413
 30
0.0
 10
5.044391
 20
1.234103
 30
0.0
 10
5.074970
 20
1.360788
 30
0.0
 10
5.105532
 20
1.487402
 30
0.0
 10
5.136108
 20
1.614074
 30
0.0
 10
5.166678
 20
1.740723
 30
0.0
 10
5.197250
 20
1.867380
 30
0.0
 10
5.227814
 20
1.994000
 30
0.0
 10
5.258387
 20
2.120662
 30
0.0
 10
5.288961
 20
2.247321
 30
0.0
 10
5.319544
 20
2.374025
 30
0.0
 10
5.350133
 20
2.500752
 30
0.0
 10
5.380705
 20
2.627404
 30
0.0
 10
5.411267
 20
2.754019
 30
0.0
 10
5.441855
 20
2.880744
 30
0.0
 10
5.472433
 20
3.007421
 30
0.0
 10
5.503018
 20
3.134132
 30
0.0
 10
5.533588
 20
3.260776
 30
0.0
 10
5.564165
 20
3.387452
 30
0.0
 10
5.594727
 20
3.514069
 30
0.0
 10
5.625290
 20
3.640687
 30
0.0
 10
5.655869
 20
3.767370
 30
0.0
 10
5.686449
 20
3.894061
 30
0.0
 10
5.717010
 20
4.020668
 30
0.0
 10
5.747599
 20
4.147397
 30
0.0
 10
5.778187
 20
4.274119
 30
0.0
 10
5.808763
 20
4.400790
 30
0.0
 10
5.839344
 20
4.527480
 30
0.0
 10
5.869903
 20
4.654084
 30
0.0
 10
5.900463
 20
4.780690
 30
0.0
 10
5.931037
 20
4.907353
 30
0.0
 10
5.961625
 20
5.034073
 30
0.0
 10
5.992202
 20
5.160749
 30
0.0
 10
6.022781
 20
5.287436
 30
0.0
 10
6.053349
 20
5.414073
 30
0.0
 10
6.083925
 20
5.540744
 30
0.0
 10
6.114482
 20
5.667337
 30
0.0
 10
6.145060
 20
5.794021
 30
0.0
 10
6.160503
 20
5.910519
 30
0.0
 10
6.142831
 20
6.026614
 30
0.0
 10
6.094490
 20
6.133709
 30
0.0
 10
6.020137
 20
6.224828
 30
0.0
 10
5.925432
 20
6.294430
 30
0.0
 10
5.816395
 20
6.338667
 30
0.0
 10
5.698633
 20
6.350266
 30
0.0
 10
5.581802
 20
6.331114
 30
0.0
 10
5.473913
 20
6.282491
 30
0.0
 10
5.382201
 20
6.207661
 30
0.0
 10
5.313175
 20
6.111501
 30
0.0
 10
5.271749
 20
6.000611
 30
0.0
 10
5.241527
 20
5.875610
 30
0.0
 10
5.211332
 20
5.750676
 30
0.0
 10
5.181143
 20
5.625737
 30
0.0
 10
5.150958
 20
5.500787
 30
0.0
 10
5.120774
 20
5.375813
 30
0.0
 10
5.090608
 20
5.250886
 30
0.0
 10
5.060435
 20
5.125908
 30
0.0
 10
5.030260
 20
5.000891
 30
0.0
 10
5.000103
 20
4.875926
 30
0.0
 10
4.969937
 20
4.750898
 30
0.0
 10
4.939788
 20
4.625917
 30
0.0
 10
4.909652
 20
4.500959
 30
0.0
 10
4.879505
 20
4.375926
 30
0.0
 10
4.849375
 20
4.250938
 30
0.0
 10
4.819261
 20
4.125991
 30
0.0
 10
4.789152
 20
4.001030
 30
0.0
 10
4.759039
 20
3.876022
 30
0.0
 10
4.728936
 20
3.751024
 30
0.0
 10
4.698854
 20
3.626077
 30
0.0
 10
4.668775
 20
3.501105
 30
0.0
 10
4.638690
 20
3.376072
 30
0.0
 10
4.608631
 20
3.251107
 30
0.0
 10
4.578559
 20
3.126044
 30
0.0
 10
4.548505
 20
3.001015
 30
0.0
 10
4.518458
 20
2.875962
 30
0.0
 10
4.488440
 20
2.750984
 30
0.0
 10
4.458429
 20
2.625972
 30
0.0
 10
4.428435
 20
2.500975
 30
0.0
 10
4.398437
 20
2.375897
 30
0.0
 10
4.367767
 20
2.500831
 30
0.0
 10
4.337135
 20
2.625720
 30
0.0
 10
4.306500
 20
2.750725
 30
0.0
 10
4.275914
 20
2.875630
 30
0.0
 10
4.245327
 20
3.000632
 30
0.0
 10
4.214764
 20
3.125620
 30
0.0
 10
4.184224
 20
3.250592
 30
0.0
 10
4.153715
 20
3.375509
 30
0.0
 10
4.123197
 20
3.500537
 30
0.0
 10
4.092704
 20
3.625527
 30
0.0
 10
4.062227
 20
3.750518
 30
0.0
 10
4.031777
 20
3.875458
 30
0.0
 10
4.001335
 20
4.000425
 30
0.0
 10
3.970912
 20
4.125369
 30
0.0
 10
3.940504
 20
4.250303
 30
0.0
 10
3.910085
 20
4.375336
 30
0.0
 10
3.879683
 20
4.500348
 30
0.0
 10
3.849307
 20
4.625302
 30
0.0
 10
3.818939
 20
4.750274
 30
0.0
 10
3.788570
 20
4.875293
 30
0.0
 10
3.758215
 20
5.000301
 30
0.0
 10
3.727861
 20
5.125352
 30
0.0
 10
3.697528
 20
5.250362
 30
0.0
 10
3.667210
 20
5.375352
 30
0.0
 10
3.636896
 20
5.500378
 30
0.0
 10
3.606573
 20
5.625483
 30
0.0
 10
3.576280
 20
5.750518
 30
0.0
 10
3.545993
 20
5.875587
 30
0.0
 10
3.515735
 20
6.000611
 30
0.0
 10
3.474362
 20
6.112794
 30
0.0
 10
3.404930
 20
6.210019
 30
0.0
 10
3.311989
 20
6.284989
 30
0.0
 10
3.202200
 20
6.332122
 30
0.0
 10
3.083774
 20
6.348057
 30
0.0
 10
2.963933
 20
6.331997
 30
0.0
 10
2.852472
 20
6.285124
 30
0.0
 10
2.757175
 20
6.210745
 30
0.0
 10
2.685181
 20
6.113644
 30
0.0
 10
2.642423
 20
6.000611
 30
0.0
 10
2.612201
 20
5.875610
 30
0.0
 10
2.582006
 20
5.750676
 30
0.0
 10
2.551817
 20
5.625737
 30
0.0
 10
2.521632
 20
5.500787
 30
0.0
 10
2.491448
 20
5.375813
 30
0.0
 10
2.461282
 20
5.250886
 30
0.0
 10
2.431110
 20
5.125908
 30
0.0
 10
2.400934
 20
5.000891
 30
0.0
 10
2.370777
 20
4.875926
 30
0.0
 10
2.340611
 20
4.750898
 30
0.0
 10
2.310463
 20
4.625917
 30
0.0
 10
2.280326
 20
4.500959
 30
0.0
 10
2.250179
 20
4.375926
 30
0.0
 10
2.220049
 20
4.250938
 30
0.0
 10
2.189936
 20
4.125991
 30
0.0
 10
2.159826
 20
4.001030
 30
0.0
 10
2.129713
 20
3.876022
 30
0.0
 10
2.099610
 20
3.751024
 30
0.0
 10
2.069528
 20
3.626077
 30
0.0
 10
2.039449
 20
3.501105
 30
0.0
 10
2.009364
 20
3.376072
 30
0.0
 10
1.979305
 20
3.251107
 30
0.0
 10
1.949233
 20
3.126044
 30
0.0
 10
1.919180
 20
3.001015
 30
0.0
 10
1.889132
 20
2.875962
 30
0.0
 10
1.859115
 20
2.750984
 30
0.0
 10
1.829103
 20
2.625972
 30
0.0
 10
1.799109
 20
2.500975
 30
0.0
 10
1.769111
 20
2.375897
 30
0.0
 10
1.738441
 20
2.500831
 30
0.0
 10
1.707809
 20
2.625720
 30
0.0
 10
1.677175
 20
2.750725
 30
0.0
 10
1.646588
 20
2.875630
 30
0.0
 10
1.616001
 20
3.000632
 30
0.0
 10
1.585438
 20
3.125620
 30
0.0
 10
1.554898
 20
3.250592
 30
0.0
 10
1.524389
 20
3.375509
 30
0.0
 10
1.493871
 20
3.500537
 30
0.0
 10
1.463378
 20
3.625527
 30
0.0
 10
1.432902
 20
3.750518
 30
0.0
 10
1.402451
 20
3.875458
 30
0.0
 10
1.372009
 20
4.000425
 30
0.0
 10
1.341586
 20
4.125369
 30
0.0
 10
1.311178
 20
4.250303
 30
0.0
 10
1.280759
 20
4.375336
 30
0.0
 10
1.250357
 20
4.500348
 30
0.0
 10
1.219982
 20
4.625302
 30
0.0
 10
1.189613
 20
4.750274
 30
0.0
 10
1.159244
 20
4.875293
 30
0.0
 10
1.128889
 20
5.000301
 30
0.0
 10
1.098535
 20
5.125352
 30
0.0
 10
1.068202
 20
5.250362
 30
0.0
 10
1.037885
 20
5.375352
 30
0.0
 10
1.007570
 20
5.500378
 30
0.0
 10
0.977247
 20
5.625483
 30
0.0
 10
0.946954
 20
5.750518
 30
0.0
 10
0.916667
 20
5.875587
 30
0.0
 10
0.886409
 20
6.000611
 30
0.0
 10
0.845001
 20
6.111465
 30
0.0
 10
0.775995
 20
6.207621
 30
0.0
 10
0.684324
 20
6.282442
 30
0.0
 10
0.576388
 20
6.331104
 30
0.0
 10
0.459517
 20
6.350267
 30
0.0
 10
0.341763
 20
6.338667
 30
0.0
  0
LWPOLYLINE
  5
101
100
AcDbEntity
  8
initials
 62
7
100
AcDbPolyline
 90
180
 70
0
 10
9.997639
 20
4.207035
 30
0.0
 10
9.997639
 20
4.312188
 30
0.0
 10
9.997639
 20
4.417403
 30
0.0
 10
9.997639
 20
4.522583
 30
0.0
 10
9.997639
 20
4.627788
 30
0.0
 10
9.997639
 20
4.732900
 30
0.0
 10
9.992885
 20
4.856735
 30
0.0
 10
9.978562
 20
4.979776
 30
0.0
 10
9.954645
 20
5.101360
 30
0.0
 10
9.921218
 20
5.220691
 30
0.0
 10
9.878475
 20
5.336990
 30
0.0
 10
9.826665
 20
5.449573
 30
0.0
 10
9.766146
 20
5.557701
 30
0.0
 10
9.697303
 20
5.660737
 30
0.0
 10
9.620572
 20
5.758063
 30
0.0
 10
9.536445
 20
5.849078
 30
0.0
 10
9.445440
 20
5.933229
 30
0.0
 10
9.348072
 20
6.010020
 30
0.0
 10
9.245025
 20
6.078893
 30
0.0
 10
9.136871
 20
6.139443
 30
0.0
 10
9.024247
 20
6.191285
 30
0.0
 10
8.907905
 20
6.234051
 30
0.0
 10
8.788540
 20
6.267491
 30
0.0
 10
8.666949
 20
6.291413
 30
0.0
 10
8.543884
 20
6.305740
 30
0.0
 10
8.420045
 20
6.310494
 30
0.0
 10
8.294875
 20
6.310494
 30
0.0
 10
8.169634
 20
6.310494
 30
0.0
 10
8.044426
 20
6.310494
 30
0.0
 10
7.919179
 20
6.310494
 30
0.0
 10
7.793964
 20
6.310494
 30
0.0
 10
7.668749
 20
6.310494
 30
0.0
 10
7.543625
 20
6.310494
 30
0.0
 10
7.418424
 20
6.310494
 30
0.0
 10
7.293191
 20
6.310494
 30
0.0
 10
7.176968
 20
6.294605
 30
0.0
 10
7.068970
 20
6.248572
 30
0.0
 10
6.976246
 20
6.176663
 30
0.0
 10
6.904320
 20
6.083885
 30
0.0
 10
6.858347
 20
5.976002
 30
0.0
 10
6.842449
 20
5.859753
 30
0.0
 10
6.842449
 20
5.730971
 30
0.0
 10
6.842449
 20
5.602236
 30
0.0
 10
6.842449
 20
5.473430
 30
0.0
 10
6.842449
 20
5.344662
 30
0.0
 10
6.842449
 20
5.215879
 30
0.0
 10
6.842449
 20
5.087069
 30
0.0
 10
6.842449
 20
4.958253
 30
0.0
 10
6.842449
 20
4.829506
 30
0.0
 10
6.842449
 20
4.700762
 30
0.0
 10
6.842449
 20
4.571988
 30
0.0
 10
6.842449
 20
4.443206
 30
0.0
 10
6.842449
 20
4.314404
 30
0.0
 10
6.842449
 20
4.185572
 30
0.0
 10
6.842449
 20
4.056730
 30
0.0
 10
6.842449
 20
3.927942
 30
0.0
 10
6.842449
 20
3.799186
 30
0.0
 10
6.842449
 20
3.670365
 30
0.0
 10
6.842449
 20
3.541610
 30
0.0
 10
6.842449
 20
3.412784
 30
0.0
 10
6.842449
 20
3.284053
 30
0.0
 10
6.842449
 20
3.155216
 30
0.0
 10
6.842449
 20
3.026387
 30
0.0
 10
6.842449
 20
2.897597
 30
0.0
 10
6.842449
 20
2.768826
 30
0.0
 10
6.842449
 20
2.640018
 30
0.0
 10
6.842449
 20
2.511224
 30
0.0
 10
6.842449
 20
2.382497
 30
0.0
 10
6.842449
 20
2.253729
 30
0.0
 10
6.842449
 20
2.125003
 30
0.0
 10
6.842449
 20
1.996252
 30
0.0
 10
6.842449
 20
1.867528
 30
0.0
 10
6.842449
 20
1.738763
 30
0.0
 10
6.842449
 20
1.609935
 30
0.0
 10
6.842449
 20
1.481115
 30
0.0
 10
6.842449
 20
1.352360
 30
0.0
 10
6.842449
 20
1.223538
 30
0.0
 10
6.842449
 20
1.094753
 30
0.0
 10
6.842449
 20
0.965951
 30
0.0
 10
6.842449
 20
0.837197
 30
0.0
 10
6.842449
 20
0.708477
 30
0.0
 10
6.842449
 20
0.579675
 30
0.0
 10
6.842449
 20
0.450854
 30
0.0
 10
6.857607
 20
0.334119
 30
0.0
 10
6.902619
 20
0.225459
 30
0.0
 10
6.974454
 20
0.132198
 30
0.0
 10
7.067873
 20
0.060598
 30
0.0
 10
7.176499
 20
0.015496
 30
0.0
 10
7.293191
 20
0.000112
 30
0.0
 10
7.410266
 20
0.014752
 30
0.0
 10
7.519690
 20
0.058884
 30
0.0
 10
7.613631
 20
0.130396
 30
0.0
 10
7.685125
 20
0.224293
 30
0.0
 10
7.729275
 20
0.333708
 30
0.0
 10
7.743933
 20
0.450854
 30
0.0
 10
7.743933
 20
0.579001
 30
0.0
 10
7.743933
 20
0.707150
 30
0.0
 10
7.743933
 20
0.835253
 30
0.0
 10
7.743933
 20
0.963378
 30
0.0
 10
7.743933
 20
1.091488
 30
0.0
 10
7.743933
 20
1.219585
 30
0.0
 10
7.743933
 20
1.347717
 30
0.0
 10
7.743933
 20
1.475886
 30
0.0
 10
7.743933
 20
1.604038
 30
0.0
 10
7.743933
 20
1.732156
 30
0.0
 10
7.743933
 20
1.860365
 30
0.0
 10
7.743933
 20
1.988539
 30
0.0
 10
7.743933
 20
2.116729
 30
0.0
 10
7.743933
 20
2.244937
 30
0.0
 10
7.743933
 20
2.373074
 30
0.0
 10
7.743933
 20
2.501283
 30
0.0
 10
7.743933
 20
2.629438
 30
0.0
 10
7.870747
 20
2.629438
 30
0.0
 10
7.997531
 20
2.629438
 30
0.0
 10
8.124235
 20
2.629438
 30
0.0
 10
8.251017
 20
2.629438
 30
0.0
 10
8.294698
 20
2.512485
 30
0.0
 10
8.338348
 20
2.395615
 30
0.0
 10
8.382006
 20
2.278726
 30
0.0
 10
8.425685
 20
2.161779
 30
0.0
 10
8.469340
 20
2.044896
 30
0.0
 10
8.513026
 20
1.927930
 30
0.0
 10
8.556708
 20
1.810976
 30
0.0
 10
8.600371
 20
1.694070
 30
0.0
 10
8.644023
 20
1.577195
 30
0.0
 10
8.687669
 20
1.460336
 30
0.0
 10
8.731340
 20
1.343412
 30
0.0
 10
8.775013
 20
1.226482
 30
0.0
 10
8.818683
 20
1.109559
 30
0.0
 10
8.862344
 20
0.992660
 30
0.0
 10
8.905993
 20
0.875791
 30
0.0
 10
8.949649
 20
0.758906
 30
0.0
 10
8.993308
 20
0.642013
 30
0.0
 10
9.037004
 20
0.525020
 30
0.0
 10
9.080650
 20
0.408163
 30
0.0
 10
9.124329
 20
0.291216
 30
0.0
 10
9.180998
 20
0.188123
 30
0.0
 10
9.261672
 20
0.102496
 30
0.0
 10
9.361604
 20
0.040476
 30
0.0
 10
9.474123
 20
0.006386
 30
0.0
 10
9.591740
 20
0.002421
 30
0.0
 10
9.706536
 20
0.028286
 30
0.0
 10
9.811741
 20
0.082825
 30
0.0
 10
9.898758
 20
0.163224
 30
0.0
 10
9.961541
 20
0.263683
 30
0.0
 10
9.995719
 20
0.377127
 30
0.0
 10
9.998477
 20
0.495638
 30
0.0
 10
9.969470
 20
0.610494
 30
0.0
 10
9.924089
 20
0.732552
 30
0.0
 10
9.878706
 20
0.854616
 30
0.0
 10
9.833297
 20
0.976752
 30
0.0
 10
9.787915
 20
1.098813
 30
0.0
 10
9.742527
 20
1.220892
 30
0.0
 10
9.697126
 20
1.343005
 30
0.0
 10
9.651762
 20
1.465017
 30
0.0
 10
9.606370
 20
1.587109
 30
0.0
 10
9.560977
 20
1.709198
 30
0.0
 10
9.515586
 20
1.831286
 30
0.0
 10
9.470204
 20
1.953348
 30
0.0
 10
9.424798
 20
2.075472
 30
0.0
 10
9.379427
 20
2.197505
 30
0.0
 10
9.334054
 20
2.319543
 30
0.0
 10
9.288651
 20
2.441661
 30
0.0
 10
9.243287
 20
2.563676
 30
0.0
 10
9.197896
 20
2.685761
 30
0.0
 10
9.152501
 20
2.807859
 30
0.0
 10
9.259194
 20
2.868585
 30
0.0
 10
9.360788
 20
2.937451
 30
0.0
 10
9.456736
 20
3.014114
 30
0.0
 10
9.546356
 20
3.098050
 30
0.0
 10
9.629154
 20
3.188816
 30
0.0
 10
9.704544
 20
3.285790
 30
0.0
 10
9.772017
 20
3.388306
 30
0.0
 10
9.831262
 20
3.495896
 30
0.0
 10
9.881865
 20
3.607829
 30
0.0
 10
9.923514
 20
3.723362
 30
0.0
 10
9.956005
 20
3.841813
 30
0.0
 10
9.979196
 20
3.962402
 30
0.0
 10
9.993048
 20
4.084326
 30
0.0
 10
9.997639
 20
4.207036
 30
0.0
  0
LWPOLYLINE
  5
102
100
AcDbEntity
  8
initials
 62
7
100
AcDbPolyline
 90
51
 70
0
 10
7.743931
 20
5.409014
 30
0.0
 10
7.856621
 20
5.409014
 30
0.0
 10
7.969367
 20
5.409014
 30
0.0
 10
8.082004
 20
5.409014
 30
0.0
 10
8.194686
 20
5.409014
 30
0.0
 10
8.307372
 20
5.409014
 30
0.0
 10
8.420044
 20
5.409014
 30
0.0
 10
8.537559
 20
5.399004
 30
0.0
 10
8.651589
 20
5.368891
 30
0.0
 10
8.758672
 20
5.319282
 30
0.0
 10
8.855400
 20
5.251707
 30
0.0
 10
8.938794
 20
5.168324
 30
0.0
 10
9.006353
 20
5.071653
 30
0.0
 10
9.055999
 20
4.964541
 30
0.0
 10
9.086145
 20
4.850424
 30
0.0
 10
9.096156
 20
4.732901
 30
0.0
 10
9.096156
 20
4.627749
 30
0.0
 10
9.096156
 20
4.522533
 30
0.0
 10
9.096156
 20
4.417354
 30
0.0
 10
9.096156
 20
4.312148
 30
0.0
 10
9.096156
 20
4.207036
 30
0.0
 10
9.086146
 20
4.089521
 30
0.0
 10
9.056033
 20
3.975491
 30
0.0
 10
9.006424
 20
3.868408
 30
0.0
 10
8.938849
 20
3.771680
 30
0.0
 10
8.855466
 20
3.688286
 30
0.0
 10
8.758796
 20
3.620727
 30
0.0
 10
8.651683
 20
3.571081
 30
0.0
 10
8.537566
 20
3.540935
 30
0.0
 10
8.420044
 20
3.530924
 30
0.0
 10
8.307354
 20
3.530924
 30
0.0
 10
8.194608
 20
3.530924
 30
0.0
 10
8.081970
 20
3.530924
 30
0.0
 10
7.969289
 20
3.530924
 30
0.0
 10
7.856603
 20
3.530924
 30
0.0
 10
7.743931
 20
3.530924
 30
0.0
 10
7.743931
 20
3.656153
 30
0.0
 10
7.743931
 20
3.781406
 30
0.0
 10
7.743931
 20
3.906618
 30
0.0
 10
7.743931
 20
4.031844
 30
0.0
 10
7.743931
 20
4.157056
 30
0.0
 10
7.743931
 20
4.282202
 30
0.0
 10
7.743931
 20
4.407376
 30
0.0
 10
7.743931
 20
4.532558
 30
0.0
 10
7.743931
 20
4.657810
 30
0.0
 10
7.743931
 20
4.783039
 30
0.0
 10
7.743931
 20
4.908210
 30
0.0
 10
7.743931
 20
5.033368
 30
0.0
 10
7.743931
 20
5.158586
 30
0.0
 10
7.743931
 20
5.283814
 30
0.0
 10
7.743931
 20
5.409014
 30
0.0
  0
ENDSEC
  0
SECTION
  2
OBJECTS
  0
DICTIONARY
  5
C
330
0
100
AcDbDictionary
  3
ACAD_GROUP
350
D
  3
ACAD_MLINESTYLE
350
17
  0
DICTIONARY
  5
D
330
C
100
AcDbDictionary
  0
DICTIONARY
  5
1A
330
C
100
AcDbDictionary
  0
DICTIONARY
  5
17
330
C
100
AcDbDictionary
  3
STANDARD
350
18
  0
DICTIONARY
  5
19
330
C
100
AcDbDictionary
  0
ENDSEC
  0
EOF
