<?xml version="1.0" encoding="UTF-8" standalone="no"?>
<!-- Created with Inkscape (http://www.inkscape.org/) -->

<svg
   xmlns:dc="http://purl.org/dc/elements/1.1/"
   xmlns:cc="http://creativecommons.org/ns#"
   xmlns:rdf="http://www.w3.org/1999/02/22-rdf-syntax-ns#"
   xmlns:svg="http://www.w3.org/2000/svg"
   xmlns="http://www.w3.org/2000/svg"
   xmlns:sodipodi="http://sodipodi.sourceforge.net/DTD/sodipodi-0.dtd"
   xmlns:inkscape="http://www.inkscape.org/namespaces/inkscape"
   width="35.433071"
   height="22.50135"
   id="svg2"
   version="1.1"
   inkscape:version="0.48.3.1 r9886"
   sodipodi:docname="New document 1">
  <sodipodi:namedview
     id="base"
     pagecolor="#ffffff"
     bordercolor="#666666"
     borderopacity="1.0"
     inkscape:pageopacity="0.0"
     inkscape:pageshadow="2"
     inkscape:zoom="37.175872"
     inkscape:cx="17.716536"
     inkscape:cy="11.250675"
     inkscape:document-units="px"
     inkscape:current-layer="layer1"
     showgrid="false"
     fit-margin-top="0"
     fit-margin-left="0"
     fit-margin-right="0"
     fit-margin-bottom="0" />
  <defs
     id="defs4" />
  <metadata
     id="metadata7">
    <rdf:RDF>
      <cc:Work
         rdf:about="">
        <dc:format>image/svg+xml</dc:format>
        <dc:type
           rdf:resource="http://purl.org/dc/dcmitype/StillImage" />
        <dc:title></dc:title>
      </cc:Work>
    </rdf:RDF>
  </metadata>
  <g
     inkscape:label="Layer 1"
     inkscape:groupmode="layer"
     id="layer1"
     transform="translate(-145.43179,-445.77784)">
    <g
       style="font-size:144px;font-style:normal;font-variant:normal;font-weight:bold;font-stretch:condensed;text-align:center;line-height:125%;letter-spacing:0px;word-spacing:0px;writing-mode:lr-tb;text-anchor:middle;fill:#000000;fill-opacity:1;stroke:none;font-family:Miso;-inkscape-font-specification:Miso Bold Condensed"
       id="text2985"
       transform="matrix(0.23106421,0,0,0.23106421,125.45059,351.42558)">
      <path
         d="m 91.696464,408.5192 -1.646361,0.69699 -1.421753,1.08617 -1.112864,1.39948 -0.736681,1.62909 -0.299815,1.76307 0.177474,1.7772 0.468655,1.94157 0.46864,1.94151 0.468825,1.94228 0.468746,1.94194 0.468922,1.94268 0.468796,1.94216 0.468942,1.94275 0.46892,1.94268 0.468664,1.9416 0.468873,1.94248 0.468789,1.94212 0.46882,1.94226 0.468683,1.94168 0.468834,1.94232 0.468827,1.94228 0.468994,1.94298 0.469078,1.94332 0.468802,1.94218 0.468662,1.9416 0.469069,1.94329 0.468898,1.94257 0.469015,1.94307 0.468772,1.94205 0.468891,1.94255 0.468668,1.94163 0.468674,1.94165 0.468919,1.94266 0.468944,1.94277 0.468634,1.94148 0.46908,1.94335 0.46907,1.94326 0.46887,1.94246 0.46894,1.94276 0.46862,1.94143 0.46863,1.94148 0.46884,1.94233 0.46905,1.94322 0.46889,1.94254 0.46893,1.94272 0.46875,1.94194 0.46887,1.94247 0.46858,1.94127 0.46892,1.94266 0.65621,1.73431 1.10461,1.48919 1.46185,1.14038 1.70878,0.71816 1.83655,0.24596 1.81652,-0.2445 1.68298,-0.72257 1.42566,-1.15006 1.06459,-1.49091 0.63425,-1.71996 0.46391,-1.91685 0.46438,-1.91762 0.46471,-1.9181 0.46447,-1.91632 0.46471,-1.91658 0.46522,-1.91797 0.4653,-1.9176 0.46533,-1.91704 0.4653,-1.91618 0.46568,-1.91709 0.46567,-1.91632 0.46623,-1.91789 0.46619,-1.91697 0.46621,-1.91626 0.46665,-1.9173 0.46685,-1.91727 0.4668,-1.91626 0.46699,-1.91609 0.46732,-1.91656 0.46731,-1.91551 0.46778,-1.91644 0.46825,-1.91726 0.46837,-1.91658 0.46854,-1.91608 0.46894,-1.91641 0.469,-1.91527 0.46949,-1.91579 0.46983,-1.91557 0.47057,-1.91682 0.45975,1.91696 0.46009,1.91737 0.46018,1.91685 0.46054,1.91747 0.46055,1.91676 0.46068,1.91652 0.46078,1.91626 0.4612,1.91734 0.46127,1.91703 0.46127,1.91647 0.4614,1.91643 0.46174,1.91732 0.46191,1.91757 0.46191,1.91704 0.46194,1.91671 0.46205,1.9167 0.46207,1.91637 0.46224,1.91662 0.46209,1.91561 0.46236,1.91633 0.4624,1.91613 0.46266,1.91678 0.4626,1.91613 0.4626,1.91578 0.46284,1.91635 0.46323,1.91753 0.46306,1.91643 0.4633,1.91694 0.46329,1.9162 0.65621,1.73431 1.10461,1.48919 1.46185,1.14038 1.70878,0.71816 1.83655,0.24596 1.81652,-0.2445 1.68298,-0.72257 1.42566,-1.15006 1.06459,-1.49091 0.63425,-1.71996 0.46865,-1.94157 0.46865,-1.94151 0.46882,-1.94228 0.46875,-1.94194 0.46892,-1.94268 0.46879,-1.94216 0.46895,-1.94275 0.46892,-1.94268 0.46866,-1.9416 0.46887,-1.94248 0.46879,-1.94212 0.46882,-1.94226 0.46869,-1.94168 0.46883,-1.94232 0.46883,-1.94228 0.46899,-1.94298 0.46908,-1.94332 0.4688,-1.94218 0.46866,-1.9416 0.46907,-1.94329 0.4689,-1.94257 0.46902,-1.94307 0.46877,-1.94205 0.46889,-1.94255 0.46867,-1.94163 0.46867,-1.94165 0.46892,-1.94266 0.46894,-1.94277 0.46864,-1.94148 0.46908,-1.94335 0.46906,-1.94326 0.46887,-1.94246 0.46895,-1.94276 0.46862,-1.94143 0.46863,-1.94148 0.46884,-1.94233 0.46905,-1.94322 0.46889,-1.94254 0.46893,-1.94272 0.46875,-1.94194 0.46887,-1.94247 0.46858,-1.94127 0.46892,-1.94266 0.23681,-1.78647 -0.271,-1.78028 -0.7413,-1.64228 -1.14017,-1.39728 -1.45228,-1.06732 -1.67206,-0.67837 -1.80585,-0.17787 -1.79156,0.29369 -1.65445,0.74562 -1.40639,1.1475 -1.05849,1.47459 -0.63526,1.70047 -0.46344,1.91685 -0.46304,1.91583 -0.46294,1.91591 -0.46287,1.91607 -0.46286,1.91645 -0.46259,1.91572 -0.46269,1.9165 -0.46273,1.9171 -0.46245,1.91631 -0.46259,1.91727 -0.46232,1.91655 -0.46213,1.91619 -0.4623,1.91735 -0.46204,1.91666 -0.46178,1.91603 -0.46172,1.91624 -0.46177,1.91697 -0.46162,1.91681 -0.4613,1.91603 -0.46126,1.91641 -0.46134,1.91735 -0.46095,1.9163 -0.46115,1.9178 -0.46086,1.91729 -0.46077,1.91765 -0.46031,1.91651 -0.46022,1.91702 -0.45995,1.9168 -0.46001,1.91803 -0.47032,-1.91582 -0.46973,-1.91514 -0.46977,-1.91692 -0.46903,-1.91538 -0.46905,-1.91688 -0.46868,-1.91666 -0.46832,-1.91641 -0.46784,-1.91556 -0.46799,-1.91727 -0.4676,-1.9167 -0.46735,-1.91669 -0.46695,-1.91593 -0.46682,-1.91633 -0.46653,-1.91598 -0.4663,-1.91583 -0.46647,-1.91735 -0.4662,-1.91703 -0.4658,-1.91613 -0.4657,-1.91641 -0.4657,-1.91714 -0.46548,-1.91696 -0.46547,-1.91763 -0.46515,-1.91699 -0.46491,-1.91668 -0.46487,-1.91725 -0.46499,-1.91845 -0.46453,-1.91737 -0.46445,-1.91791 -0.464,-1.9172 -0.63443,-1.7203 -1.06473,-1.49091 -1.42522,-1.14965 -1.68359,-0.72277 -1.81603,-0.24437 -1.83773,0.24628 -1.70922,0.71879 -1.46136,1.14058 -1.104,1.48901 -0.65569,1.73334 -0.46344,1.91685 -0.46304,1.91583 -0.46294,1.91591 -0.46287,1.91607 -0.46286,1.91645 -0.46259,1.91572 -0.46269,1.9165 -0.46273,1.9171 -0.46245,1.91631 -0.46259,1.91727 -0.46232,1.91655 -0.46213,1.91619 -0.4623,1.91735 -0.46204,1.91666 -0.46178,1.91603 -0.46172,1.91624 -0.46177,1.91697 -0.46162,1.91681 -0.4613,1.91603 -0.46126,1.91641 -0.46134,1.91735 -0.46095,1.9163 -0.46115,1.9178 -0.46086,1.91729 -0.46077,1.91765 -0.46031,1.91651 -0.46022,1.91702 -0.45995,1.9168 -0.46001,1.91803 -0.47032,-1.91582 -0.46973,-1.91514 -0.46977,-1.91692 -0.46903,-1.91538 -0.46905,-1.91688 -0.46868,-1.91666 -0.46832,-1.91641 -0.46784,-1.91556 -0.46799,-1.91727 -0.4676,-1.9167 -0.46735,-1.91669 -0.46695,-1.91593 -0.46682,-1.91633 -0.46653,-1.91598 -0.4663,-1.91583 -0.46647,-1.91735 -0.4662,-1.91703 -0.4658,-1.91613 -0.4657,-1.91641 -0.4657,-1.91714 -0.46548,-1.91696 -0.46547,-1.91763 -0.46515,-1.91699 -0.46491,-1.91668 -0.46487,-1.91725 -0.46499,-1.91845 -0.46453,-1.91737 -0.46445,-1.91791 -0.464,-1.9172 -0.634971,-1.69992 -1.058194,-1.47452 -1.405757,-1.14737 -1.655167,-0.74622 -1.792179,-0.29385 -1.805728,0.17788"
         id="path2990"
         inkscape:connector-curvature="0"
         sodipodi:nodetypes="ccccccccccccccccccccccccccccccccccccccccccccccccccccccccccccccccccccccccccccccccccccccccccccccccccccccccccccccccccccccccccccccccccccccccccccccccccccccccccccccccccccccccccccccccccccccccccccccccccccccccccccccccccccccccccccccccccccccccccccccccccccccccccccccccccccccccccccccccccccccccccccccccccccccccccccccccccccccccccc" />
      <path
         d="M239.76671 441.2072L239.76671 439.59471L239.76671 437.98126L239.76671 436.36836L239.76671 434.75506L239.76671 433.1432L239.69381 431.24423L239.47417 429.35742L239.1074 427.49297L238.59481 425.66306L237.93936 423.87965L237.14487 422.15321L236.21683 420.4951L235.16113 418.91507L233.98449 417.42261L232.69443 416.02691L231.29888 414.73648L229.80577 413.55891L228.22557 412.50277L226.56707 411.57425L224.84 410.77927L223.05593 410.12346L221.22551 409.61066L219.36094 409.24382L217.47377 409.02412L215.57473 408.95122L213.65529 408.95122L211.73475 408.95122L209.81472 408.95122L207.89409 408.95122L205.97395 408.95122L204.05381 408.95122L202.13507 408.95122L200.21514 408.95122L198.29473 408.95122L196.51249 409.19488L194.85636 409.90079L193.43446 411.00349L192.3315 412.42621L191.62651 414.08057L191.38273 415.86322L191.38273 417.83806L191.38273 419.81217L191.38273 421.78738L191.38273 423.762L191.38273 425.73685L191.38273 427.71212L191.38273 429.68747L191.38273 431.66177L191.38273 433.63603L191.38273 435.61074L191.38273 437.58558L191.38273 439.56072L191.38273 441.53633L191.38273 443.51209L191.38273 445.48702L191.38273 447.46146L191.38273 449.43689L191.38273 451.41131L191.38273 453.38683L191.38273 455.36088L191.38273 457.33656L191.38273 459.31212L191.38273 461.28707L191.38273 463.26175L191.38273 465.23698L191.38273 467.212L191.38273 469.186L191.38273 471.16062L191.38273 473.1346L191.38273 475.10896L191.38273 477.0829L191.38273 479.05749L191.38273 481.03303L191.38273 483.00844L191.38273 484.98287L191.38273 486.95832L191.38273 488.9332L191.38273 490.90834L191.38273 492.88276L191.38273 494.85664L191.38273 496.83179L191.38273 498.80722L191.61517 500.59732L192.30541 502.26359L193.40699 503.69372L194.83954 504.79169L196.50529 505.48332L198.29473 505.71922L200.09004 505.49473L201.76803 504.81797L203.20859 503.72136L204.30494 502.28147L204.98196 500.60362L205.20673 498.80722L205.20673 496.84212L205.20673 494.87699L205.20673 492.91256L205.20673 490.9478L205.20673 488.98327L205.20673 487.01893L205.20673 485.05406L205.20673 483.08863L205.20673 481.12346L205.20673 479.1588L205.20673 477.19275L205.20673 475.22723L205.20673 473.26147L205.20673 471.29544L205.20673 469.3305L205.20673 467.36445L205.20673 465.39922L207.15139 465.39922L209.0956 465.39922L211.03857 465.39922L212.98273 465.39922L213.65257 467.19266L214.32193 468.98483L214.99141 470.77729L215.66122 472.57065L216.33066 474.36302L217.00057 476.15666L217.67042 477.95012L218.33998 479.74284L219.00938 481.53508L219.67868 483.32709L220.34835 485.12008L221.01807 486.91318L221.68773 488.70615L222.35726 490.49877L223.02662 492.29093L223.69607 494.08332L224.36557 495.87585L225.03563 497.6699L225.70493 499.46188L226.37473 501.25522L227.24374 502.83612L228.48086 504.14919L230.01329 505.10026L231.73873 505.62302L233.54236 505.68382L235.30273 505.28718L236.91602 504.45085L238.2504 503.21795L239.21316 501.67744L239.73726 499.9378L239.77956 498.12047L239.33474 496.35918L238.63884 494.48745L237.94291 492.61563L237.24657 490.74271L236.55065 488.87095L235.85463 486.99889L235.15842 485.12633L234.46278 483.2553L233.7667 481.38306L233.07062 479.51085L232.37455 477.63866L231.67863 475.76688L230.98235 473.89414L230.2866 472.0228L229.59081 470.15138L228.89457 468.27873L228.19892 466.40766L227.50287 464.53552L226.80674 462.66318L228.44285 461.73197L230.00077 460.67592L231.4721 459.50032L232.8464 458.21319L234.11609 456.82132L235.27218 455.33424L236.30686 453.76218L237.21536 452.11232L237.99135 450.39586L238.63002 448.6242L239.12826 446.80778L239.48389 444.95858L239.69631 443.08891L239.76671 441.20718M205.20671 422.77518L206.93478 422.77518L208.66371 422.77518L210.39097 422.77518L212.11891 422.77518L213.84692 422.77518L215.57471 422.77518L217.37677 422.92868L219.1254 423.39046L220.76749 424.1512L222.25078 425.18744L223.5296 426.46609L224.5656 427.94851L225.32691 429.59105L225.78919 431.34101L225.94271 433.14318L225.94271 434.75567L225.94271 436.36912L225.94271 437.98202L225.94271 439.59532L225.94271 441.20718L225.78921 443.00924L225.32743 444.75787L224.56669 446.39996L223.53045 447.88325L222.2518 449.16207L220.76939 450.19807L219.12684 450.95938L217.37689 451.42166L215.57471 451.57518L213.84664 451.57518L212.11771 451.57518L210.39045 451.57518L208.66251 451.57518L206.9345 451.57518L205.20671 451.57518L205.20671 449.65483L205.20671 447.73411L205.20671 445.81401L205.20671 443.89371L205.20671 441.97361L205.20671 440.05453L205.20671 438.13503L205.20671 436.2154L205.20671 434.29468L205.20671 432.37434L205.20671 430.45487L205.20671 428.5356L205.20671 426.61543L205.20671 424.69508L205.20671 422.77518"
         id="path2992"
         inkscape:connector-curvature="0"
         sodipodi:nodetypes="ccccccccccccccccccccccccccccccccccccccccccccccccccccccccccccccccccccccccccccccccccccccccccccccccccccccccccccccccccccccccccccccccccccccccccccccccccccccccccccccccccccccccccccccccccccccccccccccccccccccccccccccccccccccccccccccccccccccc" />
    </g>
  </g>
</svg>
