solid OpenSCAD_Model
  facet normal 0 0 -1
    outer loop
      vertex -8 0 0
      vertex -7.93692 1.00267 0
      vertex -7.93692 -1.00267 0
    endloop
  endfacet
  facet normal 0 0 -1
    outer loop
      vertex -7.93692 -1.00267 0
      vertex -7.93692 1.00267 0
      vertex -7.74866 1.98952 0
    endloop
  endfacet
  facet normal 0 0 -1
    outer loop
      vertex -7.93692 -1.00267 0
      vertex -7.74866 1.98952 0
      vertex -7.43821 2.945 0
    endloop
  endfacet
  facet normal 0 0 -1
    outer loop
      vertex -7.93692 -1.00267 0
      vertex -7.43821 2.945 0
      vertex -7.01045 3.85403 0
    endloop
  endfacet
  facet normal 0 0 -1
    outer loop
      vertex -7.93692 -1.00267 0
      vertex -7.01045 3.85403 0
      vertex -6.47214 4.70228 0
    endloop
  endfacet
  facet normal 0 0 -1
    outer loop
      vertex -7.93692 -1.00267 0
      vertex -6.47214 4.70228 0
      vertex -5.83175 5.47638 0
    endloop
  endfacet
  facet normal 0 0 -1
    outer loop
      vertex -7.93692 -1.00267 0
      vertex -5.83175 5.47638 0
      vertex -5.09939 6.16411 0
    endloop
  endfacet
  facet normal 0 0 -1
    outer loop
      vertex -7.93692 -1.00267 0
      vertex -5.09939 6.16411 0
      vertex -4.28661 6.75462 0
    endloop
  endfacet
  facet normal 0 0 -1
    outer loop
      vertex -7.93692 -1.00267 0
      vertex -4.28661 6.75462 0
      vertex -3.40623 7.23862 0
    endloop
  endfacet
  facet normal 0 0 -1
    outer loop
      vertex -7.93692 -1.00267 0
      vertex -3.40623 7.23862 0
      vertex -2.47214 7.60845 0
    endloop
  endfacet
  facet normal 0 0 -1
    outer loop
      vertex -7.93692 -1.00267 0
      vertex -2.47214 7.60845 0
      vertex -1.49905 7.8583 0
    endloop
  endfacet
  facet normal 0 0 -1
    outer loop
      vertex -7.93692 -1.00267 0
      vertex -1.49905 7.8583 0
      vertex -0.502324 7.98421 0
    endloop
  endfacet
  facet normal 0 0 -1
    outer loop
      vertex -7.93692 -1.00267 0
      vertex -0.502324 7.98421 0
      vertex 0.502324 7.98421 0
    endloop
  endfacet
  facet normal 0 0 -1
    outer loop
      vertex -7.93692 -1.00267 0
      vertex 0.502324 7.98421 0
      vertex 1.49905 7.8583 0
    endloop
  endfacet
  facet normal 0 0 -1
    outer loop
      vertex -7.93692 -1.00267 0
      vertex 1.49905 7.8583 0
      vertex 2.47214 7.60845 0
    endloop
  endfacet
  facet normal 0 0 -1
    outer loop
      vertex -7.93692 -1.00267 0
      vertex 2.47214 7.60845 0
      vertex 3.40623 7.23862 0
    endloop
  endfacet
  facet normal 0 0 -1
    outer loop
      vertex -7.93692 -1.00267 0
      vertex 3.40623 7.23862 0
      vertex 4.28661 6.75462 0
    endloop
  endfacet
  facet normal 0 0 -1
    outer loop
      vertex -7.93692 -1.00267 0
      vertex 4.28661 6.75462 0
      vertex 5.09939 6.16411 0
    endloop
  endfacet
  facet normal 0 0 -1
    outer loop
      vertex -7.93692 -1.00267 0
      vertex 5.09939 6.16411 0
      vertex 5.83175 5.47638 0
    endloop
  endfacet
  facet normal 0 0 -1
    outer loop
      vertex -7.93692 -1.00267 0
      vertex 5.83175 5.47638 0
      vertex 6.47214 4.70228 0
    endloop
  endfacet
  facet normal 0 0 -1
    outer loop
      vertex -0.463525 1.42658 0
      vertex 6.47214 4.70228 0
      vertex 7.01045 3.85403 0
    endloop
  endfacet
  facet normal 0 0 -1
    outer loop
      vertex 0.80374 1.26649 0
      vertex 7.01045 3.85403 0
      vertex 7.43821 2.945 0
    endloop
  endfacet
  facet normal 0 0 -1
    outer loop
      vertex 1.21352 0.881678 0
      vertex 7.43821 2.945 0
      vertex 7.74866 1.98952 0
    endloop
  endfacet
  facet normal 0 0 -1
    outer loop
      vertex 1.45287 0.373035 0
      vertex 7.74866 1.98952 0
      vertex 7.93692 1.00267 0
    endloop
  endfacet
  facet normal 0 0 -1
    outer loop
      vertex 1.5 0 0
      vertex 7.93692 1.00267 0
      vertex 8 0 0
    endloop
  endfacet
  facet normal 0 0 -1
    outer loop
      vertex 1.31446 -0.722631 0
      vertex 8 0 0
      vertex 7.93692 -1.00267 0
    endloop
  endfacet
  facet normal 0 0 -1
    outer loop
      vertex 0.956136 -1.15577 0
      vertex 7.93692 -1.00267 0
      vertex 7.74866 -1.98952 0
    endloop
  endfacet
  facet normal 0 0 -1
    outer loop
      vertex -0.094186 -1.49704 0
      vertex 7.74866 -1.98952 0
      vertex 7.43821 -2.945 0
    endloop
  endfacet
  facet normal 0 0 -1
    outer loop
      vertex -7.93692 -1.00267 0
      vertex 7.43821 -2.945 0
      vertex 7.01045 -3.85403 0
    endloop
  endfacet
  facet normal 0 0 -1
    outer loop
      vertex -7.93692 -1.00267 0
      vertex 7.01045 -3.85403 0
      vertex 6.47214 -4.70228 0
    endloop
  endfacet
  facet normal 0 0 -1
    outer loop
      vertex -7.93692 -1.00267 0
      vertex 6.47214 -4.70228 0
      vertex 5.83175 -5.47638 0
    endloop
  endfacet
  facet normal 0 0 -1
    outer loop
      vertex -7.93692 -1.00267 0
      vertex 5.83175 -5.47638 0
      vertex 5.09939 -6.16411 0
    endloop
  endfacet
  facet normal 0 0 -1
    outer loop
      vertex -7.93692 -1.00267 0
      vertex 5.09939 -6.16411 0
      vertex 4.28661 -6.75462 0
    endloop
  endfacet
  facet normal 0 0 -1
    outer loop
      vertex -7.93692 -1.00267 0
      vertex 4.28661 -6.75462 0
      vertex 3.40623 -7.23862 0
    endloop
  endfacet
  facet normal 0 0 -1
    outer loop
      vertex -7.93692 -1.00267 0
      vertex 3.40623 -7.23862 0
      vertex 2.47214 -7.60845 0
    endloop
  endfacet
  facet normal 0 0 -1
    outer loop
      vertex -7.93692 -1.00267 0
      vertex 2.47214 -7.60845 0
      vertex 1.49905 -7.8583 0
    endloop
  endfacet
  facet normal 0 0 -1
    outer loop
      vertex -7.93692 -1.00267 0
      vertex 1.49905 -7.8583 0
      vertex 0.502324 -7.98421 0
    endloop
  endfacet
  facet normal 0 0 -1
    outer loop
      vertex -7.93692 -1.00267 0
      vertex 0.502324 -7.98421 0
      vertex -0.502324 -7.98421 0
    endloop
  endfacet
  facet normal 0 0 -1
    outer loop
      vertex -7.93692 -1.00267 0
      vertex -0.502324 -7.98421 0
      vertex -1.49905 -7.8583 0
    endloop
  endfacet
  facet normal 0 0 -1
    outer loop
      vertex -7.93692 -1.00267 0
      vertex -1.49905 -7.8583 0
      vertex -2.47214 -7.60845 0
    endloop
  endfacet
  facet normal 0 0 -1
    outer loop
      vertex -7.93692 -1.00267 0
      vertex -2.47214 -7.60845 0
      vertex -3.40623 -7.23862 0
    endloop
  endfacet
  facet normal 0 0 -1
    outer loop
      vertex -7.93692 -1.00267 0
      vertex -3.40623 -7.23862 0
      vertex -4.28661 -6.75462 0
    endloop
  endfacet
  facet normal 0 0 -1
    outer loop
      vertex -7.93692 -1.00267 0
      vertex -4.28661 -6.75462 0
      vertex -5.09939 -6.16411 0
    endloop
  endfacet
  facet normal 0 0 -1
    outer loop
      vertex -7.93692 -1.00267 0
      vertex -5.09939 -6.16411 0
      vertex -5.83175 -5.47638 0
    endloop
  endfacet
  facet normal 0 0 -1
    outer loop
      vertex -7.93692 -1.00267 0
      vertex -5.83175 -5.47638 0
      vertex -6.47214 -4.70228 0
    endloop
  endfacet
  facet normal 0 0 -1
    outer loop
      vertex -7.93692 -1.00267 0
      vertex -6.47214 -4.70228 0
      vertex -7.01045 -3.85403 0
    endloop
  endfacet
  facet normal 0 0 -1
    outer loop
      vertex -7.93692 -1.00267 0
      vertex -7.01045 -3.85403 0
      vertex -7.43821 -2.945 0
    endloop
  endfacet
  facet normal 0 0 -1
    outer loop
      vertex -7.93692 -1.00267 0
      vertex -7.43821 -2.945 0
      vertex -7.74866 -1.98952 0
    endloop
  endfacet
  facet normal 0 0 -1
    outer loop
      vertex 1.21352 0.881678 0
      vertex 7.74866 1.98952 0
      vertex 1.31446 0.722631 0
    endloop
  endfacet
  facet normal 0 0 -1
    outer loop
      vertex -1.31446 -0.722631 0
      vertex -7.93692 -1.00267 0
      vertex -1.39467 -0.552187 0
    endloop
  endfacet
  facet normal 0 0 -1
    outer loop
      vertex -7.93692 -1.00267 0
      vertex -1.48817 -0.188 0
      vertex -1.45287 -0.373035 0
    endloop
  endfacet
  facet normal 0 0 -1
    outer loop
      vertex -7.93692 -1.00267 0
      vertex -1.45287 -0.373035 0
      vertex -1.39467 -0.552187 0
    endloop
  endfacet
  facet normal 0 0 -1
    outer loop
      vertex -1.09345 -1.02682 0
      vertex -7.93692 -1.00267 0
      vertex -1.21352 -0.881678 0
    endloop
  endfacet
  facet normal 0 0 -1
    outer loop
      vertex -7.93692 -1.00267 0
      vertex -1.31446 -0.722631 0
      vertex -1.21352 -0.881678 0
    endloop
  endfacet
  facet normal 0 0 -1
    outer loop
      vertex -0.094186 -1.49704 0
      vertex -7.93692 -1.00267 0
      vertex -0.281072 -1.47343 0
    endloop
  endfacet
  facet normal 0 0 -1
    outer loop
      vertex -7.93692 -1.00267 0
      vertex -1.09345 -1.02682 0
      vertex -0.956136 -1.15577 0
    endloop
  endfacet
  facet normal 0 0 -1
    outer loop
      vertex -7.93692 -1.00267 0
      vertex -0.956136 -1.15577 0
      vertex -0.80374 -1.26649 0
    endloop
  endfacet
  facet normal 0 0 -1
    outer loop
      vertex -7.93692 -1.00267 0
      vertex -0.80374 -1.26649 0
      vertex -0.638669 -1.35724 0
    endloop
  endfacet
  facet normal 0 0 -1
    outer loop
      vertex -7.93692 -1.00267 0
      vertex -0.638669 -1.35724 0
      vertex -0.463525 -1.42658 0
    endloop
  endfacet
  facet normal 0 0 -1
    outer loop
      vertex -7.93692 -1.00267 0
      vertex -0.463525 -1.42658 0
      vertex -0.281072 -1.47343 0
    endloop
  endfacet
  facet normal 0 0 -1
    outer loop
      vertex 0.094186 -1.49704 0
      vertex 7.74866 -1.98952 0
      vertex -0.094186 -1.49704 0
    endloop
  endfacet
  facet normal 0 0 -1
    outer loop
      vertex -7.93692 -1.00267 0
      vertex -0.094186 -1.49704 0
      vertex 7.43821 -2.945 0
    endloop
  endfacet
  facet normal 0 0 -1
    outer loop
      vertex 0.281072 -1.47343 0
      vertex 7.74866 -1.98952 0
      vertex 0.094186 -1.49704 0
    endloop
  endfacet
  facet normal 0 0 -1
    outer loop
      vertex 0.463525 -1.42658 0
      vertex 7.74866 -1.98952 0
      vertex 0.281072 -1.47343 0
    endloop
  endfacet
  facet normal 0 0 -1
    outer loop
      vertex 0.638669 -1.35724 0
      vertex 7.74866 -1.98952 0
      vertex 0.463525 -1.42658 0
    endloop
  endfacet
  facet normal 0 0 -1
    outer loop
      vertex 0.80374 -1.26649 0
      vertex 7.74866 -1.98952 0
      vertex 0.638669 -1.35724 0
    endloop
  endfacet
  facet normal 0 0 -1
    outer loop
      vertex 0.956136 -1.15577 0
      vertex 7.74866 -1.98952 0
      vertex 0.80374 -1.26649 0
    endloop
  endfacet
  facet normal 0 0 -1
    outer loop
      vertex 1.09345 -1.02682 0
      vertex 7.93692 -1.00267 0
      vertex 0.956136 -1.15577 0
    endloop
  endfacet
  facet normal 0 0 -1
    outer loop
      vertex 1.21352 -0.881678 0
      vertex 7.93692 -1.00267 0
      vertex 1.09345 -1.02682 0
    endloop
  endfacet
  facet normal 0 0 -1
    outer loop
      vertex 1.31446 -0.722631 0
      vertex 7.93692 -1.00267 0
      vertex 1.21352 -0.881678 0
    endloop
  endfacet
  facet normal 0 0 -1
    outer loop
      vertex 1.39467 -0.552187 0
      vertex 8 0 0
      vertex 1.31446 -0.722631 0
    endloop
  endfacet
  facet normal 0 0 -1
    outer loop
      vertex 1.45287 -0.373035 0
      vertex 8 0 0
      vertex 1.39467 -0.552187 0
    endloop
  endfacet
  facet normal 0 0 -1
    outer loop
      vertex 1.48817 -0.188 0
      vertex 8 0 0
      vertex 1.45287 -0.373035 0
    endloop
  endfacet
  facet normal 0 0 -1
    outer loop
      vertex 1.5 0 0
      vertex 8 0 0
      vertex 1.48817 -0.188 0
    endloop
  endfacet
  facet normal 0 0 -1
    outer loop
      vertex 1.48817 0.188 0
      vertex 7.93692 1.00267 0
      vertex 1.5 0 0
    endloop
  endfacet
  facet normal 0 0 -1
    outer loop
      vertex 1.39467 0.552187 0
      vertex 7.74866 1.98952 0
      vertex 1.45287 0.373035 0
    endloop
  endfacet
  facet normal 0 0 -1
    outer loop
      vertex 1.31446 0.722631 0
      vertex 7.74866 1.98952 0
      vertex 1.39467 0.552187 0
    endloop
  endfacet
  facet normal 0 0 -1
    outer loop
      vertex 1.09345 1.02682 0
      vertex 7.43821 2.945 0
      vertex 1.21352 0.881678 0
    endloop
  endfacet
  facet normal 0 0 -1
    outer loop
      vertex 0.80374 1.26649 0
      vertex 7.43821 2.945 0
      vertex 0.956136 1.15577 0
    endloop
  endfacet
  facet normal 0 0 -1
    outer loop
      vertex 0.956136 1.15577 0
      vertex 7.43821 2.945 0
      vertex 1.09345 1.02682 0
    endloop
  endfacet
  facet normal 0 0 -1
    outer loop
      vertex 0.638669 1.35724 0
      vertex 7.01045 3.85403 0
      vertex 0.80374 1.26649 0
    endloop
  endfacet
  facet normal 0 0 -1
    outer loop
      vertex -0.463525 1.42658 0
      vertex 7.01045 3.85403 0
      vertex -0.281072 1.47343 0
    endloop
  endfacet
  facet normal 0 0 -1
    outer loop
      vertex 0.463525 1.42658 0
      vertex 7.01045 3.85403 0
      vertex 0.638669 1.35724 0
    endloop
  endfacet
  facet normal 0 0 -1
    outer loop
      vertex 0.281072 1.47343 0
      vertex 7.01045 3.85403 0
      vertex 0.463525 1.42658 0
    endloop
  endfacet
  facet normal 0 0 -1
    outer loop
      vertex 0.094186 1.49704 0
      vertex 7.01045 3.85403 0
      vertex 0.281072 1.47343 0
    endloop
  endfacet
  facet normal 0 0 -1
    outer loop
      vertex -0.094186 1.49704 0
      vertex 7.01045 3.85403 0
      vertex 0.094186 1.49704 0
    endloop
  endfacet
  facet normal 0 0 -1
    outer loop
      vertex -0.281072 1.47343 0
      vertex 7.01045 3.85403 0
      vertex -0.094186 1.49704 0
    endloop
  endfacet
  facet normal 0 0 -1
    outer loop
      vertex -7.93692 -1.00267 0
      vertex 6.47214 4.70228 0
      vertex -0.463525 1.42658 0
    endloop
  endfacet
  facet normal 0 0 -1
    outer loop
      vertex -0.638669 1.35724 0
      vertex -7.93692 -1.00267 0
      vertex -0.463525 1.42658 0
    endloop
  endfacet
  facet normal 0 0 -1
    outer loop
      vertex -0.80374 1.26649 0
      vertex -7.93692 -1.00267 0
      vertex -0.638669 1.35724 0
    endloop
  endfacet
  facet normal 0 0 -1
    outer loop
      vertex -0.956136 1.15577 0
      vertex -7.93692 -1.00267 0
      vertex -0.80374 1.26649 0
    endloop
  endfacet
  facet normal 0 0 -1
    outer loop
      vertex -1.09345 1.02682 0
      vertex -7.93692 -1.00267 0
      vertex -0.956136 1.15577 0
    endloop
  endfacet
  facet normal 0 0 -1
    outer loop
      vertex -1.21352 0.881678 0
      vertex -7.93692 -1.00267 0
      vertex -1.09345 1.02682 0
    endloop
  endfacet
  facet normal 0 0 -1
    outer loop
      vertex -1.31446 0.722631 0
      vertex -7.93692 -1.00267 0
      vertex -1.21352 0.881678 0
    endloop
  endfacet
  facet normal 0 0 -1
    outer loop
      vertex -1.39467 0.552187 0
      vertex -7.93692 -1.00267 0
      vertex -1.31446 0.722631 0
    endloop
  endfacet
  facet normal 0 0 -1
    outer loop
      vertex -1.45287 0.373035 0
      vertex -7.93692 -1.00267 0
      vertex -1.39467 0.552187 0
    endloop
  endfacet
  facet normal 0 0 -1
    outer loop
      vertex -1.48817 0.188 0
      vertex -7.93692 -1.00267 0
      vertex -1.45287 0.373035 0
    endloop
  endfacet
  facet normal 0 0 -1
    outer loop
      vertex -7.93692 -1.00267 0
      vertex -1.48817 0.188 0
      vertex -1.5 0 0
    endloop
  endfacet
  facet normal 0 0 -1
    outer loop
      vertex -1.48817 -0.188 0
      vertex -7.93692 -1.00267 0
      vertex -1.5 0 0
    endloop
  endfacet
  facet normal 0 0 -1
    outer loop
      vertex 1.45287 0.373035 0
      vertex 7.93692 1.00267 0
      vertex 1.48817 0.188 0
    endloop
  endfacet
  facet normal -0.706408 0.0444432 0.706408
    outer loop
      vertex -8 0 0
      vertex -4 0 4
      vertex -7.93692 1.00267 0
    endloop
  endfacet
  facet normal -0.706408 0.0444432 0.706408
    outer loop
      vertex -7.93692 1.00267 0
      vertex -4 0 4
      vertex -3.96846 0.501333 4
    endloop
  endfacet
  facet normal -0.706408 -0.0444432 0.706408
    outer loop
      vertex -8 0 0
      vertex -7.93692 -1.00267 0
      vertex -4 0 4
    endloop
  endfacet
  facet normal -0.706408 -0.0444432 0.706408
    outer loop
      vertex -4 0 4
      vertex -7.93692 -1.00267 0
      vertex -3.96846 -0.501333 4
    endloop
  endfacet
  facet normal -0.695268 -0.13263 0.706408
    outer loop
      vertex -3.96846 -0.501333 4
      vertex -7.93692 -1.00267 0
      vertex -7.74866 -1.98952 0
    endloop
  endfacet
  facet normal -0.695268 -0.132629 0.706408
    outer loop
      vertex -3.96846 -0.501333 4
      vertex -7.74866 -1.98952 0
      vertex -3.87433 -0.99476 4
    endloop
  endfacet
  facet normal -0.673162 -0.218724 0.706408
    outer loop
      vertex -3.87433 -0.99476 4
      vertex -7.74866 -1.98952 0
      vertex -7.43821 -2.945 0
    endloop
  endfacet
  facet normal -0.673162 -0.218724 0.706408
    outer loop
      vertex -3.87433 -0.99476 4
      vertex -7.43821 -2.945 0
      vertex -3.71911 -1.4725 4
    endloop
  endfacet
  facet normal -0.640441 -0.301369 0.706408
    outer loop
      vertex -3.71911 -1.4725 4
      vertex -7.43821 -2.945 0
      vertex -7.01045 -3.85403 0
    endloop
  endfacet
  facet normal -0.640441 -0.301368 0.706408
    outer loop
      vertex -3.71911 -1.4725 4
      vertex -7.01045 -3.85403 0
      vertex -3.50523 -1.92701 4
    endloop
  endfacet
  facet normal -0.59762 -0.37926 0.706408
    outer loop
      vertex -3.50523 -1.92701 4
      vertex -7.01045 -3.85403 0
      vertex -6.47214 -4.70228 0
    endloop
  endfacet
  facet normal -0.597619 -0.379261 0.706408
    outer loop
      vertex -3.50523 -1.92701 4
      vertex -6.47214 -4.70228 0
      vertex -3.23607 -2.35114 4
    endloop
  endfacet
  facet normal -0.545373 -0.451172 0.706408
    outer loop
      vertex -3.23607 -2.35114 4
      vertex -6.47214 -4.70228 0
      vertex -5.83175 -5.47638 0
    endloop
  endfacet
  facet normal -0.545373 -0.451172 0.706408
    outer loop
      vertex -3.23607 -2.35114 4
      vertex -5.83175 -5.47638 0
      vertex -2.91587 -2.73819 4
    endloop
  endfacet
  facet normal -0.484526 -0.515967 0.706408
    outer loop
      vertex -2.91587 -2.73819 4
      vertex -5.83175 -5.47638 0
      vertex -5.09939 -6.16411 0
    endloop
  endfacet
  facet normal -0.484526 -0.515967 0.706408
    outer loop
      vertex -2.91587 -2.73819 4
      vertex -5.09939 -6.16411 0
      vertex -2.5497 -3.08205 4
    endloop
  endfacet
  facet normal -0.416037 -0.572626 0.706408
    outer loop
      vertex -2.5497 -3.08205 4
      vertex -5.09939 -6.16411 0
      vertex -4.28661 -6.75462 0
    endloop
  endfacet
  facet normal -0.416037 -0.572626 0.706408
    outer loop
      vertex -2.5497 -3.08205 4
      vertex -4.28661 -6.75462 0
      vertex -2.14331 -3.37731 4
    endloop
  endfacet
  facet normal -0.340988 -0.620254 0.706408
    outer loop
      vertex -2.14331 -3.37731 4
      vertex -4.28661 -6.75462 0
      vertex -3.40623 -7.23862 0
    endloop
  endfacet
  facet normal -0.340987 -0.620254 0.706408
    outer loop
      vertex -2.14331 -3.37731 4
      vertex -3.40623 -7.23862 0
      vertex -1.70312 -3.61931 4
    endloop
  endfacet
  facet normal -0.260561 -0.6581 0.706408
    outer loop
      vertex -1.70312 -3.61931 4
      vertex -3.40623 -7.23862 0
      vertex -2.47214 -7.60845 0
    endloop
  endfacet
  facet normal -0.260561 -0.6581 0.706408
    outer loop
      vertex -1.23607 -3.80423 4
      vertex -1.70312 -3.61931 4
      vertex -2.47214 -7.60845 0
    endloop
  endfacet
  facet normal -0.176024 -0.685568 0.706408
    outer loop
      vertex -1.23607 -3.80423 4
      vertex -2.47214 -7.60845 0
      vertex -1.49905 -7.8583 0
    endloop
  endfacet
  facet normal -0.176024 -0.685568 0.706408
    outer loop
      vertex -1.23607 -3.80423 4
      vertex -1.49905 -7.8583 0
      vertex -0.749525 -3.92915 4
    endloop
  endfacet
  facet normal -0.0887115 -0.702224 0.706408
    outer loop
      vertex -0.749525 -3.92915 4
      vertex -1.49905 -7.8583 0
      vertex -0.502324 -7.98421 0
    endloop
  endfacet
  facet normal -0.0887116 -0.702224 0.706408
    outer loop
      vertex -0.251162 -3.99211 4
      vertex -0.749525 -3.92915 4
      vertex -0.502324 -7.98421 0
    endloop
  endfacet
  facet normal 0 -0.707805 0.706408
    outer loop
      vertex -0.251162 -3.99211 4
      vertex -0.502324 -7.98421 0
      vertex 0.502324 -7.98421 0
    endloop
  endfacet
  facet normal 0 -0.707805 0.706408
    outer loop
      vertex 0.251162 -3.99211 4
      vertex -0.251162 -3.99211 4
      vertex 0.502324 -7.98421 0
    endloop
  endfacet
  facet normal 0.0887115 -0.702224 0.706408
    outer loop
      vertex 1.49905 -7.8583 0
      vertex 0.251162 -3.99211 4
      vertex 0.502324 -7.98421 0
    endloop
  endfacet
  facet normal 0.0887116 -0.702223 0.706408
    outer loop
      vertex 0.749525 -3.92915 4
      vertex 0.251162 -3.99211 4
      vertex 1.49905 -7.8583 0
    endloop
  endfacet
  facet normal 0.176024 -0.685568 0.706408
    outer loop
      vertex 2.47214 -7.60845 0
      vertex 0.749525 -3.92915 4
      vertex 1.49905 -7.8583 0
    endloop
  endfacet
  facet normal 0.176024 -0.685568 0.706408
    outer loop
      vertex 1.23607 -3.80423 4
      vertex 0.749525 -3.92915 4
      vertex 2.47214 -7.60845 0
    endloop
  endfacet
  facet normal 0.260561 -0.6581 0.706408
    outer loop
      vertex 1.70312 -3.61931 4
      vertex 1.23607 -3.80423 4
      vertex 2.47214 -7.60845 0
    endloop
  endfacet
  facet normal 0.260561 -0.6581 0.706408
    outer loop
      vertex 3.40623 -7.23862 0
      vertex 1.70312 -3.61931 4
      vertex 2.47214 -7.60845 0
    endloop
  endfacet
  facet normal 0.340988 -0.620254 0.706408
    outer loop
      vertex 4.28661 -6.75462 0
      vertex 1.70312 -3.61931 4
      vertex 3.40623 -7.23862 0
    endloop
  endfacet
  facet normal 0.340987 -0.620254 0.706408
    outer loop
      vertex 2.14331 -3.37731 4
      vertex 1.70312 -3.61931 4
      vertex 4.28661 -6.75462 0
    endloop
  endfacet
  facet normal 0.416037 -0.572626 0.706408
    outer loop
      vertex 5.09939 -6.16411 0
      vertex 2.14331 -3.37731 4
      vertex 4.28661 -6.75462 0
    endloop
  endfacet
  facet normal 0.416037 -0.572626 0.706408
    outer loop
      vertex 2.5497 -3.08205 4
      vertex 2.14331 -3.37731 4
      vertex 5.09939 -6.16411 0
    endloop
  endfacet
  facet normal 0.484526 -0.515967 0.706408
    outer loop
      vertex 5.83175 -5.47638 0
      vertex 2.5497 -3.08205 4
      vertex 5.09939 -6.16411 0
    endloop
  endfacet
  facet normal 0.484526 -0.515967 0.706408
    outer loop
      vertex 2.91587 -2.73819 4
      vertex 2.5497 -3.08205 4
      vertex 5.83175 -5.47638 0
    endloop
  endfacet
  facet normal 0.545373 -0.451172 0.706408
    outer loop
      vertex 6.47214 -4.70228 0
      vertex 2.91587 -2.73819 4
      vertex 5.83175 -5.47638 0
    endloop
  endfacet
  facet normal 0.545373 -0.451172 0.706408
    outer loop
      vertex 3.23607 -2.35114 4
      vertex 2.91587 -2.73819 4
      vertex 6.47214 -4.70228 0
    endloop
  endfacet
  facet normal 0.59762 -0.37926 0.706408
    outer loop
      vertex 7.01045 -3.85403 0
      vertex 3.23607 -2.35114 4
      vertex 6.47214 -4.70228 0
    endloop
  endfacet
  facet normal 0.597619 -0.379261 0.706408
    outer loop
      vertex 3.50523 -1.92701 4
      vertex 3.23607 -2.35114 4
      vertex 7.01045 -3.85403 0
    endloop
  endfacet
  facet normal 0.640441 -0.301369 0.706408
    outer loop
      vertex 7.43821 -2.945 0
      vertex 3.50523 -1.92701 4
      vertex 7.01045 -3.85403 0
    endloop
  endfacet
  facet normal 0.640441 -0.301368 0.706408
    outer loop
      vertex 3.71911 -1.4725 4
      vertex 3.50523 -1.92701 4
      vertex 7.43821 -2.945 0
    endloop
  endfacet
  facet normal 0.673162 -0.218724 0.706408
    outer loop
      vertex 7.74866 -1.98952 0
      vertex 3.71911 -1.4725 4
      vertex 7.43821 -2.945 0
    endloop
  endfacet
  facet normal 0.673162 -0.218724 0.706408
    outer loop
      vertex 3.87433 -0.99476 4
      vertex 3.71911 -1.4725 4
      vertex 7.74866 -1.98952 0
    endloop
  endfacet
  facet normal 0.695268 -0.13263 0.706408
    outer loop
      vertex 7.93692 -1.00267 0
      vertex 3.87433 -0.99476 4
      vertex 7.74866 -1.98952 0
    endloop
  endfacet
  facet normal 0.695268 -0.132629 0.706408
    outer loop
      vertex 3.96846 -0.501333 4
      vertex 3.87433 -0.99476 4
      vertex 7.93692 -1.00267 0
    endloop
  endfacet
  facet normal 0.706408 -0.0444432 0.706408
    outer loop
      vertex 4 0 4
      vertex 3.96846 -0.501333 4
      vertex 7.93692 -1.00267 0
    endloop
  endfacet
  facet normal 0.706408 -0.0444432 0.706408
    outer loop
      vertex 8 0 0
      vertex 4 0 4
      vertex 7.93692 -1.00267 0
    endloop
  endfacet
  facet normal 0.706408 0.0444432 0.706408
    outer loop
      vertex 7.93692 1.00267 0
      vertex 3.96846 0.501333 4
      vertex 4 0 4
    endloop
  endfacet
  facet normal 0.706408 0.0444432 0.706408
    outer loop
      vertex 8 0 0
      vertex 7.93692 1.00267 0
      vertex 4 0 4
    endloop
  endfacet
  facet normal 0.695268 0.13263 0.706408
    outer loop
      vertex 7.74866 1.98952 0
      vertex 3.96846 0.501333 4
      vertex 7.93692 1.00267 0
    endloop
  endfacet
  facet normal 0.695268 0.132629 0.706408
    outer loop
      vertex 7.74866 1.98952 0
      vertex 3.87433 0.99476 4
      vertex 3.96846 0.501333 4
    endloop
  endfacet
  facet normal 0.673162 0.218724 0.706408
    outer loop
      vertex 7.43821 2.945 0
      vertex 3.87433 0.99476 4
      vertex 7.74866 1.98952 0
    endloop
  endfacet
  facet normal 0.673162 0.218724 0.706408
    outer loop
      vertex 7.43821 2.945 0
      vertex 3.71911 1.4725 4
      vertex 3.87433 0.99476 4
    endloop
  endfacet
  facet normal 0.640441 0.301369 0.706408
    outer loop
      vertex 7.01045 3.85403 0
      vertex 3.71911 1.4725 4
      vertex 7.43821 2.945 0
    endloop
  endfacet
  facet normal 0.640441 0.301368 0.706408
    outer loop
      vertex 7.01045 3.85403 0
      vertex 3.50523 1.92701 4
      vertex 3.71911 1.4725 4
    endloop
  endfacet
  facet normal 0.59762 0.37926 0.706408
    outer loop
      vertex 6.47214 4.70228 0
      vertex 3.50523 1.92701 4
      vertex 7.01045 3.85403 0
    endloop
  endfacet
  facet normal 0.597619 0.379261 0.706408
    outer loop
      vertex 6.47214 4.70228 0
      vertex 3.23607 2.35114 4
      vertex 3.50523 1.92701 4
    endloop
  endfacet
  facet normal 0.545373 0.451172 0.706408
    outer loop
      vertex 5.83175 5.47638 0
      vertex 3.23607 2.35114 4
      vertex 6.47214 4.70228 0
    endloop
  endfacet
  facet normal 0.545373 0.451172 0.706408
    outer loop
      vertex 5.83175 5.47638 0
      vertex 2.91587 2.73819 4
      vertex 3.23607 2.35114 4
    endloop
  endfacet
  facet normal 0.484526 0.515967 0.706408
    outer loop
      vertex 5.09939 6.16411 0
      vertex 2.91587 2.73819 4
      vertex 5.83175 5.47638 0
    endloop
  endfacet
  facet normal 0.484526 0.515967 0.706408
    outer loop
      vertex 5.09939 6.16411 0
      vertex 2.5497 3.08205 4
      vertex 2.91587 2.73819 4
    endloop
  endfacet
  facet normal 0.416037 0.572626 0.706408
    outer loop
      vertex 4.28661 6.75462 0
      vertex 2.5497 3.08205 4
      vertex 5.09939 6.16411 0
    endloop
  endfacet
  facet normal 0.416037 0.572626 0.706408
    outer loop
      vertex 4.28661 6.75462 0
      vertex 2.14331 3.37731 4
      vertex 2.5497 3.08205 4
    endloop
  endfacet
  facet normal 0.340988 0.620254 0.706408
    outer loop
      vertex 3.40623 7.23862 0
      vertex 2.14331 3.37731 4
      vertex 4.28661 6.75462 0
    endloop
  endfacet
  facet normal 0.340987 0.620254 0.706408
    outer loop
      vertex 3.40623 7.23862 0
      vertex 1.70312 3.61931 4
      vertex 2.14331 3.37731 4
    endloop
  endfacet
  facet normal 0.260561 0.6581 0.706408
    outer loop
      vertex 2.47214 7.60845 0
      vertex 1.23607 3.80423 4
      vertex 1.70312 3.61931 4
    endloop
  endfacet
  facet normal 0.260561 0.6581 0.706408
    outer loop
      vertex 3.40623 7.23862 0
      vertex 2.47214 7.60845 0
      vertex 1.70312 3.61931 4
    endloop
  endfacet
  facet normal 0.176024 0.685568 0.706408
    outer loop
      vertex 1.49905 7.8583 0
      vertex 1.23607 3.80423 4
      vertex 2.47214 7.60845 0
    endloop
  endfacet
  facet normal 0.176024 0.685568 0.706408
    outer loop
      vertex 1.49905 7.8583 0
      vertex 0.749525 3.92915 4
      vertex 1.23607 3.80423 4
    endloop
  endfacet
  facet normal 0.0887115 0.702224 0.706408
    outer loop
      vertex 1.49905 7.8583 0
      vertex 0.502324 7.98421 0
      vertex 0.749525 3.92915 4
    endloop
  endfacet
  facet normal 0.0887116 0.702224 0.706408
    outer loop
      vertex 0.502324 7.98421 0
      vertex 0.251162 3.99211 4
      vertex 0.749525 3.92915 4
    endloop
  endfacet
  facet normal 0 0.707805 0.706408
    outer loop
      vertex -0.502324 7.98421 0
      vertex -0.251162 3.99211 4
      vertex 0.502324 7.98421 0
    endloop
  endfacet
  facet normal 0 0.707805 0.706408
    outer loop
      vertex 0.502324 7.98421 0
      vertex -0.251162 3.99211 4
      vertex 0.251162 3.99211 4
    endloop
  endfacet
  facet normal -0.0887115 0.702224 0.706408
    outer loop
      vertex -0.502324 7.98421 0
      vertex -1.49905 7.8583 0
      vertex -0.251162 3.99211 4
    endloop
  endfacet
  facet normal -0.0887116 0.702223 0.706408
    outer loop
      vertex -0.251162 3.99211 4
      vertex -1.49905 7.8583 0
      vertex -0.749525 3.92915 4
    endloop
  endfacet
  facet normal -0.176024 0.685568 0.706408
    outer loop
      vertex -1.49905 7.8583 0
      vertex -2.47214 7.60845 0
      vertex -0.749525 3.92915 4
    endloop
  endfacet
  facet normal -0.176024 0.685568 0.706408
    outer loop
      vertex -0.749525 3.92915 4
      vertex -2.47214 7.60845 0
      vertex -1.23607 3.80423 4
    endloop
  endfacet
  facet normal -0.260561 0.6581 0.706408
    outer loop
      vertex -2.47214 7.60845 0
      vertex -3.40623 7.23862 0
      vertex -1.70312 3.61931 4
    endloop
  endfacet
  facet normal -0.260561 0.6581 0.706408
    outer loop
      vertex -1.23607 3.80423 4
      vertex -2.47214 7.60845 0
      vertex -1.70312 3.61931 4
    endloop
  endfacet
  facet normal -0.340988 0.620254 0.706408
    outer loop
      vertex -3.40623 7.23862 0
      vertex -4.28661 6.75462 0
      vertex -1.70312 3.61931 4
    endloop
  endfacet
  facet normal -0.340987 0.620254 0.706408
    outer loop
      vertex -1.70312 3.61931 4
      vertex -4.28661 6.75462 0
      vertex -2.14331 3.37731 4
    endloop
  endfacet
  facet normal -0.416037 0.572626 0.706408
    outer loop
      vertex -4.28661 6.75462 0
      vertex -5.09939 6.16411 0
      vertex -2.14331 3.37731 4
    endloop
  endfacet
  facet normal -0.416037 0.572626 0.706408
    outer loop
      vertex -2.14331 3.37731 4
      vertex -5.09939 6.16411 0
      vertex -2.5497 3.08205 4
    endloop
  endfacet
  facet normal -0.484526 0.515967 0.706408
    outer loop
      vertex -5.09939 6.16411 0
      vertex -5.83175 5.47638 0
      vertex -2.5497 3.08205 4
    endloop
  endfacet
  facet normal -0.484526 0.515967 0.706408
    outer loop
      vertex -2.5497 3.08205 4
      vertex -5.83175 5.47638 0
      vertex -2.91587 2.73819 4
    endloop
  endfacet
  facet normal -0.545373 0.451172 0.706408
    outer loop
      vertex -5.83175 5.47638 0
      vertex -6.47214 4.70228 0
      vertex -2.91587 2.73819 4
    endloop
  endfacet
  facet normal -0.545373 0.451172 0.706408
    outer loop
      vertex -2.91587 2.73819 4
      vertex -6.47214 4.70228 0
      vertex -3.23607 2.35114 4
    endloop
  endfacet
  facet normal -0.59762 0.37926 0.706408
    outer loop
      vertex -6.47214 4.70228 0
      vertex -7.01045 3.85403 0
      vertex -3.23607 2.35114 4
    endloop
  endfacet
  facet normal -0.597619 0.379261 0.706408
    outer loop
      vertex -3.23607 2.35114 4
      vertex -7.01045 3.85403 0
      vertex -3.50523 1.92701 4
    endloop
  endfacet
  facet normal -0.640441 0.301369 0.706408
    outer loop
      vertex -7.01045 3.85403 0
      vertex -7.43821 2.945 0
      vertex -3.50523 1.92701 4
    endloop
  endfacet
  facet normal -0.640441 0.301368 0.706408
    outer loop
      vertex -3.50523 1.92701 4
      vertex -7.43821 2.945 0
      vertex -3.71911 1.4725 4
    endloop
  endfacet
  facet normal -0.673162 0.218724 0.706408
    outer loop
      vertex -7.43821 2.945 0
      vertex -7.74866 1.98952 0
      vertex -3.71911 1.4725 4
    endloop
  endfacet
  facet normal -0.673162 0.218724 0.706408
    outer loop
      vertex -3.71911 1.4725 4
      vertex -7.74866 1.98952 0
      vertex -3.87433 0.99476 4
    endloop
  endfacet
  facet normal -0.695268 0.13263 0.706408
    outer loop
      vertex -7.74866 1.98952 0
      vertex -7.93692 1.00267 0
      vertex -3.87433 0.99476 4
    endloop
  endfacet
  facet normal -0.695268 0.132629 0.706408
    outer loop
      vertex -3.87433 0.99476 4
      vertex -7.93692 1.00267 0
      vertex -3.96846 0.501333 4
    endloop
  endfacet
  facet normal 0.998027 -0.0627907 0
    outer loop
      vertex -1.48817 0.188 0
      vertex -1.48817 0.188 18
      vertex -1.5 0 18
    endloop
  endfacet
  facet normal 0.998027 -0.0627907 0
    outer loop
      vertex -1.5 0 0
      vertex -1.48817 0.188 0
      vertex -1.5 0 18
    endloop
  endfacet
  facet normal 0.998027 0.0627907 0
    outer loop
      vertex -1.5 0 18
      vertex -1.48817 -0.188 18
      vertex -1.48817 -0.188 0
    endloop
  endfacet
  facet normal 0.998027 0.0627907 0
    outer loop
      vertex -1.5 0 0
      vertex -1.5 0 18
      vertex -1.48817 -0.188 0
    endloop
  endfacet
  facet normal 0.982288 -0.18738 0
    outer loop
      vertex -1.45287 0.373035 0
      vertex -1.45287 0.373035 18
      vertex -1.48817 0.188 18
    endloop
  endfacet
  facet normal 0.982288 -0.18738 0
    outer loop
      vertex -1.48817 0.188 0
      vertex -1.45287 0.373035 0
      vertex -1.48817 0.188 18
    endloop
  endfacet
  facet normal 0.951057 -0.309017 0
    outer loop
      vertex -1.39467 0.552187 0
      vertex -1.39467 0.552187 18
      vertex -1.45287 0.373035 18
    endloop
  endfacet
  facet normal 0.951057 -0.309017 0
    outer loop
      vertex -1.45287 0.373035 0
      vertex -1.39467 0.552187 0
      vertex -1.45287 0.373035 18
    endloop
  endfacet
  facet normal 0.904827 -0.42578 0
    outer loop
      vertex -1.31446 0.722631 0
      vertex -1.31446 0.722631 18
      vertex -1.39467 0.552187 18
    endloop
  endfacet
  facet normal 0.904827 -0.42578 0
    outer loop
      vertex -1.39467 0.552187 0
      vertex -1.31446 0.722631 0
      vertex -1.39467 0.552187 18
    endloop
  endfacet
  facet normal 0.844326 -0.535829 0
    outer loop
      vertex -1.21352 0.881678 0
      vertex -1.21352 0.881678 18
      vertex -1.31446 0.722631 18
    endloop
  endfacet
  facet normal 0.844326 -0.535829 0
    outer loop
      vertex -1.31446 0.722631 0
      vertex -1.21352 0.881678 0
      vertex -1.31446 0.722631 18
    endloop
  endfacet
  facet normal 0.770515 -0.637422 0
    outer loop
      vertex -1.09345 1.02682 0
      vertex -1.09345 1.02682 18
      vertex -1.21352 0.881678 18
    endloop
  endfacet
  facet normal 0.770515 -0.637422 0
    outer loop
      vertex -1.21352 0.881678 0
      vertex -1.09345 1.02682 0
      vertex -1.21352 0.881678 18
    endloop
  endfacet
  facet normal 0.684546 -0.728969 0
    outer loop
      vertex -0.956136 1.15577 0
      vertex -0.956136 1.15577 18
      vertex -1.09345 1.02682 18
    endloop
  endfacet
  facet normal 0.684546 -0.728969 0
    outer loop
      vertex -1.09345 1.02682 0
      vertex -0.956136 1.15577 0
      vertex -1.09345 1.02682 18
    endloop
  endfacet
  facet normal 0.587785 -0.809017 0
    outer loop
      vertex -0.80374 1.26649 0
      vertex -0.80374 1.26649 18
      vertex -0.956136 1.15577 18
    endloop
  endfacet
  facet normal 0.587785 -0.809017 0
    outer loop
      vertex -0.956136 1.15577 0
      vertex -0.80374 1.26649 0
      vertex -0.956136 1.15577 18
    endloop
  endfacet
  facet normal 0.481756 -0.876306 0
    outer loop
      vertex -0.638669 1.35724 0
      vertex -0.638669 1.35724 18
      vertex -0.80374 1.26649 18
    endloop
  endfacet
  facet normal 0.481756 -0.876306 0
    outer loop
      vertex -0.80374 1.26649 0
      vertex -0.638669 1.35724 0
      vertex -0.80374 1.26649 18
    endloop
  endfacet
  facet normal 0.368123 -0.929777 0
    outer loop
      vertex -0.463525 1.42658 0
      vertex -0.463525 1.42658 18
      vertex -0.638669 1.35724 18
    endloop
  endfacet
  facet normal 0.368123 -0.929777 0
    outer loop
      vertex -0.638669 1.35724 0
      vertex -0.463525 1.42658 0
      vertex -0.638669 1.35724 18
    endloop
  endfacet
  facet normal 0.24869 -0.968583 0
    outer loop
      vertex -0.281072 1.47343 0
      vertex -0.281072 1.47343 18
      vertex -0.463525 1.42658 18
    endloop
  endfacet
  facet normal 0.24869 -0.968583 0
    outer loop
      vertex -0.463525 1.42658 0
      vertex -0.281072 1.47343 0
      vertex -0.463525 1.42658 18
    endloop
  endfacet
  facet normal 0.125332 -0.992115 0
    outer loop
      vertex -0.094186 1.49704 0
      vertex -0.094186 1.49704 18
      vertex -0.281072 1.47343 18
    endloop
  endfacet
  facet normal 0.125332 -0.992115 0
    outer loop
      vertex -0.281072 1.47343 0
      vertex -0.094186 1.49704 0
      vertex -0.281072 1.47343 18
    endloop
  endfacet
  facet normal 0 -1 0
    outer loop
      vertex 0.094186 1.49704 0
      vertex 0.094186 1.49704 18
      vertex -0.094186 1.49704 18
    endloop
  endfacet
  facet normal 0 -1 0
    outer loop
      vertex -0.094186 1.49704 0
      vertex 0.094186 1.49704 0
      vertex -0.094186 1.49704 18
    endloop
  endfacet
  facet normal -0.125332 -0.992115 0
    outer loop
      vertex 0.281072 1.47343 0
      vertex 0.281072 1.47343 18
      vertex 0.094186 1.49704 18
    endloop
  endfacet
  facet normal -0.125332 -0.992115 0
    outer loop
      vertex 0.094186 1.49704 0
      vertex 0.281072 1.47343 0
      vertex 0.094186 1.49704 18
    endloop
  endfacet
  facet normal -0.24869 -0.968583 0
    outer loop
      vertex 0.463525 1.42658 0
      vertex 0.463525 1.42658 18
      vertex 0.281072 1.47343 18
    endloop
  endfacet
  facet normal -0.24869 -0.968583 0
    outer loop
      vertex 0.281072 1.47343 0
      vertex 0.463525 1.42658 0
      vertex 0.281072 1.47343 18
    endloop
  endfacet
  facet normal -0.368123 -0.929777 0
    outer loop
      vertex 0.638669 1.35724 0
      vertex 0.638669 1.35724 18
      vertex 0.463525 1.42658 18
    endloop
  endfacet
  facet normal -0.368123 -0.929777 0
    outer loop
      vertex 0.463525 1.42658 0
      vertex 0.638669 1.35724 0
      vertex 0.463525 1.42658 18
    endloop
  endfacet
  facet normal -0.481756 -0.876306 0
    outer loop
      vertex 0.80374 1.26649 0
      vertex 0.80374 1.26649 18
      vertex 0.638669 1.35724 18
    endloop
  endfacet
  facet normal -0.481756 -0.876306 0
    outer loop
      vertex 0.638669 1.35724 0
      vertex 0.80374 1.26649 0
      vertex 0.638669 1.35724 18
    endloop
  endfacet
  facet normal -0.587785 -0.809017 0
    outer loop
      vertex 0.956136 1.15577 0
      vertex 0.956136 1.15577 18
      vertex 0.80374 1.26649 18
    endloop
  endfacet
  facet normal -0.587785 -0.809017 0
    outer loop
      vertex 0.80374 1.26649 0
      vertex 0.956136 1.15577 0
      vertex 0.80374 1.26649 18
    endloop
  endfacet
  facet normal -0.684546 -0.728969 0
    outer loop
      vertex 1.09345 1.02682 0
      vertex 1.09345 1.02682 18
      vertex 0.956136 1.15577 18
    endloop
  endfacet
  facet normal -0.684546 -0.728969 0
    outer loop
      vertex 0.956136 1.15577 0
      vertex 1.09345 1.02682 0
      vertex 0.956136 1.15577 18
    endloop
  endfacet
  facet normal -0.770515 -0.637422 0
    outer loop
      vertex 1.21352 0.881678 18
      vertex 1.09345 1.02682 18
      vertex 1.21352 0.881678 0
    endloop
  endfacet
  facet normal -0.770515 -0.637422 0
    outer loop
      vertex 1.21352 0.881678 0
      vertex 1.09345 1.02682 18
      vertex 1.09345 1.02682 0
    endloop
  endfacet
  facet normal -0.844326 -0.535829 0
    outer loop
      vertex 1.31446 0.722631 18
      vertex 1.21352 0.881678 18
      vertex 1.31446 0.722631 0
    endloop
  endfacet
  facet normal -0.844326 -0.535829 0
    outer loop
      vertex 1.31446 0.722631 0
      vertex 1.21352 0.881678 18
      vertex 1.21352 0.881678 0
    endloop
  endfacet
  facet normal -0.904827 -0.42578 0
    outer loop
      vertex 1.39467 0.552187 18
      vertex 1.31446 0.722631 18
      vertex 1.39467 0.552187 0
    endloop
  endfacet
  facet normal -0.904827 -0.42578 0
    outer loop
      vertex 1.39467 0.552187 0
      vertex 1.31446 0.722631 18
      vertex 1.31446 0.722631 0
    endloop
  endfacet
  facet normal -0.951057 -0.309017 0
    outer loop
      vertex 1.45287 0.373035 18
      vertex 1.39467 0.552187 18
      vertex 1.45287 0.373035 0
    endloop
  endfacet
  facet normal -0.951057 -0.309017 0
    outer loop
      vertex 1.45287 0.373035 0
      vertex 1.39467 0.552187 18
      vertex 1.39467 0.552187 0
    endloop
  endfacet
  facet normal -0.982288 -0.18738 0
    outer loop
      vertex 1.48817 0.188 18
      vertex 1.45287 0.373035 18
      vertex 1.48817 0.188 0
    endloop
  endfacet
  facet normal -0.982288 -0.18738 0
    outer loop
      vertex 1.48817 0.188 0
      vertex 1.45287 0.373035 18
      vertex 1.45287 0.373035 0
    endloop
  endfacet
  facet normal -0.998027 -0.0627907 0
    outer loop
      vertex 1.5 0 18
      vertex 1.48817 0.188 18
      vertex 1.5 0 0
    endloop
  endfacet
  facet normal -0.998027 -0.0627907 0
    outer loop
      vertex 1.5 0 0
      vertex 1.48817 0.188 18
      vertex 1.48817 0.188 0
    endloop
  endfacet
  facet normal -0.998027 0.0627907 0
    outer loop
      vertex 1.5 0 18
      vertex 1.5 0 0
      vertex 1.48817 -0.188 18
    endloop
  endfacet
  facet normal -0.998027 0.0627907 0
    outer loop
      vertex 1.48817 -0.188 18
      vertex 1.5 0 0
      vertex 1.48817 -0.188 0
    endloop
  endfacet
  facet normal -0.982288 0.18738 0
    outer loop
      vertex 1.48817 -0.188 18
      vertex 1.48817 -0.188 0
      vertex 1.45287 -0.373035 18
    endloop
  endfacet
  facet normal -0.982288 0.18738 0
    outer loop
      vertex 1.45287 -0.373035 18
      vertex 1.48817 -0.188 0
      vertex 1.45287 -0.373035 0
    endloop
  endfacet
  facet normal -0.951057 0.309017 0
    outer loop
      vertex 1.45287 -0.373035 18
      vertex 1.45287 -0.373035 0
      vertex 1.39467 -0.552187 18
    endloop
  endfacet
  facet normal -0.951057 0.309017 0
    outer loop
      vertex 1.39467 -0.552187 18
      vertex 1.45287 -0.373035 0
      vertex 1.39467 -0.552187 0
    endloop
  endfacet
  facet normal -0.904827 0.42578 0
    outer loop
      vertex 1.39467 -0.552187 18
      vertex 1.39467 -0.552187 0
      vertex 1.31446 -0.722631 18
    endloop
  endfacet
  facet normal -0.904827 0.42578 0
    outer loop
      vertex 1.31446 -0.722631 18
      vertex 1.39467 -0.552187 0
      vertex 1.31446 -0.722631 0
    endloop
  endfacet
  facet normal -0.844326 0.535829 0
    outer loop
      vertex 1.31446 -0.722631 18
      vertex 1.31446 -0.722631 0
      vertex 1.21352 -0.881678 18
    endloop
  endfacet
  facet normal -0.844326 0.535829 0
    outer loop
      vertex 1.21352 -0.881678 18
      vertex 1.31446 -0.722631 0
      vertex 1.21352 -0.881678 0
    endloop
  endfacet
  facet normal -0.770515 0.637422 0
    outer loop
      vertex 1.21352 -0.881678 18
      vertex 1.21352 -0.881678 0
      vertex 1.09345 -1.02682 18
    endloop
  endfacet
  facet normal -0.770515 0.637422 0
    outer loop
      vertex 1.09345 -1.02682 18
      vertex 1.21352 -0.881678 0
      vertex 1.09345 -1.02682 0
    endloop
  endfacet
  facet normal -0.684546 0.728969 0
    outer loop
      vertex 1.09345 -1.02682 18
      vertex 1.09345 -1.02682 0
      vertex 0.956136 -1.15577 18
    endloop
  endfacet
  facet normal -0.684546 0.728969 0
    outer loop
      vertex 0.956136 -1.15577 18
      vertex 1.09345 -1.02682 0
      vertex 0.956136 -1.15577 0
    endloop
  endfacet
  facet normal -0.587785 0.809017 0
    outer loop
      vertex 0.956136 -1.15577 18
      vertex 0.956136 -1.15577 0
      vertex 0.80374 -1.26649 18
    endloop
  endfacet
  facet normal -0.587785 0.809017 0
    outer loop
      vertex 0.80374 -1.26649 18
      vertex 0.956136 -1.15577 0
      vertex 0.80374 -1.26649 0
    endloop
  endfacet
  facet normal -0.481756 0.876306 0
    outer loop
      vertex 0.80374 -1.26649 18
      vertex 0.80374 -1.26649 0
      vertex 0.638669 -1.35724 18
    endloop
  endfacet
  facet normal -0.481756 0.876306 0
    outer loop
      vertex 0.638669 -1.35724 18
      vertex 0.80374 -1.26649 0
      vertex 0.638669 -1.35724 0
    endloop
  endfacet
  facet normal -0.368123 0.929777 0
    outer loop
      vertex 0.638669 -1.35724 18
      vertex 0.638669 -1.35724 0
      vertex 0.463525 -1.42658 18
    endloop
  endfacet
  facet normal -0.368123 0.929777 0
    outer loop
      vertex 0.463525 -1.42658 18
      vertex 0.638669 -1.35724 0
      vertex 0.463525 -1.42658 0
    endloop
  endfacet
  facet normal -0.24869 0.968583 0
    outer loop
      vertex 0.463525 -1.42658 18
      vertex 0.463525 -1.42658 0
      vertex 0.281072 -1.47343 18
    endloop
  endfacet
  facet normal -0.24869 0.968583 0
    outer loop
      vertex 0.281072 -1.47343 18
      vertex 0.463525 -1.42658 0
      vertex 0.281072 -1.47343 0
    endloop
  endfacet
  facet normal -0.125332 0.992115 0
    outer loop
      vertex 0.281072 -1.47343 18
      vertex 0.281072 -1.47343 0
      vertex 0.094186 -1.49704 18
    endloop
  endfacet
  facet normal -0.125332 0.992115 0
    outer loop
      vertex 0.094186 -1.49704 18
      vertex 0.281072 -1.47343 0
      vertex 0.094186 -1.49704 0
    endloop
  endfacet
  facet normal 0 1 0
    outer loop
      vertex 0.094186 -1.49704 18
      vertex 0.094186 -1.49704 0
      vertex -0.094186 -1.49704 18
    endloop
  endfacet
  facet normal 0 1 0
    outer loop
      vertex -0.094186 -1.49704 18
      vertex 0.094186 -1.49704 0
      vertex -0.094186 -1.49704 0
    endloop
  endfacet
  facet normal 0.125332 0.992115 0
    outer loop
      vertex -0.094186 -1.49704 18
      vertex -0.094186 -1.49704 0
      vertex -0.281072 -1.47343 18
    endloop
  endfacet
  facet normal 0.125332 0.992115 0
    outer loop
      vertex -0.281072 -1.47343 18
      vertex -0.094186 -1.49704 0
      vertex -0.281072 -1.47343 0
    endloop
  endfacet
  facet normal 0.24869 0.968583 0
    outer loop
      vertex -0.281072 -1.47343 18
      vertex -0.281072 -1.47343 0
      vertex -0.463525 -1.42658 18
    endloop
  endfacet
  facet normal 0.24869 0.968583 0
    outer loop
      vertex -0.463525 -1.42658 18
      vertex -0.281072 -1.47343 0
      vertex -0.463525 -1.42658 0
    endloop
  endfacet
  facet normal 0.368123 0.929777 0
    outer loop
      vertex -0.463525 -1.42658 18
      vertex -0.463525 -1.42658 0
      vertex -0.638669 -1.35724 18
    endloop
  endfacet
  facet normal 0.368123 0.929777 0
    outer loop
      vertex -0.638669 -1.35724 18
      vertex -0.463525 -1.42658 0
      vertex -0.638669 -1.35724 0
    endloop
  endfacet
  facet normal 0.481756 0.876306 0
    outer loop
      vertex -0.638669 -1.35724 18
      vertex -0.638669 -1.35724 0
      vertex -0.80374 -1.26649 18
    endloop
  endfacet
  facet normal 0.481756 0.876306 0
    outer loop
      vertex -0.80374 -1.26649 18
      vertex -0.638669 -1.35724 0
      vertex -0.80374 -1.26649 0
    endloop
  endfacet
  facet normal 0.587785 0.809017 0
    outer loop
      vertex -0.80374 -1.26649 18
      vertex -0.80374 -1.26649 0
      vertex -0.956136 -1.15577 18
    endloop
  endfacet
  facet normal 0.587785 0.809017 0
    outer loop
      vertex -0.956136 -1.15577 18
      vertex -0.80374 -1.26649 0
      vertex -0.956136 -1.15577 0
    endloop
  endfacet
  facet normal 0.684546 0.728969 0
    outer loop
      vertex -0.956136 -1.15577 18
      vertex -0.956136 -1.15577 0
      vertex -1.09345 -1.02682 18
    endloop
  endfacet
  facet normal 0.684546 0.728969 0
    outer loop
      vertex -1.09345 -1.02682 18
      vertex -0.956136 -1.15577 0
      vertex -1.09345 -1.02682 0
    endloop
  endfacet
  facet normal 0.770515 0.637422 0
    outer loop
      vertex -1.21352 -0.881678 18
      vertex -1.09345 -1.02682 18
      vertex -1.09345 -1.02682 0
    endloop
  endfacet
  facet normal 0.770515 0.637422 0
    outer loop
      vertex -1.21352 -0.881678 0
      vertex -1.21352 -0.881678 18
      vertex -1.09345 -1.02682 0
    endloop
  endfacet
  facet normal 0.844326 0.535829 0
    outer loop
      vertex -1.31446 -0.722631 18
      vertex -1.21352 -0.881678 18
      vertex -1.21352 -0.881678 0
    endloop
  endfacet
  facet normal 0.844326 0.535829 0
    outer loop
      vertex -1.31446 -0.722631 0
      vertex -1.31446 -0.722631 18
      vertex -1.21352 -0.881678 0
    endloop
  endfacet
  facet normal 0.904827 0.42578 0
    outer loop
      vertex -1.39467 -0.552187 18
      vertex -1.31446 -0.722631 18
      vertex -1.31446 -0.722631 0
    endloop
  endfacet
  facet normal 0.904827 0.42578 0
    outer loop
      vertex -1.39467 -0.552187 0
      vertex -1.39467 -0.552187 18
      vertex -1.31446 -0.722631 0
    endloop
  endfacet
  facet normal 0.951057 0.309017 0
    outer loop
      vertex -1.45287 -0.373035 18
      vertex -1.39467 -0.552187 18
      vertex -1.39467 -0.552187 0
    endloop
  endfacet
  facet normal 0.951057 0.309017 0
    outer loop
      vertex -1.45287 -0.373035 0
      vertex -1.45287 -0.373035 18
      vertex -1.39467 -0.552187 0
    endloop
  endfacet
  facet normal 0.982288 0.18738 0
    outer loop
      vertex -1.48817 -0.188 18
      vertex -1.45287 -0.373035 18
      vertex -1.45287 -0.373035 0
    endloop
  endfacet
  facet normal 0.982288 0.18738 0
    outer loop
      vertex -1.48817 -0.188 0
      vertex -1.48817 -0.188 18
      vertex -1.45287 -0.373035 0
    endloop
  endfacet
  facet normal -0.998027 0.0627901 0
    outer loop
      vertex -4 0 4
      vertex -4 0 18
      vertex -3.96846 0.501333 4
    endloop
  endfacet
  facet normal -0.998027 0.0627901 0
    outer loop
      vertex -3.96846 0.501333 4
      vertex -4 0 18
      vertex -3.96846 0.501333 18
    endloop
  endfacet
  facet normal -0.982287 0.187381 0
    outer loop
      vertex -3.96846 0.501333 4
      vertex -3.96846 0.501333 18
      vertex -3.87433 0.99476 4
    endloop
  endfacet
  facet normal -0.982287 0.187381 0
    outer loop
      vertex -3.87433 0.99476 4
      vertex -3.96846 0.501333 18
      vertex -3.87433 0.99476 18
    endloop
  endfacet
  facet normal -0.998027 -0.0627901 0
    outer loop
      vertex -4 0 4
      vertex -3.96846 -0.501333 4
      vertex -4 0 18
    endloop
  endfacet
  facet normal -0.998027 -0.0627901 0
    outer loop
      vertex -4 0 18
      vertex -3.96846 -0.501333 4
      vertex -3.96846 -0.501333 18
    endloop
  endfacet
  facet normal -0.982287 -0.187381 0
    outer loop
      vertex -3.96846 -0.501333 4
      vertex -3.87433 -0.99476 4
      vertex -3.96846 -0.501333 18
    endloop
  endfacet
  facet normal -0.982287 -0.187381 0
    outer loop
      vertex -3.96846 -0.501333 18
      vertex -3.87433 -0.99476 4
      vertex -3.87433 -0.99476 18
    endloop
  endfacet
  facet normal -0.951056 -0.309018 0
    outer loop
      vertex -3.87433 -0.99476 4
      vertex -3.71911 -1.4725 4
      vertex -3.87433 -0.99476 18
    endloop
  endfacet
  facet normal -0.951056 -0.309018 0
    outer loop
      vertex -3.87433 -0.99476 18
      vertex -3.71911 -1.4725 4
      vertex -3.71911 -1.4725 18
    endloop
  endfacet
  facet normal -0.904827 -0.425779 0
    outer loop
      vertex -3.71911 -1.4725 4
      vertex -3.50523 -1.92701 4
      vertex -3.71911 -1.4725 18
    endloop
  endfacet
  facet normal -0.904827 -0.425779 0
    outer loop
      vertex -3.71911 -1.4725 18
      vertex -3.50523 -1.92701 4
      vertex -3.50523 -1.92701 18
    endloop
  endfacet
  facet normal -0.844328 -0.535827 0
    outer loop
      vertex -3.50523 -1.92701 4
      vertex -3.23607 -2.35114 4
      vertex -3.50523 -1.92701 18
    endloop
  endfacet
  facet normal -0.844328 -0.535827 0
    outer loop
      vertex -3.50523 -1.92701 18
      vertex -3.23607 -2.35114 4
      vertex -3.23607 -2.35114 18
    endloop
  endfacet
  facet normal -0.770513 -0.637424 0
    outer loop
      vertex -3.23607 -2.35114 4
      vertex -2.91587 -2.73819 4
      vertex -3.23607 -2.35114 18
    endloop
  endfacet
  facet normal -0.770513 -0.637424 0
    outer loop
      vertex -3.23607 -2.35114 18
      vertex -2.91587 -2.73819 4
      vertex -2.91587 -2.73819 18
    endloop
  endfacet
  facet normal -0.684547 -0.728969 0
    outer loop
      vertex -2.91587 -2.73819 18
      vertex -2.91587 -2.73819 4
      vertex -2.5497 -3.08205 4
    endloop
  endfacet
  facet normal -0.684547 -0.728969 0
    outer loop
      vertex -2.5497 -3.08205 18
      vertex -2.91587 -2.73819 18
      vertex -2.5497 -3.08205 4
    endloop
  endfacet
  facet normal -0.587785 -0.809017 0
    outer loop
      vertex -2.5497 -3.08205 18
      vertex -2.5497 -3.08205 4
      vertex -2.14331 -3.37731 4
    endloop
  endfacet
  facet normal -0.587785 -0.809017 0
    outer loop
      vertex -2.14331 -3.37731 18
      vertex -2.5497 -3.08205 18
      vertex -2.14331 -3.37731 4
    endloop
  endfacet
  facet normal -0.481753 -0.876307 0
    outer loop
      vertex -2.14331 -3.37731 18
      vertex -2.14331 -3.37731 4
      vertex -1.70312 -3.61931 4
    endloop
  endfacet
  facet normal -0.481753 -0.876307 0
    outer loop
      vertex -1.70312 -3.61931 18
      vertex -2.14331 -3.37731 18
      vertex -1.70312 -3.61931 4
    endloop
  endfacet
  facet normal -0.368125 -0.929776 0
    outer loop
      vertex -1.70312 -3.61931 18
      vertex -1.70312 -3.61931 4
      vertex -1.23607 -3.80423 4
    endloop
  endfacet
  facet normal -0.368125 -0.929776 0
    outer loop
      vertex -1.23607 -3.80423 18
      vertex -1.70312 -3.61931 18
      vertex -1.23607 -3.80423 4
    endloop
  endfacet
  facet normal -0.24869 -0.968583 0
    outer loop
      vertex -1.23607 -3.80423 18
      vertex -1.23607 -3.80423 4
      vertex -0.749525 -3.92915 4
    endloop
  endfacet
  facet normal -0.24869 -0.968583 0
    outer loop
      vertex -0.749525 -3.92915 18
      vertex -1.23607 -3.80423 18
      vertex -0.749525 -3.92915 4
    endloop
  endfacet
  facet normal -0.125333 -0.992115 0
    outer loop
      vertex -0.749525 -3.92915 18
      vertex -0.749525 -3.92915 4
      vertex -0.251162 -3.99211 4
    endloop
  endfacet
  facet normal -0.125333 -0.992115 0
    outer loop
      vertex -0.251162 -3.99211 18
      vertex -0.749525 -3.92915 18
      vertex -0.251162 -3.99211 4
    endloop
  endfacet
  facet normal 0 -1 0
    outer loop
      vertex -0.251162 -3.99211 18
      vertex -0.251162 -3.99211 4
      vertex 0.251162 -3.99211 4
    endloop
  endfacet
  facet normal 0 -1 0
    outer loop
      vertex 0.251162 -3.99211 18
      vertex -0.251162 -3.99211 18
      vertex 0.251162 -3.99211 4
    endloop
  endfacet
  facet normal 0.125333 -0.992115 0
    outer loop
      vertex 0.251162 -3.99211 18
      vertex 0.251162 -3.99211 4
      vertex 0.749525 -3.92915 4
    endloop
  endfacet
  facet normal 0.125333 -0.992115 0
    outer loop
      vertex 0.749525 -3.92915 18
      vertex 0.251162 -3.99211 18
      vertex 0.749525 -3.92915 4
    endloop
  endfacet
  facet normal 0.24869 -0.968583 0
    outer loop
      vertex 0.749525 -3.92915 18
      vertex 0.749525 -3.92915 4
      vertex 1.23607 -3.80423 4
    endloop
  endfacet
  facet normal 0.24869 -0.968583 0
    outer loop
      vertex 1.23607 -3.80423 18
      vertex 0.749525 -3.92915 18
      vertex 1.23607 -3.80423 4
    endloop
  endfacet
  facet normal 0.368125 -0.929776 0
    outer loop
      vertex 1.23607 -3.80423 18
      vertex 1.23607 -3.80423 4
      vertex 1.70312 -3.61931 4
    endloop
  endfacet
  facet normal 0.368125 -0.929776 0
    outer loop
      vertex 1.70312 -3.61931 18
      vertex 1.23607 -3.80423 18
      vertex 1.70312 -3.61931 4
    endloop
  endfacet
  facet normal 0.481753 -0.876307 0
    outer loop
      vertex 1.70312 -3.61931 18
      vertex 1.70312 -3.61931 4
      vertex 2.14331 -3.37731 4
    endloop
  endfacet
  facet normal 0.481753 -0.876307 0
    outer loop
      vertex 2.14331 -3.37731 18
      vertex 1.70312 -3.61931 18
      vertex 2.14331 -3.37731 4
    endloop
  endfacet
  facet normal 0.587785 -0.809017 0
    outer loop
      vertex 2.14331 -3.37731 18
      vertex 2.14331 -3.37731 4
      vertex 2.5497 -3.08205 4
    endloop
  endfacet
  facet normal 0.587785 -0.809017 0
    outer loop
      vertex 2.5497 -3.08205 18
      vertex 2.14331 -3.37731 18
      vertex 2.5497 -3.08205 4
    endloop
  endfacet
  facet normal 0.684547 -0.728969 0
    outer loop
      vertex 2.5497 -3.08205 18
      vertex 2.5497 -3.08205 4
      vertex 2.91587 -2.73819 4
    endloop
  endfacet
  facet normal 0.684547 -0.728969 0
    outer loop
      vertex 2.91587 -2.73819 18
      vertex 2.5497 -3.08205 18
      vertex 2.91587 -2.73819 4
    endloop
  endfacet
  facet normal 0.770513 -0.637424 0
    outer loop
      vertex 2.91587 -2.73819 18
      vertex 2.91587 -2.73819 4
      vertex 3.23607 -2.35114 4
    endloop
  endfacet
  facet normal 0.770513 -0.637424 0
    outer loop
      vertex 3.23607 -2.35114 18
      vertex 2.91587 -2.73819 18
      vertex 3.23607 -2.35114 4
    endloop
  endfacet
  facet normal 0.844328 -0.535827 0
    outer loop
      vertex 3.23607 -2.35114 18
      vertex 3.23607 -2.35114 4
      vertex 3.50523 -1.92701 4
    endloop
  endfacet
  facet normal 0.844328 -0.535827 0
    outer loop
      vertex 3.50523 -1.92701 18
      vertex 3.23607 -2.35114 18
      vertex 3.50523 -1.92701 4
    endloop
  endfacet
  facet normal 0.904827 -0.425779 0
    outer loop
      vertex 3.50523 -1.92701 18
      vertex 3.50523 -1.92701 4
      vertex 3.71911 -1.4725 4
    endloop
  endfacet
  facet normal 0.904827 -0.425779 0
    outer loop
      vertex 3.71911 -1.4725 18
      vertex 3.50523 -1.92701 18
      vertex 3.71911 -1.4725 4
    endloop
  endfacet
  facet normal 0.951056 -0.309018 0
    outer loop
      vertex 3.71911 -1.4725 18
      vertex 3.71911 -1.4725 4
      vertex 3.87433 -0.99476 4
    endloop
  endfacet
  facet normal 0.951056 -0.309018 0
    outer loop
      vertex 3.87433 -0.99476 18
      vertex 3.71911 -1.4725 18
      vertex 3.87433 -0.99476 4
    endloop
  endfacet
  facet normal 0.982287 -0.187381 0
    outer loop
      vertex 3.87433 -0.99476 18
      vertex 3.87433 -0.99476 4
      vertex 3.96846 -0.501333 4
    endloop
  endfacet
  facet normal 0.982287 -0.187381 0
    outer loop
      vertex 3.96846 -0.501333 18
      vertex 3.87433 -0.99476 18
      vertex 3.96846 -0.501333 4
    endloop
  endfacet
  facet normal 0.998027 -0.0627901 0
    outer loop
      vertex 3.96846 -0.501333 18
      vertex 3.96846 -0.501333 4
      vertex 4 0 4
    endloop
  endfacet
  facet normal 0.998027 -0.0627901 0
    outer loop
      vertex 4 0 18
      vertex 3.96846 -0.501333 18
      vertex 4 0 4
    endloop
  endfacet
  facet normal 0.998027 0.0627901 0
    outer loop
      vertex 4 0 4
      vertex 3.96846 0.501333 4
      vertex 3.96846 0.501333 18
    endloop
  endfacet
  facet normal 0.998027 0.0627901 0
    outer loop
      vertex 4 0 18
      vertex 4 0 4
      vertex 3.96846 0.501333 18
    endloop
  endfacet
  facet normal 0.982287 0.187381 0
    outer loop
      vertex 3.96846 0.501333 4
      vertex 3.87433 0.99476 4
      vertex 3.87433 0.99476 18
    endloop
  endfacet
  facet normal 0.982287 0.187381 0
    outer loop
      vertex 3.96846 0.501333 18
      vertex 3.96846 0.501333 4
      vertex 3.87433 0.99476 18
    endloop
  endfacet
  facet normal 0.951056 0.309018 0
    outer loop
      vertex 3.87433 0.99476 4
      vertex 3.71911 1.4725 4
      vertex 3.71911 1.4725 18
    endloop
  endfacet
  facet normal 0.951056 0.309018 0
    outer loop
      vertex 3.87433 0.99476 18
      vertex 3.87433 0.99476 4
      vertex 3.71911 1.4725 18
    endloop
  endfacet
  facet normal 0.904827 0.425779 0
    outer loop
      vertex 3.71911 1.4725 4
      vertex 3.50523 1.92701 4
      vertex 3.50523 1.92701 18
    endloop
  endfacet
  facet normal 0.904827 0.425779 0
    outer loop
      vertex 3.71911 1.4725 18
      vertex 3.71911 1.4725 4
      vertex 3.50523 1.92701 18
    endloop
  endfacet
  facet normal 0.844328 0.535827 0
    outer loop
      vertex 3.50523 1.92701 4
      vertex 3.23607 2.35114 4
      vertex 3.23607 2.35114 18
    endloop
  endfacet
  facet normal 0.844328 0.535827 0
    outer loop
      vertex 3.50523 1.92701 18
      vertex 3.50523 1.92701 4
      vertex 3.23607 2.35114 18
    endloop
  endfacet
  facet normal 0.770513 0.637424 0
    outer loop
      vertex 3.23607 2.35114 4
      vertex 2.91587 2.73819 4
      vertex 2.91587 2.73819 18
    endloop
  endfacet
  facet normal 0.770513 0.637424 0
    outer loop
      vertex 3.23607 2.35114 18
      vertex 3.23607 2.35114 4
      vertex 2.91587 2.73819 18
    endloop
  endfacet
  facet normal 0.684547 0.728969 0
    outer loop
      vertex 2.5497 3.08205 4
      vertex 2.5497 3.08205 18
      vertex 2.91587 2.73819 4
    endloop
  endfacet
  facet normal 0.684547 0.728969 0
    outer loop
      vertex 2.91587 2.73819 4
      vertex 2.5497 3.08205 18
      vertex 2.91587 2.73819 18
    endloop
  endfacet
  facet normal 0.587785 0.809017 0
    outer loop
      vertex 2.14331 3.37731 4
      vertex 2.14331 3.37731 18
      vertex 2.5497 3.08205 4
    endloop
  endfacet
  facet normal 0.587785 0.809017 0
    outer loop
      vertex 2.5497 3.08205 4
      vertex 2.14331 3.37731 18
      vertex 2.5497 3.08205 18
    endloop
  endfacet
  facet normal 0.481753 0.876307 0
    outer loop
      vertex 1.70312 3.61931 4
      vertex 1.70312 3.61931 18
      vertex 2.14331 3.37731 4
    endloop
  endfacet
  facet normal 0.481753 0.876307 0
    outer loop
      vertex 2.14331 3.37731 4
      vertex 1.70312 3.61931 18
      vertex 2.14331 3.37731 18
    endloop
  endfacet
  facet normal 0.368125 0.929776 0
    outer loop
      vertex 1.23607 3.80423 4
      vertex 1.23607 3.80423 18
      vertex 1.70312 3.61931 4
    endloop
  endfacet
  facet normal 0.368125 0.929776 0
    outer loop
      vertex 1.70312 3.61931 4
      vertex 1.23607 3.80423 18
      vertex 1.70312 3.61931 18
    endloop
  endfacet
  facet normal 0.24869 0.968583 0
    outer loop
      vertex 0.749525 3.92915 4
      vertex 0.749525 3.92915 18
      vertex 1.23607 3.80423 4
    endloop
  endfacet
  facet normal 0.24869 0.968583 0
    outer loop
      vertex 1.23607 3.80423 4
      vertex 0.749525 3.92915 18
      vertex 1.23607 3.80423 18
    endloop
  endfacet
  facet normal 0.125333 0.992115 0
    outer loop
      vertex 0.251162 3.99211 4
      vertex 0.251162 3.99211 18
      vertex 0.749525 3.92915 4
    endloop
  endfacet
  facet normal 0.125333 0.992115 0
    outer loop
      vertex 0.749525 3.92915 4
      vertex 0.251162 3.99211 18
      vertex 0.749525 3.92915 18
    endloop
  endfacet
  facet normal 0 1 0
    outer loop
      vertex -0.251162 3.99211 4
      vertex -0.251162 3.99211 18
      vertex 0.251162 3.99211 4
    endloop
  endfacet
  facet normal 0 1 0
    outer loop
      vertex 0.251162 3.99211 4
      vertex -0.251162 3.99211 18
      vertex 0.251162 3.99211 18
    endloop
  endfacet
  facet normal -0.125333 0.992115 0
    outer loop
      vertex -0.749525 3.92915 4
      vertex -0.749525 3.92915 18
      vertex -0.251162 3.99211 4
    endloop
  endfacet
  facet normal -0.125333 0.992115 0
    outer loop
      vertex -0.251162 3.99211 4
      vertex -0.749525 3.92915 18
      vertex -0.251162 3.99211 18
    endloop
  endfacet
  facet normal -0.24869 0.968583 0
    outer loop
      vertex -1.23607 3.80423 4
      vertex -1.23607 3.80423 18
      vertex -0.749525 3.92915 4
    endloop
  endfacet
  facet normal -0.24869 0.968583 0
    outer loop
      vertex -0.749525 3.92915 4
      vertex -1.23607 3.80423 18
      vertex -0.749525 3.92915 18
    endloop
  endfacet
  facet normal -0.368125 0.929776 0
    outer loop
      vertex -1.70312 3.61931 4
      vertex -1.70312 3.61931 18
      vertex -1.23607 3.80423 4
    endloop
  endfacet
  facet normal -0.368125 0.929776 0
    outer loop
      vertex -1.23607 3.80423 4
      vertex -1.70312 3.61931 18
      vertex -1.23607 3.80423 18
    endloop
  endfacet
  facet normal -0.481753 0.876307 0
    outer loop
      vertex -2.14331 3.37731 4
      vertex -2.14331 3.37731 18
      vertex -1.70312 3.61931 4
    endloop
  endfacet
  facet normal -0.481753 0.876307 0
    outer loop
      vertex -1.70312 3.61931 4
      vertex -2.14331 3.37731 18
      vertex -1.70312 3.61931 18
    endloop
  endfacet
  facet normal -0.587785 0.809017 0
    outer loop
      vertex -2.5497 3.08205 4
      vertex -2.5497 3.08205 18
      vertex -2.14331 3.37731 4
    endloop
  endfacet
  facet normal -0.587785 0.809017 0
    outer loop
      vertex -2.14331 3.37731 4
      vertex -2.5497 3.08205 18
      vertex -2.14331 3.37731 18
    endloop
  endfacet
  facet normal -0.684547 0.728969 0
    outer loop
      vertex -2.91587 2.73819 4
      vertex -2.91587 2.73819 18
      vertex -2.5497 3.08205 4
    endloop
  endfacet
  facet normal -0.684547 0.728969 0
    outer loop
      vertex -2.5497 3.08205 4
      vertex -2.91587 2.73819 18
      vertex -2.5497 3.08205 18
    endloop
  endfacet
  facet normal -0.770513 0.637424 0
    outer loop
      vertex -3.23607 2.35114 4
      vertex -3.23607 2.35114 18
      vertex -2.91587 2.73819 4
    endloop
  endfacet
  facet normal -0.770513 0.637424 0
    outer loop
      vertex -2.91587 2.73819 4
      vertex -3.23607 2.35114 18
      vertex -2.91587 2.73819 18
    endloop
  endfacet
  facet normal -0.844328 0.535827 0
    outer loop
      vertex -3.50523 1.92701 4
      vertex -3.50523 1.92701 18
      vertex -3.23607 2.35114 4
    endloop
  endfacet
  facet normal -0.844328 0.535827 0
    outer loop
      vertex -3.23607 2.35114 4
      vertex -3.50523 1.92701 18
      vertex -3.23607 2.35114 18
    endloop
  endfacet
  facet normal -0.904827 0.425779 0
    outer loop
      vertex -3.71911 1.4725 4
      vertex -3.71911 1.4725 18
      vertex -3.50523 1.92701 4
    endloop
  endfacet
  facet normal -0.904827 0.425779 0
    outer loop
      vertex -3.50523 1.92701 4
      vertex -3.71911 1.4725 18
      vertex -3.50523 1.92701 18
    endloop
  endfacet
  facet normal -0.951056 0.309018 0
    outer loop
      vertex -3.87433 0.99476 4
      vertex -3.87433 0.99476 18
      vertex -3.71911 1.4725 4
    endloop
  endfacet
  facet normal -0.951056 0.309018 0
    outer loop
      vertex -3.71911 1.4725 4
      vertex -3.87433 0.99476 18
      vertex -3.71911 1.4725 18
    endloop
  endfacet
  facet normal 0 0 1
    outer loop
      vertex -3.96846 0.501333 18
      vertex -4 0 18
      vertex -3.96846 -0.501333 18
    endloop
  endfacet
  facet normal 0 0 1
    outer loop
      vertex -3.71911 -1.4725 18
      vertex -3.96846 0.501333 18
      vertex -3.87433 -0.99476 18
    endloop
  endfacet
  facet normal 0 0 1
    outer loop
      vertex -3.87433 -0.99476 18
      vertex -3.96846 0.501333 18
      vertex -3.96846 -0.501333 18
    endloop
  endfacet
  facet normal 0 0 1
    outer loop
      vertex -3.50523 -1.92701 18
      vertex -3.96846 0.501333 18
      vertex -3.71911 -1.4725 18
    endloop
  endfacet
  facet normal 0 0 1
    outer loop
      vertex -3.23607 -2.35114 18
      vertex -3.96846 0.501333 18
      vertex -3.50523 -1.92701 18
    endloop
  endfacet
  facet normal 0 0 1
    outer loop
      vertex -2.91587 -2.73819 18
      vertex -3.96846 0.501333 18
      vertex -3.23607 -2.35114 18
    endloop
  endfacet
  facet normal 0 0 1
    outer loop
      vertex -2.5497 -3.08205 18
      vertex -3.96846 0.501333 18
      vertex -2.91587 -2.73819 18
    endloop
  endfacet
  facet normal 0 0 1
    outer loop
      vertex -2.14331 -3.37731 18
      vertex -3.96846 0.501333 18
      vertex -2.5497 -3.08205 18
    endloop
  endfacet
  facet normal 0 0 1
    outer loop
      vertex -1.70312 -3.61931 18
      vertex -3.96846 0.501333 18
      vertex -2.14331 -3.37731 18
    endloop
  endfacet
  facet normal 0 0 1
    outer loop
      vertex -1.23607 -3.80423 18
      vertex -3.96846 0.501333 18
      vertex -1.70312 -3.61931 18
    endloop
  endfacet
  facet normal 0 0 1
    outer loop
      vertex -0.749525 -3.92915 18
      vertex -3.96846 0.501333 18
      vertex -1.23607 -3.80423 18
    endloop
  endfacet
  facet normal 0 0 1
    outer loop
      vertex -0.251162 -3.99211 18
      vertex -3.96846 0.501333 18
      vertex -0.749525 -3.92915 18
    endloop
  endfacet
  facet normal 0 0 1
    outer loop
      vertex 0.251162 -3.99211 18
      vertex -3.96846 0.501333 18
      vertex -0.251162 -3.99211 18
    endloop
  endfacet
  facet normal 0 0 1
    outer loop
      vertex 0.749525 -3.92915 18
      vertex -3.96846 0.501333 18
      vertex 0.251162 -3.99211 18
    endloop
  endfacet
  facet normal 0 0 1
    outer loop
      vertex 1.23607 -3.80423 18
      vertex -3.96846 0.501333 18
      vertex 0.749525 -3.92915 18
    endloop
  endfacet
  facet normal 0 0 1
    outer loop
      vertex 1.70312 -3.61931 18
      vertex -3.96846 0.501333 18
      vertex 1.23607 -3.80423 18
    endloop
  endfacet
  facet normal 0 0 1
    outer loop
      vertex 2.14331 -3.37731 18
      vertex -3.96846 0.501333 18
      vertex 1.70312 -3.61931 18
    endloop
  endfacet
  facet normal 0 0 1
    outer loop
      vertex -0.80374 -1.26649 18
      vertex -3.96846 0.501333 18
      vertex 2.14331 -3.37731 18
    endloop
  endfacet
  facet normal 0 0 1
    outer loop
      vertex -0.80374 -1.26649 18
      vertex -0.956136 -1.15577 18
      vertex -3.96846 0.501333 18
    endloop
  endfacet
  facet normal 0 0 1
    outer loop
      vertex -0.281072 -1.47343 18
      vertex -0.463525 -1.42658 18
      vertex 2.5497 -3.08205 18
    endloop
  endfacet
  facet normal 0 0 1
    outer loop
      vertex 0.281072 -1.47343 18
      vertex 0.094186 -1.49704 18
      vertex 2.91587 -2.73819 18
    endloop
  endfacet
  facet normal 0 0 1
    outer loop
      vertex 1.09345 -1.02682 18
      vertex 0.956136 -1.15577 18
      vertex 3.50523 -1.92701 18
    endloop
  endfacet
  facet normal 0 0 1
    outer loop
      vertex 1.5 0 18
      vertex 1.48817 -0.188 18
      vertex 3.96846 -0.501333 18
    endloop
  endfacet
  facet normal 0 0 1
    outer loop
      vertex 0.638669 1.35724 18
      vertex 0.80374 1.26649 18
      vertex 3.50523 1.92701 18
    endloop
  endfacet
  facet normal 0 0 1
    outer loop
      vertex 0.094186 1.49704 18
      vertex 0.281072 1.47343 18
      vertex 3.23607 2.35114 18
    endloop
  endfacet
  facet normal 0 0 1
    outer loop
      vertex 2.5497 3.08205 18
      vertex -3.96846 0.501333 18
      vertex 2.91587 2.73819 18
    endloop
  endfacet
  facet normal 0 0 1
    outer loop
      vertex 2.14331 3.37731 18
      vertex -3.96846 0.501333 18
      vertex 2.5497 3.08205 18
    endloop
  endfacet
  facet normal 0 0 1
    outer loop
      vertex 1.70312 3.61931 18
      vertex -3.96846 0.501333 18
      vertex 2.14331 3.37731 18
    endloop
  endfacet
  facet normal 0 0 1
    outer loop
      vertex 1.23607 3.80423 18
      vertex -3.96846 0.501333 18
      vertex 1.70312 3.61931 18
    endloop
  endfacet
  facet normal 0 0 1
    outer loop
      vertex 0.749525 3.92915 18
      vertex -3.96846 0.501333 18
      vertex 1.23607 3.80423 18
    endloop
  endfacet
  facet normal 0 0 1
    outer loop
      vertex 0.251162 3.99211 18
      vertex -3.96846 0.501333 18
      vertex 0.749525 3.92915 18
    endloop
  endfacet
  facet normal 0 0 1
    outer loop
      vertex -0.251162 3.99211 18
      vertex -3.96846 0.501333 18
      vertex 0.251162 3.99211 18
    endloop
  endfacet
  facet normal 0 0 1
    outer loop
      vertex -0.749525 3.92915 18
      vertex -3.96846 0.501333 18
      vertex -0.251162 3.99211 18
    endloop
  endfacet
  facet normal 0 0 1
    outer loop
      vertex -1.23607 3.80423 18
      vertex -3.96846 0.501333 18
      vertex -0.749525 3.92915 18
    endloop
  endfacet
  facet normal 0 0 1
    outer loop
      vertex -1.70312 3.61931 18
      vertex -3.96846 0.501333 18
      vertex -1.23607 3.80423 18
    endloop
  endfacet
  facet normal 0 0 1
    outer loop
      vertex -2.14331 3.37731 18
      vertex -3.96846 0.501333 18
      vertex -1.70312 3.61931 18
    endloop
  endfacet
  facet normal 0 0 1
    outer loop
      vertex -2.5497 3.08205 18
      vertex -3.96846 0.501333 18
      vertex -2.14331 3.37731 18
    endloop
  endfacet
  facet normal 0 0 1
    outer loop
      vertex -2.91587 2.73819 18
      vertex -3.96846 0.501333 18
      vertex -2.5497 3.08205 18
    endloop
  endfacet
  facet normal 0 0 1
    outer loop
      vertex -3.23607 2.35114 18
      vertex -3.96846 0.501333 18
      vertex -2.91587 2.73819 18
    endloop
  endfacet
  facet normal 0 0 1
    outer loop
      vertex -3.50523 1.92701 18
      vertex -3.96846 0.501333 18
      vertex -3.23607 2.35114 18
    endloop
  endfacet
  facet normal 0 0 1
    outer loop
      vertex -3.71911 1.4725 18
      vertex -3.96846 0.501333 18
      vertex -3.50523 1.92701 18
    endloop
  endfacet
  facet normal 0 0 1
    outer loop
      vertex -3.87433 0.99476 18
      vertex -3.96846 0.501333 18
      vertex -3.71911 1.4725 18
    endloop
  endfacet
  facet normal 0 0 1
    outer loop
      vertex 0.80374 -1.26649 18
      vertex 0.638669 -1.35724 18
      vertex 3.23607 -2.35114 18
    endloop
  endfacet
  facet normal 0 0 1
    outer loop
      vertex -0.956136 -1.15577 18
      vertex -1.09345 -1.02682 18
      vertex -3.96846 0.501333 18
    endloop
  endfacet
  facet normal 0 0 1
    outer loop
      vertex -1.45287 0.373035 18
      vertex -1.39467 0.552187 18
      vertex -3.96846 0.501333 18
    endloop
  endfacet
  facet normal 0 0 1
    outer loop
      vertex 1.45287 -0.373035 18
      vertex 1.39467 -0.552187 18
      vertex 3.87433 -0.99476 18
    endloop
  endfacet
  facet normal 0 0 1
    outer loop
      vertex -1.39467 0.552187 18
      vertex -1.31446 0.722631 18
      vertex -3.96846 0.501333 18
    endloop
  endfacet
  facet normal 0 0 1
    outer loop
      vertex 1.48817 0.188 18
      vertex 1.5 0 18
      vertex 4 0 18
    endloop
  endfacet
  facet normal 0 0 1
    outer loop
      vertex -1.31446 0.722631 18
      vertex -1.21352 0.881678 18
      vertex -3.96846 0.501333 18
    endloop
  endfacet
  facet normal 0 0 1
    outer loop
      vertex 1.39467 0.552187 18
      vertex 1.45287 0.373035 18
      vertex 3.96846 0.501333 18
    endloop
  endfacet
  facet normal 0 0 1
    outer loop
      vertex -1.09345 1.02682 18
      vertex -0.956136 1.15577 18
      vertex -3.96846 0.501333 18
    endloop
  endfacet
  facet normal 0 0 1
    outer loop
      vertex 1.21352 0.881678 18
      vertex 1.31446 0.722631 18
      vertex 3.87433 0.99476 18
    endloop
  endfacet
  facet normal 0 0 1
    outer loop
      vertex -1.09345 1.02682 18
      vertex -3.96846 0.501333 18
      vertex -1.21352 0.881678 18
    endloop
  endfacet
  facet normal 0 0 1
    outer loop
      vertex -0.80374 1.26649 18
      vertex -0.638669 1.35724 18
      vertex -3.96846 0.501333 18
    endloop
  endfacet
  facet normal 0 0 1
    outer loop
      vertex 0.956136 1.15577 18
      vertex 1.09345 1.02682 18
      vertex 3.71911 1.4725 18
    endloop
  endfacet
  facet normal 0 0 1
    outer loop
      vertex -0.80374 1.26649 18
      vertex -3.96846 0.501333 18
      vertex -0.956136 1.15577 18
    endloop
  endfacet
  facet normal 0 0 1
    outer loop
      vertex -0.463525 1.42658 18
      vertex -0.281072 1.47343 18
      vertex 2.91587 2.73819 18
    endloop
  endfacet
  facet normal 0 0 1
    outer loop
      vertex 0.463525 1.42658 18
      vertex 0.638669 1.35724 18
      vertex 3.50523 1.92701 18
    endloop
  endfacet
  facet normal 0 0 1
    outer loop
      vertex -0.463525 1.42658 18
      vertex -3.96846 0.501333 18
      vertex -0.638669 1.35724 18
    endloop
  endfacet
  facet normal 0 0 1
    outer loop
      vertex 2.91587 2.73819 18
      vertex -3.96846 0.501333 18
      vertex -0.463525 1.42658 18
    endloop
  endfacet
  facet normal 0 0 1
    outer loop
      vertex 2.91587 2.73819 18
      vertex -0.281072 1.47343 18
      vertex 3.23607 2.35114 18
    endloop
  endfacet
  facet normal 0 0 1
    outer loop
      vertex -0.281072 1.47343 18
      vertex -0.094186 1.49704 18
      vertex 3.23607 2.35114 18
    endloop
  endfacet
  facet normal 0 0 1
    outer loop
      vertex 3.23607 2.35114 18
      vertex 0.281072 1.47343 18
      vertex 3.50523 1.92701 18
    endloop
  endfacet
  facet normal 0 0 1
    outer loop
      vertex 0.281072 1.47343 18
      vertex 0.463525 1.42658 18
      vertex 3.50523 1.92701 18
    endloop
  endfacet
  facet normal 0 0 1
    outer loop
      vertex 3.50523 1.92701 18
      vertex 0.80374 1.26649 18
      vertex 3.71911 1.4725 18
    endloop
  endfacet
  facet normal 0 0 1
    outer loop
      vertex 0.80374 1.26649 18
      vertex 0.956136 1.15577 18
      vertex 3.71911 1.4725 18
    endloop
  endfacet
  facet normal 0 0 1
    outer loop
      vertex 3.71911 1.4725 18
      vertex 1.09345 1.02682 18
      vertex 3.87433 0.99476 18
    endloop
  endfacet
  facet normal 0 0 1
    outer loop
      vertex 1.09345 1.02682 18
      vertex 1.21352 0.881678 18
      vertex 3.87433 0.99476 18
    endloop
  endfacet
  facet normal 0 0 1
    outer loop
      vertex 3.87433 0.99476 18
      vertex 1.31446 0.722631 18
      vertex 3.96846 0.501333 18
    endloop
  endfacet
  facet normal 0 0 1
    outer loop
      vertex 1.31446 0.722631 18
      vertex 1.39467 0.552187 18
      vertex 3.96846 0.501333 18
    endloop
  endfacet
  facet normal 0 0 1
    outer loop
      vertex 3.96846 0.501333 18
      vertex 1.45287 0.373035 18
      vertex 4 0 18
    endloop
  endfacet
  facet normal 0 0 1
    outer loop
      vertex 1.45287 0.373035 18
      vertex 1.48817 0.188 18
      vertex 4 0 18
    endloop
  endfacet
  facet normal 0 0 1
    outer loop
      vertex 4 0 18
      vertex 1.5 0 18
      vertex 3.96846 -0.501333 18
    endloop
  endfacet
  facet normal 0 0 1
    outer loop
      vertex 3.96846 -0.501333 18
      vertex 1.48817 -0.188 18
      vertex 3.87433 -0.99476 18
    endloop
  endfacet
  facet normal 0 0 1
    outer loop
      vertex -1.48817 0.188 18
      vertex -1.45287 0.373035 18
      vertex -3.96846 0.501333 18
    endloop
  endfacet
  facet normal 0 0 1
    outer loop
      vertex 1.48817 -0.188 18
      vertex 1.45287 -0.373035 18
      vertex 3.87433 -0.99476 18
    endloop
  endfacet
  facet normal 0 0 1
    outer loop
      vertex -0.094186 1.49704 18
      vertex 0.094186 1.49704 18
      vertex 3.23607 2.35114 18
    endloop
  endfacet
  facet normal 0 0 1
    outer loop
      vertex 3.87433 -0.99476 18
      vertex 1.39467 -0.552187 18
      vertex 3.71911 -1.4725 18
    endloop
  endfacet
  facet normal 0 0 1
    outer loop
      vertex 1.39467 -0.552187 18
      vertex 1.31446 -0.722631 18
      vertex 3.71911 -1.4725 18
    endloop
  endfacet
  facet normal 0 0 1
    outer loop
      vertex 3.71911 -1.4725 18
      vertex 1.21352 -0.881678 18
      vertex 3.50523 -1.92701 18
    endloop
  endfacet
  facet normal 0 0 1
    outer loop
      vertex 1.21352 -0.881678 18
      vertex 1.09345 -1.02682 18
      vertex 3.50523 -1.92701 18
    endloop
  endfacet
  facet normal 0 0 1
    outer loop
      vertex 3.50523 -1.92701 18
      vertex 0.956136 -1.15577 18
      vertex 3.23607 -2.35114 18
    endloop
  endfacet
  facet normal 0 0 1
    outer loop
      vertex -1.48817 -0.188 18
      vertex -1.5 0 18
      vertex -3.96846 0.501333 18
    endloop
  endfacet
  facet normal 0 0 1
    outer loop
      vertex 0.956136 -1.15577 18
      vertex 0.80374 -1.26649 18
      vertex 3.23607 -2.35114 18
    endloop
  endfacet
  facet normal 0 0 1
    outer loop
      vertex 3.23607 -2.35114 18
      vertex 0.638669 -1.35724 18
      vertex 2.91587 -2.73819 18
    endloop
  endfacet
  facet normal 0 0 1
    outer loop
      vertex -1.31446 -0.722631 18
      vertex -1.39467 -0.552187 18
      vertex -3.96846 0.501333 18
    endloop
  endfacet
  facet normal 0 0 1
    outer loop
      vertex 0.638669 -1.35724 18
      vertex 0.463525 -1.42658 18
      vertex 2.91587 -2.73819 18
    endloop
  endfacet
  facet normal 0 0 1
    outer loop
      vertex 0.463525 -1.42658 18
      vertex 0.281072 -1.47343 18
      vertex 2.91587 -2.73819 18
    endloop
  endfacet
  facet normal 0 0 1
    outer loop
      vertex 2.91587 -2.73819 18
      vertex 0.094186 -1.49704 18
      vertex 2.5497 -3.08205 18
    endloop
  endfacet
  facet normal 0 0 1
    outer loop
      vertex -1.09345 -1.02682 18
      vertex -1.21352 -0.881678 18
      vertex -3.96846 0.501333 18
    endloop
  endfacet
  facet normal 0 0 1
    outer loop
      vertex 0.094186 -1.49704 18
      vertex -0.094186 -1.49704 18
      vertex 2.5497 -3.08205 18
    endloop
  endfacet
  facet normal 0 0 1
    outer loop
      vertex -0.094186 -1.49704 18
      vertex -0.281072 -1.47343 18
      vertex 2.5497 -3.08205 18
    endloop
  endfacet
  facet normal 0 0 1
    outer loop
      vertex 2.5497 -3.08205 18
      vertex -0.463525 -1.42658 18
      vertex 2.14331 -3.37731 18
    endloop
  endfacet
  facet normal 0 0 1
    outer loop
      vertex -0.463525 -1.42658 18
      vertex -0.638669 -1.35724 18
      vertex 2.14331 -3.37731 18
    endloop
  endfacet
  facet normal 0 0 1
    outer loop
      vertex -0.638669 -1.35724 18
      vertex -0.80374 -1.26649 18
      vertex 2.14331 -3.37731 18
    endloop
  endfacet
  facet normal 0 0 1
    outer loop
      vertex -1.21352 -0.881678 18
      vertex -1.31446 -0.722631 18
      vertex -3.96846 0.501333 18
    endloop
  endfacet
  facet normal 0 0 1
    outer loop
      vertex -1.39467 -0.552187 18
      vertex -1.45287 -0.373035 18
      vertex -3.96846 0.501333 18
    endloop
  endfacet
  facet normal 0 0 1
    outer loop
      vertex 1.31446 -0.722631 18
      vertex 1.21352 -0.881678 18
      vertex 3.71911 -1.4725 18
    endloop
  endfacet
  facet normal 0 0 1
    outer loop
      vertex -1.45287 -0.373035 18
      vertex -1.48817 -0.188 18
      vertex -3.96846 0.501333 18
    endloop
  endfacet
  facet normal 0 0 1
    outer loop
      vertex -1.5 0 18
      vertex -1.48817 0.188 18
      vertex -3.96846 0.501333 18
    endloop
  endfacet
endsolid OpenSCAD_Model
