solid OpenSCAD_Model
  facet normal 1 0 0
    outer loop
      vertex 8 7 20.8
      vertex 8 0.000999451 9.99845
      vertex 8 7 0
    endloop
  endfacet
  facet normal 1 -0 0
    outer loop
      vertex 8 0 20.8
      vertex 8 0.000999451 9.99845
      vertex 8 7 20.8
    endloop
  endfacet
  facet normal 1 0 0
    outer loop
      vertex 8 0.000999451 9.99845
      vertex 8 0 20.8
      vertex 8 0 9.99845
    endloop
  endfacet
  facet normal 1 -0 0
    outer loop
      vertex 8 0.000999451 0.00155354
      vertex 8 7 0
      vertex 8 0.000999451 9.99845
    endloop
  endfacet
  facet normal 1 0 0
    outer loop
      vertex 8 0 0
      vertex 8 0.000999451 0.00155354
      vertex 8 0 0.00155354
    endloop
  endfacet
  facet normal 1 0 0
    outer loop
      vertex 8 0.000999451 0.00155354
      vertex 8 0 0
      vertex 8 7 0
    endloop
  endfacet
  facet normal 0 0 1
    outer loop
      vertex 5 3 20.8
      vertex 8 7 20.8
      vertex 6 7 20.8
    endloop
  endfacet
  facet normal 0 0 1
    outer loop
      vertex 8 7 20.8
      vertex 5 3 20.8
      vertex 8 0 20.8
    endloop
  endfacet
  facet normal -0 0 1
    outer loop
      vertex -5 3 20.8
      vertex 8 0 20.8
      vertex 5 3 20.8
    endloop
  endfacet
  facet normal -0 0 1
    outer loop
      vertex -8 7 20.8
      vertex -5 3 20.8
      vertex -6 7 20.8
    endloop
  endfacet
  facet normal 0 0 1
    outer loop
      vertex -5 3 20.8
      vertex -8 0 20.8
      vertex 8 0 20.8
    endloop
  endfacet
  facet normal 0 0 1
    outer loop
      vertex -8 0 20.8
      vertex -5 3 20.8
      vertex -8 7 20.8
    endloop
  endfacet
  facet normal 0 0 -1
    outer loop
      vertex 5 3 0
      vertex 8 7 0
      vertex 8 0 0
    endloop
  endfacet
  facet normal -0 0 -1
    outer loop
      vertex 8 7 0
      vertex 5 3 0
      vertex 6 7 0
    endloop
  endfacet
  facet normal 0 0 -1
    outer loop
      vertex 8 0 0
      vertex -5 3 0
      vertex 5 3 0
    endloop
  endfacet
  facet normal 0 0 -1
    outer loop
      vertex -8 0 0
      vertex -5 3 0
      vertex 8 0 0
    endloop
  endfacet
  facet normal 0 0 -1
    outer loop
      vertex -8 7 0
      vertex -5 3 0
      vertex -8 0 0
    endloop
  endfacet
  facet normal 0 0 -1
    outer loop
      vertex -5 3 0
      vertex -8 7 0
      vertex -6 7 0
    endloop
  endfacet
  facet normal -1 0 0
    outer loop
      vertex -8 0 0
      vertex -8 7 20.8
      vertex -8 7 0
    endloop
  endfacet
  facet normal -1 -0 0
    outer loop
      vertex -8 7 20.8
      vertex -8 0 0
      vertex -8 0 20.8
    endloop
  endfacet
  facet normal 0 1 -0
    outer loop
      vertex -6 7 0
      vertex -8 7 20.8
      vertex -6 7 20.8
    endloop
  endfacet
  facet normal 0 1 0
    outer loop
      vertex -8 7 20.8
      vertex -6 7 0
      vertex -8 7 0
    endloop
  endfacet
  facet normal 0 1 -0
    outer loop
      vertex 6.36823 7 6.4541
      vertex 6 7 20.8
      vertex 8 7 20.8
    endloop
  endfacet
  facet normal 0 1 0
    outer loop
      vertex 6 7 20.8
      vertex 6.36823 7 6.4541
      vertex 6 7 6.48461
    endloop
  endfacet
  facet normal 0 1 0
    outer loop
      vertex 8 7 20.8
      vertex 6.82042 7 6.25575
      vertex 6.36823 7 6.4541
    endloop
  endfacet
  facet normal 0 1 0
    outer loop
      vertex 8 7 20.8
      vertex 7.18371 7 5.92132
      vertex 6.82042 7 6.25575
    endloop
  endfacet
  facet normal 0 1 0
    outer loop
      vertex 8 7 20.8
      vertex 7.41873 7 5.48705
      vertex 7.18371 7 5.92132
    endloop
  endfacet
  facet normal 0 1 0
    outer loop
      vertex 8 7 20.8
      vertex 7.5 7 5
      vertex 7.41873 7 5.48705
    endloop
  endfacet
  facet normal 0 1 -0
    outer loop
      vertex 8 7 0
      vertex 7.5 7 5
      vertex 8 7 20.8
    endloop
  endfacet
  facet normal 0 1 0
    outer loop
      vertex 8 7 0
      vertex 7.41873 7 4.51295
      vertex 7.5 7 5
    endloop
  endfacet
  facet normal 0 1 0
    outer loop
      vertex 8 7 0
      vertex 7.18371 7 4.07868
      vertex 7.41873 7 4.51295
    endloop
  endfacet
  facet normal 0 1 0
    outer loop
      vertex 8 7 0
      vertex 6.82042 7 3.74425
      vertex 7.18371 7 4.07868
    endloop
  endfacet
  facet normal 0 1 0
    outer loop
      vertex 8 7 0
      vertex 6.36823 7 3.5459
      vertex 6.82042 7 3.74425
    endloop
  endfacet
  facet normal 0 1 0
    outer loop
      vertex 6 7 0
      vertex 6.36823 7 3.5459
      vertex 8 7 0
    endloop
  endfacet
  facet normal 0 1 0
    outer loop
      vertex 6.36823 7 3.5459
      vertex 6 7 0
      vertex 6 7 3.51539
    endloop
  endfacet
  facet normal 0 -1 0
    outer loop
      vertex -8 0 20.8
      vertex 0.123304 0 18.6454
      vertex 8 0 20.8
    endloop
  endfacet
  facet normal 0 -1 0
    outer loop
      vertex -8 0 20.8
      vertex -0.367159 0 18.6086
      vertex 0.123304 0 18.6454
    endloop
  endfacet
  facet normal 0 -1 0
    outer loop
      vertex -8 0 20.8
      vertex -0.825 0 18.4289
      vertex -0.367159 0 18.6086
    endloop
  endfacet
  facet normal 0 -1 0
    outer loop
      vertex -8 0 20.8
      vertex -1.20953 0 18.1223
      vertex -0.825 0 18.4289
    endloop
  endfacet
  facet normal 0 -1 0
    outer loop
      vertex -8 0 20.8
      vertex -1.4866 0 17.7159
      vertex -1.20953 0 18.1223
    endloop
  endfacet
  facet normal 0 -1 0
    outer loop
      vertex -8 0 20.8
      vertex -1.63157 0 17.2459
      vertex -1.4866 0 17.7159
    endloop
  endfacet
  facet normal 0 -1 0
    outer loop
      vertex -8 0 20.8
      vertex -1.63157 0 16.7541
      vertex -1.63157 0 17.2459
    endloop
  endfacet
  facet normal 0 -1 0
    outer loop
      vertex -8 0 20.8
      vertex -1.4866 0 16.2841
      vertex -1.63157 0 16.7541
    endloop
  endfacet
  facet normal 0 -1 0
    outer loop
      vertex -8 0 0
      vertex -1.4866 0 16.2841
      vertex -8 0 20.8
    endloop
  endfacet
  facet normal 0 -1 -0
    outer loop
      vertex -1.4866 0 16.2841
      vertex -8 0 0
      vertex -1.20953 0 15.8777
    endloop
  endfacet
  facet normal 0 -1 0
    outer loop
      vertex 0.875656 0 9.9612
      vertex 0.123304 0 15.3546
      vertex -0.367159 0 15.3914
    endloop
  endfacet
  facet normal 0 -1 0
    outer loop
      vertex 0.777478 0 9.87464
      vertex -0.367159 0 15.3914
      vertex -0.825 0 15.5711
    endloop
  endfacet
  facet normal -0 -1 0
    outer loop
      vertex 0.338314 0 8.74891
      vertex -1.20953 0 15.8777
      vertex 0.266948 0 8.40086
    endloop
  endfacet
  facet normal 0 -1 0
    outer loop
      vertex 0.123304 0 15.3546
      vertex 0.875656 0 9.9612
      vertex 0.975069 0 9.99845
    endloop
  endfacet
  facet normal 0 -1 0
    outer loop
      vertex -0.367159 0 15.3914
      vertex 0.777478 0 9.87464
      vertex 0.875656 0 9.9612
    endloop
  endfacet
  facet normal 0 -1 0
    outer loop
      vertex -0.825 0 15.5711
      vertex 0.681513 0 9.73964
      vertex 0.777478 0 9.87464
    endloop
  endfacet
  facet normal 0 -1 0
    outer loop
      vertex -0.825 0 15.5711
      vertex 0.588713 0 9.55753
      vertex 0.681513 0 9.73964
    endloop
  endfacet
  facet normal 0 -1 0
    outer loop
      vertex -1.20953 0 15.8777
      vertex 0.588713 0 9.55753
      vertex -0.825 0 15.5711
    endloop
  endfacet
  facet normal -0 -1 0
    outer loop
      vertex 0.588713 0 9.55753
      vertex -1.20953 0 15.8777
      vertex 0.5 0 9.33013
    endloop
  endfacet
  facet normal -0 -1 0
    outer loop
      vertex 0.5 0 9.33013
      vertex -1.20953 0 15.8777
      vertex 0.416256 0 9.05969
    endloop
  endfacet
  facet normal -0 -1 0
    outer loop
      vertex 0.416256 0 9.05969
      vertex -1.20953 0 15.8777
      vertex 0.338314 0 8.74891
    endloop
  endfacet
  facet normal 0 -1 -0
    outer loop
      vertex -1.20953 0 15.8777
      vertex -8 0 0
      vertex 0.266948 0 8.40086
    endloop
  endfacet
  facet normal 0 -1 0
    outer loop
      vertex 0.266948 0 8.40086
      vertex -8 0 0
      vertex 0.202867 0 8.01902
    endloop
  endfacet
  facet normal 0 -1 0
    outer loop
      vertex 0.202867 0 8.01902
      vertex -8 0 0
      vertex 0.146708 0 7.60718
    endloop
  endfacet
  facet normal 0 -1 0
    outer loop
      vertex 0.146708 0 7.60718
      vertex -8 0 0
      vertex 0.0990305 0 7.16942
    endloop
  endfacet
  facet normal 0 -1 0
    outer loop
      vertex 0.0990305 0 7.16942
      vertex -8 0 0
      vertex 0.0603065 0 6.7101
    endloop
  endfacet
  facet normal 0 -1 0
    outer loop
      vertex 0.0603065 0 6.7101
      vertex -8 0 0
      vertex 0.0309219 0 6.23379
    endloop
  endfacet
  facet normal 0 -1 0
    outer loop
      vertex 0.0309219 0 6.23379
      vertex -8 0 0
      vertex 0.0111685 0 5.74521
    endloop
  endfacet
  facet normal 0 -1 0
    outer loop
      vertex 0.0111685 0 5.74521
      vertex -8 0 0
      vertex 0.00124264 0 5.24923
    endloop
  endfacet
  facet normal 0 -1 -0
    outer loop
      vertex 0.00124264 0 5.24923
      vertex -8 0 0
      vertex 0.00124264 0 4.75077
    endloop
  endfacet
  facet normal 0 -1 -0
    outer loop
      vertex 0.00124264 0 4.75077
      vertex -8 0 0
      vertex 0.0111685 0 4.25479
    endloop
  endfacet
  facet normal 0 -1 -0
    outer loop
      vertex 0.0111685 0 4.25479
      vertex -8 0 0
      vertex 0.0309219 0 3.76621
    endloop
  endfacet
  facet normal 0 -1 -0
    outer loop
      vertex 0.0309219 0 3.76621
      vertex -8 0 0
      vertex 0.0603065 0 3.2899
    endloop
  endfacet
  facet normal 0 -1 -0
    outer loop
      vertex 0.0603065 0 3.2899
      vertex -8 0 0
      vertex 0.0990305 0 2.83058
    endloop
  endfacet
  facet normal 0 -1 -0
    outer loop
      vertex 0.0990305 0 2.83058
      vertex -8 0 0
      vertex 0.146708 0 2.39282
    endloop
  endfacet
  facet normal 0 -1 -0
    outer loop
      vertex 0.146708 0 2.39282
      vertex -8 0 0
      vertex 0.202867 0 1.98098
    endloop
  endfacet
  facet normal 0 -1 -0
    outer loop
      vertex 0.202867 0 1.98098
      vertex -8 0 0
      vertex 0.266948 0 1.59914
    endloop
  endfacet
  facet normal 0 -1 -0
    outer loop
      vertex 0.266948 0 1.59914
      vertex -8 0 0
      vertex 0.338314 0 1.25109
    endloop
  endfacet
  facet normal 0 -1 -0
    outer loop
      vertex 0.338314 0 1.25109
      vertex -8 0 0
      vertex 0.416256 0 0.94031
    endloop
  endfacet
  facet normal 0 -1 -0
    outer loop
      vertex 0.416256 0 0.94031
      vertex -8 0 0
      vertex 0.5 0 0.669872
    endloop
  endfacet
  facet normal 0 -1 -0
    outer loop
      vertex 0.5 0 0.669872
      vertex -8 0 0
      vertex 0.588713 0 0.442471
    endloop
  endfacet
  facet normal 0 -1 0
    outer loop
      vertex -8 0 0
      vertex 0.681513 0 0.260363
      vertex 0.588713 0 0.442471
    endloop
  endfacet
  facet normal 0 -1 0
    outer loop
      vertex -8 0 0
      vertex 0.777478 0 0.12536
      vertex 0.681513 0 0.260363
    endloop
  endfacet
  facet normal 0 -1 0
    outer loop
      vertex -8 0 0
      vertex 0.875656 0 0.0388031
      vertex 0.777478 0 0.12536
    endloop
  endfacet
  facet normal 0 -1 0
    outer loop
      vertex -8 0 0
      vertex 0.975069 0 0.00155354
      vertex 0.875656 0 0.0388031
    endloop
  endfacet
  facet normal 0 -1 0
    outer loop
      vertex 8 0 0
      vertex 0.975069 0 0.00155354
      vertex -8 0 0
    endloop
  endfacet
  facet normal 0 -1 0
    outer loop
      vertex 0.975069 0 0.00155354
      vertex 8 0 0
      vertex 8 0 0.00155354
    endloop
  endfacet
  facet normal 0 -1 0
    outer loop
      vertex 0.602812 0 18.5359
      vertex 8 0 20.8
      vertex 0.123304 0 18.6454
    endloop
  endfacet
  facet normal 0 -1 0
    outer loop
      vertex 1.02876 0 18.29
      vertex 8 0 20.8
      vertex 0.602812 0 18.5359
    endloop
  endfacet
  facet normal 0 -1 0
    outer loop
      vertex 1.36329 0 17.9295
      vertex 8 0 20.8
      vertex 1.02876 0 18.29
    endloop
  endfacet
  facet normal 0 -1 0
    outer loop
      vertex 1.57669 0 17.4863
      vertex 8 0 20.8
      vertex 1.36329 0 17.9295
    endloop
  endfacet
  facet normal 0 -1 0
    outer loop
      vertex 1.65 0 17
      vertex 8 0 20.8
      vertex 1.57669 0 17.4863
    endloop
  endfacet
  facet normal 0 -1 0
    outer loop
      vertex 1.57669 0 16.5137
      vertex 8 0 20.8
      vertex 1.65 0 17
    endloop
  endfacet
  facet normal 0 -1 0
    outer loop
      vertex 8 0 9.99845
      vertex 1.57669 0 16.5137
      vertex 1.36329 0 16.0705
    endloop
  endfacet
  facet normal 0 -1 0
    outer loop
      vertex 8 0 9.99845
      vertex 1.36329 0 16.0705
      vertex 1.02876 0 15.71
    endloop
  endfacet
  facet normal 0 -1 0
    outer loop
      vertex 0.975069 0 9.99845
      vertex 0.602812 0 15.4641
      vertex 0.123304 0 15.3546
    endloop
  endfacet
  facet normal 0 -1 0
    outer loop
      vertex 0.975069 0 9.99845
      vertex 1.02876 0 15.71
      vertex 0.602812 0 15.4641
    endloop
  endfacet
  facet normal 0 -1 0
    outer loop
      vertex 8 0 9.99845
      vertex 1.02876 0 15.71
      vertex 0.975069 0 9.99845
    endloop
  endfacet
  facet normal 0 -1 0
    outer loop
      vertex 1.57669 0 16.5137
      vertex 8 0 9.99845
      vertex 8 0 20.8
    endloop
  endfacet
  facet normal 0 0 1
    outer loop
      vertex 8 0 9.99845
      vertex 20.9751 0.000999451 9.99845
      vertex 8 0.000999451 9.99845
    endloop
  endfacet
  facet normal 0 0 1
    outer loop
      vertex 20.9751 0.000999451 9.99845
      vertex 8 0 9.99845
      vertex 20.9751 -5.999 9.99845
    endloop
  endfacet
  facet normal 0 0 1
    outer loop
      vertex 0.975069 -5.999 9.99845
      vertex 8 0 9.99845
      vertex 0.975069 0 9.99845
    endloop
  endfacet
  facet normal 0 0 1
    outer loop
      vertex 8 0 9.99845
      vertex 0.975069 -5.999 9.99845
      vertex 20.9751 -5.999 9.99845
    endloop
  endfacet
  facet normal -0.969961 0 -0.243261
    outer loop
      vertex 0.416256 -5.999 0.94031
      vertex 0.338314 0 1.25109
      vertex 0.416256 0 0.94031
    endloop
  endfacet
  facet normal -0.969961 -0 -0.243261
    outer loop
      vertex 0.338314 0 1.25109
      vertex 0.416256 -5.999 0.94031
      vertex 0.338314 -5.999 1.25109
    endloop
  endfacet
  facet normal 0.859279 -0 0.511508
    outer loop
      vertex 21.2708 -5.999 9.81312
      vertex 21.3653 0.000999451 9.65437
      vertex 21.2708 0.000999451 9.81312
    endloop
  endfacet
  facet normal 0.859279 0 0.511508
    outer loop
      vertex 21.3653 0.000999451 9.65437
      vertex 21.2708 -5.999 9.81312
      vertex 21.3653 -5.999 9.65437
    endloop
  endfacet
  facet normal -0.979619 0 -0.200866
    outer loop
      vertex 0.338314 -5.999 1.25109
      vertex 0.266948 0 1.59914
      vertex 0.338314 0 1.25109
    endloop
  endfacet
  facet normal -0.979619 -0 -0.200866
    outer loop
      vertex 0.266948 0 1.59914
      vertex 0.338314 -5.999 1.25109
      vertex 0.266948 -5.999 1.59914
    endloop
  endfacet
  facet normal 0.9753 -0 0.220886
    outer loop
      vertex 21.6235 -5.999 8.90916
      vertex 21.6982 0.000999451 8.57933
      vertex 21.6235 0.000999451 8.90916
    endloop
  endfacet
  facet normal 0.9753 0 0.220886
    outer loop
      vertex 21.6982 0.000999451 8.57933
      vertex 21.6235 -5.999 8.90916
      vertex 21.6982 -5.999 8.57933
    endloop
  endfacet
  facet normal -0.998102 0 0.0615751
    outer loop
      vertex 0.0309219 -5.999 6.23379
      vertex 0.0603065 0 6.7101
      vertex 0.0309219 0 6.23379
    endloop
  endfacet
  facet normal -0.998102 0 0.0615751
    outer loop
      vertex 0.0603065 0 6.7101
      vertex 0.0309219 -5.999 6.23379
      vertex 0.0603065 -5.999 6.7101
    endloop
  endfacet
  facet normal -0.661318 0 -0.750106
    outer loop
      vertex 0.777478 -5.999 0.12536
      vertex 0.875656 0 0.0388031
      vertex 0.875656 -5.999 0.0388031
    endloop
  endfacet
  facet normal -0.661318 0 -0.750106
    outer loop
      vertex 0.875656 0 0.0388031
      vertex 0.777478 -5.999 0.12536
      vertex 0.777478 0 0.12536
    endloop
  endfacet
  facet normal 0.944953 -0 0.327206
    outer loop
      vertex 21.4562 -5.999 9.44936
      vertex 21.5425 0.000999451 9.20013
      vertex 21.4562 0.000999451 9.44936
    endloop
  endfacet
  facet normal 0.944953 0 0.327206
    outer loop
      vertex 21.5425 0.000999451 9.20013
      vertex 21.4562 -5.999 9.44936
      vertex 21.5425 -5.999 9.20013
    endloop
  endfacet
  facet normal 0 0 -1
    outer loop
      vertex 20.9751 -5.999 0.00155354
      vertex 8 0 0.00155354
      vertex 20.9751 0.000999451 0.00155354
    endloop
  endfacet
  facet normal 0 0 -1
    outer loop
      vertex 0.975069 -5.999 0.00155354
      vertex 8 0 0.00155354
      vertex 20.9751 -5.999 0.00155354
    endloop
  endfacet
  facet normal -0 0 -1
    outer loop
      vertex 8 0 0.00155354
      vertex 0.975069 -5.999 0.00155354
      vertex 0.975069 0 0.00155354
    endloop
  endfacet
  facet normal -0 0 -1
    outer loop
      vertex 20.9751 0.000999451 0.00155354
      vertex 8 0 0.00155354
      vertex 8 0.000999451 0.00155354
    endloop
  endfacet
  facet normal -0.815061 0 -0.579375
    outer loop
      vertex 0.777478 -5.999 0.12536
      vertex 0.681513 0 0.260363
      vertex 0.777478 0 0.12536
    endloop
  endfacet
  facet normal -0.815061 -0 -0.579375
    outer loop
      vertex 0.681513 0 0.260363
      vertex 0.777478 -5.999 0.12536
      vertex 0.681513 -5.999 0.260363
    endloop
  endfacet
  facet normal 0.963368 -0 0.268182
    outer loop
      vertex 21.5425 -5.999 9.20013
      vertex 21.6235 0.000999451 8.90916
      vertex 21.5425 0.000999451 9.20013
    endloop
  endfacet
  facet normal 0.963368 0 0.268182
    outer loop
      vertex 21.6235 0.000999451 8.90916
      vertex 21.5425 -5.999 9.20013
      vertex 21.6235 -5.999 8.90916
    endloop
  endfacet
  facet normal -0.986209 0 -0.165507
    outer loop
      vertex 0.266948 -5.999 1.59914
      vertex 0.202867 0 1.98098
      vertex 0.266948 0 1.59914
    endloop
  endfacet
  facet normal -0.986209 -0 -0.165507
    outer loop
      vertex 0.202867 0 1.98098
      vertex 0.266948 -5.999 1.59914
      vertex 0.202867 -5.999 1.98098
    endloop
  endfacet
  facet normal 0.9753 0 -0.220886
    outer loop
      vertex 21.6982 -5.999 1.42067
      vertex 21.6235 0.000999451 1.09084
      vertex 21.6982 0.000999451 1.42067
    endloop
  endfacet
  facet normal 0.9753 0 -0.220886
    outer loop
      vertex 21.6235 0.000999451 1.09084
      vertex 21.6982 -5.999 1.42067
      vertex 21.6235 -5.999 1.09084
    endloop
  endfacet
  facet normal -0.350877 0 0.936422
    outer loop
      vertex 0.875656 0 9.9612
      vertex 0.975069 -5.999 9.99845
      vertex 0.975069 0 9.99845
    endloop
  endfacet
  facet normal -0.350877 0 0.936422
    outer loop
      vertex 0.975069 -5.999 9.99845
      vertex 0.875656 0 9.9612
      vertex 0.875656 -5.999 9.9612
    endloop
  endfacet
  facet normal 0.123813 0 -0.992306
    outer loop
      vertex 20.9751 -5.999 0.00155354
      vertex 21.0747 0.000999451 0.0139809
      vertex 21.0747 -5.999 0.0139809
    endloop
  endfacet
  facet normal 0.123813 0 -0.992306
    outer loop
      vertex 21.0747 0.000999451 0.0139809
      vertex 20.9751 -5.999 0.00155354
      vertex 20.9751 0.000999451 0.00155354
    endloop
  endfacet
  facet normal 0.999549 0 -0.0300135
    outer loop
      vertex 21.995 -5.999 4.50216
      vertex 21.9802 0.000999451 4.00927
      vertex 21.995 0.000999451 4.50216
    endloop
  endfacet
  facet normal 0.999549 0 -0.0300135
    outer loop
      vertex 21.9802 0.000999451 4.00927
      vertex 21.995 -5.999 4.50216
      vertex 21.9802 -5.999 4.00927
    endloop
  endfacet
  facet normal -0.955249 0 -0.295803
    outer loop
      vertex 0.5 -5.999 0.669872
      vertex 0.416256 0 0.94031
      vertex 0.5 0 0.669872
    endloop
  endfacet
  facet normal -0.955249 -0 -0.295803
    outer loop
      vertex 0.416256 0 0.94031
      vertex 0.5 -5.999 0.669872
      vertex 0.416256 -5.999 0.94031
    endloop
  endfacet
  facet normal -0.9998 0 -0.0200086
    outer loop
      vertex 0.0111685 -5.999 4.25479
      vertex 0.00124264 0 4.75077
      vertex 0.0111685 0 4.25479
    endloop
  endfacet
  facet normal -0.9998 -0 -0.0200086
    outer loop
      vertex 0.00124264 0 4.75077
      vertex 0.0111685 -5.999 4.25479
      vertex 0.00124264 -5.999 4.75077
    endloop
  endfacet
  facet normal 0.914168 -0 0.405336
    outer loop
      vertex 21.3653 -5.999 9.65437
      vertex 21.4562 0.000999451 9.44936
      vertex 21.3653 0.000999451 9.65437
    endloop
  endfacet
  facet normal 0.914168 0 0.405336
    outer loop
      vertex 21.4562 0.000999451 9.44936
      vertex 21.3653 -5.999 9.65437
      vertex 21.4562 -5.999 9.44936
    endloop
  endfacet
  facet normal -0.986209 0 0.165507
    outer loop
      vertex 0.202867 -5.999 8.01902
      vertex 0.266948 0 8.40086
      vertex 0.202867 0 8.01902
    endloop
  endfacet
  facet normal -0.986209 0 0.165507
    outer loop
      vertex 0.266948 0 8.40086
      vertex 0.202867 -5.999 8.01902
      vertex 0.266948 -5.999 8.40086
    endloop
  endfacet
  facet normal -0.994121 0 -0.108272
    outer loop
      vertex 0.146708 -5.999 2.39282
      vertex 0.0990305 0 2.83058
      vertex 0.146708 0 2.39282
    endloop
  endfacet
  facet normal -0.994121 -0 -0.108272
    outer loop
      vertex 0.0990305 0 2.83058
      vertex 0.146708 -5.999 2.39282
      vertex 0.0990305 -5.999 2.83058
    endloop
  endfacet
  facet normal -0.99083 0 0.135111
    outer loop
      vertex 0.146708 -5.999 7.60718
      vertex 0.202867 0 8.01902
      vertex 0.146708 0 7.60718
    endloop
  endfacet
  facet normal -0.99083 0 0.135111
    outer loop
      vertex 0.202867 0 8.01902
      vertex 0.146708 -5.999 7.60718
      vertex 0.202867 -5.999 8.01902
    endloop
  endfacet
  facet normal 0.983217 -0 0.182441
    outer loop
      vertex 21.6982 -5.999 8.57933
      vertex 21.766 0.000999451 8.21394
      vertex 21.6982 0.000999451 8.57933
    endloop
  endfacet
  facet normal 0.983217 0 0.182441
    outer loop
      vertex 21.766 0.000999451 8.21394
      vertex 21.6982 -5.999 8.57933
      vertex 21.766 -5.999 8.21394
    endloop
  endfacet
  facet normal -0.890984 0 -0.454035
    outer loop
      vertex 0.681513 -5.999 0.260363
      vertex 0.588713 0 0.442471
      vertex 0.681513 0 0.260363
    endloop
  endfacet
  facet normal -0.890984 -0 -0.454035
    outer loop
      vertex 0.588713 0 0.442471
      vertex 0.681513 -5.999 0.260363
      vertex 0.588713 -5.999 0.442471
    endloop
  endfacet
  facet normal 0.998706 0 -0.0508605
    outer loop
      vertex 21.9802 -5.999 4.00927
      vertex 21.9556 0.000999451 3.52622
      vertex 21.9802 0.000999451 4.00927
    endloop
  endfacet
  facet normal 0.998706 0 -0.0508605
    outer loop
      vertex 21.9556 0.000999451 3.52622
      vertex 21.9802 -5.999 4.00927
      vertex 21.9556 -5.999 3.52622
    endloop
  endfacet
  facet normal 0.531031 0 0.847353
    outer loop
      vertex 21.0747 0.000999451 9.98602
      vertex 21.1736 -5.999 9.92404
      vertex 21.1736 0.000999451 9.92404
    endloop
  endfacet
  facet normal 0.531031 0 0.847353
    outer loop
      vertex 21.1736 -5.999 9.92404
      vertex 21.0747 0.000999451 9.98602
      vertex 21.0747 -5.999 9.98602
    endloop
  endfacet
  facet normal -0.350873 0 -0.936423
    outer loop
      vertex 0.875656 -5.999 0.0388031
      vertex 0.975069 0 0.00155354
      vertex 0.975069 -5.999 0.00155354
    endloop
  endfacet
  facet normal -0.350873 0 -0.936423
    outer loop
      vertex 0.975069 0 0.00155354
      vertex 0.875656 -5.999 0.0388031
      vertex 0.875656 0 0.0388031
    endloop
  endfacet
  facet normal 0.995384 -0 0.09597
    outer loop
      vertex 21.8782 -5.999 7.39127
      vertex 21.9215 0.000999451 6.94217
      vertex 21.8782 0.000999451 7.39127
    endloop
  endfacet
  facet normal 0.995384 0 0.09597
    outer loop
      vertex 21.9215 0.000999451 6.94217
      vertex 21.8782 -5.999 7.39127
      vertex 21.9215 -5.999 6.94217
    endloop
  endfacet
  facet normal -0.9998 0 0.0200086
    outer loop
      vertex 0.00124264 -5.999 5.24923
      vertex 0.0111685 0 5.74521
      vertex 0.00124264 0 5.24923
    endloop
  endfacet
  facet normal -0.9998 0 0.0200086
    outer loop
      vertex 0.0111685 0 5.74521
      vertex 0.00124264 -5.999 5.24923
      vertex 0.0111685 -5.999 5.74521
    endloop
  endfacet
  facet normal 0.123839 0 0.992302
    outer loop
      vertex 20.9751 0.000999451 9.99845
      vertex 21.0747 -5.999 9.98602
      vertex 21.0747 0.000999451 9.98602
    endloop
  endfacet
  facet normal 0.123839 0 0.992302
    outer loop
      vertex 21.0747 -5.999 9.98602
      vertex 20.9751 0.000999451 9.99845
      vertex 20.9751 -5.999 9.99845
    endloop
  endfacet
  facet normal -0.999184 0 -0.0403972
    outer loop
      vertex 0.0309219 -5.999 3.76621
      vertex 0.0111685 0 4.25479
      vertex 0.0309219 0 3.76621
    endloop
  endfacet
  facet normal -0.999184 -0 -0.0403972
    outer loop
      vertex 0.0111685 0 4.25479
      vertex 0.0309219 -5.999 3.76621
      vertex 0.0111685 -5.999 4.25479
    endloop
  endfacet
  facet normal -0.95525 0 0.295801
    outer loop
      vertex 0.416256 -5.999 9.05969
      vertex 0.5 0 9.33013
      vertex 0.416256 0 9.05969
    endloop
  endfacet
  facet normal -0.95525 0 0.295801
    outer loop
      vertex 0.5 0 9.33013
      vertex 0.416256 -5.999 9.05969
      vertex 0.5 -5.999 9.33013
    endloop
  endfacet
  facet normal -0.994121 0 0.108272
    outer loop
      vertex 0.0990305 -5.999 7.16942
      vertex 0.146708 0 7.60718
      vertex 0.0990305 0 7.16942
    endloop
  endfacet
  facet normal -0.994121 0 0.108272
    outer loop
      vertex 0.146708 0 7.60718
      vertex 0.0990305 -5.999 7.16942
      vertex 0.146708 -5.999 7.60718
    endloop
  endfacet
  facet normal -0.931618 0 -0.36344
    outer loop
      vertex 0.588713 -5.999 0.442471
      vertex 0.5 0 0.669872
      vertex 0.588713 0 0.442471
    endloop
  endfacet
  facet normal -0.931618 -0 -0.36344
    outer loop
      vertex 0.5 0 0.669872
      vertex 0.588713 -5.999 0.442471
      vertex 0.5 -5.999 0.669872
    endloop
  endfacet
  facet normal 0.99736 0 -0.0726104
    outer loop
      vertex 21.9556 -5.999 3.52622
      vertex 21.9215 0.000999451 3.05783
      vertex 21.9556 0.000999451 3.52622
    endloop
  endfacet
  facet normal 0.99736 0 -0.0726104
    outer loop
      vertex 21.9215 0.000999451 3.05783
      vertex 21.9556 -5.999 3.52622
      vertex 21.9215 -5.999 3.05783
    endloop
  endfacet
  facet normal -0.969961 0 0.243261
    outer loop
      vertex 0.338314 -5.999 8.74891
      vertex 0.416256 0 9.05969
      vertex 0.338314 0 8.74891
    endloop
  endfacet
  facet normal -0.969961 0 0.243261
    outer loop
      vertex 0.416256 0 9.05969
      vertex 0.338314 -5.999 8.74891
      vertex 0.416256 -5.999 9.05969
    endloop
  endfacet
  facet normal -0.999184 0 0.0403972
    outer loop
      vertex 0.0111685 -5.999 5.74521
      vertex 0.0309219 0 6.23379
      vertex 0.0111685 0 5.74521
    endloop
  endfacet
  facet normal -0.999184 0 0.0403972
    outer loop
      vertex 0.0309219 0 6.23379
      vertex 0.0111685 -5.999 5.74521
      vertex 0.0309219 -5.999 6.23379
    endloop
  endfacet
  facet normal -0.979619 0 0.200866
    outer loop
      vertex 0.266948 -5.999 8.40086
      vertex 0.338314 0 8.74891
      vertex 0.266948 0 8.40086
    endloop
  endfacet
  facet normal -0.979619 0 0.200866
    outer loop
      vertex 0.338314 0 8.74891
      vertex 0.266948 -5.999 8.40086
      vertex 0.338314 -5.999 8.74891
    endloop
  endfacet
  facet normal -0.996465 0 0.0840092
    outer loop
      vertex 0.0603065 -5.999 6.7101
      vertex 0.0990305 0 7.16942
      vertex 0.0603065 0 6.7101
    endloop
  endfacet
  facet normal -0.996465 0 0.0840092
    outer loop
      vertex 0.0990305 0 7.16942
      vertex 0.0603065 -5.999 6.7101
      vertex 0.0990305 -5.999 7.16942
    endloop
  endfacet
  facet normal 0.752089 -0 0.659061
    outer loop
      vertex 21.1736 -5.999 9.92404
      vertex 21.2708 0.000999451 9.81312
      vertex 21.1736 0.000999451 9.92404
    endloop
  endfacet
  facet normal 0.752089 0 0.659061
    outer loop
      vertex 21.2708 0.000999451 9.81312
      vertex 21.1736 -5.999 9.92404
      vertex 21.2708 -5.999 9.81312
    endloop
  endfacet
  facet normal 0.992609 0 -0.121354
    outer loop
      vertex 21.8782 -5.999 2.60873
      vertex 21.8262 0.000999451 2.1834
      vertex 21.8782 0.000999451 2.60873
    endloop
  endfacet
  facet normal 0.992609 0 -0.121354
    outer loop
      vertex 21.8262 0.000999451 2.1834
      vertex 21.8782 -5.999 2.60873
      vertex 21.8262 -5.999 2.1834
    endloop
  endfacet
  facet normal 0.988717 -0 0.149798
    outer loop
      vertex 21.766 -5.999 8.21394
      vertex 21.8262 0.000999451 7.8166
      vertex 21.766 0.000999451 8.21394
    endloop
  endfacet
  facet normal 0.988717 0 0.149798
    outer loop
      vertex 21.8262 0.000999451 7.8166
      vertex 21.766 -5.999 8.21394
      vertex 21.8262 -5.999 7.8166
    endloop
  endfacet
  facet normal -1 0 0
    outer loop
      vertex 0.00124264 -5.999 4.75077
      vertex 0.00124264 0 5.24923
      vertex 0.00124264 0 4.75077
    endloop
  endfacet
  facet normal -1 -0 0
    outer loop
      vertex 0.00124264 0 5.24923
      vertex 0.00124264 -5.999 4.75077
      vertex 0.00124264 -5.999 5.24923
    endloop
  endfacet
  facet normal -0.661331 0 0.750094
    outer loop
      vertex 0.777478 0 9.87464
      vertex 0.875656 -5.999 9.9612
      vertex 0.875656 0 9.9612
    endloop
  endfacet
  facet normal -0.661331 0 0.750094
    outer loop
      vertex 0.875656 -5.999 9.9612
      vertex 0.777478 0 9.87464
      vertex 0.777478 -5.999 9.87464
    endloop
  endfacet
  facet normal 0.999549 -0 0.0300135
    outer loop
      vertex 21.9802 -5.999 5.99073
      vertex 21.995 0.000999451 5.49784
      vertex 21.9802 0.000999451 5.99073
    endloop
  endfacet
  facet normal 0.999549 0 0.0300135
    outer loop
      vertex 21.995 0.000999451 5.49784
      vertex 21.9802 -5.999 5.99073
      vertex 21.995 -5.999 5.49784
    endloop
  endfacet
  facet normal 0 1 0
    outer loop
      vertex 17.4187 0.000999451 5.48705
      vertex 21.9215 0.000999451 6.94217
      vertex 21.9556 0.000999451 6.47378
    endloop
  endfacet
  facet normal 0 1 0
    outer loop
      vertex 21.9215 0.000999451 6.94217
      vertex 16.3682 0.000999451 6.4541
      vertex 15.8761 0.000999451 6.49488
    endloop
  endfacet
  facet normal 0 1 0
    outer loop
      vertex 21.9215 0.000999451 6.94217
      vertex 16.8204 0.000999451 6.25575
      vertex 16.3682 0.000999451 6.4541
    endloop
  endfacet
  facet normal 0 1 0
    outer loop
      vertex 17.4187 0.000999451 5.48705
      vertex 21.9556 0.000999451 6.47378
      vertex 21.9802 0.000999451 5.99073
    endloop
  endfacet
  facet normal 0 1 0
    outer loop
      vertex 21.9215 0.000999451 6.94217
      vertex 17.1837 0.000999451 5.92132
      vertex 16.8204 0.000999451 6.25575
    endloop
  endfacet
  facet normal 0 1 0
    outer loop
      vertex 17.4187 0.000999451 5.48705
      vertex 21.9802 0.000999451 5.99073
      vertex 21.995 0.000999451 5.49784
    endloop
  endfacet
  facet normal 0 1 0
    outer loop
      vertex 21.9215 0.000999451 6.94217
      vertex 17.4187 0.000999451 5.48705
      vertex 17.1837 0.000999451 5.92132
    endloop
  endfacet
  facet normal 0 1 0
    outer loop
      vertex 17.5 0.000999451 5
      vertex 21.995 0.000999451 5.49784
      vertex 22 0.000999451 5
    endloop
  endfacet
  facet normal 0 1 0
    outer loop
      vertex 21.995 0.000999451 5.49784
      vertex 17.5 0.000999451 5
      vertex 17.4187 0.000999451 5.48705
    endloop
  endfacet
  facet normal 0 1 -0
    outer loop
      vertex 21.995 0.000999451 4.50216
      vertex 17.5 0.000999451 5
      vertex 22 0.000999451 5
    endloop
  endfacet
  facet normal 0 1 0
    outer loop
      vertex 17.5 0.000999451 5
      vertex 21.995 0.000999451 4.50216
      vertex 17.4187 0.000999451 4.51295
    endloop
  endfacet
  facet normal 0 1 -0
    outer loop
      vertex 21.9802 0.000999451 4.00927
      vertex 17.4187 0.000999451 4.51295
      vertex 21.995 0.000999451 4.50216
    endloop
  endfacet
  facet normal 0 1 -0
    outer loop
      vertex 21.9556 0.000999451 3.52622
      vertex 17.4187 0.000999451 4.51295
      vertex 21.9802 0.000999451 4.00927
    endloop
  endfacet
  facet normal 0 1 -0
    outer loop
      vertex 21.9215 0.000999451 3.05783
      vertex 17.4187 0.000999451 4.51295
      vertex 21.9556 0.000999451 3.52622
    endloop
  endfacet
  facet normal 0 1 0
    outer loop
      vertex 17.4187 0.000999451 4.51295
      vertex 21.9215 0.000999451 3.05783
      vertex 17.1837 0.000999451 4.07868
    endloop
  endfacet
  facet normal 0 1 -0
    outer loop
      vertex 21.8782 0.000999451 2.60873
      vertex 17.1837 0.000999451 4.07868
      vertex 21.9215 0.000999451 3.05783
    endloop
  endfacet
  facet normal 0 1 -0
    outer loop
      vertex 21.8262 0.000999451 2.1834
      vertex 17.1837 0.000999451 4.07868
      vertex 21.8782 0.000999451 2.60873
    endloop
  endfacet
  facet normal 0 1 -0
    outer loop
      vertex 21.766 0.000999451 1.78606
      vertex 17.1837 0.000999451 4.07868
      vertex 21.8262 0.000999451 2.1834
    endloop
  endfacet
  facet normal 0 1 0
    outer loop
      vertex 21.1736 0.000999451 9.92404
      vertex 20.9751 0.000999451 9.99845
      vertex 21.0747 0.000999451 9.98602
    endloop
  endfacet
  facet normal 0 1 0
    outer loop
      vertex 20.9751 0.000999451 9.99845
      vertex 21.1736 0.000999451 9.92404
      vertex 21.2708 0.000999451 9.81312
    endloop
  endfacet
  facet normal 0 1 0
    outer loop
      vertex 20.9751 0.000999451 9.99845
      vertex 21.2708 0.000999451 9.81312
      vertex 21.3653 0.000999451 9.65437
    endloop
  endfacet
  facet normal 0 1 0
    outer loop
      vertex 20.9751 0.000999451 9.99845
      vertex 21.3653 0.000999451 9.65437
      vertex 21.4562 0.000999451 9.44936
    endloop
  endfacet
  facet normal 0 1 0
    outer loop
      vertex 20.9751 0.000999451 9.99845
      vertex 21.4562 0.000999451 9.44936
      vertex 21.5425 0.000999451 9.20013
    endloop
  endfacet
  facet normal 0 1 0
    outer loop
      vertex 20.9751 0.000999451 9.99845
      vertex 21.5425 0.000999451 9.20013
      vertex 21.6235 0.000999451 8.90916
    endloop
  endfacet
  facet normal 0 1 0
    outer loop
      vertex 21.6982 0.000999451 8.57933
      vertex 20.9751 0.000999451 9.99845
      vertex 21.6235 0.000999451 8.90916
    endloop
  endfacet
  facet normal 0 1 0
    outer loop
      vertex 20.9751 0.000999451 9.99845
      vertex 21.6982 0.000999451 8.57933
      vertex 15.8761 0.000999451 6.49488
    endloop
  endfacet
  facet normal 0 1 0
    outer loop
      vertex 15.8761 0.000999451 6.49488
      vertex 21.6982 0.000999451 8.57933
      vertex 21.766 0.000999451 8.21394
    endloop
  endfacet
  facet normal 0 1 0
    outer loop
      vertex 15.8761 0.000999451 6.49488
      vertex 21.766 0.000999451 8.21394
      vertex 21.8262 0.000999451 7.8166
    endloop
  endfacet
  facet normal 0 1 0
    outer loop
      vertex 15.8761 0.000999451 6.49488
      vertex 21.8262 0.000999451 7.8166
      vertex 21.8782 0.000999451 7.39127
    endloop
  endfacet
  facet normal 0 1 0
    outer loop
      vertex 15.8761 0.000999451 6.49488
      vertex 21.8782 0.000999451 7.39127
      vertex 21.9215 0.000999451 6.94217
    endloop
  endfacet
  facet normal 0 1 0
    outer loop
      vertex 20.9751 0.000999451 9.99845
      vertex 15.8761 0.000999451 6.49488
      vertex 8 0.000999451 9.99845
    endloop
  endfacet
  facet normal 0 1 -0
    outer loop
      vertex 15.3975 0.000999451 6.37366
      vertex 8 0.000999451 9.99845
      vertex 15.8761 0.000999451 6.49488
    endloop
  endfacet
  facet normal 0 1 -0
    outer loop
      vertex 14.9841 0.000999451 6.10359
      vertex 8 0.000999451 9.99845
      vertex 15.3975 0.000999451 6.37366
    endloop
  endfacet
  facet normal 0 1 -0
    outer loop
      vertex 14.6808 0.000999451 5.71392
      vertex 8 0.000999451 9.99845
      vertex 14.9841 0.000999451 6.10359
    endloop
  endfacet
  facet normal 0 1 -0
    outer loop
      vertex 14.5205 0.000999451 5.24689
      vertex 8 0.000999451 9.99845
      vertex 14.6808 0.000999451 5.71392
    endloop
  endfacet
  facet normal 0 1 -0
    outer loop
      vertex 14.5205 0.000999451 4.75311
      vertex 8 0.000999451 9.99845
      vertex 14.5205 0.000999451 5.24689
    endloop
  endfacet
  facet normal 0 1 0
    outer loop
      vertex 8 0.000999451 0.00155354
      vertex 14.5205 0.000999451 4.75311
      vertex 14.6808 0.000999451 4.28608
    endloop
  endfacet
  facet normal 0 1 0
    outer loop
      vertex 8 0.000999451 0.00155354
      vertex 14.6808 0.000999451 4.28608
      vertex 14.9841 0.000999451 3.89641
    endloop
  endfacet
  facet normal 0 1 -0
    outer loop
      vertex 21.6982 0.000999451 1.42067
      vertex 17.1837 0.000999451 4.07868
      vertex 21.766 0.000999451 1.78606
    endloop
  endfacet
  facet normal 0 1 -0
    outer loop
      vertex 20.9751 0.000999451 0.00155354
      vertex 17.1837 0.000999451 4.07868
      vertex 21.6982 0.000999451 1.42067
    endloop
  endfacet
  facet normal 0 1 0
    outer loop
      vertex 17.1837 0.000999451 4.07868
      vertex 20.9751 0.000999451 0.00155354
      vertex 16.8204 0.000999451 3.74425
    endloop
  endfacet
  facet normal 0 1 0
    outer loop
      vertex 16.8204 0.000999451 3.74425
      vertex 20.9751 0.000999451 0.00155354
      vertex 16.3682 0.000999451 3.5459
    endloop
  endfacet
  facet normal 0 1 0
    outer loop
      vertex 16.3682 0.000999451 3.5459
      vertex 20.9751 0.000999451 0.00155354
      vertex 15.8761 0.000999451 3.50512
    endloop
  endfacet
  facet normal 0 1 0
    outer loop
      vertex 20.9751 0.000999451 0.00155354
      vertex 21.6982 0.000999451 1.42067
      vertex 21.6235 0.000999451 1.09084
    endloop
  endfacet
  facet normal 0 1 0
    outer loop
      vertex 20.9751 0.000999451 0.00155354
      vertex 21.6235 0.000999451 1.09084
      vertex 21.5425 0.000999451 0.79987
    endloop
  endfacet
  facet normal 0 1 0
    outer loop
      vertex 20.9751 0.000999451 0.00155354
      vertex 21.5425 0.000999451 0.79987
      vertex 21.4562 0.000999451 0.55064
    endloop
  endfacet
  facet normal 0 1 0
    outer loop
      vertex 20.9751 0.000999451 0.00155354
      vertex 21.4562 0.000999451 0.55064
      vertex 21.3653 0.000999451 0.345631
    endloop
  endfacet
  facet normal 0 1 0
    outer loop
      vertex 20.9751 0.000999451 0.00155354
      vertex 21.3653 0.000999451 0.345631
      vertex 21.2708 0.000999451 0.186878
    endloop
  endfacet
  facet normal 0 1 0
    outer loop
      vertex 20.9751 0.000999451 0.00155354
      vertex 21.2708 0.000999451 0.186878
      vertex 21.1736 0.000999451 0.0759611
    endloop
  endfacet
  facet normal 0 1 0
    outer loop
      vertex 20.9751 0.000999451 0.00155354
      vertex 21.1736 0.000999451 0.0759611
      vertex 21.0747 0.000999451 0.0139809
    endloop
  endfacet
  facet normal 0 1 0
    outer loop
      vertex 8 0.000999451 0.00155354
      vertex 15.8761 0.000999451 3.50512
      vertex 20.9751 0.000999451 0.00155354
    endloop
  endfacet
  facet normal 0 1 0
    outer loop
      vertex 14.5205 0.000999451 4.75311
      vertex 8 0.000999451 0.00155354
      vertex 8 0.000999451 9.99845
    endloop
  endfacet
  facet normal 0 1 0
    outer loop
      vertex 15.3975 0.000999451 3.62634
      vertex 8 0.000999451 0.00155354
      vertex 14.9841 0.000999451 3.89641
    endloop
  endfacet
  facet normal 0 1 0
    outer loop
      vertex 15.8761 0.000999451 3.50512
      vertex 8 0.000999451 0.00155354
      vertex 15.3975 0.000999451 3.62634
    endloop
  endfacet
  facet normal 0.988717 0 -0.149798
    outer loop
      vertex 21.8262 -5.999 2.1834
      vertex 21.766 0.000999451 1.78606
      vertex 21.8262 0.000999451 2.1834
    endloop
  endfacet
  facet normal 0.988717 0 -0.149798
    outer loop
      vertex 21.766 0.000999451 1.78606
      vertex 21.8262 -5.999 2.1834
      vertex 21.766 -5.999 1.78606
    endloop
  endfacet
  facet normal -0.996465 0 -0.0840092
    outer loop
      vertex 0.0990305 -5.999 2.83058
      vertex 0.0603065 0 3.2899
      vertex 0.0990305 0 2.83058
    endloop
  endfacet
  facet normal -0.996465 -0 -0.0840092
    outer loop
      vertex 0.0603065 0 3.2899
      vertex 0.0990305 -5.999 2.83058
      vertex 0.0603065 -5.999 3.2899
    endloop
  endfacet
  facet normal 0.998706 -0 0.0508605
    outer loop
      vertex 21.9556 -5.999 6.47378
      vertex 21.9802 0.000999451 5.99073
      vertex 21.9556 0.000999451 6.47378
    endloop
  endfacet
  facet normal 0.998706 0 0.0508605
    outer loop
      vertex 21.9802 0.000999451 5.99073
      vertex 21.9556 -5.999 6.47378
      vertex 21.9802 -5.999 5.99073
    endloop
  endfacet
  facet normal -0.998102 0 -0.0615751
    outer loop
      vertex 0.0603065 -5.999 3.2899
      vertex 0.0309219 0 3.76621
      vertex 0.0603065 0 3.2899
    endloop
  endfacet
  facet normal -0.998102 -0 -0.0615751
    outer loop
      vertex 0.0309219 0 3.76621
      vertex 0.0603065 -5.999 3.2899
      vertex 0.0309219 -5.999 3.76621
    endloop
  endfacet
  facet normal 0.944953 0 -0.327206
    outer loop
      vertex 21.5425 -5.999 0.79987
      vertex 21.4562 0.000999451 0.55064
      vertex 21.5425 0.000999451 0.79987
    endloop
  endfacet
  facet normal 0.944953 0 -0.327206
    outer loop
      vertex 21.4562 0.000999451 0.55064
      vertex 21.5425 -5.999 0.79987
      vertex 21.4562 -5.999 0.55064
    endloop
  endfacet
  facet normal 0.75208 0 -0.659072
    outer loop
      vertex 21.2708 -5.999 0.186878
      vertex 21.1736 0.000999451 0.0759611
      vertex 21.2708 0.000999451 0.186878
    endloop
  endfacet
  facet normal 0.75208 0 -0.659072
    outer loop
      vertex 21.1736 0.000999451 0.0759611
      vertex 21.2708 -5.999 0.186878
      vertex 21.1736 -5.999 0.0759611
    endloop
  endfacet
  facet normal 0.99736 -0 0.0726104
    outer loop
      vertex 21.9215 -5.999 6.94217
      vertex 21.9556 0.000999451 6.47378
      vertex 21.9215 0.000999451 6.94217
    endloop
  endfacet
  facet normal 0.99736 0 0.0726104
    outer loop
      vertex 21.9556 0.000999451 6.47378
      vertex 21.9215 -5.999 6.94217
      vertex 21.9556 -5.999 6.47378
    endloop
  endfacet
  facet normal 0.914167 0 -0.405337
    outer loop
      vertex 21.4562 -5.999 0.55064
      vertex 21.3653 0.000999451 0.345631
      vertex 21.4562 0.000999451 0.55064
    endloop
  endfacet
  facet normal 0.914167 0 -0.405337
    outer loop
      vertex 21.3653 0.000999451 0.345631
      vertex 21.4562 -5.999 0.55064
      vertex 21.3653 -5.999 0.345631
    endloop
  endfacet
  facet normal 0.99995 0 -0.0100429
    outer loop
      vertex 22 -5.999 5
      vertex 21.995 0.000999451 4.50216
      vertex 22 0.000999451 5
    endloop
  endfacet
  facet normal 0.99995 0 -0.0100429
    outer loop
      vertex 21.995 0.000999451 4.50216
      vertex 22 -5.999 5
      vertex 21.995 -5.999 4.50216
    endloop
  endfacet
  facet normal 0.963368 0 -0.268182
    outer loop
      vertex 21.6235 -5.999 1.09084
      vertex 21.5425 0.000999451 0.79987
      vertex 21.6235 0.000999451 1.09084
    endloop
  endfacet
  facet normal 0.963368 0 -0.268182
    outer loop
      vertex 21.5425 0.000999451 0.79987
      vertex 21.6235 -5.999 1.09084
      vertex 21.5425 -5.999 0.79987
    endloop
  endfacet
  facet normal 0.99995 -0 0.0100429
    outer loop
      vertex 21.995 -5.999 5.49784
      vertex 22 0.000999451 5
      vertex 21.995 0.000999451 5.49784
    endloop
  endfacet
  facet normal 0.99995 0 0.0100429
    outer loop
      vertex 22 0.000999451 5
      vertex 21.995 -5.999 5.49784
      vertex 22 -5.999 5
    endloop
  endfacet
  facet normal -0.99083 0 -0.135111
    outer loop
      vertex 0.202867 -5.999 1.98098
      vertex 0.146708 0 2.39282
      vertex 0.202867 0 1.98098
    endloop
  endfacet
  facet normal -0.99083 -0 -0.135111
    outer loop
      vertex 0.146708 0 2.39282
      vertex 0.202867 -5.999 1.98098
      vertex 0.146708 -5.999 2.39282
    endloop
  endfacet
  facet normal 0.995384 0 -0.09597
    outer loop
      vertex 21.9215 -5.999 3.05783
      vertex 21.8782 0.000999451 2.60873
      vertex 21.9215 0.000999451 3.05783
    endloop
  endfacet
  facet normal 0.995384 0 -0.09597
    outer loop
      vertex 21.8782 0.000999451 2.60873
      vertex 21.9215 -5.999 3.05783
      vertex 21.8782 -5.999 2.60873
    endloop
  endfacet
  facet normal 0 -1 0
    outer loop
      vertex 15.3975 -5.999 6.37366
      vertex 20.9751 -5.999 9.99845
      vertex 6.36823 -5.999 6.4541
    endloop
  endfacet
  facet normal 0 -1 0
    outer loop
      vertex 20.9751 -5.999 9.99845
      vertex 15.3975 -5.999 6.37366
      vertex 15.8761 -5.999 6.49488
    endloop
  endfacet
  facet normal 0 -1 0
    outer loop
      vertex 6.82042 -5.999 6.25575
      vertex 15.3975 -5.999 6.37366
      vertex 6.36823 -5.999 6.4541
    endloop
  endfacet
  facet normal 0 -1 0
    outer loop
      vertex 6.82042 -5.999 6.25575
      vertex 14.9841 -5.999 6.10359
      vertex 15.3975 -5.999 6.37366
    endloop
  endfacet
  facet normal 0 -1 0
    outer loop
      vertex 7.18371 -5.999 5.92132
      vertex 14.9841 -5.999 6.10359
      vertex 6.82042 -5.999 6.25575
    endloop
  endfacet
  facet normal 0 -1 0
    outer loop
      vertex 7.18371 -5.999 5.92132
      vertex 14.6808 -5.999 5.71392
      vertex 14.9841 -5.999 6.10359
    endloop
  endfacet
  facet normal 0 -1 0
    outer loop
      vertex 7.41873 -5.999 5.48705
      vertex 14.6808 -5.999 5.71392
      vertex 7.18371 -5.999 5.92132
    endloop
  endfacet
  facet normal 0 -1 0
    outer loop
      vertex 7.41873 -5.999 5.48705
      vertex 14.5205 -5.999 5.24689
      vertex 14.6808 -5.999 5.71392
    endloop
  endfacet
  facet normal 0 -1 0
    outer loop
      vertex 7.5 -5.999 5
      vertex 14.5205 -5.999 5.24689
      vertex 7.41873 -5.999 5.48705
    endloop
  endfacet
  facet normal 0 -1 0
    outer loop
      vertex 7.5 -5.999 5
      vertex 14.5205 -5.999 4.75311
      vertex 14.5205 -5.999 5.24689
    endloop
  endfacet
  facet normal 0 -1 0
    outer loop
      vertex 7.41873 -5.999 4.51295
      vertex 14.5205 -5.999 4.75311
      vertex 7.5 -5.999 5
    endloop
  endfacet
  facet normal 0 -1 0
    outer loop
      vertex 7.41873 -5.999 4.51295
      vertex 14.6808 -5.999 4.28608
      vertex 14.5205 -5.999 4.75311
    endloop
  endfacet
  facet normal 0 -1 0
    outer loop
      vertex 7.18371 -5.999 4.07868
      vertex 14.6808 -5.999 4.28608
      vertex 7.41873 -5.999 4.51295
    endloop
  endfacet
  facet normal 0 -1 0
    outer loop
      vertex 7.18371 -5.999 4.07868
      vertex 14.9841 -5.999 3.89641
      vertex 14.6808 -5.999 4.28608
    endloop
  endfacet
  facet normal 0 -1 0
    outer loop
      vertex 6.82042 -5.999 3.74425
      vertex 14.9841 -5.999 3.89641
      vertex 7.18371 -5.999 4.07868
    endloop
  endfacet
  facet normal 0 -1 0
    outer loop
      vertex 6.82042 -5.999 3.74425
      vertex 15.3975 -5.999 3.62634
      vertex 14.9841 -5.999 3.89641
    endloop
  endfacet
  facet normal 0 -1 0
    outer loop
      vertex 6.36823 -5.999 3.5459
      vertex 15.3975 -5.999 3.62634
      vertex 6.82042 -5.999 3.74425
    endloop
  endfacet
  facet normal 0 -1 0
    outer loop
      vertex 0.975069 -5.999 0.00155354
      vertex 6.36823 -5.999 3.5459
      vertex 5.87613 -5.999 3.50512
    endloop
  endfacet
  facet normal 0 -1 -0
    outer loop
      vertex 6.36823 -5.999 3.5459
      vertex 0.975069 -5.999 0.00155354
      vertex 15.3975 -5.999 3.62634
    endloop
  endfacet
  facet normal 0 -1 0
    outer loop
      vertex 0.975069 -5.999 9.99845
      vertex 5.39746 -5.999 6.37366
      vertex 5.87613 -5.999 6.49488
    endloop
  endfacet
  facet normal 0 -1 0
    outer loop
      vertex 4.68079 -5.999 5.71392
      vertex 0.0603065 -5.999 6.7101
      vertex 0.0309219 -5.999 6.23379
    endloop
  endfacet
  facet normal 0 -1 0
    outer loop
      vertex 0.0990305 -5.999 7.16942
      vertex 4.98408 -5.999 6.10359
      vertex 5.39746 -5.999 6.37366
    endloop
  endfacet
  facet normal 0 -1 0
    outer loop
      vertex 4.52046 -5.999 5.24689
      vertex 0.0309219 -5.999 6.23379
      vertex 0.0111685 -5.999 5.74521
    endloop
  endfacet
  facet normal 0 -1 0
    outer loop
      vertex 0.0990305 -5.999 7.16942
      vertex 4.68079 -5.999 5.71392
      vertex 4.98408 -5.999 6.10359
    endloop
  endfacet
  facet normal 0 -1 0
    outer loop
      vertex 4.52046 -5.999 5.24689
      vertex 0.0111685 -5.999 5.74521
      vertex 0.00124264 -5.999 5.24923
    endloop
  endfacet
  facet normal 0 -1 0
    outer loop
      vertex 0.0309219 -5.999 6.23379
      vertex 4.52046 -5.999 5.24689
      vertex 4.68079 -5.999 5.71392
    endloop
  endfacet
  facet normal 0 -1 0
    outer loop
      vertex 0.00124264 -5.999 5.24923
      vertex 4.52046 -5.999 4.75311
      vertex 4.52046 -5.999 5.24689
    endloop
  endfacet
  facet normal 0 -1 0
    outer loop
      vertex 0.00124264 -5.999 4.75077
      vertex 4.52046 -5.999 4.75311
      vertex 0.00124264 -5.999 5.24923
    endloop
  endfacet
  facet normal 0 -1 0
    outer loop
      vertex 0.0111685 -5.999 4.25479
      vertex 4.52046 -5.999 4.75311
      vertex 0.00124264 -5.999 4.75077
    endloop
  endfacet
  facet normal 0 -1 0
    outer loop
      vertex 0.0309219 -5.999 3.76621
      vertex 4.52046 -5.999 4.75311
      vertex 0.0111685 -5.999 4.25479
    endloop
  endfacet
  facet normal 0 -1 -0
    outer loop
      vertex 4.52046 -5.999 4.75311
      vertex 0.0309219 -5.999 3.76621
      vertex 4.68079 -5.999 4.28608
    endloop
  endfacet
  facet normal 0 -1 0
    outer loop
      vertex 0.0603065 -5.999 3.2899
      vertex 4.68079 -5.999 4.28608
      vertex 0.0309219 -5.999 3.76621
    endloop
  endfacet
  facet normal 0 -1 0
    outer loop
      vertex 0.0990305 -5.999 2.83058
      vertex 4.68079 -5.999 4.28608
      vertex 0.0603065 -5.999 3.2899
    endloop
  endfacet
  facet normal 0 -1 0
    outer loop
      vertex 0.146708 -5.999 2.39282
      vertex 4.68079 -5.999 4.28608
      vertex 0.0990305 -5.999 2.83058
    endloop
  endfacet
  facet normal 0 -1 -0
    outer loop
      vertex 4.68079 -5.999 4.28608
      vertex 0.202867 -5.999 1.98098
      vertex 4.98408 -5.999 3.89641
    endloop
  endfacet
  facet normal 0 -1 0
    outer loop
      vertex 0.202867 -5.999 1.98098
      vertex 4.68079 -5.999 4.28608
      vertex 0.146708 -5.999 2.39282
    endloop
  endfacet
  facet normal 0 -1 0
    outer loop
      vertex 6.36823 -5.999 6.4541
      vertex 20.9751 -5.999 9.99845
      vertex 0.975069 -5.999 9.99845
    endloop
  endfacet
  facet normal 0 -1 0
    outer loop
      vertex 0.777478 -5.999 9.87464
      vertex 0.975069 -5.999 9.99845
      vertex 0.875656 -5.999 9.9612
    endloop
  endfacet
  facet normal 0 -1 0
    outer loop
      vertex 16.3682 -5.999 6.4541
      vertex 20.9751 -5.999 9.99845
      vertex 15.8761 -5.999 6.49488
    endloop
  endfacet
  facet normal 0 -1 0
    outer loop
      vertex 0.975069 -5.999 9.99845
      vertex 0.777478 -5.999 9.87464
      vertex 0.681513 -5.999 9.73964
    endloop
  endfacet
  facet normal 0 -1 0
    outer loop
      vertex 16.8204 -5.999 6.25575
      vertex 20.9751 -5.999 9.99845
      vertex 16.3682 -5.999 6.4541
    endloop
  endfacet
  facet normal 0 -1 0
    outer loop
      vertex 0.975069 -5.999 9.99845
      vertex 0.681513 -5.999 9.73964
      vertex 0.588713 -5.999 9.55753
    endloop
  endfacet
  facet normal 0 -1 0
    outer loop
      vertex 17.1837 -5.999 5.92132
      vertex 20.9751 -5.999 9.99845
      vertex 16.8204 -5.999 6.25575
    endloop
  endfacet
  facet normal 0 -1 0
    outer loop
      vertex 0.975069 -5.999 9.99845
      vertex 0.588713 -5.999 9.55753
      vertex 0.5 -5.999 9.33013
    endloop
  endfacet
  facet normal -0 -1 -0
    outer loop
      vertex 21.5425 -5.999 9.20013
      vertex 20.9751 -5.999 9.99845
      vertex 21.6235 -5.999 8.90916
    endloop
  endfacet
  facet normal 0 -1 0
    outer loop
      vertex 0.975069 -5.999 9.99845
      vertex 0.5 -5.999 9.33013
      vertex 0.416256 -5.999 9.05969
    endloop
  endfacet
  facet normal -0 -1 -0
    outer loop
      vertex 21.3653 -5.999 9.65437
      vertex 20.9751 -5.999 9.99845
      vertex 21.4562 -5.999 9.44936
    endloop
  endfacet
  facet normal 0 -1 0
    outer loop
      vertex 0.338314 -5.999 8.74891
      vertex 0.975069 -5.999 9.99845
      vertex 0.416256 -5.999 9.05969
    endloop
  endfacet
  facet normal -0 -1 -0
    outer loop
      vertex 21.2708 -5.999 9.81312
      vertex 20.9751 -5.999 9.99845
      vertex 21.3653 -5.999 9.65437
    endloop
  endfacet
  facet normal 0 -1 0
    outer loop
      vertex 5.39746 -5.999 6.37366
      vertex 0.975069 -5.999 9.99845
      vertex 0.338314 -5.999 8.74891
    endloop
  endfacet
  facet normal 0 -1 0
    outer loop
      vertex 20.9751 -5.999 9.99845
      vertex 21.1736 -5.999 9.92404
      vertex 21.0747 -5.999 9.98602
    endloop
  endfacet
  facet normal 0 -1 0
    outer loop
      vertex 5.39746 -5.999 6.37366
      vertex 0.338314 -5.999 8.74891
      vertex 0.266948 -5.999 8.40086
    endloop
  endfacet
  facet normal -0 -1 -0
    outer loop
      vertex 21.1736 -5.999 9.92404
      vertex 20.9751 -5.999 9.99845
      vertex 21.2708 -5.999 9.81312
    endloop
  endfacet
  facet normal 0 -1 0
    outer loop
      vertex 5.39746 -5.999 6.37366
      vertex 0.266948 -5.999 8.40086
      vertex 0.202867 -5.999 8.01902
    endloop
  endfacet
  facet normal 0 -1 0
    outer loop
      vertex 6.36823 -5.999 6.4541
      vertex 0.975069 -5.999 9.99845
      vertex 5.87613 -5.999 6.49488
    endloop
  endfacet
  facet normal 0 -1 0
    outer loop
      vertex 5.39746 -5.999 6.37366
      vertex 0.202867 -5.999 8.01902
      vertex 0.146708 -5.999 7.60718
    endloop
  endfacet
  facet normal -0 -1 -0
    outer loop
      vertex 21.4562 -5.999 9.44936
      vertex 20.9751 -5.999 9.99845
      vertex 21.5425 -5.999 9.20013
    endloop
  endfacet
  facet normal 0 -1 0
    outer loop
      vertex 5.39746 -5.999 6.37366
      vertex 0.146708 -5.999 7.60718
      vertex 0.0990305 -5.999 7.16942
    endloop
  endfacet
  facet normal -0 -1 0
    outer loop
      vertex 21.6982 -5.999 8.57933
      vertex 20.9751 -5.999 9.99845
      vertex 17.1837 -5.999 5.92132
    endloop
  endfacet
  facet normal 0 -1 0
    outer loop
      vertex 4.68079 -5.999 5.71392
      vertex 0.0990305 -5.999 7.16942
      vertex 0.0603065 -5.999 6.7101
    endloop
  endfacet
  facet normal 0 -1 0
    outer loop
      vertex 20.9751 -5.999 9.99845
      vertex 21.6982 -5.999 8.57933
      vertex 21.6235 -5.999 8.90916
    endloop
  endfacet
  facet normal 0 -1 -0
    outer loop
      vertex 21.6982 -5.999 8.57933
      vertex 17.1837 -5.999 5.92132
      vertex 21.766 -5.999 8.21394
    endloop
  endfacet
  facet normal 0 -1 -0
    outer loop
      vertex 21.766 -5.999 8.21394
      vertex 17.1837 -5.999 5.92132
      vertex 21.8262 -5.999 7.8166
    endloop
  endfacet
  facet normal 0 -1 -0
    outer loop
      vertex 21.8262 -5.999 7.8166
      vertex 17.1837 -5.999 5.92132
      vertex 21.8782 -5.999 7.39127
    endloop
  endfacet
  facet normal 0 -1 -0
    outer loop
      vertex 21.8782 -5.999 7.39127
      vertex 17.1837 -5.999 5.92132
      vertex 21.9215 -5.999 6.94217
    endloop
  endfacet
  facet normal 0 -1 0
    outer loop
      vertex 17.4187 -5.999 5.48705
      vertex 21.9215 -5.999 6.94217
      vertex 17.1837 -5.999 5.92132
    endloop
  endfacet
  facet normal 0 -1 -0
    outer loop
      vertex 21.9215 -5.999 6.94217
      vertex 17.4187 -5.999 5.48705
      vertex 21.9556 -5.999 6.47378
    endloop
  endfacet
  facet normal 0 -1 -0
    outer loop
      vertex 21.9556 -5.999 6.47378
      vertex 17.4187 -5.999 5.48705
      vertex 21.9802 -5.999 5.99073
    endloop
  endfacet
  facet normal 0 -1 -0
    outer loop
      vertex 21.9802 -5.999 5.99073
      vertex 17.4187 -5.999 5.48705
      vertex 21.995 -5.999 5.49784
    endloop
  endfacet
  facet normal 0 -1 0
    outer loop
      vertex 17.5 -5.999 5
      vertex 21.995 -5.999 5.49784
      vertex 17.4187 -5.999 5.48705
    endloop
  endfacet
  facet normal 0 -1 0
    outer loop
      vertex 17.5 -5.999 5
      vertex 22 -5.999 5
      vertex 21.995 -5.999 5.49784
    endloop
  endfacet
  facet normal 0 -1 0
    outer loop
      vertex 21.995 -5.999 4.50216
      vertex 17.5 -5.999 5
      vertex 17.4187 -5.999 4.51295
    endloop
  endfacet
  facet normal 0 -1 0
    outer loop
      vertex 17.5 -5.999 5
      vertex 21.995 -5.999 4.50216
      vertex 22 -5.999 5
    endloop
  endfacet
  facet normal 0 -1 0
    outer loop
      vertex 21.9215 -5.999 3.05783
      vertex 17.4187 -5.999 4.51295
      vertex 17.1837 -5.999 4.07868
    endloop
  endfacet
  facet normal 0 -1 0
    outer loop
      vertex 17.4187 -5.999 4.51295
      vertex 21.9802 -5.999 4.00927
      vertex 21.995 -5.999 4.50216
    endloop
  endfacet
  facet normal 0 -1 0
    outer loop
      vertex 20.9751 -5.999 0.00155354
      vertex 17.1837 -5.999 4.07868
      vertex 16.8204 -5.999 3.74425
    endloop
  endfacet
  facet normal 0 -1 0
    outer loop
      vertex 20.9751 -5.999 0.00155354
      vertex 16.8204 -5.999 3.74425
      vertex 16.3682 -5.999 3.5459
    endloop
  endfacet
  facet normal 0 -1 0
    outer loop
      vertex 17.4187 -5.999 4.51295
      vertex 21.9556 -5.999 3.52622
      vertex 21.9802 -5.999 4.00927
    endloop
  endfacet
  facet normal 0 -1 0
    outer loop
      vertex 20.9751 -5.999 0.00155354
      vertex 16.3682 -5.999 3.5459
      vertex 15.8761 -5.999 3.50512
    endloop
  endfacet
  facet normal 0 -1 0
    outer loop
      vertex 20.9751 -5.999 0.00155354
      vertex 15.3975 -5.999 3.62634
      vertex 0.975069 -5.999 0.00155354
    endloop
  endfacet
  facet normal 0 -1 0
    outer loop
      vertex 17.1837 -5.999 4.07868
      vertex 20.9751 -5.999 0.00155354
      vertex 21.6982 -5.999 1.42067
    endloop
  endfacet
  facet normal 0 -1 0
    outer loop
      vertex 0.266948 -5.999 1.59914
      vertex 4.98408 -5.999 3.89641
      vertex 0.202867 -5.999 1.98098
    endloop
  endfacet
  facet normal 0 -1 0
    outer loop
      vertex 17.4187 -5.999 4.51295
      vertex 21.9215 -5.999 3.05783
      vertex 21.9556 -5.999 3.52622
    endloop
  endfacet
  facet normal 0 -1 0
    outer loop
      vertex 0.338314 -5.999 1.25109
      vertex 4.98408 -5.999 3.89641
      vertex 0.266948 -5.999 1.59914
    endloop
  endfacet
  facet normal 0 -1 0
    outer loop
      vertex 17.1837 -5.999 4.07868
      vertex 21.8782 -5.999 2.60873
      vertex 21.9215 -5.999 3.05783
    endloop
  endfacet
  facet normal 0 -1 0
    outer loop
      vertex 0.975069 -5.999 0.00155354
      vertex 4.98408 -5.999 3.89641
      vertex 0.338314 -5.999 1.25109
    endloop
  endfacet
  facet normal 0 -1 0
    outer loop
      vertex 17.1837 -5.999 4.07868
      vertex 21.8262 -5.999 2.1834
      vertex 21.8782 -5.999 2.60873
    endloop
  endfacet
  facet normal 0 -1 -0
    outer loop
      vertex 4.98408 -5.999 3.89641
      vertex 0.975069 -5.999 0.00155354
      vertex 5.39746 -5.999 3.62634
    endloop
  endfacet
  facet normal 0 -1 0
    outer loop
      vertex 17.1837 -5.999 4.07868
      vertex 21.766 -5.999 1.78606
      vertex 21.8262 -5.999 2.1834
    endloop
  endfacet
  facet normal 0 -1 -0
    outer loop
      vertex 5.39746 -5.999 3.62634
      vertex 0.975069 -5.999 0.00155354
      vertex 5.87613 -5.999 3.50512
    endloop
  endfacet
  facet normal 0 -1 0
    outer loop
      vertex 17.1837 -5.999 4.07868
      vertex 21.6982 -5.999 1.42067
      vertex 21.766 -5.999 1.78606
    endloop
  endfacet
  facet normal 0 -1 0
    outer loop
      vertex 0.975069 -5.999 0.00155354
      vertex 0.338314 -5.999 1.25109
      vertex 0.416256 -5.999 0.94031
    endloop
  endfacet
  facet normal 0 -1 0
    outer loop
      vertex 21.6982 -5.999 1.42067
      vertex 20.9751 -5.999 0.00155354
      vertex 21.6235 -5.999 1.09084
    endloop
  endfacet
  facet normal 0 -1 0
    outer loop
      vertex 0.975069 -5.999 0.00155354
      vertex 0.416256 -5.999 0.94031
      vertex 0.5 -5.999 0.669872
    endloop
  endfacet
  facet normal 0 -1 0
    outer loop
      vertex 21.6235 -5.999 1.09084
      vertex 20.9751 -5.999 0.00155354
      vertex 21.5425 -5.999 0.79987
    endloop
  endfacet
  facet normal 0 -1 0
    outer loop
      vertex 0.975069 -5.999 0.00155354
      vertex 0.5 -5.999 0.669872
      vertex 0.588713 -5.999 0.442471
    endloop
  endfacet
  facet normal 0 -1 0
    outer loop
      vertex 21.5425 -5.999 0.79987
      vertex 20.9751 -5.999 0.00155354
      vertex 21.4562 -5.999 0.55064
    endloop
  endfacet
  facet normal 0 -1 0
    outer loop
      vertex 0.975069 -5.999 0.00155354
      vertex 0.588713 -5.999 0.442471
      vertex 0.681513 -5.999 0.260363
    endloop
  endfacet
  facet normal 0 -1 0
    outer loop
      vertex 21.4562 -5.999 0.55064
      vertex 20.9751 -5.999 0.00155354
      vertex 21.3653 -5.999 0.345631
    endloop
  endfacet
  facet normal 0 -1 0
    outer loop
      vertex 0.975069 -5.999 0.00155354
      vertex 0.681513 -5.999 0.260363
      vertex 0.777478 -5.999 0.12536
    endloop
  endfacet
  facet normal 0 -1 0
    outer loop
      vertex 21.3653 -5.999 0.345631
      vertex 20.9751 -5.999 0.00155354
      vertex 21.2708 -5.999 0.186878
    endloop
  endfacet
  facet normal 0 -1 0
    outer loop
      vertex 0.975069 -5.999 0.00155354
      vertex 0.777478 -5.999 0.12536
      vertex 0.875656 -5.999 0.0388031
    endloop
  endfacet
  facet normal 0 -1 0
    outer loop
      vertex 21.2708 -5.999 0.186878
      vertex 20.9751 -5.999 0.00155354
      vertex 21.1736 -5.999 0.0759611
    endloop
  endfacet
  facet normal 0 -1 0
    outer loop
      vertex 15.3975 -5.999 3.62634
      vertex 20.9751 -5.999 0.00155354
      vertex 15.8761 -5.999 3.50512
    endloop
  endfacet
  facet normal 0 -1 0
    outer loop
      vertex 21.1736 -5.999 0.0759611
      vertex 20.9751 -5.999 0.00155354
      vertex 21.0747 -5.999 0.0139809
    endloop
  endfacet
  facet normal -0.890986 0 0.454031
    outer loop
      vertex 0.588713 -5.999 9.55753
      vertex 0.681513 0 9.73964
      vertex 0.588713 0 9.55753
    endloop
  endfacet
  facet normal -0.890986 0 0.454031
    outer loop
      vertex 0.681513 0 9.73964
      vertex 0.588713 -5.999 9.55753
      vertex 0.681513 -5.999 9.73964
    endloop
  endfacet
  facet normal 0.859283 0 -0.511501
    outer loop
      vertex 21.3653 -5.999 0.345631
      vertex 21.2708 0.000999451 0.186878
      vertex 21.3653 0.000999451 0.345631
    endloop
  endfacet
  facet normal 0.859283 0 -0.511501
    outer loop
      vertex 21.2708 0.000999451 0.186878
      vertex 21.3653 -5.999 0.345631
      vertex 21.2708 -5.999 0.186878
    endloop
  endfacet
  facet normal 0.992609 -0 0.121354
    outer loop
      vertex 21.8262 -5.999 7.8166
      vertex 21.8782 0.000999451 7.39127
      vertex 21.8262 0.000999451 7.8166
    endloop
  endfacet
  facet normal 0.992609 0 0.121354
    outer loop
      vertex 21.8782 0.000999451 7.39127
      vertex 21.8262 -5.999 7.8166
      vertex 21.8782 -5.999 7.39127
    endloop
  endfacet
  facet normal 0.531032 0 -0.847352
    outer loop
      vertex 21.0747 -5.999 0.0139809
      vertex 21.1736 0.000999451 0.0759611
      vertex 21.1736 -5.999 0.0759611
    endloop
  endfacet
  facet normal 0.531032 0 -0.847352
    outer loop
      vertex 21.1736 0.000999451 0.0759611
      vertex 21.0747 -5.999 0.0139809
      vertex 21.0747 0.000999451 0.0139809
    endloop
  endfacet
  facet normal -0.815055 0 0.579383
    outer loop
      vertex 0.681513 -5.999 9.73964
      vertex 0.777478 0 9.87464
      vertex 0.681513 0 9.73964
    endloop
  endfacet
  facet normal -0.815055 0 0.579383
    outer loop
      vertex 0.777478 0 9.87464
      vertex 0.681513 -5.999 9.73964
      vertex 0.777478 -5.999 9.87464
    endloop
  endfacet
  facet normal 0.983217 0 -0.182441
    outer loop
      vertex 21.766 -5.999 1.78606
      vertex 21.6982 0.000999451 1.42067
      vertex 21.766 0.000999451 1.78606
    endloop
  endfacet
  facet normal 0.983217 0 -0.182441
    outer loop
      vertex 21.6982 0.000999451 1.42067
      vertex 21.766 -5.999 1.78606
      vertex 21.6982 -5.999 1.42067
    endloop
  endfacet
  facet normal -0.931617 0 0.363441
    outer loop
      vertex 0.5 -5.999 9.33013
      vertex 0.588713 0 9.55753
      vertex 0.5 0 9.33013
    endloop
  endfacet
  facet normal -0.931617 0 0.363441
    outer loop
      vertex 0.588713 0 9.55753
      vertex 0.5 -5.999 9.33013
      vertex 0.588713 -5.999 9.55753
    endloop
  endfacet
  facet normal -0.87947 0 -0.475955
    outer loop
      vertex 7.41873 -5.999 5.48705
      vertex 7.18371 7 5.92132
      vertex 7.41873 7 5.48705
    endloop
  endfacet
  facet normal -0.87947 -0 -0.475955
    outer loop
      vertex 7.18371 7 5.92132
      vertex 7.41873 -5.999 5.48705
      vertex 7.18371 -5.999 5.92132
    endloop
  endfacet
  facet normal -0.986363 0 -0.164586
    outer loop
      vertex 7.5 -5.999 5
      vertex 7.41873 7 5.48705
      vertex 7.5 7 5
    endloop
  endfacet
  facet normal -0.986363 -0 -0.164586
    outer loop
      vertex 7.41873 7 5.48705
      vertex 7.5 -5.999 5
      vertex 7.41873 -5.999 5.48705
    endloop
  endfacet
  facet normal 0.245494 0 -0.969398
    outer loop
      vertex 5.39746 4.58983 6.37366
      vertex 5.87613 -5.999 6.49488
      vertex 5.39746 -5.999 6.37366
    endloop
  endfacet
  facet normal 0.245494 0 -0.969398
    outer loop
      vertex 5.87613 -5.999 6.49488
      vertex 5.39746 4.58983 6.37366
      vertex 5.87613 6.50452 6.49488
    endloop
  endfacet
  facet normal -0.0825862 0 -0.996584
    outer loop
      vertex 5.87613 6.50452 6.49488
      vertex 6.36823 7 6.4541
      vertex 6.36823 -5.999 6.4541
    endloop
  endfacet
  facet normal -0.0825862 -0 -0.996584
    outer loop
      vertex 5.87613 6.50452 6.49488
      vertex 6.36823 -5.999 6.4541
      vertex 5.87613 -5.999 6.49488
    endloop
  endfacet
  facet normal -0.0825729 -1.33737e-05 -0.996585
    outer loop
      vertex 6.36823 7 6.4541
      vertex 5.87613 6.50452 6.49488
      vertex 6 7 6.48461
    endloop
  endfacet
  facet normal -0.677279 0 -0.735726
    outer loop
      vertex 6.82042 -5.999 6.25575
      vertex 7.18371 7 5.92132
      vertex 7.18371 -5.999 5.92132
    endloop
  endfacet
  facet normal -0.677279 0 -0.735726
    outer loop
      vertex 7.18371 7 5.92132
      vertex 6.82042 -5.999 6.25575
      vertex 6.82042 7 6.25575
    endloop
  endfacet
  facet normal 0.245494 0 0.969398
    outer loop
      vertex 5.39746 4.58983 3.62634
      vertex 5.87613 -5.999 3.50512
      vertex 5.87613 6.50452 3.50512
    endloop
  endfacet
  facet normal 0.245494 0 0.969398
    outer loop
      vertex 5.87613 -5.999 3.50512
      vertex 5.39746 4.58983 3.62634
      vertex 5.39746 -5.999 3.62634
    endloop
  endfacet
  facet normal -0.87947 0 0.475955
    outer loop
      vertex 7.18371 -5.999 4.07868
      vertex 7.41873 7 4.51295
      vertex 7.18371 7 4.07868
    endloop
  endfacet
  facet normal -0.87947 0 0.475955
    outer loop
      vertex 7.41873 7 4.51295
      vertex 7.18371 -5.999 4.07868
      vertex 7.41873 -5.999 4.51295
    endloop
  endfacet
  facet normal 0.789143 0 -0.61421
    outer loop
      vertex 4.98408 -5.999 6.10359
      vertex 4.68079 3 5.71392
      vertex 4.98408 3 6.10359
    endloop
  endfacet
  facet normal 0.789143 0 -0.61421
    outer loop
      vertex 4.68079 3 5.71392
      vertex 4.98408 -5.999 6.10359
      vertex 4.68079 -5.999 5.71392
    endloop
  endfacet
  facet normal -0.401697 0 0.915773
    outer loop
      vertex 6.36823 7 3.5459
      vertex 6.82042 -5.999 3.74425
      vertex 6.82042 7 3.74425
    endloop
  endfacet
  facet normal -0.401697 0 0.915773
    outer loop
      vertex 6.82042 -5.999 3.74425
      vertex 6.36823 7 3.5459
      vertex 6.36823 -5.999 3.5459
    endloop
  endfacet
  facet normal -0.677279 0 0.735726
    outer loop
      vertex 6.82042 7 3.74425
      vertex 7.18371 -5.999 4.07868
      vertex 7.18371 7 4.07868
    endloop
  endfacet
  facet normal -0.677279 0 0.735726
    outer loop
      vertex 7.18371 -5.999 4.07868
      vertex 6.82042 7 3.74425
      vertex 6.82042 -5.999 3.74425
    endloop
  endfacet
  facet normal -0.401697 0 -0.915773
    outer loop
      vertex 6.36823 -5.999 6.4541
      vertex 6.82042 7 6.25575
      vertex 6.82042 -5.999 6.25575
    endloop
  endfacet
  facet normal -0.401697 0 -0.915773
    outer loop
      vertex 6.82042 7 6.25575
      vertex 6.36823 -5.999 6.4541
      vertex 6.36823 7 6.4541
    endloop
  endfacet
  facet normal 0.945818 0 -0.324697
    outer loop
      vertex 4.68079 -5.999 5.71392
      vertex 4.52046 3 5.24689
      vertex 4.68079 3 5.71392
    endloop
  endfacet
  facet normal 0.945818 0 -0.324697
    outer loop
      vertex 4.52046 3 5.24689
      vertex 4.68079 -5.999 5.71392
      vertex 4.52046 -5.999 5.24689
    endloop
  endfacet
  facet normal 1 -0 0
    outer loop
      vertex 4.52046 -5.999 5.24689
      vertex 4.52046 3 4.75311
      vertex 4.52046 3 5.24689
    endloop
  endfacet
  facet normal 1 0 0
    outer loop
      vertex 4.52046 3 4.75311
      vertex 4.52046 -5.999 5.24689
      vertex 4.52046 -5.999 4.75311
    endloop
  endfacet
  facet normal -0.986363 0 0.164586
    outer loop
      vertex 7.41873 -5.999 4.51295
      vertex 7.5 7 5
      vertex 7.41873 7 4.51295
    endloop
  endfacet
  facet normal -0.986363 0 0.164586
    outer loop
      vertex 7.5 7 5
      vertex 7.41873 -5.999 4.51295
      vertex 7.5 -5.999 5
    endloop
  endfacet
  facet normal -0.0825729 -1.33737e-05 0.996585
    outer loop
      vertex 5.87613 6.50452 3.50512
      vertex 6.36823 7 3.5459
      vertex 6 7 3.51539
    endloop
  endfacet
  facet normal -0.0825862 0 0.996584
    outer loop
      vertex 6.36823 7 3.5459
      vertex 5.87613 6.50452 3.50512
      vertex 6.36823 -5.999 3.5459
    endloop
  endfacet
  facet normal -0.0825862 0 0.996584
    outer loop
      vertex 6.36823 -5.999 3.5459
      vertex 5.87613 6.50452 3.50512
      vertex 5.87613 -5.999 3.50512
    endloop
  endfacet
  facet normal 0.789143 -0 0.61421
    outer loop
      vertex 4.68079 -5.999 4.28608
      vertex 4.98408 3 3.89641
      vertex 4.68079 3 4.28608
    endloop
  endfacet
  facet normal 0.789143 0 0.61421
    outer loop
      vertex 4.98408 3 3.89641
      vertex 4.68079 -5.999 4.28608
      vertex 4.98408 -5.999 3.89641
    endloop
  endfacet
  facet normal 0.546943 0 -0.83717
    outer loop
      vertex 5.39746 -5.999 6.37366
      vertex 5 3 6.11399
      vertex 5.39746 4.58983 6.37366
    endloop
  endfacet
  facet normal 0.546942 -8.15565e-08 -0.837171
    outer loop
      vertex 4.98408 -5.999 6.10359
      vertex 5 3 6.11399
      vertex 5.39746 -5.999 6.37366
    endloop
  endfacet
  facet normal 0.546909 0 -0.837192
    outer loop
      vertex 5 3 6.11399
      vertex 4.98408 -5.999 6.10359
      vertex 4.98408 3 6.10359
    endloop
  endfacet
  facet normal 0.945818 -0 0.324697
    outer loop
      vertex 4.52046 -5.999 4.75311
      vertex 4.68079 3 4.28608
      vertex 4.52046 3 4.75311
    endloop
  endfacet
  facet normal 0.945818 0 0.324697
    outer loop
      vertex 4.68079 3 4.28608
      vertex 4.52046 -5.999 4.75311
      vertex 4.68079 -5.999 4.28608
    endloop
  endfacet
  facet normal 0.546943 0 0.83717
    outer loop
      vertex 5 3 3.88601
      vertex 5.39746 -5.999 3.62634
      vertex 5.39746 4.58983 3.62634
    endloop
  endfacet
  facet normal 0.546909 -0 0.837192
    outer loop
      vertex 4.98408 -5.999 3.89641
      vertex 5 3 3.88601
      vertex 4.98408 3 3.89641
    endloop
  endfacet
  facet normal 0.546942 -8.15565e-08 0.837171
    outer loop
      vertex 5 3 3.88601
      vertex 4.98408 -5.999 3.89641
      vertex 5.39746 -5.999 3.62634
    endloop
  endfacet
  facet normal 0.945837 0 -0.324642
    outer loop
      vertex 14.6808 -5.999 5.71392
      vertex 14.5205 0.000999451 5.24689
      vertex 14.6808 0.000999451 5.71392
    endloop
  endfacet
  facet normal 0.945837 0 -0.324642
    outer loop
      vertex 14.5205 0.000999451 5.24689
      vertex 14.6808 -5.999 5.71392
      vertex 14.5205 -5.999 5.24689
    endloop
  endfacet
  facet normal -0.879487 0 -0.475924
    outer loop
      vertex 17.4187 -5.999 5.48705
      vertex 17.1837 0.000999451 5.92132
      vertex 17.4187 0.000999451 5.48705
    endloop
  endfacet
  facet normal -0.879487 -0 -0.475924
    outer loop
      vertex 17.1837 0.000999451 5.92132
      vertex 17.4187 -5.999 5.48705
      vertex 17.1837 -5.999 5.92132
    endloop
  endfacet
  facet normal -0.986353 0 -0.164645
    outer loop
      vertex 17.5 -5.999 5
      vertex 17.4187 0.000999451 5.48705
      vertex 17.5 0.000999451 5
    endloop
  endfacet
  facet normal -0.986353 -0 -0.164645
    outer loop
      vertex 17.4187 0.000999451 5.48705
      vertex 17.5 -5.999 5
      vertex 17.4187 -5.999 5.48705
    endloop
  endfacet
  facet normal -0.0825862 0 -0.996584
    outer loop
      vertex 15.8761 -5.999 6.49488
      vertex 16.3682 0.000999451 6.4541
      vertex 16.3682 -5.999 6.4541
    endloop
  endfacet
  facet normal -0.0825862 0 -0.996584
    outer loop
      vertex 16.3682 0.000999451 6.4541
      vertex 15.8761 -5.999 6.49488
      vertex 15.8761 0.000999451 6.49488
    endloop
  endfacet
  facet normal -0.40169 0 -0.915776
    outer loop
      vertex 16.3682 -5.999 6.4541
      vertex 16.8204 0.000999451 6.25575
      vertex 16.8204 -5.999 6.25575
    endloop
  endfacet
  facet normal -0.40169 0 -0.915776
    outer loop
      vertex 16.8204 0.000999451 6.25575
      vertex 16.3682 -5.999 6.4541
      vertex 16.3682 0.000999451 6.4541
    endloop
  endfacet
  facet normal -0.677269 0 -0.735735
    outer loop
      vertex 16.8204 -5.999 6.25575
      vertex 17.1837 0.000999451 5.92132
      vertex 17.1837 -5.999 5.92132
    endloop
  endfacet
  facet normal -0.677269 0 -0.735735
    outer loop
      vertex 17.1837 0.000999451 5.92132
      vertex 16.8204 -5.999 6.25575
      vertex 16.8204 0.000999451 6.25575
    endloop
  endfacet
  facet normal 0.245527 0 0.96939
    outer loop
      vertex 15.3975 0.000999451 3.62634
      vertex 15.8761 -5.999 3.50512
      vertex 15.8761 0.000999451 3.50512
    endloop
  endfacet
  facet normal 0.245527 0 0.96939
    outer loop
      vertex 15.8761 -5.999 3.50512
      vertex 15.3975 0.000999451 3.62634
      vertex 15.3975 -5.999 3.62634
    endloop
  endfacet
  facet normal 0.789133 -0 0.614222
    outer loop
      vertex 14.6808 -5.999 4.28608
      vertex 14.9841 0.000999451 3.89641
      vertex 14.6808 0.000999451 4.28608
    endloop
  endfacet
  facet normal 0.789133 0 0.614222
    outer loop
      vertex 14.9841 0.000999451 3.89641
      vertex 14.6808 -5.999 4.28608
      vertex 14.9841 -5.999 3.89641
    endloop
  endfacet
  facet normal 0.546923 0 -0.837183
    outer loop
      vertex 14.9841 -5.999 6.10359
      vertex 15.3975 0.000999451 6.37366
      vertex 15.3975 -5.999 6.37366
    endloop
  endfacet
  facet normal 0.546923 0 -0.837183
    outer loop
      vertex 15.3975 0.000999451 6.37366
      vertex 14.9841 -5.999 6.10359
      vertex 14.9841 0.000999451 6.10359
    endloop
  endfacet
  facet normal 1 -0 0
    outer loop
      vertex 14.5205 -5.999 5.24689
      vertex 14.5205 0.000999451 4.75311
      vertex 14.5205 0.000999451 5.24689
    endloop
  endfacet
  facet normal 1 0 0
    outer loop
      vertex 14.5205 0.000999451 4.75311
      vertex 14.5205 -5.999 5.24689
      vertex 14.5205 -5.999 4.75311
    endloop
  endfacet
  facet normal -0.40169 0 0.915776
    outer loop
      vertex 16.3682 0.000999451 3.5459
      vertex 16.8204 -5.999 3.74425
      vertex 16.8204 0.000999451 3.74425
    endloop
  endfacet
  facet normal -0.40169 0 0.915776
    outer loop
      vertex 16.8204 -5.999 3.74425
      vertex 16.3682 0.000999451 3.5459
      vertex 16.3682 -5.999 3.5459
    endloop
  endfacet
  facet normal -0.986353 0 0.164645
    outer loop
      vertex 17.4187 -5.999 4.51295
      vertex 17.5 0.000999451 5
      vertex 17.4187 0.000999451 4.51295
    endloop
  endfacet
  facet normal -0.986353 0 0.164645
    outer loop
      vertex 17.5 0.000999451 5
      vertex 17.4187 -5.999 4.51295
      vertex 17.5 -5.999 5
    endloop
  endfacet
  facet normal -0.677269 0 0.735735
    outer loop
      vertex 16.8204 0.000999451 3.74425
      vertex 17.1837 -5.999 4.07868
      vertex 17.1837 0.000999451 4.07868
    endloop
  endfacet
  facet normal -0.677269 0 0.735735
    outer loop
      vertex 17.1837 -5.999 4.07868
      vertex 16.8204 0.000999451 3.74425
      vertex 16.8204 -5.999 3.74425
    endloop
  endfacet
  facet normal 0.945837 -0 0.324642
    outer loop
      vertex 14.5205 -5.999 4.75311
      vertex 14.6808 0.000999451 4.28608
      vertex 14.5205 0.000999451 4.75311
    endloop
  endfacet
  facet normal 0.945837 0 0.324642
    outer loop
      vertex 14.6808 0.000999451 4.28608
      vertex 14.5205 -5.999 4.75311
      vertex 14.6808 -5.999 4.28608
    endloop
  endfacet
  facet normal 0.245527 0 -0.96939
    outer loop
      vertex 15.3975 -5.999 6.37366
      vertex 15.8761 0.000999451 6.49488
      vertex 15.8761 -5.999 6.49488
    endloop
  endfacet
  facet normal 0.245527 0 -0.96939
    outer loop
      vertex 15.8761 0.000999451 6.49488
      vertex 15.3975 -5.999 6.37366
      vertex 15.3975 0.000999451 6.37366
    endloop
  endfacet
  facet normal -0.0825862 0 0.996584
    outer loop
      vertex 15.8761 0.000999451 3.50512
      vertex 16.3682 -5.999 3.5459
      vertex 16.3682 0.000999451 3.5459
    endloop
  endfacet
  facet normal -0.0825862 0 0.996584
    outer loop
      vertex 16.3682 -5.999 3.5459
      vertex 15.8761 0.000999451 3.50512
      vertex 15.8761 -5.999 3.50512
    endloop
  endfacet
  facet normal -0.879487 0 0.475924
    outer loop
      vertex 17.1837 -5.999 4.07868
      vertex 17.4187 0.000999451 4.51295
      vertex 17.1837 0.000999451 4.07868
    endloop
  endfacet
  facet normal -0.879487 0 0.475924
    outer loop
      vertex 17.4187 0.000999451 4.51295
      vertex 17.1837 -5.999 4.07868
      vertex 17.4187 -5.999 4.51295
    endloop
  endfacet
  facet normal 0.789133 0 -0.614222
    outer loop
      vertex 14.9841 -5.999 6.10359
      vertex 14.6808 0.000999451 5.71392
      vertex 14.9841 0.000999451 6.10359
    endloop
  endfacet
  facet normal 0.789133 0 -0.614222
    outer loop
      vertex 14.6808 0.000999451 5.71392
      vertex 14.9841 -5.999 6.10359
      vertex 14.6808 -5.999 5.71392
    endloop
  endfacet
  facet normal 0.546923 0 0.837183
    outer loop
      vertex 14.9841 0.000999451 3.89641
      vertex 15.3975 -5.999 3.62634
      vertex 15.3975 0.000999451 3.62634
    endloop
  endfacet
  facet normal 0.546923 0 0.837183
    outer loop
      vertex 15.3975 -5.999 3.62634
      vertex 14.9841 0.000999451 3.89641
      vertex 14.9841 -5.999 3.89641
    endloop
  endfacet
  facet normal -0.970143 0.242536 0
    outer loop
      vertex 5.87613 6.50452 6.49488
      vertex 6 7 20.8
      vertex 6 7 6.48461
    endloop
  endfacet
  facet normal -0.970143 0.242534 4.39709e-08
    outer loop
      vertex 5.39746 4.58983 6.37366
      vertex 6 7 20.8
      vertex 5.87613 6.50452 6.49488
    endloop
  endfacet
  facet normal -0.970142 0.242537 0
    outer loop
      vertex 5 3 20.8
      vertex 5.39746 4.58983 6.37366
      vertex 5 3 6.11399
    endloop
  endfacet
  facet normal -0.970143 0.242536 -1.6812e-07
    outer loop
      vertex 5.39746 4.58983 6.37366
      vertex 5 3 20.8
      vertex 6 7 20.8
    endloop
  endfacet
  facet normal -0.970143 0.242536 0
    outer loop
      vertex 6 7 0
      vertex 5.87613 6.50452 3.50512
      vertex 6 7 3.51539
    endloop
  endfacet
  facet normal -0.970143 0.242534 -1.80678e-07
    outer loop
      vertex 6 7 0
      vertex 5.39746 4.58983 3.62634
      vertex 5.87613 6.50452 3.50512
    endloop
  endfacet
  facet normal -0.970143 0.242536 6.68817e-07
    outer loop
      vertex 5 3 0
      vertex 5.39746 4.58983 3.62634
      vertex 6 7 0
    endloop
  endfacet
  facet normal -0.970142 0.242537 0
    outer loop
      vertex 5.39746 4.58983 3.62634
      vertex 5 3 0
      vertex 5 3 3.88601
    endloop
  endfacet
  facet normal 0 1 0
    outer loop
      vertex 5 3 20.8
      vertex 0.123304 3 18.6454
      vertex -5 3 20.8
    endloop
  endfacet
  facet normal 0 1 0
    outer loop
      vertex 5 3 20.8
      vertex 0.602812 3 18.5359
      vertex 0.123304 3 18.6454
    endloop
  endfacet
  facet normal 0 1 0
    outer loop
      vertex 5 3 20.8
      vertex 1.02876 3 18.29
      vertex 0.602812 3 18.5359
    endloop
  endfacet
  facet normal 0 1 0
    outer loop
      vertex 5 3 20.8
      vertex 1.36329 3 17.9295
      vertex 1.02876 3 18.29
    endloop
  endfacet
  facet normal 0 1 0
    outer loop
      vertex 5 3 20.8
      vertex 1.57669 3 17.4863
      vertex 1.36329 3 17.9295
    endloop
  endfacet
  facet normal 0 1 0
    outer loop
      vertex 5 3 20.8
      vertex 1.65 3 17
      vertex 1.57669 3 17.4863
    endloop
  endfacet
  facet normal 0 1 0
    outer loop
      vertex 5 3 20.8
      vertex 1.57669 3 16.5137
      vertex 1.65 3 17
    endloop
  endfacet
  facet normal 0 1 -0
    outer loop
      vertex 5 3 6.11399
      vertex 1.57669 3 16.5137
      vertex 5 3 20.8
    endloop
  endfacet
  facet normal 0 1 -0
    outer loop
      vertex 4.98408 3 6.10359
      vertex 0.602812 3 15.4641
      vertex 5 3 6.11399
    endloop
  endfacet
  facet normal 0 1 0
    outer loop
      vertex 1.02876 3 15.71
      vertex 5 3 6.11399
      vertex 0.602812 3 15.4641
    endloop
  endfacet
  facet normal 0 1 0
    outer loop
      vertex 1.36329 3 16.0705
      vertex 5 3 6.11399
      vertex 1.02876 3 15.71
    endloop
  endfacet
  facet normal 0 1 0
    outer loop
      vertex 1.57669 3 16.5137
      vertex 5 3 6.11399
      vertex 1.36329 3 16.0705
    endloop
  endfacet
  facet normal 0 1 -0
    outer loop
      vertex -0.367159 3 18.6086
      vertex -5 3 20.8
      vertex 0.123304 3 18.6454
    endloop
  endfacet
  facet normal 0 1 -0
    outer loop
      vertex -0.825 3 18.4289
      vertex -5 3 20.8
      vertex -0.367159 3 18.6086
    endloop
  endfacet
  facet normal 0 1 -0
    outer loop
      vertex -1.20953 3 18.1223
      vertex -5 3 20.8
      vertex -0.825 3 18.4289
    endloop
  endfacet
  facet normal 0 1 -0
    outer loop
      vertex -1.4866 3 17.7159
      vertex -5 3 20.8
      vertex -1.20953 3 18.1223
    endloop
  endfacet
  facet normal 0 1 -0
    outer loop
      vertex -1.63157 3 17.2459
      vertex -5 3 20.8
      vertex -1.4866 3 17.7159
    endloop
  endfacet
  facet normal 0 1 -0
    outer loop
      vertex -1.63157 3 16.7541
      vertex -5 3 20.8
      vertex -1.63157 3 17.2459
    endloop
  endfacet
  facet normal 0 1 0
    outer loop
      vertex -1.4866 3 16.2841
      vertex -5 3 20.8
      vertex -1.63157 3 16.7541
    endloop
  endfacet
  facet normal 0 1 0
    outer loop
      vertex -5 3 0
      vertex -1.4866 3 16.2841
      vertex -1.20953 3 15.8777
    endloop
  endfacet
  facet normal 0 1 0
    outer loop
      vertex 0.602812 3 15.4641
      vertex 4.98408 3 6.10359
      vertex 0.123304 3 15.3546
    endloop
  endfacet
  facet normal 0 1 -0
    outer loop
      vertex 4.68079 3 5.71392
      vertex 0.123304 3 15.3546
      vertex 4.98408 3 6.10359
    endloop
  endfacet
  facet normal 0 1 0
    outer loop
      vertex 0.123304 3 15.3546
      vertex 4.68079 3 5.71392
      vertex -0.367159 3 15.3914
    endloop
  endfacet
  facet normal 0 1 -0
    outer loop
      vertex 4.52046 3 5.24689
      vertex -0.367159 3 15.3914
      vertex 4.68079 3 5.71392
    endloop
  endfacet
  facet normal 0 1 0
    outer loop
      vertex -5 3 0
      vertex -0.367159 3 15.3914
      vertex 4.52046 3 5.24689
    endloop
  endfacet
  facet normal 0 1 0
    outer loop
      vertex -0.367159 3 15.3914
      vertex -5 3 0
      vertex -0.825 3 15.5711
    endloop
  endfacet
  facet normal 0 1 0
    outer loop
      vertex -0.825 3 15.5711
      vertex -5 3 0
      vertex -1.20953 3 15.8777
    endloop
  endfacet
  facet normal 0 1 0
    outer loop
      vertex -5 3 0
      vertex 4.52046 3 5.24689
      vertex 4.52046 3 4.75311
    endloop
  endfacet
  facet normal 0 1 0
    outer loop
      vertex -5 3 0
      vertex 4.52046 3 4.75311
      vertex 4.68079 3 4.28608
    endloop
  endfacet
  facet normal 0 1 -0
    outer loop
      vertex 5 3 0
      vertex 4.98408 3 3.89641
      vertex 5 3 3.88601
    endloop
  endfacet
  facet normal 0 1 0
    outer loop
      vertex 5 3 0
      vertex 4.68079 3 4.28608
      vertex 4.98408 3 3.89641
    endloop
  endfacet
  facet normal 0 1 0
    outer loop
      vertex -5 3 0
      vertex 4.68079 3 4.28608
      vertex 5 3 0
    endloop
  endfacet
  facet normal 0 1 0
    outer loop
      vertex -1.4866 3 16.2841
      vertex -5 3 0
      vertex -5 3 20.8
    endloop
  endfacet
  facet normal 0.970143 0.242536 0
    outer loop
      vertex -5 3 20.8
      vertex -6 7 0
      vertex -6 7 20.8
    endloop
  endfacet
  facet normal 0.970143 0.242536 0
    outer loop
      vertex -6 7 0
      vertex -5 3 20.8
      vertex -5 3 0
    endloop
  endfacet
  facet normal -0.900996 0 -0.433828
    outer loop
      vertex 1.57669 0 17.4863
      vertex 1.36329 3 17.9295
      vertex 1.57669 3 17.4863
    endloop
  endfacet
  facet normal -0.900996 -0 -0.433828
    outer loop
      vertex 1.36329 3 17.9295
      vertex 1.57669 0 17.4863
      vertex 1.36329 0 17.9295
    endloop
  endfacet
  facet normal -0.988827 0 -0.149066
    outer loop
      vertex 1.65 0 17
      vertex 1.57669 3 17.4863
      vertex 1.65 3 17
    endloop
  endfacet
  facet normal -0.988827 -0 -0.149066
    outer loop
      vertex 1.57669 3 17.4863
      vertex 1.65 0 17
      vertex 1.57669 0 17.4863
    endloop
  endfacet
  facet normal -0.733017 0 -0.680211
    outer loop
      vertex 1.36329 0 17.9295
      vertex 1.02876 3 18.29
      vertex 1.36329 3 17.9295
    endloop
  endfacet
  facet normal -0.733017 -0 -0.680211
    outer loop
      vertex 1.02876 3 18.29
      vertex 1.36329 0 17.9295
      vertex 1.02876 0 18.29
    endloop
  endfacet
  facet normal 0.36536 0 -0.930866
    outer loop
      vertex -0.825 0 18.4289
      vertex -0.367159 3 18.6086
      vertex -0.367159 0 18.6086
    endloop
  endfacet
  facet normal 0.36536 0 -0.930866
    outer loop
      vertex -0.367159 3 18.6086
      vertex -0.825 0 18.4289
      vertex -0.825 3 18.4289
    endloop
  endfacet
  facet normal -0.733017 0 0.680211
    outer loop
      vertex 1.02876 0 15.71
      vertex 1.36329 3 16.0705
      vertex 1.02876 3 15.71
    endloop
  endfacet
  facet normal -0.733017 0 0.680211
    outer loop
      vertex 1.36329 3 16.0705
      vertex 1.02876 0 15.71
      vertex 1.36329 0 16.0705
    endloop
  endfacet
  facet normal 0.0748208 0 -0.997197
    outer loop
      vertex -0.367159 0 18.6086
      vertex 0.123304 3 18.6454
      vertex 0.123304 0 18.6454
    endloop
  endfacet
  facet normal 0.0748208 0 -0.997197
    outer loop
      vertex 0.123304 3 18.6454
      vertex -0.367159 0 18.6086
      vertex -0.367159 3 18.6086
    endloop
  endfacet
  facet normal -0.499968 0 -0.866044
    outer loop
      vertex 0.602812 0 18.5359
      vertex 1.02876 3 18.29
      vertex 1.02876 0 18.29
    endloop
  endfacet
  facet normal -0.499968 0 -0.866044
    outer loop
      vertex 1.02876 3 18.29
      vertex 0.602812 0 18.5359
      vertex 0.602812 3 18.5359
    endloop
  endfacet
  facet normal -0.499968 0 0.866044
    outer loop
      vertex 0.602812 3 15.4641
      vertex 1.02876 0 15.71
      vertex 1.02876 3 15.71
    endloop
  endfacet
  facet normal -0.499968 0 0.866044
    outer loop
      vertex 1.02876 0 15.71
      vertex 0.602812 3 15.4641
      vertex 0.602812 0 15.4641
    endloop
  endfacet
  facet normal -0.222628 0 -0.974903
    outer loop
      vertex 0.123304 0 18.6454
      vertex 0.602812 3 18.5359
      vertex 0.602812 0 18.5359
    endloop
  endfacet
  facet normal -0.222628 0 -0.974903
    outer loop
      vertex 0.602812 3 18.5359
      vertex 0.123304 0 18.6454
      vertex 0.123304 3 18.6454
    endloop
  endfacet
  facet normal 0.36536 0 0.930866
    outer loop
      vertex -0.825 3 15.5711
      vertex -0.367159 0 15.3914
      vertex -0.367159 3 15.3914
    endloop
  endfacet
  facet normal 0.36536 0 0.930866
    outer loop
      vertex -0.367159 0 15.3914
      vertex -0.825 3 15.5711
      vertex -0.825 0 15.5711
    endloop
  endfacet
  facet normal 0.955576 0 -0.294744
    outer loop
      vertex -1.4866 0 17.7159
      vertex -1.63157 3 17.2459
      vertex -1.4866 3 17.7159
    endloop
  endfacet
  facet normal 0.955576 0 -0.294744
    outer loop
      vertex -1.63157 3 17.2459
      vertex -1.4866 0 17.7159
      vertex -1.63157 0 17.2459
    endloop
  endfacet
  facet normal 0.955576 -0 0.294744
    outer loop
      vertex -1.63157 0 16.7541
      vertex -1.4866 3 16.2841
      vertex -1.63157 3 16.7541
    endloop
  endfacet
  facet normal 0.955576 0 0.294744
    outer loop
      vertex -1.4866 3 16.2841
      vertex -1.63157 0 16.7541
      vertex -1.4866 0 16.2841
    endloop
  endfacet
  facet normal 0.623425 0 -0.781883
    outer loop
      vertex -1.20953 0 18.1223
      vertex -0.825 3 18.4289
      vertex -0.825 0 18.4289
    endloop
  endfacet
  facet normal 0.623425 0 -0.781883
    outer loop
      vertex -0.825 3 18.4289
      vertex -1.20953 0 18.1223
      vertex -1.20953 3 18.1223
    endloop
  endfacet
  facet normal 0.826247 -0 0.563308
    outer loop
      vertex -1.4866 0 16.2841
      vertex -1.20953 3 15.8777
      vertex -1.4866 3 16.2841
    endloop
  endfacet
  facet normal 0.826247 0 0.563308
    outer loop
      vertex -1.20953 3 15.8777
      vertex -1.4866 0 16.2841
      vertex -1.20953 0 15.8777
    endloop
  endfacet
  facet normal -0.222628 0 0.974903
    outer loop
      vertex 0.123304 3 15.3546
      vertex 0.602812 0 15.4641
      vertex 0.602812 3 15.4641
    endloop
  endfacet
  facet normal -0.222628 0 0.974903
    outer loop
      vertex 0.602812 0 15.4641
      vertex 0.123304 3 15.3546
      vertex 0.123304 0 15.3546
    endloop
  endfacet
  facet normal 0.826247 0 -0.563308
    outer loop
      vertex -1.20953 0 18.1223
      vertex -1.4866 3 17.7159
      vertex -1.20953 3 18.1223
    endloop
  endfacet
  facet normal 0.826247 0 -0.563308
    outer loop
      vertex -1.4866 3 17.7159
      vertex -1.20953 0 18.1223
      vertex -1.4866 0 17.7159
    endloop
  endfacet
  facet normal 0.0748208 0 0.997197
    outer loop
      vertex -0.367159 3 15.3914
      vertex 0.123304 0 15.3546
      vertex 0.123304 3 15.3546
    endloop
  endfacet
  facet normal 0.0748208 0 0.997197
    outer loop
      vertex 0.123304 0 15.3546
      vertex -0.367159 3 15.3914
      vertex -0.367159 0 15.3914
    endloop
  endfacet
  facet normal 0.623425 0 0.781883
    outer loop
      vertex -1.20953 3 15.8777
      vertex -0.825 0 15.5711
      vertex -0.825 3 15.5711
    endloop
  endfacet
  facet normal 0.623425 0 0.781883
    outer loop
      vertex -0.825 0 15.5711
      vertex -1.20953 3 15.8777
      vertex -1.20953 0 15.8777
    endloop
  endfacet
  facet normal 1 -0 0
    outer loop
      vertex -1.63157 0 17.2459
      vertex -1.63157 3 16.7541
      vertex -1.63157 3 17.2459
    endloop
  endfacet
  facet normal 1 0 0
    outer loop
      vertex -1.63157 3 16.7541
      vertex -1.63157 0 17.2459
      vertex -1.63157 0 16.7541
    endloop
  endfacet
  facet normal -0.900996 0 0.433828
    outer loop
      vertex 1.36329 0 16.0705
      vertex 1.57669 3 16.5137
      vertex 1.36329 3 16.0705
    endloop
  endfacet
  facet normal -0.900996 0 0.433828
    outer loop
      vertex 1.57669 3 16.5137
      vertex 1.36329 0 16.0705
      vertex 1.57669 0 16.5137
    endloop
  endfacet
  facet normal -0.988827 0 0.149066
    outer loop
      vertex 1.57669 0 16.5137
      vertex 1.65 3 17
      vertex 1.57669 3 16.5137
    endloop
  endfacet
  facet normal -0.988827 0 0.149066
    outer loop
      vertex 1.65 3 17
      vertex 1.57669 0 16.5137
      vertex 1.65 0 17
    endloop
  endfacet
endsolid OpenSCAD_Model
