999
DXF created by Inkscape
  0
SECTION
  2
HEADER
  9
$ACADVER
  1
AC1014
  9
$HANDSEED
  5
FFFF
  9
$MEASUREMENT
 70
     1
  0
ENDSEC
  0
SECTION
  2
TABLES
  0
TABLE
  2
VPORT
  5
8
330
0
100
AcDbSymbolTable
 70
     4
  0
VPORT
  5
2E
330
8
100
AcDbSymbolTableRecord
100
AcDbViewportTableRecord
  2
*ACTIVE
 70
     0
 10
0.0
 20
0.0
 11
1.0
 21
1.0
 12
210.0
 22
148.5
 13
0.0
 23
0.0
 14
10.0
 24
10.0
 15
10.0
 25
10.0
 16
0.0
 26
0.0
 36
1.0
 17
0.0
 27
0.0
 37
0.0
 40
341.0
 41
1.24
 42
50.0
 43
0.0
 44
0.0
 50
0.0
 51
0.0
 71
     0
 72
   100
 73
     1
 74
     3
 75
     0
 76
     0
 77
     0
 78
     0
  0
ENDTAB
  0
TABLE
  2
LTYPE
  5
5
330
0
100
AcDbSymbolTable
 70
     1
  0
LTYPE
  5
14
330
5
100
AcDbSymbolTableRecord
100
AcDbLinetypeTableRecord
  2
BYBLOCK
 70
     0
  3

 72
    65
 73
     0
 40
0.0
  0
LTYPE
  5
15
330
5
100
AcDbSymbolTableRecord
100
AcDbLinetypeTableRecord
  2
BYLAYER
 70
     0
  3

 72
    65
 73
     0
 40
0.0
  0
LTYPE
  5
16
330
5
100
AcDbSymbolTableRecord
100
AcDbLinetypeTableRecord
  2
CONTINUOUS
 70
     0
  3
Solid line
 72
    65
 73
     0
 40
0.0
  0
ENDTAB
  0
TABLE
  2
LAYER
  5
2
100
AcDbSymbolTable
 70
6
  0
LAYER
  5
50
100
AcDbSymbolTableRecord
100
AcDbLayerTableRecord
  2
0
 70
0
  6
CONTINUOUS
  0
LAYER
  5
51
100
AcDbSymbolTableRecord
100
AcDbLayerTableRecord
  2
Layer_1
 70
0
  6
CONTINUOUS
  0
LAYER
  5
52
100
AcDbSymbolTableRecord
100
AcDbLayerTableRecord
  2
shell_outside
 70
0
  6
CONTINUOUS
  0
LAYER
  5
53
100
AcDbSymbolTableRecord
100
AcDbLayerTableRecord
  2
shell_inside
 70
0
  6
CONTINUOUS
  0
LAYER
  5
54
100
AcDbSymbolTableRecord
100
AcDbLayerTableRecord
  2
plug_outside
 70
0
  6
CONTINUOUS
  0
LAYER
  5
55
100
AcDbSymbolTableRecord
100
AcDbLayerTableRecord
  2
plug_inside
 70
0
  6
CONTINUOUS
  0
ENDTAB
  0
TABLE
  2
STYLE
  5
3
330
0
100
AcDbSymbolTable
 70
     1
  0
STYLE
  5
11
330
3
100
AcDbSymbolTableRecord
100
AcDbTextStyleTableRecord
  2
STANDARD
 70
     0
 40
0.0
 41
1.0
 50
0.0
 71
     0
 42
2.5
  3
txt
  4

  0
ENDTAB
  0
TABLE
  2
VIEW
  5
6
330
0
100
AcDbSymbolTable
 70
     0
  0
ENDTAB
  0
TABLE
  2
UCS
  5
7
330
0
100
AcDbSymbolTable
 70
     0
  0
ENDTAB
  0
TABLE
  2
APPID
  5
9
330
0
100
AcDbSymbolTable
 70
     2
  0
APPID
  5
12
330
9
100
AcDbSymbolTableRecord
100
AcDbRegAppTableRecord
  2
ACAD
 70
     0
  0
ENDTAB
  0
TABLE
  2
DIMSTYLE
  5
A
330
0
100
AcDbSymbolTable
 70
     1
  0
DIMSTYLE
105
27
330
A
100
AcDbSymbolTableRecord
100
AcDbDimStyleTableRecord
  2
ISO-25
 70
     0
  3

  4

  5

  6

  7

 40
1.0
 41
2.5
 42
0.625
 43
3.75
 44
1.25
 45
0.0
 46
0.0
 47
0.0
 48
0.0
140
2.5
141
2.5
142
0.0
143
0.03937007874016
144
1.0
145
0.0
146
1.0
147
0.625
 71
     0
 72
     0
 73
     0
 74
     0
 75
     0
 76
     0
 77
     1
 78
     8
170
     0
171
     3
172
     1
173
     0
174
     0
175
     0
176
     0
177
     0
178
     0
270
     2
271
     2
272
     2
273
     2
274
     3
340
11
275
     0
280
     0
281
     0
282
     0
283
     0
284
     8
285
     0
286
     0
287
     3
288
     0
  0
ENDTAB
  0
TABLE
  2
BLOCK_RECORD
  5
1
330
0
100
AcDbSymbolTable
 70
     1
  0
BLOCK_RECORD
  5
1F
330
1
100
AcDbSymbolTableRecord
100
AcDbBlockTableRecord
  2
*MODEL_SPACE
  0
BLOCK_RECORD
  5
1B
330
1
100
AcDbSymbolTableRecord
100
AcDbBlockTableRecord
  2
*PAPER_SPACE
  0
ENDTAB
  0
ENDSEC
  0
SECTION
  2
BLOCKS
  0
BLOCK
  5
20
330
1F
100
AcDbEntity
  8
0
100
AcDbBlockBegin
  2
*MODEL_SPACE
 70
     0
 10
0.0
 20
0.0
 30
0.0
  3
*MODEL_SPACE
  1

  0
ENDBLK
  5
21
330
1F
100
AcDbEntity
  8
0
100
AcDbBlockEnd
  0
BLOCK
  5
1C
330
1B
100
AcDbEntity
 67
     1
  8
0
100
AcDbBlockBegin
  2
*PAPER_SPACE
  1

  0
ENDBLK
  5
1D
330
1B
100
AcDbEntity
 67
     1
  8
0
100
AcDbBlockEnd
  0
ENDSEC
  0
SECTION
  2
ENTITIES
  0
LWPOLYLINE
  5
100
100
AcDbEntity
  8
shell_outside
 62
7
100
AcDbPolyline
 90
30
 70
0
 10
1.376014
 20
0.141111
 30
0.0
 10
0.974349
 20
0.223625
 30
0.0
 10
0.573041
 20
0.456988
 30
0.0
 10
0.264494
 20
0.819934
 30
0.0
 10
0.141111
 20
1.291195
 30
0.0
 10
0.141111
 20
8.766697
 30
0.0
 10
0.232530
 20
9.627060
 30
0.0
 10
0.487625
 20
10.459252
 30
0.0
 10
0.877654
 20
11.236597
 30
0.0
 10
1.373874
 20
11.932422
 30
0.0
 10
1.947543
 20
12.520053
 30
0.0
 10
2.569918
 20
12.972814
 30
0.0
 10
3.212258
 20
13.264032
 30
0.0
 10
3.845820
 20
13.367032
 30
0.0
 10
40.892902
 20
13.367032
 30
0.0
 10
41.526464
 20
13.263704
 30
0.0
 10
42.168803
 20
12.971691
 30
0.0
 10
42.791178
 20
12.517947
 30
0.0
 10
43.364847
 20
11.929427
 30
0.0
 10
43.861066
 20
11.233087
 30
0.0
 10
44.251094
 20
10.455882
 30
0.0
 10
44.506189
 20
9.624767
 30
0.0
 10
44.597608
 20
8.766697
 30
0.0
 10
44.597608
 20
1.291195
 30
0.0
 10
44.474225
 20
0.819934
 30
0.0
 10
44.165678
 20
0.456988
 30
0.0
 10
43.764372
 20
0.223625
 30
0.0
 10
43.362708
 20
0.141111
 30
0.0
 10
1.376014
 20
0.141111
 30
0.0
 10
1.376014
 20
0.141111
 30
0.0
  0
LWPOLYLINE
  5
101
100
AcDbEntity
  8
shell_inside
 62
7
100
AcDbPolyline
 90
26
 70
0
 10
3.155111
 20
2.421438
 30
0.0
 10
2.420187
 20
2.628392
 30
0.0
 10
2.137788
 20
2.866184
 30
0.0
 10
2.024861
 20
3.174943
 30
0.0
 10
2.024861
 20
8.072684
 30
0.0
 10
2.108533
 20
8.636369
 30
0.0
 10
2.342009
 20
9.181597
 30
0.0
 10
2.698985
 20
9.690894
 30
0.0
 10
3.153152
 20
10.146781
 30
0.0
 10
4.247837
 20
10.828421
 30
0.0
 10
4.835741
 20
11.019221
 30
0.0
 10
5.415611
 20
11.086705
 30
0.0
 10
39.323112
 20
11.086705
 30
0.0
 10
39.902981
 20
11.019007
 30
0.0
 10
40.490885
 20
10.827687
 30
0.0
 10
41.585569
 20
10.144823
 30
0.0
 10
42.039736
 20
9.688599
 30
0.0
 10
42.396711
 20
9.179395
 30
0.0
 10
42.630188
 20
8.634870
 30
0.0
 10
42.713859
 20
8.072684
 30
0.0
 10
42.713859
 20
3.174943
 30
0.0
 10
42.600932
 20
2.866184
 30
0.0
 10
42.318534
 20
2.628392
 30
0.0
 10
41.583610
 20
2.421438
 30
0.0
 10
3.155111
 20
2.421438
 30
0.0
 10
3.155111
 20
2.421438
 30
0.0
  0
LWPOLYLINE
  5
102
100
AcDbEntity
  8
plug_outside
 62
7
100
AcDbPolyline
 90
22
 70
0
 10
17.805830
 20
8.656066
 30
0.0
 10
26.847829
 20
8.656066
 30
0.0
 10
27.141671
 20
8.597036
 30
0.0
 10
27.381120
 20
8.435862
 30
0.0
 10
27.542298
 20
8.196413
 30
0.0
 10
27.601330
 20
7.902561
 30
0.0
 10
27.601330
 20
6.018812
 30
0.0
 10
27.542298
 20
5.724976
 30
0.0
 10
27.381120
 20
5.485535
 30
0.0
 10
27.141671
 20
5.324364
 30
0.0
 10
26.847829
 20
5.265335
 30
0.0
 10
17.805830
 20
5.265335
 30
0.0
 10
17.511989
 20
5.324364
 30
0.0
 10
17.272541
 20
5.485535
 30
0.0
 10
17.111362
 20
5.724976
 30
0.0
 10
17.052330
 20
6.018812
 30
0.0
 10
17.052330
 20
7.902561
 30
0.0
 10
17.111362
 20
8.196413
 30
0.0
 10
17.272541
 20
8.435862
 30
0.0
 10
17.511989
 20
8.597036
 30
0.0
 10
17.805830
 20
8.656066
 30
0.0
 10
17.805830
 20
8.656066
 30
0.0
  0
LWPOLYLINE
  5
103
100
AcDbEntity
  8
plug_outside
 62
7
100
AcDbPolyline
 90
22
 70
0
 10
6.115912
 20
8.656066
 30
0.0
 10
14.817665
 20
8.656066
 30
0.0
 10
15.111506
 20
8.597036
 30
0.0
 10
15.350954
 20
8.435862
 30
0.0
 10
15.512133
 20
8.196413
 30
0.0
 10
15.571165
 20
7.902561
 30
0.0
 10
15.571165
 20
6.018812
 30
0.0
 10
15.512133
 20
5.724976
 30
0.0
 10
15.350954
 20
5.485535
 30
0.0
 10
15.111506
 20
5.324364
 30
0.0
 10
14.817665
 20
5.265335
 30
0.0
 10
5.775665
 20
5.265335
 30
0.0
 10
5.481823
 20
5.324364
 30
0.0
 10
5.242375
 20
5.485535
 30
0.0
 10
5.081197
 20
5.724976
 30
0.0
 10
5.022164
 20
6.018812
 30
0.0
 10
5.022164
 20
7.562313
 30
0.0
 10
5.134360
 20
7.909330
 30
0.0
 10
5.412498
 20
8.265738
 30
0.0
 10
5.768907
 20
8.543873
 30
0.0
 10
6.115912
 20
8.656066
 30
0.0
 10
6.115912
 20
8.656066
 30
0.0
  0
LWPOLYLINE
  5
104
100
AcDbEntity
  8
plug_outside
 62
7
100
AcDbPolyline
 90
22
 70
0
 10
38.689644
 20
8.656066
 30
0.0
 10
29.987892
 20
8.656066
 30
0.0
 10
29.694050
 20
8.597036
 30
0.0
 10
29.454602
 20
8.435862
 30
0.0
 10
29.293424
 20
8.196413
 30
0.0
 10
29.234392
 20
7.902561
 30
0.0
 10
29.234392
 20
6.018812
 30
0.0
 10
29.293424
 20
5.724976
 30
0.0
 10
29.454602
 20
5.485535
 30
0.0
 10
29.694050
 20
5.324364
 30
0.0
 10
29.987892
 20
5.265335
 30
0.0
 10
39.029891
 20
5.265335
 30
0.0
 10
39.323734
 20
5.324364
 30
0.0
 10
39.563183
 20
5.485535
 30
0.0
 10
39.724361
 20
5.724976
 30
0.0
 10
39.783393
 20
6.018812
 30
0.0
 10
39.783393
 20
7.562313
 30
0.0
 10
39.671198
 20
7.909330
 30
0.0
 10
39.393059
 20
8.265738
 30
0.0
 10
39.036650
 20
8.543873
 30
0.0
 10
38.689644
 20
8.656066
 30
0.0
 10
38.689644
 20
8.656066
 30
0.0
  0
LWPOLYLINE
  5
105
100
AcDbEntity
  8
plug_inside
 62
7
100
AcDbPolyline
 90
34
 70
0
 10
22.974075
 20
6.929527
 30
0.0
 10
22.961114
 20
6.800955
 30
0.0
 10
22.923941
 20
6.681203
 30
0.0
 10
22.865121
 20
6.572836
 30
0.0
 10
22.787220
 20
6.478419
 30
0.0
 10
22.692803
 20
6.400518
 30
0.0
 10
22.584436
 20
6.341698
 30
0.0
 10
22.464684
 20
6.304525
 30
0.0
 10
22.336112
 20
6.291564
 30
0.0
 10
22.207540
 20
6.304525
 30
0.0
 10
22.087787
 20
6.341698
 30
0.0
 10
21.979420
 20
6.400518
 30
0.0
 10
21.885003
 20
6.478419
 30
0.0
 10
21.807102
 20
6.572836
 30
0.0
 10
21.748283
 20
6.681203
 30
0.0
 10
21.711110
 20
6.800955
 30
0.0
 10
21.698149
 20
6.929527
 30
0.0
 10
21.711110
 20
7.058099
 30
0.0
 10
21.748283
 20
7.177851
 30
0.0
 10
21.807102
 20
7.286218
 30
0.0
 10
21.885003
 20
7.380635
 30
0.0
 10
21.979420
 20
7.458536
 30
0.0
 10
22.087787
 20
7.517356
 30
0.0
 10
22.207540
 20
7.554529
 30
0.0
 10
22.336112
 20
7.567490
 30
0.0
 10
22.464684
 20
7.554529
 30
0.0
 10
22.584436
 20
7.517356
 30
0.0
 10
22.692803
 20
7.458536
 30
0.0
 10
22.787220
 20
7.380635
 30
0.0
 10
22.865121
 20
7.286218
 30
0.0
 10
22.923941
 20
7.177851
 30
0.0
 10
22.961114
 20
7.058099
 30
0.0
 10
22.974075
 20
6.929527
 30
0.0
 10
22.974075
 20
6.929527
 30
0.0
  0
LWPOLYLINE
  5
106
100
AcDbEntity
  8
plug_inside
 62
7
100
AcDbPolyline
 90
34
 70
0
 10
27.014510
 20
6.929527
 30
0.0
 10
27.001549
 20
6.800955
 30
0.0
 10
26.964375
 20
6.681203
 30
0.0
 10
26.905555
 20
6.572836
 30
0.0
 10
26.827654
 20
6.478419
 30
0.0
 10
26.733237
 20
6.400518
 30
0.0
 10
26.624870
 20
6.341698
 30
0.0
 10
26.505118
 20
6.304525
 30
0.0
 10
26.376546
 20
6.291564
 30
0.0
 10
26.247974
 20
6.304525
 30
0.0
 10
26.128222
 20
6.341698
 30
0.0
 10
26.019855
 20
6.400518
 30
0.0
 10
25.925438
 20
6.478419
 30
0.0
 10
25.847537
 20
6.572836
 30
0.0
 10
25.788717
 20
6.681203
 30
0.0
 10
25.751544
 20
6.800955
 30
0.0
 10
25.738583
 20
6.929527
 30
0.0
 10
25.751544
 20
7.058099
 30
0.0
 10
25.788717
 20
7.177851
 30
0.0
 10
25.847537
 20
7.286218
 30
0.0
 10
25.925438
 20
7.380635
 30
0.0
 10
26.019855
 20
7.458536
 30
0.0
 10
26.128222
 20
7.517356
 30
0.0
 10
26.247974
 20
7.554529
 30
0.0
 10
26.376546
 20
7.567490
 30
0.0
 10
26.505118
 20
7.554529
 30
0.0
 10
26.624870
 20
7.517356
 30
0.0
 10
26.733237
 20
7.458536
 30
0.0
 10
26.827654
 20
7.380635
 30
0.0
 10
26.905555
 20
7.286218
 30
0.0
 10
26.964375
 20
7.177851
 30
0.0
 10
27.001549
 20
7.058099
 30
0.0
 10
27.014510
 20
6.929527
 30
0.0
 10
27.014510
 20
6.929527
 30
0.0
  0
LWPOLYLINE
  5
107
100
AcDbEntity
  8
plug_inside
 62
7
100
AcDbPolyline
 90
34
 70
0
 10
18.933641
 20
6.929527
 30
0.0
 10
18.920680
 20
6.800955
 30
0.0
 10
18.883506
 20
6.681203
 30
0.0
 10
18.824687
 20
6.572836
 30
0.0
 10
18.746785
 20
6.478419
 30
0.0
 10
18.652369
 20
6.400518
 30
0.0
 10
18.544001
 20
6.341698
 30
0.0
 10
18.424249
 20
6.304525
 30
0.0
 10
18.295678
 20
6.291564
 30
0.0
 10
18.167105
 20
6.304525
 30
0.0
 10
18.047353
 20
6.341698
 30
0.0
 10
17.938986
 20
6.400518
 30
0.0
 10
17.844569
 20
6.478419
 30
0.0
 10
17.766668
 20
6.572836
 30
0.0
 10
17.707848
 20
6.681203
 30
0.0
 10
17.670675
 20
6.800955
 30
0.0
 10
17.657714
 20
6.929527
 30
0.0
 10
17.670675
 20
7.058099
 30
0.0
 10
17.707848
 20
7.177851
 30
0.0
 10
17.766668
 20
7.286218
 30
0.0
 10
17.844569
 20
7.380635
 30
0.0
 10
17.938986
 20
7.458536
 30
0.0
 10
18.047353
 20
7.517356
 30
0.0
 10
18.167105
 20
7.554529
 30
0.0
 10
18.295678
 20
7.567490
 30
0.0
 10
18.424249
 20
7.554529
 30
0.0
 10
18.544001
 20
7.517356
 30
0.0
 10
18.652369
 20
7.458536
 30
0.0
 10
18.746785
 20
7.380635
 30
0.0
 10
18.824687
 20
7.286218
 30
0.0
 10
18.883506
 20
7.177851
 30
0.0
 10
18.920680
 20
7.058099
 30
0.0
 10
18.933641
 20
6.929527
 30
0.0
 10
18.933641
 20
6.929527
 30
0.0
  0
LWPOLYLINE
  5
108
100
AcDbEntity
  8
plug_inside
 62
7
100
AcDbPolyline
 90
34
 70
0
 10
35.034620
 20
6.929527
 30
0.0
 10
35.021659
 20
6.800955
 30
0.0
 10
34.984486
 20
6.681203
 30
0.0
 10
34.925666
 20
6.572836
 30
0.0
 10
34.847765
 20
6.478419
 30
0.0
 10
34.753348
 20
6.400518
 30
0.0
 10
34.644981
 20
6.341698
 30
0.0
 10
34.525228
 20
6.304525
 30
0.0
 10
34.396657
 20
6.291564
 30
0.0
 10
34.268085
 20
6.304525
 30
0.0
 10
34.148332
 20
6.341698
 30
0.0
 10
34.039965
 20
6.400518
 30
0.0
 10
33.945548
 20
6.478419
 30
0.0
 10
33.867647
 20
6.572836
 30
0.0
 10
33.808828
 20
6.681203
 30
0.0
 10
33.771655
 20
6.800955
 30
0.0
 10
33.758694
 20
6.929527
 30
0.0
 10
33.771655
 20
7.058099
 30
0.0
 10
33.808828
 20
7.177851
 30
0.0
 10
33.867647
 20
7.286218
 30
0.0
 10
33.945548
 20
7.380635
 30
0.0
 10
34.039965
 20
7.458536
 30
0.0
 10
34.148332
 20
7.517356
 30
0.0
 10
34.268085
 20
7.554529
 30
0.0
 10
34.396657
 20
7.567490
 30
0.0
 10
34.525228
 20
7.554529
 30
0.0
 10
34.644981
 20
7.517356
 30
0.0
 10
34.753348
 20
7.458536
 30
0.0
 10
34.847765
 20
7.380635
 30
0.0
 10
34.925666
 20
7.286218
 30
0.0
 10
34.984486
 20
7.177851
 30
0.0
 10
35.021659
 20
7.058099
 30
0.0
 10
35.034620
 20
6.929527
 30
0.0
 10
35.034620
 20
6.929527
 30
0.0
  0
LWPOLYLINE
  5
109
100
AcDbEntity
  8
plug_inside
 62
7
100
AcDbPolyline
 90
34
 70
0
 10
39.075055
 20
6.929527
 30
0.0
 10
39.062093
 20
6.800955
 30
0.0
 10
39.024920
 20
6.681203
 30
0.0
 10
38.966100
 20
6.572836
 30
0.0
 10
38.888199
 20
6.478419
 30
0.0
 10
38.793782
 20
6.400518
 30
0.0
 10
38.685415
 20
6.341698
 30
0.0
 10
38.565663
 20
6.304525
 30
0.0
 10
38.437091
 20
6.291564
 30
0.0
 10
38.308519
 20
6.304525
 30
0.0
 10
38.188767
 20
6.341698
 30
0.0
 10
38.080399
 20
6.400518
 30
0.0
 10
37.985983
 20
6.478419
 30
0.0
 10
37.908082
 20
6.572836
 30
0.0
 10
37.849262
 20
6.681203
 30
0.0
 10
37.812089
 20
6.800955
 30
0.0
 10
37.799128
 20
6.929527
 30
0.0
 10
37.812089
 20
7.058099
 30
0.0
 10
37.849262
 20
7.177851
 30
0.0
 10
37.908082
 20
7.286218
 30
0.0
 10
37.985983
 20
7.380635
 30
0.0
 10
38.080399
 20
7.458536
 30
0.0
 10
38.188767
 20
7.517356
 30
0.0
 10
38.308519
 20
7.554529
 30
0.0
 10
38.437091
 20
7.567490
 30
0.0
 10
38.565663
 20
7.554529
 30
0.0
 10
38.685415
 20
7.517356
 30
0.0
 10
38.793782
 20
7.458536
 30
0.0
 10
38.888199
 20
7.380635
 30
0.0
 10
38.966100
 20
7.286218
 30
0.0
 10
39.024920
 20
7.177851
 30
0.0
 10
39.062093
 20
7.058099
 30
0.0
 10
39.075055
 20
6.929527
 30
0.0
 10
39.075055
 20
6.929527
 30
0.0
  0
LWPOLYLINE
  5
10a
100
AcDbEntity
  8
plug_inside
 62
7
100
AcDbPolyline
 90
34
 70
0
 10
30.994186
 20
6.929527
 30
0.0
 10
30.981225
 20
6.800955
 30
0.0
 10
30.944051
 20
6.681203
 30
0.0
 10
30.885231
 20
6.572836
 30
0.0
 10
30.807330
 20
6.478419
 30
0.0
 10
30.712913
 20
6.400518
 30
0.0
 10
30.604546
 20
6.341698
 30
0.0
 10
30.484794
 20
6.304525
 30
0.0
 10
30.356222
 20
6.291564
 30
0.0
 10
30.227650
 20
6.304525
 30
0.0
 10
30.107898
 20
6.341698
 30
0.0
 10
29.999531
 20
6.400518
 30
0.0
 10
29.905114
 20
6.478419
 30
0.0
 10
29.827213
 20
6.572836
 30
0.0
 10
29.768393
 20
6.681203
 30
0.0
 10
29.731220
 20
6.800955
 30
0.0
 10
29.718259
 20
6.929527
 30
0.0
 10
29.731220
 20
7.058099
 30
0.0
 10
29.768393
 20
7.177851
 30
0.0
 10
29.827213
 20
7.286218
 30
0.0
 10
29.905114
 20
7.380635
 30
0.0
 10
29.999531
 20
7.458536
 30
0.0
 10
30.107898
 20
7.517356
 30
0.0
 10
30.227650
 20
7.554529
 30
0.0
 10
30.356222
 20
7.567490
 30
0.0
 10
30.484794
 20
7.554529
 30
0.0
 10
30.604546
 20
7.517356
 30
0.0
 10
30.712913
 20
7.458536
 30
0.0
 10
30.807330
 20
7.380635
 30
0.0
 10
30.885231
 20
7.286218
 30
0.0
 10
30.944051
 20
7.177851
 30
0.0
 10
30.981225
 20
7.058099
 30
0.0
 10
30.994186
 20
6.929527
 30
0.0
 10
30.994186
 20
6.929527
 30
0.0
  0
LWPOLYLINE
  5
10b
100
AcDbEntity
  8
plug_inside
 62
7
100
AcDbPolyline
 90
34
 70
0
 10
10.852772
 20
6.929527
 30
0.0
 10
10.839811
 20
6.800955
 30
0.0
 10
10.802637
 20
6.681203
 30
0.0
 10
10.743817
 20
6.572836
 30
0.0
 10
10.665916
 20
6.478419
 30
0.0
 10
10.571499
 20
6.400518
 30
0.0
 10
10.463132
 20
6.341698
 30
0.0
 10
10.343380
 20
6.304525
 30
0.0
 10
10.214808
 20
6.291564
 30
0.0
 10
10.086236
 20
6.304525
 30
0.0
 10
9.966484
 20
6.341698
 30
0.0
 10
9.858117
 20
6.400518
 30
0.0
 10
9.763700
 20
6.478419
 30
0.0
 10
9.685799
 20
6.572836
 30
0.0
 10
9.626979
 20
6.681203
 30
0.0
 10
9.589806
 20
6.800955
 30
0.0
 10
9.576845
 20
6.929527
 30
0.0
 10
9.589806
 20
7.058099
 30
0.0
 10
9.626979
 20
7.177851
 30
0.0
 10
9.685799
 20
7.286218
 30
0.0
 10
9.763700
 20
7.380635
 30
0.0
 10
9.858117
 20
7.458536
 30
0.0
 10
9.966484
 20
7.517356
 30
0.0
 10
10.086236
 20
7.554529
 30
0.0
 10
10.214808
 20
7.567490
 30
0.0
 10
10.343380
 20
7.554529
 30
0.0
 10
10.463132
 20
7.517356
 30
0.0
 10
10.571499
 20
7.458536
 30
0.0
 10
10.665916
 20
7.380635
 30
0.0
 10
10.743817
 20
7.286218
 30
0.0
 10
10.802637
 20
7.177851
 30
0.0
 10
10.839811
 20
7.058099
 30
0.0
 10
10.852772
 20
6.929527
 30
0.0
 10
10.852772
 20
6.929527
 30
0.0
  0
LWPOLYLINE
  5
10c
100
AcDbEntity
  8
plug_inside
 62
7
100
AcDbPolyline
 90
34
 70
0
 10
14.893206
 20
6.929527
 30
0.0
 10
14.880245
 20
6.800955
 30
0.0
 10
14.843072
 20
6.681203
 30
0.0
 10
14.784252
 20
6.572836
 30
0.0
 10
14.706351
 20
6.478419
 30
0.0
 10
14.611934
 20
6.400518
 30
0.0
 10
14.503567
 20
6.341698
 30
0.0
 10
14.383814
 20
6.304525
 30
0.0
 10
14.255243
 20
6.291564
 30
0.0
 10
14.126671
 20
6.304525
 30
0.0
 10
14.006918
 20
6.341698
 30
0.0
 10
13.898551
 20
6.400518
 30
0.0
 10
13.804134
 20
6.478419
 30
0.0
 10
13.726233
 20
6.572836
 30
0.0
 10
13.667414
 20
6.681203
 30
0.0
 10
13.630241
 20
6.800955
 30
0.0
 10
13.617280
 20
6.929527
 30
0.0
 10
13.630241
 20
7.058099
 30
0.0
 10
13.667414
 20
7.177851
 30
0.0
 10
13.726233
 20
7.286218
 30
0.0
 10
13.804134
 20
7.380635
 30
0.0
 10
13.898551
 20
7.458536
 30
0.0
 10
14.006918
 20
7.517356
 30
0.0
 10
14.126671
 20
7.554529
 30
0.0
 10
14.255243
 20
7.567490
 30
0.0
 10
14.383814
 20
7.554529
 30
0.0
 10
14.503567
 20
7.517356
 30
0.0
 10
14.611934
 20
7.458536
 30
0.0
 10
14.706351
 20
7.380635
 30
0.0
 10
14.784252
 20
7.286218
 30
0.0
 10
14.843072
 20
7.177851
 30
0.0
 10
14.880245
 20
7.058099
 30
0.0
 10
14.893206
 20
6.929527
 30
0.0
 10
14.893206
 20
6.929527
 30
0.0
  0
LWPOLYLINE
  5
10d
100
AcDbEntity
  8
plug_inside
 62
7
100
AcDbPolyline
 90
34
 70
0
 10
6.812337
 20
6.929527
 30
0.0
 10
6.799376
 20
6.800955
 30
0.0
 10
6.762203
 20
6.681203
 30
0.0
 10
6.703383
 20
6.572836
 30
0.0
 10
6.625482
 20
6.478419
 30
0.0
 10
6.531065
 20
6.400518
 30
0.0
 10
6.422698
 20
6.341698
 30
0.0
 10
6.302946
 20
6.304525
 30
0.0
 10
6.174374
 20
6.291564
 30
0.0
 10
6.045802
 20
6.304525
 30
0.0
 10
5.926049
 20
6.341698
 30
0.0
 10
5.817682
 20
6.400518
 30
0.0
 10
5.723265
 20
6.478419
 30
0.0
 10
5.645364
 20
6.572836
 30
0.0
 10
5.586545
 20
6.681203
 30
0.0
 10
5.549372
 20
6.800955
 30
0.0
 10
5.536411
 20
6.929527
 30
0.0
 10
5.549372
 20
7.058099
 30
0.0
 10
5.586545
 20
7.177851
 30
0.0
 10
5.645364
 20
7.286218
 30
0.0
 10
5.723265
 20
7.380635
 30
0.0
 10
5.817682
 20
7.458536
 30
0.0
 10
5.926049
 20
7.517356
 30
0.0
 10
6.045802
 20
7.554529
 30
0.0
 10
6.174374
 20
7.567490
 30
0.0
 10
6.302946
 20
7.554529
 30
0.0
 10
6.422698
 20
7.517356
 30
0.0
 10
6.531065
 20
7.458536
 30
0.0
 10
6.625482
 20
7.380635
 30
0.0
 10
6.703383
 20
7.286218
 30
0.0
 10
6.762203
 20
7.177851
 30
0.0
 10
6.799376
 20
7.058099
 30
0.0
 10
6.812337
 20
6.929527
 30
0.0
 10
6.812337
 20
6.929527
 30
0.0
  0
ENDSEC
  0
SECTION
  2
OBJECTS
  0
DICTIONARY
  5
C
330
0
100
AcDbDictionary
  3
ACAD_GROUP
350
D
  3
ACAD_MLINESTYLE
350
17
  0
DICTIONARY
  5
D
330
C
100
AcDbDictionary
  0
DICTIONARY
  5
1A
330
C
100
AcDbDictionary
  0
DICTIONARY
  5
17
330
C
100
AcDbDictionary
  3
STANDARD
350
18
  0
DICTIONARY
  5
19
330
C
100
AcDbDictionary
  0
ENDSEC
  0
EOF
