999
Inkscape export via "Better Better DXF Output" (http://tim.cexx.org/?p=590)
  0
SECTION
  2
HEADER
  9
$ACADVER
  1
AC1014
  9
$HANDSEED
  5
FFFF
  0
ENDSEC
  0
SECTION
  2
TABLES
  0
TABLE
  2
VPORT
  5
8
330
0
100
AcDbSymbolTable
 70
     4
  0
VPORT
  5
2E
330
8
100
AcDbSymbolTableRecord
100
AcDbViewportTableRecord
  2
*ACTIVE
 70
     0
 10
0.0
 20
0.0
 11
1.0
 21
1.0
 12
4.25
 22
5.5
 13
0.0
 23
0.0
 14
10.0
 24
10.0
 15
10.0
 25
10.0
 16
0.0
 26
0.0
 36
1.0
 17
0.0
 27
0.0
 37
0.0
 40
11
 41
1.24
 42
50.0
 43
0.0
 44
0.0
 50
0.0
 51
0.0
 71
     0
 72
   100
 73
     1
 74
     3
 75
     0
 76
     0
 77
     0
 78
     0
  0
ENDTAB
  0
TABLE
  2
LTYPE
  5
5
330
0
100
AcDbSymbolTable
 70
     1
  0
LTYPE
  5
14
330
5
100
AcDbSymbolTableRecord
100
AcDbLinetypeTableRecord
  2
BYBLOCK
 70
     0
  3

 72
    65
 73
     0
 40
0.0
  0
LTYPE
  5
15
330
5
100
AcDbSymbolTableRecord
100
AcDbLinetypeTableRecord
  2
BYLAYER
 70
     0
  3

 72
    65
 73
     0
 40
0.0
  0
LTYPE
  5
16
330
5
100
AcDbSymbolTableRecord
100
AcDbLinetypeTableRecord
  2
CONTINUOUS
 70
     0
  3
Solid line
 72
    65
 73
     0
 40
0.0
  0
ENDTAB
  0
TABLE
  2
STYLE
  5
3
330
0
100
AcDbSymbolTable
 70
     1
  0
STYLE
  5
11
330
3
100
AcDbSymbolTableRecord
100
AcDbTextStyleTableRecord
  2
STANDARD
 70
     0
 40
0.0
 41
1.0
 50
0.0
 71
     0
 42
2.5
  3
txt
  4

  0
ENDTAB
  0
TABLE
  2
VIEW
  5
6
330
0
100
AcDbSymbolTable
 70
     0
  0
ENDTAB
  0
TABLE
  2
UCS
  5
7
330
0
100
AcDbSymbolTable
 70
     0
  0
ENDTAB
  0
TABLE
  2
APPID
  5
9
330
0
100
AcDbSymbolTable
 70
     2
  0
APPID
  5
12
330
9
100
AcDbSymbolTableRecord
100
AcDbRegAppTableRecord
  2
ACAD
 70
     0
  0
ENDTAB
  0
TABLE
  2
DIMSTYLE
  5
A
330
0
100
AcDbSymbolTable
 70
     1
  0
DIMSTYLE
105
27
330
A
100
AcDbSymbolTableRecord
100
AcDbDimStyleTableRecord
  2
ISO-25
 70
     0
  3

  4

  5

  6

  7

 40
1.0
 41
2.5
 42
0.625
 43
3.75
 44
1.25
 45
0.0
 46
0.0
 47
0.0
 48
0.0
140
2.5
141
2.5
142
0.0
143
0.03937007874016
144
1.0
145
0.0
146
1.0
147
0.625
 71
     0
 72
     0
 73
     0
 74
     0
 75
     0
 76
     0
 77
     1
 78
     8
170
     0
171
     3
172
     1
173
     0
174
     0
175
     0
176
     0
177
     0
178
     0
270
     2
271
     2
272
     2
273
     2
274
     3
340
11
275
     0
280
     0
281
     0
282
     0
283
     0
284
     8
285
     0
286
     0
287
     3
288
     0
  0
ENDTAB
  0
TABLE
  2
BLOCK_RECORD
  5
1
330
0
100
AcDbSymbolTable
 70
     1
  0
BLOCK_RECORD
  5
1F
330
1
100
AcDbSymbolTableRecord
100
AcDbBlockTableRecord
  2
*MODEL_SPACE
  0
BLOCK_RECORD
  5
1B
330
1
100
AcDbSymbolTableRecord
100
AcDbBlockTableRecord
  2
*PAPER_SPACE
  0
ENDTAB
0
TABLE
2
LAYER
5
2
330
0
100
AcDbSymbolTable
70
4
0
LAYER
5
10
330
2
100
AcDbSymbolTableRecord
100
AcDbLayerTableRecord
2
shell_outside
70
0
62
7
6
CONTINUOUS
0
LAYER
5
10
330
2
100
AcDbSymbolTableRecord
100
AcDbLayerTableRecord
2
shell_inside
70
0
62
7
6
CONTINUOUS
0
LAYER
5
10
330
2
100
AcDbSymbolTableRecord
100
AcDbLayerTableRecord
2
plug_outside
70
0
62
7
6
CONTINUOUS
0
LAYER
5
10
330
2
100
AcDbSymbolTableRecord
100
AcDbLayerTableRecord
2
plug_inside
70
0
62
7
6
CONTINUOUS
0
ENDTAB
0
ENDSEC
  0
SECTION
  2
BLOCKS
  0
BLOCK
  5
20
330
1F
100
AcDbEntity
  8
0
100
AcDbBlockBegin
  2
*MODEL_SPACE
 70
     0
 10
0.0
 20
0.0
 30
0.0
  3
*MODEL_SPACE
  1

  0
ENDBLK
  5
21
330
1F
100
AcDbEntity
  8
0
100
AcDbBlockEnd
  0
BLOCK
  5
1C
330
1B
100
AcDbEntity
 67
     1
  8
0
100
AcDbBlockBegin
  2
*PAPER_SPACE
  1

  0
ENDBLK
  5
1D
330
1B
100
AcDbEntity
 67
     1
  8
0
100
AcDbBlockEnd
  0
ENDSEC
  0
SECTION
  2
ENTITIES
0
LINE
8
shell_outside
62
4
5
100
100
AcDbEntity
100
AcDbLine
10
-20.852874
20
-6.471778
30
0.0
11
-21.655847
21
-6.155900
31
0.0
0
LINE
8
shell_outside
62
4
5
101
100
AcDbEntity
100
AcDbLine
10
-21.655847
20
-6.155900
30
0.0
11
-21.964394
21
-5.792955
31
0.0
0
LINE
8
shell_outside
62
4
5
102
100
AcDbEntity
100
AcDbLine
10
-21.964394
20
-5.792955
30
0.0
11
-22.087777
21
-5.321694
31
0.0
0
LINE
8
shell_outside
62
4
5
103
100
AcDbEntity
100
AcDbLine
10
-22.087777
20
-5.321694
30
0.0
11
-22.087777
21
2.153808
31
0.0
0
LINE
8
shell_outside
62
4
5
104
100
AcDbEntity
100
AcDbLine
10
-22.087777
20
2.153808
30
0.0
11
-21.996358
21
3.014172
31
0.0
0
LINE
8
shell_outside
62
4
5
105
100
AcDbEntity
100
AcDbLine
10
-21.996358
20
3.014172
30
0.0
11
-21.741263
21
3.846363
31
0.0
0
LINE
8
shell_outside
62
4
5
106
100
AcDbEntity
100
AcDbLine
10
-21.741263
20
3.846363
30
0.0
11
-20.855015
21
5.319534
31
0.0
0
LINE
8
shell_outside
62
4
5
107
100
AcDbEntity
100
AcDbLine
10
-20.855015
20
5.319534
30
0.0
11
-19.658970
21
6.359925
31
0.0
0
LINE
8
shell_outside
62
4
5
108
100
AcDbEntity
100
AcDbLine
10
-19.658970
20
6.359925
30
0.0
11
-19.016630
21
6.651143
31
0.0
0
LINE
8
shell_outside
62
4
5
109
100
AcDbEntity
100
AcDbLine
10
-19.016630
20
6.651143
30
0.0
11
-18.383069
21
6.754144
31
0.0
0
LINE
8
shell_outside
62
4
5
10a
100
AcDbEntity
100
AcDbLine
10
-18.383069
20
6.754144
30
0.0
11
18.664014
21
6.754144
31
0.0
0
LINE
8
shell_outside
62
4
5
10b
100
AcDbEntity
100
AcDbLine
10
18.664014
20
6.754144
30
0.0
11
19.297575
21
6.650816
31
0.0
0
LINE
8
shell_outside
62
4
5
10c
100
AcDbEntity
100
AcDbLine
10
19.297575
20
6.650816
30
0.0
11
19.939915
21
6.358802
31
0.0
0
LINE
8
shell_outside
62
4
5
10d
100
AcDbEntity
100
AcDbLine
10
19.939915
20
6.358802
30
0.0
11
21.135958
21
5.316539
31
0.0
0
LINE
8
shell_outside
62
4
5
10e
100
AcDbEntity
100
AcDbLine
10
21.135958
20
5.316539
30
0.0
11
22.022206
21
3.842994
31
0.0
0
LINE
8
shell_outside
62
4
5
10f
100
AcDbEntity
100
AcDbLine
10
22.022206
20
3.842994
30
0.0
11
22.277301
21
3.011879
31
0.0
0
LINE
8
shell_outside
62
4
5
110
100
AcDbEntity
100
AcDbLine
10
22.277301
20
3.011879
30
0.0
11
22.368719
21
2.153808
31
0.0
0
LINE
8
shell_outside
62
4
5
111
100
AcDbEntity
100
AcDbLine
10
22.368719
20
2.153808
30
0.0
11
22.368719
21
-5.321694
31
0.0
0
LINE
8
shell_outside
62
4
5
112
100
AcDbEntity
100
AcDbLine
10
22.368719
20
-5.321694
30
0.0
11
22.245336
21
-5.792955
31
0.0
0
LINE
8
shell_outside
62
4
5
113
100
AcDbEntity
100
AcDbLine
10
22.245336
20
-5.792955
30
0.0
11
21.936790
21
-6.155900
31
0.0
0
LINE
8
shell_outside
62
4
5
114
100
AcDbEntity
100
AcDbLine
10
21.936790
20
-6.155900
30
0.0
11
21.133819
21
-6.471778
31
0.0
0
LINE
8
shell_outside
62
4
5
115
100
AcDbEntity
100
AcDbLine
10
21.133819
20
-6.471778
30
0.0
11
-20.852874
21
-6.471778
31
0.0
0
LINE
8
shell_outside
62
4
5
116
100
AcDbEntity
100
AcDbLine
10
-20.852874
20
-6.471778
30
0.0
11
-20.852874
21
-6.471778
31
0.0
0
LINE
8
shell_inside
62
4
5
117
100
AcDbEntity
100
AcDbLine
10
-19.073777
20
-4.191450
30
0.0
11
-19.808701
21
-3.984497
31
0.0
0
LINE
8
shell_inside
62
4
5
118
100
AcDbEntity
100
AcDbLine
10
-19.808701
20
-3.984497
30
0.0
11
-20.091100
21
-3.746704
31
0.0
0
LINE
8
shell_inside
62
4
5
119
100
AcDbEntity
100
AcDbLine
10
-20.091100
20
-3.746704
30
0.0
11
-20.204027
21
-3.437945
31
0.0
0
LINE
8
shell_inside
62
4
5
11a
100
AcDbEntity
100
AcDbLine
10
-20.204027
20
-3.437945
30
0.0
11
-20.204027
21
1.459796
31
0.0
0
LINE
8
shell_inside
62
4
5
11b
100
AcDbEntity
100
AcDbLine
10
-20.204027
20
1.459796
30
0.0
11
-20.120356
21
2.023480
31
0.0
0
LINE
8
shell_inside
62
4
5
11c
100
AcDbEntity
100
AcDbLine
10
-20.120356
20
2.023480
30
0.0
11
-19.886879
21
2.568709
31
0.0
0
LINE
8
shell_inside
62
4
5
11d
100
AcDbEntity
100
AcDbLine
10
-19.886879
20
2.568709
30
0.0
11
-19.075736
21
3.533893
31
0.0
0
LINE
8
shell_inside
62
4
5
11e
100
AcDbEntity
100
AcDbLine
10
-19.075736
20
3.533893
30
0.0
11
-17.981051
21
4.215533
31
0.0
0
LINE
8
shell_inside
62
4
5
11f
100
AcDbEntity
100
AcDbLine
10
-17.981051
20
4.215533
30
0.0
11
-16.813277
21
4.473816
31
0.0
0
LINE
8
shell_inside
62
4
5
120
100
AcDbEntity
100
AcDbLine
10
-16.813277
20
4.473816
30
0.0
11
17.094223
21
4.473816
31
0.0
0
LINE
8
shell_inside
62
4
5
121
100
AcDbEntity
100
AcDbLine
10
17.094223
20
4.473816
30
0.0
11
18.261996
21
4.214799
31
0.0
0
LINE
8
shell_inside
62
4
5
122
100
AcDbEntity
100
AcDbLine
10
18.261996
20
4.214799
30
0.0
11
19.356681
21
3.531935
31
0.0
0
LINE
8
shell_inside
62
4
5
123
100
AcDbEntity
100
AcDbLine
10
19.356681
20
3.531935
30
0.0
11
20.167823
21
2.566506
31
0.0
0
LINE
8
shell_inside
62
4
5
124
100
AcDbEntity
100
AcDbLine
10
20.167823
20
2.566506
30
0.0
11
20.401299
21
2.021981
31
0.0
0
LINE
8
shell_inside
62
4
5
125
100
AcDbEntity
100
AcDbLine
10
20.401299
20
2.021981
30
0.0
11
20.484971
21
1.459796
31
0.0
0
LINE
8
shell_inside
62
4
5
126
100
AcDbEntity
100
AcDbLine
10
20.484971
20
1.459796
30
0.0
11
20.484971
21
-3.437945
31
0.0
0
LINE
8
shell_inside
62
4
5
127
100
AcDbEntity
100
AcDbLine
10
20.484971
20
-3.437945
30
0.0
11
20.372044
21
-3.746704
31
0.0
0
LINE
8
shell_inside
62
4
5
128
100
AcDbEntity
100
AcDbLine
10
20.372044
20
-3.746704
30
0.0
11
20.089645
21
-3.984497
31
0.0
0
LINE
8
shell_inside
62
4
5
129
100
AcDbEntity
100
AcDbLine
10
20.089645
20
-3.984497
30
0.0
11
19.354722
21
-4.191450
31
0.0
0
LINE
8
shell_inside
62
4
5
12a
100
AcDbEntity
100
AcDbLine
10
19.354722
20
-4.191450
30
0.0
11
-19.073777
21
-4.191450
31
0.0
0
LINE
8
shell_inside
62
4
5
12b
100
AcDbEntity
100
AcDbLine
10
-19.073777
20
-4.191450
30
0.0
11
-19.073777
21
-4.191450
31
0.0
0
LINE
8
plug_outside
62
4
5
12c
100
AcDbEntity
100
AcDbLine
10
-4.423058
20
2.043177
30
0.0
11
4.618941
21
2.043177
31
0.0
0
LINE
8
plug_outside
62
4
5
12d
100
AcDbEntity
100
AcDbLine
10
4.618941
20
2.043177
30
0.0
11
5.152231
21
1.822973
31
0.0
0
LINE
8
plug_outside
62
4
5
12e
100
AcDbEntity
100
AcDbLine
10
5.152231
20
1.822973
30
0.0
11
5.372441
21
1.289672
31
0.0
0
LINE
8
plug_outside
62
4
5
12f
100
AcDbEntity
100
AcDbLine
10
5.372441
20
1.289672
30
0.0
11
5.372441
21
-0.594076
31
0.0
0
LINE
8
plug_outside
62
4
5
130
100
AcDbEntity
100
AcDbLine
10
5.372441
20
-0.594076
30
0.0
11
5.152231
21
-1.127353
31
0.0
0
LINE
8
plug_outside
62
4
5
131
100
AcDbEntity
100
AcDbLine
10
5.152231
20
-1.127353
30
0.0
11
4.618941
21
-1.347553
31
0.0
0
LINE
8
plug_outside
62
4
5
132
100
AcDbEntity
100
AcDbLine
10
4.618941
20
-1.347553
30
0.0
11
-4.423058
21
-1.347553
31
0.0
0
LINE
8
plug_outside
62
4
5
133
100
AcDbEntity
100
AcDbLine
10
-4.423058
20
-1.347553
30
0.0
11
-4.956348
21
-1.127353
31
0.0
0
LINE
8
plug_outside
62
4
5
134
100
AcDbEntity
100
AcDbLine
10
-4.956348
20
-1.127353
30
0.0
11
-5.176558
21
-0.594076
31
0.0
0
LINE
8
plug_outside
62
4
5
135
100
AcDbEntity
100
AcDbLine
10
-5.176558
20
-0.594076
30
0.0
11
-5.176558
21
1.289672
31
0.0
0
LINE
8
plug_outside
62
4
5
136
100
AcDbEntity
100
AcDbLine
10
-5.176558
20
1.289672
30
0.0
11
-4.956348
21
1.822973
31
0.0
0
LINE
8
plug_outside
62
4
5
137
100
AcDbEntity
100
AcDbLine
10
-4.956348
20
1.822973
30
0.0
11
-4.423058
21
2.043177
31
0.0
0
LINE
8
plug_outside
62
4
5
138
100
AcDbEntity
100
AcDbLine
10
-4.423058
20
2.043177
30
0.0
11
-4.423058
21
2.043177
31
0.0
0
LINE
8
plug_outside
62
4
5
139
100
AcDbEntity
100
AcDbLine
10
-16.112977
20
2.043177
30
0.0
11
-7.411224
21
2.043177
31
0.0
0
LINE
8
plug_outside
62
4
5
13a
100
AcDbEntity
100
AcDbLine
10
-7.411224
20
2.043177
30
0.0
11
-6.877934
21
1.822973
31
0.0
0
LINE
8
plug_outside
62
4
5
13b
100
AcDbEntity
100
AcDbLine
10
-6.877934
20
1.822973
30
0.0
11
-6.657724
21
1.289672
31
0.0
0
LINE
8
plug_outside
62
4
5
13c
100
AcDbEntity
100
AcDbLine
10
-6.657724
20
1.289672
30
0.0
11
-6.657724
21
-0.594076
31
0.0
0
LINE
8
plug_outside
62
4
5
13d
100
AcDbEntity
100
AcDbLine
10
-6.657724
20
-0.594076
30
0.0
11
-6.877934
21
-1.127353
31
0.0
0
LINE
8
plug_outside
62
4
5
13e
100
AcDbEntity
100
AcDbLine
10
-6.877934
20
-1.127353
30
0.0
11
-7.411224
21
-1.347553
31
0.0
0
LINE
8
plug_outside
62
4
5
13f
100
AcDbEntity
100
AcDbLine
10
-7.411224
20
-1.347553
30
0.0
11
-16.453224
21
-1.347553
31
0.0
0
LINE
8
plug_outside
62
4
5
140
100
AcDbEntity
100
AcDbLine
10
-16.453224
20
-1.347553
30
0.0
11
-16.986514
21
-1.127353
31
0.0
0
LINE
8
plug_outside
62
4
5
141
100
AcDbEntity
100
AcDbLine
10
-16.986514
20
-1.127353
30
0.0
11
-17.206724
21
-0.594076
31
0.0
0
LINE
8
plug_outside
62
4
5
142
100
AcDbEntity
100
AcDbLine
10
-17.206724
20
-0.594076
30
0.0
11
-17.206724
21
0.949425
31
0.0
0
LINE
8
plug_outside
62
4
5
143
100
AcDbEntity
100
AcDbLine
10
-17.206724
20
0.949425
30
0.0
11
-17.094528
21
1.296441
31
0.0
0
LINE
8
plug_outside
62
4
5
144
100
AcDbEntity
100
AcDbLine
10
-17.094528
20
1.296441
30
0.0
11
-16.816390
21
1.652850
31
0.0
0
LINE
8
plug_outside
62
4
5
145
100
AcDbEntity
100
AcDbLine
10
-16.816390
20
1.652850
30
0.0
11
-16.459982
21
1.930984
31
0.0
0
LINE
8
plug_outside
62
4
5
146
100
AcDbEntity
100
AcDbLine
10
-16.459982
20
1.930984
30
0.0
11
-16.112977
21
2.043177
31
0.0
0
LINE
8
plug_outside
62
4
5
147
100
AcDbEntity
100
AcDbLine
10
-16.112977
20
2.043177
30
0.0
11
-16.112977
21
2.043177
31
0.0
0
LINE
8
plug_outside
62
4
5
148
100
AcDbEntity
100
AcDbLine
10
16.460756
20
2.043177
30
0.0
11
7.759003
21
2.043177
31
0.0
0
LINE
8
plug_outside
62
4
5
149
100
AcDbEntity
100
AcDbLine
10
7.759003
20
2.043177
30
0.0
11
7.225714
21
1.822973
31
0.0
0
LINE
8
plug_outside
62
4
5
14a
100
AcDbEntity
100
AcDbLine
10
7.225714
20
1.822973
30
0.0
11
7.005504
21
1.289672
31
0.0
0
LINE
8
plug_outside
62
4
5
14b
100
AcDbEntity
100
AcDbLine
10
7.005504
20
1.289672
30
0.0
11
7.005504
21
-0.594076
31
0.0
0
LINE
8
plug_outside
62
4
5
14c
100
AcDbEntity
100
AcDbLine
10
7.005504
20
-0.594076
30
0.0
11
7.225714
21
-1.127353
31
0.0
0
LINE
8
plug_outside
62
4
5
14d
100
AcDbEntity
100
AcDbLine
10
7.225714
20
-1.127353
30
0.0
11
7.759003
21
-1.347553
31
0.0
0
LINE
8
plug_outside
62
4
5
14e
100
AcDbEntity
100
AcDbLine
10
7.759003
20
-1.347553
30
0.0
11
16.801003
21
-1.347553
31
0.0
0
LINE
8
plug_outside
62
4
5
14f
100
AcDbEntity
100
AcDbLine
10
16.801003
20
-1.347553
30
0.0
11
17.334294
21
-1.127353
31
0.0
0
LINE
8
plug_outside
62
4
5
150
100
AcDbEntity
100
AcDbLine
10
17.334294
20
-1.127353
30
0.0
11
17.554505
21
-0.594076
31
0.0
0
LINE
8
plug_outside
62
4
5
151
100
AcDbEntity
100
AcDbLine
10
17.554505
20
-0.594076
30
0.0
11
17.554505
21
0.949425
31
0.0
0
LINE
8
plug_outside
62
4
5
152
100
AcDbEntity
100
AcDbLine
10
17.554505
20
0.949425
30
0.0
11
17.442309
21
1.296441
31
0.0
0
LINE
8
plug_outside
62
4
5
153
100
AcDbEntity
100
AcDbLine
10
17.442309
20
1.296441
30
0.0
11
17.164171
21
1.652850
31
0.0
0
LINE
8
plug_outside
62
4
5
154
100
AcDbEntity
100
AcDbLine
10
17.164171
20
1.652850
30
0.0
11
16.807762
21
1.930984
31
0.0
0
LINE
8
plug_outside
62
4
5
155
100
AcDbEntity
100
AcDbLine
10
16.807762
20
1.930984
30
0.0
11
16.460756
21
2.043177
31
0.0
0
LINE
8
plug_outside
62
4
5
156
100
AcDbEntity
100
AcDbLine
10
16.460756
20
2.043177
30
0.0
11
16.460756
21
2.043177
31
0.0
0
LINE
8
plug_inside
62
4
5
157
100
AcDbEntity
100
AcDbLine
10
0.745187
20
0.316639
30
0.0
11
0.659716
21
-0.002343
31
0.0
0
LINE
8
plug_inside
62
4
5
158
100
AcDbEntity
100
AcDbLine
10
0.659716
20
-0.002343
30
0.0
11
0.426205
21
-0.235854
31
0.0
0
LINE
8
plug_inside
62
4
5
159
100
AcDbEntity
100
AcDbLine
10
0.426205
20
-0.235854
30
0.0
11
0.107224
21
-0.321325
31
0.0
0
LINE
8
plug_inside
62
4
5
15a
100
AcDbEntity
100
AcDbLine
10
0.107224
20
-0.321325
30
0.0
11
-0.211758
21
-0.235854
31
0.0
0
LINE
8
plug_inside
62
4
5
15b
100
AcDbEntity
100
AcDbLine
10
-0.211758
20
-0.235854
30
0.0
11
-0.445269
21
-0.002343
31
0.0
0
LINE
8
plug_inside
62
4
5
15c
100
AcDbEntity
100
AcDbLine
10
-0.445269
20
-0.002343
30
0.0
11
-0.530740
21
0.316639
31
0.0
0
LINE
8
plug_inside
62
4
5
15d
100
AcDbEntity
100
AcDbLine
10
-0.530740
20
0.316639
30
0.0
11
-0.445269
21
0.635620
31
0.0
0
LINE
8
plug_inside
62
4
5
15e
100
AcDbEntity
100
AcDbLine
10
-0.445269
20
0.635620
30
0.0
11
-0.211758
21
0.869131
31
0.0
0
LINE
8
plug_inside
62
4
5
15f
100
AcDbEntity
100
AcDbLine
10
-0.211758
20
0.869131
30
0.0
11
0.107224
21
0.954602
31
0.0
0
LINE
8
plug_inside
62
4
5
160
100
AcDbEntity
100
AcDbLine
10
0.107224
20
0.954602
30
0.0
11
0.426205
21
0.869131
31
0.0
0
LINE
8
plug_inside
62
4
5
161
100
AcDbEntity
100
AcDbLine
10
0.426205
20
0.869131
30
0.0
11
0.659716
21
0.635620
31
0.0
0
LINE
8
plug_inside
62
4
5
162
100
AcDbEntity
100
AcDbLine
10
0.659716
20
0.635620
30
0.0
11
0.745187
21
0.316639
31
0.0
0
LINE
8
plug_inside
62
4
5
163
100
AcDbEntity
100
AcDbLine
10
0.745187
20
0.316639
30
0.0
11
0.745187
21
0.316639
31
0.0
0
LINE
8
plug_inside
62
4
5
164
100
AcDbEntity
100
AcDbLine
10
4.785621
20
0.316639
30
0.0
11
4.700150
21
-0.002343
31
0.0
0
LINE
8
plug_inside
62
4
5
165
100
AcDbEntity
100
AcDbLine
10
4.700150
20
-0.002343
30
0.0
11
4.466640
21
-0.235854
31
0.0
0
LINE
8
plug_inside
62
4
5
166
100
AcDbEntity
100
AcDbLine
10
4.466640
20
-0.235854
30
0.0
11
4.147658
21
-0.321325
31
0.0
0
LINE
8
plug_inside
62
4
5
167
100
AcDbEntity
100
AcDbLine
10
4.147658
20
-0.321325
30
0.0
11
3.828676
21
-0.235854
31
0.0
0
LINE
8
plug_inside
62
4
5
168
100
AcDbEntity
100
AcDbLine
10
3.828676
20
-0.235854
30
0.0
11
3.595166
21
-0.002343
31
0.0
0
LINE
8
plug_inside
62
4
5
169
100
AcDbEntity
100
AcDbLine
10
3.595166
20
-0.002343
30
0.0
11
3.509695
21
0.316639
31
0.0
0
LINE
8
plug_inside
62
4
5
16a
100
AcDbEntity
100
AcDbLine
10
3.509695
20
0.316639
30
0.0
11
3.595166
21
0.635620
31
0.0
0
LINE
8
plug_inside
62
4
5
16b
100
AcDbEntity
100
AcDbLine
10
3.595166
20
0.635620
30
0.0
11
3.828676
21
0.869131
31
0.0
0
LINE
8
plug_inside
62
4
5
16c
100
AcDbEntity
100
AcDbLine
10
3.828676
20
0.869131
30
0.0
11
4.147658
21
0.954602
31
0.0
0
LINE
8
plug_inside
62
4
5
16d
100
AcDbEntity
100
AcDbLine
10
4.147658
20
0.954602
30
0.0
11
4.466640
21
0.869131
31
0.0
0
LINE
8
plug_inside
62
4
5
16e
100
AcDbEntity
100
AcDbLine
10
4.466640
20
0.869131
30
0.0
11
4.700150
21
0.635620
31
0.0
0
LINE
8
plug_inside
62
4
5
16f
100
AcDbEntity
100
AcDbLine
10
4.700150
20
0.635620
30
0.0
11
4.785621
21
0.316639
31
0.0
0
LINE
8
plug_inside
62
4
5
170
100
AcDbEntity
100
AcDbLine
10
4.785621
20
0.316639
30
0.0
11
4.785621
21
0.316639
31
0.0
0
LINE
8
plug_inside
62
4
5
171
100
AcDbEntity
100
AcDbLine
10
-3.295248
20
0.316639
30
0.0
11
-3.380718
21
-0.002343
31
0.0
0
LINE
8
plug_inside
62
4
5
172
100
AcDbEntity
100
AcDbLine
10
-3.380718
20
-0.002343
30
0.0
11
-3.614229
21
-0.235854
31
0.0
0
LINE
8
plug_inside
62
4
5
173
100
AcDbEntity
100
AcDbLine
10
-3.614229
20
-0.235854
30
0.0
11
-3.933211
21
-0.321325
31
0.0
0
LINE
8
plug_inside
62
4
5
174
100
AcDbEntity
100
AcDbLine
10
-3.933211
20
-0.321325
30
0.0
11
-4.252193
21
-0.235854
31
0.0
0
LINE
8
plug_inside
62
4
5
175
100
AcDbEntity
100
AcDbLine
10
-4.252193
20
-0.235854
30
0.0
11
-4.485703
21
-0.002343
31
0.0
0
LINE
8
plug_inside
62
4
5
176
100
AcDbEntity
100
AcDbLine
10
-4.485703
20
-0.002343
30
0.0
11
-4.571174
21
0.316639
31
0.0
0
LINE
8
plug_inside
62
4
5
177
100
AcDbEntity
100
AcDbLine
10
-4.571174
20
0.316639
30
0.0
11
-4.485703
21
0.635620
31
0.0
0
LINE
8
plug_inside
62
4
5
178
100
AcDbEntity
100
AcDbLine
10
-4.485703
20
0.635620
30
0.0
11
-4.252193
21
0.869131
31
0.0
0
LINE
8
plug_inside
62
4
5
179
100
AcDbEntity
100
AcDbLine
10
-4.252193
20
0.869131
30
0.0
11
-3.933211
21
0.954602
31
0.0
0
LINE
8
plug_inside
62
4
5
17a
100
AcDbEntity
100
AcDbLine
10
-3.933211
20
0.954602
30
0.0
11
-3.614229
21
0.869131
31
0.0
0
LINE
8
plug_inside
62
4
5
17b
100
AcDbEntity
100
AcDbLine
10
-3.614229
20
0.869131
30
0.0
11
-3.380718
21
0.635620
31
0.0
0
LINE
8
plug_inside
62
4
5
17c
100
AcDbEntity
100
AcDbLine
10
-3.380718
20
0.635620
30
0.0
11
-3.295248
21
0.316639
31
0.0
0
LINE
8
plug_inside
62
4
5
17d
100
AcDbEntity
100
AcDbLine
10
-3.295248
20
0.316639
30
0.0
11
-3.295248
21
0.316639
31
0.0
0
LINE
8
plug_inside
62
4
5
17e
100
AcDbEntity
100
AcDbLine
10
12.805732
20
0.316639
30
0.0
11
12.720261
21
-0.002343
31
0.0
0
LINE
8
plug_inside
62
4
5
17f
100
AcDbEntity
100
AcDbLine
10
12.720261
20
-0.002343
30
0.0
11
12.486750
21
-0.235854
31
0.0
0
LINE
8
plug_inside
62
4
5
180
100
AcDbEntity
100
AcDbLine
10
12.486750
20
-0.235854
30
0.0
11
12.167768
21
-0.321325
31
0.0
0
LINE
8
plug_inside
62
4
5
181
100
AcDbEntity
100
AcDbLine
10
12.167768
20
-0.321325
30
0.0
11
11.848787
21
-0.235854
31
0.0
0
LINE
8
plug_inside
62
4
5
182
100
AcDbEntity
100
AcDbLine
10
11.848787
20
-0.235854
30
0.0
11
11.615276
21
-0.002343
31
0.0
0
LINE
8
plug_inside
62
4
5
183
100
AcDbEntity
100
AcDbLine
10
11.615276
20
-0.002343
30
0.0
11
11.529805
21
0.316639
31
0.0
0
LINE
8
plug_inside
62
4
5
184
100
AcDbEntity
100
AcDbLine
10
11.529805
20
0.316639
30
0.0
11
11.615276
21
0.635620
31
0.0
0
LINE
8
plug_inside
62
4
5
185
100
AcDbEntity
100
AcDbLine
10
11.615276
20
0.635620
30
0.0
11
11.848787
21
0.869131
31
0.0
0
LINE
8
plug_inside
62
4
5
186
100
AcDbEntity
100
AcDbLine
10
11.848787
20
0.869131
30
0.0
11
12.167768
21
0.954602
31
0.0
0
LINE
8
plug_inside
62
4
5
187
100
AcDbEntity
100
AcDbLine
10
12.167768
20
0.954602
30
0.0
11
12.486750
21
0.869131
31
0.0
0
LINE
8
plug_inside
62
4
5
188
100
AcDbEntity
100
AcDbLine
10
12.486750
20
0.869131
30
0.0
11
12.720261
21
0.635620
31
0.0
0
LINE
8
plug_inside
62
4
5
189
100
AcDbEntity
100
AcDbLine
10
12.720261
20
0.635620
30
0.0
11
12.805732
21
0.316639
31
0.0
0
LINE
8
plug_inside
62
4
5
18a
100
AcDbEntity
100
AcDbLine
10
12.805732
20
0.316639
30
0.0
11
12.805732
21
0.316639
31
0.0
0
LINE
8
plug_inside
62
4
5
18b
100
AcDbEntity
100
AcDbLine
10
16.846166
20
0.316639
30
0.0
11
16.760695
21
-0.002343
31
0.0
0
LINE
8
plug_inside
62
4
5
18c
100
AcDbEntity
100
AcDbLine
10
16.760695
20
-0.002343
30
0.0
11
16.527185
21
-0.235854
31
0.0
0
LINE
8
plug_inside
62
4
5
18d
100
AcDbEntity
100
AcDbLine
10
16.527185
20
-0.235854
30
0.0
11
16.208203
21
-0.321325
31
0.0
0
LINE
8
plug_inside
62
4
5
18e
100
AcDbEntity
100
AcDbLine
10
16.208203
20
-0.321325
30
0.0
11
15.889221
21
-0.235854
31
0.0
0
LINE
8
plug_inside
62
4
5
18f
100
AcDbEntity
100
AcDbLine
10
15.889221
20
-0.235854
30
0.0
11
15.655710
21
-0.002343
31
0.0
0
LINE
8
plug_inside
62
4
5
190
100
AcDbEntity
100
AcDbLine
10
15.655710
20
-0.002343
30
0.0
11
15.570240
21
0.316639
31
0.0
0
LINE
8
plug_inside
62
4
5
191
100
AcDbEntity
100
AcDbLine
10
15.570240
20
0.316639
30
0.0
11
15.655710
21
0.635620
31
0.0
0
LINE
8
plug_inside
62
4
5
192
100
AcDbEntity
100
AcDbLine
10
15.655710
20
0.635620
30
0.0
11
15.889221
21
0.869131
31
0.0
0
LINE
8
plug_inside
62
4
5
193
100
AcDbEntity
100
AcDbLine
10
15.889221
20
0.869131
30
0.0
11
16.208203
21
0.954602
31
0.0
0
LINE
8
plug_inside
62
4
5
194
100
AcDbEntity
100
AcDbLine
10
16.208203
20
0.954602
30
0.0
11
16.527185
21
0.869131
31
0.0
0
LINE
8
plug_inside
62
4
5
195
100
AcDbEntity
100
AcDbLine
10
16.527185
20
0.869131
30
0.0
11
16.760695
21
0.635620
31
0.0
0
LINE
8
plug_inside
62
4
5
196
100
AcDbEntity
100
AcDbLine
10
16.760695
20
0.635620
30
0.0
11
16.846166
21
0.316639
31
0.0
0
LINE
8
plug_inside
62
4
5
197
100
AcDbEntity
100
AcDbLine
10
16.846166
20
0.316639
30
0.0
11
16.846166
21
0.316639
31
0.0
0
LINE
8
plug_inside
62
4
5
198
100
AcDbEntity
100
AcDbLine
10
8.765297
20
0.316639
30
0.0
11
8.679826
21
-0.002343
31
0.0
0
LINE
8
plug_inside
62
4
5
199
100
AcDbEntity
100
AcDbLine
10
8.679826
20
-0.002343
30
0.0
11
8.446316
21
-0.235854
31
0.0
0
LINE
8
plug_inside
62
4
5
19a
100
AcDbEntity
100
AcDbLine
10
8.446316
20
-0.235854
30
0.0
11
8.127334
21
-0.321325
31
0.0
0
LINE
8
plug_inside
62
4
5
19b
100
AcDbEntity
100
AcDbLine
10
8.127334
20
-0.321325
30
0.0
11
7.808352
21
-0.235854
31
0.0
0
LINE
8
plug_inside
62
4
5
19c
100
AcDbEntity
100
AcDbLine
10
7.808352
20
-0.235854
30
0.0
11
7.574842
21
-0.002343
31
0.0
0
LINE
8
plug_inside
62
4
5
19d
100
AcDbEntity
100
AcDbLine
10
7.574842
20
-0.002343
30
0.0
11
7.489371
21
0.316639
31
0.0
0
LINE
8
plug_inside
62
4
5
19e
100
AcDbEntity
100
AcDbLine
10
7.489371
20
0.316639
30
0.0
11
7.574842
21
0.635620
31
0.0
0
LINE
8
plug_inside
62
4
5
19f
100
AcDbEntity
100
AcDbLine
10
7.574842
20
0.635620
30
0.0
11
7.808352
21
0.869131
31
0.0
0
LINE
8
plug_inside
62
4
5
1a0
100
AcDbEntity
100
AcDbLine
10
7.808352
20
0.869131
30
0.0
11
8.127334
21
0.954602
31
0.0
0
LINE
8
plug_inside
62
4
5
1a1
100
AcDbEntity
100
AcDbLine
10
8.127334
20
0.954602
30
0.0
11
8.446316
21
0.869131
31
0.0
0
LINE
8
plug_inside
62
4
5
1a2
100
AcDbEntity
100
AcDbLine
10
8.446316
20
0.869131
30
0.0
11
8.679826
21
0.635620
31
0.0
0
LINE
8
plug_inside
62
4
5
1a3
100
AcDbEntity
100
AcDbLine
10
8.679826
20
0.635620
30
0.0
11
8.765297
21
0.316639
31
0.0
0
LINE
8
plug_inside
62
4
5
1a4
100
AcDbEntity
100
AcDbLine
10
8.765297
20
0.316639
30
0.0
11
8.765297
21
0.316639
31
0.0
0
LINE
8
plug_inside
62
4
5
1a5
100
AcDbEntity
100
AcDbLine
10
-11.376117
20
0.316639
30
0.0
11
-11.461588
21
-0.002343
31
0.0
0
LINE
8
plug_inside
62
4
5
1a6
100
AcDbEntity
100
AcDbLine
10
-11.461588
20
-0.002343
30
0.0
11
-11.695098
21
-0.235854
31
0.0
0
LINE
8
plug_inside
62
4
5
1a7
100
AcDbEntity
100
AcDbLine
10
-11.695098
20
-0.235854
30
0.0
11
-12.014080
21
-0.321325
31
0.0
0
LINE
8
plug_inside
62
4
5
1a8
100
AcDbEntity
100
AcDbLine
10
-12.014080
20
-0.321325
30
0.0
11
-12.333062
21
-0.235854
31
0.0
0
LINE
8
plug_inside
62
4
5
1a9
100
AcDbEntity
100
AcDbLine
10
-12.333062
20
-0.235854
30
0.0
11
-12.566573
21
-0.002343
31
0.0
0
LINE
8
plug_inside
62
4
5
1aa
100
AcDbEntity
100
AcDbLine
10
-12.566573
20
-0.002343
30
0.0
11
-12.652043
21
0.316639
31
0.0
0
LINE
8
plug_inside
62
4
5
1ab
100
AcDbEntity
100
AcDbLine
10
-12.652043
20
0.316639
30
0.0
11
-12.566573
21
0.635620
31
0.0
0
LINE
8
plug_inside
62
4
5
1ac
100
AcDbEntity
100
AcDbLine
10
-12.566573
20
0.635620
30
0.0
11
-12.333062
21
0.869131
31
0.0
0
LINE
8
plug_inside
62
4
5
1ad
100
AcDbEntity
100
AcDbLine
10
-12.333062
20
0.869131
30
0.0
11
-12.014080
21
0.954602
31
0.0
0
LINE
8
plug_inside
62
4
5
1ae
100
AcDbEntity
100
AcDbLine
10
-12.014080
20
0.954602
30
0.0
11
-11.695098
21
0.869131
31
0.0
0
LINE
8
plug_inside
62
4
5
1af
100
AcDbEntity
100
AcDbLine
10
-11.695098
20
0.869131
30
0.0
11
-11.461588
21
0.635620
31
0.0
0
LINE
8
plug_inside
62
4
5
1b0
100
AcDbEntity
100
AcDbLine
10
-11.461588
20
0.635620
30
0.0
11
-11.376117
21
0.316639
31
0.0
0
LINE
8
plug_inside
62
4
5
1b1
100
AcDbEntity
100
AcDbLine
10
-11.376117
20
0.316639
30
0.0
11
-11.376117
21
0.316639
31
0.0
0
LINE
8
plug_inside
62
4
5
1b2
100
AcDbEntity
100
AcDbLine
10
-7.335682
20
0.316639
30
0.0
11
-7.421153
21
-0.002343
31
0.0
0
LINE
8
plug_inside
62
4
5
1b3
100
AcDbEntity
100
AcDbLine
10
-7.421153
20
-0.002343
30
0.0
11
-7.654664
21
-0.235854
31
0.0
0
LINE
8
plug_inside
62
4
5
1b4
100
AcDbEntity
100
AcDbLine
10
-7.654664
20
-0.235854
30
0.0
11
-7.973646
21
-0.321325
31
0.0
0
LINE
8
plug_inside
62
4
5
1b5
100
AcDbEntity
100
AcDbLine
10
-7.973646
20
-0.321325
30
0.0
11
-8.292627
21
-0.235854
31
0.0
0
LINE
8
plug_inside
62
4
5
1b6
100
AcDbEntity
100
AcDbLine
10
-8.292627
20
-0.235854
30
0.0
11
-8.526138
21
-0.002343
31
0.0
0
LINE
8
plug_inside
62
4
5
1b7
100
AcDbEntity
100
AcDbLine
10
-8.526138
20
-0.002343
30
0.0
11
-8.611609
21
0.316639
31
0.0
0
LINE
8
plug_inside
62
4
5
1b8
100
AcDbEntity
100
AcDbLine
10
-8.611609
20
0.316639
30
0.0
11
-8.526138
21
0.635620
31
0.0
0
LINE
8
plug_inside
62
4
5
1b9
100
AcDbEntity
100
AcDbLine
10
-8.526138
20
0.635620
30
0.0
11
-8.292627
21
0.869131
31
0.0
0
LINE
8
plug_inside
62
4
5
1ba
100
AcDbEntity
100
AcDbLine
10
-8.292627
20
0.869131
30
0.0
11
-7.973646
21
0.954602
31
0.0
0
LINE
8
plug_inside
62
4
5
1bb
100
AcDbEntity
100
AcDbLine
10
-7.973646
20
0.954602
30
0.0
11
-7.654664
21
0.869131
31
0.0
0
LINE
8
plug_inside
62
4
5
1bc
100
AcDbEntity
100
AcDbLine
10
-7.654664
20
0.869131
30
0.0
11
-7.421153
21
0.635620
31
0.0
0
LINE
8
plug_inside
62
4
5
1bd
100
AcDbEntity
100
AcDbLine
10
-7.421153
20
0.635620
30
0.0
11
-7.335682
21
0.316639
31
0.0
0
LINE
8
plug_inside
62
4
5
1be
100
AcDbEntity
100
AcDbLine
10
-7.335682
20
0.316639
30
0.0
11
-7.335682
21
0.316639
31
0.0
0
LINE
8
plug_inside
62
4
5
1bf
100
AcDbEntity
100
AcDbLine
10
-15.416551
20
0.316639
30
0.0
11
-15.502022
21
-0.002343
31
0.0
0
LINE
8
plug_inside
62
4
5
1c0
100
AcDbEntity
100
AcDbLine
10
-15.502022
20
-0.002343
30
0.0
11
-15.735533
21
-0.235854
31
0.0
0
LINE
8
plug_inside
62
4
5
1c1
100
AcDbEntity
100
AcDbLine
10
-15.735533
20
-0.235854
30
0.0
11
-16.054514
21
-0.321325
31
0.0
0
LINE
8
plug_inside
62
4
5
1c2
100
AcDbEntity
100
AcDbLine
10
-16.054514
20
-0.321325
30
0.0
11
-16.373496
21
-0.235854
31
0.0
0
LINE
8
plug_inside
62
4
5
1c3
100
AcDbEntity
100
AcDbLine
10
-16.373496
20
-0.235854
30
0.0
11
-16.607007
21
-0.002343
31
0.0
0
LINE
8
plug_inside
62
4
5
1c4
100
AcDbEntity
100
AcDbLine
10
-16.607007
20
-0.002343
30
0.0
11
-16.692478
21
0.316639
31
0.0
0
LINE
8
plug_inside
62
4
5
1c5
100
AcDbEntity
100
AcDbLine
10
-16.692478
20
0.316639
30
0.0
11
-16.607007
21
0.635620
31
0.0
0
LINE
8
plug_inside
62
4
5
1c6
100
AcDbEntity
100
AcDbLine
10
-16.607007
20
0.635620
30
0.0
11
-16.373496
21
0.869131
31
0.0
0
LINE
8
plug_inside
62
4
5
1c7
100
AcDbEntity
100
AcDbLine
10
-16.373496
20
0.869131
30
0.0
11
-16.054514
21
0.954602
31
0.0
0
LINE
8
plug_inside
62
4
5
1c8
100
AcDbEntity
100
AcDbLine
10
-16.054514
20
0.954602
30
0.0
11
-15.735533
21
0.869131
31
0.0
0
LINE
8
plug_inside
62
4
5
1c9
100
AcDbEntity
100
AcDbLine
10
-15.735533
20
0.869131
30
0.0
11
-15.502022
21
0.635620
31
0.0
0
LINE
8
plug_inside
62
4
5
1ca
100
AcDbEntity
100
AcDbLine
10
-15.502022
20
0.635620
30
0.0
11
-15.416551
21
0.316639
31
0.0
0
LINE
8
plug_inside
62
4
5
1cb
100
AcDbEntity
100
AcDbLine
10
-15.416551
20
0.316639
30
0.0
11
-15.416551
21
0.316639
31
0.0
  0
ENDSEC
  0
SECTION
  2
OBJECTS
  0
DICTIONARY
  5
C
330
0
100
AcDbDictionary
  3
ACAD_GROUP
350
D
  3
ACAD_MLINESTYLE
350
17
  0
DICTIONARY
  5
D
330
C
100
AcDbDictionary
  0
DICTIONARY
  5
1A
330
C
100
AcDbDictionary
  0
DICTIONARY
  5
17
330
C
100
AcDbDictionary
  3
STANDARD
350
18
  0
DICTIONARY
  5
19
330
C
100
AcDbDictionary
  0
ENDSEC
  0
EOF
