999
DXF created by Inkscape
  0
SECTION
  2
HEADER
  9
$ACADVER
  1
AC1014
  9
$HANDSEED
  5
FFFF
  9
$MEASUREMENT
 70
     1
  0
ENDSEC
  0
SECTION
  2
TABLES
  0
TABLE
  2
VPORT
  5
8
330
0
100
AcDbSymbolTable
 70
     4
  0
VPORT
  5
2E
330
8
100
AcDbSymbolTableRecord
100
AcDbViewportTableRecord
  2
*ACTIVE
 70
     0
 10
0.0
 20
0.0
 11
1.0
 21
1.0
 12
210.0
 22
148.5
 13
0.0
 23
0.0
 14
10.0
 24
10.0
 15
10.0
 25
10.0
 16
0.0
 26
0.0
 36
1.0
 17
0.0
 27
0.0
 37
0.0
 40
341.0
 41
1.24
 42
50.0
 43
0.0
 44
0.0
 50
0.0
 51
0.0
 71
     0
 72
   100
 73
     1
 74
     3
 75
     0
 76
     0
 77
     0
 78
     0
  0
ENDTAB
  0
TABLE
  2
LTYPE
  5
5
330
0
100
AcDbSymbolTable
 70
     1
  0
LTYPE
  5
14
330
5
100
AcDbSymbolTableRecord
100
AcDbLinetypeTableRecord
  2
BYBLOCK
 70
     0
  3

 72
    65
 73
     0
 40
0.0
  0
LTYPE
  5
15
330
5
100
AcDbSymbolTableRecord
100
AcDbLinetypeTableRecord
  2
BYLAYER
 70
     0
  3

 72
    65
 73
     0
 40
0.0
  0
LTYPE
  5
16
330
5
100
AcDbSymbolTableRecord
100
AcDbLinetypeTableRecord
  2
CONTINUOUS
 70
     0
  3
Solid line
 72
    65
 73
     0
 40
0.0
  0
ENDTAB
  0
TABLE
  2
LAYER
  5
2
100
AcDbSymbolTable
 70
6
  0
LAYER
  5
50
100
AcDbSymbolTableRecord
100
AcDbLayerTableRecord
  2
0
 70
0
  6
CONTINUOUS
  0
LAYER
  5
51
100
AcDbSymbolTableRecord
100
AcDbLayerTableRecord
  2
Layer_1
 70
0
  6
CONTINUOUS
  0
LAYER
  5
52
100
AcDbSymbolTableRecord
100
AcDbLayerTableRecord
  2
shell_outside
 70
0
  6
CONTINUOUS
  0
LAYER
  5
53
100
AcDbSymbolTableRecord
100
AcDbLayerTableRecord
  2
shell_inside
 70
0
  6
CONTINUOUS
  0
LAYER
  5
54
100
AcDbSymbolTableRecord
100
AcDbLayerTableRecord
  2
plug_outside
 70
0
  6
CONTINUOUS
  0
LAYER
  5
55
100
AcDbSymbolTableRecord
100
AcDbLayerTableRecord
  2
plug_inside
 70
0
  6
CONTINUOUS
  0
ENDTAB
  0
TABLE
  2
STYLE
  5
3
330
0
100
AcDbSymbolTable
 70
     1
  0
STYLE
  5
11
330
3
100
AcDbSymbolTableRecord
100
AcDbTextStyleTableRecord
  2
STANDARD
 70
     0
 40
0.0
 41
1.0
 50
0.0
 71
     0
 42
2.5
  3
txt
  4

  0
ENDTAB
  0
TABLE
  2
VIEW
  5
6
330
0
100
AcDbSymbolTable
 70
     0
  0
ENDTAB
  0
TABLE
  2
UCS
  5
7
330
0
100
AcDbSymbolTable
 70
     0
  0
ENDTAB
  0
TABLE
  2
APPID
  5
9
330
0
100
AcDbSymbolTable
 70
     2
  0
APPID
  5
12
330
9
100
AcDbSymbolTableRecord
100
AcDbRegAppTableRecord
  2
ACAD
 70
     0
  0
ENDTAB
  0
TABLE
  2
DIMSTYLE
  5
A
330
0
100
AcDbSymbolTable
 70
     1
  0
DIMSTYLE
105
27
330
A
100
AcDbSymbolTableRecord
100
AcDbDimStyleTableRecord
  2
ISO-25
 70
     0
  3

  4

  5

  6

  7

 40
1.0
 41
2.5
 42
0.625
 43
3.75
 44
1.25
 45
0.0
 46
0.0
 47
0.0
 48
0.0
140
2.5
141
2.5
142
0.0
143
0.03937007874016
144
1.0
145
0.0
146
1.0
147
0.625
 71
     0
 72
     0
 73
     0
 74
     0
 75
     0
 76
     0
 77
     1
 78
     8
170
     0
171
     3
172
     1
173
     0
174
     0
175
     0
176
     0
177
     0
178
     0
270
     2
271
     2
272
     2
273
     2
274
     3
340
11
275
     0
280
     0
281
     0
282
     0
283
     0
284
     8
285
     0
286
     0
287
     3
288
     0
  0
ENDTAB
  0
TABLE
  2
BLOCK_RECORD
  5
1
330
0
100
AcDbSymbolTable
 70
     1
  0
BLOCK_RECORD
  5
1F
330
1
100
AcDbSymbolTableRecord
100
AcDbBlockTableRecord
  2
*MODEL_SPACE
  0
BLOCK_RECORD
  5
1B
330
1
100
AcDbSymbolTableRecord
100
AcDbBlockTableRecord
  2
*PAPER_SPACE
  0
ENDTAB
  0
ENDSEC
  0
SECTION
  2
BLOCKS
  0
BLOCK
  5
20
330
1F
100
AcDbEntity
  8
0
100
AcDbBlockBegin
  2
*MODEL_SPACE
 70
     0
 10
0.0
 20
0.0
 30
0.0
  3
*MODEL_SPACE
  1

  0
ENDBLK
  5
21
330
1F
100
AcDbEntity
  8
0
100
AcDbBlockEnd
  0
BLOCK
  5
1C
330
1B
100
AcDbEntity
 67
     1
  8
0
100
AcDbBlockBegin
  2
*PAPER_SPACE
  1

  0
ENDBLK
  5
1D
330
1B
100
AcDbEntity
 67
     1
  8
0
100
AcDbBlockEnd
  0
ENDSEC
  0
SECTION
  2
ENTITIES
  0
SPLINE
  5
100
100
AcDbEntity
  8
shell_outside
 62
7
100
AcDbSpline
 70
8
 71
3
 72
8
 73
4
 74
0
 40
0
 40
0
 40
0
 40
0
 40
1
 40
1
 40
1
 40
1
 10
1.376014
 20
0.141111
 30
0.0
 10
0.881291
 20
0.141111
 30
0.0
 10
0.141111
 20
0.600089
 30
0.0
 10
0.141111
 20
1.291195
 30
0.0
  0
SPLINE
  5
101
100
AcDbEntity
  8
shell_outside
 62
7
100
AcDbSpline
 70
8
 71
3
 72
8
 73
4
 74
0
 40
0
 40
0
 40
0
 40
0
 40
1
 40
1
 40
1
 40
1
 10
0.141111
 20
1.291195
 30
0.0
 10
0.141111
 20
3.591362
 30
0.0
 10
0.141111
 20
6.466557
 30
0.0
 10
0.141111
 20
8.766697
 30
0.0
  0
SPLINE
  5
102
100
AcDbEntity
  8
shell_outside
 62
7
100
AcDbSpline
 70
8
 71
3
 72
8
 73
4
 74
0
 40
0
 40
0
 40
0
 40
0
 40
1
 40
1
 40
1
 40
1
 10
0.141111
 20
8.766697
 30
0.0
 10
0.141111
 20
11.074851
 30
0.0
 10
2.193575
 20
13.367032
 30
0.0
 10
3.845820
 20
13.367032
 30
0.0
  0
SPLINE
  5
103
100
AcDbEntity
  8
shell_outside
 62
7
100
AcDbSpline
 70
8
 71
3
 72
8
 73
4
 74
0
 40
0
 40
0
 40
0
 40
0
 40
1
 40
1
 40
1
 40
1
 10
3.845820
 20
13.367032
 30
0.0
 10
15.224636
 20
13.367032
 30
0.0
 10
28.543877
 20
13.367032
 30
0.0
 10
40.892902
 20
13.367032
 30
0.0
  0
SPLINE
  5
104
100
AcDbEntity
  8
shell_outside
 62
7
100
AcDbSpline
 70
8
 71
3
 72
8
 73
4
 74
0
 40
0
 40
0
 40
0
 40
0
 40
1
 40
1
 40
1
 40
1
 10
40.892902
 20
13.367032
 30
0.0
 10
42.545147
 20
13.367032
 30
0.0
 10
44.597608
 20
11.066864
 30
0.0
 10
44.597608
 20
8.766697
 30
0.0
  0
SPLINE
  5
105
100
AcDbEntity
  8
shell_outside
 62
7
100
AcDbSpline
 70
8
 71
3
 72
8
 73
4
 74
0
 40
0
 40
0
 40
0
 40
0
 40
1
 40
1
 40
1
 40
1
 10
44.597608
 20
8.766697
 30
0.0
 10
44.597608
 20
6.274872
 30
0.0
 10
44.597608
 20
3.591362
 30
0.0
 10
44.597608
 20
1.291195
 30
0.0
  0
SPLINE
  5
106
100
AcDbEntity
  8
shell_outside
 62
7
100
AcDbSpline
 70
8
 71
3
 72
8
 73
4
 74
0
 40
0
 40
0
 40
0
 40
0
 40
1
 40
1
 40
1
 40
1
 10
44.597608
 20
1.291195
 30
0.0
 10
44.597608
 20
0.600089
 30
0.0
 10
43.857429
 20
0.141111
 30
0.0
 10
43.362708
 20
0.141111
 30
0.0
  0
SPLINE
  5
107
100
AcDbEntity
  8
shell_outside
 62
7
100
AcDbSpline
 70
8
 71
3
 72
8
 73
4
 74
0
 40
0
 40
0
 40
0
 40
0
 40
1
 40
1
 40
1
 40
1
 10
43.362708
 20
0.141111
 30
0.0
 10
29.367141
 20
0.141111
 30
0.0
 10
14.959945
 20
0.141111
 30
0.0
 10
1.376014
 20
0.141111
 30
0.0
  0
SPLINE
  5
108
100
AcDbEntity
  8
shell_inside
 62
7
100
AcDbSpline
 70
8
 71
3
 72
8
 73
4
 74
0
 40
0
 40
0
 40
0
 40
0
 40
1
 40
1
 40
1
 40
1
 10
3.155111
 20
2.421438
 30
0.0
 10
2.702314
 20
2.421438
 30
0.0
 10
2.024861
 20
2.722146
 30
0.0
 10
2.024861
 20
3.174943
 30
0.0
  0
SPLINE
  5
109
100
AcDbEntity
  8
shell_inside
 62
7
100
AcDbSpline
 70
8
 71
3
 72
8
 73
4
 74
0
 40
0
 40
0
 40
0
 40
0
 40
1
 40
1
 40
1
 40
1
 10
2.024861
 20
3.174943
 30
0.0
 10
2.024861
 20
4.681953
 30
0.0
 10
2.024861
 20
6.565702
 30
0.0
 10
2.024861
 20
8.072684
 30
0.0
  0
SPLINE
  5
10a
100
AcDbEntity
  8
shell_inside
 62
7
100
AcDbSpline
 70
8
 71
3
 72
8
 73
4
 74
0
 40
0
 40
0
 40
0
 40
0
 40
1
 40
1
 40
1
 40
1
 10
2.024861
 20
8.072684
 30
0.0
 10
2.024861
 20
9.584915
 30
0.0
 10
3.903387
 20
11.086705
 30
0.0
 10
5.415611
 20
11.086705
 30
0.0
  0
SPLINE
  5
10b
100
AcDbEntity
  8
shell_inside
 62
7
100
AcDbSpline
 70
8
 71
3
 72
8
 73
4
 74
0
 40
0
 40
0
 40
0
 40
0
 40
1
 40
1
 40
1
 40
1
 10
5.415611
 20
11.086705
 30
0.0
 10
15.830120
 20
11.086705
 30
0.0
 10
28.020612
 20
11.086705
 30
0.0
 10
39.323112
 20
11.086705
 30
0.0
  0
SPLINE
  5
10c
100
AcDbEntity
  8
shell_inside
 62
7
100
AcDbSpline
 70
8
 71
3
 72
8
 73
4
 74
0
 40
0
 40
0
 40
0
 40
0
 40
1
 40
1
 40
1
 40
1
 10
39.323112
 20
11.086705
 30
0.0
 10
40.835334
 20
11.086705
 30
0.0
 10
42.713859
 20
9.579694
 30
0.0
 10
42.713859
 20
8.072684
 30
0.0
  0
SPLINE
  5
10d
100
AcDbEntity
  8
shell_inside
 62
7
100
AcDbSpline
 70
8
 71
3
 72
8
 73
4
 74
0
 40
0
 40
0
 40
0
 40
0
 40
1
 40
1
 40
1
 40
1
 10
42.713859
 20
8.072684
 30
0.0
 10
42.713859
 20
6.440113
 30
0.0
 10
42.713859
 20
4.681953
 30
0.0
 10
42.713859
 20
3.174943
 30
0.0
  0
SPLINE
  5
10e
100
AcDbEntity
  8
shell_inside
 62
7
100
AcDbSpline
 70
8
 71
3
 72
8
 73
4
 74
0
 40
0
 40
0
 40
0
 40
0
 40
1
 40
1
 40
1
 40
1
 10
42.713859
 20
3.174943
 30
0.0
 10
42.713859
 20
2.722146
 30
0.0
 10
42.036407
 20
2.421438
 30
0.0
 10
41.583610
 20
2.421438
 30
0.0
  0
SPLINE
  5
10f
100
AcDbEntity
  8
shell_inside
 62
7
100
AcDbSpline
 70
8
 71
3
 72
8
 73
4
 74
0
 40
0
 40
0
 40
0
 40
0
 40
1
 40
1
 40
1
 40
1
 10
41.583610
 20
2.421438
 30
0.0
 10
28.774111
 20
2.421438
 30
0.0
 10
15.587861
 20
2.421438
 30
0.0
 10
3.155111
 20
2.421438
 30
0.0
  0
LWPOLYLINE
  5
110
100
AcDbEntity
  8
shell_outside
 62
7
100
AcDbPolyline
 90
2
 70
0
 10
1.376014
 20
0.141111
 30
0.0
 10
1.376014
 20
0.141111
 30
0.0
  0
LWPOLYLINE
  5
111
100
AcDbEntity
  8
shell_inside
 62
7
100
AcDbPolyline
 90
2
 70
0
 10
3.155111
 20
2.421438
 30
0.0
 10
3.155111
 20
2.421438
 30
0.0
  0
SPLINE
  5
112
100
AcDbEntity
  8
plug_outside
 62
7
100
AcDbSpline
 70
8
 71
3
 72
8
 73
4
 74
0
 40
0
 40
0
 40
0
 40
0
 40
1
 40
1
 40
1
 40
1
 10
26.847829
 20
8.656066
 30
0.0
 10
27.265270
 20
8.656066
 30
0.0
 10
27.601330
 20
8.320024
 30
0.0
 10
27.601330
 20
7.902561
 30
0.0
  0
LWPOLYLINE
  5
113
100
AcDbEntity
  8
plug_outside
 62
7
100
AcDbPolyline
 90
2
 70
0
 10
17.805830
 20
8.656066
 30
0.0
 10
26.847829
 20
8.656066
 30
0.0
  0
SPLINE
  5
114
100
AcDbEntity
  8
plug_outside
 62
7
100
AcDbSpline
 70
8
 71
3
 72
8
 73
4
 74
0
 40
0
 40
0
 40
0
 40
0
 40
1
 40
1
 40
1
 40
1
 10
27.601330
 20
6.018812
 30
0.0
 10
27.601330
 20
5.601377
 30
0.0
 10
27.265270
 20
5.265335
 30
0.0
 10
26.847829
 20
5.265335
 30
0.0
  0
LWPOLYLINE
  5
115
100
AcDbEntity
  8
plug_outside
 62
7
100
AcDbPolyline
 90
2
 70
0
 10
27.601330
 20
7.902561
 30
0.0
 10
27.601330
 20
6.018812
 30
0.0
  0
SPLINE
  5
116
100
AcDbEntity
  8
plug_outside
 62
7
100
AcDbSpline
 70
8
 71
3
 72
8
 73
4
 74
0
 40
0
 40
0
 40
0
 40
0
 40
1
 40
1
 40
1
 40
1
 10
17.805830
 20
5.265335
 30
0.0
 10
17.388391
 20
5.265335
 30
0.0
 10
17.052330
 20
5.601377
 30
0.0
 10
17.052330
 20
6.018812
 30
0.0
  0
LWPOLYLINE
  5
117
100
AcDbEntity
  8
plug_outside
 62
7
100
AcDbPolyline
 90
2
 70
0
 10
26.847829
 20
5.265335
 30
0.0
 10
17.805830
 20
5.265335
 30
0.0
  0
SPLINE
  5
118
100
AcDbEntity
  8
plug_outside
 62
7
100
AcDbSpline
 70
8
 71
3
 72
8
 73
4
 74
0
 40
0
 40
0
 40
0
 40
0
 40
1
 40
1
 40
1
 40
1
 10
17.052330
 20
7.902561
 30
0.0
 10
17.052330
 20
8.320024
 30
0.0
 10
17.388391
 20
8.656066
 30
0.0
 10
17.805830
 20
8.656066
 30
0.0
  0
LWPOLYLINE
  5
119
100
AcDbEntity
  8
plug_outside
 62
7
100
AcDbPolyline
 90
2
 70
0
 10
17.052330
 20
6.018812
 30
0.0
 10
17.052330
 20
7.902561
 30
0.0
  0
LWPOLYLINE
  5
11a
100
AcDbEntity
  8
plug_outside
 62
7
100
AcDbPolyline
 90
2
 70
0
 10
17.805830
 20
8.656066
 30
0.0
 10
17.805830
 20
8.656066
 30
0.0
  0
SPLINE
  5
11b
100
AcDbEntity
  8
plug_outside
 62
7
100
AcDbSpline
 70
8
 71
3
 72
8
 73
4
 74
0
 40
0
 40
0
 40
0
 40
0
 40
1
 40
1
 40
1
 40
1
 10
14.817665
 20
8.656066
 30
0.0
 10
15.235103
 20
8.656066
 30
0.0
 10
15.571165
 20
8.320024
 30
0.0
 10
15.571165
 20
7.902561
 30
0.0
  0
LWPOLYLINE
  5
11c
100
AcDbEntity
  8
plug_outside
 62
7
100
AcDbPolyline
 90
2
 70
0
 10
6.115912
 20
8.656066
 30
0.0
 10
14.817665
 20
8.656066
 30
0.0
  0
SPLINE
  5
11d
100
AcDbEntity
  8
plug_outside
 62
7
100
AcDbSpline
 70
8
 71
3
 72
8
 73
4
 74
0
 40
0
 40
0
 40
0
 40
0
 40
1
 40
1
 40
1
 40
1
 10
15.571165
 20
6.018812
 30
0.0
 10
15.571165
 20
5.601377
 30
0.0
 10
15.235103
 20
5.265335
 30
0.0
 10
14.817665
 20
5.265335
 30
0.0
  0
LWPOLYLINE
  5
11e
100
AcDbEntity
  8
plug_outside
 62
7
100
AcDbPolyline
 90
2
 70
0
 10
15.571165
 20
7.902561
 30
0.0
 10
15.571165
 20
6.018812
 30
0.0
  0
SPLINE
  5
11f
100
AcDbEntity
  8
plug_outside
 62
7
100
AcDbSpline
 70
8
 71
3
 72
8
 73
4
 74
0
 40
0
 40
0
 40
0
 40
0
 40
1
 40
1
 40
1
 40
1
 10
5.775665
 20
5.265335
 30
0.0
 10
5.358226
 20
5.265335
 30
0.0
 10
5.022164
 20
5.601377
 30
0.0
 10
5.022164
 20
6.018812
 30
0.0
  0
LWPOLYLINE
  5
120
100
AcDbEntity
  8
plug_outside
 62
7
100
AcDbPolyline
 90
2
 70
0
 10
14.817665
 20
5.265335
 30
0.0
 10
5.775665
 20
5.265335
 30
0.0
  0
SPLINE
  5
121
100
AcDbEntity
  8
plug_outside
 62
7
100
AcDbSpline
 70
8
 71
3
 72
8
 73
4
 74
0
 40
0
 40
0
 40
0
 40
0
 40
1
 40
1
 40
1
 40
1
 10
5.022164
 20
7.562313
 30
0.0
 10
5.022164
 20
7.979777
 30
0.0
 10
5.698473
 20
8.656066
 30
0.0
 10
6.115912
 20
8.656066
 30
0.0
  0
LWPOLYLINE
  5
122
100
AcDbEntity
  8
plug_outside
 62
7
100
AcDbPolyline
 90
2
 70
0
 10
5.022164
 20
6.018812
 30
0.0
 10
5.022164
 20
7.562313
 30
0.0
  0
LWPOLYLINE
  5
123
100
AcDbEntity
  8
plug_outside
 62
7
100
AcDbPolyline
 90
2
 70
0
 10
6.115912
 20
8.656066
 30
0.0
 10
6.115912
 20
8.656066
 30
0.0
  0
SPLINE
  5
124
100
AcDbEntity
  8
plug_outside
 62
7
100
AcDbSpline
 70
8
 71
3
 72
8
 73
4
 74
0
 40
0
 40
0
 40
0
 40
0
 40
1
 40
1
 40
1
 40
1
 10
29.987892
 20
8.656066
 30
0.0
 10
29.570451
 20
8.656066
 30
0.0
 10
29.234392
 20
8.320024
 30
0.0
 10
29.234392
 20
7.902561
 30
0.0
  0
LWPOLYLINE
  5
125
100
AcDbEntity
  8
plug_outside
 62
7
100
AcDbPolyline
 90
2
 70
0
 10
38.689644
 20
8.656066
 30
0.0
 10
29.987892
 20
8.656066
 30
0.0
  0
SPLINE
  5
126
100
AcDbEntity
  8
plug_outside
 62
7
100
AcDbSpline
 70
8
 71
3
 72
8
 73
4
 74
0
 40
0
 40
0
 40
0
 40
0
 40
1
 40
1
 40
1
 40
1
 10
29.234392
 20
6.018812
 30
0.0
 10
29.234392
 20
5.601377
 30
0.0
 10
29.570451
 20
5.265335
 30
0.0
 10
29.987892
 20
5.265335
 30
0.0
  0
LWPOLYLINE
  5
127
100
AcDbEntity
  8
plug_outside
 62
7
100
AcDbPolyline
 90
2
 70
0
 10
29.234392
 20
7.902561
 30
0.0
 10
29.234392
 20
6.018812
 30
0.0
  0
SPLINE
  5
128
100
AcDbEntity
  8
plug_outside
 62
7
100
AcDbSpline
 70
8
 71
3
 72
8
 73
4
 74
0
 40
0
 40
0
 40
0
 40
0
 40
1
 40
1
 40
1
 40
1
 10
39.029891
 20
5.265335
 30
0.0
 10
39.447332
 20
5.265335
 30
0.0
 10
39.783393
 20
5.601377
 30
0.0
 10
39.783393
 20
6.018812
 30
0.0
  0
LWPOLYLINE
  5
129
100
AcDbEntity
  8
plug_outside
 62
7
100
AcDbPolyline
 90
2
 70
0
 10
29.987892
 20
5.265335
 30
0.0
 10
39.029891
 20
5.265335
 30
0.0
  0
SPLINE
  5
12a
100
AcDbEntity
  8
plug_outside
 62
7
100
AcDbSpline
 70
8
 71
3
 72
8
 73
4
 74
0
 40
0
 40
0
 40
0
 40
0
 40
1
 40
1
 40
1
 40
1
 10
39.783393
 20
7.562313
 30
0.0
 10
39.783393
 20
7.979777
 30
0.0
 10
39.107085
 20
8.656066
 30
0.0
 10
38.689644
 20
8.656066
 30
0.0
  0
LWPOLYLINE
  5
12b
100
AcDbEntity
  8
plug_outside
 62
7
100
AcDbPolyline
 90
2
 70
0
 10
39.783393
 20
6.018812
 30
0.0
 10
39.783393
 20
7.562313
 30
0.0
  0
SPLINE
  5
12c
100
AcDbEntity
  8
plug_inside
 62
7
100
AcDbSpline
 70
8
 71
3
 72
8
 73
4
 74
0
 40
0
 40
0
 40
0
 40
0
 40
1
 40
1
 40
1
 40
1
 10
22.974075
 20
6.929527
 30
0.0
 10
22.974075
 20
6.577190
 30
0.0
 10
22.688449
 20
6.291564
 30
0.0
 10
22.336112
 20
6.291564
 30
0.0
  0
SPLINE
  5
12d
100
AcDbEntity
  8
plug_inside
 62
7
100
AcDbSpline
 70
8
 71
3
 72
8
 73
4
 74
0
 40
0
 40
0
 40
0
 40
0
 40
1
 40
1
 40
1
 40
1
 10
22.336112
 20
6.291564
 30
0.0
 10
21.983773
 20
6.291564
 30
0.0
 10
21.698149
 20
6.577190
 30
0.0
 10
21.698149
 20
6.929527
 30
0.0
  0
SPLINE
  5
12e
100
AcDbEntity
  8
plug_inside
 62
7
100
AcDbSpline
 70
8
 71
3
 72
8
 73
4
 74
0
 40
0
 40
0
 40
0
 40
0
 40
1
 40
1
 40
1
 40
1
 10
21.698149
 20
6.929527
 30
0.0
 10
21.698149
 20
7.281865
 30
0.0
 10
21.983773
 20
7.567490
 30
0.0
 10
22.336112
 20
7.567490
 30
0.0
  0
SPLINE
  5
12f
100
AcDbEntity
  8
plug_inside
 62
7
100
AcDbSpline
 70
8
 71
3
 72
8
 73
4
 74
0
 40
0
 40
0
 40
0
 40
0
 40
1
 40
1
 40
1
 40
1
 10
22.336112
 20
7.567490
 30
0.0
 10
22.688449
 20
7.567490
 30
0.0
 10
22.974075
 20
7.281865
 30
0.0
 10
22.974075
 20
6.929527
 30
0.0
  0
LWPOLYLINE
  5
130
100
AcDbEntity
  8
plug_outside
 62
7
100
AcDbPolyline
 90
2
 70
0
 10
38.689644
 20
8.656066
 30
0.0
 10
38.689644
 20
8.656066
 30
0.0
  0
SPLINE
  5
131
100
AcDbEntity
  8
plug_inside
 62
7
100
AcDbSpline
 70
8
 71
3
 72
8
 73
4
 74
0
 40
0
 40
0
 40
0
 40
0
 40
1
 40
1
 40
1
 40
1
 10
27.014510
 20
6.929527
 30
0.0
 10
27.014510
 20
6.577190
 30
0.0
 10
26.728883
 20
6.291564
 30
0.0
 10
26.376546
 20
6.291564
 30
0.0
  0
SPLINE
  5
132
100
AcDbEntity
  8
plug_inside
 62
7
100
AcDbSpline
 70
8
 71
3
 72
8
 73
4
 74
0
 40
0
 40
0
 40
0
 40
0
 40
1
 40
1
 40
1
 40
1
 10
26.376546
 20
6.291564
 30
0.0
 10
26.024208
 20
6.291564
 30
0.0
 10
25.738583
 20
6.577190
 30
0.0
 10
25.738583
 20
6.929527
 30
0.0
  0
SPLINE
  5
133
100
AcDbEntity
  8
plug_inside
 62
7
100
AcDbSpline
 70
8
 71
3
 72
8
 73
4
 74
0
 40
0
 40
0
 40
0
 40
0
 40
1
 40
1
 40
1
 40
1
 10
25.738583
 20
6.929527
 30
0.0
 10
25.738583
 20
7.281865
 30
0.0
 10
26.024208
 20
7.567490
 30
0.0
 10
26.376546
 20
7.567490
 30
0.0
  0
SPLINE
  5
134
100
AcDbEntity
  8
plug_inside
 62
7
100
AcDbSpline
 70
8
 71
3
 72
8
 73
4
 74
0
 40
0
 40
0
 40
0
 40
0
 40
1
 40
1
 40
1
 40
1
 10
26.376546
 20
7.567490
 30
0.0
 10
26.728883
 20
7.567490
 30
0.0
 10
27.014510
 20
7.281865
 30
0.0
 10
27.014510
 20
6.929527
 30
0.0
  0
LWPOLYLINE
  5
135
100
AcDbEntity
  8
plug_inside
 62
7
100
AcDbPolyline
 90
2
 70
0
 10
22.974075
 20
6.929527
 30
0.0
 10
22.974075
 20
6.929527
 30
0.0
  0
SPLINE
  5
136
100
AcDbEntity
  8
plug_inside
 62
7
100
AcDbSpline
 70
8
 71
3
 72
8
 73
4
 74
0
 40
0
 40
0
 40
0
 40
0
 40
1
 40
1
 40
1
 40
1
 10
18.933641
 20
6.929527
 30
0.0
 10
18.933641
 20
6.577190
 30
0.0
 10
18.648014
 20
6.291564
 30
0.0
 10
18.295678
 20
6.291564
 30
0.0
  0
SPLINE
  5
137
100
AcDbEntity
  8
plug_inside
 62
7
100
AcDbSpline
 70
8
 71
3
 72
8
 73
4
 74
0
 40
0
 40
0
 40
0
 40
0
 40
1
 40
1
 40
1
 40
1
 10
18.295678
 20
6.291564
 30
0.0
 10
17.943339
 20
6.291564
 30
0.0
 10
17.657714
 20
6.577190
 30
0.0
 10
17.657714
 20
6.929527
 30
0.0
  0
SPLINE
  5
138
100
AcDbEntity
  8
plug_inside
 62
7
100
AcDbSpline
 70
8
 71
3
 72
8
 73
4
 74
0
 40
0
 40
0
 40
0
 40
0
 40
1
 40
1
 40
1
 40
1
 10
17.657714
 20
6.929527
 30
0.0
 10
17.657714
 20
7.281865
 30
0.0
 10
17.943339
 20
7.567490
 30
0.0
 10
18.295678
 20
7.567490
 30
0.0
  0
SPLINE
  5
139
100
AcDbEntity
  8
plug_inside
 62
7
100
AcDbSpline
 70
8
 71
3
 72
8
 73
4
 74
0
 40
0
 40
0
 40
0
 40
0
 40
1
 40
1
 40
1
 40
1
 10
18.295678
 20
7.567490
 30
0.0
 10
18.648014
 20
7.567490
 30
0.0
 10
18.933641
 20
7.281865
 30
0.0
 10
18.933641
 20
6.929527
 30
0.0
  0
LWPOLYLINE
  5
13a
100
AcDbEntity
  8
plug_inside
 62
7
100
AcDbPolyline
 90
2
 70
0
 10
27.014510
 20
6.929527
 30
0.0
 10
27.014510
 20
6.929527
 30
0.0
  0
SPLINE
  5
13b
100
AcDbEntity
  8
plug_inside
 62
7
100
AcDbSpline
 70
8
 71
3
 72
8
 73
4
 74
0
 40
0
 40
0
 40
0
 40
0
 40
1
 40
1
 40
1
 40
1
 10
35.034620
 20
6.929527
 30
0.0
 10
35.034620
 20
6.577190
 30
0.0
 10
34.748993
 20
6.291564
 30
0.0
 10
34.396657
 20
6.291564
 30
0.0
  0
SPLINE
  5
13c
100
AcDbEntity
  8
plug_inside
 62
7
100
AcDbSpline
 70
8
 71
3
 72
8
 73
4
 74
0
 40
0
 40
0
 40
0
 40
0
 40
1
 40
1
 40
1
 40
1
 10
34.396657
 20
6.291564
 30
0.0
 10
34.044318
 20
6.291564
 30
0.0
 10
33.758694
 20
6.577190
 30
0.0
 10
33.758694
 20
6.929527
 30
0.0
  0
SPLINE
  5
13d
100
AcDbEntity
  8
plug_inside
 62
7
100
AcDbSpline
 70
8
 71
3
 72
8
 73
4
 74
0
 40
0
 40
0
 40
0
 40
0
 40
1
 40
1
 40
1
 40
1
 10
33.758694
 20
6.929527
 30
0.0
 10
33.758694
 20
7.281865
 30
0.0
 10
34.044318
 20
7.567490
 30
0.0
 10
34.396657
 20
7.567490
 30
0.0
  0
SPLINE
  5
13e
100
AcDbEntity
  8
plug_inside
 62
7
100
AcDbSpline
 70
8
 71
3
 72
8
 73
4
 74
0
 40
0
 40
0
 40
0
 40
0
 40
1
 40
1
 40
1
 40
1
 10
34.396657
 20
7.567490
 30
0.0
 10
34.748993
 20
7.567490
 30
0.0
 10
35.034620
 20
7.281865
 30
0.0
 10
35.034620
 20
6.929527
 30
0.0
  0
LWPOLYLINE
  5
13f
100
AcDbEntity
  8
plug_inside
 62
7
100
AcDbPolyline
 90
2
 70
0
 10
18.933641
 20
6.929527
 30
0.0
 10
18.933641
 20
6.929527
 30
0.0
  0
SPLINE
  5
140
100
AcDbEntity
  8
plug_inside
 62
7
100
AcDbSpline
 70
8
 71
3
 72
8
 73
4
 74
0
 40
0
 40
0
 40
0
 40
0
 40
1
 40
1
 40
1
 40
1
 10
39.075055
 20
6.929527
 30
0.0
 10
39.075055
 20
6.577190
 30
0.0
 10
38.789428
 20
6.291564
 30
0.0
 10
38.437091
 20
6.291564
 30
0.0
  0
SPLINE
  5
141
100
AcDbEntity
  8
plug_inside
 62
7
100
AcDbSpline
 70
8
 71
3
 72
8
 73
4
 74
0
 40
0
 40
0
 40
0
 40
0
 40
1
 40
1
 40
1
 40
1
 10
38.437091
 20
6.291564
 30
0.0
 10
38.084753
 20
6.291564
 30
0.0
 10
37.799128
 20
6.577190
 30
0.0
 10
37.799128
 20
6.929527
 30
0.0
  0
SPLINE
  5
142
100
AcDbEntity
  8
plug_inside
 62
7
100
AcDbSpline
 70
8
 71
3
 72
8
 73
4
 74
0
 40
0
 40
0
 40
0
 40
0
 40
1
 40
1
 40
1
 40
1
 10
37.799128
 20
6.929527
 30
0.0
 10
37.799128
 20
7.281865
 30
0.0
 10
38.084753
 20
7.567490
 30
0.0
 10
38.437091
 20
7.567490
 30
0.0
  0
SPLINE
  5
143
100
AcDbEntity
  8
plug_inside
 62
7
100
AcDbSpline
 70
8
 71
3
 72
8
 73
4
 74
0
 40
0
 40
0
 40
0
 40
0
 40
1
 40
1
 40
1
 40
1
 10
38.437091
 20
7.567490
 30
0.0
 10
38.789428
 20
7.567490
 30
0.0
 10
39.075055
 20
7.281865
 30
0.0
 10
39.075055
 20
6.929527
 30
0.0
  0
LWPOLYLINE
  5
144
100
AcDbEntity
  8
plug_inside
 62
7
100
AcDbPolyline
 90
2
 70
0
 10
35.034620
 20
6.929527
 30
0.0
 10
35.034620
 20
6.929527
 30
0.0
  0
SPLINE
  5
145
100
AcDbEntity
  8
plug_inside
 62
7
100
AcDbSpline
 70
8
 71
3
 72
8
 73
4
 74
0
 40
0
 40
0
 40
0
 40
0
 40
1
 40
1
 40
1
 40
1
 10
30.994186
 20
6.929527
 30
0.0
 10
30.994186
 20
6.577190
 30
0.0
 10
30.708559
 20
6.291564
 30
0.0
 10
30.356222
 20
6.291564
 30
0.0
  0
SPLINE
  5
146
100
AcDbEntity
  8
plug_inside
 62
7
100
AcDbSpline
 70
8
 71
3
 72
8
 73
4
 74
0
 40
0
 40
0
 40
0
 40
0
 40
1
 40
1
 40
1
 40
1
 10
30.356222
 20
6.291564
 30
0.0
 10
30.003884
 20
6.291564
 30
0.0
 10
29.718259
 20
6.577190
 30
0.0
 10
29.718259
 20
6.929527
 30
0.0
  0
SPLINE
  5
147
100
AcDbEntity
  8
plug_inside
 62
7
100
AcDbSpline
 70
8
 71
3
 72
8
 73
4
 74
0
 40
0
 40
0
 40
0
 40
0
 40
1
 40
1
 40
1
 40
1
 10
29.718259
 20
6.929527
 30
0.0
 10
29.718259
 20
7.281865
 30
0.0
 10
30.003884
 20
7.567490
 30
0.0
 10
30.356222
 20
7.567490
 30
0.0
  0
SPLINE
  5
148
100
AcDbEntity
  8
plug_inside
 62
7
100
AcDbSpline
 70
8
 71
3
 72
8
 73
4
 74
0
 40
0
 40
0
 40
0
 40
0
 40
1
 40
1
 40
1
 40
1
 10
30.356222
 20
7.567490
 30
0.0
 10
30.708559
 20
7.567490
 30
0.0
 10
30.994186
 20
7.281865
 30
0.0
 10
30.994186
 20
6.929527
 30
0.0
  0
LWPOLYLINE
  5
149
100
AcDbEntity
  8
plug_inside
 62
7
100
AcDbPolyline
 90
2
 70
0
 10
39.075055
 20
6.929527
 30
0.0
 10
39.075055
 20
6.929527
 30
0.0
  0
SPLINE
  5
14a
100
AcDbEntity
  8
plug_inside
 62
7
100
AcDbSpline
 70
8
 71
3
 72
8
 73
4
 74
0
 40
0
 40
0
 40
0
 40
0
 40
1
 40
1
 40
1
 40
1
 10
10.852772
 20
6.929527
 30
0.0
 10
10.852772
 20
6.577190
 30
0.0
 10
10.567145
 20
6.291564
 30
0.0
 10
10.214808
 20
6.291564
 30
0.0
  0
SPLINE
  5
14b
100
AcDbEntity
  8
plug_inside
 62
7
100
AcDbSpline
 70
8
 71
3
 72
8
 73
4
 74
0
 40
0
 40
0
 40
0
 40
0
 40
1
 40
1
 40
1
 40
1
 10
10.214808
 20
6.291564
 30
0.0
 10
9.862470
 20
6.291564
 30
0.0
 10
9.576845
 20
6.577190
 30
0.0
 10
9.576845
 20
6.929527
 30
0.0
  0
SPLINE
  5
14c
100
AcDbEntity
  8
plug_inside
 62
7
100
AcDbSpline
 70
8
 71
3
 72
8
 73
4
 74
0
 40
0
 40
0
 40
0
 40
0
 40
1
 40
1
 40
1
 40
1
 10
9.576845
 20
6.929527
 30
0.0
 10
9.576845
 20
7.281865
 30
0.0
 10
9.862470
 20
7.567490
 30
0.0
 10
10.214808
 20
7.567490
 30
0.0
  0
SPLINE
  5
14d
100
AcDbEntity
  8
plug_inside
 62
7
100
AcDbSpline
 70
8
 71
3
 72
8
 73
4
 74
0
 40
0
 40
0
 40
0
 40
0
 40
1
 40
1
 40
1
 40
1
 10
10.214808
 20
7.567490
 30
0.0
 10
10.567145
 20
7.567490
 30
0.0
 10
10.852772
 20
7.281865
 30
0.0
 10
10.852772
 20
6.929527
 30
0.0
  0
LWPOLYLINE
  5
14e
100
AcDbEntity
  8
plug_inside
 62
7
100
AcDbPolyline
 90
2
 70
0
 10
30.994186
 20
6.929527
 30
0.0
 10
30.994186
 20
6.929527
 30
0.0
  0
SPLINE
  5
14f
100
AcDbEntity
  8
plug_inside
 62
7
100
AcDbSpline
 70
8
 71
3
 72
8
 73
4
 74
0
 40
0
 40
0
 40
0
 40
0
 40
1
 40
1
 40
1
 40
1
 10
14.893206
 20
6.929527
 30
0.0
 10
14.893206
 20
6.577190
 30
0.0
 10
14.607579
 20
6.291564
 30
0.0
 10
14.255243
 20
6.291564
 30
0.0
  0
SPLINE
  5
150
100
AcDbEntity
  8
plug_inside
 62
7
100
AcDbSpline
 70
8
 71
3
 72
8
 73
4
 74
0
 40
0
 40
0
 40
0
 40
0
 40
1
 40
1
 40
1
 40
1
 10
14.255243
 20
6.291564
 30
0.0
 10
13.902904
 20
6.291564
 30
0.0
 10
13.617280
 20
6.577190
 30
0.0
 10
13.617280
 20
6.929527
 30
0.0
  0
SPLINE
  5
151
100
AcDbEntity
  8
plug_inside
 62
7
100
AcDbSpline
 70
8
 71
3
 72
8
 73
4
 74
0
 40
0
 40
0
 40
0
 40
0
 40
1
 40
1
 40
1
 40
1
 10
13.617280
 20
6.929527
 30
0.0
 10
13.617280
 20
7.281865
 30
0.0
 10
13.902904
 20
7.567490
 30
0.0
 10
14.255243
 20
7.567490
 30
0.0
  0
SPLINE
  5
152
100
AcDbEntity
  8
plug_inside
 62
7
100
AcDbSpline
 70
8
 71
3
 72
8
 73
4
 74
0
 40
0
 40
0
 40
0
 40
0
 40
1
 40
1
 40
1
 40
1
 10
14.255243
 20
7.567490
 30
0.0
 10
14.607579
 20
7.567490
 30
0.0
 10
14.893206
 20
7.281865
 30
0.0
 10
14.893206
 20
6.929527
 30
0.0
  0
LWPOLYLINE
  5
153
100
AcDbEntity
  8
plug_inside
 62
7
100
AcDbPolyline
 90
2
 70
0
 10
10.852772
 20
6.929527
 30
0.0
 10
10.852772
 20
6.929527
 30
0.0
  0
SPLINE
  5
154
100
AcDbEntity
  8
plug_inside
 62
7
100
AcDbSpline
 70
8
 71
3
 72
8
 73
4
 74
0
 40
0
 40
0
 40
0
 40
0
 40
1
 40
1
 40
1
 40
1
 10
6.812337
 20
6.929527
 30
0.0
 10
6.812337
 20
6.577190
 30
0.0
 10
6.526710
 20
6.291564
 30
0.0
 10
6.174374
 20
6.291564
 30
0.0
  0
SPLINE
  5
155
100
AcDbEntity
  8
plug_inside
 62
7
100
AcDbSpline
 70
8
 71
3
 72
8
 73
4
 74
0
 40
0
 40
0
 40
0
 40
0
 40
1
 40
1
 40
1
 40
1
 10
6.174374
 20
6.291564
 30
0.0
 10
5.822035
 20
6.291564
 30
0.0
 10
5.536411
 20
6.577190
 30
0.0
 10
5.536411
 20
6.929527
 30
0.0
  0
SPLINE
  5
156
100
AcDbEntity
  8
plug_inside
 62
7
100
AcDbSpline
 70
8
 71
3
 72
8
 73
4
 74
0
 40
0
 40
0
 40
0
 40
0
 40
1
 40
1
 40
1
 40
1
 10
5.536411
 20
6.929527
 30
0.0
 10
5.536411
 20
7.281865
 30
0.0
 10
5.822035
 20
7.567490
 30
0.0
 10
6.174374
 20
7.567490
 30
0.0
  0
SPLINE
  5
157
100
AcDbEntity
  8
plug_inside
 62
7
100
AcDbSpline
 70
8
 71
3
 72
8
 73
4
 74
0
 40
0
 40
0
 40
0
 40
0
 40
1
 40
1
 40
1
 40
1
 10
6.174374
 20
7.567490
 30
0.0
 10
6.526710
 20
7.567490
 30
0.0
 10
6.812337
 20
7.281865
 30
0.0
 10
6.812337
 20
6.929527
 30
0.0
  0
LWPOLYLINE
  5
158
100
AcDbEntity
  8
plug_inside
 62
7
100
AcDbPolyline
 90
2
 70
0
 10
14.893206
 20
6.929527
 30
0.0
 10
14.893206
 20
6.929527
 30
0.0
  0
LWPOLYLINE
  5
159
100
AcDbEntity
  8
plug_inside
 62
7
100
AcDbPolyline
 90
2
 70
0
 10
6.812337
 20
6.929527
 30
0.0
 10
6.812337
 20
6.929527
 30
0.0
  0
ENDSEC
  0
SECTION
  2
OBJECTS
  0
DICTIONARY
  5
C
330
0
100
AcDbDictionary
  3
ACAD_GROUP
350
D
  3
ACAD_MLINESTYLE
350
17
  0
DICTIONARY
  5
D
330
C
100
AcDbDictionary
  0
DICTIONARY
  5
1A
330
C
100
AcDbDictionary
  0
DICTIONARY
  5
17
330
C
100
AcDbDictionary
  3
STANDARD
350
18
  0
DICTIONARY
  5
19
330
C
100
AcDbDictionary
  0
ENDSEC
  0
EOF
