999
DXF created by Inkscape
  0
SECTION
  2
HEADER
  9
$ACADVER
  1
AC1014
  9
$HANDSEED
  5
FFFF
  9
$MEASUREMENT
 70
     1
  0
ENDSEC
  0
SECTION
  2
TABLES
  0
TABLE
  2
VPORT
  5
8
330
0
100
AcDbSymbolTable
 70
     4
  0
VPORT
  5
2E
330
8
100
AcDbSymbolTableRecord
100
AcDbViewportTableRecord
  2
*ACTIVE
 70
     0
 10
0.0
 20
0.0
 11
1.0
 21
1.0
 12
210.0
 22
148.5
 13
0.0
 23
0.0
 14
10.0
 24
10.0
 15
10.0
 25
10.0
 16
0.0
 26
0.0
 36
1.0
 17
0.0
 27
0.0
 37
0.0
 40
341.0
 41
1.24
 42
50.0
 43
0.0
 44
0.0
 50
0.0
 51
0.0
 71
     0
 72
   100
 73
     1
 74
     3
 75
     0
 76
     0
 77
     0
 78
     0
  0
ENDTAB
  0
TABLE
  2
LTYPE
  5
5
330
0
100
AcDbSymbolTable
 70
     1
  0
LTYPE
  5
14
330
5
100
AcDbSymbolTableRecord
100
AcDbLinetypeTableRecord
  2
BYBLOCK
 70
     0
  3

 72
    65
 73
     0
 40
0.0
  0
LTYPE
  5
15
330
5
100
AcDbSymbolTableRecord
100
AcDbLinetypeTableRecord
  2
BYLAYER
 70
     0
  3

 72
    65
 73
     0
 40
0.0
  0
LTYPE
  5
16
330
5
100
AcDbSymbolTableRecord
100
AcDbLinetypeTableRecord
  2
CONTINUOUS
 70
     0
  3
Solid line
 72
    65
 73
     0
 40
0.0
  0
ENDTAB
  0
TABLE
  2
LAYER
  5
2
100
AcDbSymbolTable
 70
6
  0
LAYER
  5
50
100
AcDbSymbolTableRecord
100
AcDbLayerTableRecord
  2
0
 70
0
  6
CONTINUOUS
  0
LAYER
  5
51
100
AcDbSymbolTableRecord
100
AcDbLayerTableRecord
  2
Layer_1
 70
0
  6
CONTINUOUS
  0
LAYER
  5
52
100
AcDbSymbolTableRecord
100
AcDbLayerTableRecord
  2
shell_outside
 70
0
  6
CONTINUOUS
  0
LAYER
  5
53
100
AcDbSymbolTableRecord
100
AcDbLayerTableRecord
  2
shell_inside
 70
0
  6
CONTINUOUS
  0
LAYER
  5
54
100
AcDbSymbolTableRecord
100
AcDbLayerTableRecord
  2
plug_outside
 70
0
  6
CONTINUOUS
  0
LAYER
  5
55
100
AcDbSymbolTableRecord
100
AcDbLayerTableRecord
  2
plug_inside
 70
0
  6
CONTINUOUS
  0
ENDTAB
  0
TABLE
  2
STYLE
  5
3
330
0
100
AcDbSymbolTable
 70
     1
  0
STYLE
  5
11
330
3
100
AcDbSymbolTableRecord
100
AcDbTextStyleTableRecord
  2
STANDARD
 70
     0
 40
0.0
 41
1.0
 50
0.0
 71
     0
 42
2.5
  3
txt
  4

  0
ENDTAB
  0
TABLE
  2
VIEW
  5
6
330
0
100
AcDbSymbolTable
 70
     0
  0
ENDTAB
  0
TABLE
  2
UCS
  5
7
330
0
100
AcDbSymbolTable
 70
     0
  0
ENDTAB
  0
TABLE
  2
APPID
  5
9
330
0
100
AcDbSymbolTable
 70
     2
  0
APPID
  5
12
330
9
100
AcDbSymbolTableRecord
100
AcDbRegAppTableRecord
  2
ACAD
 70
     0
  0
ENDTAB
  0
TABLE
  2
DIMSTYLE
  5
A
330
0
100
AcDbSymbolTable
 70
     1
  0
DIMSTYLE
105
27
330
A
100
AcDbSymbolTableRecord
100
AcDbDimStyleTableRecord
  2
ISO-25
 70
     0
  3

  4

  5

  6

  7

 40
1.0
 41
2.5
 42
0.625
 43
3.75
 44
1.25
 45
0.0
 46
0.0
 47
0.0
 48
0.0
140
2.5
141
2.5
142
0.0
143
0.03937007874016
144
1.0
145
0.0
146
1.0
147
0.625
 71
     0
 72
     0
 73
     0
 74
     0
 75
     0
 76
     0
 77
     1
 78
     8
170
     0
171
     3
172
     1
173
     0
174
     0
175
     0
176
     0
177
     0
178
     0
270
     2
271
     2
272
     2
273
     2
274
     3
340
11
275
     0
280
     0
281
     0
282
     0
283
     0
284
     8
285
     0
286
     0
287
     3
288
     0
  0
ENDTAB
  0
TABLE
  2
BLOCK_RECORD
  5
1
330
0
100
AcDbSymbolTable
 70
     1
  0
BLOCK_RECORD
  5
1F
330
1
100
AcDbSymbolTableRecord
100
AcDbBlockTableRecord
  2
*MODEL_SPACE
  0
BLOCK_RECORD
  5
1B
330
1
100
AcDbSymbolTableRecord
100
AcDbBlockTableRecord
  2
*PAPER_SPACE
  0
ENDTAB
  0
ENDSEC
  0
SECTION
  2
BLOCKS
  0
BLOCK
  5
20
330
1F
100
AcDbEntity
  8
0
100
AcDbBlockBegin
  2
*MODEL_SPACE
 70
     0
 10
0.0
 20
0.0
 30
0.0
  3
*MODEL_SPACE
  1

  0
ENDBLK
  5
21
330
1F
100
AcDbEntity
  8
0
100
AcDbBlockEnd
  0
BLOCK
  5
1C
330
1B
100
AcDbEntity
 67
     1
  8
0
100
AcDbBlockBegin
  2
*PAPER_SPACE
  1

  0
ENDBLK
  5
1D
330
1B
100
AcDbEntity
 67
     1
  8
0
100
AcDbBlockEnd
  0
ENDSEC
  0
SECTION
  2
ENTITIES
  0
SPLINE
  5
100
100
AcDbEntity
  8
shell_outside
 62
7
100
AcDbSpline
 70
8
 71
3
 72
8
 73
4
 74
0
 40
0
 40
0
 40
0
 40
0
 40
1
 40
1
 40
1
 40
1
 10
1.517125
 20
0.282224
 30
0.0
 10
1.022402
 20
0.282224
 30
0.0
 10
0.282222
 20
0.741202
 30
0.0
 10
0.282222
 20
1.432307
 30
0.0
  0
SPLINE
  5
101
100
AcDbEntity
  8
shell_outside
 62
7
100
AcDbSpline
 70
8
 71
3
 72
8
 73
4
 74
0
 40
0
 40
0
 40
0
 40
0
 40
1
 40
1
 40
1
 40
1
 10
0.282222
 20
1.432307
 30
0.0
 10
0.282222
 20
3.732475
 30
0.0
 10
0.282222
 20
6.607670
 30
0.0
 10
0.282222
 20
8.907810
 30
0.0
  0
SPLINE
  5
102
100
AcDbEntity
  8
shell_outside
 62
7
100
AcDbSpline
 70
8
 71
3
 72
8
 73
4
 74
0
 40
0
 40
0
 40
0
 40
0
 40
1
 40
1
 40
1
 40
1
 10
0.282222
 20
8.907810
 30
0.0
 10
0.282222
 20
11.215964
 30
0.0
 10
2.334686
 20
13.508145
 30
0.0
 10
3.986931
 20
13.508145
 30
0.0
  0
SPLINE
  5
103
100
AcDbEntity
  8
shell_outside
 62
7
100
AcDbSpline
 70
8
 71
3
 72
8
 73
4
 74
0
 40
0
 40
0
 40
0
 40
0
 40
1
 40
1
 40
1
 40
1
 10
3.986931
 20
13.508145
 30
0.0
 10
15.365747
 20
13.508145
 30
0.0
 10
28.684988
 20
13.508145
 30
0.0
 10
41.034013
 20
13.508145
 30
0.0
  0
SPLINE
  5
104
100
AcDbEntity
  8
shell_outside
 62
7
100
AcDbSpline
 70
8
 71
3
 72
8
 73
4
 74
0
 40
0
 40
0
 40
0
 40
0
 40
1
 40
1
 40
1
 40
1
 10
41.034013
 20
13.508145
 30
0.0
 10
42.686258
 20
13.508145
 30
0.0
 10
44.738719
 20
11.207977
 30
0.0
 10
44.738719
 20
8.907810
 30
0.0
  0
SPLINE
  5
105
100
AcDbEntity
  8
shell_outside
 62
7
100
AcDbSpline
 70
8
 71
3
 72
8
 73
4
 74
0
 40
0
 40
0
 40
0
 40
0
 40
1
 40
1
 40
1
 40
1
 10
44.738719
 20
8.907810
 30
0.0
 10
44.738719
 20
6.415985
 30
0.0
 10
44.738719
 20
3.732475
 30
0.0
 10
44.738719
 20
1.432307
 30
0.0
  0
SPLINE
  5
106
100
AcDbEntity
  8
shell_outside
 62
7
100
AcDbSpline
 70
8
 71
3
 72
8
 73
4
 74
0
 40
0
 40
0
 40
0
 40
0
 40
1
 40
1
 40
1
 40
1
 10
44.738719
 20
1.432307
 30
0.0
 10
44.738719
 20
0.741202
 30
0.0
 10
43.998540
 20
0.282224
 30
0.0
 10
43.503819
 20
0.282224
 30
0.0
  0
SPLINE
  5
107
100
AcDbEntity
  8
shell_outside
 62
7
100
AcDbSpline
 70
8
 71
3
 72
8
 73
4
 74
0
 40
0
 40
0
 40
0
 40
0
 40
1
 40
1
 40
1
 40
1
 10
43.503819
 20
0.282224
 30
0.0
 10
29.508252
 20
0.282224
 30
0.0
 10
15.101056
 20
0.282224
 30
0.0
 10
1.517125
 20
0.282224
 30
0.0
  0
SPLINE
  5
108
100
AcDbEntity
  8
shell_inside
 62
7
100
AcDbSpline
 70
8
 71
3
 72
8
 73
4
 74
0
 40
0
 40
0
 40
0
 40
0
 40
1
 40
1
 40
1
 40
1
 10
3.296222
 20
2.562551
 30
0.0
 10
2.843425
 20
2.562551
 30
0.0
 10
2.165972
 20
2.863259
 30
0.0
 10
2.165972
 20
3.316056
 30
0.0
  0
SPLINE
  5
109
100
AcDbEntity
  8
shell_inside
 62
7
100
AcDbSpline
 70
8
 71
3
 72
8
 73
4
 74
0
 40
0
 40
0
 40
0
 40
0
 40
1
 40
1
 40
1
 40
1
 10
2.165972
 20
3.316056
 30
0.0
 10
2.165972
 20
4.823066
 30
0.0
 10
2.165972
 20
6.706815
 30
0.0
 10
2.165972
 20
8.213797
 30
0.0
  0
SPLINE
  5
10a
100
AcDbEntity
  8
shell_inside
 62
7
100
AcDbSpline
 70
8
 71
3
 72
8
 73
4
 74
0
 40
0
 40
0
 40
0
 40
0
 40
1
 40
1
 40
1
 40
1
 10
2.165972
 20
8.213797
 30
0.0
 10
2.165972
 20
9.726028
 30
0.0
 10
4.044498
 20
11.227817
 30
0.0
 10
5.556722
 20
11.227817
 30
0.0
  0
SPLINE
  5
10b
100
AcDbEntity
  8
shell_inside
 62
7
100
AcDbSpline
 70
8
 71
3
 72
8
 73
4
 74
0
 40
0
 40
0
 40
0
 40
0
 40
1
 40
1
 40
1
 40
1
 10
5.556722
 20
11.227817
 30
0.0
 10
15.971232
 20
11.227817
 30
0.0
 10
28.161723
 20
11.227817
 30
0.0
 10
39.464223
 20
11.227817
 30
0.0
  0
SPLINE
  5
10c
100
AcDbEntity
  8
shell_inside
 62
7
100
AcDbSpline
 70
8
 71
3
 72
8
 73
4
 74
0
 40
0
 40
0
 40
0
 40
0
 40
1
 40
1
 40
1
 40
1
 10
39.464223
 20
11.227817
 30
0.0
 10
40.976446
 20
11.227817
 30
0.0
 10
42.854970
 20
9.720807
 30
0.0
 10
42.854970
 20
8.213797
 30
0.0
  0
SPLINE
  5
10d
100
AcDbEntity
  8
shell_inside
 62
7
100
AcDbSpline
 70
8
 71
3
 72
8
 73
4
 74
0
 40
0
 40
0
 40
0
 40
0
 40
1
 40
1
 40
1
 40
1
 10
42.854970
 20
8.213797
 30
0.0
 10
42.854970
 20
6.581226
 30
0.0
 10
42.854970
 20
4.823066
 30
0.0
 10
42.854970
 20
3.316056
 30
0.0
  0
SPLINE
  5
10e
100
AcDbEntity
  8
shell_inside
 62
7
100
AcDbSpline
 70
8
 71
3
 72
8
 73
4
 74
0
 40
0
 40
0
 40
0
 40
0
 40
1
 40
1
 40
1
 40
1
 10
42.854970
 20
3.316056
 30
0.0
 10
42.854970
 20
2.863259
 30
0.0
 10
42.177518
 20
2.562551
 30
0.0
 10
41.724721
 20
2.562551
 30
0.0
  0
SPLINE
  5
10f
100
AcDbEntity
  8
shell_inside
 62
7
100
AcDbSpline
 70
8
 71
3
 72
8
 73
4
 74
0
 40
0
 40
0
 40
0
 40
0
 40
1
 40
1
 40
1
 40
1
 10
41.724721
 20
2.562551
 30
0.0
 10
28.915222
 20
2.562551
 30
0.0
 10
15.728972
 20
2.562551
 30
0.0
 10
3.296222
 20
2.562551
 30
0.0
  0
LWPOLYLINE
  5
110
100
AcDbEntity
  8
shell_outside
 62
7
100
AcDbPolyline
 90
2
 70
0
 10
1.517125
 20
0.282224
 30
0.0
 10
1.517125
 20
0.282224
 30
0.0
  0
LWPOLYLINE
  5
111
100
AcDbEntity
  8
shell_inside
 62
7
100
AcDbPolyline
 90
2
 70
0
 10
3.296222
 20
2.562551
 30
0.0
 10
3.296222
 20
2.562551
 30
0.0
  0
SPLINE
  5
112
100
AcDbEntity
  8
plug_outside
 62
7
100
AcDbSpline
 70
8
 71
3
 72
8
 73
4
 74
0
 40
0
 40
0
 40
0
 40
0
 40
1
 40
1
 40
1
 40
1
 10
26.988940
 20
8.797178
 30
0.0
 10
27.406381
 20
8.797178
 30
0.0
 10
27.742441
 20
8.461136
 30
0.0
 10
27.742441
 20
8.043673
 30
0.0
  0
LWPOLYLINE
  5
113
100
AcDbEntity
  8
plug_outside
 62
7
100
AcDbPolyline
 90
2
 70
0
 10
17.946941
 20
8.797178
 30
0.0
 10
26.988940
 20
8.797178
 30
0.0
  0
SPLINE
  5
114
100
AcDbEntity
  8
plug_outside
 62
7
100
AcDbSpline
 70
8
 71
3
 72
8
 73
4
 74
0
 40
0
 40
0
 40
0
 40
0
 40
1
 40
1
 40
1
 40
1
 10
27.742441
 20
6.159925
 30
0.0
 10
27.742441
 20
5.742490
 30
0.0
 10
27.406381
 20
5.406448
 30
0.0
 10
26.988940
 20
5.406448
 30
0.0
  0
LWPOLYLINE
  5
115
100
AcDbEntity
  8
plug_outside
 62
7
100
AcDbPolyline
 90
2
 70
0
 10
27.742441
 20
8.043673
 30
0.0
 10
27.742441
 20
6.159925
 30
0.0
  0
SPLINE
  5
116
100
AcDbEntity
  8
plug_outside
 62
7
100
AcDbSpline
 70
8
 71
3
 72
8
 73
4
 74
0
 40
0
 40
0
 40
0
 40
0
 40
1
 40
1
 40
1
 40
1
 10
17.946941
 20
5.406448
 30
0.0
 10
17.529502
 20
5.406448
 30
0.0
 10
17.193441
 20
5.742490
 30
0.0
 10
17.193441
 20
6.159925
 30
0.0
  0
LWPOLYLINE
  5
117
100
AcDbEntity
  8
plug_outside
 62
7
100
AcDbPolyline
 90
2
 70
0
 10
26.988940
 20
5.406448
 30
0.0
 10
17.946941
 20
5.406448
 30
0.0
  0
SPLINE
  5
118
100
AcDbEntity
  8
plug_outside
 62
7
100
AcDbSpline
 70
8
 71
3
 72
8
 73
4
 74
0
 40
0
 40
0
 40
0
 40
0
 40
1
 40
1
 40
1
 40
1
 10
17.193441
 20
8.043673
 30
0.0
 10
17.193441
 20
8.461136
 30
0.0
 10
17.529502
 20
8.797178
 30
0.0
 10
17.946941
 20
8.797178
 30
0.0
  0
LWPOLYLINE
  5
119
100
AcDbEntity
  8
plug_outside
 62
7
100
AcDbPolyline
 90
2
 70
0
 10
17.193441
 20
6.159925
 30
0.0
 10
17.193441
 20
8.043673
 30
0.0
  0
LWPOLYLINE
  5
11a
100
AcDbEntity
  8
plug_outside
 62
7
100
AcDbPolyline
 90
2
 70
0
 10
17.946941
 20
8.797178
 30
0.0
 10
17.946941
 20
8.797178
 30
0.0
  0
SPLINE
  5
11b
100
AcDbEntity
  8
plug_outside
 62
7
100
AcDbSpline
 70
8
 71
3
 72
8
 73
4
 74
0
 40
0
 40
0
 40
0
 40
0
 40
1
 40
1
 40
1
 40
1
 10
14.958776
 20
8.797178
 30
0.0
 10
15.376215
 20
8.797178
 30
0.0
 10
15.712276
 20
8.461136
 30
0.0
 10
15.712276
 20
8.043673
 30
0.0
  0
LWPOLYLINE
  5
11c
100
AcDbEntity
  8
plug_outside
 62
7
100
AcDbPolyline
 90
2
 70
0
 10
6.257023
 20
8.797178
 30
0.0
 10
14.958776
 20
8.797178
 30
0.0
  0
SPLINE
  5
11d
100
AcDbEntity
  8
plug_outside
 62
7
100
AcDbSpline
 70
8
 71
3
 72
8
 73
4
 74
0
 40
0
 40
0
 40
0
 40
0
 40
1
 40
1
 40
1
 40
1
 10
15.712276
 20
6.159925
 30
0.0
 10
15.712276
 20
5.742490
 30
0.0
 10
15.376215
 20
5.406448
 30
0.0
 10
14.958776
 20
5.406448
 30
0.0
  0
LWPOLYLINE
  5
11e
100
AcDbEntity
  8
plug_outside
 62
7
100
AcDbPolyline
 90
2
 70
0
 10
15.712276
 20
8.043673
 30
0.0
 10
15.712276
 20
6.159925
 30
0.0
  0
SPLINE
  5
11f
100
AcDbEntity
  8
plug_outside
 62
7
100
AcDbSpline
 70
8
 71
3
 72
8
 73
4
 74
0
 40
0
 40
0
 40
0
 40
0
 40
1
 40
1
 40
1
 40
1
 10
5.916776
 20
5.406448
 30
0.0
 10
5.499337
 20
5.406448
 30
0.0
 10
5.163276
 20
5.742490
 30
0.0
 10
5.163276
 20
6.159925
 30
0.0
  0
LWPOLYLINE
  5
120
100
AcDbEntity
  8
plug_outside
 62
7
100
AcDbPolyline
 90
2
 70
0
 10
14.958776
 20
5.406448
 30
0.0
 10
5.916776
 20
5.406448
 30
0.0
  0
SPLINE
  5
121
100
AcDbEntity
  8
plug_outside
 62
7
100
AcDbSpline
 70
8
 71
3
 72
8
 73
4
 74
0
 40
0
 40
0
 40
0
 40
0
 40
1
 40
1
 40
1
 40
1
 10
5.163276
 20
7.703426
 30
0.0
 10
5.163276
 20
8.120889
 30
0.0
 10
5.839584
 20
8.797178
 30
0.0
 10
6.257023
 20
8.797178
 30
0.0
  0
LWPOLYLINE
  5
122
100
AcDbEntity
  8
plug_outside
 62
7
100
AcDbPolyline
 90
2
 70
0
 10
5.163276
 20
6.159925
 30
0.0
 10
5.163276
 20
7.703426
 30
0.0
  0
LWPOLYLINE
  5
123
100
AcDbEntity
  8
plug_outside
 62
7
100
AcDbPolyline
 90
2
 70
0
 10
6.257023
 20
8.797178
 30
0.0
 10
6.257023
 20
8.797178
 30
0.0
  0
SPLINE
  5
124
100
AcDbEntity
  8
plug_outside
 62
7
100
AcDbSpline
 70
8
 71
3
 72
8
 73
4
 74
0
 40
0
 40
0
 40
0
 40
0
 40
1
 40
1
 40
1
 40
1
 10
30.129003
 20
8.797178
 30
0.0
 10
29.711563
 20
8.797178
 30
0.0
 10
29.375504
 20
8.461136
 30
0.0
 10
29.375504
 20
8.043673
 30
0.0
  0
LWPOLYLINE
  5
125
100
AcDbEntity
  8
plug_outside
 62
7
100
AcDbPolyline
 90
2
 70
0
 10
38.830755
 20
8.797178
 30
0.0
 10
30.129003
 20
8.797178
 30
0.0
  0
SPLINE
  5
126
100
AcDbEntity
  8
plug_outside
 62
7
100
AcDbSpline
 70
8
 71
3
 72
8
 73
4
 74
0
 40
0
 40
0
 40
0
 40
0
 40
1
 40
1
 40
1
 40
1
 10
29.375504
 20
6.159925
 30
0.0
 10
29.375504
 20
5.742490
 30
0.0
 10
29.711563
 20
5.406448
 30
0.0
 10
30.129003
 20
5.406448
 30
0.0
  0
LWPOLYLINE
  5
127
100
AcDbEntity
  8
plug_outside
 62
7
100
AcDbPolyline
 90
2
 70
0
 10
29.375504
 20
8.043673
 30
0.0
 10
29.375504
 20
6.159925
 30
0.0
  0
SPLINE
  5
128
100
AcDbEntity
  8
plug_outside
 62
7
100
AcDbSpline
 70
8
 71
3
 72
8
 73
4
 74
0
 40
0
 40
0
 40
0
 40
0
 40
1
 40
1
 40
1
 40
1
 10
39.171002
 20
5.406448
 30
0.0
 10
39.588443
 20
5.406448
 30
0.0
 10
39.924505
 20
5.742490
 30
0.0
 10
39.924505
 20
6.159925
 30
0.0
  0
LWPOLYLINE
  5
129
100
AcDbEntity
  8
plug_outside
 62
7
100
AcDbPolyline
 90
2
 70
0
 10
30.129003
 20
5.406448
 30
0.0
 10
39.171002
 20
5.406448
 30
0.0
  0
SPLINE
  5
12a
100
AcDbEntity
  8
plug_outside
 62
7
100
AcDbSpline
 70
8
 71
3
 72
8
 73
4
 74
0
 40
0
 40
0
 40
0
 40
0
 40
1
 40
1
 40
1
 40
1
 10
39.924505
 20
7.703426
 30
0.0
 10
39.924505
 20
8.120889
 30
0.0
 10
39.248196
 20
8.797178
 30
0.0
 10
38.830755
 20
8.797178
 30
0.0
  0
LWPOLYLINE
  5
12b
100
AcDbEntity
  8
plug_outside
 62
7
100
AcDbPolyline
 90
2
 70
0
 10
39.924505
 20
6.159925
 30
0.0
 10
39.924505
 20
7.703426
 30
0.0
  0
SPLINE
  5
12c
100
AcDbEntity
  8
plug_inside
 62
7
100
AcDbSpline
 70
8
 71
3
 72
8
 73
4
 74
0
 40
0
 40
0
 40
0
 40
0
 40
1
 40
1
 40
1
 40
1
 10
23.115186
 20
7.070640
 30
0.0
 10
23.115186
 20
6.842717
 30
0.0
 10
22.993591
 20
6.632108
 30
0.0
 10
22.796205
 20
6.518147
 30
0.0
  0
SPLINE
  5
12d
100
AcDbEntity
  8
plug_inside
 62
7
100
AcDbSpline
 70
8
 71
3
 72
8
 73
4
 74
0
 40
0
 40
0
 40
0
 40
0
 40
1
 40
1
 40
1
 40
1
 10
22.796205
 20
6.518147
 30
0.0
 10
22.598818
 20
6.404186
 30
0.0
 10
22.355628
 20
6.404186
 30
0.0
 10
22.158241
 20
6.518147
 30
0.0
  0
SPLINE
  5
12e
100
AcDbEntity
  8
plug_inside
 62
7
100
AcDbSpline
 70
8
 71
3
 72
8
 73
4
 74
0
 40
0
 40
0
 40
0
 40
0
 40
1
 40
1
 40
1
 40
1
 10
22.158241
 20
6.518147
 30
0.0
 10
21.960855
 20
6.632108
 30
0.0
 10
21.839260
 20
6.842717
 30
0.0
 10
21.839260
 20
7.070640
 30
0.0
  0
SPLINE
  5
12f
100
AcDbEntity
  8
plug_inside
 62
7
100
AcDbSpline
 70
8
 71
3
 72
8
 73
4
 74
0
 40
0
 40
0
 40
0
 40
0
 40
1
 40
1
 40
1
 40
1
 10
21.839260
 20
7.070640
 30
0.0
 10
21.839260
 20
7.298562
 30
0.0
 10
21.960855
 20
7.509171
 30
0.0
 10
22.158241
 20
7.623132
 30
0.0
  0
SPLINE
  5
130
100
AcDbEntity
  8
plug_inside
 62
7
100
AcDbSpline
 70
8
 71
3
 72
8
 73
4
 74
0
 40
0
 40
0
 40
0
 40
0
 40
1
 40
1
 40
1
 40
1
 10
22.158241
 20
7.623132
 30
0.0
 10
22.355628
 20
7.737093
 30
0.0
 10
22.598818
 20
7.737093
 30
0.0
 10
22.796205
 20
7.623132
 30
0.0
  0
SPLINE
  5
131
100
AcDbEntity
  8
plug_inside
 62
7
100
AcDbSpline
 70
8
 71
3
 72
8
 73
4
 74
0
 40
0
 40
0
 40
0
 40
0
 40
1
 40
1
 40
1
 40
1
 10
22.796205
 20
7.623132
 30
0.0
 10
22.993591
 20
7.509171
 30
0.0
 10
23.115186
 20
7.298562
 30
0.0
 10
23.115186
 20
7.070640
 30
0.0
  0
LWPOLYLINE
  5
132
100
AcDbEntity
  8
plug_outside
 62
7
100
AcDbPolyline
 90
2
 70
0
 10
38.830755
 20
8.797178
 30
0.0
 10
38.830755
 20
8.797178
 30
0.0
  0
SPLINE
  5
133
100
AcDbEntity
  8
plug_inside
 62
7
100
AcDbSpline
 70
8
 71
3
 72
8
 73
4
 74
0
 40
0
 40
0
 40
0
 40
0
 40
1
 40
1
 40
1
 40
1
 10
27.155621
 20
7.070640
 30
0.0
 10
27.155621
 20
6.842717
 30
0.0
 10
27.034026
 20
6.632108
 30
0.0
 10
26.836639
 20
6.518147
 30
0.0
  0
SPLINE
  5
134
100
AcDbEntity
  8
plug_inside
 62
7
100
AcDbSpline
 70
8
 71
3
 72
8
 73
4
 74
0
 40
0
 40
0
 40
0
 40
0
 40
1
 40
1
 40
1
 40
1
 10
26.836639
 20
6.518147
 30
0.0
 10
26.639253
 20
6.404186
 30
0.0
 10
26.396062
 20
6.404186
 30
0.0
 10
26.198676
 20
6.518147
 30
0.0
  0
SPLINE
  5
135
100
AcDbEntity
  8
plug_inside
 62
7
100
AcDbSpline
 70
8
 71
3
 72
8
 73
4
 74
0
 40
0
 40
0
 40
0
 40
0
 40
1
 40
1
 40
1
 40
1
 10
26.198676
 20
6.518147
 30
0.0
 10
26.001289
 20
6.632108
 30
0.0
 10
25.879694
 20
6.842717
 30
0.0
 10
25.879694
 20
7.070640
 30
0.0
  0
SPLINE
  5
136
100
AcDbEntity
  8
plug_inside
 62
7
100
AcDbSpline
 70
8
 71
3
 72
8
 73
4
 74
0
 40
0
 40
0
 40
0
 40
0
 40
1
 40
1
 40
1
 40
1
 10
25.879694
 20
7.070640
 30
0.0
 10
25.879694
 20
7.298562
 30
0.0
 10
26.001289
 20
7.509171
 30
0.0
 10
26.198676
 20
7.623132
 30
0.0
  0
SPLINE
  5
137
100
AcDbEntity
  8
plug_inside
 62
7
100
AcDbSpline
 70
8
 71
3
 72
8
 73
4
 74
0
 40
0
 40
0
 40
0
 40
0
 40
1
 40
1
 40
1
 40
1
 10
26.198676
 20
7.623132
 30
0.0
 10
26.396062
 20
7.737093
 30
0.0
 10
26.639253
 20
7.737093
 30
0.0
 10
26.836639
 20
7.623132
 30
0.0
  0
SPLINE
  5
138
100
AcDbEntity
  8
plug_inside
 62
7
100
AcDbSpline
 70
8
 71
3
 72
8
 73
4
 74
0
 40
0
 40
0
 40
0
 40
0
 40
1
 40
1
 40
1
 40
1
 10
26.836639
 20
7.623132
 30
0.0
 10
27.034026
 20
7.509171
 30
0.0
 10
27.155621
 20
7.298562
 30
0.0
 10
27.155621
 20
7.070640
 30
0.0
  0
LWPOLYLINE
  5
139
100
AcDbEntity
  8
plug_inside
 62
7
100
AcDbPolyline
 90
2
 70
0
 10
23.115186
 20
7.070640
 30
0.0
 10
23.115186
 20
7.070640
 30
0.0
  0
SPLINE
  5
13a
100
AcDbEntity
  8
plug_inside
 62
7
100
AcDbSpline
 70
8
 71
3
 72
8
 73
4
 74
0
 40
0
 40
0
 40
0
 40
0
 40
1
 40
1
 40
1
 40
1
 10
19.074752
 20
7.070640
 30
0.0
 10
19.074752
 20
6.842717
 30
0.0
 10
18.953157
 20
6.632108
 30
0.0
 10
18.755770
 20
6.518147
 30
0.0
  0
SPLINE
  5
13b
100
AcDbEntity
  8
plug_inside
 62
7
100
AcDbSpline
 70
8
 71
3
 72
8
 73
4
 74
0
 40
0
 40
0
 40
0
 40
0
 40
1
 40
1
 40
1
 40
1
 10
18.755770
 20
6.518147
 30
0.0
 10
18.558384
 20
6.404186
 30
0.0
 10
18.315194
 20
6.404186
 30
0.0
 10
18.117807
 20
6.518147
 30
0.0
  0
SPLINE
  5
13c
100
AcDbEntity
  8
plug_inside
 62
7
100
AcDbSpline
 70
8
 71
3
 72
8
 73
4
 74
0
 40
0
 40
0
 40
0
 40
0
 40
1
 40
1
 40
1
 40
1
 10
18.117807
 20
6.518147
 30
0.0
 10
17.920420
 20
6.632108
 30
0.0
 10
17.798825
 20
6.842717
 30
0.0
 10
17.798825
 20
7.070640
 30
0.0
  0
SPLINE
  5
13d
100
AcDbEntity
  8
plug_inside
 62
7
100
AcDbSpline
 70
8
 71
3
 72
8
 73
4
 74
0
 40
0
 40
0
 40
0
 40
0
 40
1
 40
1
 40
1
 40
1
 10
17.798825
 20
7.070640
 30
0.0
 10
17.798825
 20
7.298562
 30
0.0
 10
17.920420
 20
7.509171
 30
0.0
 10
18.117807
 20
7.623132
 30
0.0
  0
SPLINE
  5
13e
100
AcDbEntity
  8
plug_inside
 62
7
100
AcDbSpline
 70
8
 71
3
 72
8
 73
4
 74
0
 40
0
 40
0
 40
0
 40
0
 40
1
 40
1
 40
1
 40
1
 10
18.117807
 20
7.623132
 30
0.0
 10
18.315194
 20
7.737093
 30
0.0
 10
18.558384
 20
7.737093
 30
0.0
 10
18.755770
 20
7.623132
 30
0.0
  0
SPLINE
  5
13f
100
AcDbEntity
  8
plug_inside
 62
7
100
AcDbSpline
 70
8
 71
3
 72
8
 73
4
 74
0
 40
0
 40
0
 40
0
 40
0
 40
1
 40
1
 40
1
 40
1
 10
18.755770
 20
7.623132
 30
0.0
 10
18.953157
 20
7.509171
 30
0.0
 10
19.074752
 20
7.298562
 30
0.0
 10
19.074752
 20
7.070640
 30
0.0
  0
LWPOLYLINE
  5
140
100
AcDbEntity
  8
plug_inside
 62
7
100
AcDbPolyline
 90
2
 70
0
 10
27.155621
 20
7.070640
 30
0.0
 10
27.155621
 20
7.070640
 30
0.0
  0
SPLINE
  5
141
100
AcDbEntity
  8
plug_inside
 62
7
100
AcDbSpline
 70
8
 71
3
 72
8
 73
4
 74
0
 40
0
 40
0
 40
0
 40
0
 40
1
 40
1
 40
1
 40
1
 10
35.175731
 20
7.070640
 30
0.0
 10
35.175731
 20
6.842717
 30
0.0
 10
35.054136
 20
6.632108
 30
0.0
 10
34.856750
 20
6.518147
 30
0.0
  0
SPLINE
  5
142
100
AcDbEntity
  8
plug_inside
 62
7
100
AcDbSpline
 70
8
 71
3
 72
8
 73
4
 74
0
 40
0
 40
0
 40
0
 40
0
 40
1
 40
1
 40
1
 40
1
 10
34.856750
 20
6.518147
 30
0.0
 10
34.659363
 20
6.404186
 30
0.0
 10
34.416173
 20
6.404186
 30
0.0
 10
34.218786
 20
6.518147
 30
0.0
  0
SPLINE
  5
143
100
AcDbEntity
  8
plug_inside
 62
7
100
AcDbSpline
 70
8
 71
3
 72
8
 73
4
 74
0
 40
0
 40
0
 40
0
 40
0
 40
1
 40
1
 40
1
 40
1
 10
34.218786
 20
6.518147
 30
0.0
 10
34.021400
 20
6.632108
 30
0.0
 10
33.899805
 20
6.842717
 30
0.0
 10
33.899805
 20
7.070640
 30
0.0
  0
SPLINE
  5
144
100
AcDbEntity
  8
plug_inside
 62
7
100
AcDbSpline
 70
8
 71
3
 72
8
 73
4
 74
0
 40
0
 40
0
 40
0
 40
0
 40
1
 40
1
 40
1
 40
1
 10
33.899805
 20
7.070640
 30
0.0
 10
33.899805
 20
7.298562
 30
0.0
 10
34.021400
 20
7.509171
 30
0.0
 10
34.218786
 20
7.623132
 30
0.0
  0
SPLINE
  5
145
100
AcDbEntity
  8
plug_inside
 62
7
100
AcDbSpline
 70
8
 71
3
 72
8
 73
4
 74
0
 40
0
 40
0
 40
0
 40
0
 40
1
 40
1
 40
1
 40
1
 10
34.218786
 20
7.623132
 30
0.0
 10
34.416173
 20
7.737093
 30
0.0
 10
34.659363
 20
7.737093
 30
0.0
 10
34.856750
 20
7.623132
 30
0.0
  0
SPLINE
  5
146
100
AcDbEntity
  8
plug_inside
 62
7
100
AcDbSpline
 70
8
 71
3
 72
8
 73
4
 74
0
 40
0
 40
0
 40
0
 40
0
 40
1
 40
1
 40
1
 40
1
 10
34.856750
 20
7.623132
 30
0.0
 10
35.054136
 20
7.509171
 30
0.0
 10
35.175731
 20
7.298562
 30
0.0
 10
35.175731
 20
7.070640
 30
0.0
  0
LWPOLYLINE
  5
147
100
AcDbEntity
  8
plug_inside
 62
7
100
AcDbPolyline
 90
2
 70
0
 10
19.074752
 20
7.070640
 30
0.0
 10
19.074752
 20
7.070640
 30
0.0
  0
SPLINE
  5
148
100
AcDbEntity
  8
plug_inside
 62
7
100
AcDbSpline
 70
8
 71
3
 72
8
 73
4
 74
0
 40
0
 40
0
 40
0
 40
0
 40
1
 40
1
 40
1
 40
1
 10
39.216166
 20
7.070640
 30
0.0
 10
39.216166
 20
6.842717
 30
0.0
 10
39.094571
 20
6.632108
 30
0.0
 10
38.897184
 20
6.518147
 30
0.0
  0
SPLINE
  5
149
100
AcDbEntity
  8
plug_inside
 62
7
100
AcDbSpline
 70
8
 71
3
 72
8
 73
4
 74
0
 40
0
 40
0
 40
0
 40
0
 40
1
 40
1
 40
1
 40
1
 10
38.897184
 20
6.518147
 30
0.0
 10
38.699798
 20
6.404186
 30
0.0
 10
38.456607
 20
6.404186
 30
0.0
 10
38.259221
 20
6.518147
 30
0.0
  0
SPLINE
  5
14a
100
AcDbEntity
  8
plug_inside
 62
7
100
AcDbSpline
 70
8
 71
3
 72
8
 73
4
 74
0
 40
0
 40
0
 40
0
 40
0
 40
1
 40
1
 40
1
 40
1
 10
38.259221
 20
6.518147
 30
0.0
 10
38.061834
 20
6.632108
 30
0.0
 10
37.940239
 20
6.842717
 30
0.0
 10
37.940239
 20
7.070640
 30
0.0
  0
SPLINE
  5
14b
100
AcDbEntity
  8
plug_inside
 62
7
100
AcDbSpline
 70
8
 71
3
 72
8
 73
4
 74
0
 40
0
 40
0
 40
0
 40
0
 40
1
 40
1
 40
1
 40
1
 10
37.940239
 20
7.070640
 30
0.0
 10
37.940239
 20
7.298562
 30
0.0
 10
38.061834
 20
7.509171
 30
0.0
 10
38.259221
 20
7.623132
 30
0.0
  0
SPLINE
  5
14c
100
AcDbEntity
  8
plug_inside
 62
7
100
AcDbSpline
 70
8
 71
3
 72
8
 73
4
 74
0
 40
0
 40
0
 40
0
 40
0
 40
1
 40
1
 40
1
 40
1
 10
38.259221
 20
7.623132
 30
0.0
 10
38.456607
 20
7.737093
 30
0.0
 10
38.699798
 20
7.737093
 30
0.0
 10
38.897184
 20
7.623132
 30
0.0
  0
SPLINE
  5
14d
100
AcDbEntity
  8
plug_inside
 62
7
100
AcDbSpline
 70
8
 71
3
 72
8
 73
4
 74
0
 40
0
 40
0
 40
0
 40
0
 40
1
 40
1
 40
1
 40
1
 10
38.897184
 20
7.623132
 30
0.0
 10
39.094571
 20
7.509171
 30
0.0
 10
39.216166
 20
7.298562
 30
0.0
 10
39.216166
 20
7.070640
 30
0.0
  0
LWPOLYLINE
  5
14e
100
AcDbEntity
  8
plug_inside
 62
7
100
AcDbPolyline
 90
2
 70
0
 10
35.175731
 20
7.070640
 30
0.0
 10
35.175731
 20
7.070640
 30
0.0
  0
SPLINE
  5
14f
100
AcDbEntity
  8
plug_inside
 62
7
100
AcDbSpline
 70
8
 71
3
 72
8
 73
4
 74
0
 40
0
 40
0
 40
0
 40
0
 40
1
 40
1
 40
1
 40
1
 10
31.135297
 20
7.070640
 30
0.0
 10
31.135297
 20
6.842717
 30
0.0
 10
31.013702
 20
6.632108
 30
0.0
 10
30.816315
 20
6.518147
 30
0.0
  0
SPLINE
  5
150
100
AcDbEntity
  8
plug_inside
 62
7
100
AcDbSpline
 70
8
 71
3
 72
8
 73
4
 74
0
 40
0
 40
0
 40
0
 40
0
 40
1
 40
1
 40
1
 40
1
 10
30.816315
 20
6.518147
 30
0.0
 10
30.618929
 20
6.404186
 30
0.0
 10
30.375738
 20
6.404186
 30
0.0
 10
30.178352
 20
6.518147
 30
0.0
  0
SPLINE
  5
151
100
AcDbEntity
  8
plug_inside
 62
7
100
AcDbSpline
 70
8
 71
3
 72
8
 73
4
 74
0
 40
0
 40
0
 40
0
 40
0
 40
1
 40
1
 40
1
 40
1
 10
30.178352
 20
6.518147
 30
0.0
 10
29.980965
 20
6.632108
 30
0.0
 10
29.859370
 20
6.842717
 30
0.0
 10
29.859370
 20
7.070640
 30
0.0
  0
SPLINE
  5
152
100
AcDbEntity
  8
plug_inside
 62
7
100
AcDbSpline
 70
8
 71
3
 72
8
 73
4
 74
0
 40
0
 40
0
 40
0
 40
0
 40
1
 40
1
 40
1
 40
1
 10
29.859370
 20
7.070640
 30
0.0
 10
29.859370
 20
7.298562
 30
0.0
 10
29.980965
 20
7.509171
 30
0.0
 10
30.178352
 20
7.623132
 30
0.0
  0
SPLINE
  5
153
100
AcDbEntity
  8
plug_inside
 62
7
100
AcDbSpline
 70
8
 71
3
 72
8
 73
4
 74
0
 40
0
 40
0
 40
0
 40
0
 40
1
 40
1
 40
1
 40
1
 10
30.178352
 20
7.623132
 30
0.0
 10
30.375738
 20
7.737093
 30
0.0
 10
30.618929
 20
7.737093
 30
0.0
 10
30.816315
 20
7.623132
 30
0.0
  0
SPLINE
  5
154
100
AcDbEntity
  8
plug_inside
 62
7
100
AcDbSpline
 70
8
 71
3
 72
8
 73
4
 74
0
 40
0
 40
0
 40
0
 40
0
 40
1
 40
1
 40
1
 40
1
 10
30.816315
 20
7.623132
 30
0.0
 10
31.013702
 20
7.509171
 30
0.0
 10
31.135297
 20
7.298562
 30
0.0
 10
31.135297
 20
7.070640
 30
0.0
  0
LWPOLYLINE
  5
155
100
AcDbEntity
  8
plug_inside
 62
7
100
AcDbPolyline
 90
2
 70
0
 10
39.216166
 20
7.070640
 30
0.0
 10
39.216166
 20
7.070640
 30
0.0
  0
SPLINE
  5
156
100
AcDbEntity
  8
plug_inside
 62
7
100
AcDbSpline
 70
8
 71
3
 72
8
 73
4
 74
0
 40
0
 40
0
 40
0
 40
0
 40
1
 40
1
 40
1
 40
1
 10
10.993883
 20
7.070640
 30
0.0
 10
10.993883
 20
6.842717
 30
0.0
 10
10.872288
 20
6.632108
 30
0.0
 10
10.674901
 20
6.518147
 30
0.0
  0
SPLINE
  5
157
100
AcDbEntity
  8
plug_inside
 62
7
100
AcDbSpline
 70
8
 71
3
 72
8
 73
4
 74
0
 40
0
 40
0
 40
0
 40
0
 40
1
 40
1
 40
1
 40
1
 10
10.674901
 20
6.518147
 30
0.0
 10
10.477515
 20
6.404186
 30
0.0
 10
10.234325
 20
6.404186
 30
0.0
 10
10.036938
 20
6.518147
 30
0.0
  0
SPLINE
  5
158
100
AcDbEntity
  8
plug_inside
 62
7
100
AcDbSpline
 70
8
 71
3
 72
8
 73
4
 74
0
 40
0
 40
0
 40
0
 40
0
 40
1
 40
1
 40
1
 40
1
 10
10.036938
 20
6.518147
 30
0.0
 10
9.839552
 20
6.632108
 30
0.0
 10
9.717956
 20
6.842717
 30
0.0
 10
9.717956
 20
7.070640
 30
0.0
  0
SPLINE
  5
159
100
AcDbEntity
  8
plug_inside
 62
7
100
AcDbSpline
 70
8
 71
3
 72
8
 73
4
 74
0
 40
0
 40
0
 40
0
 40
0
 40
1
 40
1
 40
1
 40
1
 10
9.717956
 20
7.070640
 30
0.0
 10
9.717956
 20
7.298562
 30
0.0
 10
9.839552
 20
7.509171
 30
0.0
 10
10.036938
 20
7.623132
 30
0.0
  0
SPLINE
  5
15a
100
AcDbEntity
  8
plug_inside
 62
7
100
AcDbSpline
 70
8
 71
3
 72
8
 73
4
 74
0
 40
0
 40
0
 40
0
 40
0
 40
1
 40
1
 40
1
 40
1
 10
10.036938
 20
7.623132
 30
0.0
 10
10.234325
 20
7.737093
 30
0.0
 10
10.477515
 20
7.737093
 30
0.0
 10
10.674901
 20
7.623132
 30
0.0
  0
SPLINE
  5
15b
100
AcDbEntity
  8
plug_inside
 62
7
100
AcDbSpline
 70
8
 71
3
 72
8
 73
4
 74
0
 40
0
 40
0
 40
0
 40
0
 40
1
 40
1
 40
1
 40
1
 10
10.674901
 20
7.623132
 30
0.0
 10
10.872288
 20
7.509171
 30
0.0
 10
10.993883
 20
7.298562
 30
0.0
 10
10.993883
 20
7.070640
 30
0.0
  0
LWPOLYLINE
  5
15c
100
AcDbEntity
  8
plug_inside
 62
7
100
AcDbPolyline
 90
2
 70
0
 10
31.135297
 20
7.070640
 30
0.0
 10
31.135297
 20
7.070640
 30
0.0
  0
SPLINE
  5
15d
100
AcDbEntity
  8
plug_inside
 62
7
100
AcDbSpline
 70
8
 71
3
 72
8
 73
4
 74
0
 40
0
 40
0
 40
0
 40
0
 40
1
 40
1
 40
1
 40
1
 10
15.034318
 20
7.070640
 30
0.0
 10
15.034318
 20
6.842717
 30
0.0
 10
14.912722
 20
6.632108
 30
0.0
 10
14.715336
 20
6.518147
 30
0.0
  0
SPLINE
  5
15e
100
AcDbEntity
  8
plug_inside
 62
7
100
AcDbSpline
 70
8
 71
3
 72
8
 73
4
 74
0
 40
0
 40
0
 40
0
 40
0
 40
1
 40
1
 40
1
 40
1
 10
14.715336
 20
6.518147
 30
0.0
 10
14.517949
 20
6.404186
 30
0.0
 10
14.274759
 20
6.404186
 30
0.0
 10
14.077373
 20
6.518147
 30
0.0
  0
SPLINE
  5
15f
100
AcDbEntity
  8
plug_inside
 62
7
100
AcDbSpline
 70
8
 71
3
 72
8
 73
4
 74
0
 40
0
 40
0
 40
0
 40
0
 40
1
 40
1
 40
1
 40
1
 10
14.077373
 20
6.518147
 30
0.0
 10
13.879986
 20
6.632108
 30
0.0
 10
13.758391
 20
6.842717
 30
0.0
 10
13.758391
 20
7.070640
 30
0.0
  0
SPLINE
  5
160
100
AcDbEntity
  8
plug_inside
 62
7
100
AcDbSpline
 70
8
 71
3
 72
8
 73
4
 74
0
 40
0
 40
0
 40
0
 40
0
 40
1
 40
1
 40
1
 40
1
 10
13.758391
 20
7.070640
 30
0.0
 10
13.758391
 20
7.298562
 30
0.0
 10
13.879986
 20
7.509171
 30
0.0
 10
14.077373
 20
7.623132
 30
0.0
  0
SPLINE
  5
161
100
AcDbEntity
  8
plug_inside
 62
7
100
AcDbSpline
 70
8
 71
3
 72
8
 73
4
 74
0
 40
0
 40
0
 40
0
 40
0
 40
1
 40
1
 40
1
 40
1
 10
14.077373
 20
7.623132
 30
0.0
 10
14.274759
 20
7.737093
 30
0.0
 10
14.517949
 20
7.737093
 30
0.0
 10
14.715336
 20
7.623132
 30
0.0
  0
SPLINE
  5
162
100
AcDbEntity
  8
plug_inside
 62
7
100
AcDbSpline
 70
8
 71
3
 72
8
 73
4
 74
0
 40
0
 40
0
 40
0
 40
0
 40
1
 40
1
 40
1
 40
1
 10
14.715336
 20
7.623132
 30
0.0
 10
14.912722
 20
7.509171
 30
0.0
 10
15.034318
 20
7.298562
 30
0.0
 10
15.034318
 20
7.070640
 30
0.0
  0
LWPOLYLINE
  5
163
100
AcDbEntity
  8
plug_inside
 62
7
100
AcDbPolyline
 90
2
 70
0
 10
10.993883
 20
7.070640
 30
0.0
 10
10.993883
 20
7.070640
 30
0.0
  0
SPLINE
  5
164
100
AcDbEntity
  8
plug_inside
 62
7
100
AcDbSpline
 70
8
 71
3
 72
8
 73
4
 74
0
 40
0
 40
0
 40
0
 40
0
 40
1
 40
1
 40
1
 40
1
 10
6.953449
 20
7.070640
 30
0.0
 10
6.953449
 20
6.842717
 30
0.0
 10
6.831854
 20
6.632108
 30
0.0
 10
6.634467
 20
6.518147
 30
0.0
  0
SPLINE
  5
165
100
AcDbEntity
  8
plug_inside
 62
7
100
AcDbSpline
 70
8
 71
3
 72
8
 73
4
 74
0
 40
0
 40
0
 40
0
 40
0
 40
1
 40
1
 40
1
 40
1
 10
6.634467
 20
6.518147
 30
0.0
 10
6.437080
 20
6.404186
 30
0.0
 10
6.193890
 20
6.404186
 30
0.0
 10
5.996504
 20
6.518147
 30
0.0
  0
SPLINE
  5
166
100
AcDbEntity
  8
plug_inside
 62
7
100
AcDbSpline
 70
8
 71
3
 72
8
 73
4
 74
0
 40
0
 40
0
 40
0
 40
0
 40
1
 40
1
 40
1
 40
1
 10
5.996504
 20
6.518147
 30
0.0
 10
5.799117
 20
6.632108
 30
0.0
 10
5.677522
 20
6.842717
 30
0.0
 10
5.677522
 20
7.070640
 30
0.0
  0
SPLINE
  5
167
100
AcDbEntity
  8
plug_inside
 62
7
100
AcDbSpline
 70
8
 71
3
 72
8
 73
4
 74
0
 40
0
 40
0
 40
0
 40
0
 40
1
 40
1
 40
1
 40
1
 10
5.677522
 20
7.070640
 30
0.0
 10
5.677522
 20
7.298562
 30
0.0
 10
5.799117
 20
7.509171
 30
0.0
 10
5.996504
 20
7.623132
 30
0.0
  0
SPLINE
  5
168
100
AcDbEntity
  8
plug_inside
 62
7
100
AcDbSpline
 70
8
 71
3
 72
8
 73
4
 74
0
 40
0
 40
0
 40
0
 40
0
 40
1
 40
1
 40
1
 40
1
 10
5.996504
 20
7.623132
 30
0.0
 10
6.193890
 20
7.737093
 30
0.0
 10
6.437080
 20
7.737093
 30
0.0
 10
6.634467
 20
7.623132
 30
0.0
  0
SPLINE
  5
169
100
AcDbEntity
  8
plug_inside
 62
7
100
AcDbSpline
 70
8
 71
3
 72
8
 73
4
 74
0
 40
0
 40
0
 40
0
 40
0
 40
1
 40
1
 40
1
 40
1
 10
6.634467
 20
7.623132
 30
0.0
 10
6.831854
 20
7.509171
 30
0.0
 10
6.953449
 20
7.298562
 30
0.0
 10
6.953449
 20
7.070640
 30
0.0
  0
LWPOLYLINE
  5
16a
100
AcDbEntity
  8
plug_inside
 62
7
100
AcDbPolyline
 90
2
 70
0
 10
15.034318
 20
7.070640
 30
0.0
 10
15.034318
 20
7.070640
 30
0.0
  0
LWPOLYLINE
  5
16b
100
AcDbEntity
  8
plug_inside
 62
7
100
AcDbPolyline
 90
2
 70
0
 10
6.953449
 20
7.070640
 30
0.0
 10
6.953449
 20
7.070640
 30
0.0
  0
ENDSEC
  0
SECTION
  2
OBJECTS
  0
DICTIONARY
  5
C
330
0
100
AcDbDictionary
  3
ACAD_GROUP
350
D
  3
ACAD_MLINESTYLE
350
17
  0
DICTIONARY
  5
D
330
C
100
AcDbDictionary
  0
DICTIONARY
  5
1A
330
C
100
AcDbDictionary
  0
DICTIONARY
  5
17
330
C
100
AcDbDictionary
  3
STANDARD
350
18
  0
DICTIONARY
  5
19
330
C
100
AcDbDictionary
  0
ENDSEC
  0
EOF
